<?xml version="1.0" encoding="UTF-8" standalone="no"?>
<!DOCTYPE svg PUBLIC "-//W3C//DTD SVG 1.1//EN"
 "http://www.w3.org/Graphics/SVG/1.1/DTD/svg11.dtd">
<!-- Generated by graphviz version 14.1.3 (20260303.0454)
 -->
<!-- Title: G Pages: 1 -->
<svg width="1087pt" height="217pt"
 viewBox="0.00 0.00 1087.00 217.00" xmlns="http://www.w3.org/2000/svg" xmlns:xlink="http://www.w3.org/1999/xlink">
<g id="graph0" class="graph" transform="scale(1 1) rotate(0) translate(14.4 202.4)">
<title>G</title>
<polygon fill="white" stroke="none" points="-14.4,14.4 -14.4,-202.4 1072.65,-202.4 1072.65,14.4 -14.4,14.4"/>
<!-- trace -->
<g id="node1" class="node">
<title>trace</title>
<polygon fill="#f5f5f5" stroke="none" points="1,-156 1,-187 80,-187 80,-156 1,-156"/>
<polygon fill="none" stroke="#5b6b73" points="1,-156 1,-187 80,-187 80,-156 1,-156"/>
<text xml:space="preserve" text-anchor="start" x="24.75" y="-166.7" font-family="Helvetica,sans-Serif" font-weight="bold" font-size="14.00">Lane</text>
<polygon fill="#f5f5f5" stroke="none" points="80,-156 80,-187 235.5,-187 235.5,-156 80,-156"/>
<polygon fill="none" stroke="#5b6b73" points="80,-156 80,-187 235.5,-187 235.5,-156 80,-156"/>
<text xml:space="preserve" text-anchor="start" x="113.12" y="-166.7" font-family="Helvetica,sans-Serif" font-weight="bold" font-size="14.00">Before switch</text>
<polygon fill="#f5f5f5" stroke="none" points="235.5,-156 235.5,-187 367.75,-187 367.75,-156 235.5,-156"/>
<polygon fill="none" stroke="#5b6b73" points="235.5,-156 235.5,-187 367.75,-187 367.75,-156 235.5,-156"/>
<text xml:space="preserve" text-anchor="start" x="259.62" y="-166.7" font-family="Helvetica,sans-Serif" font-weight="bold" font-size="14.00">Trap or timer</text>
<polygon fill="#f5f5f5" stroke="none" points="367.75,-156 367.75,-187 561.5,-187 561.5,-156 367.75,-156"/>
<polygon fill="none" stroke="#5b6b73" points="367.75,-156 367.75,-187 561.5,-187 561.5,-156 367.75,-156"/>
<text xml:space="preserve" text-anchor="start" x="411" y="-166.7" font-family="Helvetica,sans-Serif" font-weight="bold" font-size="14.00">Save old context</text>
<polygon fill="#f5f5f5" stroke="none" points="561.5,-156 561.5,-187 744.75,-187 744.75,-156 561.5,-156"/>
<polygon fill="none" stroke="#5b6b73" points="561.5,-156 561.5,-187 744.75,-187 744.75,-156 561.5,-156"/>
<text xml:space="preserve" text-anchor="start" x="612.62" y="-166.7" font-family="Helvetica,sans-Serif" font-weight="bold" font-size="14.00">Choose next</text>
<polygon fill="#f5f5f5" stroke="none" points="744.75,-156 744.75,-187 916,-187 916,-156 744.75,-156"/>
<polygon fill="none" stroke="#5b6b73" points="744.75,-156 744.75,-187 916,-187 916,-156 744.75,-156"/>
<text xml:space="preserve" text-anchor="start" x="764" y="-166.7" font-family="Helvetica,sans-Serif" font-weight="bold" font-size="14.00">Restore new context</text>
<polygon fill="#f5f5f5" stroke="none" points="916,-156 916,-187 1057.25,-187 1057.25,-156 916,-156"/>
<polygon fill="none" stroke="#5b6b73" points="916,-156 916,-187 1057.25,-187 1057.25,-156 916,-156"/>
<text xml:space="preserve" text-anchor="start" x="947.62" y="-166.7" font-family="Helvetica,sans-Serif" font-weight="bold" font-size="14.00">After switch</text>
<polygon fill="#e6f3f9" stroke="none" points="1,-125 1,-156 80,-156 80,-125 1,-125"/>
<polygon fill="none" stroke="#5b6b73" points="1,-125 1,-156 80,-156 80,-125 1,-125"/>
<text xml:space="preserve" text-anchor="start" x="26.25" y="-135.7" font-family="Helvetica,sans-Serif" font-weight="bold" font-size="14.00">CPU</text>
<polygon fill="none" stroke="#5b6b73" points="80,-125 80,-156 235.5,-156 235.5,-125 80,-125"/>
<text xml:space="preserve" text-anchor="start" x="109.75" y="-136.75" font-family="Helvetica,sans-Serif" font-size="14.00">P_old executing</text>
<polygon fill="none" stroke="#5b6b73" points="235.5,-125 235.5,-156 367.75,-156 367.75,-125 235.5,-125"/>
<text xml:space="preserve" text-anchor="start" x="243.5" y="-136.75" font-family="Helvetica,sans-Serif" font-size="14.00">enters kernel mode</text>
<polygon fill="none" stroke="#5b6b73" points="367.75,-125 367.75,-156 561.5,-156 561.5,-125 367.75,-125"/>
<text xml:space="preserve" text-anchor="start" x="386.25" y="-136.75" font-family="Helvetica,sans-Serif" font-size="14.00">registers and PC captured</text>
<polygon fill="none" stroke="#5b6b73" points="561.5,-125 561.5,-156 744.75,-156 744.75,-125 561.5,-125"/>
<text xml:space="preserve" text-anchor="start" x="583.38" y="-136.75" font-family="Helvetica,sans-Serif" font-size="14.00">not yet doing user work</text>
<polygon fill="none" stroke="#5b6b73" points="744.75,-125 744.75,-156 916,-156 916,-125 744.75,-125"/>
<text xml:space="preserve" text-anchor="start" x="771.12" y="-136.75" font-family="Helvetica,sans-Serif" font-size="14.00">P_new state loaded</text>
<polygon fill="none" stroke="#5b6b73" points="916,-125 916,-156 1057.25,-156 1057.25,-125 916,-125"/>
<text xml:space="preserve" text-anchor="start" x="935.25" y="-136.75" font-family="Helvetica,sans-Serif" font-size="14.00">P_new executing</text>
<polygon fill="#e6f3f9" stroke="none" points="1,-94 1,-125 80,-125 80,-94 1,-94"/>
<polygon fill="none" stroke="#5b6b73" points="1,-94 1,-125 80,-125 80,-94 1,-94"/>
<text xml:space="preserve" text-anchor="start" x="19.5" y="-104.7" font-family="Helvetica,sans-Serif" font-weight="bold" font-size="14.00">Kernel</text>
<polygon fill="none" stroke="#5b6b73" points="80,-94 80,-125 235.5,-125 235.5,-94 80,-94"/>
<text xml:space="preserve" text-anchor="start" x="116.12" y="-105.75" font-family="Helvetica,sans-Serif" font-size="14.00">scheduler idle</text>
<polygon fill="none" stroke="#5b6b73" points="235.5,-94 235.5,-125 367.75,-125 367.75,-94 235.5,-94"/>
<text xml:space="preserve" text-anchor="start" x="246.12" y="-105.75" font-family="Helvetica,sans-Serif" font-size="14.00">trap frame created</text>
<polygon fill="none" stroke="#5b6b73" points="367.75,-94 367.75,-125 561.5,-125 561.5,-94 367.75,-94"/>
<text xml:space="preserve" text-anchor="start" x="387.38" y="-105.75" font-family="Helvetica,sans-Serif" font-size="14.00">writes context to PCB_old</text>
<polygon fill="none" stroke="#5b6b73" points="561.5,-94 561.5,-125 744.75,-125 744.75,-94 561.5,-94"/>
<text xml:space="preserve" text-anchor="start" x="569.5" y="-105.75" font-family="Helvetica,sans-Serif" font-size="14.00">picks next runnable process</text>
<polygon fill="none" stroke="#5b6b73" points="744.75,-94 744.75,-125 916,-125 916,-94 744.75,-94"/>
<text xml:space="preserve" text-anchor="start" x="781.62" y="-105.75" font-family="Helvetica,sans-Serif" font-size="14.00">reads PCB_new</text>
<polygon fill="none" stroke="#5b6b73" points="916,-94 916,-125 1057.25,-125 1057.25,-94 916,-94"/>
<text xml:space="preserve" text-anchor="start" x="924" y="-105.75" font-family="Helvetica,sans-Serif" font-size="14.00">returns to user mode</text>
<polygon fill="#e6f3f9" stroke="none" points="1,-63 1,-94 80,-94 80,-63 1,-63"/>
<polygon fill="none" stroke="#5b6b73" points="1,-63 1,-94 80,-94 80,-63 1,-63"/>
<text xml:space="preserve" text-anchor="start" x="12.38" y="-73.7" font-family="Helvetica,sans-Serif" font-weight="bold" font-size="14.00">PCB_old</text>
<polygon fill="none" stroke="#5b6b73" points="80,-63 80,-94 235.5,-94 235.5,-63 80,-63"/>
<text xml:space="preserve" text-anchor="start" x="106.38" y="-74.75" font-family="Helvetica,sans-Serif" font-size="14.00">older saved state</text>
<polygon fill="none" stroke="#5b6b73" points="235.5,-63 235.5,-94 367.75,-94 367.75,-63 235.5,-63"/>
<text xml:space="preserve" text-anchor="start" x="268.25" y="-74.75" font-family="Helvetica,sans-Serif" font-size="14.00">unchanged</text>
<polygon fill="none" stroke="#5b6b73" points="367.75,-63 367.75,-94 561.5,-94 561.5,-63 367.75,-63"/>
<text xml:space="preserve" text-anchor="start" x="375.75" y="-74.75" font-family="Helvetica,sans-Serif" font-size="14.00">updated with latest CPU state</text>
<polygon fill="none" stroke="#5b6b73" points="561.5,-63 561.5,-94 744.75,-94 744.75,-63 561.5,-63"/>
<text xml:space="preserve" text-anchor="start" x="580.75" y="-74.75" font-family="Helvetica,sans-Serif" font-size="14.00">marked ready or waiting</text>
<polygon fill="none" stroke="#5b6b73" points="744.75,-63 744.75,-94 916,-94 916,-63 744.75,-63"/>
<text xml:space="preserve" text-anchor="start" x="778.62" y="-74.75" font-family="Helvetica,sans-Serif" font-size="14.00">retained in kernel</text>
<polygon fill="none" stroke="#5b6b73" points="916,-63 916,-94 1057.25,-94 1057.25,-63 916,-63"/>
<text xml:space="preserve" text-anchor="start" x="942.75" y="-74.75" font-family="Helvetica,sans-Serif" font-size="14.00">inactive record</text>
<polygon fill="#e6f3f9" stroke="none" points="1,-32 1,-63 80,-63 80,-32 1,-32"/>
<polygon fill="none" stroke="#5b6b73" points="1,-32 1,-63 80,-63 80,-32 1,-32"/>
<text xml:space="preserve" text-anchor="start" x="9" y="-42.7" font-family="Helvetica,sans-Serif" font-weight="bold" font-size="14.00">PCB_new</text>
<polygon fill="none" stroke="#5b6b73" points="80,-32 80,-63 235.5,-63 235.5,-32 80,-32"/>
<text xml:space="preserve" text-anchor="start" x="88" y="-43.75" font-family="Helvetica,sans-Serif" font-size="14.00">saved runnable context</text>
<polygon fill="none" stroke="#5b6b73" points="235.5,-32 235.5,-63 367.75,-63 367.75,-32 235.5,-32"/>
<text xml:space="preserve" text-anchor="start" x="268.25" y="-43.75" font-family="Helvetica,sans-Serif" font-size="14.00">unchanged</text>
<polygon fill="none" stroke="#5b6b73" points="367.75,-32 367.75,-63 561.5,-63 561.5,-32 367.75,-32"/>
<text xml:space="preserve" text-anchor="start" x="431.25" y="-43.75" font-family="Helvetica,sans-Serif" font-size="14.00">unchanged</text>
<polygon fill="none" stroke="#5b6b73" points="561.5,-32 561.5,-63 744.75,-63 744.75,-32 561.5,-32"/>
<text xml:space="preserve" text-anchor="start" x="591.25" y="-43.75" font-family="Helvetica,sans-Serif" font-size="14.00">selected for dispatch</text>
<polygon fill="none" stroke="#5b6b73" points="744.75,-32 744.75,-63 916,-63 916,-32 744.75,-32"/>
<text xml:space="preserve" text-anchor="start" x="765.5" y="-43.75" font-family="Helvetica,sans-Serif" font-size="14.00">copied back into CPU</text>
<polygon fill="none" stroke="#5b6b73" points="916,-32 916,-63 1057.25,-63 1057.25,-32 916,-32"/>
<text xml:space="preserve" text-anchor="start" x="925.88" y="-43.75" font-family="Helvetica,sans-Serif" font-size="14.00">now current process</text>
<polygon fill="#e6f3f9" stroke="none" points="1,-1 1,-32 80,-32 80,-1 1,-1"/>
<polygon fill="none" stroke="#5b6b73" points="1,-1 1,-32 80,-32 80,-1 1,-1"/>
<text xml:space="preserve" text-anchor="start" x="20.25" y="-11.7" font-family="Helvetica,sans-Serif" font-weight="bold" font-size="14.00">Cause</text>
<polygon fill="none" stroke="#5b6b73" points="80,-1 80,-32 235.5,-32 235.5,-1 80,-1"/>
<text xml:space="preserve" text-anchor="start" x="155.5" y="-12.75" font-family="Helvetica,sans-Serif" font-size="14.00">&#45;</text>
<polygon fill="none" stroke="#5b6b73" points="235.5,-1 235.5,-32 367.75,-32 367.75,-1 235.5,-1"/>
<text xml:space="preserve" text-anchor="start" x="243.5" y="-12.75" font-family="Helvetica,sans-Serif" font-size="14.00">timer, block, or trap</text>
<polygon fill="none" stroke="#5b6b73" points="367.75,-1 367.75,-32 561.5,-32 561.5,-1 367.75,-1"/>
<text xml:space="preserve" text-anchor="start" x="383.25" y="-12.75" font-family="Helvetica,sans-Serif" font-size="14.00">outgoing context preserved</text>
<polygon fill="none" stroke="#5b6b73" points="561.5,-1 561.5,-32 744.75,-32 744.75,-1 561.5,-1"/>
<text xml:space="preserve" text-anchor="start" x="597.25" y="-12.75" font-family="Helvetica,sans-Serif" font-size="14.00">scheduler decision</text>
<polygon fill="none" stroke="#5b6b73" points="744.75,-1 744.75,-32 916,-32 916,-1 744.75,-1"/>
<text xml:space="preserve" text-anchor="start" x="752.75" y="-12.75" font-family="Helvetica,sans-Serif" font-size="14.00">incoming context restored</text>
<polygon fill="none" stroke="#5b6b73" points="916,-1 916,-32 1057.25,-32 1057.25,-1 916,-1"/>
<text xml:space="preserve" text-anchor="start" x="929.62" y="-12.75" font-family="Helvetica,sans-Serif" font-size="14.00">execution resumes</text>
<polygon fill="none" stroke="#5b6b73" points="0,0 0,-188 1058.25,-188 1058.25,0 0,0"/>
</g>
</g>
</svg>
