<?xml version="1.0" encoding="UTF-8" standalone="no"?>
<!DOCTYPE svg PUBLIC "-//W3C//DTD SVG 1.1//EN"
 "http://www.w3.org/Graphics/SVG/1.1/DTD/svg11.dtd">
<!-- Generated by graphviz version 14.1.3 (20260303.0454)
 -->
<!-- Title: G Pages: 1 -->
<svg width="447pt" height="719pt"
 viewBox="0.00 0.00 447.00 719.00" xmlns="http://www.w3.org/2000/svg" xmlns:xlink="http://www.w3.org/1999/xlink">
<g id="graph0" class="graph" transform="scale(1 1) rotate(0) translate(18 701)">
<title>G</title>
<polygon fill="white" stroke="none" points="-18,18 -18,-701 428.75,-701 428.75,18 -18,18"/>
<!-- parent -->
<g id="node1" class="node">
<title>parent</title>
<path fill="#ddeaf1" stroke="#5b6b73" d="M208.62,-683C208.62,-683 127.38,-683 127.38,-683 121.38,-683 115.38,-677 115.38,-671 115.38,-671 115.38,-659 115.38,-659 115.38,-653 121.38,-647 127.38,-647 127.38,-647 208.62,-647 208.62,-647 214.62,-647 220.62,-653 220.62,-659 220.62,-659 220.62,-671 220.62,-671 220.62,-677 214.62,-683 208.62,-683"/>
<text xml:space="preserve" text-anchor="middle" x="168" y="-659.2" font-family="Helvetica,sans-Serif" font-size="14.00" fill="#233238">parent process</text>
</g>
<!-- child -->
<g id="node2" class="node">
<title>child</title>
<path fill="#bfe2f1" stroke="#5b6b73" d="M203.38,-587C203.38,-587 132.62,-587 132.62,-587 126.62,-587 120.62,-581 120.62,-575 120.62,-575 120.62,-563 120.62,-563 120.62,-557 126.62,-551 132.62,-551 132.62,-551 203.38,-551 203.38,-551 209.38,-551 215.38,-557 215.38,-563 215.38,-563 215.38,-575 215.38,-575 215.38,-581 209.38,-587 203.38,-587"/>
<text xml:space="preserve" text-anchor="middle" x="168" y="-563.2" font-family="Helvetica,sans-Serif" font-size="14.00" fill="#233238">child process</text>
</g>
<!-- parent&#45;&gt;child -->
<g id="edge1" class="edge">
<title>parent&#45;&gt;child</title>
<path fill="none" stroke="#5b6b73" stroke-width="1.05" d="M168,-646.76C168,-632.67 168,-612.52 168,-596.4"/>
<polygon fill="#5b6b73" stroke="#5b6b73" stroke-width="1.05" points="170.63,-596.54 168,-589.04 165.38,-596.54 170.63,-596.54"/>
<text xml:space="preserve" text-anchor="middle" x="200.25" y="-612.55" font-family="Helvetica,sans-Serif" font-size="11.00">fork() / create</text>
</g>
<!-- reaped -->
<g id="node6" class="node">
<title>reaped</title>
<path fill="#d5edf7" stroke="#5b6b73" d="M158.5,-38C158.5,-38 31.5,-38 31.5,-38 25.5,-38 19.5,-32 19.5,-26 19.5,-26 19.5,-12 19.5,-12 19.5,-6 25.5,0 31.5,0 31.5,0 158.5,0 158.5,0 164.5,0 170.5,-6 170.5,-12 170.5,-12 170.5,-26 170.5,-26 170.5,-32 164.5,-38 158.5,-38"/>
<text xml:space="preserve" text-anchor="middle" x="95" y="-20.7" font-family="Helvetica,sans-Serif" font-size="14.00" fill="#233238">reaped</text>
<text xml:space="preserve" text-anchor="middle" x="95" y="-5.7" font-family="Helvetica,sans-Serif" font-size="14.00" fill="#233238">final cleanup complete</text>
</g>
<!-- parent&#45;&gt;reaped -->
<g id="edge6" class="edge">
<title>parent&#45;&gt;reaped</title>
<path fill="none" stroke="#5b6b73" stroke-width="1.05" d="M136.79,-646.54C88.21,-619.36 0,-570 0,-570 0,-570 0,-570 0,-115 0,-115 42.42,-72.58 70.57,-44.43"/>
<polygon fill="#5b6b73" stroke="#5b6b73" stroke-width="1.05" points="72.11,-46.6 75.56,-39.44 68.4,-42.89 72.11,-46.6"/>
<text xml:space="preserve" text-anchor="middle" x="36" y="-346.55" font-family="Helvetica,sans-Serif" font-size="11.00">wait() can reap</text>
</g>
<!-- parent_exit -->
<g id="node7" class="node">
<title>parent_exit</title>
<path fill="#f5f5f5" stroke="#5b6b73" d="M384.62,-527C384.62,-527 297.38,-527 297.38,-527 291.38,-527 285.38,-521 285.38,-515 285.38,-515 285.38,-503 285.38,-503 285.38,-497 291.38,-491 297.38,-491 297.38,-491 384.62,-491 384.62,-491 390.62,-491 396.62,-497 396.62,-503 396.62,-503 396.62,-515 396.62,-515 396.62,-521 390.62,-527 384.62,-527"/>
<text xml:space="preserve" text-anchor="middle" x="341" y="-503.2" font-family="Helvetica,sans-Serif" font-size="14.00" fill="#233238">parent exits first</text>
</g>
<!-- parent&#45;&gt;parent_exit -->
<g id="edge8" class="edge">
<title>parent&#45;&gt;parent_exit</title>
<path fill="none" stroke="#5b6b73" stroke-width="1.05" d="M198.53,-646.61C218.16,-635.44 240,-623 240,-623 240,-623 290.03,-567.02 319.67,-533.86"/>
<polygon fill="#5b6b73" stroke="#5b6b73" stroke-width="1.05" points="321.56,-535.69 324.6,-528.35 317.65,-532.19 321.56,-535.69"/>
<text xml:space="preserve" text-anchor="middle" x="294.38" y="-612.55" font-family="Helvetica,sans-Serif" font-size="11.00">if parent dies early</text>
</g>
<!-- exec -->
<g id="node3" class="node">
<title>exec</title>
<path fill="#d5edf7" stroke="#5b6b73" d="M188.12,-467C188.12,-467 55.88,-467 55.88,-467 49.88,-467 43.88,-461 43.88,-455 43.88,-455 43.88,-441 43.88,-441 43.88,-435 49.88,-429 55.88,-429 55.88,-429 188.12,-429 188.12,-429 194.12,-429 200.12,-435 200.12,-441 200.12,-441 200.12,-455 200.12,-455 200.12,-461 194.12,-467 188.12,-467"/>
<text xml:space="preserve" text-anchor="middle" x="122" y="-449.7" font-family="Helvetica,sans-Serif" font-size="14.00" fill="#233238">optional exec()</text>
<text xml:space="preserve" text-anchor="middle" x="122" y="-434.7" font-family="Helvetica,sans-Serif" font-size="14.00" fill="#233238">replace program image</text>
</g>
<!-- child&#45;&gt;exec -->
<g id="edge2" class="edge">
<title>child&#45;&gt;exec</title>
<path fill="none" stroke="#5b6b73" stroke-width="1.05" d="M161.31,-550.7C153.71,-531.03 141.21,-498.7 132.35,-475.78"/>
<polygon fill="#5b6b73" stroke="#5b6b73" stroke-width="1.05" points="134.88,-475.03 129.72,-468.98 129.98,-476.92 134.88,-475.03"/>
<text xml:space="preserve" text-anchor="middle" x="170.56" y="-504.55" font-family="Helvetica,sans-Serif" font-size="11.00">optional</text>
</g>
<!-- running -->
<g id="node4" class="node">
<title>running</title>
<path fill="#f5f5f5" stroke="#5b6b73" d="M229.25,-369C229.25,-369 160.75,-369 160.75,-369 154.75,-369 148.75,-363 148.75,-357 148.75,-357 148.75,-345 148.75,-345 148.75,-339 154.75,-333 160.75,-333 160.75,-333 229.25,-333 229.25,-333 235.25,-333 241.25,-339 241.25,-345 241.25,-345 241.25,-357 241.25,-357 241.25,-363 235.25,-369 229.25,-369"/>
<text xml:space="preserve" text-anchor="middle" x="195" y="-345.2" font-family="Helvetica,sans-Serif" font-size="14.00" fill="#233238">child running</text>
</g>
<!-- child&#45;&gt;running -->
<g id="edge3" class="edge">
<title>child&#45;&gt;running</title>
<path fill="none" stroke="#5b6b73" stroke-width="1.05" d="M179.71,-550.85C187.39,-539.61 196,-527 196,-527 196,-527 239,-405 239,-405 239,-405 239,-393 239,-393 239,-393 230.02,-384.63 220.17,-375.45"/>
<polygon fill="#5b6b73" stroke="#5b6b73" stroke-width="1.05" points="222.1,-373.66 214.82,-370.47 218.52,-377.5 222.1,-373.66"/>
<text xml:space="preserve" text-anchor="middle" x="253.18" y="-443.55" font-family="Helvetica,sans-Serif" font-size="11.00">continues</text>
</g>
<!-- exec&#45;&gt;running -->
<g id="edge4" class="edge">
<title>exec&#45;&gt;running</title>
<path fill="none" stroke="#5b6b73" stroke-width="1.05" d="M128.09,-428.72C133.32,-413.05 140,-393 140,-393 140,-393 151.88,-384.15 164.59,-374.67"/>
<polygon fill="#5b6b73" stroke="#5b6b73" stroke-width="1.05" points="165.96,-376.92 170.4,-370.34 162.82,-372.72 165.96,-376.92"/>
<text xml:space="preserve" text-anchor="middle" x="188" y="-394.55" font-family="Helvetica,sans-Serif" font-size="11.00">new program image</text>
</g>
<!-- zombie -->
<g id="node5" class="node">
<title>zombie</title>
<path fill="#f5f5f5" stroke="#5b6b73" d="M162.12,-211C162.12,-211 47.88,-211 47.88,-211 41.88,-211 35.88,-205 35.88,-199 35.88,-199 35.88,-170 35.88,-170 35.88,-164 41.88,-158 47.88,-158 47.88,-158 162.12,-158 162.12,-158 168.12,-158 174.12,-164 174.12,-170 174.12,-170 174.12,-199 174.12,-199 174.12,-205 168.12,-211 162.12,-211"/>
<text xml:space="preserve" text-anchor="middle" x="105" y="-193.7" font-family="Helvetica,sans-Serif" font-size="14.00" fill="#233238">zombie</text>
<text xml:space="preserve" text-anchor="middle" x="105" y="-178.7" font-family="Helvetica,sans-Serif" font-size="14.00" fill="#233238">status retained,</text>
<text xml:space="preserve" text-anchor="middle" x="105" y="-163.7" font-family="Helvetica,sans-Serif" font-size="14.00" fill="#233238">no normal execution</text>
</g>
<!-- running&#45;&gt;zombie -->
<g id="edge5" class="edge">
<title>running&#45;&gt;zombie</title>
<path fill="none" stroke="#5b6b73" stroke-width="1.05" d="M166.48,-332.61C148.15,-321.44 127.75,-309 127.75,-309 127.75,-309 118.14,-256.82 111.41,-220.3"/>
<polygon fill="#5b6b73" stroke="#5b6b73" stroke-width="1.05" points="114,-219.85 110.06,-212.95 108.83,-220.8 114,-219.85"/>
<text xml:space="preserve" text-anchor="middle" x="167.88" y="-298.55" font-family="Helvetica,sans-Serif" font-size="11.00">exit before wait()</text>
</g>
<!-- orphan -->
<g id="node8" class="node">
<title>orphan</title>
<path fill="#f5f5f5" stroke="#5b6b73" d="M278.25,-273C278.25,-273 203.75,-273 203.75,-273 197.75,-273 191.75,-267 191.75,-261 191.75,-261 191.75,-247 191.75,-247 191.75,-241 197.75,-235 203.75,-235 203.75,-235 278.25,-235 278.25,-235 284.25,-235 290.25,-241 290.25,-247 290.25,-247 290.25,-261 290.25,-261 290.25,-267 284.25,-273 278.25,-273"/>
<text xml:space="preserve" text-anchor="middle" x="241" y="-255.7" font-family="Helvetica,sans-Serif" font-size="14.00" fill="#233238">orphan</text>
<text xml:space="preserve" text-anchor="middle" x="241" y="-240.7" font-family="Helvetica,sans-Serif" font-size="14.00" fill="#233238">child still alive</text>
</g>
<!-- running&#45;&gt;orphan -->
<g id="edge9" class="edge">
<title>running&#45;&gt;orphan</title>
<path fill="none" stroke="#5b6b73" stroke-width="1.05" d="M203.44,-332.58C210.37,-318.25 220.31,-297.73 228.22,-281.39"/>
<polygon fill="#5b6b73" stroke="#5b6b73" stroke-width="1.05" points="230.55,-282.61 231.45,-274.72 225.82,-280.32 230.55,-282.61"/>
<text xml:space="preserve" text-anchor="middle" x="251.25" y="-298.55" font-family="Helvetica,sans-Serif" font-size="11.00">still executing</text>
</g>
<!-- zombie&#45;&gt;reaped -->
<g id="edge7" class="edge">
<title>zombie&#45;&gt;reaped</title>
<path fill="none" stroke="#5b6b73" stroke-width="1.05" d="M103.42,-157.59C101.57,-127.4 98.53,-77.74 96.66,-47.06"/>
<polygon fill="#5b6b73" stroke="#5b6b73" stroke-width="1.05" points="99.29,-47.1 96.21,-39.78 94.05,-47.42 99.29,-47.1"/>
<text xml:space="preserve" text-anchor="middle" x="127.76" y="-111.55" font-family="Helvetica,sans-Serif" font-size="11.00">after wait()</text>
</g>
<!-- parent_exit&#45;&gt;orphan -->
<g id="edge10" class="edge">
<title>parent_exit&#45;&gt;orphan</title>
<path fill="none" stroke="#5b6b73" stroke-width="1.05" d="M336.83,-490.73C324.65,-440.34 290,-297 290,-297 290,-297 280.09,-288.51 269.19,-279.16"/>
<polygon fill="#5b6b73" stroke="#5b6b73" stroke-width="1.05" points="270.96,-277.22 263.56,-274.33 267.54,-281.21 270.96,-277.22"/>
<text xml:space="preserve" text-anchor="middle" x="363.12" y="-394.55" font-family="Helvetica,sans-Serif" font-size="11.00">original parent gone</text>
</g>
<!-- init -->
<g id="node9" class="node">
<title>init</title>
<path fill="#ddeaf1" stroke="#5b6b73" d="M294.38,-134C294.38,-134 187.62,-134 187.62,-134 181.62,-134 175.62,-128 175.62,-122 175.62,-122 175.62,-110 175.62,-110 175.62,-104 181.62,-98 187.62,-98 187.62,-98 294.38,-98 294.38,-98 300.38,-98 306.38,-104 306.38,-110 306.38,-110 306.38,-122 306.38,-122 306.38,-128 300.38,-134 294.38,-134"/>
<text xml:space="preserve" text-anchor="middle" x="241" y="-110.2" font-family="Helvetica,sans-Serif" font-size="14.00" fill="#233238">init / system reaper</text>
</g>
<!-- orphan&#45;&gt;init -->
<g id="edge11" class="edge">
<title>orphan&#45;&gt;init</title>
<path fill="none" stroke="#5b6b73" stroke-width="1.05" d="M241,-234.66C241,-211.05 241,-169.88 241,-143.04"/>
<polygon fill="#5b6b73" stroke="#5b6b73" stroke-width="1.05" points="243.63,-143.28 241,-135.78 238.38,-143.28 243.63,-143.28"/>
<text xml:space="preserve" text-anchor="middle" x="273.25" y="-180.05" font-family="Helvetica,sans-Serif" font-size="11.00">reparented to</text>
</g>
<!-- init&#45;&gt;reaped -->
<g id="edge12" class="edge">
<title>init&#45;&gt;reaped</title>
<path fill="none" stroke="#5b6b73" stroke-width="1.05" d="M214.22,-97.58C190.77,-82.32 156.51,-60.02 130.72,-43.24"/>
<polygon fill="#5b6b73" stroke="#5b6b73" stroke-width="1.05" points="132.4,-41.21 124.69,-39.32 129.54,-45.61 132.4,-41.21"/>
<text xml:space="preserve" text-anchor="middle" x="202.24" y="-63.55" font-family="Helvetica,sans-Serif" font-size="11.00">later wait()</text>
</g>
</g>
</svg>
