<?xml version="1.0" encoding="UTF-8" standalone="no"?>
<!DOCTYPE svg PUBLIC "-//W3C//DTD SVG 1.1//EN"
 "http://www.w3.org/Graphics/SVG/1.1/DTD/svg11.dtd">
<!-- Generated by graphviz version 14.1.3 (20260303.0454)
 -->
<!-- Title: G Pages: 1 -->
<svg width="537pt" height="507pt"
 viewBox="0.00 0.00 537.00 507.00" xmlns="http://www.w3.org/2000/svg" xmlns:xlink="http://www.w3.org/1999/xlink">
<g id="graph0" class="graph" transform="scale(1 1) rotate(0) translate(18 488.5)">
<title>G</title>
<polygon fill="white" stroke="none" points="-18,18 -18,-488.5 519.46,-488.5 519.46,18 -18,18"/>
<g id="clust1" class="cluster">
<title>cluster_process</title>
<path fill="#eaf6fb" stroke="#9ec9da" d="M223.21,-90.5C223.21,-90.5 449.21,-90.5 449.21,-90.5 455.21,-90.5 461.21,-96.5 461.21,-102.5 461.21,-102.5 461.21,-276 461.21,-276 461.21,-282 455.21,-288 449.21,-288 449.21,-288 223.21,-288 223.21,-288 217.21,-288 211.21,-282 211.21,-276 211.21,-276 211.21,-102.5 211.21,-102.5 211.21,-96.5 217.21,-90.5 223.21,-90.5"/>
<text xml:space="preserve" text-anchor="middle" x="336.21" y="-270.7" font-family="Times,serif" font-size="14.00">active process image</text>
</g>
<!-- program -->
<g id="node1" class="node">
<title>program</title>
<path fill="#f5f5f5" stroke="#5b6b73" d="M131.46,-470.5C131.46,-470.5 20.96,-470.5 20.96,-470.5 14.96,-470.5 8.96,-464.5 8.96,-458.5 8.96,-458.5 8.96,-444.5 8.96,-444.5 8.96,-438.5 14.96,-432.5 20.96,-432.5 20.96,-432.5 131.46,-432.5 131.46,-432.5 137.46,-432.5 143.46,-438.5 143.46,-444.5 143.46,-444.5 143.46,-458.5 143.46,-458.5 143.46,-464.5 137.46,-470.5 131.46,-470.5"/>
<text xml:space="preserve" text-anchor="middle" x="76.21" y="-453.2" font-family="Helvetica,sans-Serif" font-size="14.00" fill="#233238">program file on disk</text>
<text xml:space="preserve" text-anchor="middle" x="76.21" y="-438.2" font-family="Helvetica,sans-Serif" font-size="14.00" fill="#233238">passive instructions</text>
</g>
<!-- start -->
<g id="node2" class="node">
<title>start</title>
<ellipse fill="#bfe2f1" stroke="#5b6b73" cx="76.21" cy="-361" rx="76.21" ry="18"/>
<text xml:space="preserve" text-anchor="middle" x="76.21" y="-355.2" font-family="Helvetica,sans-Serif" font-size="14.00" fill="#233238">execution begins</text>
</g>
<!-- program&#45;&gt;start -->
<g id="edge1" class="edge">
<title>program&#45;&gt;start</title>
<path fill="none" stroke="#5b6b73" stroke-width="1.05" d="M76.21,-432.16C76.21,-419.45 76.21,-402.34 76.21,-388.2"/>
<polygon fill="#5b6b73" stroke="#5b6b73" stroke-width="1.05" points="78.83,-388.5 76.21,-381 73.58,-388.5 78.83,-388.5"/>
</g>
<!-- layout -->
<g id="node3" class="node">
<title>layout</title>
<path fill="#5b6b73" stroke="none" d="M441.58,-255.5C441.58,-255.5 230.83,-255.5 230.83,-255.5 224.83,-255.5 218.83,-249.5 218.83,-243.5 218.83,-243.5 218.83,-110.5 218.83,-110.5 218.83,-104.5 224.83,-98.5 230.83,-98.5 230.83,-98.5 441.58,-98.5 441.58,-98.5 447.58,-98.5 453.58,-104.5 453.58,-110.5 453.58,-110.5 453.58,-243.5 453.58,-243.5 453.58,-249.5 447.58,-255.5 441.58,-255.5"/>
<polygon fill="#f5f5f5" stroke="none" points="219.83,-223.5 219.83,-254.5 452.58,-254.5 452.58,-223.5 219.83,-223.5"/>
<polygon fill="none" stroke="#5b6b73" points="219.83,-223.5 219.83,-254.5 452.58,-254.5 452.58,-223.5 219.83,-223.5"/>
<text xml:space="preserve" text-anchor="start" x="289.33" y="-234.2" font-family="Helvetica,sans-Serif" font-weight="bold" font-size="14.00" fill="#233238">address space</text>
<polygon fill="#ddeaf1" stroke="none" points="219.83,-192.5 219.83,-223.5 452.58,-223.5 452.58,-192.5 219.83,-192.5"/>
<polygon fill="none" stroke="#5b6b73" points="219.83,-192.5 219.83,-223.5 452.58,-223.5 452.58,-192.5 219.83,-192.5"/>
<text xml:space="preserve" text-anchor="start" x="240.96" y="-204.25" font-family="Helvetica,sans-Serif" font-size="14.00" fill="#233238">code text: instructions being run</text>
<polygon fill="#ddeaf1" stroke="none" points="219.83,-161.5 219.83,-192.5 452.58,-192.5 452.58,-161.5 219.83,-161.5"/>
<polygon fill="none" stroke="#5b6b73" points="219.83,-161.5 219.83,-192.5 452.58,-192.5 452.58,-161.5 219.83,-161.5"/>
<text xml:space="preserve" text-anchor="start" x="240.58" y="-173.25" font-family="Helvetica,sans-Serif" font-size="14.00" fill="#233238">data section: globals and statics</text>
<polygon fill="#ddeaf1" stroke="none" points="219.83,-130.5 219.83,-161.5 452.58,-161.5 452.58,-130.5 219.83,-130.5"/>
<polygon fill="none" stroke="#5b6b73" points="219.83,-130.5 219.83,-161.5 452.58,-161.5 452.58,-130.5 219.83,-130.5"/>
<text xml:space="preserve" text-anchor="start" x="258.21" y="-142.25" font-family="Helvetica,sans-Serif" font-size="14.00" fill="#233238">heap: dynamic allocations</text>
<polygon fill="#ddeaf1" stroke="none" points="219.83,-99.5 219.83,-130.5 452.58,-130.5 452.58,-99.5 219.83,-99.5"/>
<polygon fill="none" stroke="#5b6b73" points="219.83,-99.5 219.83,-130.5 452.58,-130.5 452.58,-99.5 219.83,-99.5"/>
<text xml:space="preserve" text-anchor="start" x="227.83" y="-111.25" font-family="Helvetica,sans-Serif" font-size="14.00" fill="#233238">stack: calls, locals, return addresses</text>
<polygon fill="none" stroke="#5b6b73" points="218.83,-98.5 218.83,-255.5 453.58,-255.5 453.58,-98.5 218.83,-98.5"/>
</g>
<!-- start&#45;&gt;layout -->
<g id="edge2" class="edge">
<title>start&#45;&gt;layout</title>
<path fill="none" stroke="#5b6b73" stroke-width="1.05" d="M102.91,-343.84C138,-322.61 195.21,-288 195.21,-288 195.21,-288 210.07,-276.41 230.14,-260.75"/>
<polygon fill="#5b6b73" stroke="#5b6b73" stroke-width="1.05" points="231.58,-262.95 235.88,-256.27 228.35,-258.82 231.58,-262.95"/>
</g>
<!-- cpu -->
<g id="node4" class="node">
<title>cpu</title>
<path fill="#bfe2f1" stroke="#5b6b73" d="M298.83,-38C298.83,-38 139.58,-38 139.58,-38 133.58,-38 127.58,-32 127.58,-26 127.58,-26 127.58,-12 127.58,-12 127.58,-6 133.58,0 139.58,0 139.58,0 298.83,0 298.83,0 304.83,0 310.83,-6 310.83,-12 310.83,-12 310.83,-26 310.83,-26 310.83,-32 304.83,-38 298.83,-38"/>
<text xml:space="preserve" text-anchor="middle" x="219.21" y="-20.7" font-family="Helvetica,sans-Serif" font-size="14.00" fill="#233238">live CPU context</text>
<text xml:space="preserve" text-anchor="middle" x="219.21" y="-5.7" font-family="Helvetica,sans-Serif" font-size="14.00" fill="#233238">program counter + registers</text>
</g>
<!-- layout&#45;&gt;cpu -->
<g id="edge3" class="edge">
<title>layout&#45;&gt;cpu</title>
<path fill="none" stroke="#5b6b73" stroke-width="1.05" d="M278.39,-98.91C263.98,-79.7 249.51,-60.4 238.48,-45.71"/>
<polygon fill="#5b6b73" stroke="#5b6b73" stroke-width="1.05" points="240.61,-44.16 234.01,-39.73 236.41,-47.31 240.61,-44.16"/>
<text xml:space="preserve" text-anchor="middle" x="321.89" y="-63.2" font-family="Times,serif" font-size="14.00">current execution state</text>
</g>
<!-- resources -->
<g id="node5" class="node">
<title>resources</title>
<path fill="#d5edf7" stroke="#5b6b73" d="M481.58,-38C481.58,-38 368.83,-38 368.83,-38 362.83,-38 356.83,-32 356.83,-26 356.83,-26 356.83,-12 356.83,-12 356.83,-6 362.83,0 368.83,0 368.83,0 481.58,0 481.58,0 487.58,0 493.58,-6 493.58,-12 493.58,-12 493.58,-26 493.58,-26 493.58,-32 487.58,-38 481.58,-38"/>
<text xml:space="preserve" text-anchor="middle" x="425.21" y="-20.7" font-family="Helvetica,sans-Serif" font-size="14.00" fill="#233238">open resources</text>
<text xml:space="preserve" text-anchor="middle" x="425.21" y="-5.7" font-family="Helvetica,sans-Serif" font-size="14.00" fill="#233238">files and OS objects</text>
</g>
<!-- layout&#45;&gt;resources -->
<g id="edge4" class="edge">
<title>layout&#45;&gt;resources</title>
<path fill="none" stroke="#5b6b73" stroke-width="1.05" d="M380.18,-98.91C391.05,-79.87 401.95,-60.76 410.31,-46.11"/>
<polygon fill="#5b6b73" stroke="#5b6b73" stroke-width="1.05" points="412.45,-47.66 413.89,-39.84 407.89,-45.06 412.45,-47.66"/>
<text xml:space="preserve" text-anchor="middle" x="412.96" y="-63.2" font-family="Times,serif" font-size="14.00">uses</text>
</g>
<!-- pcb -->
<g id="node6" class="node">
<title>pcb</title>
<path fill="#bfe2f1" stroke="#5b6b73" d="M412.83,-387.5C412.83,-387.5 259.58,-387.5 259.58,-387.5 253.58,-387.5 247.58,-381.5 247.58,-375.5 247.58,-375.5 247.58,-346.5 247.58,-346.5 247.58,-340.5 253.58,-334.5 259.58,-334.5 259.58,-334.5 412.83,-334.5 412.83,-334.5 418.83,-334.5 424.83,-340.5 424.83,-346.5 424.83,-346.5 424.83,-375.5 424.83,-375.5 424.83,-381.5 418.83,-387.5 412.83,-387.5"/>
<text xml:space="preserve" text-anchor="middle" x="336.21" y="-370.2" font-family="Helvetica,sans-Serif" font-size="14.00" fill="#233238">PCB in kernel memory</text>
<text xml:space="preserve" text-anchor="middle" x="336.21" y="-355.2" font-family="Helvetica,sans-Serif" font-size="14.00" fill="#233238">saved state + scheduling +</text>
<text xml:space="preserve" text-anchor="middle" x="336.21" y="-340.2" font-family="Helvetica,sans-Serif" font-size="14.00" fill="#233238">memory + I/O metadata</text>
</g>
<!-- pcb&#45;&gt;layout -->
<g id="edge6" class="edge">
<title>pcb&#45;&gt;layout</title>
<path fill="none" stroke="#5b6b73" stroke-width="1.05" d="M336.21,-334.31C336.21,-315.82 336.21,-289.71 336.21,-264.13"/>
<polygon fill="#5b6b73" stroke="#5b6b73" stroke-width="1.05" points="338.83,-264.2 336.21,-256.7 333.58,-264.2 338.83,-264.2"/>
<text xml:space="preserve" text-anchor="middle" x="397.33" y="-299.2" font-family="Times,serif" font-size="14.00">represents this process</text>
</g>
<!-- pcb&#45;&gt;cpu -->
<g id="edge5" class="edge">
<title>pcb&#45;&gt;cpu</title>
<path fill="none" stroke="#5b6b73" stroke-width="1.05" d="M262.2,-334.01C203.48,-313.38 131.21,-288 131.21,-288 131.21,-288 131.21,-90.5 131.21,-90.5 131.21,-90.5 164.01,-64.22 189.56,-43.75"/>
<polygon fill="#5b6b73" stroke="#5b6b73" stroke-width="1.05" points="191.09,-45.89 195.3,-39.15 187.81,-41.79 191.09,-45.89"/>
<text xml:space="preserve" text-anchor="middle" x="167.21" y="-171.95" font-family="Times,serif" font-size="14.00">save / restore</text>
</g>
<!-- pcb&#45;&gt;resources -->
<g id="edge7" class="edge">
<title>pcb&#45;&gt;resources</title>
<path fill="none" stroke="#5b6b73" stroke-width="1.05" d="M407.29,-334.03C437.64,-322.94 466.21,-312.5 466.21,-312.5 466.21,-312.5 469.21,-288 469.21,-288 469.21,-288 469.21,-90.5 469.21,-90.5 469.21,-90.5 453.77,-65.77 441.18,-45.6"/>
<polygon fill="#5b6b73" stroke="#5b6b73" stroke-width="1.05" points="443.58,-44.48 437.38,-39.5 439.12,-47.26 443.58,-44.48"/>
<text xml:space="preserve" text-anchor="middle" x="485.33" y="-171.95" font-family="Times,serif" font-size="14.00">tracks</text>
</g>
</g>
</svg>
