<?xml version="1.0" encoding="UTF-8" standalone="no"?>
<!DOCTYPE svg PUBLIC "-//W3C//DTD SVG 1.1//EN"
 "http://www.w3.org/Graphics/SVG/1.1/DTD/svg11.dtd">
<!-- Generated by graphviz version 14.1.3 (20260303.0454)
 -->
<!-- Title: G Pages: 1 -->
<svg width="811pt" height="463pt"
 viewBox="0.00 0.00 811.00 463.00" xmlns="http://www.w3.org/2000/svg" xmlns:xlink="http://www.w3.org/1999/xlink">
<g id="graph0" class="graph" transform="scale(1 1) rotate(0) translate(18 444.5)">
<title>G</title>
<polygon fill="white" stroke="none" points="-18,18 -18,-444.5 793,-444.5 793,18 -18,18"/>
<g id="clust1" class="cluster">
<title>cluster_shared</title>
<path fill="#eaf6fb" stroke="#9ec9da" d="M20,-114C20,-114 268,-114 268,-114 274,-114 280,-120 280,-126 280,-126 280,-406.5 280,-406.5 280,-412.5 274,-418.5 268,-418.5 268,-418.5 20,-418.5 20,-418.5 14,-418.5 8,-412.5 8,-406.5 8,-406.5 8,-126 8,-126 8,-120 14,-114 20,-114"/>
<text xml:space="preserve" text-anchor="middle" x="144" y="-401.2" font-family="Times,serif" font-size="14.00">shared memory</text>
</g>
<g id="clust2" class="cluster">
<title>cluster_message</title>
<path fill="#eaf6fb" stroke="#9ec9da" d="M311,-114C311,-114 509,-114 509,-114 515,-114 521,-120 521,-126 521,-126 521,-406.5 521,-406.5 521,-412.5 515,-418.5 509,-418.5 509,-418.5 311,-418.5 311,-418.5 305,-418.5 299,-412.5 299,-406.5 299,-406.5 299,-126 299,-126 299,-120 305,-114 311,-114"/>
<text xml:space="preserve" text-anchor="middle" x="410" y="-401.2" font-family="Times,serif" font-size="14.00">local message passing</text>
</g>
<g id="clust3" class="cluster">
<title>cluster_remote</title>
<path fill="#eaf6fb" stroke="#9ec9da" d="M547,-8C547,-8 755,-8 755,-8 761,-8 767,-14 767,-20 767,-20 767,-405.5 767,-405.5 767,-411.5 761,-417.5 755,-417.5 755,-417.5 547,-417.5 547,-417.5 541,-417.5 535,-411.5 535,-405.5 535,-405.5 535,-20 535,-20 535,-14 541,-8 547,-8"/>
<text xml:space="preserve" text-anchor="middle" x="651" y="-400.2" font-family="Times,serif" font-size="14.00">client&#45;server across machines</text>
</g>
<!-- shm_a -->
<g id="node1" class="node">
<title>shm_a</title>
<path fill="#ddeaf1" stroke="#5b6b73" d="M80,-385C80,-385 28,-385 28,-385 22,-385 16,-379 16,-373 16,-373 16,-361 16,-361 16,-355 22,-349 28,-349 28,-349 80,-349 80,-349 86,-349 92,-355 92,-361 92,-361 92,-373 92,-373 92,-379 86,-385 80,-385"/>
<text xml:space="preserve" text-anchor="middle" x="54" y="-361.2" font-family="Helvetica,sans-Serif" font-size="14.00" fill="#233238">process A</text>
</g>
<!-- shm_region -->
<g id="node2" class="node">
<title>shm_region</title>
<path fill="#bfe2f1" stroke="#5b6b73" d="M156.25,-265C156.25,-265 81.75,-265 81.75,-265 75.75,-265 69.75,-259 69.75,-253 69.75,-253 69.75,-241 69.75,-241 69.75,-235 75.75,-229 81.75,-229 81.75,-229 156.25,-229 156.25,-229 162.25,-229 168.25,-235 168.25,-241 168.25,-241 168.25,-253 168.25,-253 168.25,-259 162.25,-265 156.25,-265"/>
<text xml:space="preserve" text-anchor="middle" x="119" y="-241.2" font-family="Helvetica,sans-Serif" font-size="14.00" fill="#233238">shared region</text>
</g>
<!-- shm_a&#45;&gt;shm_region -->
<g id="edge1" class="edge">
<title>shm_a&#45;&gt;shm_region</title>
<path fill="none" stroke="#5b6b73" stroke-width="1.05" d="M66.1,-340.74C75.87,-320.34 88,-295 88,-295 88,-295 95.26,-284 102.75,-272.64"/>
<polygon fill="#5b6b73" stroke="#5b6b73" stroke-width="1.05" points="63.79,-339.48 62.92,-347.38 68.52,-341.75 63.79,-339.48"/>
<polygon fill="#5b6b73" stroke="#5b6b73" stroke-width="1.05" points="104.82,-274.27 106.76,-266.56 100.44,-271.38 104.82,-274.27"/>
<text xml:space="preserve" text-anchor="middle" x="115" y="-302.55" font-family="Helvetica,sans-Serif" font-size="11.00">read / write</text>
</g>
<!-- shm_b -->
<g id="node3" class="node">
<title>shm_b</title>
<path fill="#ddeaf1" stroke="#5b6b73" d="M145,-158C145,-158 93,-158 93,-158 87,-158 81,-152 81,-146 81,-146 81,-134 81,-134 81,-128 87,-122 93,-122 93,-122 145,-122 145,-122 151,-122 157,-128 157,-134 157,-134 157,-146 157,-146 157,-152 151,-158 145,-158"/>
<text xml:space="preserve" text-anchor="middle" x="119" y="-134.2" font-family="Helvetica,sans-Serif" font-size="14.00" fill="#233238">process B</text>
</g>
<!-- shm_region&#45;&gt;shm_b -->
<g id="edge2" class="edge">
<title>shm_region&#45;&gt;shm_b</title>
<path fill="none" stroke="#5b6b73" stroke-width="1.05" d="M119,-219.81C119,-203.77 119,-183.3 119,-167.24"/>
<polygon fill="#5b6b73" stroke="#5b6b73" stroke-width="1.05" points="116.38,-219.57 119,-227.07 121.63,-219.57 116.38,-219.57"/>
<polygon fill="#5b6b73" stroke="#5b6b73" stroke-width="1.05" points="121.63,-167.45 119,-159.95 116.38,-167.45 121.63,-167.45"/>
<text xml:space="preserve" text-anchor="middle" x="146" y="-188.55" font-family="Helvetica,sans-Serif" font-size="11.00">read / write</text>
</g>
<!-- shm_kernel -->
<g id="node4" class="node">
<title>shm_kernel</title>
<path fill="#f5f5f5" stroke="#5b6b73" d="M259.75,-386C259.75,-386 140.25,-386 140.25,-386 134.25,-386 128.25,-380 128.25,-374 128.25,-374 128.25,-360 128.25,-360 128.25,-354 134.25,-348 140.25,-348 140.25,-348 259.75,-348 259.75,-348 265.75,-348 271.75,-354 271.75,-360 271.75,-360 271.75,-374 271.75,-374 271.75,-380 265.75,-386 259.75,-386"/>
<text xml:space="preserve" text-anchor="middle" x="200" y="-368.7" font-family="Helvetica,sans-Serif" font-size="14.00" fill="#233238">kernel sets up</text>
<text xml:space="preserve" text-anchor="middle" x="200" y="-353.7" font-family="Helvetica,sans-Serif" font-size="14.00" fill="#233238">mapping + protection</text>
</g>
<!-- shm_kernel&#45;&gt;shm_region -->
<g id="edge3" class="edge">
<title>shm_kernel&#45;&gt;shm_region</title>
<path fill="none" stroke="#5b6b73" stroke-width="1.05" d="M187.34,-347.56C173.49,-327.38 151.22,-294.94 135.89,-272.6"/>
<polygon fill="#5b6b73" stroke="#5b6b73" stroke-width="1.05" points="138.09,-271.17 131.68,-266.47 133.76,-274.14 138.09,-271.17"/>
<text xml:space="preserve" text-anchor="middle" x="200.88" y="-302.55" font-family="Helvetica,sans-Serif" font-size="11.00">establish once</text>
</g>
<!-- msg_a -->
<g id="node5" class="node">
<title>msg_a</title>
<path fill="#ddeaf1" stroke="#5b6b73" d="M352.62,-385C352.62,-385 319.38,-385 319.38,-385 313.38,-385 307.38,-379 307.38,-373 307.38,-373 307.38,-361 307.38,-361 307.38,-355 313.38,-349 319.38,-349 319.38,-349 352.62,-349 352.62,-349 358.62,-349 364.62,-355 364.62,-361 364.62,-361 364.62,-373 364.62,-373 364.62,-379 358.62,-385 352.62,-385"/>
<text xml:space="preserve" text-anchor="middle" x="336" y="-361.2" font-family="Helvetica,sans-Serif" font-size="14.00" fill="#233238">sender</text>
</g>
<!-- mailbox -->
<g id="node6" class="node">
<title>mailbox</title>
<path fill="#bfe2f1" stroke="#5b6b73" d="M431.62,-266C431.62,-266 350.38,-266 350.38,-266 344.38,-266 338.38,-260 338.38,-254 338.38,-254 338.38,-240 338.38,-240 338.38,-234 344.38,-228 350.38,-228 350.38,-228 431.62,-228 431.62,-228 437.62,-228 443.62,-234 443.62,-240 443.62,-240 443.62,-254 443.62,-254 443.62,-260 437.62,-266 431.62,-266"/>
<text xml:space="preserve" text-anchor="middle" x="391" y="-248.7" font-family="Helvetica,sans-Serif" font-size="14.00" fill="#233238">mailbox / port /</text>
<text xml:space="preserve" text-anchor="middle" x="391" y="-233.7" font-family="Helvetica,sans-Serif" font-size="14.00" fill="#233238">kernel buffer</text>
</g>
<!-- msg_a&#45;&gt;mailbox -->
<g id="edge4" class="edge">
<title>msg_a&#45;&gt;mailbox</title>
<path fill="none" stroke="#5b6b73" stroke-width="1.05" d="M338.48,-348.81C341.51,-327.8 346.25,-295 346.25,-295 346.25,-295 356.75,-283.97 367.58,-272.59"/>
<polygon fill="#5b6b73" stroke="#5b6b73" stroke-width="1.05" points="369.2,-274.7 372.47,-267.46 365.4,-271.08 369.2,-274.7"/>
<text xml:space="preserve" text-anchor="middle" x="361.62" y="-302.55" font-family="Helvetica,sans-Serif" font-size="11.00">send()</text>
</g>
<!-- msg_b -->
<g id="node7" class="node">
<title>msg_b</title>
<path fill="#ddeaf1" stroke="#5b6b73" d="M411,-158C411,-158 371,-158 371,-158 365,-158 359,-152 359,-146 359,-146 359,-134 359,-134 359,-128 365,-122 371,-122 371,-122 411,-122 411,-122 417,-122 423,-128 423,-134 423,-134 423,-146 423,-146 423,-152 417,-158 411,-158"/>
<text xml:space="preserve" text-anchor="middle" x="391" y="-134.2" font-family="Helvetica,sans-Serif" font-size="14.00" fill="#233238">receiver</text>
</g>
<!-- mailbox&#45;&gt;msg_b -->
<g id="edge5" class="edge">
<title>mailbox&#45;&gt;msg_b</title>
<path fill="none" stroke="#5b6b73" stroke-width="1.05" d="M391,-227.71C391,-211.02 391,-186.17 391,-167.34"/>
<polygon fill="#5b6b73" stroke="#5b6b73" stroke-width="1.05" points="393.63,-167.47 391,-159.97 388.38,-167.47 393.63,-167.47"/>
<text xml:space="preserve" text-anchor="middle" x="412" y="-188.55" font-family="Helvetica,sans-Serif" font-size="11.00">receive()</text>
</g>
<!-- msg_kernel -->
<g id="node8" class="node">
<title>msg_kernel</title>
<path fill="#f5f5f5" stroke="#5b6b73" d="M501,-386C501,-386 413,-386 413,-386 407,-386 401,-380 401,-374 401,-374 401,-360 401,-360 401,-354 407,-348 413,-348 413,-348 501,-348 501,-348 507,-348 513,-354 513,-360 513,-360 513,-374 513,-374 513,-380 507,-386 501,-386"/>
<text xml:space="preserve" text-anchor="middle" x="457" y="-368.7" font-family="Helvetica,sans-Serif" font-size="14.00" fill="#233238">kernel mediates</text>
<text xml:space="preserve" text-anchor="middle" x="457" y="-353.7" font-family="Helvetica,sans-Serif" font-size="14.00" fill="#233238">each exchange</text>
</g>
<!-- msg_kernel&#45;&gt;mailbox -->
<g id="edge6" class="edge">
<title>msg_kernel&#45;&gt;mailbox</title>
<path fill="none" stroke="#5b6b73" stroke-width="1.05" d="M446.69,-347.56C435.64,-327.82 418.03,-296.33 405.57,-274.06"/>
<polygon fill="#5b6b73" stroke="#5b6b73" stroke-width="1.05" points="407.97,-272.96 402.02,-267.7 403.39,-275.52 407.97,-272.96"/>
<text xml:space="preserve" text-anchor="middle" x="473.79" y="-308.55" font-family="Helvetica,sans-Serif" font-size="11.00">delivery, buffering,</text>
<text xml:space="preserve" text-anchor="middle" x="473.79" y="-296.55" font-family="Helvetica,sans-Serif" font-size="11.00">protection</text>
</g>
<!-- client -->
<g id="node9" class="node">
<title>client</title>
<path fill="#ddeaf1" stroke="#5b6b73" d="M664.25,-385C664.25,-385 589.75,-385 589.75,-385 583.75,-385 577.75,-379 577.75,-373 577.75,-373 577.75,-361 577.75,-361 577.75,-355 583.75,-349 589.75,-349 589.75,-349 664.25,-349 664.25,-349 670.25,-349 676.25,-355 676.25,-361 676.25,-361 676.25,-373 676.25,-373 676.25,-379 670.25,-385 664.25,-385"/>
<text xml:space="preserve" text-anchor="middle" x="627" y="-361.2" font-family="Helvetica,sans-Serif" font-size="14.00" fill="#233238">client process</text>
</g>
<!-- api -->
<g id="node10" class="node">
<title>api</title>
<path fill="#bfe2f1" stroke="#5b6b73" d="M697,-265C697,-265 585,-265 585,-265 579,-265 573,-259 573,-253 573,-253 573,-241 573,-241 573,-235 579,-229 585,-229 585,-229 697,-229 697,-229 703,-229 709,-235 709,-241 709,-241 709,-253 709,-253 709,-259 703,-265 697,-265"/>
<text xml:space="preserve" text-anchor="middle" x="641" y="-241.2" font-family="Helvetica,sans-Serif" font-size="14.00" fill="#233238">socket or RPC layer</text>
</g>
<!-- client&#45;&gt;api -->
<g id="edge7" class="edge">
<title>client&#45;&gt;api</title>
<path fill="none" stroke="#5b6b73" stroke-width="1.05" d="M613.8,-348.77C603.52,-335.35 591,-319 591,-319 591,-319 591,-295 591,-295 591,-295 603.61,-283.14 616.17,-271.34"/>
<polygon fill="#5b6b73" stroke="#5b6b73" stroke-width="1.05" points="617.84,-273.37 621.51,-266.32 614.25,-269.55 617.84,-273.37"/>
<text xml:space="preserve" text-anchor="middle" x="609" y="-302.55" font-family="Helvetica,sans-Serif" font-size="11.00">request</text>
</g>
<!-- api&#45;&gt;client -->
<g id="edge12" class="edge">
<title>api&#45;&gt;client</title>
<path fill="none" stroke="#5b6b73" stroke-width="1.05" d="M638.93,-265.48C636.6,-285.12 632.79,-317.2 630.1,-339.83"/>
<polygon fill="#5b6b73" stroke="#5b6b73" stroke-width="1.05" points="627.53,-339.25 629.25,-347.01 632.74,-339.87 627.53,-339.25"/>
<text xml:space="preserve" text-anchor="middle" x="657.38" y="-302.55" font-family="Helvetica,sans-Serif" font-size="11.00">response</text>
</g>
<!-- network -->
<g id="node11" class="node">
<title>network</title>
<ellipse fill="#f5f5f5" stroke="#5b6b73" cx="645" cy="-140" rx="41.11" ry="18"/>
<text xml:space="preserve" text-anchor="middle" x="645" y="-134.2" font-family="Helvetica,sans-Serif" font-size="14.00" fill="#233238">network</text>
</g>
<!-- api&#45;&gt;network -->
<g id="edge8" class="edge">
<title>api&#45;&gt;network</title>
<path fill="none" stroke="#5b6b73" stroke-width="1.05" d="M616.98,-228.77C598.29,-215.35 575.5,-199 575.5,-199 575.5,-199 575.5,-187 575.5,-187 575.5,-187 596.66,-173 615.63,-160.44"/>
<polygon fill="#5b6b73" stroke="#5b6b73" stroke-width="1.05" points="616.88,-162.76 621.68,-156.43 613.98,-158.38 616.88,-162.76"/>
<text xml:space="preserve" text-anchor="middle" x="618.25" y="-188.55" font-family="Helvetica,sans-Serif" font-size="11.00">marshal / transmit</text>
</g>
<!-- network&#45;&gt;api -->
<g id="edge11" class="edge">
<title>network&#45;&gt;api</title>
<path fill="none" stroke="#5b6b73" stroke-width="1.05" d="M652.82,-158.13C658.79,-171.21 666,-187 666,-187 666,-187 666,-199 666,-199 666,-199 660.26,-209.79 654.28,-221.04"/>
<polygon fill="#5b6b73" stroke="#5b6b73" stroke-width="1.05" points="652.12,-219.51 650.91,-227.36 656.75,-221.97 652.12,-219.51"/>
<text xml:space="preserve" text-anchor="middle" x="692.25" y="-188.55" font-family="Helvetica,sans-Serif" font-size="11.00">return path</text>
</g>
<!-- server -->
<g id="node12" class="node">
<title>server</title>
<path fill="#ddeaf1" stroke="#5b6b73" d="M691.25,-52C691.25,-52 610.75,-52 610.75,-52 604.75,-52 598.75,-46 598.75,-40 598.75,-40 598.75,-28 598.75,-28 598.75,-22 604.75,-16 610.75,-16 610.75,-16 691.25,-16 691.25,-16 697.25,-16 703.25,-22 703.25,-28 703.25,-28 703.25,-40 703.25,-40 703.25,-46 697.25,-52 691.25,-52"/>
<text xml:space="preserve" text-anchor="middle" x="651" y="-28.2" font-family="Helvetica,sans-Serif" font-size="14.00" fill="#233238">server process</text>
</g>
<!-- network&#45;&gt;server -->
<g id="edge9" class="edge">
<title>network&#45;&gt;server</title>
<path fill="none" stroke="#5b6b73" stroke-width="1.05" d="M624.86,-123.94C606.93,-110.52 583.5,-93 583.5,-93 583.5,-93 583.5,-81 583.5,-81 583.5,-81 601.01,-69.07 618.19,-57.36"/>
<polygon fill="#5b6b73" stroke="#5b6b73" stroke-width="1.05" points="619.45,-59.68 624.17,-53.29 616.49,-55.34 619.45,-59.68"/>
<text xml:space="preserve" text-anchor="middle" x="629.25" y="-82.55" font-family="Helvetica,sans-Serif" font-size="11.00">deliver bytes or call</text>
</g>
<!-- server&#45;&gt;network -->
<g id="edge10" class="edge">
<title>server&#45;&gt;network</title>
<path fill="none" stroke="#5b6b73" stroke-width="1.05" d="M661.96,-52.39C670.18,-65.42 680,-81 680,-81 680,-81 680,-93 680,-93 680,-93 671.54,-104.12 662.94,-115.43"/>
<polygon fill="#5b6b73" stroke="#5b6b73" stroke-width="1.05" points="661.05,-113.57 658.6,-121.13 665.23,-116.75 661.05,-113.57"/>
<text xml:space="preserve" text-anchor="middle" x="691.62" y="-82.55" font-family="Helvetica,sans-Serif" font-size="11.00">reply</text>
</g>
</g>
</svg>
