<?xml version="1.0" encoding="UTF-8" standalone="no"?>
<!DOCTYPE svg PUBLIC "-//W3C//DTD SVG 1.1//EN"
 "http://www.w3.org/Graphics/SVG/1.1/DTD/svg11.dtd">
<!-- Generated by graphviz version 14.1.3 (20260303.0454)
 -->
<!-- Title: G Pages: 1 -->
<svg width="533pt" height="347pt"
 viewBox="0.00 0.00 533.00 347.00" xmlns="http://www.w3.org/2000/svg" xmlns:xlink="http://www.w3.org/1999/xlink">
<g id="graph0" class="graph" transform="scale(1 1) rotate(0) translate(18 329)">
<title>G</title>
<polygon fill="white" stroke="none" points="-18,18 -18,-329 515,-329 515,18 -18,18"/>
<g id="clust1" class="cluster">
<title>cluster_proc</title>
<path fill="#eaf6fb" stroke="#9ec9da" d="M20,-56C20,-56 229,-56 229,-56 235,-56 241,-62 241,-68 241,-68 241,-245 241,-245 241,-251 235,-257 229,-257 229,-257 20,-257 20,-257 14,-257 8,-251 8,-245 8,-245 8,-68 8,-68 8,-62 14,-56 20,-56"/>
<text xml:space="preserve" text-anchor="middle" x="124.5" y="-239.7" font-family="Times,serif" font-size="14.00">process (resource container, shared)</text>
</g>
<g id="clust2" class="cluster">
<title>cluster_threads</title>
<path fill="#eaf6fb" stroke="#9ec9da" d="M277,-8C277,-8 485,-8 485,-8 491,-8 497,-14 497,-20 497,-20 497,-291 497,-291 497,-297 491,-303 485,-303 485,-303 277,-303 277,-303 271,-303 265,-297 265,-291 265,-291 265,-20 265,-20 265,-14 271,-8 277,-8"/>
<text xml:space="preserve" text-anchor="middle" x="381" y="-285.7" font-family="Times,serif" font-size="14.00">threads (execution contexts, per&#45;thread)</text>
</g>
<!-- aspace -->
<g id="node1" class="node">
<title>aspace</title>
<path fill="#ddeaf1" stroke="#5b6b73" d="M221,-224C221,-224 28,-224 28,-224 22,-224 16,-218 16,-212 16,-212 16,-198 16,-198 16,-192 22,-186 28,-186 28,-186 221,-186 221,-186 227,-186 233,-192 233,-198 233,-198 233,-212 233,-212 233,-218 227,-224 221,-224"/>
<text xml:space="preserve" text-anchor="middle" x="124.5" y="-206.7" font-family="Helvetica,sans-Serif" font-size="14.00" fill="#233238">address space</text>
<text xml:space="preserve" text-anchor="middle" x="124.5" y="-191.7" font-family="Helvetica,sans-Serif" font-size="14.00" fill="#233238">(code + data + heap + mappings)</text>
</g>
<!-- t1 -->
<g id="node4" class="node">
<title>t1</title>
<path fill="#d5edf7" stroke="#5b6b73" d="M419.62,-177C419.62,-177 341.38,-177 341.38,-177 335.38,-177 329.38,-171 329.38,-165 329.38,-165 329.38,-121 329.38,-121 329.38,-115 335.38,-109 341.38,-109 341.38,-109 419.62,-109 419.62,-109 425.62,-109 431.62,-115 431.62,-121 431.62,-121 431.62,-165 431.62,-165 431.62,-171 425.62,-177 419.62,-177"/>
<text xml:space="preserve" text-anchor="middle" x="380.5" y="-159.7" font-family="Helvetica,sans-Serif" font-size="14.00" fill="#233238">thread 1</text>
<text xml:space="preserve" text-anchor="middle" x="380.5" y="-144.7" font-family="Helvetica,sans-Serif" font-size="14.00" fill="#233238">PC + registers</text>
<text xml:space="preserve" text-anchor="middle" x="380.5" y="-129.7" font-family="Helvetica,sans-Serif" font-size="14.00" fill="#233238">stack</text>
<text xml:space="preserve" text-anchor="middle" x="380.5" y="-114.7" font-family="Helvetica,sans-Serif" font-size="14.00" fill="#233238">TLS</text>
</g>
<!-- aspace&#45;&gt;t1 -->
<g id="edge1" class="edge">
<title>aspace&#45;&gt;t1</title>
<path fill="none" stroke="#5b6b73" stroke-width="1.05" stroke-dasharray="5,2" d="M205.17,-185.55C242.46,-176.45 286.09,-165.8 320.38,-157.43"/>
<polygon fill="#5b6b73" stroke="#5b6b73" stroke-width="1.05" points="320.68,-160.06 327.34,-155.73 319.44,-154.96 320.68,-160.06"/>
</g>
<!-- t2 -->
<g id="node5" class="node">
<title>t2</title>
<path fill="#d5edf7" stroke="#5b6b73" d="M419.62,-270C419.62,-270 341.38,-270 341.38,-270 335.38,-270 329.38,-264 329.38,-258 329.38,-258 329.38,-214 329.38,-214 329.38,-208 335.38,-202 341.38,-202 341.38,-202 419.62,-202 419.62,-202 425.62,-202 431.62,-208 431.62,-214 431.62,-214 431.62,-258 431.62,-258 431.62,-264 425.62,-270 419.62,-270"/>
<text xml:space="preserve" text-anchor="middle" x="380.5" y="-252.7" font-family="Helvetica,sans-Serif" font-size="14.00" fill="#233238">thread 2</text>
<text xml:space="preserve" text-anchor="middle" x="380.5" y="-237.7" font-family="Helvetica,sans-Serif" font-size="14.00" fill="#233238">PC + registers</text>
<text xml:space="preserve" text-anchor="middle" x="380.5" y="-222.7" font-family="Helvetica,sans-Serif" font-size="14.00" fill="#233238">stack</text>
<text xml:space="preserve" text-anchor="middle" x="380.5" y="-207.7" font-family="Helvetica,sans-Serif" font-size="14.00" fill="#233238">TLS</text>
</g>
<!-- aspace&#45;&gt;t2 -->
<g id="edge2" class="edge">
<title>aspace&#45;&gt;t2</title>
<path fill="none" stroke="#5b6b73" stroke-width="1.05" stroke-dasharray="5,2" d="M233.22,-218.15C262.97,-221.78 294.17,-225.59 320.08,-228.75"/>
<polygon fill="#5b6b73" stroke="#5b6b73" stroke-width="1.05" points="319.67,-231.34 327.43,-229.65 320.31,-226.13 319.67,-231.34"/>
</g>
<!-- t3 -->
<g id="node6" class="node">
<title>t3</title>
<path fill="#d5edf7" stroke="#5b6b73" d="M419.62,-84C419.62,-84 341.38,-84 341.38,-84 335.38,-84 329.38,-78 329.38,-72 329.38,-72 329.38,-28 329.38,-28 329.38,-22 335.38,-16 341.38,-16 341.38,-16 419.62,-16 419.62,-16 425.62,-16 431.62,-22 431.62,-28 431.62,-28 431.62,-72 431.62,-72 431.62,-78 425.62,-84 419.62,-84"/>
<text xml:space="preserve" text-anchor="middle" x="380.5" y="-66.7" font-family="Helvetica,sans-Serif" font-size="14.00" fill="#233238">thread 3</text>
<text xml:space="preserve" text-anchor="middle" x="380.5" y="-51.7" font-family="Helvetica,sans-Serif" font-size="14.00" fill="#233238">PC + registers</text>
<text xml:space="preserve" text-anchor="middle" x="380.5" y="-36.7" font-family="Helvetica,sans-Serif" font-size="14.00" fill="#233238">stack</text>
<text xml:space="preserve" text-anchor="middle" x="380.5" y="-21.7" font-family="Helvetica,sans-Serif" font-size="14.00" fill="#233238">TLS</text>
</g>
<!-- aspace&#45;&gt;t3 -->
<g id="edge3" class="edge">
<title>aspace&#45;&gt;t3</title>
<path fill="none" stroke="#5b6b73" stroke-width="1.05" stroke-dasharray="5,2" d="M197.99,-185.54C221.2,-179.31 241,-174 241,-174 241,-174 265,-97 265,-97 265,-97 292.56,-85.69 320.64,-74.16"/>
<polygon fill="#5b6b73" stroke="#5b6b73" stroke-width="1.05" points="321.53,-76.63 327.48,-71.36 319.54,-71.77 321.53,-76.63"/>
</g>
<!-- files -->
<g id="node2" class="node">
<title>files</title>
<path fill="#ddeaf1" stroke="#5b6b73" d="M177.88,-100C177.88,-100 71.12,-100 71.12,-100 65.12,-100 59.12,-94 59.12,-88 59.12,-88 59.12,-76 59.12,-76 59.12,-70 65.12,-64 71.12,-64 71.12,-64 177.88,-64 177.88,-64 183.88,-64 189.88,-70 189.88,-76 189.88,-76 189.88,-88 189.88,-88 189.88,-94 183.88,-100 177.88,-100"/>
<text xml:space="preserve" text-anchor="middle" x="124.5" y="-76.2" font-family="Helvetica,sans-Serif" font-size="14.00" fill="#233238">open files / sockets</text>
</g>
<!-- files&#45;&gt;t1 -->
<g id="edge4" class="edge">
<title>files&#45;&gt;t1</title>
<path fill="none" stroke="#5b6b73" stroke-width="1.05" stroke-dasharray="5,2" d="M190.25,-97.55C230.29,-107.17 281.29,-119.41 320.26,-128.77"/>
<polygon fill="#5b6b73" stroke="#5b6b73" stroke-width="1.05" points="319.43,-131.27 327.34,-130.47 320.66,-126.17 319.43,-131.27"/>
</g>
<!-- files&#45;&gt;t2 -->
<g id="edge5" class="edge">
<title>files&#45;&gt;t2</title>
<path fill="none" stroke="#5b6b73" stroke-width="1.05" stroke-dasharray="5,2" d="M190.34,-99.4C216.67,-106.47 241,-113 241,-113 241,-113 265,-190 265,-190 265,-190 292.56,-201.07 320.64,-212.35"/>
<polygon fill="#5b6b73" stroke="#5b6b73" stroke-width="1.05" points="319.53,-214.74 327.47,-215.1 321.49,-209.87 319.53,-214.74"/>
</g>
<!-- files&#45;&gt;t3 -->
<g id="edge6" class="edge">
<title>files&#45;&gt;t3</title>
<path fill="none" stroke="#5b6b73" stroke-width="1.05" stroke-dasharray="5,2" d="M190.25,-73.84C230.29,-68.8 281.29,-62.37 320.26,-57.46"/>
<polygon fill="#5b6b73" stroke="#5b6b73" stroke-width="1.05" points="320.19,-60.12 327.31,-56.58 319.54,-54.91 320.19,-60.12"/>
</g>
<!-- creds -->
<g id="node3" class="node">
<title>creds</title>
<path fill="#ddeaf1" stroke="#5b6b73" d="M186.12,-161C186.12,-161 62.88,-161 62.88,-161 56.88,-161 50.88,-155 50.88,-149 50.88,-149 50.88,-137 50.88,-137 50.88,-131 56.88,-125 62.88,-125 62.88,-125 186.12,-125 186.12,-125 192.12,-125 198.12,-131 198.12,-137 198.12,-137 198.12,-149 198.12,-149 198.12,-155 192.12,-161 186.12,-161"/>
<text xml:space="preserve" text-anchor="middle" x="124.5" y="-137.2" font-family="Helvetica,sans-Serif" font-size="14.00" fill="#233238">identity + permissions</text>
</g>
<!-- creds&#45;&gt;t1 -->
<g id="edge7" class="edge">
<title>creds&#45;&gt;t1</title>
<path fill="none" stroke="#5b6b73" stroke-width="1.05" stroke-dasharray="5,2" d="M198.29,-143C236.94,-143 283.83,-143 320.24,-143"/>
<polygon fill="#5b6b73" stroke="#5b6b73" stroke-width="1.05" points="320.16,-145.63 327.66,-143 320.16,-140.38 320.16,-145.63"/>
</g>
<!-- creds&#45;&gt;t2 -->
<g id="edge8" class="edge">
<title>creds&#45;&gt;t2</title>
<path fill="none" stroke="#5b6b73" stroke-width="1.05" stroke-dasharray="5,2" d="M194.35,-161.48C219.09,-168.12 241,-174 241,-174 241,-174 265,-190 265,-190 265,-190 292.56,-201.07 320.64,-212.35"/>
<polygon fill="#5b6b73" stroke="#5b6b73" stroke-width="1.05" points="319.53,-214.74 327.47,-215.1 321.49,-209.87 319.53,-214.74"/>
</g>
<!-- creds&#45;&gt;t3 -->
<g id="edge9" class="edge">
<title>creds&#45;&gt;t3</title>
<path fill="none" stroke="#5b6b73" stroke-width="1.05" stroke-dasharray="5,2" d="M196.68,-124.51C220.44,-118.34 241,-113 241,-113 241,-113 265,-97 265,-97 265,-97 292.56,-85.69 320.64,-74.16"/>
<polygon fill="#5b6b73" stroke="#5b6b73" stroke-width="1.05" points="321.53,-76.63 327.48,-71.36 319.54,-71.77 321.53,-76.63"/>
</g>
</g>
</svg>
