<?xml version="1.0" encoding="UTF-8" standalone="no"?>
<!DOCTYPE svg PUBLIC "-//W3C//DTD SVG 1.1//EN"
 "http://www.w3.org/Graphics/SVG/1.1/DTD/svg11.dtd">
<!-- Generated by graphviz version 14.1.3 (20260303.0454)
 -->
<!-- Title: G Pages: 1 -->
<svg width="851pt" height="155pt"
 viewBox="0.00 0.00 851.00 155.00" xmlns="http://www.w3.org/2000/svg" xmlns:xlink="http://www.w3.org/1999/xlink">
<g id="graph0" class="graph" transform="scale(1 1) rotate(0) translate(14.4 140.4)">
<title>G</title>
<polygon fill="white" stroke="none" points="-14.4,14.4 -14.4,-140.4 836.15,-140.4 836.15,14.4 -14.4,14.4"/>
<!-- flow -->
<g id="node1" class="node">
<title>flow</title>
<polygon fill="#f5f5f5" stroke="none" points="1,-94 1,-125 76.25,-125 76.25,-94 1,-94"/>
<polygon fill="none" stroke="#5b6b73" points="1,-94 1,-125 76.25,-125 76.25,-94 1,-94"/>
<text xml:space="preserve" text-anchor="start" x="24" y="-104.7" font-family="Helvetica,sans-Serif" font-weight="bold" font-size="14.00">Step</text>
<polygon fill="#f5f5f5" stroke="none" points="76.25,-94 76.25,-125 463.5,-125 463.5,-94 76.25,-94"/>
<polygon fill="none" stroke="#5b6b73" points="76.25,-94 76.25,-125 463.5,-125 463.5,-94 76.25,-94"/>
<text xml:space="preserve" text-anchor="start" x="232" y="-104.7" font-family="Helvetica,sans-Serif" font-weight="bold" font-size="14.00">Kernel view</text>
<polygon fill="#f5f5f5" stroke="none" points="463.5,-94 463.5,-125 820.75,-125 820.75,-94 463.5,-94"/>
<polygon fill="none" stroke="#5b6b73" points="463.5,-94 463.5,-125 820.75,-125 820.75,-94 463.5,-94"/>
<text xml:space="preserve" text-anchor="start" x="584.38" y="-104.7" font-family="Helvetica,sans-Serif" font-weight="bold" font-size="14.00">Programmer view</text>
<polygon fill="#e6f3f9" stroke="none" points="1,-63 1,-94 76.25,-94 76.25,-63 1,-63"/>
<polygon fill="none" stroke="#5b6b73" points="1,-63 1,-94 76.25,-94 76.25,-63 1,-63"/>
<text xml:space="preserve" text-anchor="start" x="9" y="-73.7" font-family="Helvetica,sans-Serif" font-weight="bold" font-size="14.00">Generate</text>
<polygon fill="none" stroke="#5b6b73" points="76.25,-63 76.25,-94 463.5,-94 463.5,-63 76.25,-63"/>
<text xml:space="preserve" text-anchor="start" x="122.5" y="-74.75" font-family="Helvetica,sans-Serif" font-size="14.00">event occurs (fault, timer, child exit, explicit send)</text>
<polygon fill="none" stroke="#5b6b73" points="463.5,-63 463.5,-94 820.75,-94 820.75,-63 463.5,-63"/>
<text xml:space="preserve" text-anchor="start" x="554.38" y="-74.75" font-family="Helvetica,sans-Serif" font-size="14.00">\&quot;a signal becomes pending\&quot;</text>
<polygon fill="#e6f3f9" stroke="none" points="1,-32 1,-63 76.25,-63 76.25,-32 1,-32"/>
<polygon fill="none" stroke="#5b6b73" points="1,-32 1,-63 76.25,-63 76.25,-32 1,-32"/>
<text xml:space="preserve" text-anchor="start" x="16.12" y="-42.7" font-family="Helvetica,sans-Serif" font-weight="bold" font-size="14.00">Deliver</text>
<polygon fill="none" stroke="#5b6b73" points="76.25,-32 76.25,-63 463.5,-63 463.5,-32 76.25,-32"/>
<text xml:space="preserve" text-anchor="start" x="84.25" y="-43.75" font-family="Helvetica,sans-Serif" font-size="14.00">selects a target thread subject to masks; arranges handler run</text>
<polygon fill="none" stroke="#5b6b73" points="463.5,-32 463.5,-63 820.75,-63 820.75,-32 463.5,-32"/>
<text xml:space="preserve" text-anchor="start" x="503.75" y="-43.75" font-family="Helvetica,sans-Serif" font-size="14.00">\&quot;handler will run\&quot; (or default action will occur)</text>
<polygon fill="#e6f3f9" stroke="none" points="1,-1 1,-32 76.25,-32 76.25,-1 1,-1"/>
<polygon fill="none" stroke="#5b6b73" points="1,-1 1,-32 76.25,-32 76.25,-1 1,-1"/>
<text xml:space="preserve" text-anchor="start" x="16.12" y="-11.7" font-family="Helvetica,sans-Serif" font-weight="bold" font-size="14.00">Handle</text>
<polygon fill="none" stroke="#5b6b73" points="76.25,-1 76.25,-32 463.5,-32 463.5,-1 76.25,-1"/>
<text xml:space="preserve" text-anchor="start" x="153.62" y="-12.75" font-family="Helvetica,sans-Serif" font-size="14.00">default action or user handler executes</text>
<polygon fill="none" stroke="#5b6b73" points="463.5,-1 463.5,-32 820.75,-32 820.75,-1 463.5,-1"/>
<text xml:space="preserve" text-anchor="start" x="471.5" y="-12.75" font-family="Helvetica,sans-Serif" font-size="14.00">continue / stop / terminate depending on signal + handler</text>
<polygon fill="none" stroke="#5b6b73" points="0,0 0,-126 821.75,-126 821.75,0 0,0"/>
</g>
</g>
</svg>
