<?xml version="1.0" encoding="UTF-8" standalone="no"?>
<!DOCTYPE svg PUBLIC "-//W3C//DTD SVG 1.1//EN"
 "http://www.w3.org/Graphics/SVG/1.1/DTD/svg11.dtd">
<!-- Generated by graphviz version 14.1.3 (20260303.0454)
 -->
<!-- Title: G Pages: 1 -->
<svg width="1058pt" height="248pt"
 viewBox="0.00 0.00 1058.00 248.00" xmlns="http://www.w3.org/2000/svg" xmlns:xlink="http://www.w3.org/1999/xlink">
<g id="graph0" class="graph" transform="scale(1 1) rotate(0) translate(14.4 233.4)">
<title>G</title>
<polygon fill="white" stroke="none" points="-14.4,14.4 -14.4,-233.4 1043.4,-233.4 1043.4,14.4 -14.4,14.4"/>
<!-- tbl -->
<g id="node1" class="node">
<title>tbl</title>
<polygon fill="#f5f5f5" stroke="none" points="1,-187 1,-218 101.75,-218 101.75,-187 1,-187"/>
<polygon fill="none" stroke="#5b6b73" points="1,-187 1,-218 101.75,-218 101.75,-187 1,-187"/>
<text xml:space="preserve" text-anchor="start" x="35.25" y="-197.7" font-family="Helvetica,sans-Serif" font-weight="bold" font-size="14.00">Time</text>
<polygon fill="#f5f5f5" stroke="none" points="101.75,-187 101.75,-218 421.5,-218 421.5,-187 101.75,-187"/>
<polygon fill="none" stroke="#5b6b73" points="101.75,-187 101.75,-218 421.5,-218 421.5,-187 101.75,-187"/>
<text xml:space="preserve" text-anchor="start" x="219.62" y="-197.7" font-family="Helvetica,sans-Serif" font-weight="bold" font-size="14.00">User runtime</text>
<polygon fill="#f5f5f5" stroke="none" points="421.5,-187 421.5,-218 669.25,-218 669.25,-187 421.5,-187"/>
<polygon fill="none" stroke="#5b6b73" points="421.5,-187 421.5,-218 669.25,-218 669.25,-187 421.5,-187"/>
<text xml:space="preserve" text-anchor="start" x="481.25" y="-197.7" font-family="Helvetica,sans-Serif" font-weight="bold" font-size="14.00">Kernel&#45;visible entity</text>
<polygon fill="#f5f5f5" stroke="none" points="669.25,-187 669.25,-218 1028,-218 1028,-187 669.25,-187"/>
<polygon fill="none" stroke="#5b6b73" points="669.25,-187 669.25,-218 1028,-218 1028,-187 669.25,-187"/>
<text xml:space="preserve" text-anchor="start" x="795.38" y="-197.7" font-family="Helvetica,sans-Serif" font-weight="bold" font-size="14.00">What runs next?</text>
<polygon fill="#e6f3f9" stroke="none" points="1,-156 1,-187 101.75,-187 101.75,-156 1,-156"/>
<polygon fill="none" stroke="#5b6b73" points="1,-156 1,-187 101.75,-187 101.75,-156 1,-156"/>
<text xml:space="preserve" text-anchor="start" x="43.5" y="-166.7" font-family="Helvetica,sans-Serif" font-weight="bold" font-size="14.00">T0</text>
<polygon fill="none" stroke="#5b6b73" points="101.75,-156 101.75,-187 421.5,-187 421.5,-156 101.75,-156"/>
<text xml:space="preserve" text-anchor="start" x="164.12" y="-167.75" font-family="Helvetica,sans-Serif" font-size="14.00">runtime schedules user thread A</text>
<polygon fill="none" stroke="#5b6b73" points="421.5,-156 421.5,-187 669.25,-187 669.25,-156 421.5,-156"/>
<text xml:space="preserve" text-anchor="start" x="461.75" y="-167.75" font-family="Helvetica,sans-Serif" font-size="14.00">one kernel thread is running</text>
<polygon fill="none" stroke="#5b6b73" points="669.25,-156 669.25,-187 1028,-187 1028,-156 669.25,-156"/>
<text xml:space="preserve" text-anchor="start" x="774" y="-167.75" font-family="Helvetica,sans-Serif" font-size="14.00">A executes in user mode</text>
<polygon fill="#e6f3f9" stroke="none" points="1,-125 1,-156 101.75,-156 101.75,-125 1,-125"/>
<polygon fill="none" stroke="#5b6b73" points="1,-125 1,-156 101.75,-156 101.75,-125 1,-125"/>
<text xml:space="preserve" text-anchor="start" x="43.5" y="-135.7" font-family="Helvetica,sans-Serif" font-weight="bold" font-size="14.00">T1</text>
<polygon fill="none" stroke="#5b6b73" points="101.75,-125 101.75,-156 421.5,-156 421.5,-125 101.75,-125"/>
<text xml:space="preserve" text-anchor="start" x="190.75" y="-136.75" font-family="Helvetica,sans-Serif" font-size="14.00">A calls blocking `read()`</text>
<polygon fill="none" stroke="#5b6b73" points="421.5,-125 421.5,-156 669.25,-156 669.25,-125 421.5,-125"/>
<text xml:space="preserve" text-anchor="start" x="463.25" y="-136.75" font-family="Helvetica,sans-Serif" font-size="14.00">kernel thread enters syscall</text>
<polygon fill="none" stroke="#5b6b73" points="669.25,-125 669.25,-156 1028,-156 1028,-125 669.25,-125"/>
<text xml:space="preserve" text-anchor="start" x="764.25" y="-136.75" font-family="Helvetica,sans-Serif" font-size="14.00">kernel may block this thread</text>
<polygon fill="#e6f3f9" stroke="none" points="1,-94 1,-125 101.75,-125 101.75,-94 1,-94"/>
<polygon fill="none" stroke="#5b6b73" points="1,-94 1,-125 101.75,-125 101.75,-94 1,-94"/>
<text xml:space="preserve" text-anchor="start" x="43.5" y="-104.7" font-family="Helvetica,sans-Serif" font-weight="bold" font-size="14.00">T2</text>
<polygon fill="none" stroke="#5b6b73" points="101.75,-94 101.75,-125 421.5,-125 421.5,-94 101.75,-94"/>
<text xml:space="preserve" text-anchor="start" x="175" y="-105.75" font-family="Helvetica,sans-Serif" font-size="14.00">runtime cannot run (no CPU)</text>
<polygon fill="none" stroke="#5b6b73" points="421.5,-94 421.5,-125 669.25,-125 669.25,-94 421.5,-94"/>
<text xml:space="preserve" text-anchor="start" x="429.5" y="-105.75" font-family="Helvetica,sans-Serif" font-size="14.00">kernel thread sleeps on I/O wait queue</text>
<polygon fill="none" stroke="#5b6b73" points="669.25,-94 669.25,-125 1028,-125 1028,-94 669.25,-94"/>
<text xml:space="preserve" text-anchor="start" x="736.5" y="-105.75" font-family="Helvetica,sans-Serif" font-size="14.00">process has no runnable kernel entity</text>
<polygon fill="#e6f3f9" stroke="none" points="1,-63 1,-94 101.75,-94 101.75,-63 1,-63"/>
<polygon fill="none" stroke="#5b6b73" points="1,-63 1,-94 101.75,-94 101.75,-63 1,-63"/>
<text xml:space="preserve" text-anchor="start" x="43.5" y="-73.7" font-family="Helvetica,sans-Serif" font-weight="bold" font-size="14.00">T3</text>
<polygon fill="none" stroke="#5b6b73" points="101.75,-63 101.75,-94 421.5,-94 421.5,-63 101.75,-63"/>
<text xml:space="preserve" text-anchor="start" x="109.75" y="-74.75" font-family="Helvetica,sans-Serif" font-size="14.00">user thread B is runnable (in runtime bookkeeping)</text>
<polygon fill="none" stroke="#5b6b73" points="421.5,-63 421.5,-94 669.25,-94 669.25,-63 421.5,-63"/>
<text xml:space="preserve" text-anchor="start" x="508.62" y="-74.75" font-family="Helvetica,sans-Serif" font-size="14.00">still sleeping</text>
<polygon fill="none" stroke="#5b6b73" points="669.25,-63 669.25,-94 1028,-94 1028,-63 669.25,-63"/>
<text xml:space="preserve" text-anchor="start" x="798.75" y="-74.75" font-family="Helvetica,sans-Serif" font-size="14.00">B still cannot run</text>
<polygon fill="#e6f3f9" stroke="none" points="1,-32 1,-63 101.75,-63 101.75,-32 1,-32"/>
<polygon fill="none" stroke="#5b6b73" points="1,-32 1,-63 101.75,-63 101.75,-32 1,-32"/>
<text xml:space="preserve" text-anchor="start" x="43.5" y="-42.7" font-family="Helvetica,sans-Serif" font-weight="bold" font-size="14.00">T4</text>
<polygon fill="none" stroke="#5b6b73" points="101.75,-32 101.75,-63 421.5,-63 421.5,-32 101.75,-32"/>
<text xml:space="preserve" text-anchor="start" x="155.88" y="-43.75" font-family="Helvetica,sans-Serif" font-size="14.00">runtime resumes only after wakeup</text>
<polygon fill="none" stroke="#5b6b73" points="421.5,-32 421.5,-63 669.25,-63 669.25,-32 421.5,-32"/>
<text xml:space="preserve" text-anchor="start" x="440" y="-43.75" font-family="Helvetica,sans-Serif" font-size="14.00">interrupt/event wakes kernel thread</text>
<polygon fill="none" stroke="#5b6b73" points="669.25,-32 669.25,-63 1028,-63 1028,-32 669.25,-32"/>
<text xml:space="preserve" text-anchor="start" x="677.25" y="-43.75" font-family="Helvetica,sans-Serif" font-size="14.00">kernel returns to user mode; runtime can schedule A or B</text>
<polygon fill="#e6f3f9" stroke="none" points="1,-1 1,-32 101.75,-32 101.75,-1 1,-1"/>
<polygon fill="none" stroke="#5b6b73" points="1,-1 1,-32 101.75,-32 101.75,-1 1,-1"/>
<text xml:space="preserve" text-anchor="start" x="9" y="-11.7" font-family="Helvetica,sans-Serif" font-weight="bold" font-size="14.00">Key invariant</text>
<polygon fill="none" stroke="#5b6b73" points="101.75,-1 101.75,-32 1028,-32 1028,-1 101.75,-1"/>
<text xml:space="preserve" text-anchor="start" x="190.62" y="-12.75" font-family="Helvetica,sans-Serif" font-size="14.00">the kernel schedules only what it can see; if it parks the only execution resource, user&#45;level scheduling cannot make progress</text>
<polygon fill="none" stroke="#5b6b73" points="0,0 0,-219 1029,-219 1029,0 0,0"/>
</g>
</g>
</svg>
