<?xml version="1.0" encoding="UTF-8" standalone="no"?>
<!DOCTYPE svg PUBLIC "-//W3C//DTD SVG 1.1//EN"
 "http://www.w3.org/Graphics/SVG/1.1/DTD/svg11.dtd">
<!-- Generated by graphviz version 14.1.3 (20260303.0454)
 -->
<!-- Title: G Pages: 1 -->
<svg width="345pt" height="635pt"
 viewBox="0.00 0.00 345.00 635.00" xmlns="http://www.w3.org/2000/svg" xmlns:xlink="http://www.w3.org/1999/xlink">
<g id="graph0" class="graph" transform="scale(1 1) rotate(0) translate(18 617)">
<title>G</title>
<polygon fill="white" stroke="none" points="-18,18 -18,-617 326.5,-617 326.5,18 -18,18"/>
<g id="clust1" class="cluster">
<title>cluster_t1</title>
<path fill="#eaf6fb" stroke="#9ec9da" d="M32.5,-239C32.5,-239 138.5,-239 138.5,-239 144.5,-239 150.5,-245 150.5,-251 150.5,-251 150.5,-515 150.5,-515 150.5,-521 144.5,-527 138.5,-527 138.5,-527 32.5,-527 32.5,-527 26.5,-527 20.5,-521 20.5,-515 20.5,-515 20.5,-251 20.5,-251 20.5,-245 26.5,-239 32.5,-239"/>
<text xml:space="preserve" text-anchor="middle" x="85.5" y="-509.7" font-family="Times,serif" font-size="14.00">Thread T1</text>
</g>
<g id="clust2" class="cluster">
<title>cluster_t2</title>
<path fill="#eaf6fb" stroke="#9ec9da" d="M170.5,-141C170.5,-141 276.5,-141 276.5,-141 282.5,-141 288.5,-147 288.5,-153 288.5,-153 288.5,-401.5 288.5,-401.5 288.5,-407.5 282.5,-413.5 276.5,-413.5 276.5,-413.5 170.5,-413.5 170.5,-413.5 164.5,-413.5 158.5,-407.5 158.5,-401.5 158.5,-401.5 158.5,-153 158.5,-153 158.5,-147 164.5,-141 170.5,-141"/>
<text xml:space="preserve" text-anchor="middle" x="223.5" y="-396.2" font-family="Times,serif" font-size="14.00">Thread T2</text>
</g>
<!-- title -->
<g id="node1" class="node">
<title>title</title>
<polygon fill="#ffffff" stroke="#9aa7ae" points="295,-599 0,-599 0,-561 301,-561 301,-593 295,-599"/>
<polyline fill="none" stroke="#9aa7ae" points="295,-599 295,-593"/>
<polyline fill="none" stroke="#9aa7ae" points="301,-593 295,-593"/>
<text xml:space="preserve" text-anchor="middle" x="150.5" y="-581.7" font-family="Helvetica,sans-Serif" font-size="14.00" fill="#233238">Lost update race: two threads execute x = x + 1</text>
<text xml:space="preserve" text-anchor="middle" x="150.5" y="-566.7" font-family="Helvetica,sans-Serif" font-size="14.00" fill="#233238">(x++ is read + add + write)</text>
</g>
<!-- t1r -->
<g id="node2" class="node">
<title>t1r</title>
<path fill="#ddeaf1" stroke="#5b6b73" d="M130.62,-494.5C130.62,-494.5 40.37,-494.5 40.37,-494.5 34.38,-494.5 28.37,-488.5 28.37,-482.5 28.37,-482.5 28.37,-470.5 28.37,-470.5 28.37,-464.5 34.37,-458.5 40.37,-458.5 40.37,-458.5 130.62,-458.5 130.62,-458.5 136.62,-458.5 142.62,-464.5 142.62,-470.5 142.62,-470.5 142.62,-482.5 142.62,-482.5 142.62,-488.5 136.62,-494.5 130.62,-494.5"/>
<text xml:space="preserve" text-anchor="middle" x="85.5" y="-470.7" font-family="Helvetica,sans-Serif" font-size="14.00" fill="#233238">read x &#45;&gt; r1 (=0)</text>
</g>
<!-- title&#45;&gt;t1r -->
<!-- t2r -->
<g id="node5" class="node">
<title>t2r</title>
<path fill="#ddeaf1" stroke="#5b6b73" d="M268.62,-381C268.62,-381 178.38,-381 178.38,-381 172.38,-381 166.38,-375 166.38,-369 166.38,-369 166.38,-357 166.38,-357 166.38,-351 172.38,-345 178.38,-345 178.38,-345 268.62,-345 268.62,-345 274.62,-345 280.62,-351 280.62,-357 280.62,-357 280.62,-369 280.62,-369 280.62,-375 274.62,-381 268.62,-381"/>
<text xml:space="preserve" text-anchor="middle" x="223.5" y="-357.2" font-family="Helvetica,sans-Serif" font-size="14.00" fill="#233238">read x &#45;&gt; r2 (=0)</text>
</g>
<!-- title&#45;&gt;t2r -->
<!-- t1a -->
<g id="node3" class="node">
<title>t1a</title>
<path fill="#ddeaf1" stroke="#5b6b73" d="M113,-381C113,-381 58,-381 58,-381 52,-381 46,-375 46,-369 46,-369 46,-357 46,-357 46,-351 52,-345 58,-345 58,-345 113,-345 113,-345 119,-345 125,-351 125,-357 125,-357 125,-369 125,-369 125,-375 119,-381 113,-381"/>
<text xml:space="preserve" text-anchor="middle" x="85.5" y="-357.2" font-family="Helvetica,sans-Serif" font-size="14.00" fill="#233238">r1 = r1 + 1</text>
</g>
<!-- t1r&#45;&gt;t1a -->
<g id="edge1" class="edge">
<title>t1r&#45;&gt;t1a</title>
<path fill="none" stroke="#5b6b73" stroke-width="1.05" d="M85.5,-458.08C85.5,-439.91 85.5,-411.23 85.5,-390.3"/>
<polygon fill="#5b6b73" stroke="#5b6b73" stroke-width="1.05" points="88.13,-390.39 85.5,-382.89 82.88,-390.39 88.13,-390.39"/>
</g>
<!-- t1r&#45;&gt;t2r -->
<g id="edge7" class="edge">
<title>t1r&#45;&gt;t2r</title>
<path fill="none" stroke="#5b6b73" stroke-width="1.05" stroke-dasharray="5,2" d="M103.69,-458.12C120.2,-442.33 142,-421.5 142,-421.5 142,-421.5 159.5,-413.5 159.5,-413.5 159.5,-413.5 177.23,-399.79 194.03,-386.79"/>
<polygon fill="#5b6b73" stroke="#5b6b73" stroke-width="1.05" points="195.53,-388.95 199.86,-382.28 192.32,-384.8 195.53,-388.95"/>
<text xml:space="preserve" text-anchor="middle" x="165.25" y="-423.05" font-family="Helvetica,sans-Serif" font-size="11.00">interleave</text>
</g>
<!-- t1w -->
<g id="node4" class="node">
<title>t1w</title>
<path fill="#bfe2f1" stroke="#5b6b73" d="M130.12,-283C130.12,-283 42.88,-283 42.88,-283 36.88,-283 30.88,-277 30.88,-271 30.88,-271 30.88,-259 30.88,-259 30.88,-253 36.88,-247 42.88,-247 42.88,-247 130.12,-247 130.12,-247 136.12,-247 142.12,-253 142.12,-259 142.12,-259 142.12,-271 142.12,-271 142.12,-277 136.12,-283 130.12,-283"/>
<text xml:space="preserve" text-anchor="middle" x="86.5" y="-259.2" font-family="Helvetica,sans-Serif" font-size="14.00" fill="#233238">write x = r1 (=1)</text>
</g>
<!-- t1a&#45;&gt;t1w -->
<g id="edge2" class="edge">
<title>t1a&#45;&gt;t1w</title>
<path fill="none" stroke="#5b6b73" stroke-width="1.05" d="M85.68,-344.84C85.83,-330.18 86.05,-308.88 86.23,-292.12"/>
<polygon fill="#5b6b73" stroke="#5b6b73" stroke-width="1.05" points="88.85,-292.45 86.3,-284.93 83.6,-292.4 88.85,-292.45"/>
</g>
<!-- t2w -->
<g id="node7" class="node">
<title>t2w</title>
<path fill="#bfe2f1" stroke="#5b6b73" d="M266.12,-185C266.12,-185 178.88,-185 178.88,-185 172.88,-185 166.88,-179 166.88,-173 166.88,-173 166.88,-161 166.88,-161 166.88,-155 172.88,-149 178.88,-149 178.88,-149 266.12,-149 266.12,-149 272.12,-149 278.12,-155 278.12,-161 278.12,-161 278.12,-173 278.12,-173 278.12,-179 272.12,-185 266.12,-185"/>
<text xml:space="preserve" text-anchor="middle" x="222.5" y="-161.2" font-family="Helvetica,sans-Serif" font-size="14.00" fill="#233238">write x = r2 (=1)</text>
</g>
<!-- t1w&#45;&gt;t2w -->
<g id="edge9" class="edge">
<title>t1w&#45;&gt;t2w</title>
<path fill="none" stroke="#5b6b73" stroke-width="1.05" stroke-dasharray="5,2" d="M111.13,-246.62C133.47,-230.85 166.52,-207.52 190.82,-190.36"/>
<polygon fill="#5b6b73" stroke="#5b6b73" stroke-width="1.05" points="192.14,-192.64 196.76,-186.17 189.12,-188.35 192.14,-192.64"/>
<text xml:space="preserve" text-anchor="middle" x="185.89" y="-211.55" font-family="Helvetica,sans-Serif" font-size="11.00">interleave</text>
</g>
<!-- t2r&#45;&gt;t1w -->
<g id="edge8" class="edge">
<title>t2r&#45;&gt;t1w</title>
<path fill="none" stroke="#5b6b73" stroke-width="1.05" stroke-dasharray="5,2" d="M198.69,-344.62C176.19,-328.85 142.89,-305.52 118.42,-288.36"/>
<polygon fill="#5b6b73" stroke="#5b6b73" stroke-width="1.05" points="120.08,-286.32 112.43,-284.17 117.06,-290.62 120.08,-286.32"/>
<text xml:space="preserve" text-anchor="middle" x="186.45" y="-309.55" font-family="Helvetica,sans-Serif" font-size="11.00">interleave</text>
</g>
<!-- t2a -->
<g id="node6" class="node">
<title>t2a</title>
<path fill="#ddeaf1" stroke="#5b6b73" d="M250,-283C250,-283 195,-283 195,-283 189,-283 183,-277 183,-271 183,-271 183,-259 183,-259 183,-253 189,-247 195,-247 195,-247 250,-247 250,-247 256,-247 262,-253 262,-259 262,-259 262,-271 262,-271 262,-277 256,-283 250,-283"/>
<text xml:space="preserve" text-anchor="middle" x="222.5" y="-259.2" font-family="Helvetica,sans-Serif" font-size="14.00" fill="#233238">r2 = r2 + 1</text>
</g>
<!-- t2r&#45;&gt;t2a -->
<g id="edge3" class="edge">
<title>t2r&#45;&gt;t2a</title>
<path fill="none" stroke="#5b6b73" stroke-width="1.05" d="M223.32,-344.84C223.17,-330.18 222.95,-308.88 222.77,-292.12"/>
<polygon fill="#5b6b73" stroke="#5b6b73" stroke-width="1.05" points="225.4,-292.4 222.7,-284.93 220.15,-292.45 225.4,-292.4"/>
</g>
<!-- t2a&#45;&gt;t2w -->
<g id="edge4" class="edge">
<title>t2a&#45;&gt;t2w</title>
<path fill="none" stroke="#5b6b73" stroke-width="1.05" d="M222.5,-246.84C222.5,-232.18 222.5,-210.88 222.5,-194.12"/>
<polygon fill="#5b6b73" stroke="#5b6b73" stroke-width="1.05" points="225.13,-194.43 222.5,-186.93 219.88,-194.43 225.13,-194.43"/>
</g>
<!-- inter -->
<g id="node8" class="node">
<title>inter</title>
<polygon fill="#ffffff" stroke="#9aa7ae" points="302.5,-98 136.5,-98 136.5,0 308.5,0 308.5,-92 302.5,-98"/>
<polyline fill="none" stroke="#9aa7ae" points="302.5,-98 302.5,-92"/>
<polyline fill="none" stroke="#9aa7ae" points="308.5,-92 302.5,-92"/>
<text xml:space="preserve" text-anchor="middle" x="222.5" y="-80.7" font-family="Helvetica,sans-Serif" font-size="14.00" fill="#233238">One possible interleaving:</text>
<text xml:space="preserve" text-anchor="middle" x="222.5" y="-65.7" font-family="Helvetica,sans-Serif" font-size="14.00" fill="#233238">1) T1 read (0)</text>
<text xml:space="preserve" text-anchor="middle" x="222.5" y="-50.7" font-family="Helvetica,sans-Serif" font-size="14.00" fill="#233238">2) T2 read (0)</text>
<text xml:space="preserve" text-anchor="middle" x="222.5" y="-35.7" font-family="Helvetica,sans-Serif" font-size="14.00" fill="#233238">3) T1 write (1)</text>
<text xml:space="preserve" text-anchor="middle" x="222.5" y="-20.7" font-family="Helvetica,sans-Serif" font-size="14.00" fill="#233238">4) T2 write (1)</text>
<text xml:space="preserve" text-anchor="middle" x="222.5" y="-5.7" font-family="Helvetica,sans-Serif" font-size="14.00" fill="#233238">Final x = 1 (not 2)</text>
</g>
<!-- t2w&#45;&gt;inter -->
<g id="edge10" class="edge">
<title>t2w&#45;&gt;inter</title>
<path fill="none" stroke="#5b6b73" stroke-width="1.05" stroke-dasharray="1,5" d="M222.5,-148.63C222.5,-135.3 222.5,-116.2 222.5,-98.36"/>
</g>
</g>
</svg>
