<?xml version="1.0" encoding="UTF-8" standalone="no"?>
<!DOCTYPE svg PUBLIC "-//W3C//DTD SVG 1.1//EN"
 "http://www.w3.org/Graphics/SVG/1.1/DTD/svg11.dtd">
<!-- Generated by graphviz version 14.1.3 (20260303.0454)
 -->
<!-- Title: G Pages: 1 -->
<svg width="1001pt" height="186pt"
 viewBox="0.00 0.00 1001.00 186.00" xmlns="http://www.w3.org/2000/svg" xmlns:xlink="http://www.w3.org/1999/xlink">
<g id="graph0" class="graph" transform="scale(1 1) rotate(0) translate(14.4 171.4)">
<title>G</title>
<polygon fill="white" stroke="none" points="-14.4,14.4 -14.4,-171.4 986.15,-171.4 986.15,14.4 -14.4,14.4"/>
<!-- cmp -->
<g id="node1" class="node">
<title>cmp</title>
<polygon fill="#f5f5f5" stroke="none" points="1,-125 1,-156 199.25,-156 199.25,-125 1,-125"/>
<polygon fill="none" stroke="#5b6b73" points="1,-125 1,-156 199.25,-156 199.25,-125 1,-125"/>
<text xml:space="preserve" text-anchor="start" x="70.5" y="-135.7" font-family="Helvetica,sans-Serif" font-weight="bold" font-size="14.00">Question</text>
<polygon fill="#f5f5f5" stroke="none" points="199.25,-125 199.25,-156 623.25,-156 623.25,-125 199.25,-125"/>
<polygon fill="none" stroke="#5b6b73" points="199.25,-125 199.25,-156 623.25,-156 623.25,-125 199.25,-125"/>
<text xml:space="preserve" text-anchor="start" x="286.38" y="-135.7" font-family="Helvetica,sans-Serif" font-weight="bold" font-size="14.00">User&#45;level threads (cooperative model)</text>
<polygon fill="#f5f5f5" stroke="none" points="623.25,-125 623.25,-156 970.75,-156 970.75,-125 623.25,-125"/>
<polygon fill="none" stroke="#5b6b73" points="623.25,-125 623.25,-156 970.75,-156 970.75,-125 623.25,-125"/>
<text xml:space="preserve" text-anchor="start" x="669.5" y="-135.7" font-family="Helvetica,sans-Serif" font-weight="bold" font-size="14.00">Kernel threads (preemptive scheduling)</text>
<polygon fill="#e6f3f9" stroke="none" points="1,-94 1,-125 199.25,-125 199.25,-94 1,-94"/>
<polygon fill="none" stroke="#5b6b73" points="1,-94 1,-125 199.25,-125 199.25,-94 1,-94"/>
<text xml:space="preserve" text-anchor="start" x="24" y="-104.7" font-family="Helvetica,sans-Serif" font-weight="bold" font-size="14.00">Who switches threads?</text>
<polygon fill="none" stroke="#5b6b73" points="199.25,-94 199.25,-125 623.25,-125 623.25,-94 199.25,-94"/>
<text xml:space="preserve" text-anchor="start" x="326.12" y="-105.75" font-family="Helvetica,sans-Serif" font-size="14.00">runtime library in user space</text>
<polygon fill="none" stroke="#5b6b73" points="623.25,-94 623.25,-125 970.75,-125 970.75,-94 623.25,-94"/>
<text xml:space="preserve" text-anchor="start" x="747.5" y="-105.75" font-family="Helvetica,sans-Serif" font-size="14.00">kernel scheduler</text>
<polygon fill="#e6f3f9" stroke="none" points="1,-63 1,-94 199.25,-94 199.25,-63 1,-63"/>
<polygon fill="none" stroke="#5b6b73" points="1,-63 1,-94 199.25,-94 199.25,-63 1,-63"/>
<text xml:space="preserve" text-anchor="start" x="9" y="-73.7" font-family="Helvetica,sans-Serif" font-weight="bold" font-size="14.00">When can a switch happen?</text>
<polygon fill="none" stroke="#5b6b73" points="199.25,-63 199.25,-94 623.25,-94 623.25,-63 199.25,-63"/>
<text xml:space="preserve" text-anchor="start" x="232.75" y="-74.75" font-family="Helvetica,sans-Serif" font-size="14.00">at `yield()` or at boundaries where control returns to runtime</text>
<polygon fill="none" stroke="#5b6b73" points="623.25,-63 623.25,-94 970.75,-94 970.75,-63 623.25,-63"/>
<text xml:space="preserve" text-anchor="start" x="631.25" y="-74.75" font-family="Helvetica,sans-Serif" font-size="14.00">at timer preemption, blocking, wakeups, or explicit yield</text>
<polygon fill="#e6f3f9" stroke="none" points="1,-32 1,-63 199.25,-63 199.25,-32 1,-32"/>
<polygon fill="none" stroke="#5b6b73" points="1,-32 1,-63 199.25,-63 199.25,-32 1,-32"/>
<text xml:space="preserve" text-anchor="start" x="23.25" y="-42.7" font-family="Helvetica,sans-Serif" font-weight="bold" font-size="14.00">Blocking syscall impact</text>
<polygon fill="none" stroke="#5b6b73" points="199.25,-32 199.25,-63 623.25,-63 623.25,-32 199.25,-32"/>
<text xml:space="preserve" text-anchor="start" x="207.25" y="-43.75" font-family="Helvetica,sans-Serif" font-size="14.00">can freeze the whole process if it blocks the only kernel&#45;visible entity</text>
<polygon fill="none" stroke="#5b6b73" points="623.25,-32 623.25,-63 970.75,-63 970.75,-32 623.25,-32"/>
<text xml:space="preserve" text-anchor="start" x="661.25" y="-43.75" font-family="Helvetica,sans-Serif" font-size="14.00">blocks only the calling thread; others may run</text>
<polygon fill="#e6f3f9" stroke="none" points="1,-1 1,-32 199.25,-32 199.25,-1 1,-1"/>
<polygon fill="none" stroke="#5b6b73" points="1,-1 1,-32 199.25,-32 199.25,-1 1,-1"/>
<text xml:space="preserve" text-anchor="start" x="43.12" y="-11.7" font-family="Helvetica,sans-Serif" font-weight="bold" font-size="14.00">Why it’s tempting</text>
<polygon fill="none" stroke="#5b6b73" points="199.25,-1 199.25,-32 623.25,-32 623.25,-1 199.25,-1"/>
<text xml:space="preserve" text-anchor="start" x="313.75" y="-12.75" font-family="Helvetica,sans-Serif" font-size="14.00">fast user&#45;space context switches</text>
<polygon fill="none" stroke="#5b6b73" points="623.25,-1 623.25,-32 970.75,-32 970.75,-1 623.25,-1"/>
<text xml:space="preserve" text-anchor="start" x="651.88" y="-12.75" font-family="Helvetica,sans-Serif" font-size="14.00">simple correctness under blocking and multicore</text>
<polygon fill="none" stroke="#5b6b73" points="0,0 0,-157 971.75,-157 971.75,0 0,0"/>
</g>
</g>
</svg>
