<?xml version="1.0" encoding="UTF-8" standalone="no"?>
<!DOCTYPE svg PUBLIC "-//W3C//DTD SVG 1.1//EN"
 "http://www.w3.org/Graphics/SVG/1.1/DTD/svg11.dtd">
<!-- Generated by graphviz version 14.1.3 (20260303.0454)
 -->
<!-- Title: G Pages: 1 -->
<svg width="1169pt" height="217pt"
 viewBox="0.00 0.00 1169.00 217.00" xmlns="http://www.w3.org/2000/svg" xmlns:xlink="http://www.w3.org/1999/xlink">
<g id="graph0" class="graph" transform="scale(1 1) rotate(0) translate(14.4 202.4)">
<title>G</title>
<polygon fill="white" stroke="none" points="-14.4,14.4 -14.4,-202.4 1154.9,-202.4 1154.9,14.4 -14.4,14.4"/>
<!-- cmp -->
<g id="node1" class="node">
<title>cmp</title>
<polygon fill="#f5f5f5" stroke="none" points="1,-156 1,-187 230.75,-187 230.75,-156 1,-156"/>
<polygon fill="none" stroke="#5b6b73" points="1,-156 1,-187 230.75,-187 230.75,-156 1,-156"/>
<text xml:space="preserve" text-anchor="start" x="86.25" y="-166.7" font-family="Helvetica,sans-Serif" font-weight="bold" font-size="14.00">Question</text>
<polygon fill="#f5f5f5" stroke="none" points="230.75,-156 230.75,-187 686.25,-187 686.25,-156 230.75,-156"/>
<polygon fill="none" stroke="#5b6b73" points="230.75,-156 230.75,-187 686.25,-187 686.25,-156 230.75,-156"/>
<text xml:space="preserve" text-anchor="start" x="361" y="-166.7" font-family="Helvetica,sans-Serif" font-weight="bold" font-size="14.00">Thread switch (same process)</text>
<polygon fill="#f5f5f5" stroke="none" points="686.25,-156 686.25,-187 1139.5,-187 1139.5,-156 686.25,-156"/>
<polygon fill="none" stroke="#5b6b73" points="686.25,-156 686.25,-187 1139.5,-187 1139.5,-156 686.25,-156"/>
<text xml:space="preserve" text-anchor="start" x="781.25" y="-166.7" font-family="Helvetica,sans-Serif" font-weight="bold" font-size="14.00">Process switch (different address space)</text>
<polygon fill="#e6f3f9" stroke="none" points="1,-125 1,-156 230.75,-156 230.75,-125 1,-125"/>
<polygon fill="none" stroke="#5b6b73" points="1,-125 1,-156 230.75,-156 230.75,-125 1,-125"/>
<text xml:space="preserve" text-anchor="start" x="23.62" y="-135.7" font-family="Helvetica,sans-Serif" font-weight="bold" font-size="14.00">Must save/restore registers?</text>
<polygon fill="none" stroke="#5b6b73" points="230.75,-125 230.75,-156 686.25,-156 686.25,-125 230.75,-125"/>
<text xml:space="preserve" text-anchor="start" x="327.25" y="-136.75" font-family="Helvetica,sans-Serif" font-size="14.00">yes (PC/registers/SP + kernel bookkeeping)</text>
<polygon fill="none" stroke="#5b6b73" points="686.25,-125 686.25,-156 1139.5,-156 1139.5,-125 686.25,-125"/>
<text xml:space="preserve" text-anchor="start" x="840.88" y="-136.75" font-family="Helvetica,sans-Serif" font-size="14.00">yes (same requirement)</text>
<polygon fill="#e6f3f9" stroke="none" points="1,-94 1,-125 230.75,-125 230.75,-94 1,-94"/>
<polygon fill="none" stroke="#5b6b73" points="1,-94 1,-125 230.75,-125 230.75,-94 1,-94"/>
<text xml:space="preserve" text-anchor="start" x="9" y="-104.7" font-family="Helvetica,sans-Serif" font-weight="bold" font-size="14.00">Does the address space change?</text>
<polygon fill="none" stroke="#5b6b73" points="230.75,-94 230.75,-125 686.25,-125 686.25,-94 230.75,-94"/>
<text xml:space="preserve" text-anchor="start" x="357.62" y="-105.75" font-family="Helvetica,sans-Serif" font-size="14.00">usually no (same page&#45;table root)</text>
<polygon fill="none" stroke="#5b6b73" points="686.25,-94 686.25,-125 1139.5,-125 1139.5,-94 686.25,-94"/>
<text xml:space="preserve" text-anchor="start" x="824.38" y="-105.75" font-family="Helvetica,sans-Serif" font-size="14.00">yes (different page&#45;table root)</text>
<polygon fill="#e6f3f9" stroke="none" points="1,-63 1,-94 230.75,-94 230.75,-63 1,-63"/>
<polygon fill="none" stroke="#5b6b73" points="1,-63 1,-94 230.75,-94 230.75,-63 1,-63"/>
<text xml:space="preserve" text-anchor="start" x="78.75" y="-73.7" font-family="Helvetica,sans-Serif" font-weight="bold" font-size="14.00">TLB impact</text>
<polygon fill="none" stroke="#5b6b73" points="230.75,-63 230.75,-94 686.25,-94 686.25,-63 230.75,-63"/>
<text xml:space="preserve" text-anchor="start" x="320.5" y="-74.75" font-family="Helvetica,sans-Serif" font-size="14.00">often smaller (translations remain meaningful)</text>
<polygon fill="none" stroke="#5b6b73" points="686.25,-63 686.25,-94 1139.5,-94 1139.5,-63 686.25,-63"/>
<text xml:space="preserve" text-anchor="start" x="776" y="-74.75" font-family="Helvetica,sans-Serif" font-size="14.00">often larger (translations invalid/need tagging)</text>
<polygon fill="#e6f3f9" stroke="none" points="1,-32 1,-63 230.75,-63 230.75,-32 1,-32"/>
<polygon fill="none" stroke="#5b6b73" points="1,-32 1,-63 230.75,-63 230.75,-32 1,-32"/>
<text xml:space="preserve" text-anchor="start" x="46.5" y="-42.7" font-family="Helvetica,sans-Serif" font-weight="bold" font-size="14.00">Cache/locality impact</text>
<polygon fill="none" stroke="#5b6b73" points="230.75,-32 230.75,-63 686.25,-63 686.25,-32 230.75,-32"/>
<text xml:space="preserve" text-anchor="start" x="373.38" y="-43.75" font-family="Helvetica,sans-Serif" font-size="14.00">working set often still related</text>
<polygon fill="none" stroke="#5b6b73" points="686.25,-32 686.25,-63 1139.5,-63 1139.5,-32 686.25,-32"/>
<text xml:space="preserve" text-anchor="start" x="785" y="-43.75" font-family="Helvetica,sans-Serif" font-size="14.00">working set often changes more drastically</text>
<polygon fill="#e6f3f9" stroke="none" points="1,-1 1,-32 230.75,-32 230.75,-1 1,-1"/>
<polygon fill="none" stroke="#5b6b73" points="1,-1 1,-32 230.75,-32 230.75,-1 1,-1"/>
<text xml:space="preserve" text-anchor="start" x="60.75" y="-11.7" font-family="Helvetica,sans-Serif" font-weight="bold" font-size="14.00">Why this matters</text>
<polygon fill="none" stroke="#5b6b73" points="230.75,-1 230.75,-32 686.25,-32 686.25,-1 230.75,-1"/>
<text xml:space="preserve" text-anchor="start" x="238.75" y="-12.75" font-family="Helvetica,sans-Serif" font-size="14.00">motivates threads as “cheap concurrency inside one protection container”</text>
<polygon fill="none" stroke="#5b6b73" points="686.25,-1 686.25,-32 1139.5,-32 1139.5,-1 686.25,-1"/>
<text xml:space="preserve" text-anchor="start" x="694.25" y="-12.75" font-family="Helvetica,sans-Serif" font-size="14.00">explains why “process per activity” can be expensive for tight cooperation</text>
<polygon fill="none" stroke="#5b6b73" points="0,0 0,-188 1140.5,-188 1140.5,0 0,0"/>
</g>
</g>
</svg>
