<?xml version="1.0" encoding="UTF-8" standalone="no"?>
<!DOCTYPE svg PUBLIC "-//W3C//DTD SVG 1.1//EN"
 "http://www.w3.org/Graphics/SVG/1.1/DTD/svg11.dtd">
<!-- Generated by graphviz version 14.1.3 (20260303.0454)
 -->
<!-- Title: G Pages: 1 -->
<svg width="964pt" height="367pt"
 viewBox="0.00 0.00 964.00 367.00" xmlns="http://www.w3.org/2000/svg" xmlns:xlink="http://www.w3.org/1999/xlink">
<g id="graph0" class="graph" transform="scale(1 1) rotate(0) translate(18 349)">
<title>G</title>
<polygon fill="white" stroke="none" points="-18,18 -18,-349 946,-349 946,18 -18,18"/>
<g id="clust1" class="cluster">
<title>cluster_m1</title>
<path fill="#eaf6fb" stroke="#9ec9da" d="M60.62,-8C60.62,-8 908,-8 908,-8 914,-8 920,-14 920,-20 920,-20 920,-141 920,-141 920,-147 914,-153 908,-153 908,-153 60.62,-153 60.62,-153 54.62,-153 48.62,-147 48.62,-141 48.62,-141 48.62,-20 48.62,-20 48.62,-14 54.62,-8 60.62,-8"/>
<text xml:space="preserve" text-anchor="middle" x="484.31" y="-135.7" font-family="Times,serif" font-size="14.00">M:1 (user threads, one kernel thread)</text>
</g>
<g id="clust2" class="cluster">
<title>cluster_11</title>
<path fill="#eaf6fb" stroke="#9ec9da" d="M20,-161C20,-161 448.5,-161 448.5,-161 454.5,-161 460.5,-167 460.5,-173 460.5,-173 460.5,-311 460.5,-311 460.5,-317 454.5,-323 448.5,-323 448.5,-323 20,-323 20,-323 14,-323 8,-317 8,-311 8,-311 8,-173 8,-173 8,-167 14,-161 20,-161"/>
<text xml:space="preserve" text-anchor="middle" x="234.25" y="-305.7" font-family="Times,serif" font-size="14.00">1:1 (kernel threads)</text>
</g>
<!-- u1 -->
<g id="node1" class="node">
<title>u1</title>
<path fill="#ddeaf1" stroke="#5b6b73" d="M98.62,-52C98.62,-52 68.62,-52 68.62,-52 62.62,-52 56.62,-46 56.62,-40 56.62,-40 56.62,-28 56.62,-28 56.62,-22 62.62,-16 68.62,-16 68.62,-16 98.62,-16 98.62,-16 104.62,-16 110.62,-22 110.62,-28 110.62,-28 110.62,-40 110.62,-40 110.62,-46 104.62,-52 98.62,-52"/>
<text xml:space="preserve" text-anchor="middle" x="83.62" y="-28.2" font-family="Helvetica,sans-Serif" font-size="14.00" fill="#233238">U1</text>
</g>
<!-- rt -->
<g id="node3" class="node">
<title>rt</title>
<path fill="#d5edf7" stroke="#5b6b73" d="M427.38,-90C427.38,-90 297.38,-90 297.38,-90 291.38,-90 285.38,-84 285.38,-78 285.38,-78 285.38,-66 285.38,-66 285.38,-60 291.38,-54 297.38,-54 297.38,-54 427.38,-54 427.38,-54 433.38,-54 439.38,-60 439.38,-66 439.38,-66 439.38,-78 439.38,-78 439.38,-84 433.38,-90 427.38,-90"/>
<text xml:space="preserve" text-anchor="middle" x="362.38" y="-66.2" font-family="Helvetica,sans-Serif" font-size="14.00" fill="#233238">user runtime scheduler</text>
</g>
<!-- u1&#45;&gt;rt -->
<g id="edge1" class="edge">
<title>u1&#45;&gt;rt</title>
<path fill="none" stroke="#5b6b73" stroke-width="1.05" d="M110.66,-37.57C148.15,-42.72 219.07,-52.46 275.94,-60.27"/>
<polygon fill="#5b6b73" stroke="#5b6b73" stroke-width="1.05" points="275.58,-62.87 283.37,-61.29 276.29,-57.67 275.58,-62.87"/>
<text xml:space="preserve" text-anchor="middle" x="211.75" y="-56.83" font-family="Helvetica,sans-Serif" font-size="11.00">yield/switch</text>
</g>
<!-- u2 -->
<g id="node2" class="node">
<title>u2</title>
<path fill="#ddeaf1" stroke="#5b6b73" d="M98.62,-120C98.62,-120 68.62,-120 68.62,-120 62.62,-120 56.62,-114 56.62,-108 56.62,-108 56.62,-96 56.62,-96 56.62,-90 62.62,-84 68.62,-84 68.62,-84 98.62,-84 98.62,-84 104.62,-84 110.62,-90 110.62,-96 110.62,-96 110.62,-108 110.62,-108 110.62,-114 104.62,-120 98.62,-120"/>
<text xml:space="preserve" text-anchor="middle" x="83.62" y="-96.2" font-family="Helvetica,sans-Serif" font-size="14.00" fill="#233238">U2</text>
</g>
<!-- u2&#45;&gt;rt -->
<g id="edge2" class="edge">
<title>u2&#45;&gt;rt</title>
<path fill="none" stroke="#5b6b73" stroke-width="1.05" d="M110.66,-99.18C148.15,-95.11 219.07,-87.43 275.94,-81.26"/>
<polygon fill="#5b6b73" stroke="#5b6b73" stroke-width="1.05" points="276.19,-83.87 283.36,-80.46 275.62,-78.66 276.19,-83.87"/>
<text xml:space="preserve" text-anchor="middle" x="211.75" y="-92.99" font-family="Helvetica,sans-Serif" font-size="11.00">yield/switch</text>
</g>
<!-- k1 -->
<g id="node4" class="node">
<title>k1</title>
<path fill="#bfe2f1" stroke="#5b6b73" d="M655.5,-90C655.5,-90 558.5,-90 558.5,-90 552.5,-90 546.5,-84 546.5,-78 546.5,-78 546.5,-66 546.5,-66 546.5,-60 552.5,-54 558.5,-54 558.5,-54 655.5,-54 655.5,-54 661.5,-54 667.5,-60 667.5,-66 667.5,-66 667.5,-78 667.5,-78 667.5,-84 661.5,-90 655.5,-90"/>
<text xml:space="preserve" text-anchor="middle" x="607" y="-66.2" font-family="Helvetica,sans-Serif" font-size="14.00" fill="#233238">one kernel thread</text>
</g>
<!-- rt&#45;&gt;k1 -->
<g id="edge3" class="edge">
<title>rt&#45;&gt;k1</title>
<path fill="none" stroke="#5b6b73" stroke-width="1.05" d="M439.81,-72C471.04,-72 506.88,-72 537.27,-72"/>
<polygon fill="#5b6b73" stroke="#5b6b73" stroke-width="1.05" points="537.01,-74.63 544.51,-72 537.01,-69.38 537.01,-74.63"/>
<text xml:space="preserve" text-anchor="middle" x="499.5" y="-73.55" font-family="Helvetica,sans-Serif" font-size="11.00">runs on</text>
</g>
<!-- blk1 -->
<g id="node5" class="node">
<title>blk1</title>
<polygon fill="#ffffff" stroke="#9aa7ae" points="906,-98.5 726.5,-98.5 726.5,-45.5 912,-45.5 912,-92.5 906,-98.5"/>
<polyline fill="none" stroke="#9aa7ae" points="906,-98.5 906,-92.5"/>
<polyline fill="none" stroke="#9aa7ae" points="912,-92.5 906,-92.5"/>
<text xml:space="preserve" text-anchor="middle" x="819.25" y="-81.2" font-family="Helvetica,sans-Serif" font-size="14.00" fill="#233238">blocking syscall by any Ux</text>
<text xml:space="preserve" text-anchor="middle" x="819.25" y="-66.2" font-family="Helvetica,sans-Serif" font-size="14.00" fill="#233238">blocks the one kernel thread</text>
<text xml:space="preserve" text-anchor="middle" x="819.25" y="-51.2" font-family="Helvetica,sans-Serif" font-size="14.00" fill="#233238">=&gt; whole process stops</text>
</g>
<!-- k1&#45;&gt;blk1 -->
<g id="edge4" class="edge">
<title>k1&#45;&gt;blk1</title>
<path fill="none" stroke="#5b6b73" stroke-width="1.05" stroke-dasharray="1,5" d="M667.97,-72C686.05,-72 706.34,-72 726.01,-72"/>
</g>
<!-- kU1 -->
<g id="node6" class="node">
<title>kU1</title>
<path fill="#bfe2f1" stroke="#5b6b73" d="M139.25,-218C139.25,-218 28,-218 28,-218 22,-218 16,-212 16,-206 16,-206 16,-194 16,-194 16,-188 22,-182 28,-182 28,-182 139.25,-182 139.25,-182 145.25,-182 151.25,-188 151.25,-194 151.25,-194 151.25,-206 151.25,-206 151.25,-212 145.25,-218 139.25,-218"/>
<text xml:space="preserve" text-anchor="middle" x="83.62" y="-194.2" font-family="Helvetica,sans-Serif" font-size="14.00" fill="#233238">kernel thread for U1</text>
</g>
<!-- sched -->
<g id="node8" class="node">
<title>sched</title>
<path fill="#d5edf7" stroke="#5b6b73" d="M407.88,-205C407.88,-205 316.88,-205 316.88,-205 310.88,-205 304.88,-199 304.88,-193 304.88,-193 304.88,-181 304.88,-181 304.88,-175 310.88,-169 316.88,-169 316.88,-169 407.88,-169 407.88,-169 413.88,-169 419.88,-175 419.88,-181 419.88,-181 419.88,-193 419.88,-193 419.88,-199 413.88,-205 407.88,-205"/>
<text xml:space="preserve" text-anchor="middle" x="362.38" y="-181.2" font-family="Helvetica,sans-Serif" font-size="14.00" fill="#233238">kernel scheduler</text>
</g>
<!-- kU1&#45;&gt;sched -->
<g id="edge5" class="edge">
<title>kU1&#45;&gt;sched</title>
<path fill="none" stroke="#5b6b73" stroke-width="1.05" d="M151.62,-196.85C195.38,-194.8 252.25,-192.13 295.74,-190.08"/>
<polygon fill="#5b6b73" stroke="#5b6b73" stroke-width="1.05" points="295.85,-192.71 303.21,-189.73 295.6,-187.46 295.85,-192.71"/>
<text xml:space="preserve" text-anchor="middle" x="211.75" y="-196.97" font-family="Helvetica,sans-Serif" font-size="11.00">scheduled by</text>
</g>
<!-- kU2 -->
<g id="node7" class="node">
<title>kU2</title>
<path fill="#bfe2f1" stroke="#5b6b73" d="M139.25,-286C139.25,-286 28,-286 28,-286 22,-286 16,-280 16,-274 16,-274 16,-262 16,-262 16,-256 22,-250 28,-250 28,-250 139.25,-250 139.25,-250 145.25,-250 151.25,-256 151.25,-262 151.25,-262 151.25,-274 151.25,-274 151.25,-280 145.25,-286 139.25,-286"/>
<text xml:space="preserve" text-anchor="middle" x="83.62" y="-262.2" font-family="Helvetica,sans-Serif" font-size="14.00" fill="#233238">kernel thread for U2</text>
</g>
<!-- kU2&#45;&gt;sched -->
<g id="edge6" class="edge">
<title>kU2&#45;&gt;sched</title>
<path fill="none" stroke="#5b6b73" stroke-width="1.05" d="M147.77,-249.52C192.13,-236.53 251.32,-219.21 296.13,-206.09"/>
<polygon fill="#5b6b73" stroke="#5b6b73" stroke-width="1.05" points="296.63,-208.69 303.09,-204.06 295.15,-203.65 296.63,-208.69"/>
<text xml:space="preserve" text-anchor="middle" x="211.75" y="-241.04" font-family="Helvetica,sans-Serif" font-size="11.00">scheduled by</text>
</g>
<!-- blk2 -->
<g id="node9" class="node">
<title>blk2</title>
<polygon fill="#ffffff" stroke="#9aa7ae" points="446.5,-290.5 272.25,-290.5 272.25,-237.5 452.5,-237.5 452.5,-284.5 446.5,-290.5"/>
<polyline fill="none" stroke="#9aa7ae" points="446.5,-290.5 446.5,-284.5"/>
<polyline fill="none" stroke="#9aa7ae" points="452.5,-284.5 446.5,-284.5"/>
<text xml:space="preserve" text-anchor="middle" x="362.38" y="-273.2" font-family="Helvetica,sans-Serif" font-size="14.00" fill="#233238">blocking syscall blocks only</text>
<text xml:space="preserve" text-anchor="middle" x="362.38" y="-258.2" font-family="Helvetica,sans-Serif" font-size="14.00" fill="#233238">that kernel thread</text>
<text xml:space="preserve" text-anchor="middle" x="362.38" y="-243.2" font-family="Helvetica,sans-Serif" font-size="14.00" fill="#233238">others can keep running</text>
</g>
<!-- kU2&#45;&gt;blk2 -->
<g id="edge7" class="edge">
<title>kU2&#45;&gt;blk2</title>
<path fill="none" stroke="#5b6b73" stroke-width="1.05" stroke-dasharray="1,5" d="M151.62,-267.03C187.77,-266.51 232.88,-265.86 271.99,-265.29"/>
</g>
</g>
</svg>
