<?xml version="1.0" encoding="UTF-8" standalone="no"?>
<!DOCTYPE svg PUBLIC "-//W3C//DTD SVG 1.1//EN"
 "http://www.w3.org/Graphics/SVG/1.1/DTD/svg11.dtd">
<!-- Generated by graphviz version 14.1.3 (20260303.0454)
 -->
<!-- Title: G Pages: 1 -->
<svg width="428pt" height="609pt"
 viewBox="0.00 0.00 428.00 609.00" xmlns="http://www.w3.org/2000/svg" xmlns:xlink="http://www.w3.org/1999/xlink">
<g id="graph0" class="graph" transform="scale(1 1) rotate(0) translate(18 591)">
<title>G</title>
<polygon fill="white" stroke="none" points="-18,18 -18,-591 409.88,-591 409.88,18 -18,18"/>
<!-- start -->
<g id="node1" class="node">
<title>start</title>
<path fill="#bfe2f1" stroke="#5b6b73" d="M244.62,-573C244.62,-573 149.88,-573 149.88,-573 143.88,-573 137.88,-567 137.88,-561 137.88,-561 137.88,-547 137.88,-547 137.88,-541 143.88,-535 149.88,-535 149.88,-535 244.62,-535 244.62,-535 250.62,-535 256.62,-541 256.62,-547 256.62,-547 256.62,-561 256.62,-561 256.62,-567 250.62,-573 244.62,-573"/>
<text xml:space="preserve" text-anchor="middle" x="197.25" y="-555.7" font-family="Helvetica,sans-Serif" font-size="14.00" fill="#233238">thread running</text>
<text xml:space="preserve" text-anchor="middle" x="197.25" y="-540.7" font-family="Helvetica,sans-Serif" font-size="14.00" fill="#233238">(holds invariants)</text>
</g>
<!-- req -->
<g id="node2" class="node">
<title>req</title>
<path fill="#ddeaf1" stroke="#5b6b73" d="M260.75,-481C260.75,-481 133.75,-481 133.75,-481 127.75,-481 121.75,-475 121.75,-469 121.75,-469 121.75,-455 121.75,-455 121.75,-449 127.75,-443 133.75,-443 133.75,-443 260.75,-443 260.75,-443 266.75,-443 272.75,-449 272.75,-455 272.75,-455 272.75,-469 272.75,-469 272.75,-475 266.75,-481 260.75,-481"/>
<text xml:space="preserve" text-anchor="middle" x="197.25" y="-463.7" font-family="Helvetica,sans-Serif" font-size="14.00" fill="#233238">cancellation requested</text>
<text xml:space="preserve" text-anchor="middle" x="197.25" y="-448.7" font-family="Helvetica,sans-Serif" font-size="14.00" fill="#233238">(by another thread)</text>
</g>
<!-- start&#45;&gt;req -->
<g id="edge1" class="edge">
<title>start&#45;&gt;req</title>
<path fill="none" stroke="#5b6b73" stroke-width="1.05" d="M197.25,-534.79C197.25,-522.06 197.25,-504.85 197.25,-490.46"/>
<polygon fill="#5b6b73" stroke="#5b6b73" stroke-width="1.05" points="199.88,-490.58 197.25,-483.08 194.63,-490.58 199.88,-490.58"/>
</g>
<!-- async -->
<g id="node3" class="node">
<title>async</title>
<path fill="#f2d6d6" stroke="#5b6b73" d="M181.75,-289.5C181.75,-289.5 30.75,-289.5 30.75,-289.5 24.75,-289.5 18.75,-283.5 18.75,-277.5 18.75,-277.5 18.75,-263.5 18.75,-263.5 18.75,-257.5 24.75,-251.5 30.75,-251.5 30.75,-251.5 181.75,-251.5 181.75,-251.5 187.75,-251.5 193.75,-257.5 193.75,-263.5 193.75,-263.5 193.75,-277.5 193.75,-277.5 193.75,-283.5 187.75,-289.5 181.75,-289.5"/>
<text xml:space="preserve" text-anchor="middle" x="106.25" y="-272.2" font-family="Helvetica,sans-Serif" font-size="14.00" fill="#233238">asynchronous cancellation</text>
<text xml:space="preserve" text-anchor="middle" x="106.25" y="-257.2" font-family="Helvetica,sans-Serif" font-size="14.00" fill="#233238">(stop immediately)</text>
</g>
<!-- req&#45;&gt;async -->
<g id="edge2" class="edge">
<title>req&#45;&gt;async</title>
<path fill="none" stroke="#5b6b73" stroke-width="1.05" d="M188.52,-442.83C172.33,-409.1 137.56,-336.7 118.82,-297.69"/>
<polygon fill="#5b6b73" stroke="#5b6b73" stroke-width="1.05" points="121.38,-296.95 115.77,-291.33 116.65,-299.22 121.38,-296.95"/>
</g>
<!-- def -->
<g id="node4" class="node">
<title>def</title>
<path fill="#d5edf7" stroke="#5b6b73" d="M353.12,-389C353.12,-389 201.38,-389 201.38,-389 195.38,-389 189.38,-383 189.38,-377 189.38,-377 189.38,-363 189.38,-363 189.38,-357 195.38,-351 201.38,-351 201.38,-351 353.12,-351 353.12,-351 359.12,-351 365.12,-357 365.12,-363 365.12,-363 365.12,-377 365.12,-377 365.12,-383 359.12,-389 353.12,-389"/>
<text xml:space="preserve" text-anchor="middle" x="277.25" y="-371.7" font-family="Helvetica,sans-Serif" font-size="14.00" fill="#233238">deferred cancellation</text>
<text xml:space="preserve" text-anchor="middle" x="277.25" y="-356.7" font-family="Helvetica,sans-Serif" font-size="14.00" fill="#233238">(stop at cancellation points</text>
</g>
<!-- req&#45;&gt;def -->
<g id="edge3" class="edge">
<title>req&#45;&gt;def</title>
<path fill="none" stroke="#5b6b73" stroke-width="1.05" d="M213.44,-442.79C225.4,-429.34 241.82,-410.86 255.01,-396.03"/>
<polygon fill="#5b6b73" stroke="#5b6b73" stroke-width="1.05" points="256.73,-398.03 259.75,-390.68 252.81,-394.54 256.73,-398.03"/>
</g>
<!-- warn -->
<g id="node8" class="node">
<title>warn</title>
<polygon fill="#ffffff" stroke="#9aa7ae" points="206.5,-83 0,-83 0,0 212.5,0 212.5,-77 206.5,-83"/>
<polyline fill="none" stroke="#9aa7ae" points="206.5,-83 206.5,-77"/>
<polyline fill="none" stroke="#9aa7ae" points="212.5,-77 206.5,-77"/>
<text xml:space="preserve" text-anchor="middle" x="106.25" y="-65.7" font-family="Helvetica,sans-Serif" font-size="14.00" fill="#233238">Key idea:</text>
<text xml:space="preserve" text-anchor="middle" x="106.25" y="-50.7" font-family="Helvetica,sans-Serif" font-size="14.00" fill="#233238">Immediate stop can leave</text>
<text xml:space="preserve" text-anchor="middle" x="106.25" y="-35.7" font-family="Helvetica,sans-Serif" font-size="14.00" fill="#233238">locks held and invariants broken.</text>
<text xml:space="preserve" text-anchor="middle" x="106.25" y="-20.7" font-family="Helvetica,sans-Serif" font-size="14.00" fill="#233238">Deferred cancellation + cleanup</text>
<text xml:space="preserve" text-anchor="middle" x="106.25" y="-5.7" font-family="Helvetica,sans-Serif" font-size="14.00" fill="#233238">makes termination a protocol.</text>
</g>
<!-- async&#45;&gt;warn -->
<g id="edge7" class="edge">
<title>async&#45;&gt;warn</title>
<path fill="none" stroke="#5b6b73" stroke-width="1.05" stroke-dasharray="1,5" d="M106.25,-251.31C106.25,-215.01 106.25,-132.82 106.25,-83.07"/>
</g>
<!-- point -->
<g id="node5" class="node">
<title>point</title>
<path fill="#f7e9c5" stroke="#5b6b73" d="M341.12,-297C341.12,-297 237.38,-297 237.38,-297 231.38,-297 225.38,-291 225.38,-285 225.38,-285 225.38,-256 225.38,-256 225.38,-250 231.38,-244 237.38,-244 237.38,-244 341.12,-244 341.12,-244 347.12,-244 353.12,-250 353.12,-256 353.12,-256 353.12,-285 353.12,-285 353.12,-291 347.12,-297 341.12,-297"/>
<text xml:space="preserve" text-anchor="middle" x="289.25" y="-279.7" font-family="Helvetica,sans-Serif" font-size="14.00" fill="#233238">cancellation point</text>
<text xml:space="preserve" text-anchor="middle" x="289.25" y="-264.7" font-family="Helvetica,sans-Serif" font-size="14.00" fill="#233238">(e.g., blocking call,</text>
<text xml:space="preserve" text-anchor="middle" x="289.25" y="-249.7" font-family="Helvetica,sans-Serif" font-size="14.00" fill="#233238">explicit check)</text>
</g>
<!-- def&#45;&gt;point -->
<g id="edge4" class="edge">
<title>def&#45;&gt;point</title>
<path fill="none" stroke="#5b6b73" stroke-width="1.05" d="M279.51,-350.66C281.04,-338.24 283.11,-321.42 284.94,-306.49"/>
<polygon fill="#5b6b73" stroke="#5b6b73" stroke-width="1.05" points="287.55,-306.83 285.86,-299.06 282.34,-306.18 287.55,-306.83"/>
</g>
<!-- cleanup -->
<g id="node6" class="node">
<title>cleanup</title>
<path fill="#ddeaf1" stroke="#5b6b73" d="M348.25,-190C348.25,-190 230.25,-190 230.25,-190 224.25,-190 218.25,-184 218.25,-178 218.25,-178 218.25,-149 218.25,-149 218.25,-143 224.25,-137 230.25,-137 230.25,-137 348.25,-137 348.25,-137 354.25,-137 360.25,-143 360.25,-149 360.25,-149 360.25,-178 360.25,-178 360.25,-184 354.25,-190 348.25,-190"/>
<text xml:space="preserve" text-anchor="middle" x="289.25" y="-172.7" font-family="Helvetica,sans-Serif" font-size="14.00" fill="#233238">cleanup handlers run</text>
<text xml:space="preserve" text-anchor="middle" x="289.25" y="-157.7" font-family="Helvetica,sans-Serif" font-size="14.00" fill="#233238">(release locks,</text>
<text xml:space="preserve" text-anchor="middle" x="289.25" y="-142.7" font-family="Helvetica,sans-Serif" font-size="14.00" fill="#233238">free resources)</text>
</g>
<!-- point&#45;&gt;cleanup -->
<g id="edge5" class="edge">
<title>point&#45;&gt;cleanup</title>
<path fill="none" stroke="#5b6b73" stroke-width="1.05" d="M289.25,-243.54C289.25,-230.07 289.25,-213.42 289.25,-198.89"/>
<polygon fill="#5b6b73" stroke="#5b6b73" stroke-width="1.05" points="291.88,-199.25 289.25,-191.75 286.63,-199.25 291.88,-199.25"/>
</g>
<!-- exit -->
<g id="node7" class="node">
<title>exit</title>
<path fill="#f5f5f5" stroke="#5b6b73" d="M379.88,-60.5C379.88,-60.5 256.62,-60.5 256.62,-60.5 250.62,-60.5 244.62,-54.5 244.62,-48.5 244.62,-48.5 244.62,-34.5 244.62,-34.5 244.62,-28.5 250.62,-22.5 256.62,-22.5 256.62,-22.5 379.88,-22.5 379.88,-22.5 385.88,-22.5 391.88,-28.5 391.88,-34.5 391.88,-34.5 391.88,-48.5 391.88,-48.5 391.88,-54.5 385.88,-60.5 379.88,-60.5"/>
<text xml:space="preserve" text-anchor="middle" x="318.25" y="-43.2" font-family="Helvetica,sans-Serif" font-size="14.00" fill="#233238">thread terminates</text>
<text xml:space="preserve" text-anchor="middle" x="318.25" y="-28.2" font-family="Helvetica,sans-Serif" font-size="14.00" fill="#233238">(resources reclaimed)</text>
</g>
<!-- cleanup&#45;&gt;exit -->
<g id="edge6" class="edge">
<title>cleanup&#45;&gt;exit</title>
<path fill="none" stroke="#5b6b73" stroke-width="1.05" d="M295.47,-136.76C300.26,-116.93 306.87,-89.6 311.73,-69.47"/>
<polygon fill="#5b6b73" stroke="#5b6b73" stroke-width="1.05" points="314.25,-70.23 313.46,-62.33 309.15,-69 314.25,-70.23"/>
</g>
<!-- cleanup&#45;&gt;warn -->
<g id="edge8" class="edge">
<title>cleanup&#45;&gt;warn</title>
<path fill="none" stroke="#5b6b73" stroke-width="1.05" stroke-dasharray="1,5" d="M249.99,-136.76C226.26,-121.19 195.47,-101 168.48,-83.31"/>
</g>
</g>
</svg>
