<?xml version="1.0" encoding="UTF-8" standalone="no"?>
<!DOCTYPE svg PUBLIC "-//W3C//DTD SVG 1.1//EN"
 "http://www.w3.org/Graphics/SVG/1.1/DTD/svg11.dtd">
<!-- Generated by graphviz version 14.1.3 (20260303.0454)
 -->
<!-- Title: G Pages: 1 -->
<svg width="1146pt" height="124pt"
 viewBox="0.00 0.00 1146.00 124.00" xmlns="http://www.w3.org/2000/svg" xmlns:xlink="http://www.w3.org/1999/xlink">
<g id="graph0" class="graph" transform="scale(1 1) rotate(0) translate(14.4 109.4)">
<title>G</title>
<polygon fill="white" stroke="none" points="-14.4,14.4 -14.4,-109.4 1131.65,-109.4 1131.65,14.4 -14.4,14.4"/>
<!-- tcb -->
<g id="node1" class="node">
<title>tcb</title>
<polygon fill="#f5f5f5" stroke="none" points="1,-63 1,-94 191.75,-94 191.75,-63 1,-63"/>
<polygon fill="none" stroke="#5b6b73" points="1,-63 1,-94 191.75,-94 191.75,-63 1,-63"/>
<text xml:space="preserve" text-anchor="start" x="49.88" y="-73.7" font-family="Helvetica,sans-Serif" font-weight="bold" font-size="14.00">State category</text>
<polygon fill="#f5f5f5" stroke="none" points="191.75,-63 191.75,-94 652.5,-94 652.5,-63 191.75,-63"/>
<polygon fill="none" stroke="#5b6b73" points="191.75,-63 191.75,-94 652.5,-94 652.5,-63 191.75,-63"/>
<text xml:space="preserve" text-anchor="start" x="390.25" y="-73.7" font-family="Helvetica,sans-Serif" font-weight="bold" font-size="14.00">Examples</text>
<polygon fill="#f5f5f5" stroke="none" points="652.5,-63 652.5,-94 1116.25,-94 1116.25,-63 652.5,-63"/>
<polygon fill="none" stroke="#5b6b73" points="652.5,-63 652.5,-94 1116.25,-94 1116.25,-63 652.5,-63"/>
<text xml:space="preserve" text-anchor="start" x="837.12" y="-73.7" font-family="Helvetica,sans-Serif" font-weight="bold" font-size="14.00">Why it matters</text>
<polygon fill="#e6f3f9" stroke="none" points="1,-32 1,-63 191.75,-63 191.75,-32 1,-32"/>
<polygon fill="none" stroke="#5b6b73" points="1,-32 1,-63 191.75,-63 191.75,-32 1,-32"/>
<text xml:space="preserve" text-anchor="start" x="9" y="-42.7" font-family="Helvetica,sans-Serif" font-weight="bold" font-size="14.00">Shared (process container)</text>
<polygon fill="none" stroke="#5b6b73" points="191.75,-32 191.75,-63 652.5,-63 652.5,-32 191.75,-32"/>
<text xml:space="preserve" text-anchor="start" x="199.75" y="-43.75" font-family="Helvetica,sans-Serif" font-size="14.00">code/data/heap mappings; global variables; open files/sockets; credentials</text>
<polygon fill="none" stroke="#5b6b73" points="652.5,-32 652.5,-63 1116.25,-63 1116.25,-32 652.5,-32"/>
<text xml:space="preserve" text-anchor="start" x="662" y="-43.75" font-family="Helvetica,sans-Serif" font-size="14.00">threads can communicate cheaply but must synchronize shared invariants</text>
<polygon fill="#e6f3f9" stroke="none" points="1,-1 1,-32 191.75,-32 191.75,-1 1,-1"/>
<polygon fill="none" stroke="#5b6b73" points="1,-1 1,-32 191.75,-32 191.75,-1 1,-1"/>
<text xml:space="preserve" text-anchor="start" x="16.88" y="-11.7" font-family="Helvetica,sans-Serif" font-weight="bold" font-size="14.00">Private (per thread, TCB)</text>
<polygon fill="none" stroke="#5b6b73" points="191.75,-1 191.75,-32 652.5,-32 652.5,-1 191.75,-1"/>
<text xml:space="preserve" text-anchor="start" x="217.38" y="-12.75" font-family="Helvetica,sans-Serif" font-size="14.00">program counter; registers; stack; scheduling identity/metadata; TLS</text>
<polygon fill="none" stroke="#5b6b73" points="652.5,-1 652.5,-32 1116.25,-32 1116.25,-1 652.5,-1"/>
<text xml:space="preserve" text-anchor="start" x="660.5" y="-12.75" font-family="Helvetica,sans-Serif" font-size="14.00">defines “where this thread resumes” and lets the kernel/runtime schedule it</text>
<polygon fill="none" stroke="#5b6b73" points="0,0 0,-95 1117.25,-95 1117.25,0 0,0"/>
</g>
</g>
</svg>
