<?xml version="1.0" encoding="UTF-8" standalone="no"?>
<!DOCTYPE svg PUBLIC "-//W3C//DTD SVG 1.1//EN"
 "http://www.w3.org/Graphics/SVG/1.1/DTD/svg11.dtd">
<!-- Generated by graphviz version 14.1.3 (20260303.0454)
 -->
<!-- Title: G Pages: 1 -->
<svg width="762pt" height="458pt"
 viewBox="0.00 0.00 762.00 458.00" xmlns="http://www.w3.org/2000/svg" xmlns:xlink="http://www.w3.org/1999/xlink">
<g id="graph0" class="graph" transform="scale(1 1) rotate(0) translate(18 439.5)">
<title>G</title>
<polygon fill="white" stroke="none" points="-18,18 -18,-439.5 744,-439.5 744,18 -18,18"/>
<g id="clust1" class="cluster">
<title>cluster_mem</title>
<path fill="#eaf6fb" stroke="#9ec9da" d="M12,-101.5C12,-101.5 181.75,-101.5 181.75,-101.5 187.75,-101.5 193.75,-107.5 193.75,-113.5 193.75,-113.5 193.75,-308.5 193.75,-308.5 193.75,-314.5 187.75,-320.5 181.75,-320.5 181.75,-320.5 12,-320.5 12,-320.5 6,-320.5 0,-314.5 0,-308.5 0,-308.5 0,-113.5 0,-113.5 0,-107.5 6,-101.5 12,-101.5"/>
<text xml:space="preserve" text-anchor="middle" x="96.88" y="-303.2" font-family="Times,serif" font-size="14.00">memory (cache&#45;line granularity)</text>
</g>
<g id="clust2" class="cluster">
<title>cluster_c1</title>
<path fill="#eaf6fb" stroke="#9ec9da" d="M59.38,-328.5C59.38,-328.5 392.5,-328.5 392.5,-328.5 398.5,-328.5 404.5,-334.5 404.5,-340.5 404.5,-340.5 404.5,-401.5 404.5,-401.5 404.5,-407.5 398.5,-413.5 392.5,-413.5 392.5,-413.5 59.38,-413.5 59.38,-413.5 53.38,-413.5 47.38,-407.5 47.38,-401.5 47.38,-401.5 47.38,-340.5 47.38,-340.5 47.38,-334.5 53.38,-328.5 59.38,-328.5"/>
<text xml:space="preserve" text-anchor="middle" x="225.94" y="-396.2" font-family="Times,serif" font-size="14.00">core 1 cache</text>
</g>
<g id="clust3" class="cluster">
<title>cluster_c2</title>
<path fill="#eaf6fb" stroke="#9ec9da" d="M59.38,-8.5C59.38,-8.5 392.5,-8.5 392.5,-8.5 398.5,-8.5 404.5,-14.5 404.5,-20.5 404.5,-20.5 404.5,-81.5 404.5,-81.5 404.5,-87.5 398.5,-93.5 392.5,-93.5 392.5,-93.5 59.38,-93.5 59.38,-93.5 53.38,-93.5 47.38,-87.5 47.38,-81.5 47.38,-81.5 47.38,-20.5 47.38,-20.5 47.38,-14.5 53.38,-8.5 59.38,-8.5"/>
<text xml:space="preserve" text-anchor="middle" x="225.94" y="-76.2" font-family="Times,serif" font-size="14.00">core 2 cache</text>
</g>
<!-- line -->
<g id="node1" class="node">
<title>line</title>
<path fill="#f7e9c5" stroke="#5b6b73" d="M135.88,-147.5C135.88,-147.5 56.87,-147.5 56.87,-147.5 50.88,-147.5 44.88,-141.5 44.88,-135.5 44.88,-135.5 44.88,-121.5 44.88,-121.5 44.88,-115.5 50.88,-109.5 56.88,-109.5 56.88,-109.5 135.88,-109.5 135.88,-109.5 141.88,-109.5 147.88,-115.5 147.88,-121.5 147.88,-121.5 147.88,-135.5 147.88,-135.5 147.88,-141.5 141.88,-147.5 135.88,-147.5"/>
<text xml:space="preserve" text-anchor="middle" x="96.38" y="-130.2" font-family="Helvetica,sans-Serif" font-size="14.00" fill="#233238">one cache line</text>
<text xml:space="preserve" text-anchor="middle" x="96.38" y="-115.2" font-family="Helvetica,sans-Serif" font-size="14.00" fill="#233238">[ a | b | ... ]</text>
</g>
<!-- c1 -->
<g id="node4" class="node">
<title>c1</title>
<path fill="#bfe2f1" stroke="#5b6b73" d="M384.5,-374.5C384.5,-374.5 299.5,-374.5 299.5,-374.5 293.5,-374.5 287.5,-368.5 287.5,-362.5 287.5,-362.5 287.5,-348.5 287.5,-348.5 287.5,-342.5 293.5,-336.5 299.5,-336.5 299.5,-336.5 384.5,-336.5 384.5,-336.5 390.5,-336.5 396.5,-342.5 396.5,-348.5 396.5,-348.5 396.5,-362.5 396.5,-362.5 396.5,-368.5 390.5,-374.5 384.5,-374.5"/>
<text xml:space="preserve" text-anchor="middle" x="342" y="-357.2" font-family="Helvetica,sans-Serif" font-size="14.00" fill="#233238">cache line copy</text>
<text xml:space="preserve" text-anchor="middle" x="342" y="-342.2" font-family="Helvetica,sans-Serif" font-size="14.00" fill="#233238">(a,b)</text>
</g>
<!-- line&#45;&gt;c1 -->
<g id="edge1" class="edge">
<title>line&#45;&gt;c1</title>
<path fill="none" stroke="#5b6b73" stroke-width="1.05" d="M148.1,-140.93C163.67,-146.26 180.25,-153.61 193.75,-163.5 255.56,-208.8 304.06,-287.04 326.82,-328.27"/>
<polygon fill="#5b6b73" stroke="#5b6b73" stroke-width="1.05" points="324.51,-329.51 330.4,-334.84 329.12,-327 324.51,-329.51"/>
<text xml:space="preserve" text-anchor="middle" x="236.62" y="-224.39" font-family="Helvetica,sans-Serif" font-size="11.00">load line</text>
</g>
<!-- c2 -->
<g id="node6" class="node">
<title>c2</title>
<path fill="#bfe2f1" stroke="#5b6b73" d="M384.5,-60.5C384.5,-60.5 299.5,-60.5 299.5,-60.5 293.5,-60.5 287.5,-54.5 287.5,-48.5 287.5,-48.5 287.5,-34.5 287.5,-34.5 287.5,-28.5 293.5,-22.5 299.5,-22.5 299.5,-22.5 384.5,-22.5 384.5,-22.5 390.5,-22.5 396.5,-28.5 396.5,-34.5 396.5,-34.5 396.5,-48.5 396.5,-48.5 396.5,-54.5 390.5,-60.5 384.5,-60.5"/>
<text xml:space="preserve" text-anchor="middle" x="342" y="-43.2" font-family="Helvetica,sans-Serif" font-size="14.00" fill="#233238">cache line copy</text>
<text xml:space="preserve" text-anchor="middle" x="342" y="-28.2" font-family="Helvetica,sans-Serif" font-size="14.00" fill="#233238">(a,b)</text>
</g>
<!-- line&#45;&gt;c2 -->
<g id="edge2" class="edge">
<title>line&#45;&gt;c2</title>
<path fill="none" stroke="#5b6b73" stroke-width="1.05" d="M148.23,-115.42C163.01,-111.3 179.12,-106.51 193.75,-101.5 225.84,-90.51 261.05,-76.25 288.99,-64.38"/>
<polygon fill="#5b6b73" stroke="#5b6b73" stroke-width="1.05" points="289.71,-66.93 295.58,-61.57 287.65,-62.1 289.71,-66.93"/>
<text xml:space="preserve" text-anchor="middle" x="236.62" y="-94.28" font-family="Helvetica,sans-Serif" font-size="11.00">load line</text>
</g>
<!-- a -->
<g id="node2" class="node">
<title>a</title>
<path fill="#ddeaf1" stroke="#5b6b73" d="M141.12,-217.5C141.12,-217.5 51.63,-217.5 51.63,-217.5 45.62,-217.5 39.62,-211.5 39.62,-205.5 39.62,-205.5 39.62,-191.5 39.62,-191.5 39.62,-185.5 45.62,-179.5 51.62,-179.5 51.62,-179.5 141.12,-179.5 141.12,-179.5 147.12,-179.5 153.12,-185.5 153.12,-191.5 153.12,-191.5 153.12,-205.5 153.12,-205.5 153.12,-211.5 147.12,-217.5 141.12,-217.5"/>
<text xml:space="preserve" text-anchor="middle" x="96.38" y="-200.2" font-family="Helvetica,sans-Serif" font-size="14.00" fill="#233238">a (owned by T1)</text>
<text xml:space="preserve" text-anchor="middle" x="96.38" y="-185.2" font-family="Helvetica,sans-Serif" font-size="14.00" fill="#233238">updated often</text>
</g>
<!-- b -->
<g id="node3" class="node">
<title>b</title>
<path fill="#ddeaf1" stroke="#5b6b73" d="M141.12,-287.5C141.12,-287.5 51.63,-287.5 51.63,-287.5 45.62,-287.5 39.62,-281.5 39.62,-275.5 39.62,-275.5 39.62,-261.5 39.62,-261.5 39.62,-255.5 45.62,-249.5 51.62,-249.5 51.62,-249.5 141.12,-249.5 141.12,-249.5 147.12,-249.5 153.12,-255.5 153.12,-261.5 153.12,-261.5 153.12,-275.5 153.12,-275.5 153.12,-281.5 147.12,-287.5 141.12,-287.5"/>
<text xml:space="preserve" text-anchor="middle" x="96.38" y="-270.2" font-family="Helvetica,sans-Serif" font-size="14.00" fill="#233238">b (owned by T2)</text>
<text xml:space="preserve" text-anchor="middle" x="96.38" y="-255.2" font-family="Helvetica,sans-Serif" font-size="14.00" fill="#233238">updated often</text>
</g>
<!-- c1&#45;&gt;c2 -->
<g id="edge5" class="edge">
<title>c1&#45;&gt;c2</title>
<path fill="none" stroke="#8b3a3a" stroke-width="1.05" d="M342,-336.18C342,-282.68 342,-132.41 342,-69.62"/>
<polygon fill="#8b3a3a" stroke="#8b3a3a" stroke-width="1.05" points="344.63,-69.76 342,-62.26 339.38,-69.76 344.63,-69.76"/>
<text xml:space="preserve" text-anchor="middle" x="327" y="-200.05" font-family="Helvetica,sans-Serif" font-size="11.00" fill="#8b3a3a">invalidate / transfer</text>
<text xml:space="preserve" text-anchor="middle" x="327" y="-188.05" font-family="Helvetica,sans-Serif" font-size="11.00" fill="#8b3a3a">(cache&#45;line bouncing)</text>
</g>
<!-- t1 -->
<g id="node5" class="node">
<title>t1</title>
<path fill="#d5edf7" stroke="#5b6b73" d="M125.38,-380.5C125.38,-380.5 67.38,-380.5 67.38,-380.5 61.37,-380.5 55.38,-374.5 55.38,-368.5 55.38,-368.5 55.38,-356.5 55.38,-356.5 55.38,-350.5 61.38,-344.5 67.38,-344.5 67.38,-344.5 125.38,-344.5 125.38,-344.5 131.38,-344.5 137.38,-350.5 137.38,-356.5 137.38,-356.5 137.38,-368.5 137.38,-368.5 137.38,-374.5 131.38,-380.5 125.38,-380.5"/>
<text xml:space="preserve" text-anchor="middle" x="96.38" y="-356.7" font-family="Helvetica,sans-Serif" font-size="14.00" fill="#233238">T1 writes a</text>
</g>
<!-- t1&#45;&gt;c1 -->
<g id="edge3" class="edge">
<title>t1&#45;&gt;c1</title>
<path fill="none" stroke="#5b6b73" stroke-width="1.05" d="M137.6,-361.34C175.79,-360.25 233.77,-358.58 278.07,-357.31"/>
<polygon fill="#5b6b73" stroke="#5b6b73" stroke-width="1.05" points="278.01,-359.94 285.43,-357.1 277.86,-354.69 278.01,-359.94"/>
<text xml:space="preserve" text-anchor="middle" x="236.62" y="-360.55" font-family="Helvetica,sans-Serif" font-size="11.00">write a</text>
</g>
<!-- c2&#45;&gt;c1 -->
<g id="edge6" class="edge">
<title>c2&#45;&gt;c1</title>
<path fill="none" stroke="#8b3a3a" stroke-width="1.05" d="M342,-60.67C342,-113.99 342,-264.25 342,-327.2"/>
<polygon fill="#8b3a3a" stroke="#8b3a3a" stroke-width="1.05" points="339.38,-327.09 342,-334.59 344.63,-327.09 339.38,-327.09"/>
<text xml:space="preserve" text-anchor="middle" x="333" y="-194.05" font-family="Helvetica,sans-Serif" font-size="11.00" fill="#8b3a3a">invalidate / transfer</text>
</g>
<!-- bounce -->
<g id="node8" class="node">
<title>bounce</title>
<polygon fill="#ffffff" stroke="#9aa7ae" points="720,-83 459.5,-83 459.5,0 726,0 726,-77 720,-83"/>
<polyline fill="none" stroke="#9aa7ae" points="720,-83 720,-77"/>
<polyline fill="none" stroke="#9aa7ae" points="726,-77 720,-77"/>
<text xml:space="preserve" text-anchor="middle" x="592.75" y="-65.7" font-family="Helvetica,sans-Serif" font-size="14.00" fill="#233238">false sharing:</text>
<text xml:space="preserve" text-anchor="middle" x="592.75" y="-50.7" font-family="Helvetica,sans-Serif" font-size="14.00" fill="#233238">T1 and T2 update different variables</text>
<text xml:space="preserve" text-anchor="middle" x="592.75" y="-35.7" font-family="Helvetica,sans-Serif" font-size="14.00" fill="#233238">but coherence operates on the whole line.</text>
<text xml:space="preserve" text-anchor="middle" x="592.75" y="-20.7" font-family="Helvetica,sans-Serif" font-size="14.00" fill="#233238">Line &quot;bounces&quot; between caches,</text>
<text xml:space="preserve" text-anchor="middle" x="592.75" y="-5.7" font-family="Helvetica,sans-Serif" font-size="14.00" fill="#233238">creating traffic and slowdown.</text>
</g>
<!-- c2&#45;&gt;bounce -->
<g id="edge7" class="edge">
<title>c2&#45;&gt;bounce</title>
<path fill="none" stroke="#5b6b73" stroke-width="1.05" stroke-dasharray="1,5" d="M396.98,-41.5C415.48,-41.5 437.08,-41.5 459.04,-41.5"/>
</g>
<!-- t2 -->
<g id="node7" class="node">
<title>t2</title>
<path fill="#d5edf7" stroke="#5b6b73" d="M125.38,-60.5C125.38,-60.5 67.38,-60.5 67.38,-60.5 61.37,-60.5 55.38,-54.5 55.38,-48.5 55.38,-48.5 55.38,-36.5 55.38,-36.5 55.38,-30.5 61.38,-24.5 67.38,-24.5 67.38,-24.5 125.38,-24.5 125.38,-24.5 131.38,-24.5 137.38,-30.5 137.38,-36.5 137.38,-36.5 137.38,-48.5 137.38,-48.5 137.38,-54.5 131.38,-60.5 125.38,-60.5"/>
<text xml:space="preserve" text-anchor="middle" x="96.38" y="-36.7" font-family="Helvetica,sans-Serif" font-size="14.00" fill="#233238">T2 writes b</text>
</g>
<!-- t2&#45;&gt;c2 -->
<g id="edge4" class="edge">
<title>t2&#45;&gt;c2</title>
<path fill="none" stroke="#5b6b73" stroke-width="1.05" d="M137.6,-42.33C175.79,-42.18 233.77,-41.94 278.07,-41.76"/>
<polygon fill="#5b6b73" stroke="#5b6b73" stroke-width="1.05" points="277.94,-44.38 285.43,-41.73 277.92,-39.13 277.94,-44.38"/>
<text xml:space="preserve" text-anchor="middle" x="236.62" y="-43.55" font-family="Helvetica,sans-Serif" font-size="11.00">write b</text>
</g>
</g>
</svg>
