<?xml version="1.0" encoding="UTF-8" standalone="no"?>
<!DOCTYPE svg PUBLIC "-//W3C//DTD SVG 1.1//EN"
 "http://www.w3.org/Graphics/SVG/1.1/DTD/svg11.dtd">
<!-- Generated by graphviz version 14.1.3 (20260303.0454)
 -->
<!-- Title: G Pages: 1 -->
<svg width="1239pt" height="217pt"
 viewBox="0.00 0.00 1239.00 217.00" xmlns="http://www.w3.org/2000/svg" xmlns:xlink="http://www.w3.org/1999/xlink">
<g id="graph0" class="graph" transform="scale(1 1) rotate(0) translate(14.4 202.4)">
<title>G</title>
<polygon fill="white" stroke="none" points="-14.4,14.4 -14.4,-202.4 1224.15,-202.4 1224.15,14.4 -14.4,14.4"/>
<!-- flow -->
<g id="node1" class="node">
<title>flow</title>
<polygon fill="#f5f5f5" stroke="none" points="1,-156 1,-187 127.25,-187 127.25,-156 1,-156"/>
<polygon fill="none" stroke="#5b6b73" points="1,-156 1,-187 127.25,-187 127.25,-156 1,-156"/>
<text xml:space="preserve" text-anchor="start" x="44.25" y="-166.7" font-family="Helvetica,sans-Serif" font-weight="bold" font-size="14.00">Phase</text>
<polygon fill="#f5f5f5" stroke="none" points="127.25,-156 127.25,-187 357.75,-187 357.75,-156 127.25,-156"/>
<polygon fill="none" stroke="#5b6b73" points="127.25,-156 127.25,-187 357.75,-187 357.75,-156 127.25,-156"/>
<text xml:space="preserve" text-anchor="start" x="201.25" y="-166.7" font-family="Helvetica,sans-Serif" font-weight="bold" font-size="14.00">Caller thread</text>
<polygon fill="#f5f5f5" stroke="none" points="357.75,-156 357.75,-187 897.25,-187 897.25,-156 357.75,-156"/>
<polygon fill="none" stroke="#5b6b73" points="357.75,-156 357.75,-187 897.25,-187 897.25,-156 357.75,-156"/>
<text xml:space="preserve" text-anchor="start" x="606.5" y="-166.7" font-family="Helvetica,sans-Serif" font-weight="bold" font-size="14.00">Kernel</text>
<polygon fill="#f5f5f5" stroke="none" points="897.25,-156 897.25,-187 1208.75,-187 1208.75,-156 897.25,-156"/>
<polygon fill="none" stroke="#5b6b73" points="897.25,-156 897.25,-187 1208.75,-187 1208.75,-156 897.25,-156"/>
<text xml:space="preserve" text-anchor="start" x="1006.88" y="-166.7" font-family="Helvetica,sans-Serif" font-weight="bold" font-size="14.00">External event</text>
<polygon fill="#e6f3f9" stroke="none" points="1,-125 1,-156 127.25,-156 127.25,-125 1,-125"/>
<polygon fill="none" stroke="#5b6b73" points="1,-125 1,-156 127.25,-156 127.25,-125 1,-125"/>
<text xml:space="preserve" text-anchor="start" x="22.5" y="-135.7" font-family="Helvetica,sans-Serif" font-weight="bold" font-size="14.00">Enter syscall</text>
<polygon fill="none" stroke="#5b6b73" points="127.25,-125 127.25,-156 357.75,-156 357.75,-125 127.25,-125"/>
<text xml:space="preserve" text-anchor="start" x="135.25" y="-136.75" font-family="Helvetica,sans-Serif" font-size="14.00">runs in user mode; requests service</text>
<polygon fill="none" stroke="#5b6b73" points="357.75,-125 357.75,-156 897.25,-156 897.25,-125 357.75,-125"/>
<text xml:space="preserve" text-anchor="start" x="486.88" y="-136.75" font-family="Helvetica,sans-Serif" font-size="14.00">mode switch; trap frame saved; handler begins</text>
<polygon fill="none" stroke="#5b6b73" points="897.25,-125 897.25,-156 1208.75,-156 1208.75,-125 897.25,-125"/>
<text xml:space="preserve" text-anchor="start" x="1050.75" y="-136.75" font-family="Helvetica,sans-Serif" font-size="14.00">&#45;</text>
<polygon fill="#e6f3f9" stroke="none" points="1,-94 1,-125 127.25,-125 127.25,-94 1,-94"/>
<polygon fill="none" stroke="#5b6b73" points="1,-94 1,-125 127.25,-125 127.25,-94 1,-94"/>
<text xml:space="preserve" text-anchor="start" x="9" y="-104.7" font-family="Helvetica,sans-Serif" font-weight="bold" font-size="14.00">Validate + decide</text>
<polygon fill="none" stroke="#5b6b73" points="127.25,-94 127.25,-125 357.75,-125 357.75,-94 127.25,-94"/>
<text xml:space="preserve" text-anchor="start" x="182.88" y="-105.75" font-family="Helvetica,sans-Serif" font-size="14.00">paused at boundary</text>
<polygon fill="none" stroke="#5b6b73" points="357.75,-94 357.75,-125 897.25,-125 897.25,-94 357.75,-94"/>
<text xml:space="preserve" text-anchor="start" x="380" y="-105.75" font-family="Helvetica,sans-Serif" font-size="14.00">validates args; checks resource state (buffer space, I/O readiness, lock availability)</text>
<polygon fill="none" stroke="#5b6b73" points="897.25,-94 897.25,-125 1208.75,-125 1208.75,-94 897.25,-94"/>
<text xml:space="preserve" text-anchor="start" x="1050.75" y="-105.75" font-family="Helvetica,sans-Serif" font-size="14.00">&#45;</text>
<polygon fill="#e6f3f9" stroke="none" points="1,-63 1,-94 127.25,-94 127.25,-63 1,-63"/>
<polygon fill="none" stroke="#5b6b73" points="1,-63 1,-94 127.25,-94 127.25,-63 1,-63"/>
<text xml:space="preserve" text-anchor="start" x="9.75" y="-73.7" font-family="Helvetica,sans-Serif" font-weight="bold" font-size="14.00">Block (if needed)</text>
<polygon fill="none" stroke="#5b6b73" points="127.25,-63 127.25,-94 357.75,-94 357.75,-63 127.25,-63"/>
<text xml:space="preserve" text-anchor="start" x="173.12" y="-74.75" font-family="Helvetica,sans-Serif" font-size="14.00">becomes non&#45;runnable</text>
<polygon fill="none" stroke="#5b6b73" points="357.75,-63 357.75,-94 897.25,-94 897.25,-63 357.75,-63"/>
<text xml:space="preserve" text-anchor="start" x="365.75" y="-74.75" font-family="Helvetica,sans-Serif" font-size="14.00">records a wait condition; enqueues on a wait queue; schedules another runnable thread</text>
<polygon fill="none" stroke="#5b6b73" points="897.25,-63 897.25,-94 1208.75,-94 1208.75,-63 897.25,-63"/>
<text xml:space="preserve" text-anchor="start" x="928.5" y="-74.75" font-family="Helvetica,sans-Serif" font-size="14.00">device runs or lock holder runs elsewhere</text>
<polygon fill="#e6f3f9" stroke="none" points="1,-32 1,-63 127.25,-63 127.25,-32 1,-32"/>
<polygon fill="none" stroke="#5b6b73" points="1,-32 1,-63 127.25,-63 127.25,-32 1,-32"/>
<text xml:space="preserve" text-anchor="start" x="38.25" y="-42.7" font-family="Helvetica,sans-Serif" font-weight="bold" font-size="14.00">Wakeup</text>
<polygon fill="none" stroke="#5b6b73" points="127.25,-32 127.25,-63 357.75,-63 357.75,-32 127.25,-32"/>
<text xml:space="preserve" text-anchor="start" x="211" y="-43.75" font-family="Helvetica,sans-Serif" font-size="14.00">still asleep</text>
<polygon fill="none" stroke="#5b6b73" points="357.75,-32 357.75,-63 897.25,-63 897.25,-32 357.75,-32"/>
<text xml:space="preserve" text-anchor="start" x="394.62" y="-43.75" font-family="Helvetica,sans-Serif" font-size="14.00">interrupt or unlock path records completion; moves caller back to runnable set</text>
<polygon fill="none" stroke="#5b6b73" points="897.25,-32 897.25,-63 1208.75,-63 1208.75,-32 897.25,-32"/>
<text xml:space="preserve" text-anchor="start" x="905.25" y="-43.75" font-family="Helvetica,sans-Serif" font-size="14.00">interrupt signals I/O completion (or lock released)</text>
<polygon fill="#e6f3f9" stroke="none" points="1,-1 1,-32 127.25,-32 127.25,-1 1,-1"/>
<polygon fill="none" stroke="#5b6b73" points="1,-1 1,-32 127.25,-32 127.25,-1 1,-1"/>
<text xml:space="preserve" text-anchor="start" x="10.12" y="-11.7" font-family="Helvetica,sans-Serif" font-weight="bold" font-size="14.00">Resume + return</text>
<polygon fill="none" stroke="#5b6b73" points="127.25,-1 127.25,-32 357.75,-32 357.75,-1 127.25,-1"/>
<text xml:space="preserve" text-anchor="start" x="144.62" y="-12.75" font-family="Helvetica,sans-Serif" font-size="14.00">runs again; receives return value</text>
<polygon fill="none" stroke="#5b6b73" points="357.75,-1 357.75,-32 897.25,-32 897.25,-1 357.75,-1"/>
<text xml:space="preserve" text-anchor="start" x="447.88" y="-12.75" font-family="Helvetica,sans-Serif" font-size="14.00">finishes syscall; returns to user mode through controlled exit</text>
<polygon fill="none" stroke="#5b6b73" points="897.25,-1 897.25,-32 1208.75,-32 1208.75,-1 897.25,-1"/>
<text xml:space="preserve" text-anchor="start" x="1050.75" y="-12.75" font-family="Helvetica,sans-Serif" font-size="14.00">&#45;</text>
<polygon fill="none" stroke="#5b6b73" points="0,0 0,-188 1209.75,-188 1209.75,0 0,0"/>
</g>
</g>
</svg>
