<?xml version="1.0" encoding="UTF-8" standalone="no"?>
<!DOCTYPE svg PUBLIC "-//W3C//DTD SVG 1.1//EN"
 "http://www.w3.org/Graphics/SVG/1.1/DTD/svg11.dtd">
<!-- Generated by graphviz version 14.1.3 (20260303.0454)
 -->
<!-- Title: G Pages: 1 -->
<svg width="1355pt" height="209pt"
 viewBox="0.00 0.00 1355.00 209.00" xmlns="http://www.w3.org/2000/svg" xmlns:xlink="http://www.w3.org/1999/xlink">
<g id="graph0" class="graph" transform="scale(1 1) rotate(0) translate(18 191)">
<title>G</title>
<polygon fill="white" stroke="none" points="-18,18 -18,-191 1336.75,-191 1336.75,18 -18,18"/>
<!-- fw -->
<g id="node1" class="node">
<title>fw</title>
<path fill="#f5f5f5" stroke="#5b6b73" d="M111.25,-95C111.25,-95 12,-95 12,-95 6,-95 0,-89 0,-83 0,-83 0,-69 0,-69 0,-63 6,-57 12,-57 12,-57 111.25,-57 111.25,-57 117.25,-57 123.25,-63 123.25,-69 123.25,-69 123.25,-83 123.25,-83 123.25,-89 117.25,-95 111.25,-95"/>
<text xml:space="preserve" text-anchor="middle" x="61.62" y="-77.7" font-family="Helvetica,sans-Serif" font-size="14.00" fill="#233238">firmware</text>
<text xml:space="preserve" text-anchor="middle" x="61.62" y="-62.7" font-family="Helvetica,sans-Serif" font-size="14.00" fill="#233238">(ROM/flash code)</text>
</g>
<!-- bl -->
<g id="node2" class="node">
<title>bl</title>
<path fill="#ddeaf1" stroke="#5b6b73" d="M385,-95C385,-95 276.75,-95 276.75,-95 270.75,-95 264.75,-89 264.75,-83 264.75,-83 264.75,-69 264.75,-69 264.75,-63 270.75,-57 276.75,-57 276.75,-57 385,-57 385,-57 391,-57 397,-63 397,-69 397,-69 397,-83 397,-83 397,-89 391,-95 385,-95"/>
<text xml:space="preserve" text-anchor="middle" x="330.88" y="-77.7" font-family="Helvetica,sans-Serif" font-size="14.00" fill="#233238">bootloader</text>
<text xml:space="preserve" text-anchor="middle" x="330.88" y="-62.7" font-family="Helvetica,sans-Serif" font-size="14.00" fill="#233238">(load kernel image)</text>
</g>
<!-- fw&#45;&gt;bl -->
<g id="edge1" class="edge">
<title>fw&#45;&gt;bl</title>
<path fill="none" stroke="#5b6b73" stroke-width="1.05" d="M123.6,-76C162.78,-76 213.94,-76 255.5,-76"/>
<polygon fill="#5b6b73" stroke="#5b6b73" stroke-width="1.05" points="255.4,-78.63 262.9,-76 255.4,-73.38 255.4,-78.63"/>
<text xml:space="preserve" text-anchor="middle" x="194" y="-77.55" font-family="Helvetica,sans-Serif" font-size="11.00">first trusted code</text>
</g>
<!-- k -->
<g id="node3" class="node">
<title>k</title>
<path fill="#bfe2f1" stroke="#5b6b73" d="M656.5,-102.5C656.5,-102.5 527.25,-102.5 527.25,-102.5 521.25,-102.5 515.25,-96.5 515.25,-90.5 515.25,-90.5 515.25,-61.5 515.25,-61.5 515.25,-55.5 521.25,-49.5 527.25,-49.5 527.25,-49.5 656.5,-49.5 656.5,-49.5 662.5,-49.5 668.5,-55.5 668.5,-61.5 668.5,-61.5 668.5,-90.5 668.5,-90.5 668.5,-96.5 662.5,-102.5 656.5,-102.5"/>
<text xml:space="preserve" text-anchor="middle" x="591.88" y="-85.2" font-family="Helvetica,sans-Serif" font-size="14.00" fill="#233238">kernel</text>
<text xml:space="preserve" text-anchor="middle" x="591.88" y="-70.2" font-family="Helvetica,sans-Serif" font-size="14.00" fill="#233238">(sets up MMU, drivers,</text>
<text xml:space="preserve" text-anchor="middle" x="591.88" y="-55.2" font-family="Helvetica,sans-Serif" font-size="14.00" fill="#233238">interrupts, scheduler)</text>
</g>
<!-- bl&#45;&gt;k -->
<g id="edge2" class="edge">
<title>bl&#45;&gt;k</title>
<path fill="none" stroke="#5b6b73" stroke-width="1.05" d="M397.23,-76C430.25,-76 470.71,-76 506.09,-76"/>
<polygon fill="#5b6b73" stroke="#5b6b73" stroke-width="1.05" points="505.88,-78.63 513.38,-76 505.88,-73.38 505.88,-78.63"/>
<text xml:space="preserve" text-anchor="middle" x="456.12" y="-77.55" font-family="Helvetica,sans-Serif" font-size="11.00">load + jump</text>
</g>
<!-- init -->
<g id="node4" class="node">
<title>init</title>
<path fill="#d5edf7" stroke="#5b6b73" d="M995.5,-168C995.5,-168 874.5,-168 874.5,-168 868.5,-168 862.5,-162 862.5,-156 862.5,-156 862.5,-142 862.5,-142 862.5,-136 868.5,-130 874.5,-130 874.5,-130 995.5,-130 995.5,-130 1001.5,-130 1007.5,-136 1007.5,-142 1007.5,-142 1007.5,-156 1007.5,-156 1007.5,-162 1001.5,-168 995.5,-168"/>
<text xml:space="preserve" text-anchor="middle" x="935" y="-150.7" font-family="Helvetica,sans-Serif" font-size="14.00" fill="#233238">init / service manager</text>
<text xml:space="preserve" text-anchor="middle" x="935" y="-135.7" font-family="Helvetica,sans-Serif" font-size="14.00" fill="#233238">(first user process)</text>
</g>
<!-- k&#45;&gt;init -->
<g id="edge3" class="edge">
<title>k&#45;&gt;init</title>
<path fill="none" stroke="#5b6b73" stroke-width="1.05" d="M668.58,-92.2C723.36,-103.92 797.28,-119.74 853.19,-131.71"/>
<polygon fill="#5b6b73" stroke="#5b6b73" stroke-width="1.05" points="852.57,-134.26 860.45,-133.26 853.67,-129.12 852.57,-134.26"/>
<text xml:space="preserve" text-anchor="middle" x="740" y="-116.24" font-family="Helvetica,sans-Serif" font-size="11.00">spawn process 1</text>
</g>
<!-- auth -->
<g id="node6" class="node">
<title>auth</title>
<polygon fill="#ffffff" stroke="#9aa7ae" points="1052.5,-98 811.5,-98 811.5,0 1058.5,0 1058.5,-92 1052.5,-98"/>
<polyline fill="none" stroke="#9aa7ae" points="1052.5,-98 1052.5,-92"/>
<polyline fill="none" stroke="#9aa7ae" points="1058.5,-92 1052.5,-92"/>
<text xml:space="preserve" text-anchor="middle" x="935" y="-80.7" font-family="Helvetica,sans-Serif" font-size="14.00" fill="#233238">Authority handoff:</text>
<text xml:space="preserve" text-anchor="middle" x="935" y="-65.7" font-family="Helvetica,sans-Serif" font-size="14.00" fill="#233238">&#45; early stages run before the OS exists</text>
<text xml:space="preserve" text-anchor="middle" x="935" y="-50.7" font-family="Helvetica,sans-Serif" font-size="14.00" fill="#233238">&#45; kernel becomes resident authority</text>
<text xml:space="preserve" text-anchor="middle" x="935" y="-35.7" font-family="Helvetica,sans-Serif" font-size="14.00" fill="#233238">&#45; init orchestrates user&#45;space services</text>
<text xml:space="preserve" text-anchor="middle" x="935" y="-20.7" font-family="Helvetica,sans-Serif" font-size="14.00" fill="#233238">Each stage has different capabilities</text>
<text xml:space="preserve" text-anchor="middle" x="935" y="-5.7" font-family="Helvetica,sans-Serif" font-size="14.00" fill="#233238">and different debugging visibility.</text>
</g>
<!-- k&#45;&gt;auth -->
<g id="edge5" class="edge">
<title>k&#45;&gt;auth</title>
<path fill="none" stroke="#5b6b73" stroke-width="1.05" stroke-dasharray="1,5" d="M668.58,-70.01C710.49,-66.69 763.6,-62.49 811.28,-58.71"/>
</g>
<!-- svc -->
<g id="node5" class="node">
<title>svc</title>
<path fill="#f5f5f5" stroke="#5b6b73" d="M1306.75,-168C1306.75,-168 1200.75,-168 1200.75,-168 1194.75,-168 1188.75,-162 1188.75,-156 1188.75,-156 1188.75,-142 1188.75,-142 1188.75,-136 1194.75,-130 1200.75,-130 1200.75,-130 1306.75,-130 1306.75,-130 1312.75,-130 1318.75,-136 1318.75,-142 1318.75,-142 1318.75,-156 1318.75,-156 1318.75,-162 1312.75,-168 1306.75,-168"/>
<text xml:space="preserve" text-anchor="middle" x="1253.75" y="-150.7" font-family="Helvetica,sans-Serif" font-size="14.00" fill="#233238">services + login</text>
<text xml:space="preserve" text-anchor="middle" x="1253.75" y="-135.7" font-family="Helvetica,sans-Serif" font-size="14.00" fill="#233238">(user environment)</text>
</g>
<!-- init&#45;&gt;svc -->
<g id="edge4" class="edge">
<title>init&#45;&gt;svc</title>
<path fill="none" stroke="#5b6b73" stroke-width="1.05" d="M1007.88,-149C1059.21,-149 1128.03,-149 1179.64,-149"/>
<polygon fill="#5b6b73" stroke="#5b6b73" stroke-width="1.05" points="1179.33,-151.63 1186.83,-149 1179.33,-146.38 1179.33,-151.63"/>
<text xml:space="preserve" text-anchor="middle" x="1123.62" y="-162.55" font-family="Helvetica,sans-Serif" font-size="11.00">start daemons</text>
<text xml:space="preserve" text-anchor="middle" x="1123.62" y="-150.55" font-family="Helvetica,sans-Serif" font-size="11.00">+ sessions</text>
</g>
</g>
</svg>
