<?xml version="1.0" encoding="UTF-8" standalone="no"?>
<!DOCTYPE svg PUBLIC "-//W3C//DTD SVG 1.1//EN"
 "http://www.w3.org/Graphics/SVG/1.1/DTD/svg11.dtd">
<!-- Generated by graphviz version 14.1.3 (20260303.0454)
 -->
<!-- Title: G Pages: 1 -->
<svg width="951pt" height="415pt"
 viewBox="0.00 0.00 951.00 415.00" xmlns="http://www.w3.org/2000/svg" xmlns:xlink="http://www.w3.org/1999/xlink">
<g id="graph0" class="graph" transform="scale(1 1) rotate(0) translate(18 397)">
<title>G</title>
<polygon fill="white" stroke="none" points="-18,18 -18,-397 932.5,-397 932.5,18 -18,18"/>
<g id="clust1" class="cluster">
<title>cluster_user</title>
<path fill="#eaf6fb" stroke="#9ec9da" d="M20,-91C20,-91 236.25,-91 236.25,-91 242.25,-91 248.25,-97 248.25,-103 248.25,-103 248.25,-359 248.25,-359 248.25,-365 242.25,-371 236.25,-371 236.25,-371 20,-371 20,-371 14,-371 8,-365 8,-359 8,-359 8,-103 8,-103 8,-97 14,-91 20,-91"/>
<text xml:space="preserve" text-anchor="middle" x="128.12" y="-353.7" font-family="Times,serif" font-size="14.00">user space (names / handles)</text>
</g>
<g id="clust2" class="cluster">
<title>cluster_kernel</title>
<path fill="#eaf6fb" stroke="#9ec9da" d="M658.5,-8C658.5,-8 894.5,-8 894.5,-8 900.5,-8 906.5,-14 906.5,-20 906.5,-20 906.5,-359 906.5,-359 906.5,-365 900.5,-371 894.5,-371 894.5,-371 658.5,-371 658.5,-371 652.5,-371 646.5,-365 646.5,-359 646.5,-359 646.5,-20 646.5,-20 646.5,-14 652.5,-8 658.5,-8"/>
<text xml:space="preserve" text-anchor="middle" x="776.5" y="-353.7" font-family="Times,serif" font-size="14.00">kernel space (authoritative objects)</text>
</g>
<!-- app -->
<g id="node1" class="node">
<title>app</title>
<path fill="#f5f5f5" stroke="#5b6b73" d="M71,-237C71,-237 28,-237 28,-237 22,-237 16,-231 16,-225 16,-225 16,-213 16,-213 16,-207 22,-201 28,-201 28,-201 71,-201 71,-201 77,-201 83,-207 83,-213 83,-213 83,-225 83,-225 83,-231 77,-237 71,-237"/>
<text xml:space="preserve" text-anchor="middle" x="49.5" y="-213.2" font-family="Helvetica,sans-Serif" font-size="14.00" fill="#233238">program</text>
</g>
<!-- fd -->
<g id="node2" class="node">
<title>fd</title>
<path fill="#ddeaf1" stroke="#5b6b73" d="M204.12,-338C204.12,-338 174.12,-338 174.12,-338 168.12,-338 162.12,-332 162.12,-326 162.12,-326 162.12,-312 162.12,-312 162.12,-306 168.12,-300 174.12,-300 174.12,-300 204.12,-300 204.12,-300 210.12,-300 216.12,-306 216.12,-312 216.12,-312 216.12,-326 216.12,-326 216.12,-332 210.12,-338 204.12,-338"/>
<text xml:space="preserve" text-anchor="middle" x="189.12" y="-320.7" font-family="Helvetica,sans-Serif" font-size="14.00" fill="#233238">fd = 3</text>
<text xml:space="preserve" text-anchor="middle" x="189.12" y="-305.7" font-family="Helvetica,sans-Serif" font-size="14.00" fill="#233238">(int)</text>
</g>
<!-- app&#45;&gt;fd -->
<g id="edge1" class="edge">
<title>app&#45;&gt;fd</title>
<path fill="none" stroke="#5b6b73" stroke-width="1.05" d="M74.41,-237.31C100.32,-257.15 138,-286 138,-286 138,-286 145.32,-290.82 154.37,-296.78"/>
<polygon fill="#5b6b73" stroke="#5b6b73" stroke-width="1.05" points="152.85,-298.92 160.56,-300.85 155.74,-294.54 152.85,-298.92"/>
</g>
<!-- pid -->
<g id="node3" class="node">
<title>pid</title>
<path fill="#ddeaf1" stroke="#5b6b73" d="M217,-271C217,-271 161.25,-271 161.25,-271 155.25,-271 149.25,-265 149.25,-259 149.25,-259 149.25,-245 149.25,-245 149.25,-239 155.25,-233 161.25,-233 161.25,-233 217,-233 217,-233 223,-233 229,-239 229,-245 229,-245 229,-259 229,-259 229,-265 223,-271 217,-271"/>
<text xml:space="preserve" text-anchor="middle" x="189.12" y="-253.7" font-family="Helvetica,sans-Serif" font-size="14.00" fill="#233238">pid = 4217</text>
<text xml:space="preserve" text-anchor="middle" x="189.12" y="-238.7" font-family="Helvetica,sans-Serif" font-size="14.00" fill="#233238">(int)</text>
</g>
<!-- app&#45;&gt;pid -->
<g id="edge2" class="edge">
<title>app&#45;&gt;pid</title>
<path fill="none" stroke="#5b6b73" stroke-width="1.05" d="M83.46,-226.9C100.42,-230.97 121.41,-236 140.12,-240.49"/>
<polygon fill="#5b6b73" stroke="#5b6b73" stroke-width="1.05" points="139.37,-243.01 147.28,-242.21 140.6,-237.9 139.37,-243.01"/>
</g>
<!-- addr -->
<g id="node4" class="node">
<title>addr</title>
<path fill="#ddeaf1" stroke="#5b6b73" d="M228.25,-204C228.25,-204 150,-204 150,-204 144,-204 138,-198 138,-192 138,-192 138,-178 138,-178 138,-172 144,-166 150,-166 150,-166 228.25,-166 228.25,-166 234.25,-166 240.25,-172 240.25,-178 240.25,-178 240.25,-192 240.25,-192 240.25,-198 234.25,-204 228.25,-204"/>
<text xml:space="preserve" text-anchor="middle" x="189.12" y="-186.7" font-family="Helvetica,sans-Serif" font-size="14.00" fill="#233238">addr = 0x7f...</text>
<text xml:space="preserve" text-anchor="middle" x="189.12" y="-171.7" font-family="Helvetica,sans-Serif" font-size="14.00" fill="#233238">(pointer claim)</text>
</g>
<!-- app&#45;&gt;addr -->
<g id="edge3" class="edge">
<title>app&#45;&gt;addr</title>
<path fill="none" stroke="#5b6b73" stroke-width="1.05" d="M83.46,-210.86C97.15,-207.47 113.47,-203.44 129.09,-199.58"/>
<polygon fill="#5b6b73" stroke="#5b6b73" stroke-width="1.05" points="129.49,-202.19 136.14,-197.84 128.23,-197.09 129.49,-202.19"/>
</g>
<!-- sock -->
<g id="node5" class="node">
<title>sock</title>
<path fill="#ddeaf1" stroke="#5b6b73" d="M210.62,-137C210.62,-137 167.62,-137 167.62,-137 161.62,-137 155.62,-131 155.62,-125 155.62,-125 155.62,-111 155.62,-111 155.62,-105 161.62,-99 167.62,-99 167.62,-99 210.62,-99 210.62,-99 216.62,-99 222.62,-105 222.62,-111 222.62,-111 222.62,-125 222.62,-125 222.62,-131 216.62,-137 210.62,-137"/>
<text xml:space="preserve" text-anchor="middle" x="189.12" y="-119.7" font-family="Helvetica,sans-Serif" font-size="14.00" fill="#233238">sock = 9</text>
<text xml:space="preserve" text-anchor="middle" x="189.12" y="-104.7" font-family="Helvetica,sans-Serif" font-size="14.00" fill="#233238">(int)</text>
</g>
<!-- app&#45;&gt;sock -->
<g id="edge4" class="edge">
<title>app&#45;&gt;sock</title>
<path fill="none" stroke="#5b6b73" stroke-width="1.05" d="M74.41,-200.69C100.32,-180.85 138,-152 138,-152 138,-152 144.28,-147.74 152.4,-142.23"/>
<polygon fill="#5b6b73" stroke="#5b6b73" stroke-width="1.05" points="153.5,-144.66 158.23,-138.28 150.55,-140.31 153.5,-144.66"/>
</g>
<!-- boundary -->
<g id="node6" class="node">
<title>boundary</title>
<path fill="#d5edf7" stroke="#5b6b73" d="M494,-211.5C494,-211.5 393.25,-211.5 393.25,-211.5 387.25,-211.5 381.25,-205.5 381.25,-199.5 381.25,-199.5 381.25,-170.5 381.25,-170.5 381.25,-164.5 387.25,-158.5 393.25,-158.5 393.25,-158.5 494,-158.5 494,-158.5 500,-158.5 506,-164.5 506,-170.5 506,-170.5 506,-199.5 506,-199.5 506,-205.5 500,-211.5 494,-211.5"/>
<text xml:space="preserve" text-anchor="middle" x="443.62" y="-194.2" font-family="Helvetica,sans-Serif" font-size="14.00" fill="#233238">syscall boundary</text>
<text xml:space="preserve" text-anchor="middle" x="443.62" y="-179.2" font-family="Helvetica,sans-Serif" font-size="14.00" fill="#233238">(ABI + trap frame)</text>
<text xml:space="preserve" text-anchor="middle" x="443.62" y="-164.2" font-family="Helvetica,sans-Serif" font-size="14.00" fill="#233238">validate inputs</text>
</g>
<!-- fd&#45;&gt;boundary -->
<g id="edge5" class="edge">
<title>fd&#45;&gt;boundary</title>
<path fill="none" stroke="#5b6b73" stroke-width="1.05" d="M216.49,-307.75C262.89,-287.97 354.25,-249 354.25,-249 354.25,-249 376.23,-233.08 398.27,-217.12"/>
<polygon fill="#5b6b73" stroke="#5b6b73" stroke-width="1.05" points="399.58,-219.41 404.12,-212.89 396.5,-215.16 399.58,-219.41"/>
<text xml:space="preserve" text-anchor="middle" x="310.75" y="-287.65" font-family="Helvetica,sans-Serif" font-size="11.00">read/write/open</text>
</g>
<!-- pid&#45;&gt;boundary -->
<g id="edge6" class="edge">
<title>pid&#45;&gt;boundary</title>
<path fill="none" stroke="#5b6b73" stroke-width="1.05" d="M229.3,-241.6C267.43,-231.49 326.22,-215.89 372.43,-203.63"/>
<polygon fill="#5b6b73" stroke="#5b6b73" stroke-width="1.05" points="373.09,-206.17 379.67,-201.71 371.74,-201.09 373.09,-206.17"/>
<text xml:space="preserve" text-anchor="middle" x="310.75" y="-231.88" font-family="Helvetica,sans-Serif" font-size="11.00">wait/kill</text>
</g>
<!-- addr&#45;&gt;boundary -->
<g id="edge7" class="edge">
<title>addr&#45;&gt;boundary</title>
<path fill="none" stroke="#5b6b73" stroke-width="1.05" d="M240.62,-185C278.29,-185 330.25,-185 372.04,-185"/>
<polygon fill="#5b6b73" stroke="#5b6b73" stroke-width="1.05" points="371.98,-187.63 379.48,-185 371.98,-182.38 371.98,-187.63"/>
<text xml:space="preserve" text-anchor="middle" x="310.75" y="-186.55" font-family="Helvetica,sans-Serif" font-size="11.00">copyin/copyout</text>
</g>
<!-- sock&#45;&gt;boundary -->
<g id="edge8" class="edge">
<title>sock&#45;&gt;boundary</title>
<path fill="none" stroke="#5b6b73" stroke-width="1.05" d="M222.88,-126.69C260.51,-136.68 323.38,-153.36 372.25,-166.33"/>
<polygon fill="#5b6b73" stroke="#5b6b73" stroke-width="1.05" points="371.43,-168.82 379.35,-168.21 372.78,-163.75 371.43,-168.82"/>
<text xml:space="preserve" text-anchor="middle" x="310.75" y="-162.97" font-family="Helvetica,sans-Serif" font-size="11.00">send/recv/connect</text>
</g>
<!-- fobj -->
<g id="node7" class="node">
<title>fobj</title>
<path fill="#bfe2f1" stroke="#5b6b73" d="M841.5,-338C841.5,-338 711.5,-338 711.5,-338 705.5,-338 699.5,-332 699.5,-326 699.5,-326 699.5,-312 699.5,-312 699.5,-306 705.5,-300 711.5,-300 711.5,-300 841.5,-300 841.5,-300 847.5,-300 853.5,-306 853.5,-312 853.5,-312 853.5,-326 853.5,-326 853.5,-332 847.5,-338 841.5,-338"/>
<text xml:space="preserve" text-anchor="middle" x="776.5" y="-320.7" font-family="Helvetica,sans-Serif" font-size="14.00" fill="#233238">open file description</text>
<text xml:space="preserve" text-anchor="middle" x="776.5" y="-305.7" font-family="Helvetica,sans-Serif" font-size="14.00" fill="#233238">(offset, flags, inode ref)</text>
</g>
<!-- boundary&#45;&gt;fobj -->
<g id="edge9" class="edge">
<title>boundary&#45;&gt;fobj</title>
<path fill="none" stroke="#5b6b73" stroke-width="1.05" d="M487,-211.85C509.68,-226.22 533,-241 533,-241 533,-241 646.5,-286 646.5,-286 646.5,-286 666.43,-291.1 690.63,-297.29"/>
<polygon fill="#5b6b73" stroke="#5b6b73" stroke-width="1.05" points="689.89,-299.81 697.8,-299.12 691.19,-294.72 689.89,-299.81"/>
<text xml:space="preserve" text-anchor="middle" x="580.25" y="-280.01" font-family="Helvetica,sans-Serif" font-size="11.00">fd table lookup</text>
</g>
<!-- pobj -->
<g id="node8" class="node">
<title>pobj</title>
<path fill="#bfe2f1" stroke="#5b6b73" d="M827.25,-271C827.25,-271 725.75,-271 725.75,-271 719.75,-271 713.75,-265 713.75,-259 713.75,-259 713.75,-245 713.75,-245 713.75,-239 719.75,-233 725.75,-233 725.75,-233 827.25,-233 827.25,-233 833.25,-233 839.25,-239 839.25,-245 839.25,-245 839.25,-259 839.25,-259 839.25,-265 833.25,-271 827.25,-271"/>
<text xml:space="preserve" text-anchor="middle" x="776.5" y="-253.7" font-family="Helvetica,sans-Serif" font-size="14.00" fill="#233238">process / task</text>
<text xml:space="preserve" text-anchor="middle" x="776.5" y="-238.7" font-family="Helvetica,sans-Serif" font-size="14.00" fill="#233238">(PCB, credentials)</text>
</g>
<!-- boundary&#45;&gt;pobj -->
<g id="edge10" class="edge">
<title>boundary&#45;&gt;pobj</title>
<path fill="none" stroke="#5b6b73" stroke-width="1.05" d="M506.48,-198.3C521.34,-201.49 533,-204 533,-204 533,-204 633.2,-223.83 704.79,-238"/>
<polygon fill="#5b6b73" stroke="#5b6b73" stroke-width="1.05" points="703.94,-240.51 711.81,-239.39 704.96,-235.36 703.94,-240.51"/>
<text xml:space="preserve" text-anchor="middle" x="580.25" y="-223.84" font-family="Helvetica,sans-Serif" font-size="11.00">pid lookup</text>
</g>
<!-- vma -->
<g id="node9" class="node">
<title>vma</title>
<path fill="#bfe2f1" stroke="#5b6b73" d="M834.75,-204C834.75,-204 718.25,-204 718.25,-204 712.25,-204 706.25,-198 706.25,-192 706.25,-192 706.25,-178 706.25,-178 706.25,-172 712.25,-166 718.25,-166 718.25,-166 834.75,-166 834.75,-166 840.75,-166 846.75,-172 846.75,-178 846.75,-178 846.75,-192 846.75,-192 846.75,-198 840.75,-204 834.75,-204"/>
<text xml:space="preserve" text-anchor="middle" x="776.5" y="-186.7" font-family="Helvetica,sans-Serif" font-size="14.00" fill="#233238">VM mapping</text>
<text xml:space="preserve" text-anchor="middle" x="776.5" y="-171.7" font-family="Helvetica,sans-Serif" font-size="14.00" fill="#233238">(VMA + page tables)</text>
</g>
<!-- boundary&#45;&gt;vma -->
<g id="edge11" class="edge">
<title>boundary&#45;&gt;vma</title>
<path fill="none" stroke="#5b6b73" stroke-width="1.05" d="M506.47,-185C560.38,-185 638.84,-185 697.13,-185"/>
<polygon fill="#5b6b73" stroke="#5b6b73" stroke-width="1.05" points="696.86,-187.63 704.36,-185 696.86,-182.38 696.86,-187.63"/>
<text xml:space="preserve" text-anchor="middle" x="580.25" y="-186.55" font-family="Helvetica,sans-Serif" font-size="11.00">pointer range check</text>
</g>
<!-- sobj -->
<g id="node10" class="node">
<title>sobj</title>
<path fill="#bfe2f1" stroke="#5b6b73" d="M820.12,-137C820.12,-137 732.88,-137 732.88,-137 726.88,-137 720.88,-131 720.88,-125 720.88,-125 720.88,-111 720.88,-111 720.88,-105 726.88,-99 732.88,-99 732.88,-99 820.12,-99 820.12,-99 826.12,-99 832.12,-105 832.12,-111 832.12,-111 832.12,-125 832.12,-125 832.12,-131 826.12,-137 820.12,-137"/>
<text xml:space="preserve" text-anchor="middle" x="776.5" y="-119.7" font-family="Helvetica,sans-Serif" font-size="14.00" fill="#233238">socket endpoint</text>
<text xml:space="preserve" text-anchor="middle" x="776.5" y="-104.7" font-family="Helvetica,sans-Serif" font-size="14.00" fill="#233238">(state + buffers)</text>
</g>
<!-- boundary&#45;&gt;sobj -->
<g id="edge12" class="edge">
<title>boundary&#45;&gt;sobj</title>
<path fill="none" stroke="#5b6b73" stroke-width="1.05" d="M506.48,-171.7C521.34,-168.51 533,-166 533,-166 533,-166 640.05,-144.81 711.89,-130.59"/>
<polygon fill="#5b6b73" stroke="#5b6b73" stroke-width="1.05" points="712.07,-133.23 718.91,-129.2 711.05,-128.08 712.07,-133.23"/>
<text xml:space="preserve" text-anchor="middle" x="580.25" y="-167.55" font-family="Helvetica,sans-Serif" font-size="11.00">socket table lookup</text>
</g>
<!-- rule -->
<g id="node11" class="node">
<title>rule</title>
<polygon fill="#ffffff" stroke="#9aa7ae" points="892.5,-69.5 654.5,-69.5 654.5,-16.5 898.5,-16.5 898.5,-63.5 892.5,-69.5"/>
<polyline fill="none" stroke="#9aa7ae" points="892.5,-69.5 892.5,-63.5"/>
<polyline fill="none" stroke="#9aa7ae" points="898.5,-63.5 892.5,-63.5"/>
<text xml:space="preserve" text-anchor="middle" x="776.5" y="-52.2" font-family="Helvetica,sans-Serif" font-size="14.00" fill="#233238">kernel translates handles &#45;&gt; objects</text>
<text xml:space="preserve" text-anchor="middle" x="776.5" y="-37.2" font-family="Helvetica,sans-Serif" font-size="14.00" fill="#233238">and checks rights at commit point.</text>
<text xml:space="preserve" text-anchor="middle" x="776.5" y="-22.2" font-family="Helvetica,sans-Serif" font-size="14.00" fill="#233238">Handles are names; objects are state.</text>
</g>
<!-- boundary&#45;&gt;rule -->
<g id="edge13" class="edge">
<title>boundary&#45;&gt;rule</title>
<path fill="none" stroke="#5b6b73" stroke-width="1.05" stroke-dasharray="1,5" d="M498.83,-158.01C517.13,-148.9 533,-141 533,-141 533,-141 646.5,-85 646.5,-85 646.5,-85 667.59,-78.13 692.71,-69.96"/>
</g>
</g>
</svg>
