<?xml version="1.0" encoding="UTF-8" standalone="no"?>
<!DOCTYPE svg PUBLIC "-//W3C//DTD SVG 1.1//EN"
 "http://www.w3.org/Graphics/SVG/1.1/DTD/svg11.dtd">
<!-- Generated by graphviz version 14.1.3 (20260303.0454)
 -->
<!-- Title: G Pages: 1 -->
<svg width="1467pt" height="248pt"
 viewBox="0.00 0.00 1467.00 248.00" xmlns="http://www.w3.org/2000/svg" xmlns:xlink="http://www.w3.org/1999/xlink">
<g id="graph0" class="graph" transform="scale(1 1) rotate(0) translate(14.4 233.4)">
<title>G</title>
<polygon fill="white" stroke="none" points="-14.4,14.4 -14.4,-233.4 1452.9,-233.4 1452.9,14.4 -14.4,14.4"/>
<!-- trace -->
<g id="node1" class="node">
<title>trace</title>
<polygon fill="#f5f5f5" stroke="none" points="1,-187 1,-218 128,-218 128,-187 1,-187"/>
<polygon fill="none" stroke="#5b6b73" points="1,-187 1,-218 128,-218 128,-187 1,-187"/>
<text xml:space="preserve" text-anchor="start" x="46.12" y="-197.7" font-family="Helvetica,sans-Serif" font-weight="bold" font-size="14.00">Stage</text>
<polygon fill="#f5f5f5" stroke="none" points="128,-187 128,-218 652.5,-218 652.5,-187 128,-187"/>
<polygon fill="none" stroke="#5b6b73" points="128,-187 128,-218 652.5,-218 652.5,-187 128,-187"/>
<text xml:space="preserve" text-anchor="start" x="340.75" y="-197.7" font-family="Helvetica,sans-Serif" font-weight="bold" font-size="14.00">User + wrapper</text>
<polygon fill="#f5f5f5" stroke="none" points="652.5,-187 652.5,-218 1036,-218 1036,-187 652.5,-187"/>
<polygon fill="none" stroke="#5b6b73" points="652.5,-187 652.5,-218 1036,-218 1036,-187 652.5,-187"/>
<text xml:space="preserve" text-anchor="start" x="794" y="-197.7" font-family="Helvetica,sans-Serif" font-weight="bold" font-size="14.00">CPU / hardware</text>
<polygon fill="#f5f5f5" stroke="none" points="1036,-187 1036,-218 1437.5,-218 1437.5,-187 1036,-187"/>
<polygon fill="none" stroke="#5b6b73" points="1036,-187 1036,-218 1437.5,-218 1437.5,-187 1036,-187"/>
<text xml:space="preserve" text-anchor="start" x="1215.75" y="-197.7" font-family="Helvetica,sans-Serif" font-weight="bold" font-size="14.00">Kernel</text>
<polygon fill="#e6f3f9" stroke="none" points="1,-156 1,-187 128,-187 128,-156 1,-156"/>
<polygon fill="none" stroke="#5b6b73" points="1,-156 1,-187 128,-187 128,-156 1,-156"/>
<text xml:space="preserve" text-anchor="start" x="9" y="-166.7" font-family="Helvetica,sans-Serif" font-weight="bold" font-size="14.00">1) Package intent</text>
<polygon fill="none" stroke="#5b6b73" points="128,-156 128,-187 652.5,-187 652.5,-156 128,-156"/>
<text xml:space="preserve" text-anchor="start" x="136" y="-167.75" font-family="Helvetica,sans-Serif" font-size="14.00">place syscall number + args per ABI (often registers; sometimes pointer to arg block)</text>
<polygon fill="none" stroke="#5b6b73" points="652.5,-156 652.5,-187 1036,-187 1036,-156 652.5,-156"/>
<text xml:space="preserve" text-anchor="start" x="793.25" y="-167.75" font-family="Helvetica,sans-Serif" font-size="14.00">still in user mode</text>
<polygon fill="none" stroke="#5b6b73" points="1036,-156 1036,-187 1437.5,-187 1437.5,-156 1036,-156"/>
<text xml:space="preserve" text-anchor="start" x="1185.75" y="-167.75" font-family="Helvetica,sans-Serif" font-size="14.00">not executing yet</text>
<polygon fill="#e6f3f9" stroke="none" points="1,-125 1,-156 128,-156 128,-125 1,-125"/>
<polygon fill="none" stroke="#5b6b73" points="1,-125 1,-156 128,-156 128,-125 1,-125"/>
<text xml:space="preserve" text-anchor="start" x="17.62" y="-135.7" font-family="Helvetica,sans-Serif" font-weight="bold" font-size="14.00">2) Enter kernel</text>
<polygon fill="none" stroke="#5b6b73" points="128,-125 128,-156 652.5,-156 652.5,-125 128,-125"/>
<text xml:space="preserve" text-anchor="start" x="214.38" y="-136.75" font-family="Helvetica,sans-Serif" font-size="14.00">executes special entry instruction (`syscall`/`sysenter`/trap)</text>
<polygon fill="none" stroke="#5b6b73" points="652.5,-125 652.5,-156 1036,-156 1036,-125 652.5,-125"/>
<text xml:space="preserve" text-anchor="start" x="681.5" y="-136.75" font-family="Helvetica,sans-Serif" font-size="14.00">switches privilege to kernel mode; jumps to entry point</text>
<polygon fill="none" stroke="#5b6b73" points="1036,-125 1036,-156 1437.5,-156 1437.5,-125 1036,-125"/>
<text xml:space="preserve" text-anchor="start" x="1185" y="-136.75" font-family="Helvetica,sans-Serif" font-size="14.00">entry path begins</text>
<polygon fill="#e6f3f9" stroke="none" points="1,-94 1,-125 128,-125 128,-94 1,-94"/>
<polygon fill="none" stroke="#5b6b73" points="1,-94 1,-125 128,-125 128,-94 1,-94"/>
<text xml:space="preserve" text-anchor="start" x="23.25" y="-104.7" font-family="Helvetica,sans-Serif" font-weight="bold" font-size="14.00">3) Save state</text>
<polygon fill="none" stroke="#5b6b73" points="128,-94 128,-125 652.5,-125 652.5,-94 128,-94"/>
<text xml:space="preserve" text-anchor="start" x="305.88" y="-105.75" font-family="Helvetica,sans-Serif" font-size="14.00">caller is paused at boundary</text>
<polygon fill="none" stroke="#5b6b73" points="652.5,-94 652.5,-125 1036,-125 1036,-94 652.5,-94"/>
<text xml:space="preserve" text-anchor="start" x="669.12" y="-105.75" font-family="Helvetica,sans-Serif" font-size="14.00">saves resumable snapshot (PC/flags/regs) as a trap frame</text>
<polygon fill="none" stroke="#5b6b73" points="1036,-94 1036,-125 1437.5,-125 1437.5,-94 1036,-94"/>
<text xml:space="preserve" text-anchor="start" x="1108.12" y="-105.75" font-family="Helvetica,sans-Serif" font-size="14.00">has a durable record to resume/return later</text>
<polygon fill="#e6f3f9" stroke="none" points="1,-63 1,-94 128,-94 128,-63 1,-63"/>
<polygon fill="none" stroke="#5b6b73" points="1,-63 1,-94 128,-94 128,-63 1,-63"/>
<text xml:space="preserve" text-anchor="start" x="28.12" y="-73.7" font-family="Helvetica,sans-Serif" font-weight="bold" font-size="14.00">4) Dispatch</text>
<polygon fill="none" stroke="#5b6b73" points="128,-63 128,-94 652.5,-94 652.5,-63 128,-63"/>
<text xml:space="preserve" text-anchor="start" x="388" y="-74.75" font-family="Helvetica,sans-Serif" font-size="14.00">&#45;</text>
<polygon fill="none" stroke="#5b6b73" points="652.5,-63 652.5,-94 1036,-94 1036,-63 652.5,-63"/>
<text xml:space="preserve" text-anchor="start" x="842" y="-74.75" font-family="Helvetica,sans-Serif" font-size="14.00">&#45;</text>
<polygon fill="none" stroke="#5b6b73" points="1036,-63 1036,-94 1437.5,-94 1437.5,-63 1036,-63"/>
<text xml:space="preserve" text-anchor="start" x="1053.75" y="-74.75" font-family="Helvetica,sans-Serif" font-size="14.00">uses syscall number to select a handler; validates arguments</text>
<polygon fill="#e6f3f9" stroke="none" points="1,-32 1,-63 128,-63 128,-32 1,-32"/>
<polygon fill="none" stroke="#5b6b73" points="1,-32 1,-63 128,-63 128,-32 1,-32"/>
<text xml:space="preserve" text-anchor="start" x="30.75" y="-42.7" font-family="Helvetica,sans-Serif" font-weight="bold" font-size="14.00">5) Execute</text>
<polygon fill="none" stroke="#5b6b73" points="128,-32 128,-63 652.5,-63 652.5,-32 128,-32"/>
<text xml:space="preserve" text-anchor="start" x="388" y="-43.75" font-family="Helvetica,sans-Serif" font-size="14.00">&#45;</text>
<polygon fill="none" stroke="#5b6b73" points="652.5,-32 652.5,-63 1036,-63 1036,-32 652.5,-32"/>
<text xml:space="preserve" text-anchor="start" x="842" y="-43.75" font-family="Helvetica,sans-Serif" font-size="14.00">&#45;</text>
<polygon fill="none" stroke="#5b6b73" points="1036,-32 1036,-63 1437.5,-63 1437.5,-32 1036,-32"/>
<text xml:space="preserve" text-anchor="start" x="1044" y="-43.75" font-family="Helvetica,sans-Serif" font-size="14.00">updates authoritative state; may block, sleep, or schedule others</text>
<polygon fill="#e6f3f9" stroke="none" points="1,-1 1,-32 128,-32 128,-1 1,-1"/>
<polygon fill="none" stroke="#5b6b73" points="1,-1 1,-32 128,-32 128,-1 1,-1"/>
<text xml:space="preserve" text-anchor="start" x="34.88" y="-11.7" font-family="Helvetica,sans-Serif" font-weight="bold" font-size="14.00">6) Return</text>
<polygon fill="none" stroke="#5b6b73" points="128,-1 128,-32 652.5,-32 652.5,-1 128,-1"/>
<text xml:space="preserve" text-anchor="start" x="280.38" y="-12.75" font-family="Helvetica,sans-Serif" font-size="14.00">receives return value or error via ABI</text>
<polygon fill="none" stroke="#5b6b73" points="652.5,-1 652.5,-32 1036,-32 1036,-1 652.5,-1"/>
<text xml:space="preserve" text-anchor="start" x="660.5" y="-12.75" font-family="Helvetica,sans-Serif" font-size="14.00">restores saved state; executes controlled return to user mode</text>
<polygon fill="none" stroke="#5b6b73" points="1036,-1 1036,-32 1437.5,-32 1437.5,-1 1036,-1"/>
<text xml:space="preserve" text-anchor="start" x="1060.5" y="-12.75" font-family="Helvetica,sans-Serif" font-size="14.00">completes syscall and resumes the user instruction stream</text>
<polygon fill="none" stroke="#5b6b73" points="0,0 0,-219 1438.5,-219 1438.5,0 0,0"/>
</g>
</g>
</svg>
