<?xml version="1.0" encoding="UTF-8" standalone="no"?>
<!DOCTYPE svg PUBLIC "-//W3C//DTD SVG 1.1//EN"
 "http://www.w3.org/Graphics/SVG/1.1/DTD/svg11.dtd">
<!-- Generated by graphviz version 14.1.3 (20260303.0454)
 -->
<!-- Title: G Pages: 1 -->
<svg width="1085pt" height="186pt"
 viewBox="0.00 0.00 1085.00 186.00" xmlns="http://www.w3.org/2000/svg" xmlns:xlink="http://www.w3.org/1999/xlink">
<g id="graph0" class="graph" transform="scale(1 1) rotate(0) translate(14.4 171.4)">
<title>G</title>
<polygon fill="white" stroke="none" points="-14.4,14.4 -14.4,-171.4 1070.4,-171.4 1070.4,14.4 -14.4,14.4"/>
<!-- cmp -->
<g id="node1" class="node">
<title>cmp</title>
<polygon fill="#f5f5f5" stroke="none" points="1,-125 1,-156 151.25,-156 151.25,-125 1,-125"/>
<polygon fill="none" stroke="#5b6b73" points="1,-125 1,-156 151.25,-156 151.25,-125 1,-125"/>
<text xml:space="preserve" text-anchor="start" x="48.75" y="-135.7" font-family="Helvetica,sans-Serif" font-weight="bold" font-size="14.00">Problem</text>
<polygon fill="#f5f5f5" stroke="none" points="151.25,-125 151.25,-156 394.5,-156 394.5,-125 151.25,-125"/>
<polygon fill="none" stroke="#5b6b73" points="151.25,-125 151.25,-156 394.5,-156 394.5,-125 151.25,-125"/>
<text xml:space="preserve" text-anchor="start" x="215.12" y="-135.7" font-family="Helvetica,sans-Serif" font-weight="bold" font-size="14.00">What user passes</text>
<polygon fill="#f5f5f5" stroke="none" points="394.5,-125 394.5,-156 699.25,-156 699.25,-125 394.5,-125"/>
<polygon fill="none" stroke="#5b6b73" points="394.5,-125 394.5,-156 699.25,-156 699.25,-125 394.5,-125"/>
<text xml:space="preserve" text-anchor="start" x="511.62" y="-135.7" font-family="Helvetica,sans-Serif" font-weight="bold" font-size="14.00">Kernel rule</text>
<polygon fill="#f5f5f5" stroke="none" points="699.25,-125 699.25,-156 1055,-156 1055,-125 699.25,-125"/>
<polygon fill="none" stroke="#5b6b73" points="699.25,-125 699.25,-156 1055,-156 1055,-125 699.25,-125"/>
<text xml:space="preserve" text-anchor="start" x="839.62" y="-135.7" font-family="Helvetica,sans-Serif" font-weight="bold" font-size="14.00">Mechanism</text>
<polygon fill="#e6f3f9" stroke="none" points="1,-94 1,-125 151.25,-125 151.25,-94 1,-94"/>
<polygon fill="none" stroke="#5b6b73" points="1,-94 1,-125 151.25,-125 151.25,-94 1,-94"/>
<text xml:space="preserve" text-anchor="start" x="41.25" y="-104.7" font-family="Helvetica,sans-Serif" font-weight="bold" font-size="14.00">Read input</text>
<polygon fill="none" stroke="#5b6b73" points="151.25,-94 151.25,-125 394.5,-125 394.5,-94 151.25,-94"/>
<text xml:space="preserve" text-anchor="start" x="160" y="-105.75" font-family="Helvetica,sans-Serif" font-size="14.00">pointer + length (\&quot;my buffer is here\&quot;)</text>
<polygon fill="none" stroke="#5b6b73" points="394.5,-94 394.5,-125 699.25,-125 699.25,-94 394.5,-94"/>
<text xml:space="preserve" text-anchor="start" x="410" y="-105.75" font-family="Helvetica,sans-Serif" font-size="14.00">do not trust user pointers as kernel addresses</text>
<polygon fill="none" stroke="#5b6b73" points="699.25,-94 699.25,-125 1055,-125 1055,-94 699.25,-94"/>
<text xml:space="preserve" text-anchor="start" x="707.25" y="-105.75" font-family="Helvetica,sans-Serif" font-size="14.00">`copyin` validates range, then copies into kernel memory</text>
<polygon fill="#e6f3f9" stroke="none" points="1,-63 1,-94 151.25,-94 151.25,-63 1,-63"/>
<polygon fill="none" stroke="#5b6b73" points="1,-63 1,-94 151.25,-94 151.25,-63 1,-63"/>
<text xml:space="preserve" text-anchor="start" x="36.38" y="-73.7" font-family="Helvetica,sans-Serif" font-weight="bold" font-size="14.00">Write output</text>
<polygon fill="none" stroke="#5b6b73" points="151.25,-63 151.25,-94 394.5,-94 394.5,-63 151.25,-63"/>
<text xml:space="preserve" text-anchor="start" x="159.25" y="-74.75" font-family="Helvetica,sans-Serif" font-size="14.00">pointer + length (\&quot;write results here\&quot;)</text>
<polygon fill="none" stroke="#5b6b73" points="394.5,-63 394.5,-94 699.25,-94 699.25,-63 394.5,-63"/>
<text xml:space="preserve" text-anchor="start" x="402.5" y="-74.75" font-family="Helvetica,sans-Serif" font-size="14.00">must not write into kernel or unmapped memory</text>
<polygon fill="none" stroke="#5b6b73" points="699.25,-63 699.25,-94 1055,-94 1055,-63 699.25,-63"/>
<text xml:space="preserve" text-anchor="start" x="736.5" y="-74.75" font-family="Helvetica,sans-Serif" font-size="14.00">`copyout` validates destination, then copies out</text>
<polygon fill="#e6f3f9" stroke="none" points="1,-32 1,-63 151.25,-63 151.25,-32 1,-32"/>
<polygon fill="none" stroke="#5b6b73" points="1,-32 1,-63 151.25,-63 151.25,-32 1,-32"/>
<text xml:space="preserve" text-anchor="start" x="9" y="-42.7" font-family="Helvetica,sans-Serif" font-weight="bold" font-size="14.00">What can go wrong?</text>
<polygon fill="none" stroke="#5b6b73" points="151.25,-32 151.25,-63 1055,-63 1055,-32 151.25,-32"/>
<text xml:space="preserve" text-anchor="start" x="181.62" y="-43.75" font-family="Helvetica,sans-Serif" font-size="14.00">invalid addresses, short buffers, unmapped pages, races (TOCTTOU), and attempts to trick the kernel into reading/writing privileged memory</text>
<polygon fill="#e6f3f9" stroke="none" points="1,-1 1,-32 151.25,-32 151.25,-1 1,-1"/>
<polygon fill="none" stroke="#5b6b73" points="1,-1 1,-32 151.25,-32 151.25,-1 1,-1"/>
<text xml:space="preserve" text-anchor="start" x="28.88" y="-11.7" font-family="Helvetica,sans-Serif" font-weight="bold" font-size="14.00">Why it matters</text>
<polygon fill="none" stroke="#5b6b73" points="151.25,-1 151.25,-32 1055,-32 1055,-1 151.25,-1"/>
<text xml:space="preserve" text-anchor="start" x="252.88" y="-12.75" font-family="Helvetica,sans-Serif" font-size="14.00">argument validation is correctness + security: it prevents kernel corruption, information leaks, and privilege escalation</text>
<polygon fill="none" stroke="#5b6b73" points="0,0 0,-157 1056,-157 1056,0 0,0"/>
</g>
</g>
</svg>
