<?xml version="1.0" encoding="UTF-8" standalone="no"?>
<!DOCTYPE svg PUBLIC "-//W3C//DTD SVG 1.1//EN"
 "http://www.w3.org/Graphics/SVG/1.1/DTD/svg11.dtd">
<!-- Generated by graphviz version 14.1.3 (20260303.0454)
 -->
<!-- Title: G Pages: 1 -->
<svg width="1044pt" height="266pt"
 viewBox="0.00 0.00 1044.00 266.00" xmlns="http://www.w3.org/2000/svg" xmlns:xlink="http://www.w3.org/1999/xlink">
<g id="graph0" class="graph" transform="scale(1 1) rotate(0) translate(18 248)">
<title>G</title>
<polygon fill="white" stroke="none" points="-18,18 -18,-248 1025.5,-248 1025.5,18 -18,18"/>
<g id="clust1" class="cluster">
<title>cluster_mono</title>
<path fill="#eaf6fb" stroke="#9ec9da" d="M20,-8C20,-8 778,-8 778,-8 784,-8 790,-14 790,-20 790,-20 790,-93 790,-93 790,-99 784,-105 778,-105 778,-105 20,-105 20,-105 14,-105 8,-99 8,-93 8,-93 8,-20 8,-20 8,-14 14,-8 20,-8"/>
<text xml:space="preserve" text-anchor="middle" x="399" y="-87.7" font-family="Times,serif" font-size="14.00">monolithic: driver in kernel space</text>
</g>
<g id="clust2" class="cluster">
<title>cluster_micro</title>
<path fill="#eaf6fb" stroke="#9ec9da" d="M78.12,-113C78.12,-113 987.5,-113 987.5,-113 993.5,-113 999.5,-119 999.5,-125 999.5,-125 999.5,-210 999.5,-210 999.5,-216 993.5,-222 987.5,-222 987.5,-222 78.13,-222 78.13,-222 72.12,-222 66.12,-216 66.12,-210 66.12,-210 66.12,-125 66.12,-125 66.12,-119 72.12,-113 78.12,-113"/>
<text xml:space="preserve" text-anchor="middle" x="532.81" y="-204.7" font-family="Times,serif" font-size="14.00">microkernel&#45;style: driver as user&#45;space server</text>
</g>
<!-- k1 -->
<g id="node1" class="node">
<title>k1</title>
<path fill="#bfe2f1" stroke="#5b6b73" d="M211.25,-67C211.25,-67 28,-67 28,-67 22,-67 16,-61 16,-55 16,-55 16,-41 16,-41 16,-35 22,-29 28,-29 28,-29 211.25,-29 211.25,-29 217.25,-29 223.25,-35 223.25,-41 223.25,-41 223.25,-55 223.25,-55 223.25,-61 217.25,-67 211.25,-67"/>
<text xml:space="preserve" text-anchor="middle" x="119.62" y="-49.7" font-family="Helvetica,sans-Serif" font-size="14.00" fill="#233238">kernel address space</text>
<text xml:space="preserve" text-anchor="middle" x="119.62" y="-34.7" font-family="Helvetica,sans-Serif" font-size="14.00" fill="#233238">(scheduler, VM, VFS, net stack)</text>
</g>
<!-- d1 -->
<g id="node2" class="node">
<title>d1</title>
<path fill="#f7e9c5" stroke="#5b6b73" d="M453.88,-66C453.88,-66 377.12,-66 377.12,-66 371.12,-66 365.12,-60 365.12,-54 365.12,-54 365.12,-40 365.12,-40 365.12,-34 371.12,-28 377.12,-28 377.12,-28 453.88,-28 453.88,-28 459.88,-28 465.88,-34 465.88,-40 465.88,-40 465.88,-54 465.88,-54 465.88,-60 459.88,-66 453.88,-66"/>
<text xml:space="preserve" text-anchor="middle" x="415.5" y="-48.7" font-family="Helvetica,sans-Serif" font-size="14.00" fill="#233238">network driver</text>
<text xml:space="preserve" text-anchor="middle" x="415.5" y="-33.7" font-family="Helvetica,sans-Serif" font-size="14.00" fill="#233238">(kernel mode)</text>
</g>
<!-- k1&#45;&gt;d1 -->
<g id="edge1" class="edge">
<title>k1&#45;&gt;d1</title>
<path fill="none" stroke="#5b6b73" stroke-width="1.05" d="M223.41,-47.65C267.85,-47.5 318.22,-47.33 356.09,-47.2"/>
<polygon fill="#5b6b73" stroke="#5b6b73" stroke-width="1.05" points="355.87,-49.82 363.36,-47.17 355.85,-44.57 355.87,-49.82"/>
<text xml:space="preserve" text-anchor="middle" x="285.75" y="-61.11" font-family="Helvetica,sans-Serif" font-size="11.00">direct calls</text>
<text xml:space="preserve" text-anchor="middle" x="285.75" y="-49.11" font-family="Helvetica,sans-Serif" font-size="11.00">shared memory</text>
</g>
<!-- bug1 -->
<g id="node3" class="node">
<title>bug1</title>
<polygon fill="#ffffff" stroke="#9aa7ae" points="776,-72.5 604,-72.5 604,-19.5 782,-19.5 782,-66.5 776,-72.5"/>
<polyline fill="none" stroke="#9aa7ae" points="776,-72.5 776,-66.5"/>
<polyline fill="none" stroke="#9aa7ae" points="782,-66.5 776,-66.5"/>
<text xml:space="preserve" text-anchor="middle" x="693" y="-55.2" font-family="Helvetica,sans-Serif" font-size="14.00" fill="#233238">bug: buffer overflow</text>
<text xml:space="preserve" text-anchor="middle" x="693" y="-40.2" font-family="Helvetica,sans-Serif" font-size="14.00" fill="#233238">can corrupt kernel memory</text>
<text xml:space="preserve" text-anchor="middle" x="693" y="-25.2" font-family="Helvetica,sans-Serif" font-size="14.00" fill="#233238">wide fault scope</text>
</g>
<!-- d1&#45;&gt;bug1 -->
<g id="edge2" class="edge">
<title>d1&#45;&gt;bug1</title>
<path fill="none" stroke="#5b6b73" stroke-width="1.05" stroke-dasharray="1,5" d="M466.07,-46.82C504.26,-46.68 558.04,-46.49 603.56,-46.32"/>
</g>
<!-- k2 -->
<g id="node4" class="node">
<title>k2</title>
<path fill="#bfe2f1" stroke="#5b6b73" d="M470.75,-181.5C470.75,-181.5 360.25,-181.5 360.25,-181.5 354.25,-181.5 348.25,-175.5 348.25,-169.5 348.25,-169.5 348.25,-140.5 348.25,-140.5 348.25,-134.5 354.25,-128.5 360.25,-128.5 360.25,-128.5 470.75,-128.5 470.75,-128.5 476.75,-128.5 482.75,-134.5 482.75,-140.5 482.75,-140.5 482.75,-169.5 482.75,-169.5 482.75,-175.5 476.75,-181.5 470.75,-181.5"/>
<text xml:space="preserve" text-anchor="middle" x="415.5" y="-164.2" font-family="Helvetica,sans-Serif" font-size="14.00" fill="#233238">minimal kernel core</text>
<text xml:space="preserve" text-anchor="middle" x="415.5" y="-149.2" font-family="Helvetica,sans-Serif" font-size="14.00" fill="#233238">(IPC, scheduling,</text>
<text xml:space="preserve" text-anchor="middle" x="415.5" y="-134.2" font-family="Helvetica,sans-Serif" font-size="14.00" fill="#233238">address spaces)</text>
</g>
<!-- srv -->
<g id="node5" class="node">
<title>srv</title>
<path fill="#ddeaf1" stroke="#5b6b73" d="M752,-174C752,-174 634,-174 634,-174 628,-174 622,-168 622,-162 622,-162 622,-148 622,-148 622,-142 628,-136 634,-136 634,-136 752,-136 752,-136 758,-136 764,-142 764,-148 764,-148 764,-162 764,-162 764,-168 758,-174 752,-174"/>
<text xml:space="preserve" text-anchor="middle" x="693" y="-156.7" font-family="Helvetica,sans-Serif" font-size="14.00" fill="#233238">network driver server</text>
<text xml:space="preserve" text-anchor="middle" x="693" y="-141.7" font-family="Helvetica,sans-Serif" font-size="14.00" fill="#233238">(user space)</text>
</g>
<!-- k2&#45;&gt;srv -->
<g id="edge4" class="edge">
<title>k2&#45;&gt;srv</title>
<path fill="none" stroke="#5b6b73" stroke-width="1.05" d="M483.19,-155C522.21,-155 571.7,-155 612.71,-155"/>
<polygon fill="#5b6b73" stroke="#5b6b73" stroke-width="1.05" points="612.5,-157.63 620,-155 612.5,-152.38 612.5,-157.63"/>
<text xml:space="preserve" text-anchor="middle" x="543.38" y="-168.55" font-family="Helvetica,sans-Serif" font-size="11.00">IPC / message</text>
<text xml:space="preserve" text-anchor="middle" x="543.38" y="-156.55" font-family="Helvetica,sans-Serif" font-size="11.00">(mediated)</text>
</g>
<!-- bug2 -->
<g id="node7" class="node">
<title>bug2</title>
<polygon fill="#ffffff" stroke="#9aa7ae" points="985.5,-189 833,-189 833,-121 991.5,-121 991.5,-183 985.5,-189"/>
<polyline fill="none" stroke="#9aa7ae" points="985.5,-189 985.5,-183"/>
<polyline fill="none" stroke="#9aa7ae" points="991.5,-183 985.5,-183"/>
<text xml:space="preserve" text-anchor="middle" x="912.25" y="-171.7" font-family="Helvetica,sans-Serif" font-size="14.00" fill="#233238">bug: overflow corrupts</text>
<text xml:space="preserve" text-anchor="middle" x="912.25" y="-156.7" font-family="Helvetica,sans-Serif" font-size="14.00" fill="#233238">server process memory</text>
<text xml:space="preserve" text-anchor="middle" x="912.25" y="-141.7" font-family="Helvetica,sans-Serif" font-size="14.00" fill="#233238">kernel can stay intact</text>
<text xml:space="preserve" text-anchor="middle" x="912.25" y="-126.7" font-family="Helvetica,sans-Serif" font-size="14.00" fill="#233238">server can be restarted</text>
</g>
<!-- srv&#45;&gt;bug2 -->
<g id="edge5" class="edge">
<title>srv&#45;&gt;bug2</title>
<path fill="none" stroke="#5b6b73" stroke-width="1.05" stroke-dasharray="1,5" d="M764.23,-155C786.05,-155 810.24,-155 832.6,-155"/>
</g>
<!-- app -->
<g id="node6" class="node">
<title>app</title>
<path fill="#f5f5f5" stroke="#5b6b73" d="M153.12,-174C153.12,-174 86.12,-174 86.12,-174 80.12,-174 74.12,-168 74.12,-162 74.12,-162 74.12,-148 74.12,-148 74.12,-142 80.12,-136 86.12,-136 86.12,-136 153.12,-136 153.12,-136 159.12,-136 165.12,-142 165.12,-148 165.12,-148 165.12,-162 165.12,-162 165.12,-168 159.12,-174 153.12,-174"/>
<text xml:space="preserve" text-anchor="middle" x="119.62" y="-156.7" font-family="Helvetica,sans-Serif" font-size="14.00" fill="#233238">applications</text>
<text xml:space="preserve" text-anchor="middle" x="119.62" y="-141.7" font-family="Helvetica,sans-Serif" font-size="14.00" fill="#233238">(user space)</text>
</g>
<!-- app&#45;&gt;k2 -->
<g id="edge3" class="edge">
<title>app&#45;&gt;k2</title>
<path fill="none" stroke="#5b6b73" stroke-width="1.05" d="M165.58,-155C211.65,-155 284.12,-155 339.01,-155"/>
<polygon fill="#5b6b73" stroke="#5b6b73" stroke-width="1.05" points="338.92,-157.63 346.42,-155 338.92,-152.38 338.92,-157.63"/>
<text xml:space="preserve" text-anchor="middle" x="285.75" y="-156.55" font-family="Helvetica,sans-Serif" font-size="11.00">syscall / IPC</text>
</g>
</g>
</svg>
