<?xml version="1.0" encoding="UTF-8" standalone="no"?>
<!DOCTYPE svg PUBLIC "-//W3C//DTD SVG 1.1//EN"
 "http://www.w3.org/Graphics/SVG/1.1/DTD/svg11.dtd">
<!-- Generated by graphviz version 14.1.3 (20260303.0454)
 -->
<!-- Title: G Pages: 1 -->
<svg width="794pt" height="411pt"
 viewBox="0.00 0.00 794.00 411.00" xmlns="http://www.w3.org/2000/svg" xmlns:xlink="http://www.w3.org/1999/xlink">
<g id="graph0" class="graph" transform="scale(1 1) rotate(0) translate(18 393)">
<title>G</title>
<polygon fill="white" stroke="none" points="-18,18 -18,-393 775.5,-393 775.5,18 -18,18"/>
<g id="clust1" class="cluster">
<title>cluster_services</title>
<path fill="#eaf6fb" stroke="#9ec9da" d="M20,-14.5C20,-14.5 573,-14.5 573,-14.5 579,-14.5 585,-20.5 585,-26.5 585,-26.5 585,-81 585,-81 585,-87 579,-93 573,-93 573,-93 20,-93 20,-93 14,-93 8,-87 8,-81 8,-81 8,-26.5 8,-26.5 8,-20.5 14,-14.5 20,-14.5"/>
<text xml:space="preserve" text-anchor="middle" x="296.5" y="-75.7" font-family="Times,serif" font-size="14.00">user&#45;space services (daemons)</text>
</g>
<!-- fw -->
<g id="node1" class="node">
<title>fw</title>
<path fill="#f5f5f5" stroke="#5b6b73" d="M412.75,-375C412.75,-375 293.25,-375 293.25,-375 287.25,-375 281.25,-369 281.25,-363 281.25,-363 281.25,-351 281.25,-351 281.25,-345 287.25,-339 293.25,-339 293.25,-339 412.75,-339 412.75,-339 418.75,-339 424.75,-345 424.75,-351 424.75,-351 424.75,-363 424.75,-363 424.75,-369 418.75,-375 412.75,-375"/>
<text xml:space="preserve" text-anchor="middle" x="353" y="-351.2" font-family="Helvetica,sans-Serif" font-size="14.00" fill="#233238">firmware / bootloader</text>
</g>
<!-- kernel -->
<g id="node2" class="node">
<title>kernel</title>
<path fill="#bfe2f1" stroke="#5b6b73" d="M405.25,-279C405.25,-279 300.75,-279 300.75,-279 294.75,-279 288.75,-273 288.75,-267 288.75,-267 288.75,-253 288.75,-253 288.75,-247 294.75,-241 300.75,-241 300.75,-241 405.25,-241 405.25,-241 411.25,-241 417.25,-247 417.25,-253 417.25,-253 417.25,-267 417.25,-267 417.25,-273 411.25,-279 405.25,-279"/>
<text xml:space="preserve" text-anchor="middle" x="353" y="-261.7" font-family="Helvetica,sans-Serif" font-size="14.00" fill="#233238">kernel</text>
<text xml:space="preserve" text-anchor="middle" x="353" y="-246.7" font-family="Helvetica,sans-Serif" font-size="14.00" fill="#233238">(resident authority)</text>
</g>
<!-- fw&#45;&gt;kernel -->
<g id="edge1" class="edge">
<title>fw&#45;&gt;kernel</title>
<path fill="none" stroke="#5b6b73" stroke-width="1.05" d="M353,-338.58C353,-324.52 353,-304.48 353,-288.3"/>
<polygon fill="#5b6b73" stroke="#5b6b73" stroke-width="1.05" points="355.63,-288.37 353,-280.87 350.38,-288.37 355.63,-288.37"/>
<text xml:space="preserve" text-anchor="middle" x="386.38" y="-304.55" font-family="Helvetica,sans-Serif" font-size="11.00">loads + jumps</text>
</g>
<!-- init -->
<g id="node3" class="node">
<title>init</title>
<path fill="#d5edf7" stroke="#5b6b73" d="M419.5,-181C419.5,-181 286.5,-181 286.5,-181 280.5,-181 274.5,-175 274.5,-169 274.5,-169 274.5,-155 274.5,-155 274.5,-149 280.5,-143 286.5,-143 286.5,-143 419.5,-143 419.5,-143 425.5,-143 431.5,-149 431.5,-155 431.5,-155 431.5,-169 431.5,-169 431.5,-175 425.5,-181 419.5,-181"/>
<text xml:space="preserve" text-anchor="middle" x="353" y="-163.7" font-family="Helvetica,sans-Serif" font-size="14.00" fill="#233238">init / service manager</text>
<text xml:space="preserve" text-anchor="middle" x="353" y="-148.7" font-family="Helvetica,sans-Serif" font-size="14.00" fill="#233238">(user space supervisor)</text>
</g>
<!-- kernel&#45;&gt;init -->
<g id="edge2" class="edge">
<title>kernel&#45;&gt;init</title>
<path fill="none" stroke="#5b6b73" stroke-width="1.05" d="M353,-240.94C353,-226.69 353,-206.56 353,-190.33"/>
<polygon fill="#5b6b73" stroke="#5b6b73" stroke-width="1.05" points="355.63,-190.39 353,-182.89 350.38,-190.39 355.63,-190.39"/>
<text xml:space="preserve" text-anchor="middle" x="408.5" y="-206.55" font-family="Helvetica,sans-Serif" font-size="11.00">starts first user process</text>
</g>
<!-- net -->
<g id="node4" class="node">
<title>net</title>
<path fill="#ddeaf1" stroke="#5b6b73" d="M157.62,-60.5C157.62,-60.5 28.37,-60.5 28.37,-60.5 22.37,-60.5 16.38,-54.5 16.38,-48.5 16.38,-48.5 16.38,-34.5 16.38,-34.5 16.38,-28.5 22.38,-22.5 28.38,-22.5 28.38,-22.5 157.62,-22.5 157.62,-22.5 163.62,-22.5 169.62,-28.5 169.62,-34.5 169.62,-34.5 169.62,-48.5 169.62,-48.5 169.62,-54.5 163.62,-60.5 157.62,-60.5"/>
<text xml:space="preserve" text-anchor="middle" x="93" y="-43.2" font-family="Helvetica,sans-Serif" font-size="14.00" fill="#233238">network manager</text>
<text xml:space="preserve" text-anchor="middle" x="93" y="-28.2" font-family="Helvetica,sans-Serif" font-size="14.00" fill="#233238">(policy + orchestration)</text>
</g>
<!-- init&#45;&gt;net -->
<g id="edge3" class="edge">
<title>init&#45;&gt;net</title>
<path fill="none" stroke="#5b6b73" stroke-width="1.05" d="M274.25,-144.04C220.13,-132.38 158,-119 158,-119 158,-119 133.05,-89.64 114.07,-67.3"/>
<polygon fill="#5b6b73" stroke="#5b6b73" stroke-width="1.05" points="116.29,-65.86 109.43,-61.84 112.29,-69.26 116.29,-65.86"/>
</g>
<!-- logd -->
<g id="node5" class="node">
<title>logd</title>
<path fill="#ddeaf1" stroke="#5b6b73" d="M565.12,-60.5C565.12,-60.5 444.88,-60.5 444.88,-60.5 438.88,-60.5 432.88,-54.5 432.88,-48.5 432.88,-48.5 432.88,-34.5 432.88,-34.5 432.88,-28.5 438.88,-22.5 444.88,-22.5 444.88,-22.5 565.12,-22.5 565.12,-22.5 571.12,-22.5 577.12,-28.5 577.12,-34.5 577.12,-34.5 577.12,-48.5 577.12,-48.5 577.12,-54.5 571.12,-60.5 565.12,-60.5"/>
<text xml:space="preserve" text-anchor="middle" x="505" y="-43.2" font-family="Helvetica,sans-Serif" font-size="14.00" fill="#233238">logging daemon</text>
<text xml:space="preserve" text-anchor="middle" x="505" y="-28.2" font-family="Helvetica,sans-Serif" font-size="14.00" fill="#233238">(policy + persistence)</text>
</g>
<!-- init&#45;&gt;logd -->
<g id="edge4" class="edge">
<title>init&#45;&gt;logd</title>
<path fill="none" stroke="#5b6b73" stroke-width="1.05" d="M376.42,-142.74C402.67,-122.28 445.35,-89 474.27,-66.46"/>
<polygon fill="#5b6b73" stroke="#5b6b73" stroke-width="1.05" points="475.75,-68.63 480.05,-61.95 472.52,-64.49 475.75,-68.63"/>
</g>
<!-- time -->
<g id="node6" class="node">
<title>time</title>
<path fill="#ddeaf1" stroke="#5b6b73" d="M260.88,-60.5C260.88,-60.5 211.12,-60.5 211.12,-60.5 205.12,-60.5 199.12,-54.5 199.12,-48.5 199.12,-48.5 199.12,-34.5 199.12,-34.5 199.12,-28.5 205.12,-22.5 211.12,-22.5 211.12,-22.5 260.88,-22.5 260.88,-22.5 266.88,-22.5 272.88,-28.5 272.88,-34.5 272.88,-34.5 272.88,-48.5 272.88,-48.5 272.88,-54.5 266.88,-60.5 260.88,-60.5"/>
<text xml:space="preserve" text-anchor="middle" x="236" y="-43.2" font-family="Helvetica,sans-Serif" font-size="14.00" fill="#233238">time sync</text>
<text xml:space="preserve" text-anchor="middle" x="236" y="-28.2" font-family="Helvetica,sans-Serif" font-size="14.00" fill="#233238">(NTP)</text>
</g>
<!-- init&#45;&gt;time -->
<g id="edge5" class="edge">
<title>init&#45;&gt;time</title>
<path fill="none" stroke="#5b6b73" stroke-width="1.05" d="M334.98,-142.74C315.02,-122.54 282.75,-89.85 260.51,-67.32"/>
<polygon fill="#5b6b73" stroke="#5b6b73" stroke-width="1.05" points="262.49,-65.6 255.35,-62.1 258.76,-69.28 262.49,-65.6"/>
</g>
<!-- name -->
<g id="node7" class="node">
<title>name</title>
<path fill="#ddeaf1" stroke="#5b6b73" d="M392.12,-60.5C392.12,-60.5 313.88,-60.5 313.88,-60.5 307.88,-60.5 301.88,-54.5 301.88,-48.5 301.88,-48.5 301.88,-34.5 301.88,-34.5 301.88,-28.5 307.88,-22.5 313.88,-22.5 313.88,-22.5 392.12,-22.5 392.12,-22.5 398.12,-22.5 404.12,-28.5 404.12,-34.5 404.12,-34.5 404.12,-48.5 404.12,-48.5 404.12,-54.5 398.12,-60.5 392.12,-60.5"/>
<text xml:space="preserve" text-anchor="middle" x="353" y="-43.2" font-family="Helvetica,sans-Serif" font-size="14.00" fill="#233238">name resolver</text>
<text xml:space="preserve" text-anchor="middle" x="353" y="-28.2" font-family="Helvetica,sans-Serif" font-size="14.00" fill="#233238">(DNS cache)</text>
</g>
<!-- init&#45;&gt;name -->
<g id="edge6" class="edge">
<title>init&#45;&gt;name</title>
<path fill="none" stroke="#5b6b73" stroke-width="1.05" d="M353,-142.74C353,-123.32 353,-92.35 353,-69.98"/>
<polygon fill="#5b6b73" stroke="#5b6b73" stroke-width="1.05" points="355.63,-70.06 353,-62.56 350.38,-70.06 355.63,-70.06"/>
</g>
<!-- restart -->
<g id="node8" class="node">
<title>restart</title>
<polygon fill="#ffffff" stroke="#9aa7ae" points="751.5,-83 606.5,-83 606.5,0 757.5,0 757.5,-77 751.5,-83"/>
<polyline fill="none" stroke="#9aa7ae" points="751.5,-83 751.5,-77"/>
<polyline fill="none" stroke="#9aa7ae" points="757.5,-77 751.5,-77"/>
<text xml:space="preserve" text-anchor="middle" x="682" y="-65.7" font-family="Helvetica,sans-Serif" font-size="14.00" fill="#233238">supervision policies:</text>
<text xml:space="preserve" text-anchor="middle" x="682" y="-50.7" font-family="Helvetica,sans-Serif" font-size="14.00" fill="#233238">&#45; restart on crash</text>
<text xml:space="preserve" text-anchor="middle" x="682" y="-35.7" font-family="Helvetica,sans-Serif" font-size="14.00" fill="#233238">&#45; dependency ordering</text>
<text xml:space="preserve" text-anchor="middle" x="682" y="-20.7" font-family="Helvetica,sans-Serif" font-size="14.00" fill="#233238">&#45; resource limits</text>
<text xml:space="preserve" text-anchor="middle" x="682" y="-5.7" font-family="Helvetica,sans-Serif" font-size="14.00" fill="#233238">&#45; privilege dropping</text>
</g>
<!-- init&#45;&gt;restart -->
<g id="edge7" class="edge">
<title>init&#45;&gt;restart</title>
<path fill="none" stroke="#5b6b73" stroke-width="1.05" stroke-dasharray="1,5" d="M429.57,-142.52C476.25,-131.25 527,-119 527,-119 527,-119 592,-93 592,-93 592,-93 599.12,-89.01 609.35,-83.26"/>
</g>
<!-- net&#45;&gt;init -->
<g id="edge8" class="edge">
<title>net&#45;&gt;init</title>
<path fill="none" stroke="#9aa7ae" stroke-width="1.05" stroke-dasharray="5,2" d="M123.78,-60.82C161.79,-83.46 221.5,-119 221.5,-119 221.5,-119 254.21,-129.45 287,-139.92"/>
<polygon fill="#9aa7ae" stroke="#9aa7ae" stroke-width="1.05" points="285.87,-142.31 293.81,-142.09 287.46,-137.31 285.87,-142.31"/>
<text xml:space="preserve" text-anchor="middle" x="258.25" y="-108.55" font-family="Helvetica,sans-Serif" font-size="11.00" fill="#6d7b82">crash &#45;&gt; restart</text>
</g>
<!-- logd&#45;&gt;init -->
<g id="edge9" class="edge">
<title>logd&#45;&gt;init</title>
<path fill="none" stroke="#9aa7ae" stroke-width="1.05" stroke-dasharray="5,2" d="M488.88,-60.63C468.78,-83.25 437,-119 437,-119 437,-119 417.7,-128.65 397.6,-138.7"/>
<polygon fill="#9aa7ae" stroke="#9aa7ae" stroke-width="1.05" points="396.55,-136.29 391.02,-141.99 398.9,-140.98 396.55,-136.29"/>
<text xml:space="preserve" text-anchor="middle" x="483.62" y="-108.55" font-family="Helvetica,sans-Serif" font-size="11.00" fill="#6d7b82">crash &#45;&gt; restart</text>
</g>
</g>
</svg>
