<?xml version="1.0" encoding="UTF-8" standalone="no"?>
<!DOCTYPE svg PUBLIC "-//W3C//DTD SVG 1.1//EN"
 "http://www.w3.org/Graphics/SVG/1.1/DTD/svg11.dtd">
<!-- Generated by graphviz version 14.1.3 (20260303.0454)
 -->
<!-- Title: G Pages: 1 -->
<svg width="750pt" height="601pt"
 viewBox="0.00 0.00 750.00 601.00" xmlns="http://www.w3.org/2000/svg" xmlns:xlink="http://www.w3.org/1999/xlink">
<g id="graph0" class="graph" transform="scale(1 1) rotate(0) translate(18 583)">
<title>G</title>
<polygon fill="white" stroke="none" points="-18,18 -18,-583 731.75,-583 731.75,18 -18,18"/>
<g id="clust1" class="cluster">
<title>cluster_user</title>
<path fill="#eaf6fb" stroke="#9ec9da" d="M12,-326C12,-326 169.75,-326 169.75,-326 175.75,-326 181.75,-332 181.75,-338 181.75,-338 181.75,-545 181.75,-545 181.75,-551 175.75,-557 169.75,-557 169.75,-557 12,-557 12,-557 6,-557 0,-551 0,-545 0,-545 0,-338 0,-338 0,-332 6,-326 12,-326"/>
<text xml:space="preserve" text-anchor="middle" x="90.88" y="-539.7" font-family="Times,serif" font-size="14.00">user space (visible symptoms)</text>
</g>
<g id="clust2" class="cluster">
<title>cluster_kernel</title>
<path fill="#eaf6fb" stroke="#9ec9da" d="M282.25,-122C282.25,-122 693.75,-122 693.75,-122 699.75,-122 705.75,-128 705.75,-134 705.75,-134 705.75,-399 705.75,-399 705.75,-405 699.75,-411 693.75,-411 693.75,-411 282.25,-411 282.25,-411 276.25,-411 270.25,-405 270.25,-399 270.25,-399 270.25,-134 270.25,-134 270.25,-128 276.25,-122 282.25,-122"/>
<text xml:space="preserve" text-anchor="middle" x="488" y="-393.7" font-family="Times,serif" font-size="14.00">kernel space (authoritative state)</text>
</g>
<!-- apps -->
<g id="node1" class="node">
<title>apps</title>
<path fill="#f5f5f5" stroke="#5b6b73" d="M122,-524C122,-524 58.75,-524 58.75,-524 52.75,-524 46.75,-518 46.75,-512 46.75,-512 46.75,-500 46.75,-500 46.75,-494 52.75,-488 58.75,-488 58.75,-488 122,-488 122,-488 128,-488 134,-494 134,-500 134,-500 134,-512 134,-512 134,-518 128,-524 122,-524"/>
<text xml:space="preserve" text-anchor="middle" x="90.38" y="-500.2" font-family="Helvetica,sans-Serif" font-size="14.00" fill="#233238">applications</text>
</g>
<!-- boundary -->
<g id="node4" class="node">
<title>boundary</title>
<path fill="#bfe2f1" stroke="#5b6b73" d="M399.25,-457C399.25,-457 306.75,-457 306.75,-457 300.75,-457 294.75,-451 294.75,-445 294.75,-445 294.75,-431 294.75,-431 294.75,-425 300.75,-419 306.75,-419 306.75,-419 399.25,-419 399.25,-419 405.25,-419 411.25,-425 411.25,-431 411.25,-431 411.25,-445 411.25,-445 411.25,-451 405.25,-457 399.25,-457"/>
<text xml:space="preserve" text-anchor="middle" x="353" y="-439.7" font-family="Helvetica,sans-Serif" font-size="14.00" fill="#233238">syscall boundary</text>
<text xml:space="preserve" text-anchor="middle" x="353" y="-424.7" font-family="Helvetica,sans-Serif" font-size="14.00" fill="#233238">(natural seam)</text>
</g>
<!-- apps&#45;&gt;boundary -->
<g id="edge1" class="edge">
<title>apps&#45;&gt;boundary</title>
<path fill="none" stroke="#5b6b73" stroke-width="1.05" d="M134.41,-494.77C175.65,-484.01 238.48,-467.62 286.04,-455.21"/>
<polygon fill="#5b6b73" stroke="#5b6b73" stroke-width="1.05" points="286.6,-457.78 293.19,-453.34 285.27,-452.7 286.6,-457.78"/>
<text xml:space="preserve" text-anchor="middle" x="226" y="-477.62" font-family="Helvetica,sans-Serif" font-size="11.00">syscalls</text>
</g>
<!-- daemons -->
<g id="node2" class="node">
<title>daemons</title>
<path fill="#ddeaf1" stroke="#5b6b73" d="M144.88,-456C144.88,-456 35.88,-456 35.88,-456 29.88,-456 23.88,-450 23.88,-444 23.88,-444 23.88,-432 23.88,-432 23.88,-426 29.88,-420 35.88,-420 35.88,-420 144.88,-420 144.88,-420 150.88,-420 156.88,-426 156.88,-432 156.88,-432 156.88,-444 156.88,-444 156.88,-450 150.88,-456 144.88,-456"/>
<text xml:space="preserve" text-anchor="middle" x="90.38" y="-432.2" font-family="Helvetica,sans-Serif" font-size="14.00" fill="#233238">daemons / services</text>
</g>
<!-- daemons&#45;&gt;boundary -->
<g id="edge2" class="edge">
<title>daemons&#45;&gt;boundary</title>
<path fill="none" stroke="#5b6b73" stroke-width="1.05" d="M157.14,-438C196.54,-438 246.46,-438 285.91,-438"/>
<polygon fill="#5b6b73" stroke="#5b6b73" stroke-width="1.05" points="285.58,-440.63 293.08,-438 285.58,-435.38 285.58,-440.63"/>
<text xml:space="preserve" text-anchor="middle" x="226" y="-439.55" font-family="Helvetica,sans-Serif" font-size="11.00">syscalls</text>
</g>
<!-- tools -->
<g id="node3" class="node">
<title>tools</title>
<path fill="#d5edf7" stroke="#5b6b73" d="M141.5,-387.5C141.5,-387.5 39.25,-387.5 39.25,-387.5 33.25,-387.5 27.25,-381.5 27.25,-375.5 27.25,-375.5 27.25,-346.5 27.25,-346.5 27.25,-340.5 33.25,-334.5 39.25,-334.5 39.25,-334.5 141.5,-334.5 141.5,-334.5 147.5,-334.5 153.5,-340.5 153.5,-346.5 153.5,-346.5 153.5,-375.5 153.5,-375.5 153.5,-381.5 147.5,-387.5 141.5,-387.5"/>
<text xml:space="preserve" text-anchor="middle" x="90.38" y="-370.2" font-family="Helvetica,sans-Serif" font-size="14.00" fill="#233238">user tools</text>
<text xml:space="preserve" text-anchor="middle" x="90.38" y="-355.2" font-family="Helvetica,sans-Serif" font-size="14.00" fill="#233238">(ps/top, logs,</text>
<text xml:space="preserve" text-anchor="middle" x="90.38" y="-340.2" font-family="Helvetica,sans-Serif" font-size="14.00" fill="#233238">tracers like strace)</text>
</g>
<!-- tools&#45;&gt;boundary -->
<g id="edge3" class="edge">
<title>tools&#45;&gt;boundary</title>
<path fill="none" stroke="#5b6b73" stroke-width="1.05" d="M153.77,-378.79C197.9,-391.36 249.25,-406 249.25,-406 249.25,-406 270.25,-415 270.25,-415 270.25,-415 276.57,-416.78 285.69,-419.34"/>
<polygon fill="#5b6b73" stroke="#5b6b73" stroke-width="1.05" points="284.88,-421.84 292.81,-421.35 286.3,-416.79 284.88,-421.84"/>
<text xml:space="preserve" text-anchor="middle" x="226" y="-419.55" font-family="Helvetica,sans-Serif" font-size="11.00">observe</text>
<text xml:space="preserve" text-anchor="middle" x="226" y="-407.55" font-family="Helvetica,sans-Serif" font-size="11.00">(via APIs)</text>
</g>
<!-- sched -->
<g id="node5" class="node">
<title>sched</title>
<path fill="#ddeaf1" stroke="#5b6b73" d="M685.75,-238C685.75,-238 510.75,-238 510.75,-238 504.75,-238 498.75,-232 498.75,-226 498.75,-226 498.75,-212 498.75,-212 498.75,-206 504.75,-200 510.75,-200 510.75,-200 685.75,-200 685.75,-200 691.75,-200 697.75,-206 697.75,-212 697.75,-212 697.75,-226 697.75,-226 697.75,-232 691.75,-238 685.75,-238"/>
<text xml:space="preserve" text-anchor="middle" x="598.25" y="-220.7" font-family="Helvetica,sans-Serif" font-size="14.00" fill="#233238">scheduler state</text>
<text xml:space="preserve" text-anchor="middle" x="598.25" y="-205.7" font-family="Helvetica,sans-Serif" font-size="14.00" fill="#233238">(run queues, context switches)</text>
</g>
<!-- boundary&#45;&gt;sched -->
<g id="edge4" class="edge">
<title>boundary&#45;&gt;sched</title>
<path fill="none" stroke="#5b6b73" stroke-width="1.05" d="M411.75,-419.99C421.08,-417.08 427.75,-415 427.75,-415 427.75,-415 457.75,-334 457.75,-334 457.75,-334 486.75,-254 486.75,-254 486.75,-254 505.37,-248.1 527.32,-241.15"/>
<polygon fill="#5b6b73" stroke="#5b6b73" stroke-width="1.05" points="527.99,-243.69 534.35,-238.92 526.4,-238.69 527.99,-243.69"/>
</g>
<!-- mm -->
<g id="node6" class="node">
<title>mm</title>
<path fill="#ddeaf1" stroke="#5b6b73" d="M673.38,-168C673.38,-168 523.12,-168 523.12,-168 517.12,-168 511.12,-162 511.12,-156 511.12,-156 511.12,-142 511.12,-142 511.12,-136 517.12,-130 523.12,-130 523.12,-130 673.38,-130 673.38,-130 679.38,-130 685.38,-136 685.38,-142 685.38,-142 685.38,-156 685.38,-156 685.38,-162 679.38,-168 673.38,-168"/>
<text xml:space="preserve" text-anchor="middle" x="598.25" y="-150.7" font-family="Helvetica,sans-Serif" font-size="14.00" fill="#233238">memory state</text>
<text xml:space="preserve" text-anchor="middle" x="598.25" y="-135.7" font-family="Helvetica,sans-Serif" font-size="14.00" fill="#233238">(faults, mappings, caches)</text>
</g>
<!-- boundary&#45;&gt;mm -->
<g id="edge5" class="edge">
<title>boundary&#45;&gt;mm</title>
<path fill="none" stroke="#5b6b73" stroke-width="1.05" d="M411.75,-419.99C421.08,-417.08 427.75,-415 427.75,-415 427.75,-415 486.75,-184 486.75,-184 486.75,-184 505.37,-178.1 527.32,-171.15"/>
<polygon fill="#5b6b73" stroke="#5b6b73" stroke-width="1.05" points="527.99,-173.69 534.35,-168.92 526.4,-168.69 527.99,-173.69"/>
</g>
<!-- io -->
<g id="node7" class="node">
<title>io</title>
<path fill="#ddeaf1" stroke="#5b6b73" d="M676.75,-378C676.75,-378 519.75,-378 519.75,-378 513.75,-378 507.75,-372 507.75,-366 507.75,-366 507.75,-352 507.75,-352 507.75,-346 513.75,-340 519.75,-340 519.75,-340 676.75,-340 676.75,-340 682.75,-340 688.75,-346 688.75,-352 688.75,-352 688.75,-366 688.75,-366 688.75,-372 682.75,-378 676.75,-378"/>
<text xml:space="preserve" text-anchor="middle" x="598.25" y="-360.7" font-family="Helvetica,sans-Serif" font-size="14.00" fill="#233238">I/O state</text>
<text xml:space="preserve" text-anchor="middle" x="598.25" y="-345.7" font-family="Helvetica,sans-Serif" font-size="14.00" fill="#233238">(queues, interrupts, drivers)</text>
</g>
<!-- boundary&#45;&gt;io -->
<g id="edge6" class="edge">
<title>boundary&#45;&gt;io</title>
<path fill="none" stroke="#5b6b73" stroke-width="1.05" d="M411.64,-425.22C435.52,-419.93 457.75,-415 457.75,-415 457.75,-415 502.04,-397.22 540.7,-381.7"/>
<polygon fill="#5b6b73" stroke="#5b6b73" stroke-width="1.05" points="541.39,-384.25 547.38,-379.02 539.44,-379.38 541.39,-384.25"/>
</g>
<!-- sec -->
<g id="node8" class="node">
<title>sec</title>
<path fill="#ddeaf1" stroke="#5b6b73" d="M671.5,-308C671.5,-308 525,-308 525,-308 519,-308 513,-302 513,-296 513,-296 513,-282 513,-282 513,-276 519,-270 525,-270 525,-270 671.5,-270 671.5,-270 677.5,-270 683.5,-276 683.5,-282 683.5,-282 683.5,-296 683.5,-296 683.5,-302 677.5,-308 671.5,-308"/>
<text xml:space="preserve" text-anchor="middle" x="598.25" y="-290.7" font-family="Helvetica,sans-Serif" font-size="14.00" fill="#233238">protection state</text>
<text xml:space="preserve" text-anchor="middle" x="598.25" y="-275.7" font-family="Helvetica,sans-Serif" font-size="14.00" fill="#233238">(credentials, permissions)</text>
</g>
<!-- boundary&#45;&gt;sec -->
<g id="edge7" class="edge">
<title>boundary&#45;&gt;sec</title>
<path fill="none" stroke="#5b6b73" stroke-width="1.05" d="M411.75,-419.99C421.08,-417.08 427.75,-415 427.75,-415 427.75,-415 457.75,-375 457.75,-375 457.75,-375 486.75,-324 486.75,-324 486.75,-324 505.37,-318.1 527.32,-311.15"/>
<polygon fill="#5b6b73" stroke="#5b6b73" stroke-width="1.05" points="527.99,-313.69 534.35,-308.92 526.4,-308.69 527.99,-313.69"/>
</g>
<!-- instr -->
<g id="node9" class="node">
<title>instr</title>
<path fill="#d5edf7" stroke="#5b6b73" d="M415.75,-245.5C415.75,-245.5 290.25,-245.5 290.25,-245.5 284.25,-245.5 278.25,-239.5 278.25,-233.5 278.25,-233.5 278.25,-204.5 278.25,-204.5 278.25,-198.5 284.25,-192.5 290.25,-192.5 290.25,-192.5 415.75,-192.5 415.75,-192.5 421.75,-192.5 427.75,-198.5 427.75,-204.5 427.75,-204.5 427.75,-233.5 427.75,-233.5 427.75,-239.5 421.75,-245.5 415.75,-245.5"/>
<text xml:space="preserve" text-anchor="middle" x="353" y="-228.2" font-family="Helvetica,sans-Serif" font-size="14.00" fill="#233238">instrumentation</text>
<text xml:space="preserve" text-anchor="middle" x="353" y="-213.2" font-family="Helvetica,sans-Serif" font-size="14.00" fill="#233238">(tracepoints, counters,</text>
<text xml:space="preserve" text-anchor="middle" x="353" y="-198.2" font-family="Helvetica,sans-Serif" font-size="14.00" fill="#233238">logs)</text>
</g>
<!-- instr&#45;&gt;sched -->
<g id="edge8" class="edge">
<title>instr&#45;&gt;sched</title>
<path fill="none" stroke="#5b6b73" stroke-width="1.05" stroke-dasharray="5,2" d="M427.97,-219C450.2,-219 474.94,-219 498.5,-219"/>
</g>
<!-- instr&#45;&gt;mm -->
<g id="edge9" class="edge">
<title>instr&#45;&gt;mm</title>
<path fill="none" stroke="#5b6b73" stroke-width="1.05" stroke-dasharray="5,2" d="M427.97,-197.71C460.4,-188.38 498.2,-177.5 529.84,-168.4"/>
</g>
<!-- instr&#45;&gt;io -->
<g id="edge10" class="edge">
<title>instr&#45;&gt;io</title>
<path fill="none" stroke="#5b6b73" stroke-width="1.05" stroke-dasharray="5,2" d="M387.84,-245.77C427.17,-276.88 486.75,-324 486.75,-324 486.75,-324 510.43,-331.5 535.86,-339.56"/>
</g>
<!-- instr&#45;&gt;sec -->
<g id="edge11" class="edge">
<title>instr&#45;&gt;sec</title>
<path fill="none" stroke="#5b6b73" stroke-width="1.05" stroke-dasharray="5,2" d="M427.97,-240.29C460.4,-249.62 498.2,-260.5 529.84,-269.6"/>
</g>
<!-- note -->
<g id="node10" class="node">
<title>note</title>
<polygon fill="#ffffff" stroke="#9aa7ae" points="703.75,-98 486.75,-98 486.75,0 709.75,0 709.75,-92 703.75,-98"/>
<polyline fill="none" stroke="#9aa7ae" points="703.75,-98 703.75,-92"/>
<polyline fill="none" stroke="#9aa7ae" points="709.75,-92 703.75,-92"/>
<text xml:space="preserve" text-anchor="middle" x="598.25" y="-80.7" font-family="Helvetica,sans-Serif" font-size="14.00" fill="#233238">Rule of thumb:</text>
<text xml:space="preserve" text-anchor="middle" x="598.25" y="-65.7" font-family="Helvetica,sans-Serif" font-size="14.00" fill="#233238">Use tools that can see the layer</text>
<text xml:space="preserve" text-anchor="middle" x="598.25" y="-50.7" font-family="Helvetica,sans-Serif" font-size="14.00" fill="#233238">where the authoritative state lives.</text>
<text xml:space="preserve" text-anchor="middle" x="598.25" y="-35.7" font-family="Helvetica,sans-Serif" font-size="14.00" fill="#233238">Symptoms show up in user space,</text>
<text xml:space="preserve" text-anchor="middle" x="598.25" y="-20.7" font-family="Helvetica,sans-Serif" font-size="14.00" fill="#233238">but root causes often live in kernel</text>
<text xml:space="preserve" text-anchor="middle" x="598.25" y="-5.7" font-family="Helvetica,sans-Serif" font-size="14.00" fill="#233238">queues, mappings, and drivers.</text>
</g>
<!-- instr&#45;&gt;note -->
<g id="edge12" class="edge">
<title>instr&#45;&gt;note</title>
<path fill="none" stroke="#5b6b73" stroke-width="1.05" stroke-dasharray="1,5" d="M387.84,-192.23C427.17,-161.12 486.75,-114 486.75,-114 486.75,-114 497.95,-107.41 513.22,-98.43"/>
</g>
</g>
</svg>
