<?xml version="1.0" encoding="UTF-8" standalone="no"?>
<!DOCTYPE svg PUBLIC "-//W3C//DTD SVG 1.1//EN"
 "http://www.w3.org/Graphics/SVG/1.1/DTD/svg11.dtd">
<!-- Generated by graphviz version 14.1.3 (20260303.0454)
 -->
<!-- Title: G Pages: 1 -->
<svg width="1111pt" height="281pt"
 viewBox="0.00 0.00 1111.00 281.00" xmlns="http://www.w3.org/2000/svg" xmlns:xlink="http://www.w3.org/1999/xlink">
<g id="graph0" class="graph" transform="scale(1 1) rotate(0) translate(18 263)">
<title>G</title>
<polygon fill="white" stroke="none" points="-18,18 -18,-263 1093,-263 1093,18 -18,18"/>
<g id="clust1" class="cluster">
<title>cluster_interface</title>
<path fill="#eaf6fb" stroke="#9ec9da" d="M12,-32C12,-32 217.75,-32 217.75,-32 223.75,-32 229.75,-38 229.75,-44 229.75,-44 229.75,-225 229.75,-225 229.75,-231 223.75,-237 217.75,-237 217.75,-237 12,-237 12,-237 6,-237 0,-231 0,-225 0,-225 0,-44 0,-44 0,-38 6,-32 12,-32"/>
<text xml:space="preserve" text-anchor="middle" x="114.88" y="-219.7" font-family="Times,serif" font-size="14.00">interfaces (how requests are expressed)</text>
</g>
<g id="clust2" class="cluster">
<title>cluster_service</title>
<path fill="#eaf6fb" stroke="#9ec9da" d="M902.25,-8C902.25,-8 1063,-8 1063,-8 1069,-8 1075,-14 1075,-20 1075,-20 1075,-75 1075,-75 1075,-81 1069,-87 1063,-87 1063,-87 902.25,-87 902.25,-87 896.25,-87 890.25,-81 890.25,-75 890.25,-75 890.25,-20 890.25,-20 890.25,-14 896.25,-8 902.25,-8"/>
<text xml:space="preserve" text-anchor="middle" x="982.62" y="-69.7" font-family="Times,serif" font-size="14.00">service (what capability exists)</text>
</g>
<g id="clust3" class="cluster">
<title>cluster_impl</title>
<path fill="#eaf6fb" stroke="#9ec9da" d="M308.5,-95C308.5,-95 1041.62,-95 1041.62,-95 1047.62,-95 1053.62,-101 1053.62,-107 1053.62,-107 1053.62,-225 1053.62,-225 1053.62,-231 1047.62,-237 1041.62,-237 1041.62,-237 308.5,-237 308.5,-237 302.5,-237 296.5,-231 296.5,-225 296.5,-225 296.5,-107 296.5,-107 296.5,-101 302.5,-95 308.5,-95"/>
<text xml:space="preserve" text-anchor="middle" x="675.06" y="-219.7" font-family="Times,serif" font-size="14.00">implementation (what code actually runs)</text>
</g>
<!-- gui -->
<g id="node1" class="node">
<title>gui</title>
<path fill="#f5f5f5" stroke="#5b6b73" d="M142.62,-78C142.62,-78 86.12,-78 86.12,-78 80.12,-78 74.12,-72 74.12,-66 74.12,-66 74.12,-52 74.12,-52 74.12,-46 80.12,-40 86.12,-40 86.12,-40 142.62,-40 142.62,-40 148.62,-40 154.62,-46 154.62,-52 154.62,-52 154.62,-66 154.62,-66 154.62,-72 148.62,-78 142.62,-78"/>
<text xml:space="preserve" text-anchor="middle" x="114.38" y="-60.7" font-family="Helvetica,sans-Serif" font-size="14.00" fill="#233238">GUI action</text>
<text xml:space="preserve" text-anchor="middle" x="114.38" y="-45.7" font-family="Helvetica,sans-Serif" font-size="14.00" fill="#233238">&quot;delete&quot;</text>
</g>
<!-- svc -->
<g id="node4" class="node">
<title>svc</title>
<path fill="#ddeaf1" stroke="#5b6b73" d="M1012.25,-54C1012.25,-54 952,-54 952,-54 946,-54 940,-48 940,-42 940,-42 940,-28 940,-28 940,-22 946,-16 952,-16 952,-16 1012.25,-16 1012.25,-16 1018.25,-16 1024.25,-22 1024.25,-28 1024.25,-28 1024.25,-42 1024.25,-42 1024.25,-48 1018.25,-54 1012.25,-54"/>
<text xml:space="preserve" text-anchor="middle" x="982.12" y="-36.7" font-family="Helvetica,sans-Serif" font-size="14.00" fill="#233238">file deletion</text>
<text xml:space="preserve" text-anchor="middle" x="982.12" y="-21.7" font-family="Helvetica,sans-Serif" font-size="14.00" fill="#233238">service</text>
</g>
<!-- gui&#45;&gt;svc -->
<g id="edge1" class="edge">
<title>gui&#45;&gt;svc</title>
<path fill="none" stroke="#5b6b73" stroke-width="1.05" d="M154.84,-55.66C227.54,-49.5 375.25,-37 375.25,-37 375.25,-37 375.25,-37 752.12,-37 752.12,-37 863.44,-36.03 930.85,-35.44"/>
<polygon fill="#5b6b73" stroke="#5b6b73" stroke-width="1.05" points="930.59,-38.07 938.07,-35.38 930.54,-32.82 930.59,-38.07"/>
<text xml:space="preserve" text-anchor="middle" x="567.25" y="-38.55" font-family="Helvetica,sans-Serif" font-size="11.00">expresses intent</text>
</g>
<!-- cli -->
<g id="node2" class="node">
<title>cli</title>
<path fill="#f5f5f5" stroke="#5b6b73" d="M153.12,-204C153.12,-204 75.62,-204 75.62,-204 69.62,-204 63.62,-198 63.62,-192 63.62,-192 63.62,-178 63.62,-178 63.62,-172 69.62,-166 75.62,-166 75.62,-166 153.12,-166 153.12,-166 159.12,-166 165.12,-172 165.12,-178 165.12,-178 165.12,-192 165.12,-192 165.12,-198 159.12,-204 153.12,-204"/>
<text xml:space="preserve" text-anchor="middle" x="114.38" y="-186.7" font-family="Helvetica,sans-Serif" font-size="14.00" fill="#233238">CLI command</text>
<text xml:space="preserve" text-anchor="middle" x="114.38" y="-171.7" font-family="Helvetica,sans-Serif" font-size="14.00" fill="#233238">`rm file`</text>
</g>
<!-- util -->
<g id="node5" class="node">
<title>util</title>
<path fill="#d5edf7" stroke="#5b6b73" d="M421.38,-204C421.38,-204 331.12,-204 331.12,-204 325.12,-204 319.12,-198 319.12,-192 319.12,-192 319.12,-178 319.12,-178 319.12,-172 325.12,-166 331.12,-166 331.12,-166 421.38,-166 421.38,-166 427.38,-166 433.38,-172 433.38,-178 433.38,-178 433.38,-192 433.38,-192 433.38,-198 427.38,-204 421.38,-204"/>
<text xml:space="preserve" text-anchor="middle" x="376.25" y="-186.7" font-family="Helvetica,sans-Serif" font-size="14.00" fill="#233238">system program</text>
<text xml:space="preserve" text-anchor="middle" x="376.25" y="-171.7" font-family="Helvetica,sans-Serif" font-size="14.00" fill="#233238">`rm` utility</text>
</g>
<!-- cli&#45;&gt;util -->
<g id="edge2" class="edge">
<title>cli&#45;&gt;util</title>
<path fill="none" stroke="#5b6b73" stroke-width="1.05" d="M165.48,-185C206.6,-185 265.14,-185 309.93,-185"/>
<polygon fill="#5b6b73" stroke="#5b6b73" stroke-width="1.05" points="309.89,-187.63 317.39,-185 309.89,-182.38 309.89,-187.63"/>
<text xml:space="preserve" text-anchor="middle" x="263.12" y="-186.55" font-family="Helvetica,sans-Serif" font-size="11.00">launches</text>
</g>
<!-- api -->
<g id="node3" class="node">
<title>api</title>
<path fill="#f5f5f5" stroke="#5b6b73" d="M150.12,-141C150.12,-141 78.62,-141 78.62,-141 72.62,-141 66.62,-135 66.62,-129 66.62,-129 66.62,-115 66.62,-115 66.62,-109 72.62,-103 78.62,-103 78.62,-103 150.12,-103 150.12,-103 156.12,-103 162.12,-109 162.12,-115 162.12,-115 162.12,-129 162.12,-129 162.12,-135 156.12,-141 150.12,-141"/>
<text xml:space="preserve" text-anchor="middle" x="114.38" y="-123.7" font-family="Helvetica,sans-Serif" font-size="14.00" fill="#233238">API call</text>
<text xml:space="preserve" text-anchor="middle" x="114.38" y="-108.7" font-family="Helvetica,sans-Serif" font-size="14.00" fill="#233238">`unlink(path)`</text>
</g>
<!-- wrapper -->
<g id="node6" class="node">
<title>wrapper</title>
<path fill="#d5edf7" stroke="#5b6b73" d="M436,-141C436,-141 316.5,-141 316.5,-141 310.5,-141 304.5,-135 304.5,-129 304.5,-129 304.5,-115 304.5,-115 304.5,-109 310.5,-103 316.5,-103 316.5,-103 436,-103 436,-103 442,-103 448,-109 448,-115 448,-115 448,-129 448,-129 448,-135 442,-141 436,-141"/>
<text xml:space="preserve" text-anchor="middle" x="376.25" y="-123.7" font-family="Helvetica,sans-Serif" font-size="14.00" fill="#233238">library wrapper</text>
<text xml:space="preserve" text-anchor="middle" x="376.25" y="-108.7" font-family="Helvetica,sans-Serif" font-size="14.00" fill="#233238">packages syscall ABI</text>
</g>
<!-- api&#45;&gt;wrapper -->
<g id="edge3" class="edge">
<title>api&#45;&gt;wrapper</title>
<path fill="none" stroke="#5b6b73" stroke-width="1.05" d="M162.44,-122C199.38,-122 251.67,-122 295.17,-122"/>
<polygon fill="#5b6b73" stroke="#5b6b73" stroke-width="1.05" points="294.94,-124.63 302.44,-122 294.94,-119.38 294.94,-124.63"/>
<text xml:space="preserve" text-anchor="middle" x="263.12" y="-123.55" font-family="Helvetica,sans-Serif" font-size="11.00">calls</text>
</g>
<!-- sys -->
<g id="node7" class="node">
<title>sys</title>
<path fill="#bfe2f1" stroke="#5b6b73" d="M598.5,-147C598.5,-147 536,-147 536,-147 530,-147 524,-141 524,-135 524,-135 524,-121 524,-121 524,-115 530,-109 536,-109 536,-109 598.5,-109 598.5,-109 604.5,-109 610.5,-115 610.5,-121 610.5,-121 610.5,-135 610.5,-135 610.5,-141 604.5,-147 598.5,-147"/>
<text xml:space="preserve" text-anchor="middle" x="567.25" y="-129.7" font-family="Helvetica,sans-Serif" font-size="14.00" fill="#233238">system call</text>
<text xml:space="preserve" text-anchor="middle" x="567.25" y="-114.7" font-family="Helvetica,sans-Serif" font-size="14.00" fill="#233238">kernel entry</text>
</g>
<!-- util&#45;&gt;sys -->
<g id="edge4" class="edge">
<title>util&#45;&gt;sys</title>
<path fill="none" stroke="#5b6b73" stroke-width="1.05" d="M433.7,-167.98C459.49,-160.2 489.81,-151.05 514.94,-143.48"/>
<polygon fill="#5b6b73" stroke="#5b6b73" stroke-width="1.05" points="515.65,-146 522.07,-141.32 514.13,-140.98 515.65,-146"/>
<text xml:space="preserve" text-anchor="middle" x="486" y="-158.05" font-family="Helvetica,sans-Serif" font-size="11.00">invokes</text>
</g>
<!-- wrapper&#45;&gt;sys -->
<g id="edge5" class="edge">
<title>wrapper&#45;&gt;sys</title>
<path fill="none" stroke="#5b6b73" stroke-width="1.05" d="M448.43,-124.26C470.49,-124.96 494.36,-125.72 514.81,-126.37"/>
<polygon fill="#5b6b73" stroke="#5b6b73" stroke-width="1.05" points="514.47,-128.98 522.05,-126.6 514.64,-123.74 514.47,-128.98"/>
<text xml:space="preserve" text-anchor="middle" x="486" y="-127.44" font-family="Helvetica,sans-Serif" font-size="11.00">invokes</text>
</g>
<!-- vfs -->
<g id="node8" class="node">
<title>vfs</title>
<path fill="#bfe2f1" stroke="#5b6b73" d="M800,-147C800,-147 702.25,-147 702.25,-147 696.25,-147 690.25,-141 690.25,-135 690.25,-135 690.25,-121 690.25,-121 690.25,-115 696.25,-109 702.25,-109 702.25,-109 800,-109 800,-109 806,-109 812,-115 812,-121 812,-121 812,-135 812,-135 812,-141 806,-147 800,-147"/>
<text xml:space="preserve" text-anchor="middle" x="751.12" y="-129.7" font-family="Helvetica,sans-Serif" font-size="14.00" fill="#233238">kernel file&#45;system</text>
<text xml:space="preserve" text-anchor="middle" x="751.12" y="-114.7" font-family="Helvetica,sans-Serif" font-size="14.00" fill="#233238">code paths</text>
</g>
<!-- sys&#45;&gt;vfs -->
<g id="edge6" class="edge">
<title>sys&#45;&gt;vfs</title>
<path fill="none" stroke="#5b6b73" stroke-width="1.05" d="M610.89,-128C631.75,-128 657.37,-128 680.93,-128"/>
<polygon fill="#5b6b73" stroke="#5b6b73" stroke-width="1.05" points="680.76,-130.63 688.26,-128 680.76,-125.38 680.76,-130.63"/>
<text xml:space="preserve" text-anchor="middle" x="650.38" y="-129.55" font-family="Helvetica,sans-Serif" font-size="11.00">dispatch</text>
</g>
<!-- vfs&#45;&gt;svc -->
<g id="edge8" class="edge">
<title>vfs&#45;&gt;svc</title>
<path fill="none" stroke="#5b6b73" stroke-width="1.05" d="M800.13,-108.5C838.7,-92.84 892.67,-70.92 931.63,-55.1"/>
<polygon fill="#5b6b73" stroke="#5b6b73" stroke-width="1.05" points="932.27,-57.67 938.24,-52.42 930.3,-52.81 932.27,-57.67"/>
<text xml:space="preserve" text-anchor="middle" x="851.12" y="-96.81" font-family="Helvetica,sans-Serif" font-size="11.00">realizes</text>
</g>
<!-- disk -->
<g id="node9" class="node">
<title>disk</title>
<path fill="#f5f5f5" stroke="#5b6b73" d="M1033.62,-147C1033.62,-147 930.62,-147 930.62,-147 924.62,-147 918.62,-141 918.62,-135 918.62,-135 918.62,-121 918.62,-121 918.62,-115 924.62,-109 930.62,-109 930.62,-109 1033.62,-109 1033.62,-109 1039.62,-109 1045.62,-115 1045.62,-121 1045.62,-121 1045.62,-135 1045.62,-135 1045.62,-141 1039.62,-147 1033.62,-147"/>
<text xml:space="preserve" text-anchor="middle" x="982.12" y="-129.7" font-family="Helvetica,sans-Serif" font-size="14.00" fill="#233238">storage update</text>
<text xml:space="preserve" text-anchor="middle" x="982.12" y="-114.7" font-family="Helvetica,sans-Serif" font-size="14.00" fill="#233238">metadata + blocks</text>
</g>
<!-- vfs&#45;&gt;disk -->
<g id="edge7" class="edge">
<title>vfs&#45;&gt;disk</title>
<path fill="none" stroke="#5b6b73" stroke-width="1.05" d="M812.29,-128C841.96,-128 877.97,-128 909.1,-128"/>
<polygon fill="#5b6b73" stroke="#5b6b73" stroke-width="1.05" points="909.07,-130.63 916.57,-128 909.07,-125.38 909.07,-130.63"/>
<text xml:space="preserve" text-anchor="middle" x="851.12" y="-129.55" font-family="Helvetica,sans-Serif" font-size="11.00">updates</text>
</g>
</g>
</svg>
