<?xml version="1.0" encoding="UTF-8" standalone="no"?>
<!DOCTYPE svg PUBLIC "-//W3C//DTD SVG 1.1//EN"
 "http://www.w3.org/Graphics/SVG/1.1/DTD/svg11.dtd">
<!-- Generated by graphviz version 14.1.3 (20260303.0454)
 -->
<!-- Title: G Pages: 1 -->
<svg width="1259pt" height="186pt"
 viewBox="0.00 0.00 1259.00 186.00" xmlns="http://www.w3.org/2000/svg" xmlns:xlink="http://www.w3.org/1999/xlink">
<g id="graph0" class="graph" transform="scale(1 1) rotate(0) translate(14.4 171.4)">
<title>G</title>
<polygon fill="white" stroke="none" points="-14.4,14.4 -14.4,-171.4 1244.65,-171.4 1244.65,14.4 -14.4,14.4"/>
<!-- cmp -->
<g id="node1" class="node">
<title>cmp</title>
<polygon fill="#f5f5f5" stroke="none" points="1,-125 1,-156 186.5,-156 186.5,-125 1,-125"/>
<polygon fill="none" stroke="#5b6b73" points="1,-125 1,-156 186.5,-156 186.5,-125 1,-125"/>
<text xml:space="preserve" text-anchor="start" x="64.12" y="-135.7" font-family="Helvetica,sans-Serif" font-weight="bold" font-size="14.00">Question</text>
<polygon fill="#f5f5f5" stroke="none" points="186.5,-125 186.5,-156 380.25,-156 380.25,-125 186.5,-125"/>
<polygon fill="none" stroke="#5b6b73" points="186.5,-125 186.5,-156 380.25,-156 380.25,-125 186.5,-125"/>
<text xml:space="preserve" text-anchor="start" x="249.25" y="-135.7" font-family="Helvetica,sans-Serif" font-weight="bold" font-size="14.00">Monolithic</text>
<polygon fill="#f5f5f5" stroke="none" points="380.25,-125 380.25,-156 660.25,-156 660.25,-125 380.25,-125"/>
<polygon fill="none" stroke="#5b6b73" points="380.25,-125 380.25,-156 660.25,-156 660.25,-125 380.25,-125"/>
<text xml:space="preserve" text-anchor="start" x="494.38" y="-135.7" font-family="Helvetica,sans-Serif" font-weight="bold" font-size="14.00">Layered</text>
<polygon fill="#f5f5f5" stroke="none" points="660.25,-125 660.25,-156 938,-156 938,-125 660.25,-125"/>
<polygon fill="none" stroke="#5b6b73" points="660.25,-125 660.25,-156 938,-156 938,-125 660.25,-125"/>
<text xml:space="preserve" text-anchor="start" x="760.88" y="-135.7" font-family="Helvetica,sans-Serif" font-weight="bold" font-size="14.00">Microkernel</text>
<polygon fill="#f5f5f5" stroke="none" points="938,-125 938,-156 1229.25,-156 1229.25,-125 938,-125"/>
<polygon fill="none" stroke="#5b6b73" points="938,-125 938,-156 1229.25,-156 1229.25,-125 938,-125"/>
<text xml:space="preserve" text-anchor="start" x="1030" y="-135.7" font-family="Helvetica,sans-Serif" font-weight="bold" font-size="14.00">Modular / Hybrid</text>
<polygon fill="#e6f3f9" stroke="none" points="1,-94 1,-125 186.5,-125 186.5,-94 1,-94"/>
<polygon fill="none" stroke="#5b6b73" points="1,-94 1,-125 186.5,-125 186.5,-94 1,-94"/>
<text xml:space="preserve" text-anchor="start" x="20.62" y="-104.7" font-family="Helvetica,sans-Serif" font-weight="bold" font-size="14.00">Where does code run?</text>
<polygon fill="none" stroke="#5b6b73" points="186.5,-94 186.5,-125 380.25,-125 380.25,-94 186.5,-94"/>
<text xml:space="preserve" text-anchor="start" x="194.5" y="-105.75" font-family="Helvetica,sans-Serif" font-size="14.00">most services in kernel space</text>
<polygon fill="none" stroke="#5b6b73" points="380.25,-94 380.25,-125 660.25,-125 660.25,-94 380.25,-94"/>
<text xml:space="preserve" text-anchor="start" x="428.75" y="-105.75" font-family="Helvetica,sans-Serif" font-size="14.00">services split into kernel layers</text>
<polygon fill="none" stroke="#5b6b73" points="660.25,-94 660.25,-125 938,-125 938,-94 660.25,-94"/>
<text xml:space="preserve" text-anchor="start" x="668.25" y="-105.75" font-family="Helvetica,sans-Serif" font-size="14.00">minimal kernel; many servers in user space</text>
<polygon fill="none" stroke="#5b6b73" points="938,-94 938,-125 1229.25,-125 1229.25,-94 938,-94"/>
<text xml:space="preserve" text-anchor="start" x="958.38" y="-105.75" font-family="Helvetica,sans-Serif" font-size="14.00">kernel core + loadable privileged modules</text>
<polygon fill="#e6f3f9" stroke="none" points="1,-63 1,-94 186.5,-94 186.5,-63 1,-63"/>
<polygon fill="none" stroke="#5b6b73" points="1,-63 1,-94 186.5,-94 186.5,-63 1,-63"/>
<text xml:space="preserve" text-anchor="start" x="9" y="-73.7" font-family="Helvetica,sans-Serif" font-weight="bold" font-size="14.00">How do components talk?</text>
<polygon fill="none" stroke="#5b6b73" points="186.5,-63 186.5,-94 380.25,-94 380.25,-63 186.5,-63"/>
<text xml:space="preserve" text-anchor="start" x="211.75" y="-74.75" font-family="Helvetica,sans-Serif" font-size="14.00">direct calls inside kernel</text>
<polygon fill="none" stroke="#5b6b73" points="380.25,-63 380.25,-94 660.25,-94 660.25,-63 380.25,-63"/>
<text xml:space="preserve" text-anchor="start" x="434.75" y="-74.75" font-family="Helvetica,sans-Serif" font-size="14.00">calls descend through layers</text>
<polygon fill="none" stroke="#5b6b73" points="660.25,-63 660.25,-94 938,-94 938,-63 660.25,-63"/>
<text xml:space="preserve" text-anchor="start" x="688.88" y="-74.75" font-family="Helvetica,sans-Serif" font-size="14.00">message passing + context switches</text>
<polygon fill="none" stroke="#5b6b73" points="938,-63 938,-94 1229.25,-94 1229.25,-63 938,-63"/>
<text xml:space="preserve" text-anchor="start" x="950.12" y="-74.75" font-family="Helvetica,sans-Serif" font-size="14.00">direct calls (modules) + selective boundaries</text>
<polygon fill="#e6f3f9" stroke="none" points="1,-32 1,-63 186.5,-63 186.5,-32 1,-32"/>
<polygon fill="none" stroke="#5b6b73" points="1,-32 1,-63 186.5,-63 186.5,-32 1,-32"/>
<text xml:space="preserve" text-anchor="start" x="42.75" y="-42.7" font-family="Helvetica,sans-Serif" font-weight="bold" font-size="14.00">Main advantage</text>
<polygon fill="none" stroke="#5b6b73" points="186.5,-32 186.5,-63 380.25,-63 380.25,-32 186.5,-32"/>
<text xml:space="preserve" text-anchor="start" x="243.25" y="-43.75" font-family="Helvetica,sans-Serif" font-size="14.00">low overhead</text>
<polygon fill="none" stroke="#5b6b73" points="380.25,-32 380.25,-63 660.25,-63 660.25,-32 380.25,-32"/>
<text xml:space="preserve" text-anchor="start" x="451.25" y="-43.75" font-family="Helvetica,sans-Serif" font-size="14.00">reasoning + separation</text>
<polygon fill="none" stroke="#5b6b73" points="660.25,-32 660.25,-63 938,-63 938,-32 660.25,-32"/>
<text xml:space="preserve" text-anchor="start" x="712.5" y="-43.75" font-family="Helvetica,sans-Serif" font-size="14.00">fault isolation + replaceability</text>
<polygon fill="none" stroke="#5b6b73" points="938,-32 938,-63 1229.25,-63 1229.25,-32 938,-32"/>
<text xml:space="preserve" text-anchor="start" x="974.12" y="-43.75" font-family="Helvetica,sans-Serif" font-size="14.00">extensibility with strong performance</text>
<polygon fill="#e6f3f9" stroke="none" points="1,-1 1,-32 186.5,-32 186.5,-1 1,-1"/>
<polygon fill="none" stroke="#5b6b73" points="1,-1 1,-32 186.5,-32 186.5,-1 1,-1"/>
<text xml:space="preserve" text-anchor="start" x="62.25" y="-11.7" font-family="Helvetica,sans-Serif" font-weight="bold" font-size="14.00">Main cost</text>
<polygon fill="none" stroke="#5b6b73" points="186.5,-1 186.5,-32 380.25,-32 380.25,-1 186.5,-1"/>
<text xml:space="preserve" text-anchor="start" x="203.12" y="-12.75" font-family="Helvetica,sans-Serif" font-size="14.00">large privileged fault scope</text>
<polygon fill="none" stroke="#5b6b73" points="380.25,-1 380.25,-32 660.25,-32 660.25,-1 380.25,-1"/>
<text xml:space="preserve" text-anchor="start" x="388.25" y="-12.75" font-family="Helvetica,sans-Serif" font-size="14.00">layering overhead + awkward dependencies</text>
<polygon fill="none" stroke="#5b6b73" points="660.25,-1 660.25,-32 938,-32 938,-1 660.25,-1"/>
<text xml:space="preserve" text-anchor="start" x="722.25" y="-12.75" font-family="Helvetica,sans-Serif" font-size="14.00">IPC + switching overhead</text>
<polygon fill="none" stroke="#5b6b73" points="938,-1 938,-32 1229.25,-32 1229.25,-1 938,-1"/>
<text xml:space="preserve" text-anchor="start" x="946" y="-12.75" font-family="Helvetica,sans-Serif" font-size="14.00">module bugs still privileged; mixed complexity</text>
<polygon fill="none" stroke="#5b6b73" points="0,0 0,-157 1230.25,-157 1230.25,0 0,0"/>
</g>
</g>
</svg>
