<?xml version="1.0" encoding="UTF-8" standalone="no"?>
<!DOCTYPE svg PUBLIC "-//W3C//DTD SVG 1.1//EN"
 "http://www.w3.org/Graphics/SVG/1.1/DTD/svg11.dtd">
<!-- Generated by graphviz version 14.1.3 (20260303.0454)
 -->
<!-- Title: G Pages: 1 -->
<svg width="974pt" height="217pt"
 viewBox="0.00 0.00 974.00 217.00" xmlns="http://www.w3.org/2000/svg" xmlns:xlink="http://www.w3.org/1999/xlink">
<g id="graph0" class="graph" transform="scale(1 1) rotate(0) translate(14.4 202.4)">
<title>G</title>
<polygon fill="white" stroke="none" points="-14.4,14.4 -14.4,-202.4 959.15,-202.4 959.15,14.4 -14.4,14.4"/>
<!-- trace -->
<g id="node1" class="node">
<title>trace</title>
<polygon fill="#f5f5f5" stroke="none" points="1,-156 1,-187 80,-187 80,-156 1,-156"/>
<polygon fill="none" stroke="#5b6b73" points="1,-156 1,-187 80,-187 80,-156 1,-156"/>
<text xml:space="preserve" text-anchor="start" x="24.75" y="-166.7" font-family="Helvetica,sans-Serif" font-weight="bold" font-size="14.00">Lane</text>
<polygon fill="#f5f5f5" stroke="none" points="80,-156 80,-187 204,-187 204,-156 80,-156"/>
<polygon fill="none" stroke="#5b6b73" points="80,-156 80,-187 204,-187 204,-156 80,-156"/>
<text xml:space="preserve" text-anchor="start" x="107.5" y="-166.7" font-family="Helvetica,sans-Serif" font-weight="bold" font-size="14.00">Before call</text>
<polygon fill="#f5f5f5" stroke="none" points="204,-156 204,-187 414.25,-187 414.25,-156 204,-156"/>
<polygon fill="none" stroke="#5b6b73" points="204,-156 204,-187 414.25,-187 414.25,-156 204,-156"/>
<text xml:space="preserve" text-anchor="start" x="270.5" y="-166.7" font-family="Helvetica,sans-Serif" font-weight="bold" font-size="14.00">API invoked</text>
<polygon fill="#f5f5f5" stroke="none" points="414.25,-156 414.25,-187 583.25,-187 583.25,-156 414.25,-156"/>
<polygon fill="none" stroke="#5b6b73" points="414.25,-156 414.25,-187 583.25,-187 583.25,-156 414.25,-156"/>
<text xml:space="preserve" text-anchor="start" x="459.75" y="-166.7" font-family="Helvetica,sans-Serif" font-weight="bold" font-size="14.00">Enter kernel</text>
<polygon fill="#f5f5f5" stroke="none" points="583.25,-156 583.25,-187 768.75,-187 768.75,-156 583.25,-156"/>
<polygon fill="none" stroke="#5b6b73" points="583.25,-156 583.25,-187 768.75,-187 768.75,-156 583.25,-156"/>
<text xml:space="preserve" text-anchor="start" x="616.75" y="-166.7" font-family="Helvetica,sans-Serif" font-weight="bold" font-size="14.00">Dispatch + checks</text>
<polygon fill="#f5f5f5" stroke="none" points="768.75,-156 768.75,-187 943.75,-187 943.75,-156 768.75,-156"/>
<polygon fill="none" stroke="#5b6b73" points="768.75,-156 768.75,-187 943.75,-187 943.75,-156 768.75,-156"/>
<text xml:space="preserve" text-anchor="start" x="834.5" y="-166.7" font-family="Helvetica,sans-Serif" font-weight="bold" font-size="14.00">Return</text>
<polygon fill="#e6f3f9" stroke="none" points="1,-125 1,-156 80,-156 80,-125 1,-125"/>
<polygon fill="none" stroke="#5b6b73" points="1,-125 1,-156 80,-156 80,-125 1,-125"/>
<text xml:space="preserve" text-anchor="start" x="12.38" y="-135.7" font-family="Helvetica,sans-Serif" font-weight="bold" font-size="14.00">Program</text>
<polygon fill="none" stroke="#5b6b73" points="80,-125 80,-156 204,-156 204,-125 80,-125"/>
<text xml:space="preserve" text-anchor="start" x="88" y="-136.75" font-family="Helvetica,sans-Serif" font-size="14.00">user code running</text>
<polygon fill="none" stroke="#5b6b73" points="204,-125 204,-156 414.25,-156 414.25,-125 204,-125"/>
<text xml:space="preserve" text-anchor="start" x="257.38" y="-136.75" font-family="Helvetica,sans-Serif" font-size="14.00">calls API function</text>
<polygon fill="none" stroke="#5b6b73" points="414.25,-125 414.25,-156 583.25,-156 583.25,-125 414.25,-125"/>
<text xml:space="preserve" text-anchor="start" x="450.38" y="-136.75" font-family="Helvetica,sans-Serif" font-size="14.00">paused on entry</text>
<polygon fill="none" stroke="#5b6b73" points="583.25,-125 583.25,-156 768.75,-156 768.75,-125 583.25,-125"/>
<text xml:space="preserve" text-anchor="start" x="632.5" y="-136.75" font-family="Helvetica,sans-Serif" font-size="14.00">waits for result</text>
<polygon fill="none" stroke="#5b6b73" points="768.75,-125 768.75,-156 943.75,-156 943.75,-125 768.75,-125"/>
<text xml:space="preserve" text-anchor="start" x="811.25" y="-136.75" font-family="Helvetica,sans-Serif" font-size="14.00">receives status</text>
<polygon fill="#e6f3f9" stroke="none" points="1,-94 1,-125 80,-125 80,-94 1,-94"/>
<polygon fill="none" stroke="#5b6b73" points="1,-94 1,-125 80,-125 80,-94 1,-94"/>
<text xml:space="preserve" text-anchor="start" x="17.62" y="-104.7" font-family="Helvetica,sans-Serif" font-weight="bold" font-size="14.00">Library</text>
<polygon fill="none" stroke="#5b6b73" points="80,-94 80,-125 204,-125 204,-94 80,-94"/>
<text xml:space="preserve" text-anchor="start" x="97.75" y="-105.75" font-family="Helvetica,sans-Serif" font-size="14.00">idle until called</text>
<polygon fill="none" stroke="#5b6b73" points="204,-94 204,-125 414.25,-125 414.25,-94 204,-94"/>
<text xml:space="preserve" text-anchor="start" x="212" y="-105.75" font-family="Helvetica,sans-Serif" font-size="14.00">packages syscall number + args</text>
<polygon fill="none" stroke="#5b6b73" points="414.25,-94 414.25,-125 583.25,-125 583.25,-94 414.25,-94"/>
<text xml:space="preserve" text-anchor="start" x="422.25" y="-105.75" font-family="Helvetica,sans-Serif" font-size="14.00">executes entry instruction</text>
<polygon fill="none" stroke="#5b6b73" points="583.25,-94 583.25,-125 768.75,-125 768.75,-94 583.25,-94"/>
<text xml:space="preserve" text-anchor="start" x="653.12" y="-105.75" font-family="Helvetica,sans-Serif" font-size="14.00">inactive</text>
<polygon fill="none" stroke="#5b6b73" points="768.75,-94 768.75,-125 943.75,-125 943.75,-94 768.75,-94"/>
<text xml:space="preserve" text-anchor="start" x="776.75" y="-105.75" font-family="Helvetica,sans-Serif" font-size="14.00">converts return convention</text>
<polygon fill="#e6f3f9" stroke="none" points="1,-63 1,-94 80,-94 80,-63 1,-63"/>
<polygon fill="none" stroke="#5b6b73" points="1,-63 1,-94 80,-94 80,-63 1,-63"/>
<text xml:space="preserve" text-anchor="start" x="26.25" y="-73.7" font-family="Helvetica,sans-Serif" font-weight="bold" font-size="14.00">CPU</text>
<polygon fill="none" stroke="#5b6b73" points="80,-63 80,-94 204,-94 204,-63 80,-63"/>
<text xml:space="preserve" text-anchor="start" x="109.75" y="-74.75" font-family="Helvetica,sans-Serif" font-size="14.00">user mode</text>
<polygon fill="none" stroke="#5b6b73" points="204,-63 204,-94 414.25,-94 414.25,-63 204,-63"/>
<text xml:space="preserve" text-anchor="start" x="265.25" y="-74.75" font-family="Helvetica,sans-Serif" font-size="14.00">still user mode</text>
<polygon fill="none" stroke="#5b6b73" points="414.25,-63 414.25,-94 583.25,-94 583.25,-63 414.25,-63"/>
<text xml:space="preserve" text-anchor="start" x="426" y="-74.75" font-family="Helvetica,sans-Serif" font-size="14.00">switches to kernel mode</text>
<polygon fill="none" stroke="#5b6b73" points="583.25,-63 583.25,-94 768.75,-94 768.75,-63 583.25,-63"/>
<text xml:space="preserve" text-anchor="start" x="601.75" y="-74.75" font-family="Helvetica,sans-Serif" font-size="14.00">executes privileged code</text>
<polygon fill="none" stroke="#5b6b73" points="768.75,-63 768.75,-94 943.75,-94 943.75,-63 768.75,-63"/>
<text xml:space="preserve" text-anchor="start" x="793.62" y="-74.75" font-family="Helvetica,sans-Serif" font-size="14.00">returns to user mode</text>
<polygon fill="#e6f3f9" stroke="none" points="1,-32 1,-63 80,-63 80,-32 1,-32"/>
<polygon fill="none" stroke="#5b6b73" points="1,-32 1,-63 80,-63 80,-32 1,-32"/>
<text xml:space="preserve" text-anchor="start" x="19.5" y="-42.7" font-family="Helvetica,sans-Serif" font-weight="bold" font-size="14.00">Kernel</text>
<polygon fill="none" stroke="#5b6b73" points="80,-32 80,-63 204,-63 204,-32 80,-32"/>
<text xml:space="preserve" text-anchor="start" x="107.12" y="-43.75" font-family="Helvetica,sans-Serif" font-size="14.00">not on CPU</text>
<polygon fill="none" stroke="#5b6b73" points="204,-32 204,-63 414.25,-63 414.25,-32 204,-32"/>
<text xml:space="preserve" text-anchor="start" x="274.25" y="-43.75" font-family="Helvetica,sans-Serif" font-size="14.00">not on CPU</text>
<polygon fill="none" stroke="#5b6b73" points="414.25,-32 414.25,-63 583.25,-63 583.25,-32 414.25,-32"/>
<text xml:space="preserve" text-anchor="start" x="439.12" y="-43.75" font-family="Helvetica,sans-Serif" font-size="14.00">syscall handler runs</text>
<polygon fill="none" stroke="#5b6b73" points="583.25,-32 583.25,-63 768.75,-63 768.75,-32 583.25,-32"/>
<text xml:space="preserve" text-anchor="start" x="591.25" y="-43.75" font-family="Helvetica,sans-Serif" font-size="14.00">validates + performs service</text>
<polygon fill="none" stroke="#5b6b73" points="768.75,-32 768.75,-63 943.75,-63 943.75,-32 768.75,-32"/>
<text xml:space="preserve" text-anchor="start" x="800.75" y="-43.75" font-family="Helvetica,sans-Serif" font-size="14.00">returns result/error</text>
<polygon fill="#e6f3f9" stroke="none" points="1,-1 1,-32 80,-32 80,-1 1,-1"/>
<polygon fill="none" stroke="#5b6b73" points="1,-1 1,-32 80,-32 80,-1 1,-1"/>
<text xml:space="preserve" text-anchor="start" x="9" y="-11.7" font-family="Helvetica,sans-Serif" font-weight="bold" font-size="14.00">Boundary</text>
<polygon fill="none" stroke="#5b6b73" points="80,-1 80,-32 204,-32 204,-1 80,-1"/>
<text xml:space="preserve" text-anchor="start" x="139.75" y="-12.75" font-family="Helvetica,sans-Serif" font-size="14.00">&#45;</text>
<polygon fill="none" stroke="#5b6b73" points="204,-1 204,-32 414.25,-32 414.25,-1 204,-1"/>
<text xml:space="preserve" text-anchor="start" x="268.25" y="-12.75" font-family="Helvetica,sans-Serif" font-size="14.00">API boundary</text>
<polygon fill="none" stroke="#5b6b73" points="414.25,-1 414.25,-32 583.25,-32 583.25,-1 414.25,-1"/>
<text xml:space="preserve" text-anchor="start" x="438.38" y="-11.7" font-family="Helvetica,sans-Serif" font-weight="bold" font-size="14.00">privilege boundary</text>
<polygon fill="none" stroke="#5b6b73" points="583.25,-1 583.25,-32 768.75,-32 768.75,-1 583.25,-1"/>
<text xml:space="preserve" text-anchor="start" x="619.38" y="-12.75" font-family="Helvetica,sans-Serif" font-size="14.00">authority exercised</text>
<polygon fill="none" stroke="#5b6b73" points="768.75,-1 768.75,-32 943.75,-32 943.75,-1 768.75,-1"/>
<text xml:space="preserve" text-anchor="start" x="802.62" y="-12.75" font-family="Helvetica,sans-Serif" font-size="14.00">authority released</text>
<polygon fill="none" stroke="#5b6b73" points="0,0 0,-188 944.75,-188 944.75,0 0,0"/>
</g>
</g>
</svg>
