<?xml version="1.0" encoding="UTF-8" standalone="no"?>
<!DOCTYPE svg PUBLIC "-//W3C//DTD SVG 1.1//EN"
 "http://www.w3.org/Graphics/SVG/1.1/DTD/svg11.dtd">
<!-- Generated by graphviz version 14.1.3 (20260303.0454)
 -->
<!-- Title: G Pages: 1 -->
<svg width="551pt" height="317pt"
 viewBox="0.00 0.00 551.00 317.00" xmlns="http://www.w3.org/2000/svg" xmlns:xlink="http://www.w3.org/1999/xlink">
<g id="graph0" class="graph" transform="scale(1 1) rotate(0) translate(18 299)">
<title>G</title>
<polygon fill="white" stroke="none" points="-18,18 -18,-299 532.75,-299 532.75,18 -18,18"/>
<g id="clust1" class="cluster">
<title>cluster_proc</title>
<path fill="#eaf6fb" stroke="#9ec9da" d="M20,-8C20,-8 494.75,-8 494.75,-8 500.75,-8 506.75,-14 506.75,-20 506.75,-20 506.75,-223 506.75,-223 506.75,-229 500.75,-235 494.75,-235 494.75,-235 20,-235 20,-235 14,-235 8,-229 8,-223 8,-223 8,-20 8,-20 8,-14 14,-8 20,-8"/>
<text xml:space="preserve" text-anchor="middle" x="257.38" y="-217.7" font-family="Times,serif" font-size="14.00">process (live instance)</text>
</g>
<!-- program -->
<g id="node1" class="node">
<title>program</title>
<path fill="#f5f5f5" stroke="#5b6b73" d="M139.25,-281C139.25,-281 36.25,-281 36.25,-281 30.25,-281 24.25,-275 24.25,-269 24.25,-269 24.25,-255 24.25,-255 24.25,-249 30.25,-243 36.25,-243 36.25,-243 139.25,-243 139.25,-243 145.25,-243 151.25,-249 151.25,-255 151.25,-255 151.25,-269 151.25,-269 151.25,-275 145.25,-281 139.25,-281"/>
<text xml:space="preserve" text-anchor="middle" x="87.75" y="-263.7" font-family="Helvetica,sans-Serif" font-size="14.00" fill="#233238">program file</text>
<text xml:space="preserve" text-anchor="middle" x="87.75" y="-248.7" font-family="Helvetica,sans-Serif" font-size="14.00" fill="#233238">(passive template)</text>
</g>
<!-- as -->
<g id="node3" class="node">
<title>as</title>
<path fill="#ddeaf1" stroke="#5b6b73" d="M486.75,-202C486.75,-202 339.5,-202 339.5,-202 333.5,-202 327.5,-196 327.5,-190 327.5,-190 327.5,-176 327.5,-176 327.5,-170 333.5,-164 339.5,-164 339.5,-164 486.75,-164 486.75,-164 492.75,-164 498.75,-170 498.75,-176 498.75,-176 498.75,-190 498.75,-190 498.75,-196 492.75,-202 486.75,-202"/>
<text xml:space="preserve" text-anchor="middle" x="413.12" y="-184.7" font-family="Helvetica,sans-Serif" font-size="14.00" fill="#233238">address space</text>
<text xml:space="preserve" text-anchor="middle" x="413.12" y="-169.7" font-family="Helvetica,sans-Serif" font-size="14.00" fill="#233238">(code, data, heap, stacks)</text>
</g>
<!-- program&#45;&gt;as -->
<g id="edge1" class="edge">
<title>program&#45;&gt;as</title>
<path fill="none" stroke="#5b6b73" stroke-width="1.05" d="M151.48,-246.67C200.47,-234.71 269.16,-217.93 323.72,-204.6"/>
<polygon fill="#5b6b73" stroke="#5b6b73" stroke-width="1.05" points="324.14,-207.2 330.81,-202.87 322.9,-202.1 324.14,-207.2"/>
<text xml:space="preserve" text-anchor="middle" x="243.5" y="-239.65" font-family="Times,serif" font-size="14.00">mapped as code/data</text>
</g>
<!-- cpu -->
<g id="node2" class="node">
<title>cpu</title>
<path fill="#bfe2f1" stroke="#5b6b73" d="M451.88,-54C451.88,-54 374.38,-54 374.38,-54 368.38,-54 362.38,-48 362.38,-42 362.38,-42 362.38,-28 362.38,-28 362.38,-22 368.38,-16 374.38,-16 374.38,-16 451.88,-16 451.88,-16 457.88,-16 463.88,-22 463.88,-28 463.88,-28 463.88,-42 463.88,-42 463.88,-48 457.88,-54 451.88,-54"/>
<text xml:space="preserve" text-anchor="middle" x="413.12" y="-36.7" font-family="Helvetica,sans-Serif" font-size="14.00" fill="#233238">CPU context</text>
<text xml:space="preserve" text-anchor="middle" x="413.12" y="-21.7" font-family="Helvetica,sans-Serif" font-size="14.00" fill="#233238">(PC, SP, regs)</text>
</g>
<!-- res -->
<g id="node4" class="node">
<title>res</title>
<path fill="#ddeaf1" stroke="#5b6b73" d="M480.75,-128C480.75,-128 345.5,-128 345.5,-128 339.5,-128 333.5,-122 333.5,-116 333.5,-116 333.5,-102 333.5,-102 333.5,-96 339.5,-90 345.5,-90 345.5,-90 480.75,-90 480.75,-90 486.75,-90 492.75,-96 492.75,-102 492.75,-102 492.75,-116 492.75,-116 492.75,-122 486.75,-128 480.75,-128"/>
<text xml:space="preserve" text-anchor="middle" x="413.12" y="-110.7" font-family="Helvetica,sans-Serif" font-size="14.00" fill="#233238">owned kernel resources</text>
<text xml:space="preserve" text-anchor="middle" x="413.12" y="-95.7" font-family="Helvetica,sans-Serif" font-size="14.00" fill="#233238">(files, sockets, devices)</text>
</g>
<!-- pcb -->
<g id="node5" class="node">
<title>pcb</title>
<path fill="#d5edf7" stroke="#5b6b73" d="M147.5,-135.5C147.5,-135.5 28,-135.5 28,-135.5 22,-135.5 16,-129.5 16,-123.5 16,-123.5 16,-94.5 16,-94.5 16,-88.5 22,-82.5 28,-82.5 28,-82.5 147.5,-82.5 147.5,-82.5 153.5,-82.5 159.5,-88.5 159.5,-94.5 159.5,-94.5 159.5,-123.5 159.5,-123.5 159.5,-129.5 153.5,-135.5 147.5,-135.5"/>
<text xml:space="preserve" text-anchor="middle" x="87.75" y="-118.2" font-family="Helvetica,sans-Serif" font-size="14.00" fill="#233238">PCB / descriptor</text>
<text xml:space="preserve" text-anchor="middle" x="87.75" y="-103.2" font-family="Helvetica,sans-Serif" font-size="14.00" fill="#233238">(identity + scheduling</text>
<text xml:space="preserve" text-anchor="middle" x="87.75" y="-88.2" font-family="Helvetica,sans-Serif" font-size="14.00" fill="#233238">+ pointers to state)</text>
</g>
<!-- pcb&#45;&gt;cpu -->
<g id="edge2" class="edge">
<title>pcb&#45;&gt;cpu</title>
<path fill="none" stroke="#5b6b73" stroke-width="1.05" d="M159.72,-92.76C217.66,-79.5 298.58,-60.98 353.04,-48.52"/>
<polygon fill="#5b6b73" stroke="#5b6b73" stroke-width="1.05" points="353.61,-51.08 360.33,-46.85 352.44,-45.97 353.61,-51.08"/>
</g>
<!-- pcb&#45;&gt;as -->
<g id="edge3" class="edge">
<title>pcb&#45;&gt;as</title>
<path fill="none" stroke="#5b6b73" stroke-width="1.05" d="M159.72,-125.24C206.38,-135.92 267.95,-150.01 318.59,-161.6"/>
<polygon fill="#5b6b73" stroke="#5b6b73" stroke-width="1.05" points="317.82,-164.11 325.72,-163.23 318.99,-158.99 317.82,-164.11"/>
</g>
<!-- pcb&#45;&gt;res -->
<g id="edge4" class="edge">
<title>pcb&#45;&gt;res</title>
<path fill="none" stroke="#5b6b73" stroke-width="1.05" d="M159.72,-109C208.14,-109 272.6,-109 324.27,-109"/>
<polygon fill="#5b6b73" stroke="#5b6b73" stroke-width="1.05" points="324.01,-111.63 331.51,-109 324.01,-106.38 324.01,-111.63"/>
</g>
</g>
</svg>
