<?xml version="1.0" encoding="UTF-8" standalone="no"?>
<!DOCTYPE svg PUBLIC "-//W3C//DTD SVG 1.1//EN"
 "http://www.w3.org/Graphics/SVG/1.1/DTD/svg11.dtd">
<!-- Generated by graphviz version 14.1.3 (20260303.0454)
 -->
<!-- Title: fig_1_22_control_loop Pages: 1 -->
<svg width="677pt" height="155pt"
 viewBox="0.00 0.00 677.00 155.00" xmlns="http://www.w3.org/2000/svg" xmlns:xlink="http://www.w3.org/1999/xlink">
<g id="graph0" class="graph" transform="scale(1 1) rotate(0) translate(4 150.75)">
<title>fig_1_22_control_loop</title>
<polygon fill="white" stroke="none" points="-4,4 -4,-150.75 672.5,-150.75 672.5,4 -4,4"/>
<text xml:space="preserve" text-anchor="middle" x="334.25" y="-125.65" font-family="Latin Modern Roman" font-size="18.00">Control loop: timer, traps, and scheduling keep authority in the kernel</text>
<!-- cpu -->
<g id="node1" class="node">
<title>cpu</title>
<path fill="#e9f2ff" stroke="#444444" stroke-width="1.2" d="M81.25,-66C81.25,-66 12,-66 12,-66 6,-66 0,-60 0,-54 0,-54 0,-42 0,-42 0,-36 6,-30 12,-30 12,-30 81.25,-30 81.25,-30 87.25,-30 93.25,-36 93.25,-42 93.25,-42 93.25,-54 93.25,-54 93.25,-60 87.25,-66 81.25,-66"/>
<text xml:space="preserve" text-anchor="middle" x="46.62" y="-49.35" font-family="Latin Modern Roman" font-size="12.00">CPU executes</text>
<text xml:space="preserve" text-anchor="middle" x="46.62" y="-36.6" font-family="Latin Modern Roman" font-size="12.00">user code</text>
</g>
<!-- timer -->
<g id="node2" class="node">
<title>timer</title>
<path fill="#fff7e6" stroke="#444444" stroke-width="1.2" d="M265.25,-120C265.25,-120 197.5,-120 197.5,-120 191.5,-120 185.5,-114 185.5,-108 185.5,-108 185.5,-96 185.5,-96 185.5,-90 191.5,-84 197.5,-84 197.5,-84 265.25,-84 265.25,-84 271.25,-84 277.25,-90 277.25,-96 277.25,-96 277.25,-108 277.25,-108 277.25,-114 271.25,-120 265.25,-120"/>
<text xml:space="preserve" text-anchor="middle" x="231.38" y="-103.35" font-family="Latin Modern Roman" font-size="12.00">Timer interrupt</text>
<text xml:space="preserve" text-anchor="middle" x="231.38" y="-90.6" font-family="Latin Modern Roman" font-size="12.00">preemption</text>
</g>
<!-- cpu&#45;&gt;timer -->
<g id="edge2" class="edge">
<title>cpu&#45;&gt;timer</title>
<path fill="none" stroke="#444444" stroke-width="1.1" d="M93.74,-61.63C118.71,-69.01 149.72,-78.17 175.87,-85.9"/>
<polygon fill="#444444" stroke="#444444" stroke-width="1.1" points="174.85,-88.51 183.31,-88.09 176.43,-83.14 174.85,-88.51"/>
<text xml:space="preserve" text-anchor="middle" x="138.62" y="-82.97" font-family="Latin Modern Roman" font-size="11.00">interrupt</text>
</g>
<!-- trap -->
<g id="node3" class="node">
<title>trap</title>
<path fill="#fff7e6" stroke="#444444" stroke-width="1.2" d="M266.75,-66C266.75,-66 196,-66 196,-66 190,-66 184,-60 184,-54 184,-54 184,-42 184,-42 184,-36 190,-30 196,-30 196,-30 266.75,-30 266.75,-30 272.75,-30 278.75,-36 278.75,-42 278.75,-42 278.75,-54 278.75,-54 278.75,-60 272.75,-66 266.75,-66"/>
<text xml:space="preserve" text-anchor="middle" x="231.38" y="-49.35" font-family="Latin Modern Roman" font-size="12.00">Syscall / fault</text>
<text xml:space="preserve" text-anchor="middle" x="231.38" y="-36.6" font-family="Latin Modern Roman" font-size="12.00">trap into kernel</text>
</g>
<!-- cpu&#45;&gt;trap -->
<g id="edge1" class="edge">
<title>cpu&#45;&gt;trap</title>
<path fill="none" stroke="#444444" stroke-width="1.1" d="M93.74,-48C118.12,-48 148.25,-48 174,-48"/>
<polygon fill="#444444" stroke="#444444" stroke-width="1.1" points="173.97,-50.8 181.97,-48 173.97,-45.2 173.97,-50.8"/>
<text xml:space="preserve" text-anchor="middle" x="138.62" y="-49.55" font-family="Latin Modern Roman" font-size="11.00">syscall/fault</text>
</g>
<!-- kernel -->
<g id="node4" class="node">
<title>kernel</title>
<path fill="#eaf7ea" stroke="#444444" stroke-width="1.2" d="M474,-66C474,-66 391.25,-66 391.25,-66 385.25,-66 379.25,-60 379.25,-54 379.25,-54 379.25,-42 379.25,-42 379.25,-36 385.25,-30 391.25,-30 391.25,-30 474,-30 474,-30 480,-30 486,-36 486,-42 486,-42 486,-54 486,-54 486,-60 480,-66 474,-66"/>
<text xml:space="preserve" text-anchor="middle" x="432.62" y="-49.35" font-family="Latin Modern Roman" font-size="12.00">Kernel scheduler</text>
<text xml:space="preserve" text-anchor="middle" x="432.62" y="-36.6" font-family="Latin Modern Roman" font-size="12.00">&amp; dispatcher</text>
</g>
<!-- timer&#45;&gt;kernel -->
<g id="edge3" class="edge">
<title>timer&#45;&gt;kernel</title>
<path fill="none" stroke="#444444" stroke-width="1.1" d="M277.59,-89.75C304.85,-82.36 339.95,-72.84 369.76,-64.77"/>
<polygon fill="#444444" stroke="#444444" stroke-width="1.1" points="370.23,-67.54 377.22,-62.74 368.77,-62.13 370.23,-67.54"/>
<text xml:space="preserve" text-anchor="middle" x="329" y="-86.08" font-family="Latin Modern Roman" font-size="11.00">enter kernel</text>
</g>
<!-- trap&#45;&gt;kernel -->
<g id="edge4" class="edge">
<title>trap&#45;&gt;kernel</title>
<path fill="none" stroke="#444444" stroke-width="1.1" d="M279.34,-48C306.11,-48 340.01,-48 369.02,-48"/>
<polygon fill="#444444" stroke="#444444" stroke-width="1.1" points="368.99,-50.8 376.99,-48 368.99,-45.2 368.99,-50.8"/>
<text xml:space="preserve" text-anchor="middle" x="329" y="-49.55" font-family="Latin Modern Roman" font-size="11.00">enter kernel</text>
</g>
<!-- readyq -->
<g id="node5" class="node">
<title>readyq</title>
<path fill="#eaf7ea" stroke="#444444" stroke-width="1.2" d="M656.5,-36C656.5,-36 591.75,-36 591.75,-36 585.75,-36 579.75,-30 579.75,-24 579.75,-24 579.75,-12 579.75,-12 579.75,-6 585.75,0 591.75,0 591.75,0 656.5,0 656.5,0 662.5,0 668.5,-6 668.5,-12 668.5,-12 668.5,-24 668.5,-24 668.5,-30 662.5,-36 656.5,-36"/>
<text xml:space="preserve" text-anchor="middle" x="624.12" y="-19.35" font-family="Latin Modern Roman" font-size="12.00">Ready queue</text>
<text xml:space="preserve" text-anchor="middle" x="624.12" y="-6.6" font-family="Latin Modern Roman" font-size="12.00">(authoritative)</text>
</g>
<!-- kernel&#45;&gt;readyq -->
<g id="edge5" class="edge">
<title>kernel&#45;&gt;readyq</title>
<path fill="none" stroke="#444444" stroke-width="1.1" d="M486.41,-39.64C512.45,-35.52 543.8,-30.56 569.9,-26.43"/>
<polygon fill="#444444" stroke="#444444" stroke-width="1.1" points="570.15,-29.22 577.61,-25.21 569.27,-23.69 570.15,-29.22"/>
<text xml:space="preserve" text-anchor="middle" x="532.88" y="-38.12" font-family="Latin Modern Roman" font-size="11.00">choose next</text>
</g>
<!-- readyq&#45;&gt;cpu -->
<g id="edge6" class="edge">
<title>readyq&#45;&gt;cpu</title>
<path fill="none" stroke="#444444" stroke-width="1.1" d="M579.35,-15.58C500.2,-11.81 328.11,-6.37 184,-21 157.07,-23.73 127.55,-29.26 102.89,-34.6"/>
<polygon fill="#444444" stroke="#444444" stroke-width="1.1" points="102.53,-31.81 95.32,-36.27 103.73,-37.28 102.53,-31.81"/>
<text xml:space="preserve" text-anchor="middle" x="329" y="-14.84" font-family="Latin Modern Roman" font-size="11.00">return to user</text>
</g>
</g>
</svg>
