<?xml version="1.0" encoding="UTF-8" standalone="no"?>
<!DOCTYPE svg PUBLIC "-//W3C//DTD SVG 1.1//EN"
 "http://www.w3.org/Graphics/SVG/1.1/DTD/svg11.dtd">
<!-- Generated by graphviz version 14.1.3 (20260303.0454)
 -->
<!-- Title: G Pages: 1 -->
<svg width="652pt" height="351pt"
 viewBox="0.00 0.00 652.00 351.00" xmlns="http://www.w3.org/2000/svg" xmlns:xlink="http://www.w3.org/1999/xlink">
<g id="graph0" class="graph" transform="scale(1 1) rotate(0) translate(18 332.5)">
<title>G</title>
<polygon fill="white" stroke="none" points="-18,18 -18,-332.5 633.53,-332.5 633.53,18 -18,18"/>
<g id="clust1" class="cluster">
<title>cluster_cloud</title>
<path fill="#eaf6fb" stroke="#9ec9da" d="M20,-8C20,-8 583,-8 583,-8 589,-8 595,-14 595,-20 595,-20 595,-72.5 595,-72.5 595,-78.5 589,-84.5 583,-84.5 583,-84.5 20,-84.5 20,-84.5 14,-84.5 8,-78.5 8,-72.5 8,-72.5 8,-20 8,-20 8,-14 14,-8 20,-8"/>
<text xml:space="preserve" text-anchor="middle" x="301.5" y="-67.2" font-family="Times,serif" font-size="14.00">cloud</text>
</g>
<!-- internet -->
<g id="node1" class="node">
<title>internet</title>
<ellipse fill="#c9e7f4" stroke="#5b6b73" cx="327" cy="-296.5" rx="40.13" ry="18"/>
<text xml:space="preserve" text-anchor="middle" x="327" y="-290.7" font-family="Helvetica,sans-Serif" font-size="14.00" fill="#233238">Internet</text>
</g>
<!-- firewall -->
<g id="node2" class="node">
<title>firewall</title>
<path fill="#f5f5f5" stroke="#5b6b73" d="M344,-245.5C344,-245.5 310,-245.5 310,-245.5 304,-245.5 298,-239.5 298,-233.5 298,-233.5 298,-221.5 298,-221.5 298,-215.5 304,-209.5 310,-209.5 310,-209.5 344,-209.5 344,-209.5 350,-209.5 356,-215.5 356,-221.5 356,-221.5 356,-233.5 356,-233.5 356,-239.5 350,-245.5 344,-245.5"/>
<text xml:space="preserve" text-anchor="middle" x="327" y="-221.7" font-family="Helvetica,sans-Serif" font-size="14.00" fill="#233238">firewall</text>
</g>
<!-- internet&#45;&gt;firewall -->
<g id="edge1" class="edge">
<title>internet&#45;&gt;firewall</title>
<path fill="none" stroke="#5b6b73" stroke-width="1.05" d="M327,-278.25C327,-271.11 327,-262.68 327,-254.81"/>
<polygon fill="#5b6b73" stroke="#5b6b73" stroke-width="1.05" points="329.63,-255.02 327,-247.52 324.38,-255.02 329.63,-255.02"/>
</g>
<!-- lb -->
<g id="node3" class="node">
<title>lb</title>
<path fill="#f5f5f5" stroke="#5b6b73" d="M282.5,-161C282.5,-161 209.5,-161 209.5,-161 203.5,-161 197.5,-155 197.5,-149 197.5,-149 197.5,-137 197.5,-137 197.5,-131 203.5,-125 209.5,-125 209.5,-125 282.5,-125 282.5,-125 288.5,-125 294.5,-131 294.5,-137 294.5,-137 294.5,-149 294.5,-149 294.5,-155 288.5,-161 282.5,-161"/>
<text xml:space="preserve" text-anchor="middle" x="246" y="-137.2" font-family="Helvetica,sans-Serif" font-size="14.00" fill="#233238">load balancer</text>
</g>
<!-- firewall&#45;&gt;lb -->
<g id="edge2" class="edge">
<title>firewall&#45;&gt;lb</title>
<path fill="none" stroke="#5b6b73" stroke-width="1.05" d="M309.82,-209C298.01,-196.97 282.18,-180.85 269.24,-167.67"/>
<polygon fill="#5b6b73" stroke="#5b6b73" stroke-width="1.05" points="271.39,-166.12 264.27,-162.6 267.65,-169.8 271.39,-166.12"/>
</g>
<!-- ui -->
<g id="node8" class="node">
<title>ui</title>
<path fill="#ddeaf1" stroke="#5b6b73" d="M480.88,-161C480.88,-161 341.12,-161 341.12,-161 335.12,-161 329.12,-155 329.12,-149 329.12,-149 329.12,-137 329.12,-137 329.12,-131 335.12,-125 341.12,-125 341.12,-125 480.88,-125 480.88,-125 486.88,-125 492.88,-131 492.88,-137 492.88,-137 492.88,-149 492.88,-149 492.88,-155 486.88,-161 480.88,-161"/>
<text xml:space="preserve" text-anchor="middle" x="411" y="-137.2" font-family="Helvetica,sans-Serif" font-size="14.00" fill="#233238">cloud customer interface</text>
</g>
<!-- firewall&#45;&gt;ui -->
<g id="edge3" class="edge">
<title>firewall&#45;&gt;ui</title>
<path fill="none" stroke="#5b6b73" stroke-width="1.05" stroke-dasharray="5,2" d="M344.81,-209C357.06,-196.97 373.48,-180.85 386.9,-167.67"/>
<polygon fill="#5b6b73" stroke="#5b6b73" stroke-width="1.05" points="388.57,-169.71 392.08,-162.58 384.89,-165.97 388.57,-169.71"/>
<text xml:space="preserve" text-anchor="middle" x="425.65" y="-180.2" font-family="Times,serif" font-size="14.00">customer requests</text>
</g>
<!-- vm1 -->
<g id="node4" class="node">
<title>vm1</title>
<path fill="#ddeaf1" stroke="#5b6b73" d="M118.12,-52C118.12,-52 27.87,-52 27.87,-52 21.87,-52 15.87,-46 15.87,-40 15.87,-40 15.87,-28 15.87,-28 15.87,-22 21.87,-16 27.87,-16 27.87,-16 118.12,-16 118.12,-16 124.12,-16 130.12,-22 130.12,-28 130.12,-28 130.12,-40 130.12,-40 130.12,-46 124.12,-52 118.12,-52"/>
<text xml:space="preserve" text-anchor="middle" x="73" y="-28.2" font-family="Helvetica,sans-Serif" font-size="14.00" fill="#233238">virtual machines</text>
</g>
<!-- lb&#45;&gt;vm1 -->
<g id="edge4" class="edge">
<title>lb&#45;&gt;vm1</title>
<path fill="none" stroke="#5b6b73" stroke-width="1.05" d="M215.73,-124.59C186.29,-107.67 146,-84.5 146,-84.5 146,-84.5 125.23,-70.42 105.85,-57.27"/>
<polygon fill="#5b6b73" stroke="#5b6b73" stroke-width="1.05" points="107.53,-55.24 99.85,-53.2 104.58,-59.59 107.53,-55.24"/>
</g>
<!-- vm2 -->
<g id="node5" class="node">
<title>vm2</title>
<path fill="#ddeaf1" stroke="#5b6b73" d="M264.12,-52C264.12,-52 173.88,-52 173.88,-52 167.88,-52 161.88,-46 161.88,-40 161.88,-40 161.88,-28 161.88,-28 161.88,-22 167.88,-16 173.88,-16 173.88,-16 264.12,-16 264.12,-16 270.12,-16 276.12,-22 276.12,-28 276.12,-28 276.12,-40 276.12,-40 276.12,-46 270.12,-52 264.12,-52"/>
<text xml:space="preserve" text-anchor="middle" x="219" y="-28.2" font-family="Helvetica,sans-Serif" font-size="14.00" fill="#233238">virtual machines</text>
</g>
<!-- lb&#45;&gt;vm2 -->
<g id="edge5" class="edge">
<title>lb&#45;&gt;vm2</title>
<path fill="none" stroke="#5b6b73" stroke-width="1.05" d="M241.66,-124.81C237.29,-107.49 230.5,-80.57 225.49,-60.71"/>
<polygon fill="#5b6b73" stroke="#5b6b73" stroke-width="1.05" points="228.1,-60.32 223.72,-53.69 223.01,-61.6 228.1,-60.32"/>
</g>
<!-- storage -->
<g id="node6" class="node">
<title>storage</title>
<path fill="#ddeaf1" stroke="#5b6b73" d="M357.5,-52C357.5,-52 320.5,-52 320.5,-52 314.5,-52 308.5,-46 308.5,-40 308.5,-40 308.5,-28 308.5,-28 308.5,-22 314.5,-16 320.5,-16 320.5,-16 357.5,-16 357.5,-16 363.5,-16 369.5,-22 369.5,-28 369.5,-28 369.5,-40 369.5,-40 369.5,-46 363.5,-52 357.5,-52"/>
<text xml:space="preserve" text-anchor="middle" x="339" y="-28.2" font-family="Helvetica,sans-Serif" font-size="14.00" fill="#233238">storage</text>
</g>
<!-- lb&#45;&gt;storage -->
<g id="edge6" class="edge">
<title>lb&#45;&gt;storage</title>
<path fill="none" stroke="#5b6b73" stroke-width="1.05" d="M260.94,-124.81C276.47,-106.95 300.88,-78.86 318.26,-58.86"/>
<polygon fill="#5b6b73" stroke="#5b6b73" stroke-width="1.05" points="320.11,-60.73 323.05,-53.35 316.15,-57.29 320.11,-60.73"/>
</g>
<!-- mgmt -->
<g id="node7" class="node">
<title>mgmt</title>
<path fill="#bfe2f1" stroke="#5b6b73" d="M574.75,-52C574.75,-52 413.25,-52 413.25,-52 407.25,-52 401.25,-46 401.25,-40 401.25,-40 401.25,-28 401.25,-28 401.25,-22 407.25,-16 413.25,-16 413.25,-16 574.75,-16 574.75,-16 580.75,-16 586.75,-22 586.75,-28 586.75,-28 586.75,-40 586.75,-40 586.75,-46 580.75,-52 574.75,-52"/>
<text xml:space="preserve" text-anchor="middle" x="494" y="-28.2" font-family="Helvetica,sans-Serif" font-size="14.00" fill="#233238">cloud management services</text>
</g>
<!-- ui&#45;&gt;mgmt -->
<g id="edge7" class="edge">
<title>ui&#45;&gt;mgmt</title>
<path fill="none" stroke="#5b6b73" stroke-width="1.05" stroke-dasharray="5,2" d="M424.34,-124.81C438.13,-107.03 459.79,-79.11 475.29,-59.12"/>
<polygon fill="#5b6b73" stroke="#5b6b73" stroke-width="1.05" points="477.2,-60.94 479.72,-53.4 473.05,-57.72 477.2,-60.94"/>
<text xml:space="preserve" text-anchor="middle" x="531.53" y="-95.7" font-family="Times,serif" font-size="14.00">cloud management commands</text>
</g>
</g>
</svg>
