<?xml version="1.0" encoding="UTF-8" standalone="no"?>
<!DOCTYPE svg PUBLIC "-//W3C//DTD SVG 1.1//EN"
 "http://www.w3.org/Graphics/SVG/1.1/DTD/svg11.dtd">
<!-- Generated by graphviz version 14.1.3 (20260303.0454)
 -->
<!-- Title: G Pages: 1 -->
<svg width="942pt" height="89pt"
 viewBox="0.00 0.00 942.00 89.00" xmlns="http://www.w3.org/2000/svg" xmlns:xlink="http://www.w3.org/1999/xlink">
<g id="graph0" class="graph" transform="scale(1 1) rotate(0) translate(18 71)">
<title>G</title>
<polygon fill="white" stroke="none" points="-18,18 -18,-71 924,-71 924,18 -18,18"/>
<!-- req -->
<g id="node1" class="node">
<title>req</title>
<path fill="#e6f3f9" stroke="#5b6b73" d="M109.75,-44.5C109.75,-44.5 12,-44.5 12,-44.5 6,-44.5 0,-38.5 0,-32.5 0,-32.5 0,-20.5 0,-20.5 0,-14.5 6,-8.5 12,-8.5 12,-8.5 109.75,-8.5 109.75,-8.5 115.75,-8.5 121.75,-14.5 121.75,-20.5 121.75,-20.5 121.75,-32.5 121.75,-32.5 121.75,-38.5 115.75,-44.5 109.75,-44.5"/>
<text xml:space="preserve" text-anchor="middle" x="60.88" y="-20.7" font-family="Helvetica,sans-Serif" font-size="14.00" fill="#233238">allocation request</text>
</g>
<!-- scan -->
<g id="node2" class="node">
<title>scan</title>
<path fill="#ddeaf1" stroke="#5b6b73" d="M288.75,-53C288.75,-53 191.75,-53 191.75,-53 185.75,-53 179.75,-47 179.75,-41 179.75,-41 179.75,-12 179.75,-12 179.75,-6 185.75,0 191.75,0 191.75,0 288.75,0 288.75,0 294.75,0 300.75,-6 300.75,-12 300.75,-12 300.75,-41 300.75,-41 300.75,-47 294.75,-53 288.75,-53"/>
<text xml:space="preserve" text-anchor="middle" x="240.25" y="-35.7" font-family="Helvetica,sans-Serif" font-size="14.00" fill="#233238">scan for 0 bit</text>
<text xml:space="preserve" text-anchor="middle" x="240.25" y="-20.7" font-family="Helvetica,sans-Serif" font-size="14.00" fill="#233238">(policy: first&#45;fit,</text>
<text xml:space="preserve" text-anchor="middle" x="240.25" y="-5.7" font-family="Helvetica,sans-Serif" font-size="14.00" fill="#233238">next&#45;fit, per&#45;CPU)</text>
</g>
<!-- req&#45;&gt;scan -->
<g id="edge1" class="edge">
<title>req&#45;&gt;scan</title>
<path fill="none" stroke="#5b6b73" stroke-width="1.05" d="M122.1,-26.5C122.1,-26.5 170.21,-26.5 170.21,-26.5"/>
<polygon fill="#5b6b73" stroke="#5b6b73" stroke-width="1.05" points="170.21,-29.13 177.71,-26.5 170.21,-23.88 170.21,-29.13"/>
</g>
<!-- claim -->
<g id="node3" class="node">
<title>claim</title>
<path fill="#bfe2f1" stroke="#5b6b73" d="M521,-45.5C521,-45.5 370.75,-45.5 370.75,-45.5 364.75,-45.5 358.75,-39.5 358.75,-33.5 358.75,-33.5 358.75,-19.5 358.75,-19.5 358.75,-13.5 364.75,-7.5 370.75,-7.5 370.75,-7.5 521,-7.5 521,-7.5 527,-7.5 533,-13.5 533,-19.5 533,-19.5 533,-33.5 533,-33.5 533,-39.5 527,-45.5 521,-45.5"/>
<text xml:space="preserve" text-anchor="middle" x="445.88" y="-28.2" font-family="Helvetica,sans-Serif" font-size="14.00" fill="#233238">atomic set bit i</text>
<text xml:space="preserve" text-anchor="middle" x="445.88" y="-13.2" font-family="Helvetica,sans-Serif" font-size="14.00" fill="#233238">(invariant: no double alloc)</text>
</g>
<!-- scan&#45;&gt;claim -->
<g id="edge2" class="edge">
<title>scan&#45;&gt;claim</title>
<path fill="none" stroke="#5b6b73" stroke-width="1.05" d="M301.11,-26.5C301.11,-26.5 349.42,-26.5 349.42,-26.5"/>
<polygon fill="#5b6b73" stroke="#5b6b73" stroke-width="1.05" points="349.42,-29.13 356.92,-26.5 349.42,-23.88 349.42,-29.13"/>
</g>
<!-- map -->
<g id="node4" class="node">
<title>map</title>
<path fill="#d5edf7" stroke="#5b6b73" d="M701.5,-45.5C701.5,-45.5 603,-45.5 603,-45.5 597,-45.5 591,-39.5 591,-33.5 591,-33.5 591,-19.5 591,-19.5 591,-13.5 597,-7.5 603,-7.5 603,-7.5 701.5,-7.5 701.5,-7.5 707.5,-7.5 713.5,-13.5 713.5,-19.5 713.5,-19.5 713.5,-33.5 713.5,-33.5 713.5,-39.5 707.5,-45.5 701.5,-45.5"/>
<text xml:space="preserve" text-anchor="middle" x="652.25" y="-28.2" font-family="Helvetica,sans-Serif" font-size="14.00" fill="#233238">map i &#45;&gt; resource</text>
<text xml:space="preserve" text-anchor="middle" x="652.25" y="-13.2" font-family="Helvetica,sans-Serif" font-size="14.00" fill="#233238">(page/PID/block)</text>
</g>
<!-- claim&#45;&gt;map -->
<g id="edge3" class="edge">
<title>claim&#45;&gt;map</title>
<path fill="none" stroke="#5b6b73" stroke-width="1.05" d="M533.4,-26.5C533.4,-26.5 581.46,-26.5 581.46,-26.5"/>
<polygon fill="#5b6b73" stroke="#5b6b73" stroke-width="1.05" points="581.46,-29.13 588.96,-26.5 581.46,-23.88 581.46,-29.13"/>
</g>
<!-- free -->
<g id="node5" class="node">
<title>free</title>
<path fill="#e6f3f9" stroke="#5b6b73" d="M894,-45.5C894,-45.5 783.5,-45.5 783.5,-45.5 777.5,-45.5 771.5,-39.5 771.5,-33.5 771.5,-33.5 771.5,-19.5 771.5,-19.5 771.5,-13.5 777.5,-7.5 783.5,-7.5 783.5,-7.5 894,-7.5 894,-7.5 900,-7.5 906,-13.5 906,-19.5 906,-19.5 906,-33.5 906,-33.5 906,-39.5 900,-45.5 894,-45.5"/>
<text xml:space="preserve" text-anchor="middle" x="838.75" y="-28.2" font-family="Helvetica,sans-Serif" font-size="14.00" fill="#233238">free: clear bit i</text>
<text xml:space="preserve" text-anchor="middle" x="838.75" y="-13.2" font-family="Helvetica,sans-Serif" font-size="14.00" fill="#233238">(resource available)</text>
</g>
<!-- map&#45;&gt;free -->
<g id="edge4" class="edge">
<title>map&#45;&gt;free</title>
<path fill="none" stroke="#5b6b73" stroke-width="1.05" d="M713.83,-26.5C713.83,-26.5 762.03,-26.5 762.03,-26.5"/>
<polygon fill="#5b6b73" stroke="#5b6b73" stroke-width="1.05" points="762.03,-29.13 769.53,-26.5 762.03,-23.88 762.03,-29.13"/>
</g>
</g>
</svg>
