<?xml version="1.0" encoding="UTF-8" standalone="no"?>
<!DOCTYPE svg PUBLIC "-//W3C//DTD SVG 1.1//EN"
 "http://www.w3.org/Graphics/SVG/1.1/DTD/svg11.dtd">
<!-- Generated by graphviz version 14.1.3 (20260303.0454)
 -->
<!-- Title: G Pages: 1 -->
<svg width="425pt" height="468pt"
 viewBox="0.00 0.00 425.00 468.00" xmlns="http://www.w3.org/2000/svg" xmlns:xlink="http://www.w3.org/1999/xlink">
<g id="graph0" class="graph" transform="scale(1 1) rotate(0) translate(18 450)">
<title>G</title>
<polygon fill="white" stroke="none" points="-18,18 -18,-450 406.8,-450 406.8,18 -18,18"/>
<!-- registers -->
<g id="node1" class="node">
<title>registers</title>
<path fill="#bfe2f1" stroke="#5b6b73" d="M247.2,-432C247.2,-432 141.6,-432 141.6,-432 135.6,-432 129.6,-426 129.6,-420 129.6,-420 129.6,-408 129.6,-408 129.6,-402 135.6,-396 141.6,-396 141.6,-396 247.2,-396 247.2,-396 253.2,-396 259.2,-402 259.2,-408 259.2,-408 259.2,-420 259.2,-420 259.2,-426 253.2,-432 247.2,-432"/>
<text xml:space="preserve" text-anchor="middle" x="194.4" y="-408.2" font-family="Helvetica,sans-Serif" font-size="14.00" fill="#233238">registers</text>
</g>
<!-- cache -->
<g id="node2" class="node">
<title>cache</title>
<path fill="#c9e7f4" stroke="#5b6b73" d="M261.6,-366C261.6,-366 127.2,-366 127.2,-366 121.2,-366 115.2,-360 115.2,-354 115.2,-354 115.2,-342 115.2,-342 115.2,-336 121.2,-330 127.2,-330 127.2,-330 261.6,-330 261.6,-330 267.6,-330 273.6,-336 273.6,-342 273.6,-342 273.6,-354 273.6,-354 273.6,-360 267.6,-366 261.6,-366"/>
<text xml:space="preserve" text-anchor="middle" x="194.4" y="-342.2" font-family="Helvetica,sans-Serif" font-size="14.00" fill="#233238">cache</text>
</g>
<!-- registers&#45;&gt;cache -->
<g id="edge1" class="edge">
<title>registers&#45;&gt;cache</title>
<path fill="none" stroke="#5b6b73" stroke-width="1.1" d="M194.4,-384.27C194.4,-382.18 194.4,-380.08 194.4,-377.99"/>
<polygon fill="#5b6b73" stroke="#5b6b73" stroke-width="1.1" points="190.9,-383.85 194.4,-393.85 197.9,-383.85 190.9,-383.85"/>
<polygon fill="#5b6b73" stroke="#5b6b73" stroke-width="1.1" points="197.9,-378.13 194.4,-368.13 190.9,-378.13 197.9,-378.13"/>
</g>
<!-- memory -->
<g id="node3" class="node">
<title>memory</title>
<path fill="#d5edf7" stroke="#5b6b73" d="M283.2,-300C283.2,-300 105.6,-300 105.6,-300 99.6,-300 93.6,-294 93.6,-288 93.6,-288 93.6,-276 93.6,-276 93.6,-270 99.6,-264 105.6,-264 105.6,-264 283.2,-264 283.2,-264 289.2,-264 295.2,-270 295.2,-276 295.2,-276 295.2,-288 295.2,-288 295.2,-294 289.2,-300 283.2,-300"/>
<text xml:space="preserve" text-anchor="middle" x="194.4" y="-276.2" font-family="Helvetica,sans-Serif" font-size="14.00" fill="#233238">main memory</text>
</g>
<!-- cache&#45;&gt;memory -->
<g id="edge2" class="edge">
<title>cache&#45;&gt;memory</title>
<path fill="none" stroke="#5b6b73" stroke-width="1.1" d="M194.4,-318.27C194.4,-316.18 194.4,-314.08 194.4,-311.99"/>
<polygon fill="#5b6b73" stroke="#5b6b73" stroke-width="1.1" points="190.9,-317.85 194.4,-327.85 197.9,-317.85 190.9,-317.85"/>
<polygon fill="#5b6b73" stroke="#5b6b73" stroke-width="1.1" points="197.9,-312.13 194.4,-302.13 190.9,-312.13 197.9,-312.13"/>
</g>
<!-- ssd -->
<g id="node4" class="node">
<title>ssd</title>
<path fill="#ddeaf1" stroke="#5b6b73" d="M301.2,-234C301.2,-234 87.6,-234 87.6,-234 81.6,-234 75.6,-228 75.6,-222 75.6,-222 75.6,-210 75.6,-210 75.6,-204 81.6,-198 87.6,-198 87.6,-198 301.2,-198 301.2,-198 307.2,-198 313.2,-204 313.2,-210 313.2,-210 313.2,-222 313.2,-222 313.2,-228 307.2,-234 301.2,-234"/>
<text xml:space="preserve" text-anchor="middle" x="194.4" y="-210.2" font-family="Helvetica,sans-Serif" font-size="14.00" fill="#233238">solid&#45;state disk</text>
</g>
<!-- memory&#45;&gt;ssd -->
<g id="edge3" class="edge">
<title>memory&#45;&gt;ssd</title>
<path fill="none" stroke="#5b6b73" stroke-width="1.1" d="M194.4,-252.27C194.4,-250.18 194.4,-248.08 194.4,-245.99"/>
<polygon fill="#5b6b73" stroke="#5b6b73" stroke-width="1.1" points="190.9,-251.85 194.4,-261.85 197.9,-251.85 190.9,-251.85"/>
<polygon fill="#5b6b73" stroke="#5b6b73" stroke-width="1.1" points="197.9,-246.13 194.4,-236.13 190.9,-246.13 197.9,-246.13"/>
</g>
<!-- hdd -->
<g id="node5" class="node">
<title>hdd</title>
<path fill="#e7eef2" stroke="#5b6b73" d="M326.4,-168C326.4,-168 62.4,-168 62.4,-168 56.4,-168 50.4,-162 50.4,-156 50.4,-156 50.4,-144 50.4,-144 50.4,-138 56.4,-132 62.4,-132 62.4,-132 326.4,-132 326.4,-132 332.4,-132 338.4,-138 338.4,-144 338.4,-144 338.4,-156 338.4,-156 338.4,-162 332.4,-168 326.4,-168"/>
<text xml:space="preserve" text-anchor="middle" x="194.4" y="-144.2" font-family="Helvetica,sans-Serif" font-size="14.00" fill="#233238">magnetic disk</text>
</g>
<!-- ssd&#45;&gt;hdd -->
<g id="edge4" class="edge">
<title>ssd&#45;&gt;hdd</title>
<path fill="none" stroke="#5b6b73" stroke-width="1.1" d="M194.4,-186.27C194.4,-184.18 194.4,-182.08 194.4,-179.99"/>
<polygon fill="#5b6b73" stroke="#5b6b73" stroke-width="1.1" points="190.9,-185.85 194.4,-195.85 197.9,-185.85 190.9,-185.85"/>
<polygon fill="#5b6b73" stroke="#5b6b73" stroke-width="1.1" points="197.9,-180.13 194.4,-170.13 190.9,-180.13 197.9,-180.13"/>
</g>
<!-- optical -->
<g id="node6" class="node">
<title>optical</title>
<path fill="#edf2f5" stroke="#5b6b73" d="M351.6,-102C351.6,-102 37.2,-102 37.2,-102 31.2,-102 25.2,-96 25.2,-90 25.2,-90 25.2,-78 25.2,-78 25.2,-72 31.2,-66 37.2,-66 37.2,-66 351.6,-66 351.6,-66 357.6,-66 363.6,-72 363.6,-78 363.6,-78 363.6,-90 363.6,-90 363.6,-96 357.6,-102 351.6,-102"/>
<text xml:space="preserve" text-anchor="middle" x="194.4" y="-78.2" font-family="Helvetica,sans-Serif" font-size="14.00" fill="#233238">optical disk</text>
</g>
<!-- hdd&#45;&gt;optical -->
<g id="edge5" class="edge">
<title>hdd&#45;&gt;optical</title>
<path fill="none" stroke="#5b6b73" stroke-width="1.1" d="M194.4,-120.27C194.4,-118.18 194.4,-116.08 194.4,-113.99"/>
<polygon fill="#5b6b73" stroke="#5b6b73" stroke-width="1.1" points="190.9,-119.85 194.4,-129.85 197.9,-119.85 190.9,-119.85"/>
<polygon fill="#5b6b73" stroke="#5b6b73" stroke-width="1.1" points="197.9,-114.13 194.4,-104.13 190.9,-114.13 197.9,-114.13"/>
</g>
<!-- tape -->
<g id="node7" class="node">
<title>tape</title>
<path fill="#f3f6f8" stroke="#5b6b73" d="M376.8,-36C376.8,-36 12,-36 12,-36 6,-36 0,-30 0,-24 0,-24 0,-12 0,-12 0,-6 6,0 12,0 12,0 376.8,0 376.8,0 382.8,0 388.8,-6 388.8,-12 388.8,-12 388.8,-24 388.8,-24 388.8,-30 382.8,-36 376.8,-36"/>
<text xml:space="preserve" text-anchor="middle" x="194.4" y="-12.2" font-family="Helvetica,sans-Serif" font-size="14.00" fill="#233238">magnetic tapes</text>
</g>
<!-- optical&#45;&gt;tape -->
<g id="edge6" class="edge">
<title>optical&#45;&gt;tape</title>
<path fill="none" stroke="#5b6b73" stroke-width="1.1" d="M194.4,-54.27C194.4,-52.18 194.4,-50.08 194.4,-47.99"/>
<polygon fill="#5b6b73" stroke="#5b6b73" stroke-width="1.1" points="190.9,-53.85 194.4,-63.85 197.9,-53.85 190.9,-53.85"/>
<polygon fill="#5b6b73" stroke="#5b6b73" stroke-width="1.1" points="197.9,-48.13 194.4,-38.13 190.9,-48.13 197.9,-48.13"/>
</g>
</g>
</svg>
