<?xml version="1.0" encoding="UTF-8" standalone="no"?>
<!DOCTYPE svg PUBLIC "-//W3C//DTD SVG 1.1//EN"
 "http://www.w3.org/Graphics/SVG/1.1/DTD/svg11.dtd">
<!-- Generated by graphviz version 14.1.3 (20260303.0454)
 -->
<!-- Title: G Pages: 1 -->
<svg width="1004pt" height="201pt"
 viewBox="0.00 0.00 1004.00 201.00" xmlns="http://www.w3.org/2000/svg" xmlns:xlink="http://www.w3.org/1999/xlink">
<g id="graph0" class="graph" transform="scale(1 1) rotate(0) translate(18 183)">
<title>G</title>
<polygon fill="white" stroke="none" points="-18,18 -18,-183 985.75,-183 985.75,18 -18,18"/>
<g id="clust1" class="cluster">
<title>cluster_hv</title>
<path fill="#eaf6fb" stroke="#9ec9da" d="M283.75,-8C283.75,-8 717,-8 717,-8 723,-8 729,-14 729,-20 729,-20 729,-145 729,-145 729,-151 723,-157 717,-157 717,-157 283.75,-157 283.75,-157 277.75,-157 271.75,-151 271.75,-145 271.75,-145 271.75,-20 271.75,-20 271.75,-14 277.75,-8 283.75,-8"/>
<text xml:space="preserve" text-anchor="middle" x="500.38" y="-139.7" font-family="Times,serif" font-size="14.00">hypervisor boundary</text>
</g>
<!-- guest -->
<g id="node1" class="node">
<title>guest</title>
<path fill="#e6f3f9" stroke="#5b6b73" d="M133.75,-89C133.75,-89 12,-89 12,-89 6,-89 0,-83 0,-77 0,-77 0,-63 0,-63 0,-57 6,-51 12,-51 12,-51 133.75,-51 133.75,-51 139.75,-51 145.75,-57 145.75,-63 145.75,-63 145.75,-77 145.75,-77 145.75,-83 139.75,-89 133.75,-89"/>
<text xml:space="preserve" text-anchor="middle" x="72.88" y="-71.7" font-family="Helvetica,sans-Serif" font-size="14.00" fill="#233238">guest kernel</text>
<text xml:space="preserve" text-anchor="middle" x="72.88" y="-56.7" font-family="Helvetica,sans-Serif" font-size="14.00" fill="#233238">(thinks it is privileged)</text>
</g>
<!-- exit -->
<g id="node2" class="node">
<title>exit</title>
<path fill="#ddeaf1" stroke="#5b6b73" d="M424,-124C424,-124 291.75,-124 291.75,-124 285.75,-124 279.75,-118 279.75,-112 279.75,-112 279.75,-98 279.75,-98 279.75,-92 285.75,-86 291.75,-86 291.75,-86 424,-86 424,-86 430,-86 436,-92 436,-98 436,-98 436,-112 436,-112 436,-118 430,-124 424,-124"/>
<text xml:space="preserve" text-anchor="middle" x="357.88" y="-106.7" font-family="Helvetica,sans-Serif" font-size="14.00" fill="#233238">VM exit</text>
<text xml:space="preserve" text-anchor="middle" x="357.88" y="-91.7" font-family="Helvetica,sans-Serif" font-size="14.00" fill="#233238">(forced control transfer)</text>
</g>
<!-- guest&#45;&gt;exit -->
<g id="edge1" class="edge">
<title>guest&#45;&gt;exit</title>
<path fill="none" stroke="#5b6b73" stroke-width="1.05" d="M146.02,-78.92C183.93,-83.61 230.66,-89.39 270.49,-94.32"/>
<polygon fill="#5b6b73" stroke="#5b6b73" stroke-width="1.05" points="270.06,-96.91 277.83,-95.22 270.7,-91.7 270.06,-96.91"/>
<text xml:space="preserve" text-anchor="middle" x="212.75" y="-94.86" font-family="Times,serif" font-size="14.00">sensitive op</text>
</g>
<!-- decide -->
<g id="node3" class="node">
<title>decide</title>
<path fill="#bfe2f1" stroke="#5b6b73" d="M709,-123C709,-123 591.75,-123 591.75,-123 585.75,-123 579.75,-117 579.75,-111 579.75,-111 579.75,-97 579.75,-97 579.75,-91 585.75,-85 591.75,-85 591.75,-85 709,-85 709,-85 715,-85 721,-91 721,-97 721,-97 721,-111 721,-111 721,-117 715,-123 709,-123"/>
<text xml:space="preserve" text-anchor="middle" x="650.38" y="-105.7" font-family="Helvetica,sans-Serif" font-size="14.00" fill="#233238">hypervisor policy</text>
<text xml:space="preserve" text-anchor="middle" x="650.38" y="-90.7" font-family="Helvetica,sans-Serif" font-size="14.00" fill="#233238">(emulate/allow/deny)</text>
</g>
<!-- exit&#45;&gt;decide -->
<g id="edge2" class="edge">
<title>exit&#45;&gt;decide</title>
<path fill="none" stroke="#5b6b73" stroke-width="1.05" d="M436.34,-104.73C477.84,-104.59 528.85,-104.41 570.55,-104.27"/>
<polygon fill="#5b6b73" stroke="#5b6b73" stroke-width="1.05" points="570.49,-106.9 577.98,-104.25 570.47,-101.65 570.49,-106.9"/>
<text xml:space="preserve" text-anchor="middle" x="507.88" y="-107.85" font-family="Times,serif" font-size="14.00">updates real state</text>
</g>
<!-- hw -->
<g id="node5" class="node">
<title>hw</title>
<path fill="#d9d9d9" stroke="#5b6b73" d="M955.75,-82C955.75,-82 876.75,-82 876.75,-82 870.75,-82 864.75,-76 864.75,-70 864.75,-70 864.75,-56 864.75,-56 864.75,-50 870.75,-44 876.75,-44 876.75,-44 955.75,-44 955.75,-44 961.75,-44 967.75,-50 967.75,-56 967.75,-56 967.75,-70 967.75,-70 967.75,-76 961.75,-82 955.75,-82"/>
<text xml:space="preserve" text-anchor="middle" x="916.25" y="-64.7" font-family="Helvetica,sans-Serif" font-size="14.00" fill="#233238">hardware</text>
<text xml:space="preserve" text-anchor="middle" x="916.25" y="-49.7" font-family="Helvetica,sans-Serif" font-size="14.00" fill="#233238">(real authority)</text>
</g>
<!-- decide&#45;&gt;hw -->
<g id="edge3" class="edge">
<title>decide&#45;&gt;hw</title>
<path fill="none" stroke="#5b6b73" stroke-width="1.05" d="M721.4,-93.12C763.27,-86.61 815.91,-78.44 855.76,-72.24"/>
<polygon fill="#5b6b73" stroke="#5b6b73" stroke-width="1.05" points="856,-74.86 863,-71.12 855.19,-69.68 856,-74.86"/>
<text xml:space="preserve" text-anchor="middle" x="792.88" y="-91.58" font-family="Times,serif" font-size="14.00">updates real state</text>
</g>
<!-- entry -->
<g id="node4" class="node">
<title>entry</title>
<path fill="#d5edf7" stroke="#5b6b73" d="M399.62,-54C399.62,-54 316.12,-54 316.12,-54 310.12,-54 304.12,-48 304.12,-42 304.12,-42 304.12,-28 304.12,-28 304.12,-22 310.12,-16 316.12,-16 316.12,-16 399.62,-16 399.62,-16 405.62,-16 411.62,-22 411.62,-28 411.62,-28 411.62,-42 411.62,-42 411.62,-48 405.62,-54 399.62,-54"/>
<text xml:space="preserve" text-anchor="middle" x="357.88" y="-36.7" font-family="Helvetica,sans-Serif" font-size="14.00" fill="#233238">VM entry</text>
<text xml:space="preserve" text-anchor="middle" x="357.88" y="-21.7" font-family="Helvetica,sans-Serif" font-size="14.00" fill="#233238">(resume guest)</text>
</g>
<!-- entry&#45;&gt;guest -->
<g id="edge5" class="edge">
<title>entry&#45;&gt;guest</title>
<path fill="none" stroke="#5b6b73" stroke-width="1.05" d="M303.91,-41.29C266.66,-45.74 215.64,-51.89 170.75,-57.5 165.63,-58.14 160.36,-58.8 155.04,-59.48"/>
<polygon fill="#5b6b73" stroke="#5b6b73" stroke-width="1.05" points="154.76,-56.87 147.65,-60.42 155.42,-62.08 154.76,-56.87"/>
<text xml:space="preserve" text-anchor="middle" x="212.75" y="-60.7" font-family="Times,serif" font-size="14.00">resume illusion</text>
</g>
<!-- hw&#45;&gt;entry -->
<g id="edge4" class="edge">
<title>hw&#45;&gt;entry</title>
<path fill="none" stroke="#5b6b73" stroke-width="1.05" d="M864.27,-60C826.84,-57.83 774.77,-54.87 729,-52.5 620.5,-46.88 494.08,-41.06 420.59,-37.75"/>
<polygon fill="#5b6b73" stroke="#5b6b73" stroke-width="1.05" points="421.1,-35.14 413.49,-37.43 420.86,-40.39 421.1,-35.14"/>
<text xml:space="preserve" text-anchor="middle" x="650.38" y="-55.7" font-family="Times,serif" font-size="14.00">resume illusion</text>
</g>
</g>
</svg>
