<?xml version="1.0" encoding="UTF-8" standalone="no"?>
<!DOCTYPE svg PUBLIC "-//W3C//DTD SVG 1.1//EN"
 "http://www.w3.org/Graphics/SVG/1.1/DTD/svg11.dtd">
<!-- Generated by graphviz version 14.1.3 (20260303.0454)
 -->
<!-- Title: G Pages: 1 -->
<svg width="1066pt" height="104pt"
 viewBox="0.00 0.00 1066.00 104.00" xmlns="http://www.w3.org/2000/svg" xmlns:xlink="http://www.w3.org/1999/xlink">
<g id="graph0" class="graph" transform="scale(1 1) rotate(0) translate(18 86)">
<title>G</title>
<polygon fill="white" stroke="none" points="-18,18 -18,-86 1048,-86 1048,18 -18,18"/>
<!-- single -->
<g id="node1" class="node">
<title>single</title>
<path fill="#f5f5f5" stroke="#5b6b73" d="M122.5,-68C122.5,-68 12,-68 12,-68 6,-68 0,-62 0,-56 0,-56 0,-12 0,-12 0,-6 6,0 12,0 12,0 122.5,0 122.5,0 128.5,0 134.5,-6 134.5,-12 134.5,-12 134.5,-56 134.5,-56 134.5,-62 128.5,-68 122.5,-68"/>
<text xml:space="preserve" text-anchor="middle" x="67.25" y="-50.7" font-family="Helvetica,sans-Serif" font-size="14.00" fill="#233238">single processor</text>
<text xml:space="preserve" text-anchor="middle" x="67.25" y="-35.7" font-family="Helvetica,sans-Serif" font-size="14.00" fill="#233238">1 CPU</text>
<text xml:space="preserve" text-anchor="middle" x="67.25" y="-20.7" font-family="Helvetica,sans-Serif" font-size="14.00" fill="#233238">1 instruction stream</text>
<text xml:space="preserve" text-anchor="middle" x="67.25" y="-5.7" font-family="Helvetica,sans-Serif" font-size="14.00" fill="#233238">at a time</text>
</g>
<!-- multi -->
<g id="node2" class="node">
<title>multi</title>
<path fill="#ddeaf1" stroke="#5b6b73" d="M405.5,-68C405.5,-68 279.25,-68 279.25,-68 273.25,-68 267.25,-62 267.25,-56 267.25,-56 267.25,-12 267.25,-12 267.25,-6 273.25,0 279.25,0 279.25,0 405.5,0 405.5,0 411.5,0 417.5,-6 417.5,-12 417.5,-12 417.5,-56 417.5,-56 417.5,-62 411.5,-68 405.5,-68"/>
<text xml:space="preserve" text-anchor="middle" x="342.38" y="-50.7" font-family="Helvetica,sans-Serif" font-size="14.00" fill="#233238">multiprogramming /</text>
<text xml:space="preserve" text-anchor="middle" x="342.38" y="-35.7" font-family="Helvetica,sans-Serif" font-size="14.00" fill="#233238">time sharing</text>
<text xml:space="preserve" text-anchor="middle" x="342.38" y="-20.7" font-family="Helvetica,sans-Serif" font-size="14.00" fill="#233238">1 CPU, many jobs</text>
<text xml:space="preserve" text-anchor="middle" x="342.38" y="-5.7" font-family="Helvetica,sans-Serif" font-size="14.00" fill="#233238">switch on wait or timer</text>
</g>
<!-- single&#45;&gt;multi -->
<g id="edge1" class="edge">
<title>single&#45;&gt;multi</title>
<path fill="none" stroke="#5b6b73" stroke-width="1.05" d="M134.71,-34C171.85,-34 218.49,-34 258.05,-34"/>
<polygon fill="#5b6b73" stroke="#5b6b73" stroke-width="1.05" points="257.81,-36.63 265.31,-34 257.81,-31.38 257.81,-36.63"/>
<text xml:space="preserve" text-anchor="middle" x="200.88" y="-37.2" font-family="Times,serif" font-size="14.00">keep CPU busy</text>
</g>
<!-- smp -->
<g id="node3" class="node">
<title>smp</title>
<path fill="#bfe2f1" stroke="#5b6b73" d="M726,-68C726,-68 615.5,-68 615.5,-68 609.5,-68 603.5,-62 603.5,-56 603.5,-56 603.5,-12 603.5,-12 603.5,-6 609.5,0 615.5,0 615.5,0 726,0 726,0 732,0 738,-6 738,-12 738,-12 738,-56 738,-56 738,-62 732,-68 726,-68"/>
<text xml:space="preserve" text-anchor="middle" x="670.75" y="-50.7" font-family="Helvetica,sans-Serif" font-size="14.00" fill="#233238">SMP / multicore</text>
<text xml:space="preserve" text-anchor="middle" x="670.75" y="-35.7" font-family="Helvetica,sans-Serif" font-size="14.00" fill="#233238">many CPUs</text>
<text xml:space="preserve" text-anchor="middle" x="670.75" y="-20.7" font-family="Helvetica,sans-Serif" font-size="14.00" fill="#233238">shared memory,</text>
<text xml:space="preserve" text-anchor="middle" x="670.75" y="-5.7" font-family="Helvetica,sans-Serif" font-size="14.00" fill="#233238">shared coordination</text>
</g>
<!-- multi&#45;&gt;smp -->
<g id="edge2" class="edge">
<title>multi&#45;&gt;smp</title>
<path fill="none" stroke="#5b6b73" stroke-width="1.05" d="M417.84,-34C470.58,-34 541.06,-34 594.07,-34"/>
<polygon fill="#5b6b73" stroke="#5b6b73" stroke-width="1.05" points="593.99,-36.63 601.49,-34 593.99,-31.38 593.99,-36.63"/>
<text xml:space="preserve" text-anchor="middle" x="510.5" y="-37.2" font-family="Times,serif" font-size="14.00">add hardware parallelism</text>
</g>
<!-- cluster -->
<g id="node4" class="node">
<title>cluster</title>
<path fill="#d5edf7" stroke="#5b6b73" d="M1018,-68C1018,-68 884.25,-68 884.25,-68 878.25,-68 872.25,-62 872.25,-56 872.25,-56 872.25,-12 872.25,-12 872.25,-6 878.25,0 884.25,0 884.25,0 1018,0 1018,0 1024,0 1030,-6 1030,-12 1030,-12 1030,-56 1030,-56 1030,-62 1024,-68 1018,-68"/>
<text xml:space="preserve" text-anchor="middle" x="951.12" y="-50.7" font-family="Helvetica,sans-Serif" font-size="14.00" fill="#233238">cluster</text>
<text xml:space="preserve" text-anchor="middle" x="951.12" y="-35.7" font-family="Helvetica,sans-Serif" font-size="14.00" fill="#233238">many computers</text>
<text xml:space="preserve" text-anchor="middle" x="951.12" y="-20.7" font-family="Helvetica,sans-Serif" font-size="14.00" fill="#233238">network coordination,</text>
<text xml:space="preserve" text-anchor="middle" x="951.12" y="-5.7" font-family="Helvetica,sans-Serif" font-size="14.00" fill="#233238">failover, service sharing</text>
</g>
<!-- smp&#45;&gt;cluster -->
<g id="edge3" class="edge">
<title>smp&#45;&gt;cluster</title>
<path fill="none" stroke="#5b6b73" stroke-width="1.05" d="M738.43,-34C775.74,-34 822.69,-34 862.89,-34"/>
<polygon fill="#5b6b73" stroke="#5b6b73" stroke-width="1.05" points="862.8,-36.63 870.3,-34 862.8,-31.38 862.8,-36.63"/>
<text xml:space="preserve" text-anchor="middle" x="805.12" y="-37.2" font-family="Times,serif" font-size="14.00">loosen coupling</text>
</g>
</g>
</svg>
