<?xml version="1.0" encoding="UTF-8" standalone="no"?>
<!DOCTYPE svg PUBLIC "-//W3C//DTD SVG 1.1//EN"
 "http://www.w3.org/Graphics/SVG/1.1/DTD/svg11.dtd">
<!-- Generated by graphviz version 14.1.3 (20260303.0454)
 -->
<!-- Title: G Pages: 1 -->
<svg width="1139pt" height="259pt"
 viewBox="0.00 0.00 1139.00 259.00" xmlns="http://www.w3.org/2000/svg" xmlns:xlink="http://www.w3.org/1999/xlink">
<g id="graph0" class="graph" transform="scale(1 1) rotate(0) translate(18 241)">
<title>G</title>
<polygon fill="white" stroke="none" points="-18,18 -18,-241 1121.5,-241 1121.5,18 -18,18"/>
<g id="clust1" class="cluster">
<title>cluster_kernel</title>
<path fill="#eaf6fb" stroke="#9ec9da" d="M20,-47C20,-47 583.75,-47 583.75,-47 589.75,-47 595.75,-53 595.75,-59 595.75,-59 595.75,-203 595.75,-203 595.75,-209 589.75,-215 583.75,-215 583.75,-215 20,-215 20,-215 14,-215 8,-209 8,-203 8,-203 8,-59 8,-59 8,-53 14,-47 20,-47"/>
<text xml:space="preserve" text-anchor="middle" x="301.87" y="-197.7" font-family="Times,serif" font-size="14.00">kernel fault handler</text>
</g>
<!-- p -->
<g id="node1" class="node">
<title>p</title>
<path fill="#e6f3f9" stroke="#5b6b73" d="M873.62,-93C873.62,-93 785.62,-93 785.62,-93 779.62,-93 773.62,-87 773.62,-81 773.62,-81 773.62,-67 773.62,-67 773.62,-61 779.62,-55 785.62,-55 785.62,-55 873.62,-55 873.62,-55 879.62,-55 885.62,-61 885.62,-67 885.62,-67 885.62,-81 885.62,-81 885.62,-87 879.62,-93 873.62,-93"/>
<text xml:space="preserve" text-anchor="middle" x="829.62" y="-75.7" font-family="Helvetica,sans-Serif" font-size="14.00" fill="#233238">process issues</text>
<text xml:space="preserve" text-anchor="middle" x="829.62" y="-60.7" font-family="Helvetica,sans-Serif" font-size="14.00" fill="#233238">memory access</text>
</g>
<!-- hw -->
<g id="node2" class="node">
<title>hw</title>
<path fill="#ddeaf1" stroke="#5b6b73" d="M1091.5,-40C1091.5,-40 970.5,-40 970.5,-40 964.5,-40 958.5,-34 958.5,-28 958.5,-28 958.5,-14 958.5,-14 958.5,-8 964.5,-2 970.5,-2 970.5,-2 1091.5,-2 1091.5,-2 1097.5,-2 1103.5,-8 1103.5,-14 1103.5,-14 1103.5,-28 1103.5,-28 1103.5,-34 1097.5,-40 1091.5,-40"/>
<text xml:space="preserve" text-anchor="middle" x="1031" y="-22.7" font-family="Helvetica,sans-Serif" font-size="14.00" fill="#233238">CPU detects violation</text>
<text xml:space="preserve" text-anchor="middle" x="1031" y="-7.7" font-family="Helvetica,sans-Serif" font-size="14.00" fill="#233238">(mapping/protection)</text>
</g>
<!-- p&#45;&gt;hw -->
<g id="edge1" class="edge">
<title>p&#45;&gt;hw</title>
<path fill="none" stroke="#5b6b73" stroke-width="1.05" d="M885.9,-59.31C905.55,-54.08 928.09,-48.09 949.42,-42.42"/>
<polygon fill="#5b6b73" stroke="#5b6b73" stroke-width="1.05" points="950.05,-44.97 956.62,-40.51 948.7,-39.9 950.05,-44.97"/>
</g>
<!-- inspect -->
<g id="node3" class="node">
<title>inspect</title>
<path fill="#bfe2f1" stroke="#5b6b73" d="M166.25,-101C166.25,-101 28,-101 28,-101 22,-101 16,-95 16,-89 16,-89 16,-75 16,-75 16,-69 22,-63 28,-63 28,-63 166.25,-63 166.25,-63 172.25,-63 178.25,-69 178.25,-75 178.25,-75 178.25,-89 178.25,-89 178.25,-95 172.25,-101 166.25,-101"/>
<text xml:space="preserve" text-anchor="middle" x="97.12" y="-83.7" font-family="Helvetica,sans-Serif" font-size="14.00" fill="#233238">inspect fault info</text>
<text xml:space="preserve" text-anchor="middle" x="97.12" y="-68.7" font-family="Helvetica,sans-Serif" font-size="14.00" fill="#233238">(addr, type, page tables)</text>
</g>
<!-- hw&#45;&gt;inspect -->
<g id="edge2" class="edge">
<title>hw&#45;&gt;inspect</title>
<path fill="none" stroke="#5b6b73" stroke-width="1.05" d="M958.21,-9.76C920.36,-4.77 873.09,0 830.62,0 313,0 313,0 313,0 247.36,0 177.41,-33.82 135.75,-58.02"/>
<polygon fill="#5b6b73" stroke="#5b6b73" stroke-width="1.05" points="134.55,-55.68 129.43,-61.76 137.22,-60.2 134.55,-55.68"/>
</g>
<!-- decide -->
<g id="node4" class="node">
<title>decide</title>
<polygon fill="#d5edf7" stroke="#5b6b73" points="314,-109 237.25,-91 314,-73 390.75,-91 314,-109"/>
<text xml:space="preserve" text-anchor="middle" x="314" y="-85.2" font-family="Helvetica,sans-Serif" font-size="14.00" fill="#233238">repairable?</text>
</g>
<!-- inspect&#45;&gt;decide -->
<g id="edge3" class="edge">
<title>inspect&#45;&gt;decide</title>
<path fill="none" stroke="#5b6b73" stroke-width="1.05" d="M178.75,-85.38C198.18,-86.19 218.86,-87.06 238.02,-87.86"/>
<polygon fill="#5b6b73" stroke="#5b6b73" stroke-width="1.05" points="237.8,-90.48 245.41,-88.17 238.02,-85.23 237.8,-90.48"/>
</g>
<!-- fix -->
<g id="node5" class="node">
<title>fix</title>
<path fill="#bfe2f1" stroke="#5b6b73" d="M574.62,-182.5C574.62,-182.5 479.87,-182.5 479.87,-182.5 473.87,-182.5 467.87,-176.5 467.87,-170.5 467.87,-170.5 467.87,-141.5 467.87,-141.5 467.87,-135.5 473.87,-129.5 479.87,-129.5 479.87,-129.5 574.62,-129.5 574.62,-129.5 580.62,-129.5 586.62,-135.5 586.62,-141.5 586.62,-141.5 586.62,-170.5 586.62,-170.5 586.62,-176.5 580.62,-182.5 574.62,-182.5"/>
<text xml:space="preserve" text-anchor="middle" x="527.25" y="-165.2" font-family="Helvetica,sans-Serif" font-size="14.00" fill="#233238">repair</text>
<text xml:space="preserve" text-anchor="middle" x="527.25" y="-150.2" font-family="Helvetica,sans-Serif" font-size="14.00" fill="#233238">(page in/allocate,</text>
<text xml:space="preserve" text-anchor="middle" x="527.25" y="-135.2" font-family="Helvetica,sans-Serif" font-size="14.00" fill="#233238">update mapping)</text>
</g>
<!-- decide&#45;&gt;fix -->
<g id="edge4" class="edge">
<title>decide&#45;&gt;fix</title>
<path fill="none" stroke="#5b6b73" stroke-width="1.05" d="M348.47,-101.3C378.11,-110.42 422.26,-124 459.15,-135.35"/>
<polygon fill="#5b6b73" stroke="#5b6b73" stroke-width="1.05" points="457.93,-137.72 465.87,-137.42 459.47,-132.71 457.93,-137.72"/>
<text xml:space="preserve" text-anchor="middle" x="428.75" y="-130.59" font-family="Times,serif" font-size="14.00">yes</text>
</g>
<!-- kill -->
<g id="node6" class="node">
<title>kill</title>
<path fill="#ffecec" stroke="#5b6b73" d="M575.75,-93C575.75,-93 478.75,-93 478.75,-93 472.75,-93 466.75,-87 466.75,-81 466.75,-81 466.75,-67 466.75,-67 466.75,-61 472.75,-55 478.75,-55 478.75,-55 575.75,-55 575.75,-55 581.75,-55 587.75,-61 587.75,-67 587.75,-67 587.75,-81 587.75,-81 587.75,-87 581.75,-93 575.75,-93"/>
<text xml:space="preserve" text-anchor="middle" x="527.25" y="-75.7" font-family="Helvetica,sans-Serif" font-size="14.00" fill="#233238">fatal</text>
<text xml:space="preserve" text-anchor="middle" x="527.25" y="-60.7" font-family="Helvetica,sans-Serif" font-size="14.00" fill="#233238">(signal/terminate)</text>
</g>
<!-- decide&#45;&gt;kill -->
<g id="edge6" class="edge">
<title>decide&#45;&gt;kill</title>
<path fill="none" stroke="#5b6b73" stroke-width="1.05" d="M373,-86.33C399.24,-84.22 430.42,-81.71 457.79,-79.51"/>
<polygon fill="#5b6b73" stroke="#5b6b73" stroke-width="1.05" points="457.69,-82.15 464.95,-78.93 457.26,-76.92 457.69,-82.15"/>
<text xml:space="preserve" text-anchor="middle" x="428.75" y="-85.7" font-family="Times,serif" font-size="14.00">no</text>
</g>
<!-- resume -->
<g id="node7" class="node">
<title>resume</title>
<path fill="#e6f3f9" stroke="#5b6b73" d="M887.5,-175C887.5,-175 771.75,-175 771.75,-175 765.75,-175 759.75,-169 759.75,-163 759.75,-163 759.75,-149 759.75,-149 759.75,-143 765.75,-137 771.75,-137 771.75,-137 887.5,-137 887.5,-137 893.5,-137 899.5,-143 899.5,-149 899.5,-149 899.5,-163 899.5,-163 899.5,-169 893.5,-175 887.5,-175"/>
<text xml:space="preserve" text-anchor="middle" x="829.62" y="-157.7" font-family="Helvetica,sans-Serif" font-size="14.00" fill="#233238">resume execution</text>
<text xml:space="preserve" text-anchor="middle" x="829.62" y="-142.7" font-family="Helvetica,sans-Serif" font-size="14.00" fill="#233238">at faulting instruction</text>
</g>
<!-- fix&#45;&gt;resume -->
<g id="edge5" class="edge">
<title>fix&#45;&gt;resume</title>
<path fill="none" stroke="#5b6b73" stroke-width="1.05" d="M586.88,-156C633.5,-156 699.17,-156 750.3,-156"/>
<polygon fill="#5b6b73" stroke="#5b6b73" stroke-width="1.05" points="750.26,-158.63 757.76,-156 750.26,-153.38 750.26,-158.63"/>
</g>
<!-- kill&#45;&gt;p -->
<g id="edge7" class="edge">
<title>kill&#45;&gt;p</title>
<path fill="none" stroke="#5b6b73" stroke-width="1.05" stroke-dasharray="5,2" d="M587.95,-74C638.98,-74 712.22,-74 764.49,-74"/>
<polygon fill="#5b6b73" stroke="#5b6b73" stroke-width="1.05" points="764.25,-76.63 771.75,-74 764.25,-71.38 764.25,-76.63"/>
<text xml:space="preserve" text-anchor="middle" x="673.75" y="-77.2" font-family="Times,serif" font-size="14.00" fill="#5b6b73">process ends/handles</text>
</g>
</g>
</svg>
