<?xml version="1.0" encoding="UTF-8" standalone="no"?>
<!DOCTYPE svg PUBLIC "-//W3C//DTD SVG 1.1//EN"
 "http://www.w3.org/Graphics/SVG/1.1/DTD/svg11.dtd">
<!-- Generated by graphviz version 14.1.3 (20260303.0454)
 -->
<!-- Title: G Pages: 1 -->
<svg width="214pt" height="216pt"
 viewBox="0.00 0.00 214.00 216.00" xmlns="http://www.w3.org/2000/svg" xmlns:xlink="http://www.w3.org/1999/xlink">
<g id="graph0" class="graph" transform="scale(1 1) rotate(0) translate(14.4 201.4)">
<title>G</title>
<polygon fill="white" stroke="none" points="-14.4,14.4 -14.4,-201.4 199.15,-201.4 199.15,14.4 -14.4,14.4"/>
<!-- memory -->
<g id="node1" class="node">
<title>memory</title>
<polygon fill="#f5f5f5" stroke="none" points="1,-149 1,-186 49.25,-186 49.25,-149 1,-149"/>
<polygon fill="none" stroke="#5b6b73" points="1,-149 1,-186 49.25,-186 49.25,-149 1,-149"/>
<text xml:space="preserve" text-anchor="start" x="21.38" y="-163.75" font-family="Helvetica,sans-Serif" font-size="14.00">0</text>
<polygon fill="#d9d9d9" stroke="none" points="49.25,-149 49.25,-186 183.75,-186 183.75,-149 49.25,-149"/>
<polygon fill="none" stroke="#5b6b73" points="49.25,-149 49.25,-186 183.75,-186 183.75,-149 49.25,-149"/>
<text xml:space="preserve" text-anchor="start" x="60.25" y="-162.7" font-family="Helvetica,sans-Serif" font-weight="bold" font-size="14.00">operating system</text>
<polygon fill="#f5f5f5" stroke="none" points="1,-112 1,-149 49.25,-149 49.25,-112 1,-112"/>
<polygon fill="none" stroke="#5b6b73" points="1,-112 1,-149 49.25,-149 49.25,-112 1,-112"/>
<polygon fill="#bfe2f1" stroke="none" points="49.25,-112 49.25,-149 183.75,-149 183.75,-112 49.25,-112"/>
<polygon fill="none" stroke="#5b6b73" points="49.25,-112 49.25,-149 183.75,-149 183.75,-112 49.25,-112"/>
<text xml:space="preserve" text-anchor="start" x="101.88" y="-126.75" font-family="Helvetica,sans-Serif" font-size="14.00">job 1</text>
<polygon fill="#f5f5f5" stroke="none" points="1,-75 1,-112 49.25,-112 49.25,-75 1,-75"/>
<polygon fill="none" stroke="#5b6b73" points="1,-75 1,-112 49.25,-112 49.25,-75 1,-75"/>
<polygon fill="#c9e7f4" stroke="none" points="49.25,-75 49.25,-112 183.75,-112 183.75,-75 49.25,-75"/>
<polygon fill="none" stroke="#5b6b73" points="49.25,-75 49.25,-112 183.75,-112 183.75,-75 49.25,-75"/>
<text xml:space="preserve" text-anchor="start" x="101.88" y="-89.75" font-family="Helvetica,sans-Serif" font-size="14.00">job 2</text>
<polygon fill="#f5f5f5" stroke="none" points="1,-38 1,-75 49.25,-75 49.25,-38 1,-38"/>
<polygon fill="none" stroke="#5b6b73" points="1,-38 1,-75 49.25,-75 49.25,-38 1,-38"/>
<polygon fill="#d5edf7" stroke="none" points="49.25,-38 49.25,-75 183.75,-75 183.75,-38 49.25,-38"/>
<polygon fill="none" stroke="#5b6b73" points="49.25,-38 49.25,-75 183.75,-75 183.75,-38 49.25,-38"/>
<text xml:space="preserve" text-anchor="start" x="101.88" y="-52.75" font-family="Helvetica,sans-Serif" font-size="14.00">job 3</text>
<polygon fill="#f5f5f5" stroke="none" points="1,-1 1,-38 49.25,-38 49.25,-1 1,-1"/>
<polygon fill="none" stroke="#5b6b73" points="1,-1 1,-38 49.25,-38 49.25,-1 1,-1"/>
<text xml:space="preserve" text-anchor="start" x="12" y="-15.75" font-family="Helvetica,sans-Serif" font-size="14.00">Max</text>
<polygon fill="#e6f3f9" stroke="none" points="49.25,-1 49.25,-38 183.75,-38 183.75,-1 49.25,-1"/>
<polygon fill="none" stroke="#5b6b73" points="49.25,-1 49.25,-38 183.75,-38 183.75,-1 49.25,-1"/>
<text xml:space="preserve" text-anchor="start" x="101.88" y="-15.75" font-family="Helvetica,sans-Serif" font-size="14.00">job 4</text>
<polygon fill="none" stroke="#5b6b73" points="0,0 0,-187 184.75,-187 184.75,0 0,0"/>
</g>
</g>
</svg>
