<?xml version="1.0" encoding="UTF-8" standalone="no"?>
<!DOCTYPE svg PUBLIC "-//W3C//DTD SVG 1.1//EN"
 "http://www.w3.org/Graphics/SVG/1.1/DTD/svg11.dtd">
<!-- Generated by graphviz version 14.1.3 (20260303.0454)
 -->
<!-- Title: G Pages: 1 -->
<svg width="1243pt" height="155pt"
 viewBox="0.00 0.00 1243.00 155.00" xmlns="http://www.w3.org/2000/svg" xmlns:xlink="http://www.w3.org/1999/xlink">
<g id="graph0" class="graph" transform="scale(1 1) rotate(0) translate(18 136.5)">
<title>G</title>
<polygon fill="white" stroke="none" points="-18,18 -18,-136.5 1224.85,-136.5 1224.85,18 -18,18"/>
<!-- loop -->
<g id="node1" class="node">
<title>loop</title>
<path fill="#bfe2f1" stroke="#5b6b73" d="M189.6,-61C189.6,-61 12,-61 12,-61 6,-61 0,-55 0,-49 0,-49 0,-35 0,-35 0,-29 6,-23 12,-23 12,-23 189.6,-23 189.6,-23 195.6,-23 201.6,-29 201.6,-35 201.6,-35 201.6,-49 201.6,-49 201.6,-55 195.6,-61 189.6,-61"/>
<text xml:space="preserve" text-anchor="middle" x="100.8" y="-43.7" font-family="Helvetica,sans-Serif" font-size="14.00" fill="#233238">How to use this file</text>
<text xml:space="preserve" text-anchor="middle" x="100.8" y="-28.7" font-family="Helvetica,sans-Serif" font-size="14.00" fill="#233238">(master the control stories)</text>
</g>
<!-- mm -->
<g id="node2" class="node">
<title>mm</title>
<path fill="#e6f3f9" stroke="#5b6b73" d="M364.1,-107C364.1,-107 274.6,-107 274.6,-107 268.6,-107 262.6,-101 262.6,-95 262.6,-95 262.6,-81 262.6,-81 262.6,-75 268.6,-69 274.6,-69 274.6,-69 364.1,-69 364.1,-69 370.1,-69 376.1,-75 376.1,-81 376.1,-81 376.1,-95 376.1,-95 376.1,-101 370.1,-107 364.1,-107"/>
<text xml:space="preserve" text-anchor="middle" x="319.35" y="-89.7" font-family="Helvetica,sans-Serif" font-size="14.00" fill="#233238">mental models</text>
<text xml:space="preserve" text-anchor="middle" x="319.35" y="-74.7" font-family="Helvetica,sans-Serif" font-size="14.00" fill="#233238">(what the OS is)</text>
</g>
<!-- loop&#45;&gt;mm -->
<g id="edge1" class="edge">
<title>loop&#45;&gt;mm</title>
<path fill="none" stroke="#5b6b73" stroke-width="1.05" d="M193.32,-61.44C213.55,-65.74 234.58,-70.21 253.49,-74.22"/>
<polygon fill="#5b6b73" stroke="#5b6b73" stroke-width="1.05" points="252.87,-76.77 260.75,-75.76 253.96,-71.64 252.87,-76.77"/>
</g>
<!-- mods -->
<g id="node3" class="node">
<title>mods</title>
<path fill="#e6f3f9" stroke="#5b6b73" d="M585.85,-118.5C585.85,-118.5 449.1,-118.5 449.1,-118.5 443.1,-118.5 437.1,-112.5 437.1,-106.5 437.1,-106.5 437.1,-77.5 437.1,-77.5 437.1,-71.5 443.1,-65.5 449.1,-65.5 449.1,-65.5 585.85,-65.5 585.85,-65.5 591.85,-65.5 597.85,-71.5 597.85,-77.5 597.85,-77.5 597.85,-106.5 597.85,-106.5 597.85,-112.5 591.85,-118.5 585.85,-118.5"/>
<text xml:space="preserve" text-anchor="middle" x="517.47" y="-101.2" font-family="Helvetica,sans-Serif" font-size="14.00" fill="#233238">mastery modules</text>
<text xml:space="preserve" text-anchor="middle" x="517.47" y="-86.2" font-family="Helvetica,sans-Serif" font-size="14.00" fill="#233238">(problem &#45;&gt; mechanism</text>
<text xml:space="preserve" text-anchor="middle" x="517.47" y="-71.2" font-family="Helvetica,sans-Serif" font-size="14.00" fill="#233238">&#45;&gt; invariants &#45;&gt; breaks)</text>
</g>
<!-- mm&#45;&gt;mods -->
<g id="edge2" class="edge">
<title>mm&#45;&gt;mods</title>
<path fill="none" stroke="#5b6b73" stroke-width="1.05" d="M376.55,-89.15C392.55,-89.47 410.38,-89.84 427.82,-90.19"/>
<polygon fill="#5b6b73" stroke="#5b6b73" stroke-width="1.05" points="427.74,-92.82 435.29,-90.34 427.85,-87.57 427.74,-92.82"/>
</g>
<!-- traces -->
<g id="node4" class="node">
<title>traces</title>
<path fill="#e6f3f9" stroke="#5b6b73" d="M818.1,-109C818.1,-109 670.85,-109 670.85,-109 664.85,-109 658.85,-103 658.85,-97 658.85,-97 658.85,-83 658.85,-83 658.85,-77 664.85,-71 670.85,-71 670.85,-71 818.1,-71 818.1,-71 824.1,-71 830.1,-77 830.1,-83 830.1,-83 830.1,-97 830.1,-97 830.1,-103 824.1,-109 818.1,-109"/>
<text xml:space="preserve" text-anchor="middle" x="744.47" y="-91.7" font-family="Helvetica,sans-Serif" font-size="14.00" fill="#233238">canonical traces</text>
<text xml:space="preserve" text-anchor="middle" x="744.47" y="-76.7" font-family="Helvetica,sans-Serif" font-size="14.00" fill="#233238">(reproduce from memory)</text>
</g>
<!-- mods&#45;&gt;traces -->
<g id="edge3" class="edge">
<title>mods&#45;&gt;traces</title>
<path fill="none" stroke="#5b6b73" stroke-width="1.05" d="M598.12,-91.29C614.8,-91.14 632.55,-90.99 649.69,-90.83"/>
<polygon fill="#5b6b73" stroke="#5b6b73" stroke-width="1.05" points="649.53,-93.46 657.01,-90.77 649.48,-88.21 649.53,-93.46"/>
</g>
<!-- qs -->
<g id="node5" class="node">
<title>qs</title>
<path fill="#ddeaf1" stroke="#5b6b73" d="M997.85,-107C997.85,-107 903.1,-107 903.1,-107 897.1,-107 891.1,-101 891.1,-95 891.1,-95 891.1,-81 891.1,-81 891.1,-75 897.1,-69 903.1,-69 903.1,-69 997.85,-69 997.85,-69 1003.85,-69 1009.85,-75 1009.85,-81 1009.85,-81 1009.85,-95 1009.85,-95 1009.85,-101 1003.85,-107 997.85,-107"/>
<text xml:space="preserve" text-anchor="middle" x="950.47" y="-89.7" font-family="Helvetica,sans-Serif" font-size="14.00" fill="#233238">key questions</text>
<text xml:space="preserve" text-anchor="middle" x="950.47" y="-74.7" font-family="Helvetica,sans-Serif" font-size="14.00" fill="#233238">(retrieval checks)</text>
</g>
<!-- traces&#45;&gt;qs -->
<g id="edge4" class="edge">
<title>traces&#45;&gt;qs</title>
<path fill="none" stroke="#5b6b73" stroke-width="1.05" d="M830.51,-89.17C847.58,-89 865.29,-88.83 881.68,-88.66"/>
<polygon fill="#5b6b73" stroke="#5b6b73" stroke-width="1.05" points="881.57,-91.29 889.04,-88.59 881.52,-86.04 881.57,-91.29"/>
</g>
<!-- code -->
<g id="node6" class="node">
<title>code</title>
<path fill="#e6f3f9" stroke="#5b6b73" d="M1194.85,-61C1194.85,-61 1082.85,-61 1082.85,-61 1076.85,-61 1070.85,-55 1070.85,-49 1070.85,-49 1070.85,-35 1070.85,-35 1070.85,-29 1076.85,-23 1082.85,-23 1082.85,-23 1194.85,-23 1194.85,-23 1200.85,-23 1206.85,-29 1206.85,-35 1206.85,-35 1206.85,-49 1206.85,-49 1206.85,-55 1200.85,-61 1194.85,-61"/>
<text xml:space="preserve" text-anchor="middle" x="1138.85" y="-43.7" font-family="Helvetica,sans-Serif" font-size="14.00" fill="#233238">bridge into kernels</text>
<text xml:space="preserve" text-anchor="middle" x="1138.85" y="-28.7" font-family="Helvetica,sans-Serif" font-size="14.00" fill="#233238">(map ideas to code)</text>
</g>
<!-- qs&#45;&gt;code -->
<g id="edge5" class="edge">
<title>qs&#45;&gt;code</title>
<path fill="none" stroke="#5b6b73" stroke-width="1.05" d="M1010.19,-73.51C1026.69,-69.43 1044.88,-64.95 1062.22,-60.67"/>
<polygon fill="#5b6b73" stroke="#5b6b73" stroke-width="1.05" points="1062.46,-63.31 1069.11,-58.97 1061.2,-58.21 1062.46,-63.31"/>
</g>
<!-- code&#45;&gt;loop -->
<g id="edge6" class="edge">
<title>code&#45;&gt;loop</title>
<path fill="none" stroke="#5b6b73" stroke-width="1.05" d="M1070.39,-30.36C992.4,-17.93 860.06,0 745.47,0 516.47,0 516.47,0 516.47,0 412.45,0 294.49,-13.25 211.05,-24.86"/>
<polygon fill="#5b6b73" stroke="#5b6b73" stroke-width="1.05" points="210.7,-22.26 203.64,-25.9 211.43,-27.46 210.7,-22.26"/>
</g>
</g>
</svg>
