<?xml version="1.0" encoding="UTF-8" standalone="no"?>
<!DOCTYPE svg PUBLIC "-//W3C//DTD SVG 1.1//EN"
 "http://www.w3.org/Graphics/SVG/1.1/DTD/svg11.dtd">
<!-- Generated by graphviz version 14.1.3 (20260303.0454)
 -->
<!-- Title: G Pages: 1 -->
<svg width="836pt" height="155pt"
 viewBox="0.00 0.00 836.00 155.00" xmlns="http://www.w3.org/2000/svg" xmlns:xlink="http://www.w3.org/1999/xlink">
<g id="graph0" class="graph" transform="scale(1 1) rotate(0) translate(14.4 140.4)">
<title>G</title>
<polygon fill="white" stroke="none" points="-14.4,14.4 -14.4,-140.4 821.15,-140.4 821.15,14.4 -14.4,14.4"/>
<!-- timeline -->
<g id="node1" class="node">
<title>timeline</title>
<polygon fill="#f5f5f5" stroke="none" points="1,-94 1,-125 81.5,-125 81.5,-94 1,-94"/>
<polygon fill="none" stroke="#5b6b73" points="1,-94 1,-125 81.5,-125 81.5,-94 1,-94"/>
<text xml:space="preserve" text-anchor="start" x="25.5" y="-104.7" font-family="Helvetica,sans-Serif" font-weight="bold" font-size="14.00">Lane</text>
<polygon fill="#f5f5f5" stroke="none" points="81.5,-94 81.5,-125 236.25,-125 236.25,-94 81.5,-94"/>
<polygon fill="none" stroke="#5b6b73" points="81.5,-94 81.5,-125 236.25,-125 236.25,-94 81.5,-94"/>
<text xml:space="preserve" text-anchor="start" x="111.25" y="-104.7" font-family="Helvetica,sans-Serif" font-weight="bold" font-size="14.00">Before request</text>
<polygon fill="#f5f5f5" stroke="none" points="236.25,-94 236.25,-125 339.25,-125 339.25,-94 236.25,-94"/>
<polygon fill="none" stroke="#5b6b73" points="236.25,-94 236.25,-125 339.25,-125 339.25,-94 236.25,-94"/>
<text xml:space="preserve" text-anchor="start" x="252.12" y="-104.7" font-family="Helvetica,sans-Serif" font-weight="bold" font-size="14.00">I/O request</text>
<polygon fill="#f5f5f5" stroke="none" points="339.25,-94 339.25,-125 494,-125 494,-94 339.25,-94"/>
<polygon fill="none" stroke="#5b6b73" points="339.25,-94 339.25,-125 494,-125 494,-94 339.25,-94"/>
<text xml:space="preserve" text-anchor="start" x="351" y="-104.7" font-family="Helvetica,sans-Serif" font-weight="bold" font-size="14.00">Transfer in progress</text>
<polygon fill="#f5f5f5" stroke="none" points="494,-94 494,-125 651,-125 651,-94 494,-94"/>
<polygon fill="none" stroke="#5b6b73" points="494,-94 494,-125 651,-125 651,-94 494,-94"/>
<text xml:space="preserve" text-anchor="start" x="527.5" y="-104.7" font-family="Helvetica,sans-Serif" font-weight="bold" font-size="14.00">Transfer done</text>
<polygon fill="#f5f5f5" stroke="none" points="651,-94 651,-125 805.75,-125 805.75,-94 651,-94"/>
<polygon fill="none" stroke="#5b6b73" points="651,-94 651,-125 805.75,-125 805.75,-94 651,-94"/>
<text xml:space="preserve" text-anchor="start" x="683" y="-104.7" font-family="Helvetica,sans-Serif" font-weight="bold" font-size="14.00">After interrupt</text>
<polygon fill="#e6f3f9" stroke="none" points="1,-63 1,-94 81.5,-94 81.5,-63 1,-63"/>
<polygon fill="none" stroke="#5b6b73" points="1,-63 1,-94 81.5,-94 81.5,-63 1,-63"/>
<text xml:space="preserve" text-anchor="start" x="27" y="-73.7" font-family="Helvetica,sans-Serif" font-weight="bold" font-size="14.00">CPU</text>
<polygon fill="none" stroke="#5b6b73" points="81.5,-63 81.5,-94 236.25,-94 236.25,-63 81.5,-63"/>
<text xml:space="preserve" text-anchor="start" x="89.5" y="-74.75" font-family="Helvetica,sans-Serif" font-size="14.00">user process executing</text>
<polygon fill="none" stroke="#5b6b73" points="236.25,-63 236.25,-94 339.25,-94 339.25,-63 236.25,-63"/>
<text xml:space="preserve" text-anchor="start" x="244.25" y="-74.75" font-family="Helvetica,sans-Serif" font-size="14.00">issues request</text>
<polygon fill="none" stroke="#5b6b73" points="339.25,-63 339.25,-94 494,-94 494,-63 339.25,-63"/>
<text xml:space="preserve" text-anchor="start" x="347.25" y="-74.75" font-family="Helvetica,sans-Serif" font-size="14.00">user process executing</text>
<polygon fill="none" stroke="#5b6b73" points="494,-63 494,-94 651,-94 651,-63 494,-63"/>
<text xml:space="preserve" text-anchor="start" x="502" y="-74.75" font-family="Helvetica,sans-Serif" font-size="14.00">I/O interrupt processing</text>
<polygon fill="none" stroke="#5b6b73" points="651,-63 651,-94 805.75,-94 805.75,-63 651,-63"/>
<text xml:space="preserve" text-anchor="start" x="659" y="-74.75" font-family="Helvetica,sans-Serif" font-size="14.00">user process executing</text>
<polygon fill="#e6f3f9" stroke="none" points="1,-32 1,-63 81.5,-63 81.5,-32 1,-32"/>
<polygon fill="none" stroke="#5b6b73" points="1,-32 1,-63 81.5,-63 81.5,-32 1,-32"/>
<text xml:space="preserve" text-anchor="start" x="9" y="-42.7" font-family="Helvetica,sans-Serif" font-weight="bold" font-size="14.00">I/O device</text>
<polygon fill="none" stroke="#5b6b73" points="81.5,-32 81.5,-63 236.25,-63 236.25,-32 81.5,-32"/>
<text xml:space="preserve" text-anchor="start" x="148.38" y="-43.75" font-family="Helvetica,sans-Serif" font-size="14.00">idle</text>
<polygon fill="none" stroke="#5b6b73" points="236.25,-32 236.25,-63 339.25,-63 339.25,-32 236.25,-32"/>
<text xml:space="preserve" text-anchor="start" x="246.5" y="-43.75" font-family="Helvetica,sans-Serif" font-size="14.00">starts transfer</text>
<polygon fill="none" stroke="#5b6b73" points="339.25,-32 339.25,-63 494,-63 494,-32 339.25,-32"/>
<text xml:space="preserve" text-anchor="start" x="382.5" y="-43.75" font-family="Helvetica,sans-Serif" font-size="14.00">transferring</text>
<polygon fill="none" stroke="#5b6b73" points="494,-32 494,-63 651,-63 651,-32 494,-32"/>
<text xml:space="preserve" text-anchor="start" x="516.62" y="-43.75" font-family="Helvetica,sans-Serif" font-size="14.00">signals completion</text>
<polygon fill="none" stroke="#5b6b73" points="651,-32 651,-63 805.75,-63 805.75,-32 651,-32"/>
<text xml:space="preserve" text-anchor="start" x="717.88" y="-43.75" font-family="Helvetica,sans-Serif" font-size="14.00">idle</text>
<polygon fill="#e6f3f9" stroke="none" points="1,-1 1,-32 81.5,-32 81.5,-1 1,-1"/>
<polygon fill="none" stroke="#5b6b73" points="1,-1 1,-32 81.5,-32 81.5,-1 1,-1"/>
<text xml:space="preserve" text-anchor="start" x="22.88" y="-11.7" font-family="Helvetica,sans-Serif" font-weight="bold" font-size="14.00">Event</text>
<polygon fill="none" stroke="#5b6b73" points="81.5,-1 81.5,-32 236.25,-32 236.25,-1 81.5,-1"/>
<text xml:space="preserve" text-anchor="start" x="156.62" y="-12.75" font-family="Helvetica,sans-Serif" font-size="14.00">&#45;</text>
<polygon fill="none" stroke="#5b6b73" points="236.25,-1 236.25,-32 339.25,-32 339.25,-1 236.25,-1"/>
<text xml:space="preserve" text-anchor="start" x="254" y="-12.75" font-family="Helvetica,sans-Serif" font-size="14.00">I/O request</text>
<polygon fill="none" stroke="#5b6b73" points="339.25,-1 339.25,-32 494,-32 494,-1 339.25,-1"/>
<text xml:space="preserve" text-anchor="start" x="414.38" y="-12.75" font-family="Helvetica,sans-Serif" font-size="14.00">&#45;</text>
<polygon fill="none" stroke="#5b6b73" points="494,-1 494,-32 651,-32 651,-1 494,-1"/>
<text xml:space="preserve" text-anchor="start" x="527.5" y="-12.75" font-family="Helvetica,sans-Serif" font-size="14.00">interrupt raised</text>
<polygon fill="none" stroke="#5b6b73" points="651,-1 651,-32 805.75,-32 805.75,-1 651,-1"/>
<text xml:space="preserve" text-anchor="start" x="677.38" y="-12.75" font-family="Helvetica,sans-Serif" font-size="14.00">service complete</text>
<polygon fill="none" stroke="#5b6b73" points="0,0 0,-126 806.75,-126 806.75,0 0,0"/>
</g>
</g>
</svg>
