<?xml version="1.0" encoding="UTF-8" standalone="no"?>
<!DOCTYPE svg PUBLIC "-//W3C//DTD SVG 1.1//EN"
 "http://www.w3.org/Graphics/SVG/1.1/DTD/svg11.dtd">
<!-- Generated by graphviz version 14.1.3 (20260303.0454)
 -->
<!-- Title: G Pages: 1 -->
<svg width="460pt" height="482pt"
 viewBox="0.00 0.00 460.00 482.00" xmlns="http://www.w3.org/2000/svg" xmlns:xlink="http://www.w3.org/1999/xlink">
<g id="graph0" class="graph" transform="scale(1 1) rotate(0) translate(18 464)">
<title>G</title>
<polygon fill="white" stroke="none" points="-18,18 -18,-464 441.62,-464 441.62,18 -18,18"/>
<!-- app -->
<g id="node1" class="node">
<title>app</title>
<path fill="#e6f3f9" stroke="#5b6b73" d="M82.38,-446C82.38,-446 17.63,-446 17.63,-446 11.63,-446 5.62,-440 5.62,-434 5.62,-434 5.62,-420 5.62,-420 5.62,-414 11.62,-408 17.62,-408 17.62,-408 82.38,-408 82.38,-408 88.38,-408 94.38,-414 94.38,-420 94.38,-420 94.38,-434 94.38,-434 94.38,-440 88.38,-446 82.38,-446"/>
<text xml:space="preserve" text-anchor="middle" x="50" y="-428.7" font-family="Helvetica,sans-Serif" font-size="14.00" fill="#233238">application</text>
<text xml:space="preserve" text-anchor="middle" x="50" y="-413.7" font-family="Helvetica,sans-Serif" font-size="14.00" fill="#233238">reads/writes</text>
</g>
<!-- cpu -->
<g id="node2" class="node">
<title>cpu</title>
<path fill="#f5f5f5" stroke="#5b6b73" d="M83.5,-351.5C83.5,-351.5 16.5,-351.5 16.5,-351.5 10.5,-351.5 4.5,-345.5 4.5,-339.5 4.5,-339.5 4.5,-325.5 4.5,-325.5 4.5,-319.5 10.5,-313.5 16.5,-313.5 16.5,-313.5 83.5,-313.5 83.5,-313.5 89.5,-313.5 95.5,-319.5 95.5,-325.5 95.5,-325.5 95.5,-339.5 95.5,-339.5 95.5,-345.5 89.5,-351.5 83.5,-351.5"/>
<text xml:space="preserve" text-anchor="middle" x="50" y="-334.2" font-family="Helvetica,sans-Serif" font-size="14.00" fill="#233238">CPU caches</text>
<text xml:space="preserve" text-anchor="middle" x="50" y="-319.2" font-family="Helvetica,sans-Serif" font-size="14.00" fill="#233238">(fast copies)</text>
</g>
<!-- app&#45;&gt;cpu -->
<g id="edge1" class="edge">
<title>app&#45;&gt;cpu</title>
<path fill="none" stroke="#5b6b73" stroke-width="1.05" d="M50,-407.72C50,-394.3 50,-375.83 50,-360.67"/>
<polygon fill="#5b6b73" stroke="#5b6b73" stroke-width="1.05" points="52.63,-360.83 50,-353.33 47.38,-360.83 52.63,-360.83"/>
<text xml:space="preserve" text-anchor="middle" x="81.88" y="-374.7" font-family="Times,serif" font-size="14.00">loads/stores</text>
</g>
<!-- mem -->
<g id="node3" class="node">
<title>mem</title>
<path fill="#f5f5f5" stroke="#5b6b73" d="M88,-242C88,-242 12,-242 12,-242 6,-242 0,-236 0,-230 0,-230 0,-216 0,-216 0,-210 6,-204 12,-204 12,-204 88,-204 88,-204 94,-204 100,-210 100,-216 100,-216 100,-230 100,-230 100,-236 94,-242 88,-242"/>
<text xml:space="preserve" text-anchor="middle" x="50" y="-224.7" font-family="Helvetica,sans-Serif" font-size="14.00" fill="#233238">main memory</text>
<text xml:space="preserve" text-anchor="middle" x="50" y="-209.7" font-family="Helvetica,sans-Serif" font-size="14.00" fill="#233238">(copies)</text>
</g>
<!-- cpu&#45;&gt;mem -->
<g id="edge2" class="edge">
<title>cpu&#45;&gt;mem</title>
<path fill="none" stroke="#5b6b73" stroke-width="1.05" d="M50,-304.3C50,-288.09 50,-267.56 50,-251.33"/>
<polygon fill="#5b6b73" stroke="#5b6b73" stroke-width="1.05" points="47.38,-304.17 50,-311.67 52.63,-304.17 47.38,-304.17"/>
<polygon fill="#5b6b73" stroke="#5b6b73" stroke-width="1.05" points="52.63,-251.41 50,-243.91 47.38,-251.41 52.63,-251.41"/>
<text xml:space="preserve" text-anchor="middle" x="78.12" y="-280.2" font-family="Times,serif" font-size="14.00">fills/evicts</text>
</g>
<!-- page -->
<g id="node4" class="node">
<title>page</title>
<path fill="#ddeaf1" stroke="#5b6b73" d="M226.75,-132.5C226.75,-132.5 101.25,-132.5 101.25,-132.5 95.25,-132.5 89.25,-126.5 89.25,-120.5 89.25,-120.5 89.25,-106.5 89.25,-106.5 89.25,-100.5 95.25,-94.5 101.25,-94.5 101.25,-94.5 226.75,-94.5 226.75,-94.5 232.75,-94.5 238.75,-100.5 238.75,-106.5 238.75,-106.5 238.75,-120.5 238.75,-120.5 238.75,-126.5 232.75,-132.5 226.75,-132.5"/>
<text xml:space="preserve" text-anchor="middle" x="164" y="-115.2" font-family="Helvetica,sans-Serif" font-size="14.00" fill="#233238">page/buffer cache</text>
<text xml:space="preserve" text-anchor="middle" x="164" y="-100.2" font-family="Helvetica,sans-Serif" font-size="14.00" fill="#233238">(OS&#45;managed copies)</text>
</g>
<!-- mem&#45;&gt;page -->
<g id="edge3" class="edge">
<title>mem&#45;&gt;page</title>
<path fill="none" stroke="#5b6b73" stroke-width="1.05" d="M76.08,-197.41C94.68,-179.87 119.58,-156.39 138.13,-138.89"/>
<polygon fill="#5b6b73" stroke="#5b6b73" stroke-width="1.05" points="74.41,-195.37 70.75,-202.43 78.01,-199.19 74.41,-195.37"/>
<polygon fill="#5b6b73" stroke="#5b6b73" stroke-width="1.05" points="139.85,-140.88 143.5,-133.83 136.24,-137.06 139.85,-140.88"/>
<text xml:space="preserve" text-anchor="middle" x="163.69" y="-155.7" font-family="Times,serif" font-size="14.00">cache residency</text>
</g>
<!-- disk -->
<g id="node5" class="node">
<title>disk</title>
<path fill="#d9d9d9" stroke="#5b6b73" d="M215.5,-38C215.5,-38 112.5,-38 112.5,-38 106.5,-38 100.5,-32 100.5,-26 100.5,-26 100.5,-12 100.5,-12 100.5,-6 106.5,0 112.5,0 112.5,0 215.5,0 215.5,0 221.5,0 227.5,-6 227.5,-12 227.5,-12 227.5,-26 227.5,-26 227.5,-32 221.5,-38 215.5,-38"/>
<text xml:space="preserve" text-anchor="middle" x="164" y="-20.7" font-family="Helvetica,sans-Serif" font-size="14.00" fill="#233238">secondary storage</text>
<text xml:space="preserve" text-anchor="middle" x="164" y="-5.7" font-family="Helvetica,sans-Serif" font-size="14.00" fill="#233238">(durable copy)</text>
</g>
<!-- page&#45;&gt;disk -->
<g id="edge4" class="edge">
<title>page&#45;&gt;disk</title>
<path fill="none" stroke="#5b6b73" stroke-width="1.05" d="M113.09,-94.06C105.18,-88.94 98.04,-82.52 93.25,-74.5 85.87,-62.15 93.13,-51.6 105.39,-43.15"/>
<polygon fill="#5b6b73" stroke="#5b6b73" stroke-width="1.05" points="106.73,-45.41 111.76,-39.26 103.99,-40.93 106.73,-45.41"/>
<text xml:space="preserve" text-anchor="middle" x="143.12" y="-61.2" font-family="Times,serif" font-size="14.00">writeback/commit</text>
</g>
<!-- disk&#45;&gt;page -->
<g id="edge5" class="edge">
<title>disk&#45;&gt;page</title>
<path fill="none" stroke="#5b6b73" stroke-width="1.05" stroke-dasharray="5,2" d="M185.1,-38.28C194.21,-48.46 201.8,-61.65 197,-74.5 195.32,-79 192.84,-83.32 189.97,-87.33"/>
<polygon fill="#5b6b73" stroke="#5b6b73" stroke-width="1.05" points="188.12,-85.45 185.5,-92.95 192.23,-88.72 188.12,-85.45"/>
<text xml:space="preserve" text-anchor="middle" x="217.23" y="-61.2" font-family="Times,serif" font-size="14.00">read in</text>
</g>
<!-- note -->
<g id="node6" class="node">
<title>note</title>
<polygon fill="#eaf6fb" stroke="#9ec9da" points="417.62,-257 132.38,-257 132.38,-189 423.62,-189 423.62,-251 417.62,-257"/>
<polyline fill="none" stroke="#9ec9da" points="417.62,-257 417.62,-251"/>
<polyline fill="none" stroke="#9ec9da" points="423.62,-251 417.62,-251"/>
<text xml:space="preserve" text-anchor="middle" x="278" y="-239.7" font-family="Helvetica,sans-Serif" font-size="14.00" fill="#233238">Correctness rules needed:</text>
<text xml:space="preserve" text-anchor="middle" x="278" y="-224.7" font-family="Helvetica,sans-Serif" font-size="14.00" fill="#233238">&#45; coherence (which cached value is valid?)</text>
<text xml:space="preserve" text-anchor="middle" x="278" y="-209.7" font-family="Helvetica,sans-Serif" font-size="14.00" fill="#233238">&#45; durability (when is disk authoritative?)</text>
<text xml:space="preserve" text-anchor="middle" x="278" y="-194.7" font-family="Helvetica,sans-Serif" font-size="14.00" fill="#233238">&#45; ordering (what write becomes visible when?)</text>
</g>
<!-- note&#45;&gt;page -->
<g id="edge6" class="edge">
<title>note&#45;&gt;page</title>
<path fill="none" stroke="#5b6b73" stroke-width="1.05" stroke-dasharray="1,5" d="M250.07,-188.58C239.55,-176.71 227.18,-163.56 215,-152.5 207.48,-145.67 198.78,-138.84 190.72,-132.9"/>
</g>
</g>
</svg>
