<?xml version="1.0" encoding="UTF-8" standalone="no"?>
<!DOCTYPE svg PUBLIC "-//W3C//DTD SVG 1.1//EN"
 "http://www.w3.org/Graphics/SVG/1.1/DTD/svg11.dtd">
<!-- Generated by graphviz version 14.1.3 (20260303.0454)
 -->
<!-- Title: G Pages: 1 -->
<svg width="480pt" height="440pt"
 viewBox="0.00 0.00 480.00 440.00" xmlns="http://www.w3.org/2000/svg" xmlns:xlink="http://www.w3.org/1999/xlink">
<g id="graph0" class="graph" transform="scale(1 1) rotate(0) translate(18 422)">
<title>G</title>
<polygon fill="white" stroke="none" points="-18,18 -18,-422 462.3,-422 462.3,18 -18,18"/>
<!-- mastery -->
<g id="node1" class="node">
<title>mastery</title>
<path fill="#bfe2f1" stroke="#5b6b73" d="M196.8,-229C196.8,-229 12,-229 12,-229 6,-229 0,-223 0,-217 0,-217 0,-203 0,-203 0,-197 6,-191 12,-191 12,-191 196.8,-191 196.8,-191 202.8,-191 208.8,-197 208.8,-203 208.8,-203 208.8,-217 208.8,-217 208.8,-223 202.8,-229 196.8,-229"/>
<text xml:space="preserve" text-anchor="middle" x="104.4" y="-211.7" font-family="Helvetica,sans-Serif" font-size="14.00" fill="#233238">Chapter 1 mastery</text>
<text xml:space="preserve" text-anchor="middle" x="104.4" y="-196.7" font-family="Helvetica,sans-Serif" font-size="14.00" fill="#233238">(operational reasoning)</text>
</g>
<!-- trace -->
<g id="node2" class="node">
<title>trace</title>
<path fill="#e6f3f9" stroke="#5b6b73" d="M416.92,-404C416.92,-404 286.17,-404 286.17,-404 280.17,-404 274.17,-398 274.17,-392 274.17,-392 274.17,-378 274.17,-378 274.17,-372 280.17,-366 286.17,-366 286.17,-366 416.92,-366 416.92,-366 422.92,-366 428.92,-372 428.92,-378 428.92,-378 428.92,-392 428.92,-392 428.92,-398 422.92,-404 416.92,-404"/>
<text xml:space="preserve" text-anchor="middle" x="351.55" y="-386.7" font-family="Helvetica,sans-Serif" font-size="14.00" fill="#233238">trace control paths</text>
<text xml:space="preserve" text-anchor="middle" x="351.55" y="-371.7" font-family="Helvetica,sans-Serif" font-size="14.00" fill="#233238">(user &#45;&gt; kernel &#45;&gt; user)</text>
</g>
<!-- mastery&#45;&gt;trace -->
<g id="edge1" class="edge">
<title>mastery&#45;&gt;trace</title>
<path fill="none" stroke="#5b6b73" stroke-width="1.05" d="M122,-229.22C148.37,-258.72 202.62,-315.39 258.8,-350 265.99,-354.43 273.82,-358.45 281.79,-362.06"/>
<polygon fill="#5b6b73" stroke="#5b6b73" stroke-width="1.05" points="280.4,-364.32 288.32,-364.9 282.49,-359.5 280.4,-364.32"/>
</g>
<!-- boundary -->
<g id="node3" class="node">
<title>boundary</title>
<path fill="#ddeaf1" stroke="#5b6b73" d="M427.8,-334C427.8,-334 275.3,-334 275.3,-334 269.3,-334 263.3,-328 263.3,-322 263.3,-322 263.3,-308 263.3,-308 263.3,-302 269.3,-296 275.3,-296 275.3,-296 427.8,-296 427.8,-296 433.8,-296 439.8,-302 439.8,-308 439.8,-308 439.8,-322 439.8,-322 439.8,-328 433.8,-334 427.8,-334"/>
<text xml:space="preserve" text-anchor="middle" x="351.55" y="-316.7" font-family="Helvetica,sans-Serif" font-size="14.00" fill="#233238">name authority boundaries</text>
<text xml:space="preserve" text-anchor="middle" x="351.55" y="-301.7" font-family="Helvetica,sans-Serif" font-size="14.00" fill="#233238">(syscall/trap/interrupt)</text>
</g>
<!-- mastery&#45;&gt;boundary -->
<g id="edge2" class="edge">
<title>mastery&#45;&gt;boundary</title>
<path fill="none" stroke="#5b6b73" stroke-width="1.05" d="M146.11,-229.43C176.84,-243.89 220.18,-263.84 258.8,-280 268.73,-284.15 279.34,-288.39 289.69,-292.41"/>
<polygon fill="#5b6b73" stroke="#5b6b73" stroke-width="1.05" points="288.5,-294.76 296.44,-295.01 290.38,-289.86 288.5,-294.76"/>
</g>
<!-- ctx -->
<g id="node4" class="node">
<title>ctx</title>
<path fill="#e6f3f9" stroke="#5b6b73" d="M423.67,-264C423.67,-264 279.42,-264 279.42,-264 273.42,-264 267.42,-258 267.42,-252 267.42,-252 267.42,-238 267.42,-238 267.42,-232 273.42,-226 279.42,-226 279.42,-226 423.67,-226 423.67,-226 429.67,-226 435.67,-232 435.67,-238 435.67,-238 435.67,-252 435.67,-252 435.67,-258 429.67,-264 423.67,-264"/>
<text xml:space="preserve" text-anchor="middle" x="351.55" y="-246.7" font-family="Helvetica,sans-Serif" font-size="14.00" fill="#233238">context switch state</text>
<text xml:space="preserve" text-anchor="middle" x="351.55" y="-231.7" font-family="Helvetica,sans-Serif" font-size="14.00" fill="#233238">(PC, SP, regs, mappings)</text>
</g>
<!-- mastery&#45;&gt;ctx -->
<g id="edge3" class="edge">
<title>mastery&#45;&gt;ctx</title>
<path fill="none" stroke="#5b6b73" stroke-width="1.05" d="M209.01,-224.79C225.33,-227.12 242.11,-229.52 258.15,-231.81"/>
<polygon fill="#5b6b73" stroke="#5b6b73" stroke-width="1.05" points="257.61,-234.38 265.41,-232.84 258.35,-229.19 257.61,-234.38"/>
</g>
<!-- copies -->
<g id="node5" class="node">
<title>copies</title>
<path fill="#e6f3f9" stroke="#5b6b73" d="M432.3,-194C432.3,-194 270.8,-194 270.8,-194 264.8,-194 258.8,-188 258.8,-182 258.8,-182 258.8,-168 258.8,-168 258.8,-162 264.8,-156 270.8,-156 270.8,-156 432.3,-156 432.3,-156 438.3,-156 444.3,-162 444.3,-168 444.3,-168 444.3,-182 444.3,-182 444.3,-188 438.3,-194 432.3,-194"/>
<text xml:space="preserve" text-anchor="middle" x="351.55" y="-176.7" font-family="Helvetica,sans-Serif" font-size="14.00" fill="#233238">copies + authority rules</text>
<text xml:space="preserve" text-anchor="middle" x="351.55" y="-161.7" font-family="Helvetica,sans-Serif" font-size="14.00" fill="#233238">(cache/coherence/durability)</text>
</g>
<!-- mastery&#45;&gt;copies -->
<g id="edge4" class="edge">
<title>mastery&#45;&gt;copies</title>
<path fill="none" stroke="#5b6b73" stroke-width="1.05" d="M209.01,-195.21C222.52,-193.28 236.34,-191.31 249.8,-189.38"/>
<polygon fill="#5b6b73" stroke="#5b6b73" stroke-width="1.05" points="249.96,-192.01 257.01,-188.35 249.21,-186.82 249.96,-192.01"/>
</g>
<!-- scale -->
<g id="node6" class="node">
<title>scale</title>
<path fill="#e6f3f9" stroke="#5b6b73" d="M423.3,-123.5C423.3,-123.5 279.8,-123.5 279.8,-123.5 273.8,-123.5 267.8,-117.5 267.8,-111.5 267.8,-111.5 267.8,-82.5 267.8,-82.5 267.8,-76.5 273.8,-70.5 279.8,-70.5 279.8,-70.5 423.3,-70.5 423.3,-70.5 429.3,-70.5 435.3,-76.5 435.3,-82.5 435.3,-82.5 435.3,-111.5 435.3,-111.5 435.3,-117.5 429.3,-123.5 423.3,-123.5"/>
<text xml:space="preserve" text-anchor="middle" x="351.55" y="-106.2" font-family="Helvetica,sans-Serif" font-size="14.00" fill="#233238">scaling costs</text>
<text xml:space="preserve" text-anchor="middle" x="351.55" y="-91.2" font-family="Helvetica,sans-Serif" font-size="14.00" fill="#233238">(contention, coordination,</text>
<text xml:space="preserve" text-anchor="middle" x="351.55" y="-76.2" font-family="Helvetica,sans-Serif" font-size="14.00" fill="#233238">partial failure)</text>
</g>
<!-- mastery&#45;&gt;scale -->
<g id="edge5" class="edge">
<title>mastery&#45;&gt;scale</title>
<path fill="none" stroke="#5b6b73" stroke-width="1.05" d="M147.54,-190.57C184.97,-173.32 240.3,-147.82 283.75,-127.79"/>
<polygon fill="#5b6b73" stroke="#5b6b73" stroke-width="1.05" points="284.84,-130.18 290.56,-124.65 282.65,-125.41 284.84,-130.18"/>
</g>
<!-- invariants -->
<g id="node7" class="node">
<title>invariants</title>
<path fill="#ddeaf1" stroke="#5b6b73" d="M410.92,-38C410.92,-38 292.17,-38 292.17,-38 286.17,-38 280.17,-32 280.17,-26 280.17,-26 280.17,-12 280.17,-12 280.17,-6 286.17,0 292.17,0 292.17,0 410.92,0 410.92,0 416.92,0 422.92,-6 422.92,-12 422.92,-12 422.92,-26 422.92,-26 422.92,-32 416.92,-38 410.92,-38"/>
<text xml:space="preserve" text-anchor="middle" x="351.55" y="-20.7" font-family="Helvetica,sans-Serif" font-size="14.00" fill="#233238">state invariants</text>
<text xml:space="preserve" text-anchor="middle" x="351.55" y="-5.7" font-family="Helvetica,sans-Serif" font-size="14.00" fill="#233238">(what must stay true)</text>
</g>
<!-- mastery&#45;&gt;invariants -->
<g id="edge6" class="edge">
<title>mastery&#45;&gt;invariants</title>
<path fill="none" stroke="#5b6b73" stroke-width="1.05" d="M120.14,-190.52C145.36,-158.35 199.83,-93.83 258.8,-55 266.09,-50.2 274.11,-45.89 282.3,-42.05"/>
<polygon fill="#5b6b73" stroke="#5b6b73" stroke-width="1.05" points="283.28,-44.49 289.05,-39.03 281.14,-39.69 283.28,-44.49"/>
</g>
</g>
</svg>
