<?xml version="1.0" encoding="UTF-8" standalone="no"?>
<!DOCTYPE svg PUBLIC "-//W3C//DTD SVG 1.1//EN"
 "http://www.w3.org/Graphics/SVG/1.1/DTD/svg11.dtd">
<!-- Generated by graphviz version 14.1.3 (20260303.0454)
 -->
<!-- Title: G Pages: 1 -->
<svg width="1570pt" height="106pt"
 viewBox="0.00 0.00 1570.00 106.00" xmlns="http://www.w3.org/2000/svg" xmlns:xlink="http://www.w3.org/1999/xlink">
<g id="graph0" class="graph" transform="scale(1 1) rotate(0) translate(18 88)">
<title>G</title>
<polygon fill="white" stroke="none" points="-18,18 -18,-88 1552.25,-88 1552.25,18 -18,18"/>
<!-- power -->
<g id="node1" class="node">
<title>power</title>
<path fill="#f5f5f5" stroke="#5b6b73" d="M109,-36C109,-36 12,-36 12,-36 6,-36 0,-30 0,-24 0,-24 0,-12 0,-12 0,-6 6,0 12,0 12,0 109,0 109,0 115,0 121,-6 121,-12 121,-12 121,-24 121,-24 121,-30 115,-36 109,-36"/>
<text xml:space="preserve" text-anchor="middle" x="60.5" y="-12.2" font-family="Helvetica,sans-Serif" font-size="14.00" fill="#233238">power on / reboot</text>
</g>
<!-- boot -->
<g id="node2" class="node">
<title>boot</title>
<path fill="#ddeaf1" stroke="#5b6b73" d="M281,-36C281,-36 169,-36 169,-36 163,-36 157,-30 157,-24 157,-24 157,-12 157,-12 157,-6 163,0 169,0 169,0 281,0 281,0 287,0 293,-6 293,-12 293,-12 293,-24 293,-24 293,-30 287,-36 281,-36"/>
<text xml:space="preserve" text-anchor="middle" x="225" y="-12.2" font-family="Helvetica,sans-Serif" font-size="14.00" fill="#233238">firmware / bootstrap</text>
</g>
<!-- power&#45;&gt;boot -->
<g id="edge1" class="edge">
<title>power&#45;&gt;boot</title>
<path fill="none" stroke="#5b6b73" stroke-width="1.1" d="M121.29,-18C121.29,-18 147.04,-18 147.04,-18"/>
<polygon fill="#5b6b73" stroke="#5b6b73" stroke-width="1.1" points="147.04,-20.8 155.04,-18 147.04,-15.2 147.04,-20.8"/>
</g>
<!-- kernel -->
<g id="node3" class="node">
<title>kernel</title>
<path fill="#bfe2f1" stroke="#5b6b73" d="M399,-36C399,-36 341,-36 341,-36 335,-36 329,-30 329,-24 329,-24 329,-12 329,-12 329,-6 335,0 341,0 341,0 399,0 399,0 405,0 411,-6 411,-12 411,-12 411,-24 411,-24 411,-30 405,-36 399,-36"/>
<text xml:space="preserve" text-anchor="middle" x="370" y="-12.2" font-family="Helvetica,sans-Serif" font-size="14.00" fill="#233238">load kernel</text>
</g>
<!-- boot&#45;&gt;kernel -->
<g id="edge2" class="edge">
<title>boot&#45;&gt;kernel</title>
<path fill="none" stroke="#5b6b73" stroke-width="1.1" d="M293.25,-18C293.25,-18 318.86,-18 318.86,-18"/>
<polygon fill="#5b6b73" stroke="#5b6b73" stroke-width="1.1" points="318.86,-20.8 326.86,-18 318.86,-15.2 318.86,-20.8"/>
</g>
<!-- init -->
<g id="node4" class="node">
<title>init</title>
<path fill="#d5edf7" stroke="#5b6b73" d="M631.75,-36C631.75,-36 459,-36 459,-36 453,-36 447,-30 447,-24 447,-24 447,-12 447,-12 447,-6 453,0 459,0 459,0 631.75,0 631.75,0 637.75,0 643.75,-6 643.75,-12 643.75,-12 643.75,-24 643.75,-24 643.75,-30 637.75,-36 631.75,-36"/>
<text xml:space="preserve" text-anchor="middle" x="545.38" y="-12.2" font-family="Helvetica,sans-Serif" font-size="14.00" fill="#233238">start init and system daemons</text>
</g>
<!-- kernel&#45;&gt;init -->
<g id="edge3" class="edge">
<title>kernel&#45;&gt;init</title>
<path fill="none" stroke="#5b6b73" stroke-width="1.1" d="M411.12,-18C411.12,-18 436.93,-18 436.93,-18"/>
<polygon fill="#5b6b73" stroke="#5b6b73" stroke-width="1.1" points="436.93,-20.8 444.93,-18 436.93,-15.2 436.93,-20.8"/>
</g>
<!-- user -->
<g id="node5" class="node">
<title>user</title>
<path fill="#f5f5f5" stroke="#5b6b73" d="M823.25,-36C823.25,-36 691.75,-36 691.75,-36 685.75,-36 679.75,-30 679.75,-24 679.75,-24 679.75,-12 679.75,-12 679.75,-6 685.75,0 691.75,0 691.75,0 823.25,0 823.25,0 829.25,0 835.25,-6 835.25,-12 835.25,-12 835.25,-24 835.25,-24 835.25,-30 829.25,-36 823.25,-36"/>
<text xml:space="preserve" text-anchor="middle" x="757.5" y="-12.2" font-family="Helvetica,sans-Serif" font-size="14.00" fill="#233238">run user&#45;mode process</text>
</g>
<!-- init&#45;&gt;user -->
<g id="edge4" class="edge">
<title>init&#45;&gt;user</title>
<path fill="none" stroke="#5b6b73" stroke-width="1.1" d="M643.99,-18C643.99,-18 669.8,-18 669.8,-18"/>
<polygon fill="#5b6b73" stroke="#5b6b73" stroke-width="1.1" points="669.8,-20.8 677.8,-18 669.8,-15.2 669.8,-20.8"/>
</g>
<!-- event -->
<g id="node6" class="node">
<title>event</title>
<path fill="#e6f3f9" stroke="#5b6b73" d="M1038,-70C1038,-70 883.25,-70 883.25,-70 877.25,-70 871.25,-64 871.25,-58 871.25,-58 871.25,-46 871.25,-46 871.25,-40 877.25,-34 883.25,-34 883.25,-34 1038,-34 1038,-34 1044,-34 1050,-40 1050,-46 1050,-46 1050,-58 1050,-58 1050,-64 1044,-70 1038,-70"/>
<text xml:space="preserve" text-anchor="middle" x="960.62" y="-46.2" font-family="Helvetica,sans-Serif" font-size="14.00" fill="#233238">interrupt / trap / system call</text>
</g>
<!-- user&#45;&gt;event -->
<g id="edge5" class="edge">
<title>user&#45;&gt;event</title>
<path fill="none" stroke="#5b6b73" stroke-width="1.1" d="M757.25,-36.32C757.25,-44.79 757.25,-53 757.25,-53 757.25,-53 861.16,-53 861.16,-53"/>
<polygon fill="#5b6b73" stroke="#5b6b73" stroke-width="1.1" points="861.16,-55.8 869.16,-53 861.16,-50.2 861.16,-55.8"/>
</g>
<!-- handler -->
<g id="node7" class="node">
<title>handler</title>
<path fill="#bfe2f1" stroke="#5b6b73" d="M1274.5,-70C1274.5,-70 1098,-70 1098,-70 1092,-70 1086,-64 1086,-58 1086,-58 1086,-46 1086,-46 1086,-40 1092,-34 1098,-34 1098,-34 1274.5,-34 1274.5,-34 1280.5,-34 1286.5,-40 1286.5,-46 1286.5,-46 1286.5,-58 1286.5,-58 1286.5,-64 1280.5,-70 1274.5,-70"/>
<text xml:space="preserve" text-anchor="middle" x="1186.25" y="-46.2" font-family="Helvetica,sans-Serif" font-size="14.00" fill="#233238">kernel handler / service routine</text>
</g>
<!-- event&#45;&gt;handler -->
<g id="edge6" class="edge">
<title>event&#45;&gt;handler</title>
<path fill="none" stroke="#5b6b73" stroke-width="1.1" d="M1050.45,-52C1050.45,-52 1075.93,-52 1075.93,-52"/>
<polygon fill="#5b6b73" stroke="#5b6b73" stroke-width="1.1" points="1075.93,-54.8 1083.93,-52 1075.93,-49.2 1075.93,-54.8"/>
</g>
<!-- resume -->
<g id="node8" class="node">
<title>resume</title>
<path fill="#d5edf7" stroke="#5b6b73" d="M1522.25,-36C1522.25,-36 1334.5,-36 1334.5,-36 1328.5,-36 1322.5,-30 1322.5,-24 1322.5,-24 1322.5,-12 1322.5,-12 1322.5,-6 1328.5,0 1334.5,0 1334.5,0 1522.25,0 1522.25,0 1528.25,0 1534.25,-6 1534.25,-12 1534.25,-12 1534.25,-24 1534.25,-24 1534.25,-30 1528.25,-36 1522.25,-36"/>
<text xml:space="preserve" text-anchor="middle" x="1428.38" y="-12.2" font-family="Helvetica,sans-Serif" font-size="14.00" fill="#233238">resume or dispatch next process</text>
</g>
<!-- handler&#45;&gt;resume -->
<g id="edge7" class="edge">
<title>handler&#45;&gt;resume</title>
<path fill="none" stroke="#5b6b73" stroke-width="1.1" d="M1186.25,-33.59C1186.25,-27.7 1186.25,-22.67 1186.25,-22.67 1186.25,-22.67 1312.51,-22.67 1312.51,-22.67"/>
<polygon fill="#5b6b73" stroke="#5b6b73" stroke-width="1.1" points="1312.51,-25.47 1320.51,-22.67 1312.51,-19.87 1312.51,-25.47"/>
</g>
<!-- resume&#45;&gt;user -->
<g id="edge8" class="edge">
<title>resume&#45;&gt;user</title>
<path fill="none" stroke="#5b6b73" stroke-width="1.1" d="M1322.07,-11.33C1322.07,-11.33 845.23,-11.33 845.23,-11.33"/>
<polygon fill="#5b6b73" stroke="#5b6b73" stroke-width="1.1" points="845.23,-8.53 837.23,-11.33 845.23,-14.13 845.23,-8.53"/>
</g>
</g>
</svg>
