<?xml version="1.0" encoding="UTF-8" standalone="no"?>
<!DOCTYPE svg PUBLIC "-//W3C//DTD SVG 1.1//EN"
 "http://www.w3.org/Graphics/SVG/1.1/DTD/svg11.dtd">
<!-- Generated by graphviz version 14.1.3 (20260303.0454)
 -->
<!-- Title: G Pages: 1 -->
<svg width="695pt" height="310pt"
 viewBox="0.00 0.00 695.00 310.00" xmlns="http://www.w3.org/2000/svg" xmlns:xlink="http://www.w3.org/1999/xlink">
<g id="graph0" class="graph" transform="scale(1 1) rotate(0) translate(18 292)">
<title>G</title>
<polygon fill="white" stroke="none" points="-18,18 -18,-292 676.5,-292 676.5,18 -18,18"/>
<g id="clust1" class="cluster">
<title>cluster_kernel</title>
<path fill="#eaf6fb" stroke="#9ec9da" d="M245.5,-31C245.5,-31 416.75,-31 416.75,-31 422.75,-31 428.75,-37 428.75,-43 428.75,-43 428.75,-254 428.75,-254 428.75,-260 422.75,-266 416.75,-266 416.75,-266 245.5,-266 245.5,-266 239.5,-266 233.5,-260 233.5,-254 233.5,-254 233.5,-43 233.5,-43 233.5,-37 239.5,-31 245.5,-31"/>
<text xml:space="preserve" text-anchor="middle" x="331.12" y="-248.7" font-family="Times,serif" font-size="14.00">kernel multiplexing mechanisms</text>
</g>
<!-- demand -->
<g id="node1" class="node">
<title>demand</title>
<path fill="#e6f3f9" stroke="#5b6b73" d="M164.5,-194C164.5,-194 12,-194 12,-194 6,-194 0,-188 0,-182 0,-182 0,-168 0,-168 0,-162 6,-156 12,-156 12,-156 164.5,-156 164.5,-156 170.5,-156 176.5,-162 176.5,-168 176.5,-168 176.5,-182 176.5,-182 176.5,-188 170.5,-194 164.5,-194"/>
<text xml:space="preserve" text-anchor="middle" x="88.25" y="-176.7" font-family="Helvetica,sans-Serif" font-size="14.00" fill="#233238">many competing demands</text>
<text xml:space="preserve" text-anchor="middle" x="88.25" y="-161.7" font-family="Helvetica,sans-Serif" font-size="14.00" fill="#233238">(processes/threads)</text>
</g>
<!-- sched -->
<g id="node5" class="node">
<title>sched</title>
<path fill="#bfe2f1" stroke="#5b6b73" d="M395.25,-233C395.25,-233 266,-233 266,-233 260,-233 254,-227 254,-221 254,-221 254,-207 254,-207 254,-201 260,-195 266,-195 266,-195 395.25,-195 395.25,-195 401.25,-195 407.25,-201 407.25,-207 407.25,-207 407.25,-221 407.25,-221 407.25,-227 401.25,-233 395.25,-233"/>
<text xml:space="preserve" text-anchor="middle" x="330.62" y="-215.7" font-family="Helvetica,sans-Serif" font-size="14.00" fill="#233238">scheduler</text>
<text xml:space="preserve" text-anchor="middle" x="330.62" y="-200.7" font-family="Helvetica,sans-Serif" font-size="14.00" fill="#233238">(queues + preemption)</text>
</g>
<!-- demand&#45;&gt;sched -->
<g id="edge1" class="edge">
<title>demand&#45;&gt;sched</title>
<path fill="none" stroke="#5b6b73" stroke-width="1.05" d="M176.71,-189.19C198.99,-192.8 222.89,-196.68 245.03,-200.27"/>
<polygon fill="#5b6b73" stroke="#5b6b73" stroke-width="1.05" points="244.35,-202.82 252.17,-201.43 245.19,-197.64 244.35,-202.82"/>
</g>
<!-- vm -->
<g id="node6" class="node">
<title>vm</title>
<path fill="#bfe2f1" stroke="#5b6b73" d="M384,-155C384,-155 277.25,-155 277.25,-155 271.25,-155 265.25,-149 265.25,-143 265.25,-143 265.25,-129 265.25,-129 265.25,-123 271.25,-117 277.25,-117 277.25,-117 384,-117 384,-117 390,-117 396,-123 396,-129 396,-129 396,-143 396,-143 396,-149 390,-155 384,-155"/>
<text xml:space="preserve" text-anchor="middle" x="330.62" y="-137.7" font-family="Helvetica,sans-Serif" font-size="14.00" fill="#233238">virtual memory</text>
<text xml:space="preserve" text-anchor="middle" x="330.62" y="-122.7" font-family="Helvetica,sans-Serif" font-size="14.00" fill="#233238">(residency + faults)</text>
</g>
<!-- demand&#45;&gt;vm -->
<g id="edge2" class="edge">
<title>demand&#45;&gt;vm</title>
<path fill="none" stroke="#5b6b73" stroke-width="1.05" d="M176.71,-160.81C202.77,-156.58 231.05,-151.99 256.12,-147.93"/>
<polygon fill="#5b6b73" stroke="#5b6b73" stroke-width="1.05" points="256.29,-150.56 263.27,-146.77 255.45,-145.38 256.29,-150.56"/>
</g>
<!-- buf -->
<g id="node7" class="node">
<title>buf</title>
<path fill="#bfe2f1" stroke="#5b6b73" d="M378,-77C378,-77 283.25,-77 283.25,-77 277.25,-77 271.25,-71 271.25,-65 271.25,-65 271.25,-51 271.25,-51 271.25,-45 277.25,-39 283.25,-39 283.25,-39 378,-39 378,-39 384,-39 390,-45 390,-51 390,-51 390,-65 390,-65 390,-71 384,-77 378,-77"/>
<text xml:space="preserve" text-anchor="middle" x="330.62" y="-59.7" font-family="Helvetica,sans-Serif" font-size="14.00" fill="#233238">buffering/caching</text>
<text xml:space="preserve" text-anchor="middle" x="330.62" y="-44.7" font-family="Helvetica,sans-Serif" font-size="14.00" fill="#233238">(overlap work)</text>
</g>
<!-- demand&#45;&gt;buf -->
<g id="edge3" class="edge">
<title>demand&#45;&gt;buf</title>
<path fill="none" stroke="#5b6b73" stroke-width="1.05" d="M136.65,-155.67C149.79,-149.81 163.9,-143.05 176.5,-136 203.29,-121.01 206.46,-111.52 233.5,-97 244.23,-91.24 255.99,-85.8 267.49,-80.92"/>
<polygon fill="#5b6b73" stroke="#5b6b73" stroke-width="1.05" points="268.42,-83.38 274.34,-78.08 266.41,-78.53 268.42,-83.38"/>
</g>
<!-- cpu -->
<g id="node2" class="node">
<title>cpu</title>
<path fill="#f5f5f5" stroke="#5b6b73" d="M113.5,-272C113.5,-272 63,-272 63,-272 57,-272 51,-266 51,-260 51,-260 51,-246 51,-246 51,-240 57,-234 63,-234 63,-234 113.5,-234 113.5,-234 119.5,-234 125.5,-240 125.5,-246 125.5,-246 125.5,-260 125.5,-260 125.5,-266 119.5,-272 113.5,-272"/>
<text xml:space="preserve" text-anchor="middle" x="88.25" y="-254.7" font-family="Helvetica,sans-Serif" font-size="14.00" fill="#233238">CPU time</text>
<text xml:space="preserve" text-anchor="middle" x="88.25" y="-239.7" font-family="Helvetica,sans-Serif" font-size="14.00" fill="#233238">(scarce)</text>
</g>
<!-- cpu&#45;&gt;sched -->
<g id="edge4" class="edge">
<title>cpu&#45;&gt;sched</title>
<path fill="none" stroke="#5b6b73" stroke-width="1.05" d="M125.76,-247.08C157.33,-241.95 204.19,-234.35 245.02,-227.73"/>
<polygon fill="#5b6b73" stroke="#5b6b73" stroke-width="1.05" points="245.35,-230.33 252.34,-226.54 244.51,-225.15 245.35,-230.33"/>
</g>
<!-- mem -->
<g id="node3" class="node">
<title>mem</title>
<path fill="#f5f5f5" stroke="#5b6b73" d="M122.5,-116C122.5,-116 54,-116 54,-116 48,-116 42,-110 42,-104 42,-104 42,-90 42,-90 42,-84 48,-78 54,-78 54,-78 122.5,-78 122.5,-78 128.5,-78 134.5,-84 134.5,-90 134.5,-90 134.5,-104 134.5,-104 134.5,-110 128.5,-116 122.5,-116"/>
<text xml:space="preserve" text-anchor="middle" x="88.25" y="-98.7" font-family="Helvetica,sans-Serif" font-size="14.00" fill="#233238">RAM frames</text>
<text xml:space="preserve" text-anchor="middle" x="88.25" y="-83.7" font-family="Helvetica,sans-Serif" font-size="14.00" fill="#233238">(scarce)</text>
</g>
<!-- mem&#45;&gt;vm -->
<g id="edge5" class="edge">
<title>mem&#45;&gt;vm</title>
<path fill="none" stroke="#5b6b73" stroke-width="1.05" d="M134.75,-104.38C168.91,-109.92 216.42,-117.63 255.97,-124.05"/>
<polygon fill="#5b6b73" stroke="#5b6b73" stroke-width="1.05" points="255.41,-126.62 263.23,-125.23 256.25,-121.44 255.41,-126.62"/>
</g>
<!-- io -->
<g id="node4" class="node">
<title>io</title>
<path fill="#f5f5f5" stroke="#5b6b73" d="M142.38,-38C142.38,-38 34.12,-38 34.12,-38 28.12,-38 22.12,-32 22.12,-26 22.12,-26 22.12,-12 22.12,-12 22.12,-6 28.12,0 34.12,0 34.12,0 142.38,0 142.38,0 148.38,0 154.38,-6 154.38,-12 154.38,-12 154.38,-26 154.38,-26 154.38,-32 148.38,-38 142.38,-38"/>
<text xml:space="preserve" text-anchor="middle" x="88.25" y="-20.7" font-family="Helvetica,sans-Serif" font-size="14.00" fill="#233238">device + bandwidth</text>
<text xml:space="preserve" text-anchor="middle" x="88.25" y="-5.7" font-family="Helvetica,sans-Serif" font-size="14.00" fill="#233238">(scarce)</text>
</g>
<!-- io&#45;&gt;buf -->
<g id="edge6" class="edge">
<title>io&#45;&gt;buf</title>
<path fill="none" stroke="#5b6b73" stroke-width="1.05" d="M154.62,-29.61C187.92,-35.01 228.38,-41.57 262,-47.03"/>
<polygon fill="#5b6b73" stroke="#5b6b73" stroke-width="1.05" points="261.45,-49.6 269.28,-48.21 262.29,-44.42 261.45,-49.6"/>
</g>
<!-- progress -->
<g id="node8" class="node">
<title>progress</title>
<path fill="#ddeaf1" stroke="#5b6b73" d="M646.5,-162.5C646.5,-162.5 497.75,-162.5 497.75,-162.5 491.75,-162.5 485.75,-156.5 485.75,-150.5 485.75,-150.5 485.75,-121.5 485.75,-121.5 485.75,-115.5 491.75,-109.5 497.75,-109.5 497.75,-109.5 646.5,-109.5 646.5,-109.5 652.5,-109.5 658.5,-115.5 658.5,-121.5 658.5,-121.5 658.5,-150.5 658.5,-150.5 658.5,-156.5 652.5,-162.5 646.5,-162.5"/>
<text xml:space="preserve" text-anchor="middle" x="572.12" y="-145.2" font-family="Helvetica,sans-Serif" font-size="14.00" fill="#233238">illusion of progress</text>
<text xml:space="preserve" text-anchor="middle" x="572.12" y="-130.2" font-family="Helvetica,sans-Serif" font-size="14.00" fill="#233238">(fairness, responsiveness,</text>
<text xml:space="preserve" text-anchor="middle" x="572.12" y="-115.2" font-family="Helvetica,sans-Serif" font-size="14.00" fill="#233238">throughput)</text>
</g>
<!-- sched&#45;&gt;progress -->
<g id="edge7" class="edge">
<title>sched&#45;&gt;progress</title>
<path fill="none" stroke="#5b6b73" stroke-width="1.05" d="M391.44,-194.52C418.29,-185.77 450.56,-175.27 480.29,-165.58"/>
<polygon fill="#5b6b73" stroke="#5b6b73" stroke-width="1.05" points="480.77,-168.19 487.09,-163.37 479.15,-163.19 480.77,-168.19"/>
</g>
<!-- vm&#45;&gt;progress -->
<g id="edge8" class="edge">
<title>vm&#45;&gt;progress</title>
<path fill="none" stroke="#5b6b73" stroke-width="1.05" d="M396.44,-136C421.08,-136 449.69,-136 476.53,-136"/>
<polygon fill="#5b6b73" stroke="#5b6b73" stroke-width="1.05" points="476.47,-138.63 483.97,-136 476.47,-133.38 476.47,-138.63"/>
</g>
<!-- buf&#45;&gt;progress -->
<g id="edge9" class="edge">
<title>buf&#45;&gt;progress</title>
<path fill="none" stroke="#5b6b73" stroke-width="1.05" d="M390.21,-77.08C417.18,-85.86 449.79,-96.48 479.86,-106.28"/>
<polygon fill="#5b6b73" stroke="#5b6b73" stroke-width="1.05" points="478.82,-108.7 486.76,-108.52 480.44,-103.71 478.82,-108.7"/>
</g>
</g>
</svg>
