<?xml version="1.0" encoding="UTF-8" standalone="no"?>
<!DOCTYPE svg PUBLIC "-//W3C//DTD SVG 1.1//EN"
 "http://www.w3.org/Graphics/SVG/1.1/DTD/svg11.dtd">
<!-- Generated by graphviz version 14.1.3 (20260303.0454)
 -->
<!-- Title: G Pages: 1 -->
<svg width="663pt" height="174pt"
 viewBox="0.00 0.00 663.00 174.00" xmlns="http://www.w3.org/2000/svg" xmlns:xlink="http://www.w3.org/1999/xlink">
<g id="graph0" class="graph" transform="scale(1 1) rotate(0) translate(18 156)">
<title>G</title>
<polygon fill="white" stroke="none" points="-18,18 -18,-156 645.12,-156 645.12,18 -18,18"/>
<!-- traces -->
<g id="node1" class="node">
<title>traces</title>
<path fill="#bfe2f1" stroke="#5b6b73" d="M375.88,-138C375.88,-138 228.62,-138 228.62,-138 222.62,-138 216.62,-132 216.62,-126 216.62,-126 216.62,-112 216.62,-112 216.62,-106 222.62,-100 228.62,-100 228.62,-100 375.88,-100 375.88,-100 381.88,-100 387.88,-106 387.88,-112 387.88,-112 387.88,-126 387.88,-126 387.88,-132 381.88,-138 375.88,-138"/>
<text xml:space="preserve" text-anchor="middle" x="302.25" y="-120.7" font-family="Helvetica,sans-Serif" font-size="14.00" fill="#233238">Canonical traces</text>
<text xml:space="preserve" text-anchor="middle" x="302.25" y="-105.7" font-family="Helvetica,sans-Serif" font-size="14.00" fill="#233238">(reproduce from memory)</text>
</g>
<!-- boot -->
<g id="node2" class="node">
<title>boot</title>
<path fill="#e6f3f9" stroke="#5b6b73" d="M104.5,-45.5C104.5,-45.5 12,-45.5 12,-45.5 6,-45.5 0,-39.5 0,-33.5 0,-33.5 0,-19.5 0,-19.5 0,-13.5 6,-7.5 12,-7.5 12,-7.5 104.5,-7.5 104.5,-7.5 110.5,-7.5 116.5,-13.5 116.5,-19.5 116.5,-19.5 116.5,-33.5 116.5,-33.5 116.5,-39.5 110.5,-45.5 104.5,-45.5"/>
<text xml:space="preserve" text-anchor="middle" x="58.25" y="-28.2" font-family="Helvetica,sans-Serif" font-size="14.00" fill="#233238">4.1 boot</text>
<text xml:space="preserve" text-anchor="middle" x="58.25" y="-13.2" font-family="Helvetica,sans-Serif" font-size="14.00" fill="#233238">authority handoff</text>
</g>
<!-- traces&#45;&gt;boot -->
<g id="edge1" class="edge">
<title>traces&#45;&gt;boot</title>
<path fill="none" stroke="#5b6b73" stroke-width="1.05" d="M252.58,-99.58C213.08,-84.93 157.75,-64.4 116.23,-49"/>
<polygon fill="#5b6b73" stroke="#5b6b73" stroke-width="1.05" points="117.29,-46.6 109.34,-46.45 115.46,-51.52 117.29,-46.6"/>
</g>
<!-- io -->
<g id="node3" class="node">
<title>io</title>
<path fill="#e6f3f9" stroke="#5b6b73" d="M265.75,-53C265.75,-53 168.75,-53 168.75,-53 162.75,-53 156.75,-47 156.75,-41 156.75,-41 156.75,-12 156.75,-12 156.75,-6 162.75,0 168.75,0 168.75,0 265.75,0 265.75,0 271.75,0 277.75,-6 277.75,-12 277.75,-12 277.75,-41 277.75,-41 277.75,-47 271.75,-53 265.75,-53"/>
<text xml:space="preserve" text-anchor="middle" x="217.25" y="-35.7" font-family="Helvetica,sans-Serif" font-size="14.00" fill="#233238">4.2 blocking I/O</text>
<text xml:space="preserve" text-anchor="middle" x="217.25" y="-20.7" font-family="Helvetica,sans-Serif" font-size="14.00" fill="#233238">sync request +</text>
<text xml:space="preserve" text-anchor="middle" x="217.25" y="-5.7" font-family="Helvetica,sans-Serif" font-size="14.00" fill="#233238">async completion</text>
</g>
<!-- traces&#45;&gt;io -->
<g id="edge2" class="edge">
<title>traces&#45;&gt;io</title>
<path fill="none" stroke="#5b6b73" stroke-width="1.05" d="M285.05,-99.69C274.29,-88.23 260.14,-73.16 247.55,-59.76"/>
<polygon fill="#5b6b73" stroke="#5b6b73" stroke-width="1.05" points="249.65,-58.16 242.6,-54.49 245.82,-61.75 249.65,-58.16"/>
</g>
<!-- timer -->
<g id="node4" class="node">
<title>timer</title>
<path fill="#e6f3f9" stroke="#5b6b73" d="M446.88,-53C446.88,-53 329.62,-53 329.62,-53 323.62,-53 317.62,-47 317.62,-41 317.62,-41 317.62,-12 317.62,-12 317.62,-6 323.62,0 329.62,0 329.62,0 446.88,0 446.88,0 452.88,0 458.88,-6 458.88,-12 458.88,-12 458.88,-41 458.88,-41 458.88,-47 452.88,-53 446.88,-53"/>
<text xml:space="preserve" text-anchor="middle" x="388.25" y="-35.7" font-family="Helvetica,sans-Serif" font-size="14.00" fill="#233238">4.3 timer preemption</text>
<text xml:space="preserve" text-anchor="middle" x="388.25" y="-20.7" font-family="Helvetica,sans-Serif" font-size="14.00" fill="#233238">forced re&#45;entry</text>
<text xml:space="preserve" text-anchor="middle" x="388.25" y="-5.7" font-family="Helvetica,sans-Serif" font-size="14.00" fill="#233238">+ context switch</text>
</g>
<!-- traces&#45;&gt;timer -->
<g id="edge3" class="edge">
<title>traces&#45;&gt;timer</title>
<path fill="none" stroke="#5b6b73" stroke-width="1.05" d="M319.65,-99.69C330.54,-88.23 344.86,-73.16 357.6,-59.76"/>
<polygon fill="#5b6b73" stroke="#5b6b73" stroke-width="1.05" points="359.34,-61.73 362.61,-54.48 355.54,-58.11 359.34,-61.73"/>
</g>
<!-- fault -->
<g id="node5" class="node">
<title>fault</title>
<path fill="#e6f3f9" stroke="#5b6b73" d="M615.12,-53C615.12,-53 511.38,-53 511.38,-53 505.38,-53 499.38,-47 499.38,-41 499.38,-41 499.38,-12 499.38,-12 499.38,-6 505.38,0 511.38,0 511.38,0 615.12,0 615.12,0 621.12,0 627.12,-6 627.12,-12 627.12,-12 627.12,-41 627.12,-41 627.12,-47 621.12,-53 615.12,-53"/>
<text xml:space="preserve" text-anchor="middle" x="563.25" y="-35.7" font-family="Helvetica,sans-Serif" font-size="14.00" fill="#233238">4.4 faulting access</text>
<text xml:space="preserve" text-anchor="middle" x="563.25" y="-20.7" font-family="Helvetica,sans-Serif" font-size="14.00" fill="#233238">hardware detects,</text>
<text xml:space="preserve" text-anchor="middle" x="563.25" y="-5.7" font-family="Helvetica,sans-Serif" font-size="14.00" fill="#233238">kernel decides</text>
</g>
<!-- traces&#45;&gt;fault -->
<g id="edge4" class="edge">
<title>traces&#45;&gt;fault</title>
<path fill="none" stroke="#5b6b73" stroke-width="1.05" d="M355.38,-99.58C394.37,-86.06 447.77,-67.54 490.69,-52.66"/>
<polygon fill="#5b6b73" stroke="#5b6b73" stroke-width="1.05" points="491.39,-55.19 497.62,-50.26 489.67,-50.23 491.39,-55.19"/>
</g>
</g>
</svg>
