<?xml version="1.0" encoding="UTF-8" standalone="no"?>
<!DOCTYPE svg PUBLIC "-//W3C//DTD SVG 1.1//EN"
 "http://www.w3.org/Graphics/SVG/1.1/DTD/svg11.dtd">
<!-- Generated by graphviz version 14.1.3 (20260303.0454)
 -->
<!-- Title: G Pages: 1 -->
<svg width="409pt" height="300pt"
 viewBox="0.00 0.00 409.00 300.00" xmlns="http://www.w3.org/2000/svg" xmlns:xlink="http://www.w3.org/1999/xlink">
<g id="graph0" class="graph" transform="scale(1 1) rotate(0) translate(14.4 285.4)">
<title>G</title>
<polygon fill="white" stroke="none" points="-14.4,14.4 -14.4,-285.4 394.4,-285.4 394.4,14.4 -14.4,14.4"/>
<!-- users -->
<g id="node1" class="node">
<title>users</title>
<polygon fill="#e6f3f9" stroke="none" points="64.38,-237 64.38,-270 119.88,-270 119.88,-237 64.38,-237"/>
<polygon fill="none" stroke="#5b6b73" points="64.38,-237 64.38,-270 119.88,-270 119.88,-237 64.38,-237"/>
<text xml:space="preserve" text-anchor="start" x="73.38" y="-249.75" font-family="Helvetica,sans-Serif" font-size="14.00" fill="#233238">user 1</text>
<polygon fill="#e6f3f9" stroke="none" points="119.88,-237 119.88,-270 175.38,-270 175.38,-237 119.88,-237"/>
<polygon fill="none" stroke="#5b6b73" points="119.88,-237 119.88,-270 175.38,-270 175.38,-237 119.88,-237"/>
<text xml:space="preserve" text-anchor="start" x="128.88" y="-249.75" font-family="Helvetica,sans-Serif" font-size="14.00" fill="#233238">user 2</text>
<polygon fill="#e6f3f9" stroke="none" points="175.38,-237 175.38,-270 230.88,-270 230.88,-237 175.38,-237"/>
<polygon fill="none" stroke="#5b6b73" points="175.38,-237 175.38,-270 230.88,-270 230.88,-237 175.38,-237"/>
<text xml:space="preserve" text-anchor="start" x="184.38" y="-249.75" font-family="Helvetica,sans-Serif" font-size="14.00" fill="#233238">user 3</text>
<polygon fill="#e6f3f9" stroke="none" points="230.88,-237 230.88,-270 260.12,-270 260.12,-237 230.88,-237"/>
<polygon fill="none" stroke="#5b6b73" points="230.88,-237 230.88,-270 260.12,-270 260.12,-237 230.88,-237"/>
<text xml:space="preserve" text-anchor="start" x="239.88" y="-249.75" font-family="Helvetica,sans-Serif" font-size="14.00" fill="#233238">...</text>
<polygon fill="#e6f3f9" stroke="none" points="260.12,-237 260.12,-270 315.62,-270 315.62,-237 260.12,-237"/>
<polygon fill="none" stroke="#5b6b73" points="260.12,-237 260.12,-270 315.62,-270 315.62,-237 260.12,-237"/>
<text xml:space="preserve" text-anchor="start" x="269.12" y="-249.75" font-family="Helvetica,sans-Serif" font-size="14.00" fill="#233238">user n</text>
<polygon fill="none" stroke="#5b6b73" points="63.38,-236 63.38,-271 316.62,-271 316.62,-236 63.38,-236"/>
</g>
<!-- apps -->
<g id="node2" class="node">
<title>apps</title>
<polygon fill="#ddeaf1" stroke="none" points="1,-170 1,-203 70.75,-203 70.75,-170 1,-170"/>
<polygon fill="none" stroke="#5b6b73" points="1,-170 1,-203 70.75,-203 70.75,-170 1,-170"/>
<text xml:space="preserve" text-anchor="start" x="10" y="-182.75" font-family="Helvetica,sans-Serif" font-size="14.00" fill="#233238">compiler</text>
<polygon fill="#ddeaf1" stroke="none" points="70.75,-170 70.75,-203 151.75,-203 151.75,-170 70.75,-170"/>
<polygon fill="none" stroke="#5b6b73" points="70.75,-170 70.75,-203 151.75,-203 151.75,-170 70.75,-170"/>
<text xml:space="preserve" text-anchor="start" x="79.75" y="-182.75" font-family="Helvetica,sans-Serif" font-size="14.00" fill="#233238">assembler</text>
<polygon fill="#ddeaf1" stroke="none" points="151.75,-170 151.75,-203 229,-203 229,-170 151.75,-170"/>
<polygon fill="none" stroke="#5b6b73" points="151.75,-170 151.75,-203 229,-203 229,-170 151.75,-170"/>
<text xml:space="preserve" text-anchor="start" x="160.75" y="-182.75" font-family="Helvetica,sans-Serif" font-size="14.00" fill="#233238">text editor</text>
<polygon fill="#ddeaf1" stroke="none" points="229,-170 229,-203 258.25,-203 258.25,-170 229,-170"/>
<polygon fill="none" stroke="#5b6b73" points="229,-170 229,-203 258.25,-203 258.25,-170 229,-170"/>
<text xml:space="preserve" text-anchor="start" x="238" y="-182.75" font-family="Helvetica,sans-Serif" font-size="14.00" fill="#233238">...</text>
<polygon fill="#ddeaf1" stroke="none" points="258.25,-170 258.25,-203 379,-203 379,-170 258.25,-170"/>
<polygon fill="none" stroke="#5b6b73" points="258.25,-170 258.25,-203 379,-203 379,-170 258.25,-170"/>
<text xml:space="preserve" text-anchor="start" x="267.25" y="-182.75" font-family="Helvetica,sans-Serif" font-size="14.00" fill="#233238">database system</text>
<polygon fill="#ddeaf1" stroke="none" points="1,-137 1,-170 379,-170 379,-137 1,-137"/>
<polygon fill="none" stroke="#5b6b73" points="1,-137 1,-170 379,-170 379,-137 1,-137"/>
<text xml:space="preserve" text-anchor="start" x="81.62" y="-148.7" font-family="Helvetica,sans-Serif" font-weight="bold" font-size="14.00" fill="#233238">system and application programs</text>
<polygon fill="none" stroke="#5b6b73" points="0,-136 0,-204 380,-204 380,-136 0,-136"/>
</g>
<!-- users&#45;&gt;apps -->
<g id="edge1" class="edge">
<title>users&#45;&gt;apps</title>
<path fill="none" stroke="#5b6b73" stroke-width="1.2" d="M190,-236.01C190,-229.46 190,-221.6 190,-213.64"/>
<polygon fill="#5b6b73" stroke="#5b6b73" stroke-width="1.2" points="192.8,-213.79 190,-205.79 187.2,-213.79 192.8,-213.79"/>
</g>
<!-- os -->
<g id="node3" class="node">
<title>os</title>
<path fill="#bfe2f1" stroke="#5b6b73" d="M300.4,-104C300.4,-104 79.6,-104 79.6,-104 73.6,-104 67.6,-98 67.6,-92 67.6,-92 67.6,-80 67.6,-80 67.6,-74 73.6,-68 79.6,-68 79.6,-68 300.4,-68 300.4,-68 306.4,-68 312.4,-74 312.4,-80 312.4,-80 312.4,-92 312.4,-92 312.4,-98 306.4,-104 300.4,-104"/>
<text xml:space="preserve" text-anchor="middle" x="190" y="-80.2" font-family="Helvetica,sans-Serif" font-size="14.00" fill="#233238">operating system</text>
</g>
<!-- apps&#45;&gt;os -->
<g id="edge2" class="edge">
<title>apps&#45;&gt;os</title>
<path fill="none" stroke="#5b6b73" stroke-width="1.2" d="M190,-136.12C190,-128.82 190,-121.15 190,-114.11"/>
<polygon fill="#5b6b73" stroke="#5b6b73" stroke-width="1.2" points="192.8,-114.17 190,-106.17 187.2,-114.17 192.8,-114.17"/>
</g>
<!-- hw -->
<g id="node4" class="node">
<title>hw</title>
<path fill="#d9d9d9" stroke="#5b6b73" d="M300.4,-36C300.4,-36 79.6,-36 79.6,-36 73.6,-36 67.6,-30 67.6,-24 67.6,-24 67.6,-12 67.6,-12 67.6,-6 73.6,0 79.6,0 79.6,0 300.4,0 300.4,0 306.4,0 312.4,-6 312.4,-12 312.4,-12 312.4,-24 312.4,-24 312.4,-30 306.4,-36 300.4,-36"/>
<text xml:space="preserve" text-anchor="middle" x="190" y="-12.2" font-family="Helvetica,sans-Serif" font-size="14.00" fill="#233238">computer hardware</text>
</g>
<!-- os&#45;&gt;hw -->
<g id="edge3" class="edge">
<title>os&#45;&gt;hw</title>
<path fill="none" stroke="#5b6b73" stroke-width="1.2" d="M190,-67.66C190,-61.04 190,-53.33 190,-46.03"/>
<polygon fill="#5b6b73" stroke="#5b6b73" stroke-width="1.2" points="192.8,-46.27 190,-38.27 187.2,-46.27 192.8,-46.27"/>
</g>
</g>
</svg>
