<?xml version="1.0" encoding="UTF-8" standalone="no"?>
<!DOCTYPE svg PUBLIC "-//W3C//DTD SVG 1.1//EN"
 "http://www.w3.org/Graphics/SVG/1.1/DTD/svg11.dtd">
<!-- Generated by graphviz version 14.1.3 (20260303.0454)
 -->
<!-- Title: G Pages: 1 -->
<svg width="820pt" height="186pt"
 viewBox="0.00 0.00 820.00 186.00" xmlns="http://www.w3.org/2000/svg" xmlns:xlink="http://www.w3.org/1999/xlink">
<g id="graph0" class="graph" transform="scale(1 1) rotate(0) translate(14.4 171.4)">
<title>G</title>
<polygon fill="white" stroke="none" points="-14.4,14.4 -14.4,-171.4 805.4,-171.4 805.4,14.4 -14.4,14.4"/>
<!-- buf -->
<g id="node1" class="node">
<title>buf</title>
<polygon fill="#f5f5f5" stroke="none" points="1,-125 1,-156 186.5,-156 186.5,-125 1,-125"/>
<polygon fill="none" stroke="#5b6b73" points="1,-125 1,-156 186.5,-156 186.5,-125 1,-125"/>
<text xml:space="preserve" text-anchor="start" x="44.62" y="-135.7" font-family="Helvetica,sans-Serif" font-weight="bold" font-size="14.00">Representation</text>
<polygon fill="#f5f5f5" stroke="none" points="186.5,-125 186.5,-156 432,-156 432,-125 186.5,-125"/>
<polygon fill="none" stroke="#5b6b73" points="186.5,-125 186.5,-156 432,-156 432,-125 186.5,-125"/>
<text xml:space="preserve" text-anchor="start" x="294.62" y="-135.7" font-family="Helvetica,sans-Serif" font-weight="bold" font-size="14.00">Rule</text>
<polygon fill="#f5f5f5" stroke="none" points="432,-125 432,-156 790,-156 790,-125 432,-125"/>
<polygon fill="none" stroke="#5b6b73" points="432,-125 432,-156 790,-156 790,-125 432,-125"/>
<text xml:space="preserve" text-anchor="start" x="566.75" y="-135.7" font-family="Helvetica,sans-Serif" font-weight="bold" font-size="14.00">Consequence</text>
<polygon fill="#e6f3f9" stroke="none" points="1,-94 1,-125 186.5,-125 186.5,-94 1,-94"/>
<polygon fill="none" stroke="#5b6b73" points="1,-94 1,-125 186.5,-125 186.5,-94 1,-94"/>
<text xml:space="preserve" text-anchor="start" x="57.75" y="-104.7" font-family="Helvetica,sans-Serif" font-weight="bold" font-size="14.00">Ring buffer</text>
<polygon fill="none" stroke="#5b6b73" points="186.5,-94 186.5,-125 432,-125 432,-94 186.5,-94"/>
<text xml:space="preserve" text-anchor="start" x="194.5" y="-105.75" font-family="Helvetica,sans-Serif" font-size="14.00">array of N slots + indices `in` and `out`</text>
<polygon fill="none" stroke="#5b6b73" points="432,-94 432,-125 790,-125 790,-94 432,-94"/>
<text xml:space="preserve" text-anchor="start" x="440" y="-105.75" font-family="Helvetica,sans-Serif" font-size="14.00">constant&#45;time enqueue/dequeue, wraps around with mod</text>
<polygon fill="#e6f3f9" stroke="none" points="1,-63 1,-94 186.5,-94 186.5,-63 1,-63"/>
<polygon fill="none" stroke="#5b6b73" points="1,-63 1,-94 186.5,-94 186.5,-63 1,-63"/>
<text xml:space="preserve" text-anchor="start" x="72.75" y="-73.7" font-family="Helvetica,sans-Serif" font-weight="bold" font-size="14.00">Empty</text>
<polygon fill="none" stroke="#5b6b73" points="186.5,-63 186.5,-94 432,-94 432,-63 186.5,-63"/>
<text xml:space="preserve" text-anchor="start" x="278.12" y="-74.75" font-family="Helvetica,sans-Serif" font-size="14.00">`in == out`</text>
<polygon fill="none" stroke="#5b6b73" points="432,-63 432,-94 790,-94 790,-63 432,-63"/>
<text xml:space="preserve" text-anchor="start" x="519.5" y="-74.75" font-family="Helvetica,sans-Serif" font-size="14.00">no items available to consume</text>
<polygon fill="#e6f3f9" stroke="none" points="1,-32 1,-63 186.5,-63 186.5,-32 1,-32"/>
<polygon fill="none" stroke="#5b6b73" points="1,-32 1,-63 186.5,-63 186.5,-32 1,-32"/>
<text xml:space="preserve" text-anchor="start" x="9" y="-42.7" font-family="Helvetica,sans-Serif" font-weight="bold" font-size="14.00">Full (disambiguation trick)</text>
<polygon fill="none" stroke="#5b6b73" points="186.5,-32 186.5,-63 432,-63 432,-32 186.5,-32"/>
<text xml:space="preserve" text-anchor="start" x="242.5" y="-43.75" font-family="Helvetica,sans-Serif" font-size="14.00">`((in + 1) % N) == out`</text>
<polygon fill="none" stroke="#5b6b73" points="432,-32 432,-63 790,-63 790,-32 432,-32"/>
<text xml:space="preserve" text-anchor="start" x="482" y="-43.75" font-family="Helvetica,sans-Serif" font-size="14.00">must keep one slot unused so full != empty</text>
<polygon fill="#e6f3f9" stroke="none" points="1,-1 1,-32 186.5,-32 186.5,-1 1,-1"/>
<polygon fill="none" stroke="#5b6b73" points="1,-1 1,-32 186.5,-32 186.5,-1 1,-1"/>
<text xml:space="preserve" text-anchor="start" x="43.12" y="-11.7" font-family="Helvetica,sans-Serif" font-weight="bold" font-size="14.00">Max occupancy</text>
<polygon fill="none" stroke="#5b6b73" points="186.5,-1 186.5,-32 432,-32 432,-1 186.5,-1"/>
<text xml:space="preserve" text-anchor="start" x="271.75" y="-12.75" font-family="Helvetica,sans-Serif" font-size="14.00">`N &#45; 1` items</text>
<polygon fill="none" stroke="#5b6b73" points="432,-1 432,-32 790,-32 790,-1 432,-1"/>
<text xml:space="preserve" text-anchor="start" x="444.88" y="-12.75" font-family="Helvetica,sans-Serif" font-size="14.00">capacity reduced to preserve an unambiguous invariant</text>
<polygon fill="none" stroke="#5b6b73" points="0,0 0,-157 791,-157 791,0 0,0"/>
</g>
</g>
</svg>
