<?xml version="1.0" encoding="UTF-8" standalone="no"?>
<!DOCTYPE svg PUBLIC "-//W3C//DTD SVG 1.1//EN"
 "http://www.w3.org/Graphics/SVG/1.1/DTD/svg11.dtd">
<!-- Generated by graphviz version 14.1.3 (20260303.0454)
 -->
<!-- Title: G Pages: 1 -->
<svg width="1280pt" height="155pt"
 viewBox="0.00 0.00 1280.00 155.00" xmlns="http://www.w3.org/2000/svg" xmlns:xlink="http://www.w3.org/1999/xlink">
<g id="graph0" class="graph" transform="scale(1 1) rotate(0) translate(14.4 140.4)">
<title>G</title>
<polygon fill="white" stroke="none" points="-14.4,14.4 -14.4,-140.4 1265.4,-140.4 1265.4,14.4 -14.4,14.4"/>
<!-- tbl -->
<g id="node1" class="node">
<title>tbl</title>
<polygon fill="#f5f5f5" stroke="none" points="1,-94 1,-125 143.75,-125 143.75,-94 1,-94"/>
<polygon fill="none" stroke="#5b6b73" points="1,-94 1,-125 143.75,-125 143.75,-94 1,-94"/>
<text xml:space="preserve" text-anchor="start" x="43.88" y="-104.7" font-family="Helvetica,sans-Serif" font-weight="bold" font-size="14.00">Scenario</text>
<polygon fill="#f5f5f5" stroke="none" points="143.75,-94 143.75,-125 498.75,-125 498.75,-94 143.75,-94"/>
<polygon fill="none" stroke="#5b6b73" points="143.75,-94 143.75,-125 498.75,-125 498.75,-94 143.75,-94"/>
<text xml:space="preserve" text-anchor="start" x="256" y="-104.7" font-family="Helvetica,sans-Serif" font-weight="bold" font-size="14.00">Producer (Thread A)</text>
<polygon fill="#f5f5f5" stroke="none" points="498.75,-94 498.75,-125 769.75,-125 769.75,-94 498.75,-94"/>
<polygon fill="none" stroke="#5b6b73" points="498.75,-94 498.75,-125 769.75,-125 769.75,-94 498.75,-94"/>
<text xml:space="preserve" text-anchor="start" x="564.88" y="-104.7" font-family="Helvetica,sans-Serif" font-weight="bold" font-size="14.00">Consumer (Thread B)</text>
<polygon fill="#f5f5f5" stroke="none" points="769.75,-94 769.75,-125 1250,-125 1250,-94 769.75,-94"/>
<polygon fill="none" stroke="#5b6b73" points="769.75,-94 769.75,-125 1250,-125 1250,-94 769.75,-94"/>
<text xml:space="preserve" text-anchor="start" x="953.62" y="-104.7" font-family="Helvetica,sans-Serif" font-weight="bold" font-size="14.00">What can happen</text>
<polygon fill="#e6f3f9" stroke="none" points="1,-63 1,-94 143.75,-94 143.75,-63 1,-63"/>
<polygon fill="none" stroke="#5b6b73" points="1,-63 1,-94 143.75,-94 143.75,-63 1,-63"/>
<text xml:space="preserve" text-anchor="start" x="40.5" y="-73.7" font-family="Helvetica,sans-Serif" font-weight="bold" font-size="14.00">Naive flag</text>
<polygon fill="none" stroke="#5b6b73" points="143.75,-63 143.75,-94 498.75,-94 498.75,-63 143.75,-63"/>
<text xml:space="preserve" text-anchor="start" x="234.62" y="-74.75" font-family="Helvetica,sans-Serif" font-size="14.00">`data = 42;` then `ready = 1;`</text>
<polygon fill="none" stroke="#5b6b73" points="498.75,-63 498.75,-94 769.75,-94 769.75,-63 498.75,-63"/>
<text xml:space="preserve" text-anchor="start" x="525.5" y="-74.75" font-family="Helvetica,sans-Serif" font-size="14.00">wait for `ready==1`, then read `data`</text>
<polygon fill="none" stroke="#5b6b73" points="769.75,-63 769.75,-94 1250,-94 1250,-63 769.75,-63"/>
<text xml:space="preserve" text-anchor="start" x="777.75" y="-74.75" font-family="Helvetica,sans-Serif" font-size="14.00">consumer can observe `ready==1` but still see old `data` (reordering/visibility)</text>
<polygon fill="#e6f3f9" stroke="none" points="1,-32 1,-63 143.75,-63 143.75,-32 1,-32"/>
<polygon fill="none" stroke="#5b6b73" points="1,-32 1,-63 143.75,-63 143.75,-32 1,-32"/>
<text xml:space="preserve" text-anchor="start" x="9" y="-42.7" font-family="Helvetica,sans-Serif" font-weight="bold" font-size="14.00">Lock&#45;based publish</text>
<polygon fill="none" stroke="#5b6b73" points="143.75,-32 143.75,-63 498.75,-63 498.75,-32 143.75,-32"/>
<text xml:space="preserve" text-anchor="start" x="151.75" y="-43.75" font-family="Helvetica,sans-Serif" font-size="14.00">write `data`, set `ready` while holding mutex; then unlock</text>
<polygon fill="none" stroke="#5b6b73" points="498.75,-32 498.75,-63 769.75,-63 769.75,-32 498.75,-32"/>
<text xml:space="preserve" text-anchor="start" x="517.62" y="-43.75" font-family="Helvetica,sans-Serif" font-size="14.00">lock; check `ready`; read `data`; unlock</text>
<polygon fill="none" stroke="#5b6b73" points="769.75,-32 769.75,-63 1250,-63 1250,-32 769.75,-32"/>
<text xml:space="preserve" text-anchor="start" x="811.5" y="-43.75" font-family="Helvetica,sans-Serif" font-size="14.00">lock/unlock establish ordering: if B sees `ready`, it also sees `data`</text>
<polygon fill="#e6f3f9" stroke="none" points="1,-1 1,-32 143.75,-32 143.75,-1 1,-1"/>
<polygon fill="none" stroke="#5b6b73" points="1,-1 1,-32 143.75,-32 143.75,-1 1,-1"/>
<text xml:space="preserve" text-anchor="start" x="23.25" y="-11.7" font-family="Helvetica,sans-Serif" font-weight="bold" font-size="14.00">Atomic publish</text>
<polygon fill="none" stroke="#5b6b73" points="143.75,-1 143.75,-32 498.75,-32 498.75,-1 143.75,-1"/>
<text xml:space="preserve" text-anchor="start" x="183.62" y="-11.7" font-family="Helvetica,sans-Serif" font-size="14.00">write `data`; then store `ready=1` with </text>
<text xml:space="preserve" text-anchor="start" x="412.38" y="-11.7" font-family="Helvetica,sans-Serif" font-weight="bold" font-size="14.00">release</text>
<polygon fill="none" stroke="#5b6b73" points="498.75,-1 498.75,-32 769.75,-32 769.75,-1 498.75,-1"/>
<text xml:space="preserve" text-anchor="start" x="506.75" y="-11.7" font-family="Helvetica,sans-Serif" font-size="14.00">load `ready` with </text>
<text xml:space="preserve" text-anchor="start" x="610.25" y="-11.7" font-family="Helvetica,sans-Serif" font-weight="bold" font-size="14.00">acquire</text>
<text xml:space="preserve" text-anchor="start" x="658.25" y="-11.7" font-family="Helvetica,sans-Serif" font-size="14.00">; then read `data`</text>
<polygon fill="none" stroke="#5b6b73" points="769.75,-1 769.75,-32 1250,-32 1250,-1 769.75,-1"/>
<text xml:space="preserve" text-anchor="start" x="847.88" y="-12.75" font-family="Helvetica,sans-Serif" font-size="14.00">acquire/release make `ready` a real visibility boundary</text>
<polygon fill="none" stroke="#5b6b73" points="0,0 0,-126 1251,-126 1251,0 0,0"/>
</g>
</g>
</svg>
