<?xml version="1.0" encoding="UTF-8" standalone="no"?>
<!DOCTYPE svg PUBLIC "-//W3C//DTD SVG 1.1//EN"
 "http://www.w3.org/Graphics/SVG/1.1/DTD/svg11.dtd">
<!-- Generated by graphviz version 14.1.3 (20260303.0454)
 -->
<!-- Title: G Pages: 1 -->
<svg width="699pt" height="155pt"
 viewBox="0.00 0.00 699.00 155.00" xmlns="http://www.w3.org/2000/svg" xmlns:xlink="http://www.w3.org/1999/xlink">
<g id="graph0" class="graph" transform="scale(1 1) rotate(0) translate(14.4 140.4)">
<title>G</title>
<polygon fill="white" stroke="none" points="-14.4,14.4 -14.4,-140.4 684.9,-140.4 684.9,14.4 -14.4,14.4"/>
<!-- trace -->
<g id="node1" class="node">
<title>trace</title>
<polygon fill="#f5f5f5" stroke="none" points="1,-94 1,-125 81.5,-125 81.5,-94 1,-94"/>
<polygon fill="none" stroke="#5b6b73" points="1,-94 1,-125 81.5,-125 81.5,-94 1,-94"/>
<text xml:space="preserve" text-anchor="start" x="9" y="-104.7" font-family="Helvetica,sans-Serif" font-weight="bold" font-size="14.00">Operation</text>
<polygon fill="#f5f5f5" stroke="none" points="81.5,-94 81.5,-125 210,-125 210,-94 81.5,-94"/>
<polygon fill="none" stroke="#5b6b73" points="81.5,-94 81.5,-125 210,-125 210,-94 81.5,-94"/>
<text xml:space="preserve" text-anchor="start" x="89.5" y="-104.7" font-family="Helvetica,sans-Serif" font-weight="bold" font-size="14.00">Semaphore value</text>
<polygon fill="#f5f5f5" stroke="none" points="210,-94 210,-125 376,-125 376,-94 210,-94"/>
<polygon fill="none" stroke="#5b6b73" points="210,-94 210,-125 376,-125 376,-94 210,-94"/>
<text xml:space="preserve" text-anchor="start" x="243.88" y="-104.7" font-family="Helvetica,sans-Serif" font-weight="bold" font-size="14.00">Caller outcome</text>
<polygon fill="#f5f5f5" stroke="none" points="376,-94 376,-125 669.5,-125 669.5,-94 376,-94"/>
<polygon fill="none" stroke="#5b6b73" points="376,-94 376,-125 669.5,-125 669.5,-94 376,-94"/>
<text xml:space="preserve" text-anchor="start" x="495" y="-104.7" font-family="Helvetica,sans-Serif" font-weight="bold" font-size="14.00">Meaning</text>
<polygon fill="#e6f3f9" stroke="none" points="1,-63 1,-94 81.5,-94 81.5,-63 1,-63"/>
<polygon fill="none" stroke="#5b6b73" points="1,-63 1,-94 81.5,-94 81.5,-63 1,-63"/>
<text xml:space="preserve" text-anchor="start" x="18.75" y="-73.7" font-family="Helvetica,sans-Serif" font-weight="bold" font-size="14.00">wait(P)</text>
<polygon fill="none" stroke="#5b6b73" points="81.5,-63 81.5,-94 210,-94 210,-63 81.5,-63"/>
<text xml:space="preserve" text-anchor="start" x="113.5" y="-74.75" font-family="Helvetica,sans-Serif" font-size="14.00">decrement</text>
<polygon fill="none" stroke="#5b6b73" points="210,-63 210,-94 376,-94 376,-63 210,-63"/>
<text xml:space="preserve" text-anchor="start" x="240.12" y="-74.75" font-family="Helvetica,sans-Serif" font-size="14.00">if result &lt; 0: block</text>
<polygon fill="none" stroke="#5b6b73" points="376,-63 376,-94 669.5,-94 669.5,-63 376,-63"/>
<text xml:space="preserve" text-anchor="start" x="391.5" y="-74.75" font-family="Helvetica,sans-Serif" font-size="14.00">consume a permit (or sleep until one exists)</text>
<polygon fill="#e6f3f9" stroke="none" points="1,-32 1,-63 81.5,-63 81.5,-32 1,-32"/>
<polygon fill="none" stroke="#5b6b73" points="1,-32 1,-63 81.5,-63 81.5,-32 1,-32"/>
<text xml:space="preserve" text-anchor="start" x="12.75" y="-42.7" font-family="Helvetica,sans-Serif" font-weight="bold" font-size="14.00">signal(V)</text>
<polygon fill="none" stroke="#5b6b73" points="81.5,-32 81.5,-63 210,-63 210,-32 81.5,-32"/>
<text xml:space="preserve" text-anchor="start" x="115.75" y="-43.75" font-family="Helvetica,sans-Serif" font-size="14.00">increment</text>
<polygon fill="none" stroke="#5b6b73" points="210,-32 210,-63 376,-63 376,-32 210,-32"/>
<text xml:space="preserve" text-anchor="start" x="218" y="-43.75" font-family="Helvetica,sans-Serif" font-size="14.00">if waiters exist: wake one</text>
<polygon fill="none" stroke="#5b6b73" points="376,-32 376,-63 669.5,-63 669.5,-32 376,-32"/>
<text xml:space="preserve" text-anchor="start" x="384" y="-43.75" font-family="Helvetica,sans-Serif" font-size="14.00">produce a permit (or resume a blocked waiter)</text>
<polygon fill="#fff3cd" stroke="none" points="1,-1 1,-32 81.5,-32 81.5,-1 1,-1"/>
<polygon fill="none" stroke="#5b6b73" points="1,-1 1,-32 81.5,-32 81.5,-1 1,-1"/>
<text xml:space="preserve" text-anchor="start" x="13.5" y="-11.7" font-family="Helvetica,sans-Serif" font-weight="bold" font-size="14.00">Key idea</text>
<polygon fill="none" stroke="#5b6b73" points="81.5,-1 81.5,-32 669.5,-32 669.5,-1 81.5,-1"/>
<text xml:space="preserve" text-anchor="start" x="162.5" y="-12.75" font-family="Helvetica,sans-Serif" font-size="14.00">A semaphore is a counter plus a queue: resource accounting + waiting.</text>
<polygon fill="none" stroke="#5b6b73" points="0,0 0,-126 670.5,-126 670.5,0 0,0"/>
</g>
</g>
</svg>
