<?xml version="1.0" encoding="UTF-8" standalone="no"?>
<!DOCTYPE svg PUBLIC "-//W3C//DTD SVG 1.1//EN"
 "http://www.w3.org/Graphics/SVG/1.1/DTD/svg11.dtd">
<!-- Generated by graphviz version 14.1.3 (20260303.0454)
 -->
<!-- Title: G Pages: 1 -->
<svg width="930pt" height="251pt"
 viewBox="0.00 0.00 930.00 251.00" xmlns="http://www.w3.org/2000/svg" xmlns:xlink="http://www.w3.org/1999/xlink">
<g id="graph0" class="graph" transform="scale(1 1) rotate(0) translate(18 233)">
<title>G</title>
<polygon fill="white" stroke="none" points="-18,18 -18,-233 912,-233 912,18 -18,18"/>
<g id="clust1" class="cluster">
<title>cluster_clients</title>
<path fill="#eaf6fb" stroke="#9ec9da" d="M12,-8C12,-8 177.25,-8 177.25,-8 183.25,-8 189.25,-14 189.25,-20 189.25,-20 189.25,-195 189.25,-195 189.25,-201 183.25,-207 177.25,-207 177.25,-207 12,-207 12,-207 6,-207 0,-201 0,-195 0,-195 0,-20 0,-20 0,-14 6,-8 12,-8"/>
<text xml:space="preserve" text-anchor="middle" x="94.62" y="-189.7" font-family="Times,serif" font-size="14.00">producers (unbounded demand)</text>
</g>
<g id="clust2" class="cluster">
<title>cluster_pool</title>
<path fill="#eaf6fb" stroke="#9ec9da" d="M256.75,-8C256.75,-8 515,-8 515,-8 521,-8 527,-14 527,-20 527,-20 527,-195 527,-195 527,-201 521,-207 515,-207 515,-207 256.75,-207 256.75,-207 250.75,-207 244.75,-201 244.75,-195 244.75,-195 244.75,-20 244.75,-20 244.75,-14 250.75,-8 256.75,-8"/>
<text xml:space="preserve" text-anchor="middle" x="385.88" y="-189.7" font-family="Times,serif" font-size="14.00">thread pool (bounded runnable work)</text>
</g>
<g id="clust3" class="cluster">
<title>cluster_service</title>
<path fill="#eaf6fb" stroke="#9ec9da" d="M564,-68C564,-68 874,-68 874,-68 880,-68 886,-74 886,-80 886,-80 886,-135 886,-135 886,-141 880,-147 874,-147 874,-147 564,-147 564,-147 558,-147 552,-141 552,-135 552,-135 552,-80 552,-80 552,-74 558,-68 564,-68"/>
<text xml:space="preserve" text-anchor="middle" x="719" y="-129.7" font-family="Times,serif" font-size="14.00">service logic</text>
</g>
<!-- c1 -->
<g id="node1" class="node">
<title>c1</title>
<path fill="#f5f5f5" stroke="#5b6b73" d="M146,-174C146,-174 42.25,-174 42.25,-174 36.25,-174 30.25,-168 30.25,-162 30.25,-162 30.25,-150 30.25,-150 30.25,-144 36.25,-138 42.25,-138 42.25,-138 146,-138 146,-138 152,-138 158,-144 158,-150 158,-150 158,-162 158,-162 158,-168 152,-174 146,-174"/>
<text xml:space="preserve" text-anchor="middle" x="94.12" y="-150.2" font-family="Helvetica,sans-Serif" font-size="14.00" fill="#233238">client / task source</text>
</g>
<!-- q -->
<g id="node4" class="node">
<title>q</title>
<path fill="#ddeaf1" stroke="#5b6b73" d="M326.5,-113C326.5,-113 264.75,-113 264.75,-113 258.75,-113 252.75,-107 252.75,-101 252.75,-101 252.75,-89 252.75,-89 252.75,-83 258.75,-77 264.75,-77 264.75,-77 326.5,-77 326.5,-77 332.5,-77 338.5,-83 338.5,-89 338.5,-89 338.5,-101 338.5,-101 338.5,-107 332.5,-113 326.5,-113"/>
<text xml:space="preserve" text-anchor="middle" x="295.62" y="-89.2" font-family="Helvetica,sans-Serif" font-size="14.00" fill="#233238">work queue</text>
</g>
<!-- c1&#45;&gt;q -->
<g id="edge1" class="edge">
<title>c1&#45;&gt;q</title>
<path fill="none" stroke="#5b6b73" stroke-width="1.05" d="M155.52,-137.53C183.77,-128.89 217.04,-118.72 243.96,-110.49"/>
<polygon fill="#5b6b73" stroke="#5b6b73" stroke-width="1.05" points="244.53,-113.06 250.94,-108.36 243,-108.04 244.53,-113.06"/>
<text xml:space="preserve" text-anchor="middle" x="217" y="-123.4" font-family="Helvetica,sans-Serif" font-size="11.00">submit</text>
</g>
<!-- c2 -->
<g id="node2" class="node">
<title>c2</title>
<path fill="#f5f5f5" stroke="#5b6b73" d="M146,-113C146,-113 42.25,-113 42.25,-113 36.25,-113 30.25,-107 30.25,-101 30.25,-101 30.25,-89 30.25,-89 30.25,-83 36.25,-77 42.25,-77 42.25,-77 146,-77 146,-77 152,-77 158,-83 158,-89 158,-89 158,-101 158,-101 158,-107 152,-113 146,-113"/>
<text xml:space="preserve" text-anchor="middle" x="94.12" y="-89.2" font-family="Helvetica,sans-Serif" font-size="14.00" fill="#233238">client / task source</text>
</g>
<!-- c2&#45;&gt;q -->
<g id="edge2" class="edge">
<title>c2&#45;&gt;q</title>
<path fill="none" stroke="#5b6b73" stroke-width="1.05" d="M158.25,-95C185.72,-95 217.49,-95 243.45,-95"/>
<polygon fill="#5b6b73" stroke="#5b6b73" stroke-width="1.05" points="243.29,-97.63 250.79,-95 243.29,-92.38 243.29,-97.63"/>
<text xml:space="preserve" text-anchor="middle" x="217" y="-96.55" font-family="Helvetica,sans-Serif" font-size="11.00">submit</text>
</g>
<!-- c3 -->
<g id="node3" class="node">
<title>c3</title>
<path fill="#f5f5f5" stroke="#5b6b73" d="M146,-52C146,-52 42.25,-52 42.25,-52 36.25,-52 30.25,-46 30.25,-40 30.25,-40 30.25,-28 30.25,-28 30.25,-22 36.25,-16 42.25,-16 42.25,-16 146,-16 146,-16 152,-16 158,-22 158,-28 158,-28 158,-40 158,-40 158,-46 152,-52 146,-52"/>
<text xml:space="preserve" text-anchor="middle" x="94.12" y="-28.2" font-family="Helvetica,sans-Serif" font-size="14.00" fill="#233238">client / task source</text>
</g>
<!-- c3&#45;&gt;q -->
<g id="edge3" class="edge">
<title>c3&#45;&gt;q</title>
<path fill="none" stroke="#5b6b73" stroke-width="1.05" d="M155.52,-52.47C183.77,-61.11 217.04,-71.28 243.96,-79.51"/>
<polygon fill="#5b6b73" stroke="#5b6b73" stroke-width="1.05" points="243,-81.96 250.94,-81.64 244.53,-76.94 243,-81.96"/>
<text xml:space="preserve" text-anchor="middle" x="217" y="-76.82" font-family="Helvetica,sans-Serif" font-size="11.00">submit</text>
</g>
<!-- w1 -->
<g id="node5" class="node">
<title>w1</title>
<path fill="#d5edf7" stroke="#5b6b73" d="M507,-174C507,-174 432.5,-174 432.5,-174 426.5,-174 420.5,-168 420.5,-162 420.5,-162 420.5,-150 420.5,-150 420.5,-144 426.5,-138 432.5,-138 432.5,-138 507,-138 507,-138 513,-138 519,-144 519,-150 519,-150 519,-162 519,-162 519,-168 513,-174 507,-174"/>
<text xml:space="preserve" text-anchor="middle" x="469.75" y="-150.2" font-family="Helvetica,sans-Serif" font-size="14.00" fill="#233238">worker thread</text>
</g>
<!-- q&#45;&gt;w1 -->
<g id="edge4" class="edge">
<title>q&#45;&gt;w1</title>
<path fill="none" stroke="#5b6b73" stroke-width="1.05" d="M338.73,-109.92C360.72,-117.72 387.95,-127.36 411.79,-135.81"/>
<polygon fill="#5b6b73" stroke="#5b6b73" stroke-width="1.05" points="410.63,-138.19 418.57,-138.22 412.38,-133.24 410.63,-138.19"/>
<text xml:space="preserve" text-anchor="middle" x="379.5" y="-132.51" font-family="Helvetica,sans-Serif" font-size="11.00">dequeue</text>
</g>
<!-- w2 -->
<g id="node6" class="node">
<title>w2</title>
<path fill="#d5edf7" stroke="#5b6b73" d="M507,-113C507,-113 432.5,-113 432.5,-113 426.5,-113 420.5,-107 420.5,-101 420.5,-101 420.5,-89 420.5,-89 420.5,-83 426.5,-77 432.5,-77 432.5,-77 507,-77 507,-77 513,-77 519,-83 519,-89 519,-89 519,-101 519,-101 519,-107 513,-113 507,-113"/>
<text xml:space="preserve" text-anchor="middle" x="469.75" y="-89.2" font-family="Helvetica,sans-Serif" font-size="14.00" fill="#233238">worker thread</text>
</g>
<!-- q&#45;&gt;w2 -->
<g id="edge5" class="edge">
<title>q&#45;&gt;w2</title>
<path fill="none" stroke="#5b6b73" stroke-width="1.05" d="M338.73,-95C360.53,-95 387.47,-95 411.17,-95"/>
<polygon fill="#5b6b73" stroke="#5b6b73" stroke-width="1.05" points="410.98,-97.63 418.48,-95 410.98,-92.38 410.98,-97.63"/>
<text xml:space="preserve" text-anchor="middle" x="379.5" y="-96.55" font-family="Helvetica,sans-Serif" font-size="11.00">dequeue</text>
</g>
<!-- w3 -->
<g id="node7" class="node">
<title>w3</title>
<path fill="#d5edf7" stroke="#5b6b73" d="M507,-52C507,-52 432.5,-52 432.5,-52 426.5,-52 420.5,-46 420.5,-40 420.5,-40 420.5,-28 420.5,-28 420.5,-22 426.5,-16 432.5,-16 432.5,-16 507,-16 507,-16 513,-16 519,-22 519,-28 519,-28 519,-40 519,-40 519,-46 513,-52 507,-52"/>
<text xml:space="preserve" text-anchor="middle" x="469.75" y="-28.2" font-family="Helvetica,sans-Serif" font-size="14.00" fill="#233238">worker thread</text>
</g>
<!-- q&#45;&gt;w3 -->
<g id="edge6" class="edge">
<title>q&#45;&gt;w3</title>
<path fill="none" stroke="#5b6b73" stroke-width="1.05" d="M338.73,-80.08C360.72,-72.28 387.95,-62.64 411.79,-54.19"/>
<polygon fill="#5b6b73" stroke="#5b6b73" stroke-width="1.05" points="412.38,-56.76 418.57,-51.78 410.63,-51.81 412.38,-56.76"/>
<text xml:space="preserve" text-anchor="middle" x="379.5" y="-73.31" font-family="Helvetica,sans-Serif" font-size="11.00">dequeue</text>
</g>
<!-- h -->
<g id="node8" class="node">
<title>h</title>
<path fill="#bfe2f1" stroke="#5b6b73" d="M666.75,-114C666.75,-114 572,-114 572,-114 566,-114 560,-108 560,-102 560,-102 560,-88 560,-88 560,-82 566,-76 572,-76 572,-76 666.75,-76 666.75,-76 672.75,-76 678.75,-82 678.75,-88 678.75,-88 678.75,-102 678.75,-102 678.75,-108 672.75,-114 666.75,-114"/>
<text xml:space="preserve" text-anchor="middle" x="619.38" y="-96.7" font-family="Helvetica,sans-Serif" font-size="14.00" fill="#233238">handler executes</text>
<text xml:space="preserve" text-anchor="middle" x="619.38" y="-81.7" font-family="Helvetica,sans-Serif" font-size="14.00" fill="#233238">(useful work)</text>
</g>
<!-- w1&#45;&gt;h -->
<g id="edge7" class="edge">
<title>w1&#45;&gt;h</title>
<path fill="none" stroke="#5b6b73" stroke-width="1.05" d="M515.44,-137.53C530.47,-131.32 547.42,-124.32 563.17,-117.81"/>
<polygon fill="#5b6b73" stroke="#5b6b73" stroke-width="1.05" points="563.87,-120.36 569.8,-115.07 561.87,-115.51 563.87,-120.36"/>
</g>
<!-- w2&#45;&gt;h -->
<g id="edge8" class="edge">
<title>w2&#45;&gt;h</title>
<path fill="none" stroke="#5b6b73" stroke-width="1.05" d="M519.5,-95C529.54,-95 540.28,-95 550.84,-95"/>
<polygon fill="#5b6b73" stroke="#5b6b73" stroke-width="1.05" points="550.57,-97.63 558.07,-95 550.57,-92.38 550.57,-97.63"/>
</g>
<!-- w3&#45;&gt;h -->
<g id="edge9" class="edge">
<title>w3&#45;&gt;h</title>
<path fill="none" stroke="#5b6b73" stroke-width="1.05" d="M515.44,-52.47C530.47,-58.68 547.42,-65.68 563.17,-72.19"/>
<polygon fill="#5b6b73" stroke="#5b6b73" stroke-width="1.05" points="561.87,-74.49 569.8,-74.93 563.87,-69.64 561.87,-74.49"/>
</g>
<!-- out -->
<g id="node9" class="node">
<title>out</title>
<path fill="#f5f5f5" stroke="#5b6b73" d="M866,-114C866,-114 774.25,-114 774.25,-114 768.25,-114 762.25,-108 762.25,-102 762.25,-102 762.25,-90 762.25,-90 762.25,-84 768.25,-78 774.25,-78 774.25,-78 866,-78 866,-78 872,-78 878,-84 878,-90 878,-90 878,-102 878,-102 878,-108 872,-114 866,-114"/>
<text xml:space="preserve" text-anchor="middle" x="820.12" y="-90.2" font-family="Helvetica,sans-Serif" font-size="14.00" fill="#233238">result / response</text>
</g>
<!-- h&#45;&gt;out -->
<g id="edge10" class="edge">
<title>h&#45;&gt;out</title>
<path fill="none" stroke="#5b6b73" stroke-width="1.05" d="M679.2,-95.3C702.34,-95.41 729.02,-95.55 752.84,-95.67"/>
<polygon fill="#5b6b73" stroke="#5b6b73" stroke-width="1.05" points="752.72,-98.29 760.23,-95.7 752.74,-93.04 752.72,-98.29"/>
<text xml:space="preserve" text-anchor="middle" x="720.5" y="-97.14" font-family="Helvetica,sans-Serif" font-size="11.00">complete</text>
</g>
</g>
</svg>
