<?xml version="1.0" encoding="UTF-8" standalone="no"?>
<!DOCTYPE svg PUBLIC "-//W3C//DTD SVG 1.1//EN"
 "http://www.w3.org/Graphics/SVG/1.1/DTD/svg11.dtd">
<!-- Generated by graphviz version 14.1.3 (20260303.0454)
 -->
<!-- Title: G Pages: 1 -->
<svg width="1146pt" height="217pt"
 viewBox="0.00 0.00 1146.00 217.00" xmlns="http://www.w3.org/2000/svg" xmlns:xlink="http://www.w3.org/1999/xlink">
<g id="graph0" class="graph" transform="scale(1 1) rotate(0) translate(14.4 202.4)">
<title>G</title>
<polygon fill="white" stroke="none" points="-14.4,14.4 -14.4,-202.4 1131.9,-202.4 1131.9,14.4 -14.4,14.4"/>
<!-- cmp -->
<g id="node1" class="node">
<title>cmp</title>
<polygon fill="#f5f5f5" stroke="none" points="1,-156 1,-187 224,-187 224,-156 1,-156"/>
<polygon fill="none" stroke="#5b6b73" points="1,-156 1,-187 224,-187 224,-156 1,-156"/>
<text xml:space="preserve" text-anchor="start" x="82.88" y="-166.7" font-family="Helvetica,sans-Serif" font-weight="bold" font-size="14.00">Question</text>
<polygon fill="#f5f5f5" stroke="none" points="224,-156 224,-187 483,-187 483,-156 224,-156"/>
<polygon fill="none" stroke="#5b6b73" points="224,-156 224,-187 483,-187 483,-156 224,-156"/>
<text xml:space="preserve" text-anchor="start" x="294.62" y="-166.7" font-family="Helvetica,sans-Serif" font-weight="bold" font-size="14.00">Many&#45;to&#45;one (M:1)</text>
<polygon fill="#f5f5f5" stroke="none" points="483,-156 483,-187 739,-187 739,-156 483,-156"/>
<polygon fill="none" stroke="#5b6b73" points="483,-156 483,-187 739,-187 739,-156 483,-156"/>
<text xml:space="preserve" text-anchor="start" x="558.5" y="-166.7" font-family="Helvetica,sans-Serif" font-weight="bold" font-size="14.00">One&#45;to&#45;one (1:1)</text>
<polygon fill="#f5f5f5" stroke="none" points="739,-156 739,-187 1116.5,-187 1116.5,-156 739,-156"/>
<polygon fill="none" stroke="#5b6b73" points="739,-156 739,-187 1116.5,-187 1116.5,-156 739,-156"/>
<text xml:space="preserve" text-anchor="start" x="861.75" y="-166.7" font-family="Helvetica,sans-Serif" font-weight="bold" font-size="14.00">Many&#45;to&#45;many (M:N)</text>
<polygon fill="#e6f3f9" stroke="none" points="1,-125 1,-156 224,-156 224,-125 1,-125"/>
<polygon fill="none" stroke="#5b6b73" points="1,-125 1,-156 224,-156 224,-125 1,-125"/>
<text xml:space="preserve" text-anchor="start" x="9" y="-135.7" font-family="Helvetica,sans-Serif" font-weight="bold" font-size="14.00">What does the kernel schedule?</text>
<polygon fill="none" stroke="#5b6b73" points="224,-125 224,-156 483,-156 483,-125 224,-125"/>
<text xml:space="preserve" text-anchor="start" x="235" y="-136.75" font-family="Helvetica,sans-Serif" font-size="14.00">one kernel thread for the whole process</text>
<polygon fill="none" stroke="#5b6b73" points="483,-125 483,-156 739,-156 739,-125 483,-125"/>
<text xml:space="preserve" text-anchor="start" x="510.88" y="-136.75" font-family="Helvetica,sans-Serif" font-size="14.00">one kernel thread per user thread</text>
<polygon fill="none" stroke="#5b6b73" points="739,-125 739,-156 1116.5,-156 1116.5,-125 739,-125"/>
<text xml:space="preserve" text-anchor="start" x="768.38" y="-136.75" font-family="Helvetica,sans-Serif" font-size="14.00">N kernel threads; runtime multiplexes M user threads</text>
<polygon fill="#e6f3f9" stroke="none" points="1,-94 1,-125 224,-125 224,-94 1,-94"/>
<polygon fill="none" stroke="#5b6b73" points="1,-94 1,-125 224,-125 224,-94 1,-94"/>
<text xml:space="preserve" text-anchor="start" x="29.62" y="-104.7" font-family="Helvetica,sans-Serif" font-weight="bold" font-size="14.00">Parallelism on multicore?</text>
<polygon fill="none" stroke="#5b6b73" points="224,-94 224,-125 483,-125 483,-94 224,-94"/>
<text xml:space="preserve" text-anchor="start" x="232" y="-105.75" font-family="Helvetica,sans-Serif" font-size="14.00">no (cannot run two user threads at once)</text>
<polygon fill="none" stroke="#5b6b73" points="483,-94 483,-125 739,-125 739,-94 483,-94"/>
<text xml:space="preserve" text-anchor="start" x="491" y="-105.75" font-family="Helvetica,sans-Serif" font-size="14.00">yes (threads may run on different cores)</text>
<polygon fill="none" stroke="#5b6b73" points="739,-94 739,-125 1116.5,-125 1116.5,-94 739,-94"/>
<text xml:space="preserve" text-anchor="start" x="798.38" y="-105.75" font-family="Helvetica,sans-Serif" font-size="14.00">yes (bounded by number of kernel threads)</text>
<polygon fill="#e6f3f9" stroke="none" points="1,-63 1,-94 224,-94 224,-63 1,-63"/>
<polygon fill="none" stroke="#5b6b73" points="1,-63 1,-94 224,-94 224,-63 1,-63"/>
<text xml:space="preserve" text-anchor="start" x="45.38" y="-73.7" font-family="Helvetica,sans-Serif" font-weight="bold" font-size="14.00">Blocking system call</text>
<polygon fill="none" stroke="#5b6b73" points="224,-63 224,-94 483,-94 483,-63 224,-63"/>
<text xml:space="preserve" text-anchor="start" x="278.12" y="-74.75" font-family="Helvetica,sans-Serif" font-size="14.00">blocks the whole process</text>
<polygon fill="none" stroke="#5b6b73" points="483,-63 483,-94 739,-94 739,-63 483,-63"/>
<text xml:space="preserve" text-anchor="start" x="524.38" y="-74.75" font-family="Helvetica,sans-Serif" font-size="14.00">blocks only the calling thread</text>
<polygon fill="none" stroke="#5b6b73" points="739,-63 739,-94 1116.5,-94 1116.5,-63 739,-63"/>
<text xml:space="preserve" text-anchor="start" x="747" y="-74.75" font-family="Helvetica,sans-Serif" font-size="14.00">blocks one kernel thread; runtime may remap runnable work</text>
<polygon fill="#e6f3f9" stroke="none" points="1,-32 1,-63 224,-63 224,-32 1,-32"/>
<polygon fill="none" stroke="#5b6b73" points="1,-32 1,-63 224,-63 224,-32 1,-32"/>
<text xml:space="preserve" text-anchor="start" x="61.5" y="-42.7" font-family="Helvetica,sans-Serif" font-weight="bold" font-size="14.00">Main advantage</text>
<polygon fill="none" stroke="#5b6b73" points="224,-32 224,-63 483,-63 483,-32 224,-32"/>
<text xml:space="preserve" text-anchor="start" x="270.25" y="-43.75" font-family="Helvetica,sans-Serif" font-size="14.00">cheap user&#45;level thread ops</text>
<polygon fill="none" stroke="#5b6b73" points="483,-32 483,-63 739,-63 739,-32 483,-32"/>
<text xml:space="preserve" text-anchor="start" x="495.5" y="-43.75" font-family="Helvetica,sans-Serif" font-size="14.00">simple reasoning, good OS integration</text>
<polygon fill="none" stroke="#5b6b73" points="739,-32 739,-63 1116.5,-63 1116.5,-32 739,-32"/>
<text xml:space="preserve" text-anchor="start" x="765.75" y="-43.75" font-family="Helvetica,sans-Serif" font-size="14.00">flexibility: many user threads with bounded kernel cost</text>
<polygon fill="#e6f3f9" stroke="none" points="1,-1 1,-32 224,-32 224,-1 1,-1"/>
<polygon fill="none" stroke="#5b6b73" points="1,-1 1,-32 224,-32 224,-1 1,-1"/>
<text xml:space="preserve" text-anchor="start" x="81" y="-11.7" font-family="Helvetica,sans-Serif" font-weight="bold" font-size="14.00">Main cost</text>
<polygon fill="none" stroke="#5b6b73" points="224,-1 224,-32 483,-32 483,-1 224,-1"/>
<text xml:space="preserve" text-anchor="start" x="234.62" y="-12.75" font-family="Helvetica,sans-Serif" font-size="14.00">poor multicore + poor blocking behavior</text>
<polygon fill="none" stroke="#5b6b73" points="483,-1 483,-32 739,-32 739,-1 483,-1"/>
<text xml:space="preserve" text-anchor="start" x="497" y="-12.75" font-family="Helvetica,sans-Serif" font-size="14.00">kernel overhead + memory per thread</text>
<polygon fill="none" stroke="#5b6b73" points="739,-1 739,-32 1116.5,-32 1116.5,-1 739,-1"/>
<text xml:space="preserve" text-anchor="start" x="818.25" y="-12.75" font-family="Helvetica,sans-Serif" font-size="14.00">complex runtime&#45;kernel coordination</text>
<polygon fill="none" stroke="#5b6b73" points="0,0 0,-188 1117.5,-188 1117.5,0 0,0"/>
</g>
</g>
</svg>
