<?xml version="1.0" encoding="UTF-8" standalone="no"?>
<!DOCTYPE svg PUBLIC "-//W3C//DTD SVG 1.1//EN"
 "http://www.w3.org/Graphics/SVG/1.1/DTD/svg11.dtd">
<!-- Generated by graphviz version 14.1.3 (20260303.0454)
 -->
<!-- Title: G Pages: 1 -->
<svg width="1868pt" height="200pt"
 viewBox="0.00 0.00 1868.00 200.00" xmlns="http://www.w3.org/2000/svg" xmlns:xlink="http://www.w3.org/1999/xlink">
<g id="graph0" class="graph" transform="scale(1 1) rotate(0) translate(18 182)">
<title>G</title>
<polygon fill="white" stroke="none" points="-18,18 -18,-182 1850,-182 1850,18 -18,18"/>
<!-- center -->
<g id="node1" class="node">
<title>center</title>
<path fill="#bfe2f1" stroke="#5b6b73" d="M975.38,-164C975.38,-164 783.38,-164 783.38,-164 777.38,-164 771.38,-158 771.38,-152 771.38,-152 771.38,-123 771.38,-123 771.38,-117 777.38,-111 783.38,-111 783.38,-111 975.38,-111 975.38,-111 981.38,-111 987.38,-117 987.38,-123 987.38,-123 987.38,-152 987.38,-152 987.38,-158 981.38,-164 975.38,-164"/>
<text xml:space="preserve" text-anchor="middle" x="879.38" y="-146.7" font-family="Helvetica,sans-Serif" font-size="14.00" fill="#233238">Key questions</text>
<text xml:space="preserve" text-anchor="middle" x="879.38" y="-131.7" font-family="Helvetica,sans-Serif" font-size="14.00" fill="#233238">are retrieval cues for</text>
<text xml:space="preserve" text-anchor="middle" x="879.38" y="-116.7" font-family="Helvetica,sans-Serif" font-size="14.00" fill="#233238">core mechanisms</text>
</g>
<!-- control -->
<g id="node2" class="node">
<title>control</title>
<path fill="#e6f3f9" stroke="#5b6b73" d="M118.75,-60.5C118.75,-60.5 12,-60.5 12,-60.5 6,-60.5 0,-54.5 0,-48.5 0,-48.5 0,-19.5 0,-19.5 0,-13.5 6,-7.5 12,-7.5 12,-7.5 118.75,-7.5 118.75,-7.5 124.75,-7.5 130.75,-13.5 130.75,-19.5 130.75,-19.5 130.75,-48.5 130.75,-48.5 130.75,-54.5 124.75,-60.5 118.75,-60.5"/>
<text xml:space="preserve" text-anchor="middle" x="65.38" y="-43.2" font-family="Helvetica,sans-Serif" font-size="14.00" fill="#233238">control loop:</text>
<text xml:space="preserve" text-anchor="middle" x="65.38" y="-28.2" font-family="Helvetica,sans-Serif" font-size="14.00" fill="#233238">timer + preemption</text>
<text xml:space="preserve" text-anchor="middle" x="65.38" y="-13.2" font-family="Helvetica,sans-Serif" font-size="14.00" fill="#233238">(Q1, Q6, Q15)</text>
</g>
<!-- center&#45;&gt;control -->
<g id="edge1" class="edge">
<title>center&#45;&gt;control</title>
<path fill="none" stroke="#5b6b73" stroke-width="1.05" d="M771.1,-136.08C626.81,-133.33 364.45,-120.65 147.38,-68 142.41,-66.8 137.34,-65.34 132.29,-63.73"/>
<polygon fill="#5b6b73" stroke="#5b6b73" stroke-width="1.05" points="133.28,-61.3 125.33,-61.39 131.6,-66.27 133.28,-61.3"/>
</g>
<!-- entry -->
<g id="node3" class="node">
<title>entry</title>
<path fill="#ddeaf1" stroke="#5b6b73" d="M295.5,-60.5C295.5,-60.5 175.25,-60.5 175.25,-60.5 169.25,-60.5 163.25,-54.5 163.25,-48.5 163.25,-48.5 163.25,-19.5 163.25,-19.5 163.25,-13.5 169.25,-7.5 175.25,-7.5 175.25,-7.5 295.5,-7.5 295.5,-7.5 301.5,-7.5 307.5,-13.5 307.5,-19.5 307.5,-19.5 307.5,-48.5 307.5,-48.5 307.5,-54.5 301.5,-60.5 295.5,-60.5"/>
<text xml:space="preserve" text-anchor="middle" x="235.38" y="-43.2" font-family="Helvetica,sans-Serif" font-size="14.00" fill="#233238">kernel entry:</text>
<text xml:space="preserve" text-anchor="middle" x="235.38" y="-28.2" font-family="Helvetica,sans-Serif" font-size="14.00" fill="#233238">interrupt vs exception</text>
<text xml:space="preserve" text-anchor="middle" x="235.38" y="-13.2" font-family="Helvetica,sans-Serif" font-size="14.00" fill="#233238">(Q5)</text>
</g>
<!-- center&#45;&gt;entry -->
<g id="edge2" class="edge">
<title>center&#45;&gt;entry</title>
<path fill="none" stroke="#5b6b73" stroke-width="1.05" d="M770.9,-130.73C657.84,-122.96 476.15,-105.5 323.38,-68 318.18,-66.72 312.86,-65.23 307.55,-63.6"/>
<polygon fill="#5b6b73" stroke="#5b6b73" stroke-width="1.05" points="308.68,-61.21 300.74,-61.42 307.08,-66.21 308.68,-61.21"/>
</g>
<!-- io -->
<g id="node4" class="node">
<title>io</title>
<path fill="#e6f3f9" stroke="#5b6b73" d="M460.88,-68C460.88,-68 351.88,-68 351.88,-68 345.88,-68 339.88,-62 339.88,-56 339.88,-56 339.88,-12 339.88,-12 339.88,-6 345.88,0 351.88,0 351.88,0 460.88,0 460.88,0 466.88,0 472.88,-6 472.88,-12 472.88,-12 472.88,-56 472.88,-56 472.88,-62 466.88,-68 460.88,-68"/>
<text xml:space="preserve" text-anchor="middle" x="406.38" y="-50.7" font-family="Helvetica,sans-Serif" font-size="14.00" fill="#233238">I/O + DMA:</text>
<text xml:space="preserve" text-anchor="middle" x="406.38" y="-35.7" font-family="Helvetica,sans-Serif" font-size="14.00" fill="#233238">async completion +</text>
<text xml:space="preserve" text-anchor="middle" x="406.38" y="-20.7" font-family="Helvetica,sans-Serif" font-size="14.00" fill="#233238">ownership rules</text>
<text xml:space="preserve" text-anchor="middle" x="406.38" y="-5.7" font-family="Helvetica,sans-Serif" font-size="14.00" fill="#233238">(Q2)</text>
</g>
<!-- center&#45;&gt;io -->
<g id="edge3" class="edge">
<title>center&#45;&gt;io</title>
<path fill="none" stroke="#5b6b73" stroke-width="1.05" d="M770.96,-123.71C691.71,-112.87 582.15,-94.76 488.38,-68 486.18,-67.37 483.96,-66.71 481.73,-66.01"/>
<polygon fill="#5b6b73" stroke="#5b6b73" stroke-width="1.05" points="482.56,-63.52 474.61,-63.67 480.92,-68.51 482.56,-63.52"/>
</g>
<!-- conc -->
<g id="node5" class="node">
<title>conc</title>
<path fill="#e6f3f9" stroke="#5b6b73" d="M620.25,-60.5C620.25,-60.5 516.5,-60.5 516.5,-60.5 510.5,-60.5 504.5,-54.5 504.5,-48.5 504.5,-48.5 504.5,-19.5 504.5,-19.5 504.5,-13.5 510.5,-7.5 516.5,-7.5 516.5,-7.5 620.25,-7.5 620.25,-7.5 626.25,-7.5 632.25,-13.5 632.25,-19.5 632.25,-19.5 632.25,-48.5 632.25,-48.5 632.25,-54.5 626.25,-60.5 620.25,-60.5"/>
<text xml:space="preserve" text-anchor="middle" x="568.38" y="-43.2" font-family="Helvetica,sans-Serif" font-size="14.00" fill="#233238">concurrency:</text>
<text xml:space="preserve" text-anchor="middle" x="568.38" y="-28.2" font-family="Helvetica,sans-Serif" font-size="14.00" fill="#233238">races + coherence</text>
<text xml:space="preserve" text-anchor="middle" x="568.38" y="-13.2" font-family="Helvetica,sans-Serif" font-size="14.00" fill="#233238">(Q3, Q9)</text>
</g>
<!-- center&#45;&gt;conc -->
<g id="edge4" class="edge">
<title>center&#45;&gt;conc</title>
<path fill="none" stroke="#5b6b73" stroke-width="1.05" d="M782.96,-110.57C740.97,-98.63 691.4,-83.64 647.38,-68 643.91,-66.77 640.37,-65.47 636.82,-64.12"/>
<polygon fill="#5b6b73" stroke="#5b6b73" stroke-width="1.05" points="637.92,-61.73 629.98,-61.48 636.03,-66.63 637.92,-61.73"/>
</g>
<!-- alloc -->
<g id="node6" class="node">
<title>alloc</title>
<path fill="#ddeaf1" stroke="#5b6b73" d="M766.88,-60.5C766.88,-60.5 675.88,-60.5 675.88,-60.5 669.88,-60.5 663.88,-54.5 663.88,-48.5 663.88,-48.5 663.88,-19.5 663.88,-19.5 663.88,-13.5 669.88,-7.5 675.88,-7.5 675.88,-7.5 766.88,-7.5 766.88,-7.5 772.88,-7.5 778.88,-13.5 778.88,-19.5 778.88,-19.5 778.88,-48.5 778.88,-48.5 778.88,-54.5 772.88,-60.5 766.88,-60.5"/>
<text xml:space="preserve" text-anchor="middle" x="721.38" y="-43.2" font-family="Helvetica,sans-Serif" font-size="14.00" fill="#233238">scarcity framing:</text>
<text xml:space="preserve" text-anchor="middle" x="721.38" y="-28.2" font-family="Helvetica,sans-Serif" font-size="14.00" fill="#233238">OS as allocator</text>
<text xml:space="preserve" text-anchor="middle" x="721.38" y="-13.2" font-family="Helvetica,sans-Serif" font-size="14.00" fill="#233238">(Q4)</text>
</g>
<!-- center&#45;&gt;alloc -->
<g id="edge5" class="edge">
<title>center&#45;&gt;alloc</title>
<path fill="none" stroke="#5b6b73" stroke-width="1.05" d="M839.1,-110.62C817.74,-96.9 791.37,-79.96 769,-65.59"/>
<polygon fill="#5b6b73" stroke="#5b6b73" stroke-width="1.05" points="770.65,-63.53 762.92,-61.69 767.81,-67.95 770.65,-63.53"/>
</g>
<!-- blocked -->
<g id="node7" class="node">
<title>blocked</title>
<path fill="#e6f3f9" stroke="#5b6b73" d="M936.12,-60.5C936.12,-60.5 822.62,-60.5 822.62,-60.5 816.62,-60.5 810.62,-54.5 810.62,-48.5 810.62,-48.5 810.62,-19.5 810.62,-19.5 810.62,-13.5 816.62,-7.5 822.62,-7.5 822.62,-7.5 936.12,-7.5 936.12,-7.5 942.12,-7.5 948.12,-13.5 948.12,-19.5 948.12,-19.5 948.12,-48.5 948.12,-48.5 948.12,-54.5 942.12,-60.5 936.12,-60.5"/>
<text xml:space="preserve" text-anchor="middle" x="879.38" y="-43.2" font-family="Helvetica,sans-Serif" font-size="14.00" fill="#233238">blocked state:</text>
<text xml:space="preserve" text-anchor="middle" x="879.38" y="-28.2" font-family="Helvetica,sans-Serif" font-size="14.00" fill="#233238">wait condition is real</text>
<text xml:space="preserve" text-anchor="middle" x="879.38" y="-13.2" font-family="Helvetica,sans-Serif" font-size="14.00" fill="#233238">(Q7)</text>
</g>
<!-- center&#45;&gt;blocked -->
<g id="edge6" class="edge">
<title>center&#45;&gt;blocked</title>
<path fill="none" stroke="#5b6b73" stroke-width="1.05" d="M879.38,-110.62C879.38,-98.22 879.38,-83.17 879.38,-69.78"/>
<polygon fill="#5b6b73" stroke="#5b6b73" stroke-width="1.05" points="882,-69.92 879.38,-62.42 876.75,-69.92 882,-69.92"/>
</g>
<!-- files -->
<g id="node8" class="node">
<title>files</title>
<path fill="#e6f3f9" stroke="#5b6b73" d="M1140.38,-60.5C1140.38,-60.5 992.38,-60.5 992.38,-60.5 986.38,-60.5 980.38,-54.5 980.38,-48.5 980.38,-48.5 980.38,-19.5 980.38,-19.5 980.38,-13.5 986.38,-7.5 992.38,-7.5 992.38,-7.5 1140.38,-7.5 1140.38,-7.5 1146.38,-7.5 1152.38,-13.5 1152.38,-19.5 1152.38,-19.5 1152.38,-48.5 1152.38,-48.5 1152.38,-54.5 1146.38,-60.5 1140.38,-60.5"/>
<text xml:space="preserve" text-anchor="middle" x="1066.38" y="-43.2" font-family="Helvetica,sans-Serif" font-size="14.00" fill="#233238">file abstraction:</text>
<text xml:space="preserve" text-anchor="middle" x="1066.38" y="-28.2" font-family="Helvetica,sans-Serif" font-size="14.00" fill="#233238">name &#45;&gt; durable mapping</text>
<text xml:space="preserve" text-anchor="middle" x="1066.38" y="-13.2" font-family="Helvetica,sans-Serif" font-size="14.00" fill="#233238">(Q8)</text>
</g>
<!-- center&#45;&gt;files -->
<g id="edge7" class="edge">
<title>center&#45;&gt;files</title>
<path fill="none" stroke="#5b6b73" stroke-width="1.05" d="M927.05,-110.62C952.65,-96.73 984.35,-79.52 1011.04,-65.03"/>
<polygon fill="#5b6b73" stroke="#5b6b73" stroke-width="1.05" points="1012.05,-67.47 1017.39,-61.59 1009.55,-62.86 1012.05,-67.47"/>
</g>
<!-- scale -->
<g id="node9" class="node">
<title>scale</title>
<path fill="#e6f3f9" stroke="#5b6b73" d="M1306.62,-60.5C1306.62,-60.5 1196.12,-60.5 1196.12,-60.5 1190.12,-60.5 1184.12,-54.5 1184.12,-48.5 1184.12,-48.5 1184.12,-19.5 1184.12,-19.5 1184.12,-13.5 1190.12,-7.5 1196.12,-7.5 1196.12,-7.5 1306.62,-7.5 1306.62,-7.5 1312.62,-7.5 1318.62,-13.5 1318.62,-19.5 1318.62,-19.5 1318.62,-48.5 1318.62,-48.5 1318.62,-54.5 1312.62,-60.5 1306.62,-60.5"/>
<text xml:space="preserve" text-anchor="middle" x="1251.38" y="-43.2" font-family="Helvetica,sans-Serif" font-size="14.00" fill="#233238">scaling:</text>
<text xml:space="preserve" text-anchor="middle" x="1251.38" y="-28.2" font-family="Helvetica,sans-Serif" font-size="14.00" fill="#233238">partial failure model</text>
<text xml:space="preserve" text-anchor="middle" x="1251.38" y="-13.2" font-family="Helvetica,sans-Serif" font-size="14.00" fill="#233238">(Q10)</text>
</g>
<!-- center&#45;&gt;scale -->
<g id="edge8" class="edge">
<title>center&#45;&gt;scale</title>
<path fill="none" stroke="#5b6b73" stroke-width="1.05" d="M987.78,-114.73C1042.46,-102.76 1109.49,-86.58 1168.38,-68 1172.41,-66.73 1176.54,-65.35 1180.68,-63.9"/>
<polygon fill="#5b6b73" stroke="#5b6b73" stroke-width="1.05" points="1181.51,-66.39 1187.69,-61.39 1179.74,-61.45 1181.51,-66.39"/>
</g>
<!-- protect -->
<g id="node10" class="node">
<title>protect</title>
<path fill="#ddeaf1" stroke="#5b6b73" d="M1490.25,-60.5C1490.25,-60.5 1362.5,-60.5 1362.5,-60.5 1356.5,-60.5 1350.5,-54.5 1350.5,-48.5 1350.5,-48.5 1350.5,-19.5 1350.5,-19.5 1350.5,-13.5 1356.5,-7.5 1362.5,-7.5 1362.5,-7.5 1490.25,-7.5 1490.25,-7.5 1496.25,-7.5 1502.25,-13.5 1502.25,-19.5 1502.25,-19.5 1502.25,-48.5 1502.25,-48.5 1502.25,-54.5 1496.25,-60.5 1490.25,-60.5"/>
<text xml:space="preserve" text-anchor="middle" x="1426.38" y="-43.2" font-family="Helvetica,sans-Serif" font-size="14.00" fill="#233238">protection vs security:</text>
<text xml:space="preserve" text-anchor="middle" x="1426.38" y="-28.2" font-family="Helvetica,sans-Serif" font-size="14.00" fill="#233238">enforcement boundary</text>
<text xml:space="preserve" text-anchor="middle" x="1426.38" y="-13.2" font-family="Helvetica,sans-Serif" font-size="14.00" fill="#233238">(Q11, Q12)</text>
</g>
<!-- center&#45;&gt;protect -->
<g id="edge9" class="edge">
<title>center&#45;&gt;protect</title>
<path fill="none" stroke="#5b6b73" stroke-width="1.05" d="M987.65,-126.21C1080.58,-115.96 1217.6,-97.43 1334.38,-68 1339.61,-66.68 1344.97,-65.18 1350.33,-63.56"/>
<polygon fill="#5b6b73" stroke="#5b6b73" stroke-width="1.05" points="1350.86,-66.14 1357.24,-61.4 1349.3,-61.13 1350.86,-66.14"/>
</g>
<!-- structs -->
<g id="node11" class="node">
<title>structs</title>
<path fill="#e6f3f9" stroke="#5b6b73" d="M1646.38,-60.5C1646.38,-60.5 1546.38,-60.5 1546.38,-60.5 1540.38,-60.5 1534.38,-54.5 1534.38,-48.5 1534.38,-48.5 1534.38,-19.5 1534.38,-19.5 1534.38,-13.5 1540.38,-7.5 1546.38,-7.5 1546.38,-7.5 1646.38,-7.5 1646.38,-7.5 1652.38,-7.5 1658.38,-13.5 1658.38,-19.5 1658.38,-19.5 1658.38,-48.5 1658.38,-48.5 1658.38,-54.5 1652.38,-60.5 1646.38,-60.5"/>
<text xml:space="preserve" text-anchor="middle" x="1596.38" y="-43.2" font-family="Helvetica,sans-Serif" font-size="14.00" fill="#233238">data structures:</text>
<text xml:space="preserve" text-anchor="middle" x="1596.38" y="-28.2" font-family="Helvetica,sans-Serif" font-size="14.00" fill="#233238">policy in hot paths</text>
<text xml:space="preserve" text-anchor="middle" x="1596.38" y="-13.2" font-family="Helvetica,sans-Serif" font-size="14.00" fill="#233238">(Q13)</text>
</g>
<!-- center&#45;&gt;structs -->
<g id="edge10" class="edge">
<title>center&#45;&gt;structs</title>
<path fill="none" stroke="#5b6b73" stroke-width="1.05" d="M987.66,-134.52C1116.16,-129.97 1335.98,-115.26 1518.38,-68 1522.91,-66.82 1527.53,-65.43 1532.13,-63.89"/>
<polygon fill="#5b6b73" stroke="#5b6b73" stroke-width="1.05" points="1532.7,-66.48 1538.89,-61.5 1530.95,-61.52 1532.7,-66.48"/>
</g>
<!-- models -->
<g id="node12" class="node">
<title>models</title>
<path fill="#e6f3f9" stroke="#5b6b73" d="M1820,-68C1820,-68 1702.75,-68 1702.75,-68 1696.75,-68 1690.75,-62 1690.75,-56 1690.75,-56 1690.75,-12 1690.75,-12 1690.75,-6 1696.75,0 1702.75,0 1702.75,0 1820,0 1820,0 1826,0 1832,-6 1832,-12 1832,-12 1832,-56 1832,-56 1832,-62 1826,-68 1820,-68"/>
<text xml:space="preserve" text-anchor="middle" x="1761.38" y="-50.7" font-family="Helvetica,sans-Serif" font-size="14.00" fill="#233238">models &#45;&gt; code:</text>
<text xml:space="preserve" text-anchor="middle" x="1761.38" y="-35.7" font-family="Helvetica,sans-Serif" font-size="14.00" fill="#233238">use concepts to read</text>
<text xml:space="preserve" text-anchor="middle" x="1761.38" y="-20.7" font-family="Helvetica,sans-Serif" font-size="14.00" fill="#233238">kernels</text>
<text xml:space="preserve" text-anchor="middle" x="1761.38" y="-5.7" font-family="Helvetica,sans-Serif" font-size="14.00" fill="#233238">(Q14)</text>
</g>
<!-- center&#45;&gt;models -->
<g id="edge11" class="edge">
<title>center&#45;&gt;models</title>
<path fill="none" stroke="#5b6b73" stroke-width="1.05" d="M987.56,-136.59C1141.89,-134.6 1433.29,-122.99 1674.38,-68 1676.89,-67.43 1679.42,-66.8 1681.97,-66.12"/>
<polygon fill="#5b6b73" stroke="#5b6b73" stroke-width="1.05" points="1682.63,-68.66 1689.12,-64.09 1681.19,-63.61 1682.63,-68.66"/>
</g>
</g>
</svg>
