<?xml version="1.0" encoding="UTF-8" standalone="no"?>
<!DOCTYPE svg PUBLIC "-//W3C//DTD SVG 1.1//EN"
 "http://www.w3.org/Graphics/SVG/1.1/DTD/svg11.dtd">
<!-- Generated by graphviz version 14.1.3 (20260303.0454)
 -->
<!-- Title: G Pages: 1 -->
<svg width="1096pt" height="203pt"
 viewBox="0.00 0.00 1096.00 203.00" xmlns="http://www.w3.org/2000/svg" xmlns:xlink="http://www.w3.org/1999/xlink">
<g id="graph0" class="graph" transform="scale(1 1) rotate(0) translate(18 185)">
<title>G</title>
<polygon fill="white" stroke="none" points="-18,18 -18,-185 1078.25,-185 1078.25,18 -18,18"/>
<g id="clust1" class="cluster">
<title>cluster_kernel</title>
<path fill="#eaf6fb" stroke="#9ec9da" d="M184.25,-8C184.25,-8 834.75,-8 834.75,-8 840.75,-8 846.75,-14 846.75,-20 846.75,-20 846.75,-147 846.75,-147 846.75,-153 840.75,-159 834.75,-159 834.75,-159 184.25,-159 184.25,-159 178.25,-159 172.25,-153 172.25,-147 172.25,-147 172.25,-20 172.25,-20 172.25,-14 178.25,-8 184.25,-8"/>
<text xml:space="preserve" text-anchor="middle" x="509.5" y="-141.7" font-family="Times,serif" font-size="14.00">kernel file abstraction</text>
</g>
<!-- app -->
<g id="node1" class="node">
<title>app</title>
<path fill="#e6f3f9" stroke="#5b6b73" d="M72.25,-98C72.25,-98 12,-98 12,-98 6,-98 0,-92 0,-86 0,-86 0,-72 0,-72 0,-66 6,-60 12,-60 12,-60 72.25,-60 72.25,-60 78.25,-60 84.25,-66 84.25,-72 84.25,-72 84.25,-86 84.25,-86 84.25,-92 78.25,-98 72.25,-98"/>
<text xml:space="preserve" text-anchor="middle" x="42.12" y="-80.7" font-family="Helvetica,sans-Serif" font-size="14.00" fill="#233238">application</text>
<text xml:space="preserve" text-anchor="middle" x="42.12" y="-65.7" font-family="Helvetica,sans-Serif" font-size="14.00" fill="#233238">(read/write)</text>
</g>
<!-- vfs -->
<g id="node2" class="node">
<title>vfs</title>
<path fill="#bfe2f1" stroke="#5b6b73" d="M294.5,-98C294.5,-98 192.25,-98 192.25,-98 186.25,-98 180.25,-92 180.25,-86 180.25,-86 180.25,-72 180.25,-72 180.25,-66 186.25,-60 192.25,-60 192.25,-60 294.5,-60 294.5,-60 300.5,-60 306.5,-66 306.5,-72 306.5,-72 306.5,-86 306.5,-86 306.5,-92 300.5,-98 294.5,-98"/>
<text xml:space="preserve" text-anchor="middle" x="243.38" y="-80.7" font-family="Helvetica,sans-Serif" font-size="14.00" fill="#233238">VFS + metadata</text>
<text xml:space="preserve" text-anchor="middle" x="243.38" y="-65.7" font-family="Helvetica,sans-Serif" font-size="14.00" fill="#233238">(names &#45;&gt; inodes)</text>
</g>
<!-- app&#45;&gt;vfs -->
<g id="edge1" class="edge">
<title>app&#45;&gt;vfs</title>
<path fill="none" stroke="#5b6b73" stroke-width="1.05" d="M84.41,-79C109.41,-79 141.97,-79 171.04,-79"/>
<polygon fill="#5b6b73" stroke="#5b6b73" stroke-width="1.05" points="170.84,-81.63 178.34,-79 170.84,-76.38 170.84,-81.63"/>
<text xml:space="preserve" text-anchor="middle" x="132.25" y="-82.2" font-family="Times,serif" font-size="14.00">syscalls</text>
</g>
<!-- cache -->
<g id="node3" class="node">
<title>cache</title>
<path fill="#ddeaf1" stroke="#5b6b73" d="M574.5,-98C574.5,-98 474.5,-98 474.5,-98 468.5,-98 462.5,-92 462.5,-86 462.5,-86 462.5,-72 462.5,-72 462.5,-66 468.5,-60 474.5,-60 474.5,-60 574.5,-60 574.5,-60 580.5,-60 586.5,-66 586.5,-72 586.5,-72 586.5,-86 586.5,-86 586.5,-92 580.5,-98 574.5,-98"/>
<text xml:space="preserve" text-anchor="middle" x="524.5" y="-80.7" font-family="Helvetica,sans-Serif" font-size="14.00" fill="#233238">page/buffer cache</text>
<text xml:space="preserve" text-anchor="middle" x="524.5" y="-65.7" font-family="Helvetica,sans-Serif" font-size="14.00" fill="#233238">(reusable copies)</text>
</g>
<!-- vfs&#45;&gt;cache -->
<g id="edge2" class="edge">
<title>vfs&#45;&gt;cache</title>
<path fill="none" stroke="#5b6b73" stroke-width="1.05" d="M306.67,-79C350.2,-79 408.38,-79 453.51,-79"/>
<polygon fill="#5b6b73" stroke="#5b6b73" stroke-width="1.05" points="453.27,-81.63 460.77,-79 453.27,-76.38 453.27,-81.63"/>
<text xml:space="preserve" text-anchor="middle" x="384.5" y="-82.2" font-family="Times,serif" font-size="14.00">find/allocate pages</text>
</g>
<!-- driver -->
<g id="node4" class="node">
<title>driver</title>
<path fill="#bfe2f1" stroke="#5b6b73" d="M826.75,-98C826.75,-98 742.5,-98 742.5,-98 736.5,-98 730.5,-92 730.5,-86 730.5,-86 730.5,-72 730.5,-72 730.5,-66 736.5,-60 742.5,-60 742.5,-60 826.75,-60 826.75,-60 832.75,-60 838.75,-66 838.75,-72 838.75,-72 838.75,-86 838.75,-86 838.75,-92 832.75,-98 826.75,-98"/>
<text xml:space="preserve" text-anchor="middle" x="784.62" y="-80.7" font-family="Helvetica,sans-Serif" font-size="14.00" fill="#233238">block driver</text>
<text xml:space="preserve" text-anchor="middle" x="784.62" y="-65.7" font-family="Helvetica,sans-Serif" font-size="14.00" fill="#233238">(schedules I/O)</text>
</g>
<!-- cache&#45;&gt;driver -->
<g id="edge3" class="edge">
<title>cache&#45;&gt;driver</title>
<path fill="none" stroke="#5b6b73" stroke-width="1.05" d="M572.24,-59.57C585.36,-55.01 599.79,-50.81 613.5,-48.5 652.94,-41.86 664.16,-41.27 703.5,-48.5 713.24,-50.29 723.32,-53.21 732.92,-56.55"/>
<polygon fill="#5b6b73" stroke="#5b6b73" stroke-width="1.05" points="731.77,-58.92 739.71,-59.03 733.57,-53.99 731.77,-58.92"/>
<text xml:space="preserve" text-anchor="middle" x="658.5" y="-51.7" font-family="Times,serif" font-size="14.00">miss / writeback</text>
</g>
<!-- driver&#45;&gt;cache -->
<g id="edge6" class="edge">
<title>driver&#45;&gt;cache</title>
<path fill="none" stroke="#5b6b73" stroke-width="1.05" stroke-dasharray="5,2" d="M730.03,-79C691.14,-79 638.15,-79 595.85,-79"/>
<polygon fill="#5b6b73" stroke="#5b6b73" stroke-width="1.05" points="596.09,-76.38 588.59,-79 596.09,-81.63 596.09,-76.38"/>
<text xml:space="preserve" text-anchor="middle" x="658.5" y="-82.2" font-family="Times,serif" font-size="14.00">fill/commit</text>
</g>
<!-- disk -->
<g id="node5" class="node">
<title>disk</title>
<polygon fill="#d9d9d9" stroke="#5b6b73" points="1060.25,-98 1057.25,-102 1036.25,-102 1033.25,-98 954.25,-98 954.25,-60 1060.25,-60 1060.25,-98"/>
<text xml:space="preserve" text-anchor="middle" x="1007.25" y="-80.7" font-family="Helvetica,sans-Serif" font-size="14.00" fill="#233238">disk blocks</text>
<text xml:space="preserve" text-anchor="middle" x="1007.25" y="-65.7" font-family="Helvetica,sans-Serif" font-size="14.00" fill="#233238">(durable bytes)</text>
</g>
<!-- driver&#45;&gt;disk -->
<g id="edge4" class="edge">
<title>driver&#45;&gt;disk</title>
<path fill="none" stroke="#5b6b73" stroke-width="1.05" d="M839.03,-79C871.11,-79 912.02,-79 945.35,-79"/>
<polygon fill="#5b6b73" stroke="#5b6b73" stroke-width="1.05" points="945.01,-81.63 952.51,-79 945.01,-76.38 945.01,-81.63"/>
<text xml:space="preserve" text-anchor="middle" x="896.5" y="-82.2" font-family="Times,serif" font-size="14.00">read/write</text>
</g>
<!-- disk&#45;&gt;driver -->
<g id="edge5" class="edge">
<title>disk&#45;&gt;driver</title>
<path fill="none" stroke="#5b6b73" stroke-width="1.05" stroke-dasharray="5,2" d="M954.11,-59.66C945.26,-57.1 936.08,-54.89 927.25,-53.5 900.25,-49.25 892.76,-49.31 865.75,-53.5 859.84,-54.42 853.77,-55.7 847.73,-57.19"/>
<polygon fill="#5b6b73" stroke="#5b6b73" stroke-width="1.05" points="847.06,-54.66 840.49,-59.12 848.41,-59.73 847.06,-54.66"/>
<text xml:space="preserve" text-anchor="middle" x="896.5" y="-56.7" font-family="Times,serif" font-size="14.00">completion</text>
</g>
</g>
</svg>
