<?xml version="1.0" encoding="UTF-8" standalone="no"?>
<!DOCTYPE svg PUBLIC "-//W3C//DTD SVG 1.1//EN"
 "http://www.w3.org/Graphics/SVG/1.1/DTD/svg11.dtd">
<!-- Generated by graphviz version 14.1.3 (20260303.0454)
 -->
<!-- Title: G Pages: 1 -->
<svg width="1261pt" height="146pt"
 viewBox="0.00 0.00 1261.00 146.00" xmlns="http://www.w3.org/2000/svg" xmlns:xlink="http://www.w3.org/1999/xlink">
<g id="graph0" class="graph" transform="scale(1 1) rotate(0) translate(18 128)">
<title>G</title>
<polygon fill="white" stroke="none" points="-18,18 -18,-128 1243.19,-128 1243.19,18 -18,18"/>
<g id="clust1" class="cluster">
<title>cluster_kernel</title>
<path fill="#eaf6fb" stroke="#9ec9da" d="M324.69,-8C324.69,-8 1041.44,-8 1041.44,-8 1047.44,-8 1053.44,-14 1053.44,-20 1053.44,-20 1053.44,-90 1053.44,-90 1053.44,-96 1047.44,-102 1041.44,-102 1041.44,-102 324.69,-102 324.69,-102 318.69,-102 312.69,-96 312.69,-90 312.69,-90 312.69,-20 312.69,-20 312.69,-14 318.69,-8 324.69,-8"/>
<text xml:space="preserve" text-anchor="middle" x="683.07" y="-84.7" font-family="Times,serif" font-size="14.00">privileged boundary</text>
</g>
<!-- user -->
<g id="node1" class="node">
<title>user</title>
<ellipse fill="#e6f3f9" stroke="#5b6b73" cx="51.35" cy="-43" rx="51.35" ry="18"/>
<text xml:space="preserve" text-anchor="middle" x="51.35" y="-37.2" font-family="Helvetica,sans-Serif" font-size="14.00" fill="#233238">user intent</text>
</g>
<!-- shell -->
<g id="node2" class="node">
<title>shell</title>
<path fill="#e6f3f9" stroke="#5b6b73" d="M258.69,-62C258.69,-62 164.69,-62 164.69,-62 158.69,-62 152.69,-56 152.69,-50 152.69,-50 152.69,-36 152.69,-36 152.69,-30 158.69,-24 164.69,-24 164.69,-24 258.69,-24 258.69,-24 264.69,-24 270.69,-30 270.69,-36 270.69,-36 270.69,-50 270.69,-50 270.69,-56 264.69,-62 258.69,-62"/>
<text xml:space="preserve" text-anchor="middle" x="211.69" y="-44.7" font-family="Helvetica,sans-Serif" font-size="14.00" fill="#233238">shell</text>
<text xml:space="preserve" text-anchor="middle" x="211.69" y="-29.7" font-family="Helvetica,sans-Serif" font-size="14.00" fill="#233238">(parse + resolve)</text>
</g>
<!-- user&#45;&gt;shell -->
<g id="edge1" class="edge">
<title>user&#45;&gt;shell</title>
<path fill="none" stroke="#5b6b73" stroke-width="1.05" d="M102.96,-43C102.96,-43 143.27,-43 143.27,-43"/>
<polygon fill="#5b6b73" stroke="#5b6b73" stroke-width="1.05" points="143.27,-45.63 150.77,-43 143.27,-40.38 143.27,-45.63"/>
</g>
<!-- entry -->
<g id="node3" class="node">
<title>entry</title>
<path fill="#ddeaf1" stroke="#5b6b73" d="M425.94,-61C425.94,-61 332.69,-61 332.69,-61 326.69,-61 320.69,-55 320.69,-49 320.69,-49 320.69,-37 320.69,-37 320.69,-31 326.69,-25 332.69,-25 332.69,-25 425.94,-25 425.94,-25 431.94,-25 437.94,-31 437.94,-37 437.94,-37 437.94,-49 437.94,-49 437.94,-55 431.94,-61 425.94,-61"/>
<text xml:space="preserve" text-anchor="middle" x="379.32" y="-37.2" font-family="Helvetica,sans-Serif" font-size="14.00" fill="#233238">syscall/trap entry</text>
</g>
<!-- shell&#45;&gt;entry -->
<g id="edge2" class="edge">
<title>shell&#45;&gt;entry</title>
<path fill="none" stroke="#5b6b73" stroke-width="1.05" d="M270.79,-43C270.79,-43 311.38,-43 311.38,-43"/>
<polygon fill="#5b6b73" stroke="#5b6b73" stroke-width="1.05" points="311.38,-45.63 318.88,-43 311.38,-40.38 311.38,-45.63"/>
</g>
<!-- checks -->
<g id="node4" class="node">
<title>checks</title>
<path fill="#bfe2f1" stroke="#5b6b73" d="M619.44,-62C619.44,-62 499.94,-62 499.94,-62 493.94,-62 487.94,-56 487.94,-50 487.94,-50 487.94,-36 487.94,-36 487.94,-30 493.94,-24 499.94,-24 499.94,-24 619.44,-24 619.44,-24 625.44,-24 631.44,-30 631.44,-36 631.44,-36 631.44,-50 631.44,-50 631.44,-56 625.44,-62 619.44,-62"/>
<text xml:space="preserve" text-anchor="middle" x="559.69" y="-44.7" font-family="Helvetica,sans-Serif" font-size="14.00" fill="#233238">validate</text>
<text xml:space="preserve" text-anchor="middle" x="559.69" y="-29.7" font-family="Helvetica,sans-Serif" font-size="14.00" fill="#233238">(path, perms, format)</text>
</g>
<!-- entry&#45;&gt;checks -->
<g id="edge3" class="edge">
<title>entry&#45;&gt;checks</title>
<path fill="none" stroke="#5b6b73" stroke-width="1.05" d="M438.38,-43C438.38,-43 478.5,-43 478.5,-43"/>
<polygon fill="#5b6b73" stroke="#5b6b73" stroke-width="1.05" points="478.5,-45.63 486,-43 478.5,-40.38 478.5,-45.63"/>
</g>
<!-- create -->
<g id="node5" class="node">
<title>create</title>
<path fill="#bfe2f1" stroke="#5b6b73" d="M848.94,-69.5C848.94,-69.5 693.44,-69.5 693.44,-69.5 687.44,-69.5 681.44,-63.5 681.44,-57.5 681.44,-57.5 681.44,-28.5 681.44,-28.5 681.44,-22.5 687.44,-16.5 693.44,-16.5 693.44,-16.5 848.94,-16.5 848.94,-16.5 854.94,-16.5 860.94,-22.5 860.94,-28.5 860.94,-28.5 860.94,-57.5 860.94,-57.5 860.94,-63.5 854.94,-69.5 848.94,-69.5"/>
<text xml:space="preserve" text-anchor="middle" x="771.19" y="-52.2" font-family="Helvetica,sans-Serif" font-size="14.00" fill="#233238">construct execution context</text>
<text xml:space="preserve" text-anchor="middle" x="771.19" y="-37.2" font-family="Helvetica,sans-Serif" font-size="14.00" fill="#233238">(PID, address space,</text>
<text xml:space="preserve" text-anchor="middle" x="771.19" y="-22.2" font-family="Helvetica,sans-Serif" font-size="14.00" fill="#233238">initial regs/stack)</text>
</g>
<!-- checks&#45;&gt;create -->
<g id="edge4" class="edge">
<title>checks&#45;&gt;create</title>
<path fill="none" stroke="#5b6b73" stroke-width="1.05" d="M631.89,-43C631.89,-43 671.9,-43 671.9,-43"/>
<polygon fill="#5b6b73" stroke="#5b6b73" stroke-width="1.05" points="671.9,-45.63 679.4,-43 671.9,-40.38 671.9,-45.63"/>
</g>
<!-- ret -->
<g id="node6" class="node">
<title>ret</title>
<path fill="#d5edf7" stroke="#5b6b73" d="M1033.44,-62C1033.44,-62 922.94,-62 922.94,-62 916.94,-62 910.94,-56 910.94,-50 910.94,-50 910.94,-36 910.94,-36 910.94,-30 916.94,-24 922.94,-24 922.94,-24 1033.44,-24 1033.44,-24 1039.44,-24 1045.44,-30 1045.44,-36 1045.44,-36 1045.44,-50 1045.44,-50 1045.44,-56 1039.44,-62 1033.44,-62"/>
<text xml:space="preserve" text-anchor="middle" x="978.19" y="-44.7" font-family="Helvetica,sans-Serif" font-size="14.00" fill="#233238">return to user mode</text>
<text xml:space="preserve" text-anchor="middle" x="978.19" y="-29.7" font-family="Helvetica,sans-Serif" font-size="14.00" fill="#233238">(at program entry)</text>
</g>
<!-- create&#45;&gt;ret -->
<g id="edge5" class="edge">
<title>create&#45;&gt;ret</title>
<path fill="none" stroke="#5b6b73" stroke-width="1.05" d="M861.38,-43C861.38,-43 901.63,-43 901.63,-43"/>
<polygon fill="#5b6b73" stroke="#5b6b73" stroke-width="1.05" points="901.63,-45.63 909.13,-43 901.63,-40.38 901.63,-45.63"/>
</g>
<!-- prog -->
<g id="node7" class="node">
<title>prog</title>
<ellipse fill="#e6f3f9" stroke="#5b6b73" cx="1160.32" cy="-43" rx="64.88" ry="26.87"/>
<text xml:space="preserve" text-anchor="middle" x="1160.32" y="-44.7" font-family="Helvetica,sans-Serif" font-size="14.00" fill="#233238">new process</text>
<text xml:space="preserve" text-anchor="middle" x="1160.32" y="-29.7" font-family="Helvetica,sans-Serif" font-size="14.00" fill="#233238">runs</text>
</g>
<!-- ret&#45;&gt;prog -->
<g id="edge6" class="edge">
<title>ret&#45;&gt;prog</title>
<path fill="none" stroke="#5b6b73" stroke-width="1.05" d="M1045.75,-43C1045.75,-43 1085.9,-43 1085.9,-43"/>
<polygon fill="#5b6b73" stroke="#5b6b73" stroke-width="1.05" points="1085.9,-45.63 1093.4,-43 1085.9,-40.38 1085.9,-45.63"/>
</g>
</g>
</svg>
