<?xml version="1.0" encoding="UTF-8" standalone="no"?>
<!DOCTYPE svg PUBLIC "-//W3C//DTD SVG 1.1//EN"
 "http://www.w3.org/Graphics/SVG/1.1/DTD/svg11.dtd">
<!-- Generated by graphviz version 14.1.3 (20260303.0454)
 -->
<!-- Title: G Pages: 1 -->
<svg width="630pt" height="287pt"
 viewBox="0.00 0.00 630.00 287.00" xmlns="http://www.w3.org/2000/svg" xmlns:xlink="http://www.w3.org/1999/xlink">
<g id="graph0" class="graph" transform="scale(1 1) rotate(0) translate(18 269)">
<title>G</title>
<polygon fill="white" stroke="none" points="-18,18 -18,-269 612.25,-269 612.25,18 -18,18"/>
<g id="clust1" class="cluster">
<title>cluster_instances</title>
<path fill="#eaf6fb" stroke="#9ec9da" d="M252.75,-8C252.75,-8 574.25,-8 574.25,-8 580.25,-8 586.25,-14 586.25,-20 586.25,-20 586.25,-231 586.25,-231 586.25,-237 580.25,-243 574.25,-243 574.25,-243 252.75,-243 252.75,-243 246.75,-243 240.75,-237 240.75,-231 240.75,-231 240.75,-20 240.75,-20 240.75,-14 246.75,-8 252.75,-8"/>
<text xml:space="preserve" text-anchor="middle" x="413.5" y="-225.7" font-family="Times,serif" font-size="14.00">multiple process instances</text>
</g>
<!-- program -->
<g id="node1" class="node">
<title>program</title>
<path fill="#f5f5f5" stroke="#5b6b73" d="M122.5,-132C122.5,-132 12,-132 12,-132 6,-132 0,-126 0,-120 0,-120 0,-106 0,-106 0,-100 6,-94 12,-94 12,-94 122.5,-94 122.5,-94 128.5,-94 134.5,-100 134.5,-106 134.5,-106 134.5,-120 134.5,-120 134.5,-126 128.5,-132 122.5,-132"/>
<text xml:space="preserve" text-anchor="middle" x="67.25" y="-114.7" font-family="Helvetica,sans-Serif" font-size="14.00" fill="#233238">program file on disk</text>
<text xml:space="preserve" text-anchor="middle" x="67.25" y="-99.7" font-family="Helvetica,sans-Serif" font-size="14.00" fill="#233238">(passive template)</text>
</g>
<!-- p1 -->
<g id="node2" class="node">
<title>p1</title>
<path fill="#bfe2f1" stroke="#5b6b73" d="M336,-210C336,-210 260.75,-210 260.75,-210 254.75,-210 248.75,-204 248.75,-198 248.75,-198 248.75,-184 248.75,-184 248.75,-178 254.75,-172 260.75,-172 260.75,-172 336,-172 336,-172 342,-172 348,-178 348,-184 348,-184 348,-198 348,-198 348,-204 342,-210 336,-210"/>
<text xml:space="preserve" text-anchor="middle" x="298.38" y="-192.7" font-family="Helvetica,sans-Serif" font-size="14.00" fill="#233238">process P1</text>
<text xml:space="preserve" text-anchor="middle" x="298.38" y="-177.7" font-family="Helvetica,sans-Serif" font-size="14.00" fill="#233238">(live instance)</text>
</g>
<!-- program&#45;&gt;p1 -->
<g id="edge1" class="edge">
<title>program&#45;&gt;p1</title>
<path fill="none" stroke="#5b6b73" stroke-width="1.05" d="M125.48,-132.48C160.57,-144.43 205.34,-159.67 240.39,-171.6"/>
<polygon fill="#5b6b73" stroke="#5b6b73" stroke-width="1.05" points="239.17,-173.96 247.12,-173.89 240.87,-168.99 239.17,-173.96"/>
<text xml:space="preserve" text-anchor="middle" x="191.62" y="-165.24" font-family="Helvetica,sans-Serif" font-size="14.00">load/map</text>
</g>
<!-- p2 -->
<g id="node3" class="node">
<title>p2</title>
<path fill="#bfe2f1" stroke="#5b6b73" d="M336,-132C336,-132 260.75,-132 260.75,-132 254.75,-132 248.75,-126 248.75,-120 248.75,-120 248.75,-106 248.75,-106 248.75,-100 254.75,-94 260.75,-94 260.75,-94 336,-94 336,-94 342,-94 348,-100 348,-106 348,-106 348,-120 348,-120 348,-126 342,-132 336,-132"/>
<text xml:space="preserve" text-anchor="middle" x="298.38" y="-114.7" font-family="Helvetica,sans-Serif" font-size="14.00" fill="#233238">process P2</text>
<text xml:space="preserve" text-anchor="middle" x="298.38" y="-99.7" font-family="Helvetica,sans-Serif" font-size="14.00" fill="#233238">(live instance)</text>
</g>
<!-- program&#45;&gt;p2 -->
<g id="edge2" class="edge">
<title>program&#45;&gt;p2</title>
<path fill="none" stroke="#5b6b73" stroke-width="1.05" d="M134.83,-113C168.04,-113 207.82,-113 239.72,-113"/>
<polygon fill="#5b6b73" stroke="#5b6b73" stroke-width="1.05" points="239.4,-115.63 246.9,-113 239.4,-110.38 239.4,-115.63"/>
<text xml:space="preserve" text-anchor="middle" x="191.62" y="-114.7" font-family="Helvetica,sans-Serif" font-size="14.00">load/map</text>
</g>
<!-- p3 -->
<g id="node4" class="node">
<title>p3</title>
<path fill="#bfe2f1" stroke="#5b6b73" d="M336,-54C336,-54 260.75,-54 260.75,-54 254.75,-54 248.75,-48 248.75,-42 248.75,-42 248.75,-28 248.75,-28 248.75,-22 254.75,-16 260.75,-16 260.75,-16 336,-16 336,-16 342,-16 348,-22 348,-28 348,-28 348,-42 348,-42 348,-48 342,-54 336,-54"/>
<text xml:space="preserve" text-anchor="middle" x="298.38" y="-36.7" font-family="Helvetica,sans-Serif" font-size="14.00" fill="#233238">process P3</text>
<text xml:space="preserve" text-anchor="middle" x="298.38" y="-21.7" font-family="Helvetica,sans-Serif" font-size="14.00" fill="#233238">(live instance)</text>
</g>
<!-- program&#45;&gt;p3 -->
<g id="edge3" class="edge">
<title>program&#45;&gt;p3</title>
<path fill="none" stroke="#5b6b73" stroke-width="1.05" d="M125.48,-93.52C160.57,-81.57 205.34,-66.33 240.39,-54.4"/>
<polygon fill="#5b6b73" stroke="#5b6b73" stroke-width="1.05" points="240.87,-57.01 247.12,-52.11 239.17,-52.04 240.87,-57.01"/>
<text xml:space="preserve" text-anchor="middle" x="191.62" y="-80.37" font-family="Helvetica,sans-Serif" font-size="14.00">load/map</text>
</g>
<!-- note -->
<g id="node5" class="node">
<title>note</title>
<path fill="#ddeaf1" stroke="#5b6b73" d="M566.25,-162C566.25,-162 419,-162 419,-162 413,-162 407,-156 407,-150 407,-150 407,-76 407,-76 407,-70 413,-64 419,-64 419,-64 566.25,-64 566.25,-64 572.25,-64 578.25,-70 578.25,-76 578.25,-76 578.25,-150 578.25,-150 578.25,-156 572.25,-162 566.25,-162"/>
<text xml:space="preserve" text-anchor="middle" x="492.62" y="-144.7" font-family="Helvetica,sans-Serif" font-size="14.00" fill="#233238">each process has its own:</text>
<text xml:space="preserve" text-anchor="middle" x="492.62" y="-129.7" font-family="Helvetica,sans-Serif" font-size="14.00" fill="#233238">&#45; CPU context</text>
<text xml:space="preserve" text-anchor="middle" x="492.62" y="-114.7" font-family="Helvetica,sans-Serif" font-size="14.00" fill="#233238">&#45; address space mapping</text>
<text xml:space="preserve" text-anchor="middle" x="492.62" y="-99.7" font-family="Helvetica,sans-Serif" font-size="14.00" fill="#233238">&#45; kernel resource table</text>
<text xml:space="preserve" text-anchor="middle" x="492.62" y="-84.7" font-family="Helvetica,sans-Serif" font-size="14.00" fill="#233238">(while sharing the same</text>
<text xml:space="preserve" text-anchor="middle" x="492.62" y="-69.7" font-family="Helvetica,sans-Serif" font-size="14.00" fill="#233238">program template)</text>
</g>
<!-- p1&#45;&gt;note -->
<g id="edge4" class="edge">
<title>p1&#45;&gt;note</title>
<path fill="none" stroke="#5b6b73" stroke-width="1.05" stroke-dasharray="5,2" d="M347.39,-171.52C365.41,-164.21 386.46,-155.67 406.83,-147.4"/>
</g>
<!-- p2&#45;&gt;note -->
<g id="edge5" class="edge">
<title>p2&#45;&gt;note</title>
<path fill="none" stroke="#5b6b73" stroke-width="1.05" stroke-dasharray="5,2" d="M348.39,-113C366.18,-113 386.85,-113 406.85,-113"/>
</g>
<!-- p3&#45;&gt;note -->
<g id="edge6" class="edge">
<title>p3&#45;&gt;note</title>
<path fill="none" stroke="#5b6b73" stroke-width="1.05" stroke-dasharray="5,2" d="M347.39,-54.48C365.41,-61.79 386.46,-70.33 406.83,-78.6"/>
</g>
</g>
</svg>
