<?xml version="1.0" encoding="UTF-8" standalone="no"?>
<!DOCTYPE svg PUBLIC "-//W3C//DTD SVG 1.1//EN"
 "http://www.w3.org/Graphics/SVG/1.1/DTD/svg11.dtd">
<!-- Generated by graphviz version 14.1.3 (20260303.0454)
 -->
<!-- Title: G Pages: 1 -->
<svg width="837pt" height="432pt"
 viewBox="0.00 0.00 837.00 432.00" xmlns="http://www.w3.org/2000/svg" xmlns:xlink="http://www.w3.org/1999/xlink">
<g id="graph0" class="graph" transform="scale(1 1) rotate(0) translate(18 414)">
<title>G</title>
<polygon fill="white" stroke="none" points="-18,18 -18,-414 818.5,-414 818.5,18 -18,18"/>
<g id="clust1" class="cluster">
<title>cluster_fifo</title>
<path fill="#eaf6fb" stroke="#9ec9da" d="M26.88,-8C26.88,-8 567,-8 567,-8 573,-8 579,-14 579,-20 579,-20 579,-181 579,-181 579,-187 573,-193 567,-193 567,-193 26.87,-193 26.87,-193 20.88,-193 14.88,-187 14.88,-181 14.88,-181 14.88,-20 14.88,-20 14.88,-14 20.88,-8 26.88,-8"/>
<text xml:space="preserve" text-anchor="middle" x="296.94" y="-175.7" font-family="Times,serif" font-size="14.00">FIFO queue discipline</text>
</g>
<g id="clust2" class="cluster">
<title>cluster_prio</title>
<path fill="#eaf6fb" stroke="#9ec9da" d="M20,-201C20,-201 448,-201 448,-201 454,-201 460,-207 460,-213 460,-213 460,-376 460,-376 460,-382 454,-388 448,-388 448,-388 20,-388 20,-388 14,-388 8,-382 8,-376 8,-376 8,-213 8,-213 8,-207 14,-201 20,-201"/>
<text xml:space="preserve" text-anchor="middle" x="234" y="-370.7" font-family="Times,serif" font-size="14.00">priority discipline</text>
</g>
<!-- f1 -->
<g id="node1" class="node">
<title>f1</title>
<path fill="#ddeaf1" stroke="#5b6b73" d="M64.88,-98C64.88,-98 34.88,-98 34.88,-98 28.88,-98 22.88,-92 22.88,-86 22.88,-86 22.88,-74 22.88,-74 22.88,-68 28.88,-62 34.88,-62 34.88,-62 64.88,-62 64.88,-62 70.88,-62 76.88,-68 76.88,-74 76.88,-74 76.88,-86 76.88,-86 76.88,-92 70.88,-98 64.88,-98"/>
<text xml:space="preserve" text-anchor="middle" x="49.88" y="-74.2" font-family="Helvetica,sans-Serif" font-size="14.00" fill="#233238">A</text>
</g>
<!-- f2 -->
<g id="node2" class="node">
<title>f2</title>
<path fill="#ddeaf1" stroke="#5b6b73" d="M251.62,-52C251.62,-52 221.62,-52 221.62,-52 215.62,-52 209.62,-46 209.62,-40 209.62,-40 209.62,-28 209.62,-28 209.62,-22 215.62,-16 221.62,-16 221.62,-16 251.62,-16 251.62,-16 257.62,-16 263.62,-22 263.62,-28 263.62,-28 263.62,-40 263.62,-40 263.62,-46 257.62,-52 251.62,-52"/>
<text xml:space="preserve" text-anchor="middle" x="236.62" y="-28.2" font-family="Helvetica,sans-Serif" font-size="14.00" fill="#233238">B</text>
</g>
<!-- f1&#45;&gt;f2 -->
<g id="edge1" class="edge">
<title>f1&#45;&gt;f2</title>
<path fill="none" stroke="#5b6b73" stroke-width="1.05" d="M77.35,-73.41C112.47,-64.66 174.11,-49.32 209.2,-40.58"/>
</g>
<!-- fsel -->
<g id="node5" class="node">
<title>fsel</title>
<polygon fill="#ffffff" stroke="#9aa7ae" points="302,-160 165.25,-160 165.25,-92 308,-92 308,-154 302,-160"/>
<polyline fill="none" stroke="#9aa7ae" points="302,-160 302,-154"/>
<polyline fill="none" stroke="#9aa7ae" points="308,-154 302,-154"/>
<text xml:space="preserve" text-anchor="middle" x="236.62" y="-142.7" font-family="Helvetica,sans-Serif" font-size="14.00" fill="#233238">next = head</text>
<text xml:space="preserve" text-anchor="middle" x="236.62" y="-127.7" font-family="Helvetica,sans-Serif" font-size="14.00" fill="#233238">fairness: arrival order</text>
<text xml:space="preserve" text-anchor="middle" x="236.62" y="-112.7" font-family="Helvetica,sans-Serif" font-size="14.00" fill="#233238">risk: long waits</text>
<text xml:space="preserve" text-anchor="middle" x="236.62" y="-97.7" font-family="Helvetica,sans-Serif" font-size="14.00" fill="#233238">if jobs are long</text>
</g>
<!-- f1&#45;&gt;fsel -->
<g id="edge4" class="edge">
<title>f1&#45;&gt;fsel</title>
<path fill="none" stroke="#5b6b73" stroke-width="1.05" stroke-dasharray="1,5" d="M77.35,-86.59C100.19,-92.28 134.27,-100.76 164.95,-108.4"/>
</g>
<!-- f3 -->
<g id="node3" class="node">
<title>f3</title>
<path fill="#ddeaf1" stroke="#5b6b73" d="M435.75,-52C435.75,-52 405.75,-52 405.75,-52 399.75,-52 393.75,-46 393.75,-40 393.75,-40 393.75,-28 393.75,-28 393.75,-22 399.75,-16 405.75,-16 405.75,-16 435.75,-16 435.75,-16 441.75,-16 447.75,-22 447.75,-28 447.75,-28 447.75,-40 447.75,-40 447.75,-46 441.75,-52 435.75,-52"/>
<text xml:space="preserve" text-anchor="middle" x="420.75" y="-28.2" font-family="Helvetica,sans-Serif" font-size="14.00" fill="#233238">C</text>
</g>
<!-- f2&#45;&gt;f3 -->
<g id="edge2" class="edge">
<title>f2&#45;&gt;f3</title>
<path fill="none" stroke="#5b6b73" stroke-width="1.05" d="M264.11,-34C298.74,-34 359.03,-34 393.53,-34"/>
</g>
<!-- f4 -->
<g id="node4" class="node">
<title>f4</title>
<path fill="#ddeaf1" stroke="#5b6b73" d="M559,-52C559,-52 529,-52 529,-52 523,-52 517,-46 517,-40 517,-40 517,-28 517,-28 517,-22 523,-16 529,-16 529,-16 559,-16 559,-16 565,-16 571,-22 571,-28 571,-28 571,-40 571,-40 571,-46 565,-52 559,-52"/>
<text xml:space="preserve" text-anchor="middle" x="544" y="-28.2" font-family="Helvetica,sans-Serif" font-size="14.00" fill="#233238">D</text>
</g>
<!-- f3&#45;&gt;f4 -->
<g id="edge3" class="edge">
<title>f3&#45;&gt;f4</title>
<path fill="none" stroke="#5b6b73" stroke-width="1.05" d="M448.06,-34C468.4,-34 496.42,-34 516.74,-34"/>
</g>
<!-- arrow -->
<g id="node10" class="node">
<title>arrow</title>
<polygon fill="#ffffff" stroke="#9aa7ae" points="794.5,-68 636,-68 636,0 800.5,0 800.5,-62 794.5,-68"/>
<polyline fill="none" stroke="#9aa7ae" points="794.5,-68 794.5,-62"/>
<polyline fill="none" stroke="#9aa7ae" points="800.5,-62 794.5,-62"/>
<text xml:space="preserve" text-anchor="middle" x="718.25" y="-50.7" font-family="Helvetica,sans-Serif" font-size="14.00" fill="#233238">same abstract state:</text>
<text xml:space="preserve" text-anchor="middle" x="718.25" y="-35.7" font-family="Helvetica,sans-Serif" font-size="14.00" fill="#233238">&quot;set of runnable threads&quot;</text>
<text xml:space="preserve" text-anchor="middle" x="718.25" y="-20.7" font-family="Helvetica,sans-Serif" font-size="14.00" fill="#233238">Different structure =&gt;</text>
<text xml:space="preserve" text-anchor="middle" x="718.25" y="-5.7" font-family="Helvetica,sans-Serif" font-size="14.00" fill="#233238">different behavior.</text>
</g>
<!-- f4&#45;&gt;arrow -->
<!-- p_hi -->
<g id="node6" class="node">
<title>p_hi</title>
<path fill="#bfe2f1" stroke="#5b6b73" d="M71.75,-293C71.75,-293 28,-293 28,-293 22,-293 16,-287 16,-281 16,-281 16,-267 16,-267 16,-261 22,-255 28,-255 28,-255 71.75,-255 71.75,-255 77.75,-255 83.75,-261 83.75,-267 83.75,-267 83.75,-281 83.75,-281 83.75,-287 77.75,-293 71.75,-293"/>
<text xml:space="preserve" text-anchor="middle" x="49.88" y="-275.7" font-family="Helvetica,sans-Serif" font-size="14.00" fill="#233238">high prio</text>
<text xml:space="preserve" text-anchor="middle" x="49.88" y="-260.7" font-family="Helvetica,sans-Serif" font-size="14.00" fill="#233238">H1, H2</text>
</g>
<!-- p_mid -->
<g id="node7" class="node">
<title>p_mid</title>
<path fill="#ddeaf1" stroke="#5b6b73" d="M257,-247C257,-247 216.25,-247 216.25,-247 210.25,-247 204.25,-241 204.25,-235 204.25,-235 204.25,-221 204.25,-221 204.25,-215 210.25,-209 216.25,-209 216.25,-209 257,-209 257,-209 263,-209 269,-215 269,-221 269,-221 269,-235 269,-235 269,-241 263,-247 257,-247"/>
<text xml:space="preserve" text-anchor="middle" x="236.62" y="-229.7" font-family="Helvetica,sans-Serif" font-size="14.00" fill="#233238">mid prio</text>
<text xml:space="preserve" text-anchor="middle" x="236.62" y="-214.7" font-family="Helvetica,sans-Serif" font-size="14.00" fill="#233238">M1, M2</text>
</g>
<!-- p_hi&#45;&gt;p_mid -->
<g id="edge5" class="edge">
<title>p_hi&#45;&gt;p_mid</title>
<path fill="none" stroke="#5b6b73" stroke-width="1.05" stroke-dasharray="5,2" d="M83.9,-265.78C117.84,-257.33 170.32,-244.26 203.81,-235.92"/>
</g>
<!-- psel -->
<g id="node9" class="node">
<title>psel</title>
<polygon fill="#ffffff" stroke="#9aa7ae" points="318.5,-355 148.75,-355 148.75,-287 324.5,-287 324.5,-349 318.5,-355"/>
<polyline fill="none" stroke="#9aa7ae" points="318.5,-355 318.5,-349"/>
<polyline fill="none" stroke="#9aa7ae" points="324.5,-349 318.5,-349"/>
<text xml:space="preserve" text-anchor="middle" x="236.62" y="-337.7" font-family="Helvetica,sans-Serif" font-size="14.00" fill="#233238">next = highest nonempty</text>
<text xml:space="preserve" text-anchor="middle" x="236.62" y="-322.7" font-family="Helvetica,sans-Serif" font-size="14.00" fill="#233238">benefit: responsiveness</text>
<text xml:space="preserve" text-anchor="middle" x="236.62" y="-307.7" font-family="Helvetica,sans-Serif" font-size="14.00" fill="#233238">risk: starvation</text>
<text xml:space="preserve" text-anchor="middle" x="236.62" y="-292.7" font-family="Helvetica,sans-Serif" font-size="14.00" fill="#233238">(if high&#45;prio keeps arriving)</text>
</g>
<!-- p_hi&#45;&gt;psel -->
<g id="edge7" class="edge">
<title>p_hi&#45;&gt;psel</title>
<path fill="none" stroke="#5b6b73" stroke-width="1.05" stroke-dasharray="1,5" d="M83.9,-282.4C102.07,-287.02 125.54,-292.99 148.57,-298.85"/>
</g>
<!-- p_lo -->
<g id="node8" class="node">
<title>p_lo</title>
<path fill="#f7e9c5" stroke="#5b6b73" d="M440,-247C440,-247 401.5,-247 401.5,-247 395.5,-247 389.5,-241 389.5,-235 389.5,-235 389.5,-221 389.5,-221 389.5,-215 395.5,-209 401.5,-209 401.5,-209 440,-209 440,-209 446,-209 452,-215 452,-221 452,-221 452,-235 452,-235 452,-241 446,-247 440,-247"/>
<text xml:space="preserve" text-anchor="middle" x="420.75" y="-229.7" font-family="Helvetica,sans-Serif" font-size="14.00" fill="#233238">low prio</text>
<text xml:space="preserve" text-anchor="middle" x="420.75" y="-214.7" font-family="Helvetica,sans-Serif" font-size="14.00" fill="#233238">L1, L2</text>
</g>
<!-- p_mid&#45;&gt;p_lo -->
<g id="edge6" class="edge">
<title>p_mid&#45;&gt;p_lo</title>
<path fill="none" stroke="#5b6b73" stroke-width="1.05" stroke-dasharray="5,2" d="M269.35,-228C303.08,-228 356.06,-228 389.3,-228"/>
</g>
</g>
</svg>
