<?xml version="1.0" encoding="UTF-8" standalone="no"?>
<!DOCTYPE svg PUBLIC "-//W3C//DTD SVG 1.1//EN"
 "http://www.w3.org/Graphics/SVG/1.1/DTD/svg11.dtd">
<!-- Generated by graphviz version 14.1.3 (20260303.0454)
 -->
<!-- Title: G Pages: 1 -->
<svg width="304pt" height="207pt"
 viewBox="0.00 0.00 304.00 207.00" xmlns="http://www.w3.org/2000/svg" xmlns:xlink="http://www.w3.org/1999/xlink">
<g id="graph0" class="graph" transform="scale(1 1) rotate(0) translate(18 189)">
<title>G</title>
<polygon fill="white" stroke="none" points="-18,18 -18,-189 285.75,-189 285.75,18 -18,18"/>
<!-- cpu0 -->
<g id="node1" class="node">
<title>cpu0</title>
<polygon fill="#d9d9d9" stroke="none" points="1,-139 1,-170 68.75,-170 68.75,-139 1,-139"/>
<polygon fill="none" stroke="#5b6b73" points="1,-139 1,-170 68.75,-170 68.75,-139 1,-139"/>
<text xml:space="preserve" text-anchor="start" x="16.88" y="-149.7" font-family="Helvetica,sans-Serif" font-weight="bold" font-size="14.00" fill="#233238">CPU0</text>
<polygon fill="#f5f5f5" stroke="none" points="1,-108 1,-139 68.75,-139 68.75,-108 1,-108"/>
<polygon fill="none" stroke="#5b6b73" points="1,-108 1,-139 68.75,-139 68.75,-108 1,-108"/>
<text xml:space="preserve" text-anchor="start" x="9" y="-119.75" font-family="Helvetica,sans-Serif" font-size="14.00" fill="#233238">registers</text>
<polygon fill="#e6f3f9" stroke="none" points="1,-77 1,-108 68.75,-108 68.75,-77 1,-77"/>
<polygon fill="none" stroke="#5b6b73" points="1,-77 1,-108 68.75,-108 68.75,-77 1,-77"/>
<text xml:space="preserve" text-anchor="start" x="16.88" y="-88.75" font-family="Helvetica,sans-Serif" font-size="14.00" fill="#233238">cache</text>
<polygon fill="none" stroke="#5b6b73" points="0,-76 0,-171 69.75,-171 69.75,-76 0,-76"/>
</g>
<!-- memory -->
<g id="node4" class="node">
<title>memory</title>
<path fill="#bfe2f1" stroke="#5b6b73" d="M237.07,-36C237.07,-36 30.68,-36 30.68,-36 24.68,-36 18.67,-30 18.67,-24 18.67,-24 18.67,-12 18.67,-12 18.67,-6 24.67,0 30.67,0 30.67,0 237.07,0 237.07,0 243.07,0 249.07,-6 249.07,-12 249.07,-12 249.07,-24 249.07,-24 249.07,-30 243.07,-36 237.07,-36"/>
<text xml:space="preserve" text-anchor="middle" x="133.88" y="-12.2" font-family="Helvetica,sans-Serif" font-size="14.00" fill="#233238">shared memory</text>
</g>
<!-- cpu0&#45;&gt;memory -->
<g id="edge1" class="edge">
<title>cpu0&#45;&gt;memory</title>
<path fill="none" stroke="#5b6b73" stroke-width="1.15" d="M44.21,-76.3C44.21,-76.3 44.21,-46.1 44.21,-46.1"/>
<polygon fill="#5b6b73" stroke="#5b6b73" stroke-width="1.15" points="47.01,-46.1 44.21,-38.1 41.41,-46.1 47.01,-46.1"/>
</g>
<!-- cpu1 -->
<g id="node2" class="node">
<title>cpu1</title>
<polygon fill="#d9d9d9" stroke="none" points="100,-139 100,-170 167.75,-170 167.75,-139 100,-139"/>
<polygon fill="none" stroke="#5b6b73" points="100,-139 100,-170 167.75,-170 167.75,-139 100,-139"/>
<text xml:space="preserve" text-anchor="start" x="115.88" y="-149.7" font-family="Helvetica,sans-Serif" font-weight="bold" font-size="14.00" fill="#233238">CPU1</text>
<polygon fill="#f5f5f5" stroke="none" points="100,-108 100,-139 167.75,-139 167.75,-108 100,-108"/>
<polygon fill="none" stroke="#5b6b73" points="100,-108 100,-139 167.75,-139 167.75,-108 100,-108"/>
<text xml:space="preserve" text-anchor="start" x="108" y="-119.75" font-family="Helvetica,sans-Serif" font-size="14.00" fill="#233238">registers</text>
<polygon fill="#e6f3f9" stroke="none" points="100,-77 100,-108 167.75,-108 167.75,-77 100,-77"/>
<polygon fill="none" stroke="#5b6b73" points="100,-77 100,-108 167.75,-108 167.75,-77 100,-77"/>
<text xml:space="preserve" text-anchor="start" x="115.88" y="-88.75" font-family="Helvetica,sans-Serif" font-size="14.00" fill="#233238">cache</text>
<polygon fill="none" stroke="#5b6b73" points="99,-76 99,-171 168.75,-171 168.75,-76 99,-76"/>
</g>
<!-- cpu1&#45;&gt;memory -->
<g id="edge2" class="edge">
<title>cpu1&#45;&gt;memory</title>
<path fill="none" stroke="#5b6b73" stroke-width="1.15" d="M133.88,-76.3C133.88,-76.3 133.88,-46.1 133.88,-46.1"/>
<polygon fill="#5b6b73" stroke="#5b6b73" stroke-width="1.15" points="136.68,-46.1 133.88,-38.1 131.08,-46.1 136.68,-46.1"/>
</g>
<!-- cpu2 -->
<g id="node3" class="node">
<title>cpu2</title>
<polygon fill="#d9d9d9" stroke="none" points="199,-139 199,-170 266.75,-170 266.75,-139 199,-139"/>
<polygon fill="none" stroke="#5b6b73" points="199,-139 199,-170 266.75,-170 266.75,-139 199,-139"/>
<text xml:space="preserve" text-anchor="start" x="214.88" y="-149.7" font-family="Helvetica,sans-Serif" font-weight="bold" font-size="14.00" fill="#233238">CPU2</text>
<polygon fill="#f5f5f5" stroke="none" points="199,-108 199,-139 266.75,-139 266.75,-108 199,-108"/>
<polygon fill="none" stroke="#5b6b73" points="199,-108 199,-139 266.75,-139 266.75,-108 199,-108"/>
<text xml:space="preserve" text-anchor="start" x="207" y="-119.75" font-family="Helvetica,sans-Serif" font-size="14.00" fill="#233238">registers</text>
<polygon fill="#e6f3f9" stroke="none" points="199,-77 199,-108 266.75,-108 266.75,-77 199,-77"/>
<polygon fill="none" stroke="#5b6b73" points="199,-77 199,-108 266.75,-108 266.75,-77 199,-77"/>
<text xml:space="preserve" text-anchor="start" x="214.88" y="-88.75" font-family="Helvetica,sans-Serif" font-size="14.00" fill="#233238">cache</text>
<polygon fill="none" stroke="#5b6b73" points="198,-76 198,-171 267.75,-171 267.75,-76 198,-76"/>
</g>
<!-- cpu2&#45;&gt;memory -->
<g id="edge3" class="edge">
<title>cpu2&#45;&gt;memory</title>
<path fill="none" stroke="#5b6b73" stroke-width="1.15" d="M223.54,-76.3C223.54,-76.3 223.54,-46.1 223.54,-46.1"/>
<polygon fill="#5b6b73" stroke="#5b6b73" stroke-width="1.15" points="226.34,-46.1 223.54,-38.1 220.74,-46.1 226.34,-46.1"/>
</g>
</g>
</svg>
