<?xml version="1.0" encoding="UTF-8" standalone="no"?>
<!DOCTYPE svg PUBLIC "-//W3C//DTD SVG 1.1//EN"
 "http://www.w3.org/Graphics/SVG/1.1/DTD/svg11.dtd">
<!-- Generated by graphviz version 14.1.3 (20260303.0454)
 -->
<!-- Title: G Pages: 1 -->
<svg width="206pt" height="360pt"
 viewBox="0.00 0.00 206.00 360.00" xmlns="http://www.w3.org/2000/svg" xmlns:xlink="http://www.w3.org/1999/xlink">
<g id="graph0" class="graph" transform="scale(1 1) rotate(0) translate(18 342)">
<title>G</title>
<polygon fill="white" stroke="none" points="-18,18 -18,-342 187.69,-342 187.69,18 -18,18"/>
<!-- a -->
<g id="node1" class="node">
<title>a</title>
<ellipse fill="#c9e7f4" stroke="#5b6b73" cx="52.82" cy="-306" rx="30.87" ry="18"/>
<text xml:space="preserve" text-anchor="middle" x="52.82" y="-300.2" font-family="Helvetica,sans-Serif" font-size="14.00" fill="#233238">client</text>
</g>
<!-- b -->
<g id="node2" class="node">
<title>b</title>
<ellipse fill="#c9e7f4" stroke="#5b6b73" cx="52.82" cy="-234" rx="30.87" ry="18"/>
<text xml:space="preserve" text-anchor="middle" x="52.82" y="-228.2" font-family="Helvetica,sans-Serif" font-size="14.00" fill="#233238">client</text>
</g>
<!-- a&#45;&#45;b -->
<g id="edge1" class="edge">
<title>a&#45;&#45;b</title>
<path fill="none" stroke="#5b6b73" stroke-width="1.05" d="M52.82,-287.7C52.82,-276.85 52.82,-262.92 52.82,-252.1"/>
</g>
<!-- c -->
<g id="node3" class="node">
<title>c</title>
<ellipse fill="#c9e7f4" stroke="#5b6b73" cx="138.82" cy="-162" rx="30.87" ry="18"/>
<text xml:space="preserve" text-anchor="middle" x="138.82" y="-156.2" font-family="Helvetica,sans-Serif" font-size="14.00" fill="#233238">client</text>
</g>
<!-- a&#45;&#45;c -->
<g id="edge2" class="edge">
<title>a&#45;&#45;c</title>
<path fill="none" stroke="#5b6b73" stroke-width="1.05" d="M68.96,-290.44C79.36,-280.41 92.62,-266.35 101.82,-252 116.72,-228.76 127.78,-198.5 133.76,-179.93"/>
</g>
<!-- d -->
<g id="node4" class="node">
<title>d</title>
<ellipse fill="#c9e7f4" stroke="#5b6b73" cx="64.82" cy="-90" rx="30.87" ry="18"/>
<text xml:space="preserve" text-anchor="middle" x="64.82" y="-84.2" font-family="Helvetica,sans-Serif" font-size="14.00" fill="#233238">client</text>
</g>
<!-- a&#45;&#45;d -->
<g id="edge3" class="edge">
<title>a&#45;&#45;d</title>
<path fill="none" stroke="#5b6b73" stroke-width="1.05" d="M34.71,-291.44C23.47,-281.84 10.03,-267.87 3.82,-252 -2.02,-237.1 0.22,-231.59 3.82,-216 13.49,-174.12 39.2,-130.05 53.97,-107.08"/>
</g>
<!-- b&#45;&#45;c -->
<g id="edge4" class="edge">
<title>b&#45;&#45;c</title>
<path fill="none" stroke="#5b6b73" stroke-width="1.05" d="M70.22,-218.83C85.14,-206.69 106.53,-189.28 121.44,-177.14"/>
</g>
<!-- e -->
<g id="node5" class="node">
<title>e</title>
<ellipse fill="#c9e7f4" stroke="#5b6b73" cx="64.82" cy="-18" rx="30.87" ry="18"/>
<text xml:space="preserve" text-anchor="middle" x="64.82" y="-12.2" font-family="Helvetica,sans-Serif" font-size="14.00" fill="#233238">client</text>
</g>
<!-- b&#45;&#45;e -->
<g id="edge5" class="edge">
<title>b&#45;&#45;e</title>
<path fill="none" stroke="#5b6b73" stroke-width="1.05" d="M42.75,-216.53C25.96,-186.85 -4.05,-122.74 15.82,-72 22.03,-56.13 35.47,-42.16 46.71,-32.56"/>
</g>
<!-- c&#45;&#45;d -->
<g id="edge6" class="edge">
<title>c&#45;&#45;d</title>
<path fill="none" stroke="#5b6b73" stroke-width="1.05" d="M123.12,-146.15C110.56,-134.28 93.04,-117.7 80.49,-105.82"/>
</g>
<!-- c&#45;&#45;e -->
<g id="edge7" class="edge">
<title>c&#45;&#45;e</title>
<path fill="none" stroke="#5b6b73" stroke-width="1.05" d="M136.43,-143.68C133.31,-125.04 126.67,-94.97 113.82,-72 105.5,-57.13 92.19,-43.1 81.54,-33.21"/>
</g>
<!-- d&#45;&#45;b -->
<g id="edge9" class="edge">
<title>d&#45;&#45;b</title>
<path fill="none" stroke="#5b6b73" stroke-width="1.05" d="M63.37,-108.11C61.07,-135.32 56.6,-188.19 54.29,-215.59"/>
</g>
<!-- d&#45;&#45;e -->
<g id="edge8" class="edge">
<title>d&#45;&#45;e</title>
<path fill="none" stroke="#5b6b73" stroke-width="1.05" d="M64.82,-71.7C64.82,-60.85 64.82,-46.92 64.82,-36.1"/>
</g>
</g>
</svg>
