<?xml version="1.0" encoding="UTF-8" standalone="no"?>
<!DOCTYPE svg PUBLIC "-//W3C//DTD SVG 1.1//EN"
 "http://www.w3.org/Graphics/SVG/1.1/DTD/svg11.dtd">
<!-- Generated by graphviz version 14.1.3 (20260303.0454)
 -->
<!-- Title: G Pages: 1 -->
<svg width="410pt" height="686pt"
 viewBox="0.00 0.00 410.00 686.00" xmlns="http://www.w3.org/2000/svg" xmlns:xlink="http://www.w3.org/1999/xlink">
<g id="graph0" class="graph" transform="scale(1 1) rotate(0) translate(18 667.5)">
<title>G</title>
<polygon fill="white" stroke="none" points="-18,18 -18,-667.5 392.1,-667.5 392.1,18 -18,18"/>
<!-- os -->
<g id="node1" class="node">
<title>os</title>
<path fill="#bfe2f1" stroke="#5b6b73" d="M153.6,-357.5C153.6,-357.5 12,-357.5 12,-357.5 6,-357.5 0,-351.5 0,-345.5 0,-345.5 0,-333.5 0,-333.5 0,-327.5 6,-321.5 12,-321.5 12,-321.5 153.6,-321.5 153.6,-321.5 159.6,-321.5 165.6,-327.5 165.6,-333.5 165.6,-333.5 165.6,-345.5 165.6,-345.5 165.6,-351.5 159.6,-357.5 153.6,-357.5"/>
<text xml:space="preserve" text-anchor="middle" x="82.8" y="-333.7" font-family="Helvetica,sans-Serif" font-size="14.00" fill="#233238">operating system</text>
</g>
<!-- hardware -->
<g id="node2" class="node">
<title>hardware</title>
<path fill="#d9d9d9" stroke="#5b6b73" d="M360.23,-649.5C360.23,-649.5 229.48,-649.5 229.48,-649.5 223.48,-649.5 217.48,-643.5 217.48,-637.5 217.48,-637.5 217.48,-623.5 217.48,-623.5 217.48,-617.5 223.48,-611.5 229.48,-611.5 229.48,-611.5 360.23,-611.5 360.23,-611.5 366.23,-611.5 372.23,-617.5 372.23,-623.5 372.23,-623.5 372.23,-637.5 372.23,-637.5 372.23,-643.5 366.23,-649.5 360.23,-649.5"/>
<text xml:space="preserve" text-anchor="middle" x="294.85" y="-632.2" font-family="Helvetica,sans-Serif" font-size="14.00" fill="#233238">hardware</text>
<text xml:space="preserve" text-anchor="middle" x="294.85" y="-617.2" font-family="Helvetica,sans-Serif" font-size="14.00" fill="#233238">CPU, memory, devices</text>
</g>
<!-- os&#45;&gt;hardware -->
<g id="edge1" class="edge">
<title>os&#45;&gt;hardware</title>
<path fill="none" stroke="#5b6b73" stroke-width="1.05" d="M88.64,-357.88C101.62,-403.86 141.36,-525.22 215.6,-595.5 219.96,-599.62 224.88,-603.32 230.09,-606.61"/>
<polygon fill="#5b6b73" stroke="#5b6b73" stroke-width="1.05" points="228.71,-608.85 236.51,-610.36 231.36,-604.31 228.71,-608.85"/>
</g>
<!-- control -->
<g id="node3" class="node">
<title>control</title>
<path fill="#ddeaf1" stroke="#5b6b73" d="M362.1,-579C362.1,-579 227.6,-579 227.6,-579 221.6,-579 215.6,-573 215.6,-567 215.6,-567 215.6,-538 215.6,-538 215.6,-532 221.6,-526 227.6,-526 227.6,-526 362.1,-526 362.1,-526 368.1,-526 374.1,-532 374.1,-538 374.1,-538 374.1,-567 374.1,-567 374.1,-573 368.1,-579 362.1,-579"/>
<text xml:space="preserve" text-anchor="middle" x="294.85" y="-561.7" font-family="Helvetica,sans-Serif" font-size="14.00" fill="#233238">control</text>
<text xml:space="preserve" text-anchor="middle" x="294.85" y="-546.7" font-family="Helvetica,sans-Serif" font-size="14.00" fill="#233238">interrupts, traps, timers,</text>
<text xml:space="preserve" text-anchor="middle" x="294.85" y="-531.7" font-family="Helvetica,sans-Serif" font-size="14.00" fill="#233238">privileged instructions</text>
</g>
<!-- os&#45;&gt;control -->
<g id="edge2" class="edge">
<title>os&#45;&gt;control</title>
<path fill="none" stroke="#5b6b73" stroke-width="1.05" d="M94.26,-357.75C114.26,-391.42 160.86,-464.07 215.6,-510.5 219.84,-514.1 224.45,-517.52 229.22,-520.74"/>
<polygon fill="#5b6b73" stroke="#5b6b73" stroke-width="1.05" points="227.78,-522.93 235.51,-524.77 230.61,-518.51 227.78,-522.93"/>
</g>
<!-- proc -->
<g id="node4" class="node">
<title>proc</title>
<path fill="#e6f3f9" stroke="#5b6b73" d="M352.73,-494C352.73,-494 236.98,-494 236.98,-494 230.98,-494 224.98,-488 224.98,-482 224.98,-482 224.98,-453 224.98,-453 224.98,-447 230.98,-441 236.98,-441 236.98,-441 352.73,-441 352.73,-441 358.73,-441 364.73,-447 364.73,-453 364.73,-453 364.73,-482 364.73,-482 364.73,-488 358.73,-494 352.73,-494"/>
<text xml:space="preserve" text-anchor="middle" x="294.85" y="-476.7" font-family="Helvetica,sans-Serif" font-size="14.00" fill="#233238">processes</text>
<text xml:space="preserve" text-anchor="middle" x="294.85" y="-461.7" font-family="Helvetica,sans-Serif" font-size="14.00" fill="#233238">creation, scheduling,</text>
<text xml:space="preserve" text-anchor="middle" x="294.85" y="-446.7" font-family="Helvetica,sans-Serif" font-size="14.00" fill="#233238">communication</text>
</g>
<!-- os&#45;&gt;proc -->
<g id="edge3" class="edge">
<title>os&#45;&gt;proc</title>
<path fill="none" stroke="#5b6b73" stroke-width="1.05" d="M110.63,-357.98C136.97,-375.88 178.47,-403.48 215.6,-425.5 221.7,-429.12 228.13,-432.79 234.59,-436.39"/>
<polygon fill="#5b6b73" stroke="#5b6b73" stroke-width="1.05" points="232.92,-438.47 240.76,-439.79 235.46,-433.87 232.92,-438.47"/>
</g>
<!-- mem -->
<g id="node5" class="node">
<title>mem</title>
<path fill="#e6f3f9" stroke="#5b6b73" d="M353.48,-409C353.48,-409 236.23,-409 236.23,-409 230.23,-409 224.23,-403 224.23,-397 224.23,-397 224.23,-368 224.23,-368 224.23,-362 230.23,-356 236.23,-356 236.23,-356 353.48,-356 353.48,-356 359.48,-356 365.48,-362 365.48,-368 365.48,-368 365.48,-397 365.48,-397 365.48,-403 359.48,-409 353.48,-409"/>
<text xml:space="preserve" text-anchor="middle" x="294.85" y="-391.7" font-family="Helvetica,sans-Serif" font-size="14.00" fill="#233238">memory</text>
<text xml:space="preserve" text-anchor="middle" x="294.85" y="-376.7" font-family="Helvetica,sans-Serif" font-size="14.00" fill="#233238">allocation, residency,</text>
<text xml:space="preserve" text-anchor="middle" x="294.85" y="-361.7" font-family="Helvetica,sans-Serif" font-size="14.00" fill="#233238">virtualization</text>
</g>
<!-- os&#45;&gt;mem -->
<g id="edge4" class="edge">
<title>os&#45;&gt;mem</title>
<path fill="none" stroke="#5b6b73" stroke-width="1.05" d="M165.91,-356.31C182.13,-359.63 199.11,-363.1 215.2,-366.4"/>
<polygon fill="#5b6b73" stroke="#5b6b73" stroke-width="1.05" points="214.61,-368.96 222.48,-367.89 215.66,-363.81 214.61,-368.96"/>
</g>
<!-- storage -->
<g id="node6" class="node">
<title>storage</title>
<path fill="#e6f3f9" stroke="#5b6b73" d="M348.98,-324C348.98,-324 240.73,-324 240.73,-324 234.73,-324 228.73,-318 228.73,-312 228.73,-312 228.73,-283 228.73,-283 228.73,-277 234.73,-271 240.73,-271 240.73,-271 348.98,-271 348.98,-271 354.98,-271 360.98,-277 360.98,-283 360.98,-283 360.98,-312 360.98,-312 360.98,-318 354.98,-324 348.98,-324"/>
<text xml:space="preserve" text-anchor="middle" x="294.85" y="-306.7" font-family="Helvetica,sans-Serif" font-size="14.00" fill="#233238">storage</text>
<text xml:space="preserve" text-anchor="middle" x="294.85" y="-291.7" font-family="Helvetica,sans-Serif" font-size="14.00" fill="#233238">files, disks, caches,</text>
<text xml:space="preserve" text-anchor="middle" x="294.85" y="-276.7" font-family="Helvetica,sans-Serif" font-size="14.00" fill="#233238">consistency</text>
</g>
<!-- os&#45;&gt;storage -->
<g id="edge5" class="edge">
<title>os&#45;&gt;storage</title>
<path fill="none" stroke="#5b6b73" stroke-width="1.05" d="M165.91,-323.08C183.71,-319.52 202.43,-315.78 219.9,-312.29"/>
<polygon fill="#5b6b73" stroke="#5b6b73" stroke-width="1.05" points="219.96,-314.95 226.8,-310.91 218.93,-309.8 219.96,-314.95"/>
</g>
<!-- protect -->
<g id="node7" class="node">
<title>protect</title>
<path fill="#ddeaf1" stroke="#5b6b73" d="M360.6,-239C360.6,-239 229.1,-239 229.1,-239 223.1,-239 217.1,-233 217.1,-227 217.1,-227 217.1,-198 217.1,-198 217.1,-192 223.1,-186 229.1,-186 229.1,-186 360.6,-186 360.6,-186 366.6,-186 372.6,-192 372.6,-198 372.6,-198 372.6,-227 372.6,-227 372.6,-233 366.6,-239 360.6,-239"/>
<text xml:space="preserve" text-anchor="middle" x="294.85" y="-221.7" font-family="Helvetica,sans-Serif" font-size="14.00" fill="#233238">protection and security</text>
<text xml:space="preserve" text-anchor="middle" x="294.85" y="-206.7" font-family="Helvetica,sans-Serif" font-size="14.00" fill="#233238">authorization,</text>
<text xml:space="preserve" text-anchor="middle" x="294.85" y="-191.7" font-family="Helvetica,sans-Serif" font-size="14.00" fill="#233238">authentication, defense</text>
</g>
<!-- os&#45;&gt;protect -->
<g id="edge6" class="edge">
<title>os&#45;&gt;protect</title>
<path fill="none" stroke="#5b6b73" stroke-width="1.05" d="M111.5,-321.11C137.95,-303.72 179.07,-277.15 215.6,-255.5 222.26,-251.55 229.3,-247.51 236.32,-243.56"/>
<polygon fill="#5b6b73" stroke="#5b6b73" stroke-width="1.05" points="237.25,-246.04 242.51,-240.09 234.69,-241.46 237.25,-246.04"/>
</g>
<!-- env -->
<g id="node8" class="node">
<title>env</title>
<path fill="#e6f3f9" stroke="#5b6b73" d="M342.98,-153.5C342.98,-153.5 246.73,-153.5 246.73,-153.5 240.73,-153.5 234.73,-147.5 234.73,-141.5 234.73,-141.5 234.73,-97.5 234.73,-97.5 234.73,-91.5 240.73,-85.5 246.73,-85.5 246.73,-85.5 342.98,-85.5 342.98,-85.5 348.98,-85.5 354.98,-91.5 354.98,-97.5 354.98,-97.5 354.98,-141.5 354.98,-141.5 354.98,-147.5 348.98,-153.5 342.98,-153.5"/>
<text xml:space="preserve" text-anchor="middle" x="294.85" y="-136.2" font-family="Helvetica,sans-Serif" font-size="14.00" fill="#233238">environments</text>
<text xml:space="preserve" text-anchor="middle" x="294.85" y="-121.2" font-family="Helvetica,sans-Serif" font-size="14.00" fill="#233238">distributed, P2P,</text>
<text xml:space="preserve" text-anchor="middle" x="294.85" y="-106.2" font-family="Helvetica,sans-Serif" font-size="14.00" fill="#233238">virtualized, cloud,</text>
<text xml:space="preserve" text-anchor="middle" x="294.85" y="-91.2" font-family="Helvetica,sans-Serif" font-size="14.00" fill="#233238">real&#45;time</text>
</g>
<!-- os&#45;&gt;env -->
<g id="edge7" class="edge">
<title>os&#45;&gt;env</title>
<path fill="none" stroke="#5b6b73" stroke-width="1.05" d="M95.18,-321.13C116.15,-288.25 163.54,-218.33 215.6,-170.5 219.85,-166.59 224.44,-162.79 229.18,-159.13"/>
<polygon fill="#5b6b73" stroke="#5b6b73" stroke-width="1.05" points="230.5,-161.42 234.94,-154.83 227.36,-157.21 230.5,-161.42"/>
</g>
<!-- source -->
<g id="node9" class="node">
<title>source</title>
<path fill="#ddeaf1" stroke="#5b6b73" d="M360.6,-53C360.6,-53 229.1,-53 229.1,-53 223.1,-53 217.1,-47 217.1,-41 217.1,-41 217.1,-12 217.1,-12 217.1,-6 223.1,0 229.1,0 229.1,0 360.6,0 360.6,0 366.6,0 372.6,-6 372.6,-12 372.6,-12 372.6,-41 372.6,-41 372.6,-47 366.6,-53 360.6,-53"/>
<text xml:space="preserve" text-anchor="middle" x="294.85" y="-35.7" font-family="Helvetica,sans-Serif" font-size="14.00" fill="#233238">open source</text>
<text xml:space="preserve" text-anchor="middle" x="294.85" y="-20.7" font-family="Helvetica,sans-Serif" font-size="14.00" fill="#233238">study, modify,</text>
<text xml:space="preserve" text-anchor="middle" x="294.85" y="-5.7" font-family="Helvetica,sans-Serif" font-size="14.00" fill="#233238">inspect implementation</text>
</g>
<!-- os&#45;&gt;source -->
<g id="edge8" class="edge">
<title>os&#45;&gt;source</title>
<path fill="none" stroke="#5b6b73" stroke-width="1.05" d="M88.53,-321.19C101.5,-274.1 141.66,-147.11 215.6,-69.5 219.39,-65.52 223.63,-61.82 228.12,-58.4"/>
<polygon fill="#5b6b73" stroke="#5b6b73" stroke-width="1.05" points="229.48,-60.66 234.07,-54.17 226.43,-56.38 229.48,-60.66"/>
</g>
</g>
</svg>
