<?xml version="1.0" encoding="UTF-8" standalone="no"?>
<!DOCTYPE svg PUBLIC "-//W3C//DTD SVG 1.1//EN"
 "http://www.w3.org/Graphics/SVG/1.1/DTD/svg11.dtd">
<!-- Generated by graphviz version 14.1.3 (20260303.0454)
 -->
<!-- Title: G Pages: 1 -->
<svg width="981pt" height="267pt"
 viewBox="0.00 0.00 981.00 267.00" xmlns="http://www.w3.org/2000/svg" xmlns:xlink="http://www.w3.org/1999/xlink">
<g id="graph0" class="graph" transform="scale(1 1) rotate(0) translate(18 249)">
<title>G</title>
<polygon fill="white" stroke="none" points="-18,18 -18,-249 963.25,-249 963.25,18 -18,18"/>
<g id="clust1" class="cluster">
<title>cluster_security</title>
<path fill="#eaf6fb" stroke="#9ec9da" d="M20,-8C20,-8 925.25,-8 925.25,-8 931.25,-8 937.25,-14 937.25,-20 937.25,-20 937.25,-211 937.25,-211 937.25,-217 931.25,-223 925.25,-223 925.25,-223 20,-223 20,-223 14,-223 8,-217 8,-211 8,-211 8,-20 8,-20 8,-14 14,-8 20,-8"/>
<text xml:space="preserve" text-anchor="middle" x="472.62" y="-205.7" font-family="Times,serif" font-size="14.00">security: broader defense problem</text>
</g>
<g id="clust2" class="cluster">
<title>cluster_protection</title>
<path fill="white" stroke="#7cb6cc" d="M194.12,-16C194.12,-16 622.75,-16 622.75,-16 628.75,-16 634.75,-22 634.75,-28 634.75,-28 634.75,-98 634.75,-98 634.75,-104 628.75,-110 622.75,-110 622.75,-110 194.12,-110 194.12,-110 188.12,-110 182.12,-104 182.12,-98 182.12,-98 182.12,-28 182.12,-28 182.12,-22 188.12,-16 194.12,-16"/>
<text xml:space="preserve" text-anchor="middle" x="408.44" y="-92.7" font-family="Times,serif" font-size="14.00">protection: authorization and enforcement</text>
</g>
<!-- auth -->
<g id="node1" class="node">
<title>auth</title>
<path fill="#f5f5f5" stroke="#5b6b73" d="M292.75,-156C292.75,-156 188.25,-156 188.25,-156 182.25,-156 176.25,-150 176.25,-144 176.25,-144 176.25,-130 176.25,-130 176.25,-124 182.25,-118 188.25,-118 188.25,-118 292.75,-118 292.75,-118 298.75,-118 304.75,-124 304.75,-130 304.75,-130 304.75,-144 304.75,-144 304.75,-150 298.75,-156 292.75,-156"/>
<text xml:space="preserve" text-anchor="middle" x="240.5" y="-138.7" font-family="Helvetica,sans-Serif" font-size="14.00" fill="#233238">authentication</text>
<text xml:space="preserve" text-anchor="middle" x="240.5" y="-123.7" font-family="Helvetica,sans-Serif" font-size="14.00" fill="#233238">who is requesting?</text>
</g>
<!-- policy -->
<g id="node6" class="node">
<title>policy</title>
<path fill="#bfe2f1" stroke="#5b6b73" d="M466.5,-77.5C466.5,-77.5 359.75,-77.5 359.75,-77.5 353.75,-77.5 347.75,-71.5 347.75,-65.5 347.75,-65.5 347.75,-36.5 347.75,-36.5 347.75,-30.5 353.75,-24.5 359.75,-24.5 359.75,-24.5 466.5,-24.5 466.5,-24.5 472.5,-24.5 478.5,-30.5 478.5,-36.5 478.5,-36.5 478.5,-65.5 478.5,-65.5 478.5,-71.5 472.5,-77.5 466.5,-77.5"/>
<text xml:space="preserve" text-anchor="middle" x="413.12" y="-60.2" font-family="Helvetica,sans-Serif" font-size="14.00" fill="#233238">policy check</text>
<text xml:space="preserve" text-anchor="middle" x="413.12" y="-45.2" font-family="Helvetica,sans-Serif" font-size="14.00" fill="#233238">UID, GID,</text>
<text xml:space="preserve" text-anchor="middle" x="413.12" y="-30.2" font-family="Helvetica,sans-Serif" font-size="14.00" fill="#233238">permissions, mode</text>
</g>
<!-- auth&#45;&gt;policy -->
<g id="edge3" class="edge">
<title>auth&#45;&gt;policy</title>
<path fill="none" stroke="#5b6b73" stroke-width="1.05" d="M298.25,-117.62C298.25,-99.32 298.25,-74.67 298.25,-74.67 298.25,-74.67 338.21,-74.67 338.21,-74.67"/>
<polygon fill="#5b6b73" stroke="#5b6b73" stroke-width="1.05" points="338.21,-77.29 345.71,-74.67 338.21,-72.04 338.21,-77.29"/>
</g>
<!-- audit -->
<g id="node2" class="node">
<title>audit</title>
<path fill="#f5f5f5" stroke="#5b6b73" d="M775.75,-70C775.75,-70 681.75,-70 681.75,-70 675.75,-70 669.75,-64 669.75,-58 669.75,-58 669.75,-44 669.75,-44 669.75,-38 675.75,-32 681.75,-32 681.75,-32 775.75,-32 775.75,-32 781.75,-32 787.75,-38 787.75,-44 787.75,-44 787.75,-58 787.75,-58 787.75,-64 781.75,-70 775.75,-70"/>
<text xml:space="preserve" text-anchor="middle" x="728.75" y="-52.7" font-family="Helvetica,sans-Serif" font-size="14.00" fill="#233238">auditing / logging</text>
<text xml:space="preserve" text-anchor="middle" x="728.75" y="-37.7" font-family="Helvetica,sans-Serif" font-size="14.00" fill="#233238">what happened?</text>
</g>
<!-- recover -->
<g id="node4" class="node">
<title>recover</title>
<path fill="#f5f5f5" stroke="#5b6b73" d="M917.25,-70C917.25,-70 842.75,-70 842.75,-70 836.75,-70 830.75,-64 830.75,-58 830.75,-58 830.75,-44 830.75,-44 830.75,-38 836.75,-32 842.75,-32 842.75,-32 917.25,-32 917.25,-32 923.25,-32 929.25,-38 929.25,-44 929.25,-44 929.25,-58 929.25,-58 929.25,-64 923.25,-70 917.25,-70"/>
<text xml:space="preserve" text-anchor="middle" x="880" y="-52.7" font-family="Helvetica,sans-Serif" font-size="14.00" fill="#233238">recovery after</text>
<text xml:space="preserve" text-anchor="middle" x="880" y="-37.7" font-family="Helvetica,sans-Serif" font-size="14.00" fill="#233238">compromise</text>
</g>
<!-- audit&#45;&gt;recover -->
<g id="edge7" class="edge">
<title>audit&#45;&gt;recover</title>
<path fill="none" stroke="#5b6b73" stroke-width="1.05" stroke-dasharray="5,2" d="M788.09,-51C788.09,-51 821.51,-51 821.51,-51"/>
<polygon fill="#5b6b73" stroke="#5b6b73" stroke-width="1.05" points="821.51,-53.63 829.01,-51 821.51,-48.38 821.51,-53.63"/>
</g>
<!-- attack -->
<g id="node3" class="node">
<title>attack</title>
<path fill="#f5f5f5" stroke="#5b6b73" d="M121.25,-176.5C121.25,-176.5 28,-176.5 28,-176.5 22,-176.5 16,-170.5 16,-164.5 16,-164.5 16,-135.5 16,-135.5 16,-129.5 22,-123.5 28,-123.5 28,-123.5 121.25,-123.5 121.25,-123.5 127.25,-123.5 133.25,-129.5 133.25,-135.5 133.25,-135.5 133.25,-164.5 133.25,-164.5 133.25,-170.5 127.25,-176.5 121.25,-176.5"/>
<text xml:space="preserve" text-anchor="middle" x="74.62" y="-159.2" font-family="Helvetica,sans-Serif" font-size="14.00" fill="#233238">attack resistance</text>
<text xml:space="preserve" text-anchor="middle" x="74.62" y="-144.2" font-family="Helvetica,sans-Serif" font-size="14.00" fill="#233238">malware, theft,</text>
<text xml:space="preserve" text-anchor="middle" x="74.62" y="-129.2" font-family="Helvetica,sans-Serif" font-size="14.00" fill="#233238">hostile access</text>
</g>
<!-- attack&#45;&gt;auth -->
<g id="edge5" class="edge">
<title>attack&#45;&gt;auth</title>
<path fill="none" stroke="#5b6b73" stroke-width="1.05" stroke-dasharray="5,2" d="M133.57,-139.75C133.57,-139.75 166.74,-139.75 166.74,-139.75"/>
<polygon fill="#5b6b73" stroke="#5b6b73" stroke-width="1.05" points="166.74,-142.38 174.24,-139.75 166.74,-137.13 166.74,-142.38"/>
</g>
<!-- attack&#45;&gt;policy -->
<g id="edge6" class="edge">
<title>attack&#45;&gt;policy</title>
<path fill="none" stroke="#5b6b73" stroke-width="1.05" stroke-dasharray="5,2" d="M74.25,-123.1C74.25,-100.49 74.25,-71.83 74.25,-71.83 74.25,-71.83 338.3,-71.83 338.3,-71.83"/>
<polygon fill="#5b6b73" stroke="#5b6b73" stroke-width="1.05" points="338.3,-74.46 345.8,-71.83 338.3,-69.21 338.3,-74.46"/>
</g>
<!-- subject -->
<g id="node5" class="node">
<title>subject</title>
<path fill="#ddeaf1" stroke="#5b6b73" d="M278.88,-69C278.88,-69 202.12,-69 202.12,-69 196.12,-69 190.12,-63 190.12,-57 190.12,-57 190.12,-45 190.12,-45 190.12,-39 196.12,-33 202.12,-33 202.12,-33 278.88,-33 278.88,-33 284.88,-33 290.88,-39 290.88,-45 290.88,-45 290.88,-57 290.88,-57 290.88,-63 284.88,-69 278.88,-69"/>
<text xml:space="preserve" text-anchor="middle" x="240.5" y="-45.2" font-family="Helvetica,sans-Serif" font-size="14.00" fill="#233238">user / process</text>
</g>
<!-- subject&#45;&gt;policy -->
<g id="edge1" class="edge">
<title>subject&#45;&gt;policy</title>
<path fill="none" stroke="#5b6b73" stroke-width="1.05" d="M291.36,-51C291.36,-51 338.47,-51 338.47,-51"/>
<polygon fill="#5b6b73" stroke="#5b6b73" stroke-width="1.05" points="338.47,-53.63 345.97,-51 338.47,-48.38 338.47,-53.63"/>
</g>
<!-- object -->
<g id="node7" class="node">
<title>object</title>
<path fill="#d5edf7" stroke="#5b6b73" d="M614.75,-77.5C614.75,-77.5 533.5,-77.5 533.5,-77.5 527.5,-77.5 521.5,-71.5 521.5,-65.5 521.5,-65.5 521.5,-36.5 521.5,-36.5 521.5,-30.5 527.5,-24.5 533.5,-24.5 533.5,-24.5 614.75,-24.5 614.75,-24.5 620.75,-24.5 626.75,-30.5 626.75,-36.5 626.75,-36.5 626.75,-65.5 626.75,-65.5 626.75,-71.5 620.75,-77.5 614.75,-77.5"/>
<text xml:space="preserve" text-anchor="middle" x="574.12" y="-60.2" font-family="Helvetica,sans-Serif" font-size="14.00" fill="#233238">resource</text>
<text xml:space="preserve" text-anchor="middle" x="574.12" y="-45.2" font-family="Helvetica,sans-Serif" font-size="14.00" fill="#233238">CPU, memory,</text>
<text xml:space="preserve" text-anchor="middle" x="574.12" y="-30.2" font-family="Helvetica,sans-Serif" font-size="14.00" fill="#233238">file, device</text>
</g>
<!-- policy&#45;&gt;object -->
<g id="edge2" class="edge">
<title>policy&#45;&gt;object</title>
<path fill="none" stroke="#5b6b73" stroke-width="1.05" d="M478.61,-51C478.61,-51 511.93,-51 511.93,-51"/>
<polygon fill="#5b6b73" stroke="#5b6b73" stroke-width="1.05" points="511.93,-53.63 519.43,-51 511.93,-48.38 511.93,-53.63"/>
</g>
<!-- object&#45;&gt;audit -->
<g id="edge4" class="edge">
<title>object&#45;&gt;audit</title>
<path fill="none" stroke="#5b6b73" stroke-width="1.05" d="M626.91,-51C626.91,-51 660.21,-51 660.21,-51"/>
<polygon fill="#5b6b73" stroke="#5b6b73" stroke-width="1.05" points="660.21,-53.63 667.71,-51 660.21,-48.38 660.21,-53.63"/>
</g>
</g>
</svg>
