<?xml version="1.0" encoding="UTF-8" standalone="no"?>
<!DOCTYPE svg PUBLIC "-//W3C//DTD SVG 1.1//EN"
 "http://www.w3.org/Graphics/SVG/1.1/DTD/svg11.dtd">
<!-- Generated by graphviz version 14.1.3 (20260303.0454)
 -->
<!-- Title: G Pages: 1 -->
<svg width="382pt" height="213pt"
 viewBox="0.00 0.00 382.00 213.00" xmlns="http://www.w3.org/2000/svg" xmlns:xlink="http://www.w3.org/1999/xlink">
<g id="graph0" class="graph" transform="scale(1 1) rotate(0) translate(18 195.2)">
<title>G</title>
<polygon fill="white" stroke="none" points="-18,18 -18,-195.2 363.6,-195.2 363.6,18 -18,18"/>
<!-- c1 -->
<g id="node1" class="node">
<title>c1</title>
<path fill="#ddeaf1" stroke="#5b6b73" d="M84.3,-177.2C84.3,-177.2 35.3,-177.2 35.3,-177.2 29.3,-177.2 23.3,-171.2 23.3,-165.2 23.3,-165.2 23.3,-153.2 23.3,-153.2 23.3,-147.2 29.3,-141.2 35.3,-141.2 35.3,-141.2 84.3,-141.2 84.3,-141.2 90.3,-141.2 96.3,-147.2 96.3,-153.2 96.3,-153.2 96.3,-165.2 96.3,-165.2 96.3,-171.2 90.3,-177.2 84.3,-177.2"/>
<text xml:space="preserve" text-anchor="middle" x="59.8" y="-153.4" font-family="Helvetica,sans-Serif" font-size="14.00" fill="#233238">computer</text>
</g>
<!-- lan -->
<g id="node4" class="node">
<title>lan</title>
<path fill="#f5f5f5" stroke="#5b6b73" d="M315.6,-101.2C315.6,-101.2 30,-101.2 30,-101.2 25.8,-101.2 21.6,-97 21.6,-92.8 21.6,-92.8 21.6,-84.4 21.6,-84.4 21.6,-80.2 25.8,-76 30,-76 30,-76 315.6,-76 315.6,-76 319.8,-76 324,-80.2 324,-84.4 324,-84.4 324,-92.8 324,-92.8 324,-97 319.8,-101.2 315.6,-101.2"/>
<text xml:space="preserve" text-anchor="middle" x="172.8" y="-82.8" font-family="Helvetica,sans-Serif" font-size="14.00" fill="#233238">interconnect</text>
</g>
<!-- c1&#45;&gt;lan -->
<g id="edge1" class="edge">
<title>c1&#45;&gt;lan</title>
<path fill="none" stroke="#5b6b73" stroke-width="1.15" d="M59.8,-141.02C59.8,-128.6 59.8,-112.45 59.8,-101.37"/>
</g>
<!-- c2 -->
<g id="node2" class="node">
<title>c2</title>
<path fill="#ddeaf1" stroke="#5b6b73" d="M197.3,-177.2C197.3,-177.2 148.3,-177.2 148.3,-177.2 142.3,-177.2 136.3,-171.2 136.3,-165.2 136.3,-165.2 136.3,-153.2 136.3,-153.2 136.3,-147.2 142.3,-141.2 148.3,-141.2 148.3,-141.2 197.3,-141.2 197.3,-141.2 203.3,-141.2 209.3,-147.2 209.3,-153.2 209.3,-153.2 209.3,-165.2 209.3,-165.2 209.3,-171.2 203.3,-177.2 197.3,-177.2"/>
<text xml:space="preserve" text-anchor="middle" x="172.8" y="-153.4" font-family="Helvetica,sans-Serif" font-size="14.00" fill="#233238">computer</text>
</g>
<!-- c2&#45;&gt;lan -->
<g id="edge2" class="edge">
<title>c2&#45;&gt;lan</title>
<path fill="none" stroke="#5b6b73" stroke-width="1.15" d="M172.8,-141.02C172.8,-128.6 172.8,-112.45 172.8,-101.37"/>
</g>
<!-- c3 -->
<g id="node3" class="node">
<title>c3</title>
<path fill="#ddeaf1" stroke="#5b6b73" d="M310.3,-177.2C310.3,-177.2 261.3,-177.2 261.3,-177.2 255.3,-177.2 249.3,-171.2 249.3,-165.2 249.3,-165.2 249.3,-153.2 249.3,-153.2 249.3,-147.2 255.3,-141.2 261.3,-141.2 261.3,-141.2 310.3,-141.2 310.3,-141.2 316.3,-141.2 322.3,-147.2 322.3,-153.2 322.3,-153.2 322.3,-165.2 322.3,-165.2 322.3,-171.2 316.3,-177.2 310.3,-177.2"/>
<text xml:space="preserve" text-anchor="middle" x="285.8" y="-153.4" font-family="Helvetica,sans-Serif" font-size="14.00" fill="#233238">computer</text>
</g>
<!-- c3&#45;&gt;lan -->
<g id="edge3" class="edge">
<title>c3&#45;&gt;lan</title>
<path fill="none" stroke="#5b6b73" stroke-width="1.15" d="M285.8,-141.02C285.8,-128.6 285.8,-112.45 285.8,-101.37"/>
</g>
<!-- san -->
<g id="node5" class="node">
<title>san</title>
<path fill="#bfe2f1" stroke="#5b6b73" d="M333.6,-36C333.6,-36 12,-36 12,-36 6,-36 0,-30 0,-24 0,-24 0,-12 0,-12 0,-6 6,0 12,0 12,0 333.6,0 333.6,0 339.6,0 345.6,-6 345.6,-12 345.6,-12 345.6,-24 345.6,-24 345.6,-30 339.6,-36 333.6,-36"/>
<text xml:space="preserve" text-anchor="middle" x="172.8" y="-12.2" font-family="Helvetica,sans-Serif" font-size="14.00" fill="#233238">storage area network</text>
</g>
<!-- lan&#45;&gt;san -->
<g id="edge4" class="edge">
<title>lan&#45;&gt;san</title>
<path fill="none" stroke="#5b6b73" stroke-width="1.15" d="M172.8,-75.65C172.8,-75.65 172.8,-46.19 172.8,-46.19"/>
<polygon fill="#5b6b73" stroke="#5b6b73" stroke-width="1.15" points="175.6,-46.19 172.8,-38.19 170,-46.19 175.6,-46.19"/>
</g>
</g>
</svg>
