<?xml version="1.0" encoding="UTF-8" standalone="no"?>
<!DOCTYPE svg PUBLIC "-//W3C//DTD SVG 1.1//EN"
 "http://www.w3.org/Graphics/SVG/1.1/DTD/svg11.dtd">
<!-- Generated by graphviz version 14.1.3 (20260303.0454)
 -->
<!-- Title: G Pages: 1 -->
<svg width="651pt" height="170pt"
 viewBox="0.00 0.00 651.00 170.00" xmlns="http://www.w3.org/2000/svg" xmlns:xlink="http://www.w3.org/1999/xlink">
<g id="graph0" class="graph" transform="scale(1 1) rotate(0) translate(18 152.37)">
<title>G</title>
<polygon fill="white" stroke="none" points="-18,18 -18,-152.37 632.5,-152.37 632.5,18 -18,18"/>
<!-- cpu -->
<g id="node1" class="node">
<title>cpu</title>
<polygon fill="#d9d9d9" stroke="none" points="1,-80.5 1,-113.5 133.75,-113.5 133.75,-80.5 1,-80.5"/>
<polygon fill="none" stroke="#5b6b73" points="1,-80.5 1,-113.5 133.75,-113.5 133.75,-80.5 1,-80.5"/>
<text xml:space="preserve" text-anchor="start" x="39.25" y="-92.2" font-family="Helvetica,sans-Serif" font-weight="bold" font-size="14.00" fill="#233238">CPU (*N)</text>
<polygon fill="#e6f3f9" stroke="none" points="1,-47.5 1,-80.5 133.75,-80.5 133.75,-47.5 1,-47.5"/>
<polygon fill="none" stroke="#5b6b73" points="1,-47.5 1,-80.5 133.75,-80.5 133.75,-47.5 1,-47.5"/>
<text xml:space="preserve" text-anchor="start" x="10" y="-60.25" font-family="Helvetica,sans-Serif" font-size="14.00" fill="#233238">thread of execution</text>
<polygon fill="#ddeaf1" stroke="none" points="1,-14.5 1,-47.5 133.75,-47.5 133.75,-14.5 1,-14.5"/>
<polygon fill="none" stroke="#5b6b73" points="1,-14.5 1,-47.5 133.75,-47.5 133.75,-14.5 1,-14.5"/>
<text xml:space="preserve" text-anchor="start" x="49.38" y="-27.25" font-family="Helvetica,sans-Serif" font-size="14.00" fill="#233238">cache</text>
<polygon fill="none" stroke="#5b6b73" points="0,-13.5 0,-114.5 134.75,-114.5 134.75,-13.5 0,-13.5"/>
</g>
<!-- device -->
<g id="node2" class="node">
<title>device</title>
<polygon fill="#ddeaf1" stroke="none" points="271.62,-87.5 271.62,-120.5 361.62,-120.5 361.62,-87.5 271.62,-87.5"/>
<polygon fill="none" stroke="#5b6b73" points="271.62,-87.5 271.62,-120.5 361.62,-120.5 361.62,-87.5 271.62,-87.5"/>
<text xml:space="preserve" text-anchor="start" x="280.62" y="-99.2" font-family="Helvetica,sans-Serif" font-weight="bold" font-size="14.00" fill="#233238">device (*M)</text>
<polygon fill="none" stroke="#5b6b73" points="270.62,-86.5 270.62,-121.5 362.62,-121.5 362.62,-86.5 270.62,-86.5"/>
</g>
<!-- cpu&#45;&gt;device -->
<g id="edge3" class="edge">
<title>cpu&#45;&gt;device</title>
<path fill="none" stroke="#5b6b73" stroke-width="1.15" d="M134.53,-103.7C142.47,-107.09 150.65,-109.98 158.75,-112 192.06,-120.3 230.54,-118.5 261.05,-114.53"/>
<polygon fill="#5b6b73" stroke="#5b6b73" stroke-width="1.15" points="261.41,-117.31 268.94,-113.42 260.63,-111.76 261.41,-117.31"/>
<text xml:space="preserve" text-anchor="middle" x="189.12" y="-121.07" font-family="Times,serif" font-size="14.00">I/O request</text>
</g>
<!-- memory -->
<g id="node3" class="node">
<title>memory</title>
<polygon fill="#d9d9d9" stroke="none" points="471,-34 471,-67 613.5,-67 613.5,-34 471,-34"/>
<polygon fill="none" stroke="#5b6b73" points="471,-34 471,-67 613.5,-67 613.5,-34 471,-34"/>
<text xml:space="preserve" text-anchor="start" x="515.25" y="-45.7" font-family="Helvetica,sans-Serif" font-weight="bold" font-size="14.00" fill="#233238">memory</text>
<polygon fill="#e6f3f9" stroke="none" points="471,-1 471,-34 613.5,-34 613.5,-1 471,-1"/>
<polygon fill="none" stroke="#5b6b73" points="471,-1 471,-34 613.5,-34 613.5,-1 471,-1"/>
<text xml:space="preserve" text-anchor="start" x="480" y="-13.75" font-family="Helvetica,sans-Serif" font-size="14.00" fill="#233238">instructions and data</text>
<polygon fill="none" stroke="#5b6b73" points="470,0 470,-68 614.5,-68 614.5,0 470,0"/>
</g>
<!-- cpu&#45;&gt;memory -->
<g id="edge1" class="edge">
<title>cpu&#45;&gt;memory</title>
<path fill="none" stroke="#5b6b73" stroke-width="1.15" d="M134.48,-59.6C167.27,-57.44 207.47,-54.8 243.5,-52.5 317.09,-47.8 400.93,-42.6 460.85,-38.92"/>
<polygon fill="#5b6b73" stroke="#5b6b73" stroke-width="1.15" points="460.71,-41.73 468.52,-38.45 460.36,-36.14 460.71,-41.73"/>
<text xml:space="preserve" text-anchor="middle" x="316.62" y="-55.7" font-family="Times,serif" font-size="14.00">instruction execution cycle</text>
</g>
<!-- device&#45;&gt;cpu -->
<g id="edge4" class="edge">
<title>device&#45;&gt;cpu</title>
<path fill="none" stroke="#5b6b73" stroke-width="1.15" d="M270.66,-96.13C254.53,-93.35 236.21,-90.23 219.5,-87.5 194.98,-83.49 168.19,-79.27 144.07,-75.53"/>
<polygon fill="#5b6b73" stroke="#5b6b73" stroke-width="1.15" points="144.67,-72.79 136.34,-74.34 143.82,-78.33 144.67,-72.79"/>
<text xml:space="preserve" text-anchor="middle" x="189.12" y="-90.7" font-family="Times,serif" font-size="14.00">interrupt</text>
</g>
<!-- device&#45;&gt;memory -->
<g id="edge5" class="edge">
<title>device&#45;&gt;memory</title>
<path fill="none" stroke="#5b6b73" stroke-width="1.15" d="M362.61,-89.92C390.82,-81.09 428,-69.45 461.13,-59.08"/>
<polygon fill="#5b6b73" stroke="#5b6b73" stroke-width="1.15" points="461.9,-61.77 468.7,-56.71 460.23,-56.43 461.9,-61.77"/>
<text xml:space="preserve" text-anchor="middle" x="429.88" y="-76.39" font-family="Times,serif" font-size="14.00">DMA</text>
</g>
<!-- memory&#45;&gt;cpu -->
<g id="edge2" class="edge">
<title>memory&#45;&gt;cpu</title>
<path fill="none" stroke="#5b6b73" stroke-width="1.15" d="M470.09,-24.64C444.78,-21.74 416.04,-18.93 389.75,-17.5 324.85,-13.98 307.95,-9.09 243.5,-17.5 210.28,-21.83 174.4,-30.61 143.82,-39.38"/>
<polygon fill="#5b6b73" stroke="#5b6b73" stroke-width="1.15" points="143.07,-36.68 136.18,-41.61 144.64,-42.06 143.07,-36.68"/>
<text xml:space="preserve" text-anchor="middle" x="316.62" y="-20.7" font-family="Times,serif" font-size="14.00">data movement</text>
</g>
</g>
</svg>
