<?xml version="1.0" encoding="UTF-8" standalone="no"?>
<!DOCTYPE svg PUBLIC "-//W3C//DTD SVG 1.1//EN"
 "http://www.w3.org/Graphics/SVG/1.1/DTD/svg11.dtd">
<!-- Generated by graphviz version 14.1.3 (20260303.0454)
 -->
<!-- Title: G Pages: 1 -->
<svg width="1451pt" height="351pt"
 viewBox="0.00 0.00 1451.00 351.00" xmlns="http://www.w3.org/2000/svg" xmlns:xlink="http://www.w3.org/1999/xlink">
<g id="graph0" class="graph" transform="scale(1 1) rotate(0) translate(18 332.5)">
<title>G</title>
<polygon fill="white" stroke="none" points="-18,18 -18,-332.5 1432.5,-332.5 1432.5,18 -18,18"/>
<g id="clust1" class="cluster">
<title>cluster_kernel</title>
<path fill="#eaf6fb" stroke="#9ec9da" d="M402.5,-79.5C402.5,-79.5 1096,-79.5 1096,-79.5 1102,-79.5 1108,-85.5 1108,-91.5 1108,-91.5 1108,-161.5 1108,-161.5 1108,-167.5 1102,-173.5 1096,-173.5 1096,-173.5 402.5,-173.5 402.5,-173.5 396.5,-173.5 390.5,-167.5 390.5,-161.5 390.5,-161.5 390.5,-91.5 390.5,-91.5 390.5,-85.5 396.5,-79.5 402.5,-79.5"/>
<text xml:space="preserve" text-anchor="middle" x="749.25" y="-156.2" font-family="Times,serif" font-size="14.00">kernel (reference monitor)</text>
</g>
<g id="clust2" class="cluster">
<title>cluster_objs</title>
<path fill="#f3fafd" stroke="#b0c7d3" d="M1270.5,-81.5C1270.5,-81.5 1394,-81.5 1394,-81.5 1400,-81.5 1406,-87.5 1406,-93.5 1406,-93.5 1406,-294.5 1406,-294.5 1406,-300.5 1400,-306.5 1394,-306.5 1394,-306.5 1270.5,-306.5 1270.5,-306.5 1264.5,-306.5 1258.5,-300.5 1258.5,-294.5 1258.5,-294.5 1258.5,-93.5 1258.5,-93.5 1258.5,-87.5 1264.5,-81.5 1270.5,-81.5"/>
<text xml:space="preserve" text-anchor="middle" x="1332.25" y="-289.2" font-family="Times,serif" font-size="14.00">protected objects</text>
</g>
<!-- subj -->
<g id="node1" class="node">
<title>subj</title>
<path fill="#f5f5f5" stroke="#5b6b73" d="M109.75,-133.5C109.75,-133.5 12,-133.5 12,-133.5 6,-133.5 0,-127.5 0,-121.5 0,-121.5 0,-107.5 0,-107.5 0,-101.5 6,-95.5 12,-95.5 12,-95.5 109.75,-95.5 109.75,-95.5 115.75,-95.5 121.75,-101.5 121.75,-107.5 121.75,-107.5 121.75,-121.5 121.75,-121.5 121.75,-127.5 115.75,-133.5 109.75,-133.5"/>
<text xml:space="preserve" text-anchor="middle" x="60.88" y="-116.2" font-family="Helvetica,sans-Serif" font-size="14.00" fill="#233238">subject</text>
<text xml:space="preserve" text-anchor="middle" x="60.88" y="-101.2" font-family="Helvetica,sans-Serif" font-size="14.00" fill="#233238">(process / thread)</text>
</g>
<!-- req -->
<g id="node2" class="node">
<title>req</title>
<path fill="#ddeaf1" stroke="#5b6b73" d="M331.5,-133.5C331.5,-133.5 188.75,-133.5 188.75,-133.5 182.75,-133.5 176.75,-127.5 176.75,-121.5 176.75,-121.5 176.75,-107.5 176.75,-107.5 176.75,-101.5 182.75,-95.5 188.75,-95.5 188.75,-95.5 331.5,-95.5 331.5,-95.5 337.5,-95.5 343.5,-101.5 343.5,-107.5 343.5,-107.5 343.5,-121.5 343.5,-121.5 343.5,-127.5 337.5,-133.5 331.5,-133.5"/>
<text xml:space="preserve" text-anchor="middle" x="260.12" y="-116.2" font-family="Helvetica,sans-Serif" font-size="14.00" fill="#233238">request</text>
<text xml:space="preserve" text-anchor="middle" x="260.12" y="-101.2" font-family="Helvetica,sans-Serif" font-size="14.00" fill="#233238">&quot;do action A on object O&quot;</text>
</g>
<!-- subj&#45;&gt;req -->
<g id="edge1" class="edge">
<title>subj&#45;&gt;req</title>
<path fill="none" stroke="#5b6b73" stroke-width="1.05" d="M122.13,-114.5C136.43,-114.5 152.01,-114.5 167.36,-114.5"/>
<polygon fill="#5b6b73" stroke="#5b6b73" stroke-width="1.05" points="167.27,-117.13 174.77,-114.5 167.27,-111.88 167.27,-117.13"/>
</g>
<!-- gate -->
<g id="node3" class="node">
<title>gate</title>
<path fill="#d5edf7" stroke="#5b6b73" d="M494.75,-133.5C494.75,-133.5 410.5,-133.5 410.5,-133.5 404.5,-133.5 398.5,-127.5 398.5,-121.5 398.5,-121.5 398.5,-107.5 398.5,-107.5 398.5,-101.5 404.5,-95.5 410.5,-95.5 410.5,-95.5 494.75,-95.5 494.75,-95.5 500.75,-95.5 506.75,-101.5 506.75,-107.5 506.75,-107.5 506.75,-121.5 506.75,-121.5 506.75,-127.5 500.75,-133.5 494.75,-133.5"/>
<text xml:space="preserve" text-anchor="middle" x="452.62" y="-116.2" font-family="Helvetica,sans-Serif" font-size="14.00" fill="#233238">controlled entry</text>
<text xml:space="preserve" text-anchor="middle" x="452.62" y="-101.2" font-family="Helvetica,sans-Serif" font-size="14.00" fill="#233238">(syscall/trap)</text>
</g>
<!-- req&#45;&gt;gate -->
<g id="edge2" class="edge">
<title>req&#45;&gt;gate</title>
<path fill="none" stroke="#5b6b73" stroke-width="1.05" d="M343.85,-114.5C359.07,-114.5 374.72,-114.5 389.21,-114.5"/>
<polygon fill="#5b6b73" stroke="#5b6b73" stroke-width="1.05" points="388.99,-117.13 396.49,-114.5 388.99,-111.88 388.99,-117.13"/>
</g>
<!-- id -->
<g id="node4" class="node">
<title>id</title>
<path fill="#ddeaf1" stroke="#5b6b73" d="M689.5,-133.5C689.5,-133.5 573.75,-133.5 573.75,-133.5 567.75,-133.5 561.75,-127.5 561.75,-121.5 561.75,-121.5 561.75,-107.5 561.75,-107.5 561.75,-101.5 567.75,-95.5 573.75,-95.5 573.75,-95.5 689.5,-95.5 689.5,-95.5 695.5,-95.5 701.5,-101.5 701.5,-107.5 701.5,-107.5 701.5,-121.5 701.5,-121.5 701.5,-127.5 695.5,-133.5 689.5,-133.5"/>
<text xml:space="preserve" text-anchor="middle" x="631.62" y="-116.2" font-family="Helvetica,sans-Serif" font-size="14.00" fill="#233238">identity + credentials</text>
<text xml:space="preserve" text-anchor="middle" x="631.62" y="-101.2" font-family="Helvetica,sans-Serif" font-size="14.00" fill="#233238">(UID/GID, caps)</text>
</g>
<!-- gate&#45;&gt;id -->
<g id="edge3" class="edge">
<title>gate&#45;&gt;id</title>
<path fill="none" stroke="#5b6b73" stroke-width="1.05" d="M507.21,-114.5C521.5,-114.5 537.24,-114.5 552.55,-114.5"/>
<polygon fill="#5b6b73" stroke="#5b6b73" stroke-width="1.05" points="552.41,-117.13 559.91,-114.5 552.41,-111.88 552.41,-117.13"/>
</g>
<!-- pol -->
<g id="node5" class="node">
<title>pol</title>
<path fill="#ddeaf1" stroke="#5b6b73" d="M876,-141C876,-141 768.5,-141 768.5,-141 762.5,-141 756.5,-135 756.5,-129 756.5,-129 756.5,-100 756.5,-100 756.5,-94 762.5,-88 768.5,-88 768.5,-88 876,-88 876,-88 882,-88 888,-94 888,-100 888,-100 888,-129 888,-129 888,-135 882,-141 876,-141"/>
<text xml:space="preserve" text-anchor="middle" x="822.25" y="-123.7" font-family="Helvetica,sans-Serif" font-size="14.00" fill="#233238">policy lookup</text>
<text xml:space="preserve" text-anchor="middle" x="822.25" y="-108.7" font-family="Helvetica,sans-Serif" font-size="14.00" fill="#233238">(ACLs, capabilities,</text>
<text xml:space="preserve" text-anchor="middle" x="822.25" y="-93.7" font-family="Helvetica,sans-Serif" font-size="14.00" fill="#233238">mandatory rules)</text>
</g>
<!-- id&#45;&gt;pol -->
<g id="edge4" class="edge">
<title>id&#45;&gt;pol</title>
<path fill="none" stroke="#5b6b73" stroke-width="1.05" d="M701.79,-114.5C716.64,-114.5 732.4,-114.5 747.42,-114.5"/>
<polygon fill="#5b6b73" stroke="#5b6b73" stroke-width="1.05" points="747.08,-117.13 754.58,-114.5 747.08,-111.88 747.08,-117.13"/>
</g>
<!-- med -->
<g id="node6" class="node">
<title>med</title>
<path fill="#bfe2f1" stroke="#5b6b73" d="M1088,-133.5C1088,-133.5 955,-133.5 955,-133.5 949,-133.5 943,-127.5 943,-121.5 943,-121.5 943,-107.5 943,-107.5 943,-101.5 949,-95.5 955,-95.5 955,-95.5 1088,-95.5 1088,-95.5 1094,-95.5 1100,-101.5 1100,-107.5 1100,-107.5 1100,-121.5 1100,-121.5 1100,-127.5 1094,-133.5 1088,-133.5"/>
<text xml:space="preserve" text-anchor="middle" x="1021.5" y="-116.2" font-family="Helvetica,sans-Serif" font-size="14.00" fill="#233238">complete mediation</text>
<text xml:space="preserve" text-anchor="middle" x="1021.5" y="-101.2" font-family="Helvetica,sans-Serif" font-size="14.00" fill="#233238">(check at commit point)</text>
</g>
<!-- pol&#45;&gt;med -->
<g id="edge5" class="edge">
<title>pol&#45;&gt;med</title>
<path fill="none" stroke="#5b6b73" stroke-width="1.05" d="M888.38,-114.5C902.92,-114.5 918.57,-114.5 933.82,-114.5"/>
<polygon fill="#5b6b73" stroke="#5b6b73" stroke-width="1.05" points="933.66,-117.13 941.16,-114.5 933.66,-111.88 933.66,-117.13"/>
</g>
<!-- file -->
<g id="node7" class="node">
<title>file</title>
<path fill="#f5f5f5" stroke="#5b6b73" d="M1368.38,-273.5C1368.38,-273.5 1296.12,-273.5 1296.12,-273.5 1290.12,-273.5 1284.12,-267.5 1284.12,-261.5 1284.12,-261.5 1284.12,-249.5 1284.12,-249.5 1284.12,-243.5 1290.12,-237.5 1296.12,-237.5 1296.12,-237.5 1368.38,-237.5 1368.38,-237.5 1374.38,-237.5 1380.38,-243.5 1380.38,-249.5 1380.38,-249.5 1380.38,-261.5 1380.38,-261.5 1380.38,-267.5 1374.38,-273.5 1368.38,-273.5"/>
<text xml:space="preserve" text-anchor="middle" x="1332.25" y="-249.7" font-family="Helvetica,sans-Serif" font-size="14.00" fill="#233238">file / directory</text>
</g>
<!-- med&#45;&gt;file -->
<g id="edge6" class="edge">
<title>med&#45;&gt;file</title>
<path fill="none" stroke="#5b6b73" stroke-width="1.05" d="M1048.54,-133.91C1069.09,-148.6 1098.88,-168.56 1127,-182.5 1175.2,-206.38 1233.2,-226.34 1275.06,-239.32"/>
<polygon fill="#5b6b73" stroke="#5b6b73" stroke-width="1.05" points="1274.28,-241.82 1282.22,-241.51 1275.82,-236.81 1274.28,-241.82"/>
<text xml:space="preserve" text-anchor="middle" x="1175" y="-222.8" font-family="Helvetica,sans-Serif" font-size="14.00">allow &#45;&gt; commit</text>
</g>
<!-- mem -->
<g id="node8" class="node">
<title>mem</title>
<path fill="#f5f5f5" stroke="#5b6b73" d="M1386,-201.5C1386,-201.5 1278.5,-201.5 1278.5,-201.5 1272.5,-201.5 1266.5,-195.5 1266.5,-189.5 1266.5,-189.5 1266.5,-175.5 1266.5,-175.5 1266.5,-169.5 1272.5,-163.5 1278.5,-163.5 1278.5,-163.5 1386,-163.5 1386,-163.5 1392,-163.5 1398,-169.5 1398,-175.5 1398,-175.5 1398,-189.5 1398,-189.5 1398,-195.5 1392,-201.5 1386,-201.5"/>
<text xml:space="preserve" text-anchor="middle" x="1332.25" y="-184.2" font-family="Helvetica,sans-Serif" font-size="14.00" fill="#233238">memory mapping</text>
<text xml:space="preserve" text-anchor="middle" x="1332.25" y="-169.2" font-family="Helvetica,sans-Serif" font-size="14.00" fill="#233238">(page permissions)</text>
</g>
<!-- med&#45;&gt;mem -->
<g id="edge7" class="edge">
<title>med&#45;&gt;mem</title>
<path fill="none" stroke="#5b6b73" stroke-width="1.05" d="M1100.41,-131.66C1148.59,-142.27 1210.07,-155.81 1257.46,-166.25"/>
<polygon fill="#5b6b73" stroke="#5b6b73" stroke-width="1.05" points="1256.7,-168.77 1264.59,-167.82 1257.83,-163.64 1256.7,-168.77"/>
<text xml:space="preserve" text-anchor="middle" x="1175" y="-160.26" font-family="Helvetica,sans-Serif" font-size="14.00">allow &#45;&gt; commit</text>
</g>
<!-- dev -->
<g id="node9" class="node">
<title>dev</title>
<path fill="#f5f5f5" stroke="#5b6b73" d="M1370.25,-127.5C1370.25,-127.5 1294.25,-127.5 1294.25,-127.5 1288.25,-127.5 1282.25,-121.5 1282.25,-115.5 1282.25,-115.5 1282.25,-101.5 1282.25,-101.5 1282.25,-95.5 1288.25,-89.5 1294.25,-89.5 1294.25,-89.5 1370.25,-89.5 1370.25,-89.5 1376.25,-89.5 1382.25,-95.5 1382.25,-101.5 1382.25,-101.5 1382.25,-115.5 1382.25,-115.5 1382.25,-121.5 1376.25,-127.5 1370.25,-127.5"/>
<text xml:space="preserve" text-anchor="middle" x="1332.25" y="-110.2" font-family="Helvetica,sans-Serif" font-size="14.00" fill="#233238">device / driver</text>
<text xml:space="preserve" text-anchor="middle" x="1332.25" y="-95.2" font-family="Helvetica,sans-Serif" font-size="14.00" fill="#233238">(I/O control)</text>
</g>
<!-- med&#45;&gt;dev -->
<g id="edge8" class="edge">
<title>med&#45;&gt;dev</title>
<path fill="none" stroke="#5b6b73" stroke-width="1.05" d="M1100.41,-112.99C1154.06,-111.94 1224.19,-110.58 1273.01,-109.63"/>
<polygon fill="#5b6b73" stroke="#5b6b73" stroke-width="1.05" points="1272.83,-112.26 1280.28,-109.49 1272.73,-107.01 1272.83,-112.26"/>
<text xml:space="preserve" text-anchor="middle" x="1175" y="-114.09" font-family="Helvetica,sans-Serif" font-size="14.00">allow &#45;&gt; commit</text>
</g>
<!-- deny -->
<g id="node10" class="node">
<title>deny</title>
<polygon fill="#ffffff" stroke="#9aa7ae" points="1408.5,-53 1250,-53 1250,0 1414.5,0 1414.5,-47 1408.5,-53"/>
<polyline fill="none" stroke="#9aa7ae" points="1408.5,-53 1408.5,-47"/>
<polyline fill="none" stroke="#9aa7ae" points="1414.5,-47 1408.5,-47"/>
<text xml:space="preserve" text-anchor="middle" x="1332.25" y="-35.7" font-family="Helvetica,sans-Serif" font-size="14.00" fill="#233238">deny &#45;&gt; controlled failure</text>
<text xml:space="preserve" text-anchor="middle" x="1332.25" y="-20.7" font-family="Helvetica,sans-Serif" font-size="14.00" fill="#233238">(error, signal)</text>
<text xml:space="preserve" text-anchor="middle" x="1332.25" y="-5.7" font-family="Helvetica,sans-Serif" font-size="14.00" fill="#233238">(invariant preserved)</text>
</g>
<!-- med&#45;&gt;deny -->
<g id="edge9" class="edge">
<title>med&#45;&gt;deny</title>
<path fill="none" stroke="#8b3a3a" stroke-width="1.05" stroke-dasharray="5,2" d="M1090.64,-95.08C1134.87,-82.47 1193,-65.91 1241.04,-52.21"/>
<polygon fill="#8b3a3a" stroke="#8b3a3a" stroke-width="1.05" points="1241.56,-54.79 1248.05,-50.21 1240.12,-49.74 1241.56,-54.79"/>
</g>
</g>
</svg>
