<?xml version="1.0" encoding="UTF-8" standalone="no"?>
<!DOCTYPE svg PUBLIC "-//W3C//DTD SVG 1.1//EN"
 "http://www.w3.org/Graphics/SVG/1.1/DTD/svg11.dtd">
<!-- Generated by graphviz version 14.1.3 (20260303.0454)
 -->
<!-- Title: G Pages: 1 -->
<svg width="458pt" height="509pt"
 viewBox="0.00 0.00 458.00 509.00" xmlns="http://www.w3.org/2000/svg" xmlns:xlink="http://www.w3.org/1999/xlink">
<g id="graph0" class="graph" transform="scale(1 1) rotate(0) translate(18 490.5)">
<title>G</title>
<polygon fill="white" stroke="none" points="-18,18 -18,-490.5 439.88,-490.5 439.88,18 -18,18"/>
<g id="clust1" class="cluster">
<title>cluster_os</title>
<path fill="#eaf6fb" stroke="#9ec9da" d="M86.75,-67C86.75,-67 367.75,-67 367.75,-67 373.75,-67 379.75,-73 379.75,-79 379.75,-79 379.75,-286 379.75,-286 379.75,-292 373.75,-298 367.75,-298 367.75,-298 86.75,-298 86.75,-298 80.75,-298 74.75,-292 74.75,-286 74.75,-286 74.75,-79 74.75,-79 74.75,-73 80.75,-67 86.75,-67"/>
<text xml:space="preserve" text-anchor="middle" x="227.25" y="-280.7" font-family="Times,serif" font-size="14.00">operating system in the broad sense</text>
</g>
<g id="clust2" class="cluster">
<title>cluster_kernel</title>
<path fill="white" stroke="#7cb6cc" d="M94.75,-75C94.75,-75 284.75,-75 284.75,-75 290.75,-75 296.75,-81 296.75,-87 296.75,-87 296.75,-156.5 296.75,-156.5 296.75,-162.5 290.75,-168.5 284.75,-168.5 284.75,-168.5 94.75,-168.5 94.75,-168.5 88.75,-168.5 82.75,-162.5 82.75,-156.5 82.75,-156.5 82.75,-87 82.75,-87 82.75,-81 88.75,-75 94.75,-75"/>
<text xml:space="preserve" text-anchor="middle" x="189.75" y="-151.2" font-family="Times,serif" font-size="14.00">kernel</text>
</g>
<!-- users -->
<g id="node1" class="node">
<title>users</title>
<ellipse fill="#c9e7f4" stroke="#5b6b73" cx="118.75" cy="-454.5" rx="31.85" ry="18"/>
<text xml:space="preserve" text-anchor="middle" x="118.75" y="-448.7" font-family="Helvetica,sans-Serif" font-size="14.00" fill="#233238">users</text>
</g>
<!-- apps -->
<g id="node2" class="node">
<title>apps</title>
<path fill="#e6f3f9" stroke="#5b6b73" d="M177.75,-388C177.75,-388 59.75,-388 59.75,-388 53.75,-388 47.75,-382 47.75,-376 47.75,-376 47.75,-362 47.75,-362 47.75,-356 53.75,-350 59.75,-350 59.75,-350 177.75,-350 177.75,-350 183.75,-350 189.75,-356 189.75,-362 189.75,-362 189.75,-376 189.75,-376 189.75,-382 183.75,-388 177.75,-388"/>
<text xml:space="preserve" text-anchor="middle" x="118.75" y="-370.7" font-family="Helvetica,sans-Serif" font-size="14.00" fill="#233238">application programs</text>
<text xml:space="preserve" text-anchor="middle" x="118.75" y="-355.7" font-family="Helvetica,sans-Serif" font-size="14.00" fill="#233238">solve user tasks</text>
</g>
<!-- users&#45;&gt;apps -->
<g id="edge1" class="edge">
<title>users&#45;&gt;apps</title>
<path fill="none" stroke="#5b6b73" stroke-width="1.05" d="M118.75,-436.2C118.75,-424.97 118.75,-410.11 118.75,-397.31"/>
<polygon fill="#5b6b73" stroke="#5b6b73" stroke-width="1.05" points="121.38,-397.53 118.75,-390.03 116.13,-397.53 121.38,-397.53"/>
</g>
<!-- sys -->
<g id="node5" class="node">
<title>sys</title>
<path fill="#ddeaf1" stroke="#5b6b73" d="M359.38,-265.5C359.38,-265.5 248.12,-265.5 248.12,-265.5 242.12,-265.5 236.12,-259.5 236.12,-253.5 236.12,-253.5 236.12,-209.5 236.12,-209.5 236.12,-203.5 242.12,-197.5 248.12,-197.5 248.12,-197.5 359.38,-197.5 359.38,-197.5 365.38,-197.5 371.38,-203.5 371.38,-209.5 371.38,-209.5 371.38,-253.5 371.38,-253.5 371.38,-259.5 365.38,-265.5 359.38,-265.5"/>
<text xml:space="preserve" text-anchor="middle" x="303.75" y="-248.2" font-family="Helvetica,sans-Serif" font-size="14.00" fill="#233238">system programs</text>
<text xml:space="preserve" text-anchor="middle" x="303.75" y="-233.2" font-family="Helvetica,sans-Serif" font-size="14.00" fill="#233238">shells, loaders,</text>
<text xml:space="preserve" text-anchor="middle" x="303.75" y="-218.2" font-family="Helvetica,sans-Serif" font-size="14.00" fill="#233238">file tools, compilers,</text>
<text xml:space="preserve" text-anchor="middle" x="303.75" y="-203.2" font-family="Helvetica,sans-Serif" font-size="14.00" fill="#233238">daemons</text>
</g>
<!-- apps&#45;&gt;sys -->
<g id="edge2" class="edge">
<title>apps&#45;&gt;sys</title>
<path fill="none" stroke="#5b6b73" stroke-width="1.05" stroke-dasharray="5,2" d="M145.55,-349.61C175.77,-328.87 220.75,-298 220.75,-298 220.75,-298 236.95,-285.21 255.04,-270.94"/>
<polygon fill="#5b6b73" stroke="#5b6b73" stroke-width="1.05" points="256.25,-273.33 260.52,-266.62 253,-269.2 256.25,-273.33"/>
<text xml:space="preserve" text-anchor="middle" x="256.86" y="-309.2" font-family="Times,serif" font-size="14.00">uses support tools</text>
</g>
<!-- mid -->
<g id="node6" class="node">
<title>mid</title>
<path fill="#d5edf7" stroke="#5b6b73" d="M192.25,-258C192.25,-258 95.25,-258 95.25,-258 89.25,-258 83.25,-252 83.25,-246 83.25,-246 83.25,-217 83.25,-217 83.25,-211 89.25,-205 95.25,-205 95.25,-205 192.25,-205 192.25,-205 198.25,-205 204.25,-211 204.25,-217 204.25,-217 204.25,-246 204.25,-246 204.25,-252 198.25,-258 192.25,-258"/>
<text xml:space="preserve" text-anchor="middle" x="143.75" y="-240.7" font-family="Helvetica,sans-Serif" font-size="14.00" fill="#233238">middleware</text>
<text xml:space="preserve" text-anchor="middle" x="143.75" y="-225.7" font-family="Helvetica,sans-Serif" font-size="14.00" fill="#233238">reusable services</text>
<text xml:space="preserve" text-anchor="middle" x="143.75" y="-210.7" font-family="Helvetica,sans-Serif" font-size="14.00" fill="#233238">and frameworks</text>
</g>
<!-- apps&#45;&gt;mid -->
<g id="edge3" class="edge">
<title>apps&#45;&gt;mid</title>
<path fill="none" stroke="#5b6b73" stroke-width="1.05" stroke-dasharray="5,2" d="M117.45,-349.76C116.54,-337.1 115.5,-322.5 115.5,-322.5 115.5,-322.5 115.5,-306 115.5,-306 115.5,-306 123.26,-285.82 130.64,-266.6"/>
<polygon fill="#5b6b73" stroke="#5b6b73" stroke-width="1.05" points="133.06,-267.63 133.3,-259.69 128.16,-265.75 133.06,-267.63"/>
<text xml:space="preserve" text-anchor="middle" x="142.12" y="-309.2" font-family="Times,serif" font-size="14.00">uses APIs</text>
</g>
<!-- kern -->
<g id="node7" class="node">
<title>kern</title>
<path fill="#bfe2f1" stroke="#5b6b73" d="M276.88,-136C276.88,-136 102.63,-136 102.63,-136 96.62,-136 90.63,-130 90.63,-124 90.63,-124 90.63,-95 90.63,-95 90.63,-89 96.63,-83 102.63,-83 102.63,-83 276.88,-83 276.88,-83 282.88,-83 288.88,-89 288.88,-95 288.88,-95 288.88,-124 288.88,-124 288.88,-130 282.88,-136 276.88,-136"/>
<text xml:space="preserve" text-anchor="middle" x="189.75" y="-118.7" font-family="Helvetica,sans-Serif" font-size="14.00" fill="#233238">privileged always&#45;running core</text>
<text xml:space="preserve" text-anchor="middle" x="189.75" y="-103.7" font-family="Helvetica,sans-Serif" font-size="14.00" fill="#233238">scheduling, protection,</text>
<text xml:space="preserve" text-anchor="middle" x="189.75" y="-88.7" font-family="Helvetica,sans-Serif" font-size="14.00" fill="#233238">memory, device control</text>
</g>
<!-- apps&#45;&gt;kern -->
<g id="edge4" class="edge">
<title>apps&#45;&gt;kern</title>
<path fill="none" stroke="#5b6b73" stroke-width="1.05" d="M87.55,-349.61C52.37,-328.87 0,-298 0,-298 0,-298 0,-197.5 0,-197.5 0,-197.5 70.1,-165.36 125.08,-140.15"/>
<polygon fill="#5b6b73" stroke="#5b6b73" stroke-width="1.05" points="125.91,-142.66 131.63,-137.15 123.72,-137.89 125.91,-142.66"/>
<text xml:space="preserve" text-anchor="middle" x="33.38" y="-226.45" font-family="Times,serif" font-size="14.00">system calls</text>
</g>
<!-- hw -->
<g id="node3" class="node">
<title>hw</title>
<path fill="#d9d9d9" stroke="#5b6b73" d="M255.12,-38C255.12,-38 124.38,-38 124.38,-38 118.38,-38 112.38,-32 112.38,-26 112.38,-26 112.38,-12 112.38,-12 112.38,-6 118.38,0 124.38,0 124.38,0 255.12,0 255.12,0 261.12,0 267.12,-6 267.12,-12 267.12,-12 267.12,-26 267.12,-26 267.12,-32 261.12,-38 255.12,-38"/>
<text xml:space="preserve" text-anchor="middle" x="189.75" y="-20.7" font-family="Helvetica,sans-Serif" font-size="14.00" fill="#233238">hardware</text>
<text xml:space="preserve" text-anchor="middle" x="189.75" y="-5.7" font-family="Helvetica,sans-Serif" font-size="14.00" fill="#233238">CPU, memory, devices</text>
</g>
<!-- note -->
<g id="node4" class="node">
<title>note</title>
<polygon fill="#f5f5f5" stroke="#5b6b73" points="415.88,-395.5 235.62,-395.5 235.62,-342.5 421.88,-342.5 421.88,-389.5 415.88,-395.5"/>
<polyline fill="none" stroke="#5b6b73" points="415.88,-395.5 415.88,-389.5"/>
<polyline fill="none" stroke="#5b6b73" points="421.88,-389.5 415.88,-389.5"/>
<text xml:space="preserve" text-anchor="middle" x="328.75" y="-378.2" font-family="Helvetica,sans-Serif" font-size="14.00" fill="#233238">OS boundary is broader</text>
<text xml:space="preserve" text-anchor="middle" x="328.75" y="-363.2" font-family="Helvetica,sans-Serif" font-size="14.00" fill="#233238">than the kernel and can vary</text>
<text xml:space="preserve" text-anchor="middle" x="328.75" y="-348.2" font-family="Helvetica,sans-Serif" font-size="14.00" fill="#233238">by system design</text>
</g>
<!-- note&#45;&gt;sys -->
<g id="edge8" class="edge">
<title>note&#45;&gt;sys</title>
<path fill="none" stroke="#5b6b73" stroke-width="1.05" stroke-dasharray="1,5" d="M323.99,-342.19C319.99,-320.54 314.26,-289.46 309.91,-265.91"/>
</g>
<!-- sys&#45;&gt;kern -->
<g id="edge5" class="edge">
<title>sys&#45;&gt;kern</title>
<path fill="none" stroke="#5b6b73" stroke-width="1.05" d="M271.99,-197.07C255.83,-180.05 236.26,-159.46 220.27,-142.63"/>
<polygon fill="#5b6b73" stroke="#5b6b73" stroke-width="1.05" points="222.27,-140.92 215.2,-137.29 218.46,-144.54 222.27,-140.92"/>
</g>
<!-- mid&#45;&gt;kern -->
<g id="edge6" class="edge">
<title>mid&#45;&gt;kern</title>
<path fill="none" stroke="#5b6b73" stroke-width="1.05" d="M153.62,-204.76C160.35,-187.2 169.34,-163.76 176.66,-144.64"/>
<polygon fill="#5b6b73" stroke="#5b6b73" stroke-width="1.05" points="179.1,-145.63 179.33,-137.68 174.19,-143.75 179.1,-145.63"/>
</g>
<!-- kern&#45;&gt;hw -->
<g id="edge7" class="edge">
<title>kern&#45;&gt;hw</title>
<path fill="none" stroke="#5b6b73" stroke-width="1.05" d="M189.75,-82.9C189.75,-71.74 189.75,-58.63 189.75,-47.28"/>
<polygon fill="#5b6b73" stroke="#5b6b73" stroke-width="1.05" points="192.38,-47.33 189.75,-39.83 187.13,-47.33 192.38,-47.33"/>
</g>
</g>
</svg>
