<?xml version="1.0" encoding="UTF-8" standalone="no"?>
<!DOCTYPE svg PUBLIC "-//W3C//DTD SVG 1.1//EN"
 "http://www.w3.org/Graphics/SVG/1.1/DTD/svg11.dtd">
<!-- Generated by graphviz version 14.1.3 (20260303.0454)
 -->
<!-- Title: G Pages: 1 -->
<svg width="995pt" height="186pt"
 viewBox="0.00 0.00 995.00 186.00" xmlns="http://www.w3.org/2000/svg" xmlns:xlink="http://www.w3.org/1999/xlink">
<g id="graph0" class="graph" transform="scale(1 1) rotate(0) translate(14.4 171.4)">
<title>G</title>
<polygon fill="white" stroke="none" points="-14.4,14.4 -14.4,-171.4 980.15,-171.4 980.15,14.4 -14.4,14.4"/>
<!-- prot -->
<g id="node1" class="node">
<title>prot</title>
<polygon fill="#f5f5f5" stroke="none" points="1,-125 1,-156 148.25,-156 148.25,-125 1,-125"/>
<polygon fill="none" stroke="#5b6b73" points="1,-125 1,-156 148.25,-156 148.25,-125 1,-125"/>
<text xml:space="preserve" text-anchor="start" x="36.75" y="-135.7" font-family="Helvetica,sans-Serif" font-weight="bold" font-size="14.00">Component</text>
<polygon fill="#f5f5f5" stroke="none" points="148.25,-125 148.25,-156 468,-156 468,-125 148.25,-125"/>
<polygon fill="none" stroke="#5b6b73" points="148.25,-125 148.25,-156 468,-156 468,-125 148.25,-125"/>
<text xml:space="preserve" text-anchor="start" x="280.38" y="-135.7" font-family="Helvetica,sans-Serif" font-weight="bold" font-size="14.00">Meaning</text>
<polygon fill="#f5f5f5" stroke="none" points="468,-125 468,-156 964.75,-156 964.75,-125 468,-125"/>
<polygon fill="none" stroke="#5b6b73" points="468,-125 468,-156 964.75,-156 964.75,-125 468,-125"/>
<text xml:space="preserve" text-anchor="start" x="629.38" y="-135.7" font-family="Helvetica,sans-Serif" font-weight="bold" font-size="14.00">Rule enforced by hardware</text>
<polygon fill="#e6f3f9" stroke="none" points="1,-94 1,-125 148.25,-125 148.25,-94 1,-94"/>
<polygon fill="none" stroke="#5b6b73" points="1,-94 1,-125 148.25,-125 148.25,-94 1,-94"/>
<text xml:space="preserve" text-anchor="start" x="31.88" y="-104.7" font-family="Helvetica,sans-Serif" font-weight="bold" font-size="14.00">Base register</text>
<polygon fill="none" stroke="#5b6b73" points="148.25,-94 148.25,-125 468,-125 468,-94 148.25,-94"/>
<text xml:space="preserve" text-anchor="start" x="156.25" y="-105.75" font-family="Helvetica,sans-Serif" font-size="14.00">smallest physical address the process may access</text>
<polygon fill="none" stroke="#5b6b73" points="468,-63 468,-125 964.75,-125 964.75,-63 468,-63"/>
<text xml:space="preserve" text-anchor="start" x="476" y="-90.25" font-family="Helvetica,sans-Serif" font-size="14.00">on user&#45;mode memory reference: if `0 &lt;= v &lt; limit`, use `p = base + v`; else trap</text>
<polygon fill="#e6f3f9" stroke="none" points="1,-63 1,-94 148.25,-94 148.25,-63 1,-63"/>
<polygon fill="none" stroke="#5b6b73" points="1,-63 1,-94 148.25,-94 148.25,-63 1,-63"/>
<text xml:space="preserve" text-anchor="start" x="9" y="-73.7" font-family="Helvetica,sans-Serif" font-weight="bold" font-size="14.00">Limit/bound register</text>
<polygon fill="none" stroke="#5b6b73" points="148.25,-63 148.25,-94 468,-94 468,-63 148.25,-63"/>
<text xml:space="preserve" text-anchor="start" x="216.25" y="-74.75" font-family="Helvetica,sans-Serif" font-size="14.00">size of the legal address range</text>
<polygon fill="#e6f3f9" stroke="none" points="1,-32 1,-63 148.25,-63 148.25,-32 1,-32"/>
<polygon fill="none" stroke="#5b6b73" points="1,-32 1,-63 148.25,-63 148.25,-32 1,-32"/>
<text xml:space="preserve" text-anchor="start" x="22.12" y="-42.7" font-family="Helvetica,sans-Serif" font-weight="bold" font-size="14.00">Why privileged?</text>
<polygon fill="none" stroke="#5b6b73" points="148.25,-32 148.25,-63 964.75,-63 964.75,-32 148.25,-32"/>
<text xml:space="preserve" text-anchor="start" x="157.88" y="-43.75" font-family="Helvetica,sans-Serif" font-size="14.00">loading/changing base/limit must be a privileged action; otherwise a process can expand its own accessible range and break isolation</text>
<polygon fill="#e6f3f9" stroke="none" points="1,-1 1,-32 148.25,-32 148.25,-1 1,-1"/>
<polygon fill="none" stroke="#5b6b73" points="1,-1 1,-32 148.25,-32 148.25,-1 1,-1"/>
<text xml:space="preserve" text-anchor="start" x="33.38" y="-11.7" font-family="Helvetica,sans-Serif" font-weight="bold" font-size="14.00">Kernel mode</text>
<polygon fill="none" stroke="#5b6b73" points="148.25,-1 148.25,-32 964.75,-32 964.75,-1 148.25,-1"/>
<text xml:space="preserve" text-anchor="start" x="267.75" y="-12.75" font-family="Helvetica,sans-Serif" font-size="14.00">kernel must be able to access all memory to enforce policies, handle traps, and manage devices</text>
<polygon fill="none" stroke="#5b6b73" points="0,0 0,-157 965.75,-157 965.75,0 0,0"/>
</g>
</g>
</svg>
