<?xml version="1.0" encoding="UTF-8" standalone="no"?>
<!DOCTYPE svg PUBLIC "-//W3C//DTD SVG 1.1//EN"
 "http://www.w3.org/Graphics/SVG/1.1/DTD/svg11.dtd">
<!-- Generated by graphviz version 14.1.3 (20260303.0454)
 -->
<!-- Title: G Pages: 1 -->
<svg width="1473pt" height="72pt"
 viewBox="0.00 0.00 1473.00 72.00" xmlns="http://www.w3.org/2000/svg" xmlns:xlink="http://www.w3.org/1999/xlink">
<g id="graph0" class="graph" transform="scale(1 1) rotate(0) translate(18 54)">
<title>G</title>
<polygon fill="white" stroke="none" points="-18,18 -18,-54 1454.5,-54 1454.5,18 -18,18"/>
<!-- m31 -->
<g id="node1" class="node">
<title>m31</title>
<path fill="#bfe2f1" stroke="#5b6b73" d="M150.25,-36C150.25,-36 12,-36 12,-36 6,-36 0,-30 0,-24 0,-24 0,-12 0,-12 0,-6 6,0 12,0 12,0 150.25,0 150.25,0 156.25,0 162.25,-6 162.25,-12 162.25,-12 162.25,-24 162.25,-24 162.25,-30 156.25,-36 150.25,-36"/>
<text xml:space="preserve" text-anchor="middle" x="81.12" y="-12.2" font-family="Helvetica,sans-Serif" font-size="14.00" fill="#233238">3.1 boundary + authority</text>
</g>
<!-- m32 -->
<g id="node2" class="node">
<title>m32</title>
<path fill="#ddeaf1" stroke="#5b6b73" d="M350,-36C350,-36 228.25,-36 228.25,-36 222.25,-36 216.25,-30 216.25,-24 216.25,-24 216.25,-12 216.25,-12 216.25,-6 222.25,0 228.25,0 228.25,0 350,0 350,0 356,0 362,-6 362,-12 362,-12 362,-24 362,-24 362,-30 356,-36 350,-36"/>
<text xml:space="preserve" text-anchor="middle" x="289.12" y="-12.2" font-family="Helvetica,sans-Serif" font-size="14.00" fill="#233238">3.2 kernel entry paths</text>
</g>
<!-- m31&#45;&gt;m32 -->
<g id="edge1" class="edge">
<title>m31&#45;&gt;m32</title>
<path fill="none" stroke="#5b6b73" stroke-width="1.05" d="M162.66,-18C177.23,-18 192.44,-18 207.04,-18"/>
<polygon fill="#5b6b73" stroke="#5b6b73" stroke-width="1.05" points="206.94,-20.63 214.44,-18 206.94,-15.38 206.94,-20.63"/>
</g>
<!-- m33 -->
<g id="node3" class="node">
<title>m33</title>
<path fill="#e6f3f9" stroke="#5b6b73" d="M594,-36C594,-36 428,-36 428,-36 422,-36 416,-30 416,-24 416,-24 416,-12 416,-12 416,-6 422,0 428,0 428,0 594,0 594,0 600,0 606,-6 606,-12 606,-12 606,-24 606,-24 606,-30 600,-36 594,-36"/>
<text xml:space="preserve" text-anchor="middle" x="511" y="-12.2" font-family="Helvetica,sans-Serif" font-size="14.00" fill="#233238">3.3 processes + time sharing</text>
</g>
<!-- m32&#45;&gt;m33 -->
<g id="edge2" class="edge">
<title>m32&#45;&gt;m33</title>
<path fill="none" stroke="#5b6b73" stroke-width="1.05" d="M362.42,-18C376.65,-18 391.84,-18 406.86,-18"/>
<polygon fill="#5b6b73" stroke="#5b6b73" stroke-width="1.05" points="406.58,-20.63 414.08,-18 406.58,-15.38 406.58,-20.63"/>
</g>
<!-- m34 -->
<g id="node4" class="node">
<title>m34</title>
<path fill="#e6f3f9" stroke="#5b6b73" d="M786.25,-36C786.25,-36 672,-36 672,-36 666,-36 660,-30 660,-24 660,-24 660,-12 660,-12 660,-6 666,0 672,0 672,0 786.25,0 786.25,0 792.25,0 798.25,-6 798.25,-12 798.25,-12 798.25,-24 798.25,-24 798.25,-30 792.25,-36 786.25,-36"/>
<text xml:space="preserve" text-anchor="middle" x="729.12" y="-12.2" font-family="Helvetica,sans-Serif" font-size="14.00" fill="#233238">3.4 storage + copies</text>
</g>
<!-- m33&#45;&gt;m34 -->
<g id="edge3" class="edge">
<title>m33&#45;&gt;m34</title>
<path fill="none" stroke="#5b6b73" stroke-width="1.05" d="M606.48,-18C621.34,-18 636.55,-18 650.96,-18"/>
<polygon fill="#5b6b73" stroke="#5b6b73" stroke-width="1.05" points="650.73,-20.63 658.23,-18 650.73,-15.38 650.73,-20.63"/>
</g>
<!-- m35 -->
<g id="node5" class="node">
<title>m35</title>
<path fill="#e6f3f9" stroke="#5b6b73" d="M968.75,-36C968.75,-36 864.25,-36 864.25,-36 858.25,-36 852.25,-30 852.25,-24 852.25,-24 852.25,-12 852.25,-12 852.25,-6 858.25,0 864.25,0 864.25,0 968.75,0 968.75,0 974.75,0 980.75,-6 980.75,-12 980.75,-12 980.75,-24 980.75,-24 980.75,-30 974.75,-36 968.75,-36"/>
<text xml:space="preserve" text-anchor="middle" x="916.5" y="-12.2" font-family="Helvetica,sans-Serif" font-size="14.00" fill="#233238">3.5 scaling models</text>
</g>
<!-- m34&#45;&gt;m35 -->
<g id="edge4" class="edge">
<title>m34&#45;&gt;m35</title>
<path fill="none" stroke="#5b6b73" stroke-width="1.05" d="M798.63,-18C813.06,-18 828.34,-18 842.91,-18"/>
<polygon fill="#5b6b73" stroke="#5b6b73" stroke-width="1.05" points="842.8,-20.63 850.3,-18 842.8,-15.38 842.8,-20.63"/>
</g>
<!-- m36 -->
<g id="node6" class="node">
<title>m36</title>
<path fill="#ddeaf1" stroke="#5b6b73" d="M1188,-36C1188,-36 1046.75,-36 1046.75,-36 1040.75,-36 1034.75,-30 1034.75,-24 1034.75,-24 1034.75,-12 1034.75,-12 1034.75,-6 1040.75,0 1046.75,0 1046.75,0 1188,0 1188,0 1194,0 1200,-6 1200,-12 1200,-12 1200,-24 1200,-24 1200,-30 1194,-36 1188,-36"/>
<text xml:space="preserve" text-anchor="middle" x="1117.38" y="-12.2" font-family="Helvetica,sans-Serif" font-size="14.00" fill="#233238">3.6 protection vs security</text>
</g>
<!-- m35&#45;&gt;m36 -->
<g id="edge5" class="edge">
<title>m35&#45;&gt;m36</title>
<path fill="none" stroke="#5b6b73" stroke-width="1.05" d="M981.25,-18C995.4,-18 1010.66,-18 1025.66,-18"/>
<polygon fill="#5b6b73" stroke="#5b6b73" stroke-width="1.05" points="1025.36,-20.63 1032.86,-18 1025.36,-15.38 1025.36,-20.63"/>
</g>
<!-- m37 -->
<g id="node7" class="node">
<title>m37</title>
<path fill="#e6f3f9" stroke="#5b6b73" d="M1424.5,-36C1424.5,-36 1266,-36 1266,-36 1260,-36 1254,-30 1254,-24 1254,-24 1254,-12 1254,-12 1254,-6 1260,0 1266,0 1266,0 1424.5,0 1424.5,0 1430.5,0 1436.5,-6 1436.5,-12 1436.5,-12 1436.5,-24 1436.5,-24 1436.5,-30 1430.5,-36 1424.5,-36"/>
<text xml:space="preserve" text-anchor="middle" x="1345.25" y="-12.2" font-family="Helvetica,sans-Serif" font-size="14.00" fill="#233238">3.7 data structures &#45;&gt; policy</text>
</g>
<!-- m36&#45;&gt;m37 -->
<g id="edge6" class="edge">
<title>m36&#45;&gt;m37</title>
<path fill="none" stroke="#5b6b73" stroke-width="1.05" d="M1200.24,-18C1214.8,-18 1230.12,-18 1245.1,-18"/>
<polygon fill="#5b6b73" stroke="#5b6b73" stroke-width="1.05" points="1244.79,-20.63 1252.29,-18 1244.79,-15.38 1244.79,-20.63"/>
</g>
</g>
</svg>
