<?xml version="1.0" encoding="UTF-8" standalone="no"?>
<!DOCTYPE svg PUBLIC "-//W3C//DTD SVG 1.1//EN"
 "http://www.w3.org/Graphics/SVG/1.1/DTD/svg11.dtd">
<!-- Generated by graphviz version 14.1.3 (20260303.0454)
 -->
<!-- Title: G Pages: 1 -->
<svg width="539pt" height="662pt"
 viewBox="0.00 0.00 539.00 662.00" xmlns="http://www.w3.org/2000/svg" xmlns:xlink="http://www.w3.org/1999/xlink">
<g id="graph0" class="graph" transform="scale(1 1) rotate(0) translate(18 644)">
<title>G</title>
<polygon fill="white" stroke="none" points="-18,18 -18,-644 520.75,-644 520.75,18 -18,18"/>
<g id="clust1" class="cluster">
<title>cluster_good</title>
<path fill="#eaf6fb" stroke="#9ec9da" d="M60.38,-8C60.38,-8 227.12,-8 227.12,-8 233.12,-8 239.12,-14 239.12,-20 239.12,-20 239.12,-297 239.12,-297 239.12,-303 233.12,-309 227.12,-309 227.12,-309 60.38,-309 60.38,-309 54.38,-309 48.38,-303 48.38,-297 48.38,-297 48.38,-20 48.38,-20 48.38,-14 54.38,-8 60.38,-8"/>
<text xml:space="preserve" text-anchor="middle" x="143.75" y="-291.7" font-family="Times,serif" font-size="14.00">healthy hash table (keys spread)</text>
</g>
<g id="clust2" class="cluster">
<title>cluster_bad</title>
<path fill="#fdf0f0" stroke="#f0c2c2" d="M12,-317C12,-317 275.5,-317 275.5,-317 281.5,-317 287.5,-323 287.5,-329 287.5,-329 287.5,-606 287.5,-606 287.5,-612 281.5,-618 275.5,-618 275.5,-618 12,-618 12,-618 6,-618 0,-612 0,-606 0,-606 0,-329 0,-329 0,-323 6,-317 12,-317"/>
<text xml:space="preserve" text-anchor="middle" x="143.75" y="-600.7" font-family="Times,serif" font-size="14.00">pathological collisions (many keys in one bucket)</text>
</g>
<!-- b0 -->
<g id="node1" class="node">
<title>b0</title>
<path fill="#ddeaf1" stroke="#5b6b73" d="M164.75,-54C164.75,-54 121.75,-54 121.75,-54 115.75,-54 109.75,-48 109.75,-42 109.75,-42 109.75,-28 109.75,-28 109.75,-22 115.75,-16 121.75,-16 121.75,-16 164.75,-16 164.75,-16 170.75,-16 176.75,-22 176.75,-28 176.75,-28 176.75,-42 176.75,-42 176.75,-48 170.75,-54 164.75,-54"/>
<text xml:space="preserve" text-anchor="middle" x="143.25" y="-36.7" font-family="Helvetica,sans-Serif" font-size="14.00" fill="#233238">bucket 0</text>
<text xml:space="preserve" text-anchor="middle" x="143.25" y="-21.7" font-family="Helvetica,sans-Serif" font-size="14.00" fill="#233238">K1</text>
</g>
<!-- good -->
<g id="node9" class="node">
<title>good</title>
<polygon fill="#ffffff" stroke="#9aa7ae" points="496.38,-61.5 337.88,-61.5 337.88,-8.5 502.38,-8.5 502.38,-55.5 496.38,-61.5"/>
<polyline fill="none" stroke="#9aa7ae" points="496.38,-61.5 496.38,-55.5"/>
<polyline fill="none" stroke="#9aa7ae" points="502.38,-55.5 496.38,-55.5"/>
<text xml:space="preserve" text-anchor="middle" x="420.12" y="-44.2" font-family="Helvetica,sans-Serif" font-size="14.00" fill="#233238">expected: near O(1)</text>
<text xml:space="preserve" text-anchor="middle" x="420.12" y="-29.2" font-family="Helvetica,sans-Serif" font-size="14.00" fill="#233238">lookup touches a small</text>
<text xml:space="preserve" text-anchor="middle" x="420.12" y="-14.2" font-family="Helvetica,sans-Serif" font-size="14.00" fill="#233238">constant amount of state</text>
</g>
<!-- b0&#45;&gt;good -->
<g id="edge1" class="edge">
<title>b0&#45;&gt;good</title>
<path fill="none" stroke="#5b6b73" stroke-width="1.05" stroke-dasharray="1,5" d="M177.13,-35C216.53,-35 283.95,-35 337.64,-35"/>
</g>
<!-- b1 -->
<g id="node2" class="node">
<title>b1</title>
<path fill="#ddeaf1" stroke="#5b6b73" d="M164.75,-128C164.75,-128 121.75,-128 121.75,-128 115.75,-128 109.75,-122 109.75,-116 109.75,-116 109.75,-102 109.75,-102 109.75,-96 115.75,-90 121.75,-90 121.75,-90 164.75,-90 164.75,-90 170.75,-90 176.75,-96 176.75,-102 176.75,-102 176.75,-116 176.75,-116 176.75,-122 170.75,-128 164.75,-128"/>
<text xml:space="preserve" text-anchor="middle" x="143.25" y="-110.7" font-family="Helvetica,sans-Serif" font-size="14.00" fill="#233238">bucket 1</text>
<text xml:space="preserve" text-anchor="middle" x="143.25" y="-95.7" font-family="Helvetica,sans-Serif" font-size="14.00" fill="#233238">K2</text>
</g>
<!-- b2 -->
<g id="node3" class="node">
<title>b2</title>
<path fill="#ddeaf1" stroke="#5b6b73" d="M164.75,-202C164.75,-202 121.75,-202 121.75,-202 115.75,-202 109.75,-196 109.75,-190 109.75,-190 109.75,-176 109.75,-176 109.75,-170 115.75,-164 121.75,-164 121.75,-164 164.75,-164 164.75,-164 170.75,-164 176.75,-170 176.75,-176 176.75,-176 176.75,-190 176.75,-190 176.75,-196 170.75,-202 164.75,-202"/>
<text xml:space="preserve" text-anchor="middle" x="143.25" y="-184.7" font-family="Helvetica,sans-Serif" font-size="14.00" fill="#233238">bucket 2</text>
<text xml:space="preserve" text-anchor="middle" x="143.25" y="-169.7" font-family="Helvetica,sans-Serif" font-size="14.00" fill="#233238">K3</text>
</g>
<!-- b3 -->
<g id="node4" class="node">
<title>b3</title>
<path fill="#ddeaf1" stroke="#5b6b73" d="M164.75,-276C164.75,-276 121.75,-276 121.75,-276 115.75,-276 109.75,-270 109.75,-264 109.75,-264 109.75,-250 109.75,-250 109.75,-244 115.75,-238 121.75,-238 121.75,-238 164.75,-238 164.75,-238 170.75,-238 176.75,-244 176.75,-250 176.75,-250 176.75,-264 176.75,-264 176.75,-270 170.75,-276 164.75,-276"/>
<text xml:space="preserve" text-anchor="middle" x="143.25" y="-258.7" font-family="Helvetica,sans-Serif" font-size="14.00" fill="#233238">bucket 3</text>
<text xml:space="preserve" text-anchor="middle" x="143.25" y="-243.7" font-family="Helvetica,sans-Serif" font-size="14.00" fill="#233238">K4</text>
</g>
<!-- c0 -->
<g id="node5" class="node">
<title>c0</title>
<path fill="#f7e9c5" stroke="#5b6b73" d="M218.38,-363C218.38,-363 68.12,-363 68.12,-363 62.12,-363 56.12,-357 56.12,-351 56.12,-351 56.12,-337 56.12,-337 56.12,-331 62.12,-325 68.12,-325 68.12,-325 218.38,-325 218.38,-325 224.38,-325 230.38,-331 230.38,-337 230.38,-337 230.38,-351 230.38,-351 230.38,-357 224.38,-363 218.38,-363"/>
<text xml:space="preserve" text-anchor="middle" x="143.25" y="-345.7" font-family="Helvetica,sans-Serif" font-size="14.00" fill="#233238">bucket 0</text>
<text xml:space="preserve" text-anchor="middle" x="143.25" y="-330.7" font-family="Helvetica,sans-Serif" font-size="14.00" fill="#233238">K1 &#45;&gt; K2 &#45;&gt; K3 &#45;&gt; K4 &#45;&gt; ...</text>
</g>
<!-- bad -->
<g id="node10" class="node">
<title>bad</title>
<polygon fill="#ffffff" stroke="#9aa7ae" points="496.75,-370.5 337.5,-370.5 337.5,-317.5 502.75,-317.5 502.75,-364.5 496.75,-370.5"/>
<polyline fill="none" stroke="#9aa7ae" points="496.75,-370.5 496.75,-364.5"/>
<polyline fill="none" stroke="#9aa7ae" points="502.75,-364.5 496.75,-364.5"/>
<text xml:space="preserve" text-anchor="middle" x="420.12" y="-353.2" font-family="Helvetica,sans-Serif" font-size="14.00" fill="#233238">worst&#45;case: O(n)</text>
<text xml:space="preserve" text-anchor="middle" x="420.12" y="-338.2" font-family="Helvetica,sans-Serif" font-size="14.00" fill="#233238">lookup becomes scan</text>
<text xml:space="preserve" text-anchor="middle" x="420.12" y="-323.2" font-family="Helvetica,sans-Serif" font-size="14.00" fill="#233238">(latency spike / DoS risk)</text>
</g>
<!-- c0&#45;&gt;bad -->
<g id="edge2" class="edge">
<title>c0&#45;&gt;bad</title>
<path fill="none" stroke="#5b6b73" stroke-width="1.05" stroke-dasharray="1,5" d="M230.84,-344C264.84,-344 303.66,-344 337.18,-344"/>
</g>
<!-- c1 -->
<g id="node6" class="node">
<title>c1</title>
<path fill="#f5f5f5" stroke="#5b6b73" d="M164.75,-437C164.75,-437 121.75,-437 121.75,-437 115.75,-437 109.75,-431 109.75,-425 109.75,-425 109.75,-411 109.75,-411 109.75,-405 115.75,-399 121.75,-399 121.75,-399 164.75,-399 164.75,-399 170.75,-399 176.75,-405 176.75,-411 176.75,-411 176.75,-425 176.75,-425 176.75,-431 170.75,-437 164.75,-437"/>
<text xml:space="preserve" text-anchor="middle" x="143.25" y="-419.7" font-family="Helvetica,sans-Serif" font-size="14.00" fill="#233238">bucket 1</text>
<text xml:space="preserve" text-anchor="middle" x="143.25" y="-404.7" font-family="Helvetica,sans-Serif" font-size="14.00" fill="#233238">(empty)</text>
</g>
<!-- c2 -->
<g id="node7" class="node">
<title>c2</title>
<path fill="#f5f5f5" stroke="#5b6b73" d="M164.75,-511C164.75,-511 121.75,-511 121.75,-511 115.75,-511 109.75,-505 109.75,-499 109.75,-499 109.75,-485 109.75,-485 109.75,-479 115.75,-473 121.75,-473 121.75,-473 164.75,-473 164.75,-473 170.75,-473 176.75,-479 176.75,-485 176.75,-485 176.75,-499 176.75,-499 176.75,-505 170.75,-511 164.75,-511"/>
<text xml:space="preserve" text-anchor="middle" x="143.25" y="-493.7" font-family="Helvetica,sans-Serif" font-size="14.00" fill="#233238">bucket 2</text>
<text xml:space="preserve" text-anchor="middle" x="143.25" y="-478.7" font-family="Helvetica,sans-Serif" font-size="14.00" fill="#233238">(empty)</text>
</g>
<!-- c3 -->
<g id="node8" class="node">
<title>c3</title>
<path fill="#f5f5f5" stroke="#5b6b73" d="M164.75,-585C164.75,-585 121.75,-585 121.75,-585 115.75,-585 109.75,-579 109.75,-573 109.75,-573 109.75,-559 109.75,-559 109.75,-553 115.75,-547 121.75,-547 121.75,-547 164.75,-547 164.75,-547 170.75,-547 176.75,-553 176.75,-559 176.75,-559 176.75,-573 176.75,-573 176.75,-579 170.75,-585 164.75,-585"/>
<text xml:space="preserve" text-anchor="middle" x="143.25" y="-567.7" font-family="Helvetica,sans-Serif" font-size="14.00" fill="#233238">bucket 3</text>
<text xml:space="preserve" text-anchor="middle" x="143.25" y="-552.7" font-family="Helvetica,sans-Serif" font-size="14.00" fill="#233238">(empty)</text>
</g>
</g>
</svg>
