<?xml version="1.0" encoding="UTF-8" standalone="no"?>
<!DOCTYPE svg PUBLIC "-//W3C//DTD SVG 1.1//EN"
 "http://www.w3.org/Graphics/SVG/1.1/DTD/svg11.dtd">
<!-- Generated by graphviz version 14.1.3 (20260303.0454)
 -->
<!-- Title: G Pages: 1 -->
<svg width="319pt" height="361pt"
 viewBox="0.00 0.00 319.00 361.00" xmlns="http://www.w3.org/2000/svg" xmlns:xlink="http://www.w3.org/1999/xlink">
<g id="graph0" class="graph" transform="scale(1 1) rotate(0) translate(18 343)">
<title>G</title>
<polygon fill="white" stroke="none" points="-18,18 -18,-343 301,-343 301,18 -18,18"/>
<g id="clust1" class="cluster">
<title>cluster_native</title>
<path fill="white" stroke="#c7d7df" d="M90.5,-8C90.5,-8 193.5,-8 193.5,-8 199.5,-8 205.5,-14 205.5,-20 205.5,-20 205.5,-138 205.5,-138 205.5,-144 199.5,-150 193.5,-150 193.5,-150 90.5,-150 90.5,-150 84.5,-150 78.5,-144 78.5,-138 78.5,-138 78.5,-20 78.5,-20 78.5,-14 84.5,-8 90.5,-8"/>
<text xml:space="preserve" text-anchor="middle" x="142" y="-132.7" font-family="Times,serif" font-size="14.00">(a) Native execution</text>
</g>
<g id="clust2" class="cluster">
<title>cluster_vm</title>
<path fill="white" stroke="#c7d7df" d="M20,-158C20,-158 263,-158 263,-158 269,-158 275,-164 275,-170 275,-170 275,-305 275,-305 275,-311 269,-317 263,-317 263,-317 20,-317 20,-317 14,-317 8,-311 8,-305 8,-305 8,-170 8,-170 8,-164 14,-158 20,-158"/>
<text xml:space="preserve" text-anchor="middle" x="141.5" y="-299.7" font-family="Times,serif" font-size="14.00">(b) VMware style virtualization</text>
</g>
<!-- native -->
<g id="node1" class="node">
<title>native</title>
<polygon fill="#f5f5f5" stroke="none" points="101.75,-83.5 101.75,-116.5 181.25,-116.5 181.25,-83.5 101.75,-83.5"/>
<polygon fill="none" stroke="#5b6b73" points="101.75,-83.5 101.75,-116.5 181.25,-116.5 181.25,-83.5 101.75,-83.5"/>
<text xml:space="preserve" text-anchor="start" x="110.75" y="-96.25" font-family="Helvetica,sans-Serif" font-size="14.00" fill="#233238">processes</text>
<polygon fill="#bfe2f1" stroke="none" points="101.75,-50.5 101.75,-83.5 181.25,-83.5 181.25,-50.5 101.75,-50.5"/>
<polygon fill="none" stroke="#5b6b73" points="101.75,-50.5 101.75,-83.5 181.25,-83.5 181.25,-50.5 101.75,-50.5"/>
<text xml:space="preserve" text-anchor="start" x="123.12" y="-63.25" font-family="Helvetica,sans-Serif" font-size="14.00" fill="#233238">kernel</text>
<polygon fill="#d9d9d9" stroke="none" points="101.75,-17.5 101.75,-50.5 181.25,-50.5 181.25,-17.5 101.75,-17.5"/>
<polygon fill="none" stroke="#5b6b73" points="101.75,-17.5 101.75,-50.5 181.25,-50.5 181.25,-17.5 101.75,-17.5"/>
<text xml:space="preserve" text-anchor="start" x="113.38" y="-30.25" font-family="Helvetica,sans-Serif" font-size="14.00" fill="#233238">hardware</text>
<polygon fill="none" stroke="#5b6b73" points="100.75,-16.5 100.75,-117.5 182.25,-117.5 182.25,-16.5 100.75,-16.5"/>
</g>
<!-- vm -->
<g id="node2" class="node">
<title>vm</title>
<polygon fill="#f5f5f5" stroke="none" points="17,-254 17,-283 100,-283 100,-254 17,-254"/>
<polygon fill="none" stroke="#5b6b73" points="17,-254 17,-283 100,-283 100,-254 17,-254"/>
<text xml:space="preserve" text-anchor="start" x="27.75" y="-264.75" font-family="Helvetica,sans-Serif" font-size="14.00" fill="#233238">processes</text>
<polygon fill="#f5f5f5" stroke="none" points="100,-254 100,-283 183,-283 183,-254 100,-254"/>
<polygon fill="none" stroke="#5b6b73" points="100,-254 100,-283 183,-283 183,-254 100,-254"/>
<text xml:space="preserve" text-anchor="start" x="110.75" y="-264.75" font-family="Helvetica,sans-Serif" font-size="14.00" fill="#233238">processes</text>
<polygon fill="#f5f5f5" stroke="none" points="183,-254 183,-283 266,-283 266,-254 183,-254"/>
<polygon fill="none" stroke="#5b6b73" points="183,-254 183,-283 266,-283 266,-254 183,-254"/>
<text xml:space="preserve" text-anchor="start" x="193.75" y="-264.75" font-family="Helvetica,sans-Serif" font-size="14.00" fill="#233238">processes</text>
<polygon fill="#bfe2f1" stroke="none" points="17,-225 17,-254 100,-254 100,-225 17,-225"/>
<polygon fill="none" stroke="#5b6b73" points="17,-225 17,-254 100,-254 100,-225 17,-225"/>
<text xml:space="preserve" text-anchor="start" x="24" y="-235.75" font-family="Helvetica,sans-Serif" font-size="14.00" fill="#233238">kernel VM1</text>
<polygon fill="#bfe2f1" stroke="none" points="100,-225 100,-254 183,-254 183,-225 100,-225"/>
<polygon fill="none" stroke="#5b6b73" points="100,-225 100,-254 183,-254 183,-225 100,-225"/>
<text xml:space="preserve" text-anchor="start" x="107" y="-235.75" font-family="Helvetica,sans-Serif" font-size="14.00" fill="#233238">kernel VM2</text>
<polygon fill="#bfe2f1" stroke="none" points="183,-225 183,-254 266,-254 266,-225 183,-225"/>
<polygon fill="none" stroke="#5b6b73" points="183,-225 183,-254 266,-254 266,-225 183,-225"/>
<text xml:space="preserve" text-anchor="start" x="190" y="-235.75" font-family="Helvetica,sans-Serif" font-size="14.00" fill="#233238">kernel VM3</text>
<polygon fill="#ddeaf1" stroke="none" points="17,-196 17,-225 266,-225 266,-196 17,-196"/>
<polygon fill="none" stroke="#5b6b73" points="17,-196 17,-225 266,-225 266,-196 17,-196"/>
<text xml:space="preserve" text-anchor="start" x="66.88" y="-206.75" font-family="Helvetica,sans-Serif" font-size="14.00" fill="#233238">virtual machine manager</text>
<polygon fill="#d9d9d9" stroke="none" points="17,-167 17,-196 266,-196 266,-167 17,-167"/>
<polygon fill="none" stroke="#5b6b73" points="17,-167 17,-196 266,-196 266,-167 17,-167"/>
<text xml:space="preserve" text-anchor="start" x="113.38" y="-177.75" font-family="Helvetica,sans-Serif" font-size="14.00" fill="#233238">hardware</text>
<polygon fill="none" stroke="#5b6b73" points="16,-166 16,-284 267,-284 267,-166 16,-166"/>
</g>
</g>
</svg>
