<?xml version="1.0" encoding="UTF-8" standalone="no"?>
<!DOCTYPE svg PUBLIC "-//W3C//DTD SVG 1.1//EN"
 "http://www.w3.org/Graphics/SVG/1.1/DTD/svg11.dtd">
<!-- Generated by graphviz version 14.1.3 (20260303.0454)
 -->
<!-- Title: G Pages: 1 -->
<svg width="1115pt" height="229pt"
 viewBox="0.00 0.00 1115.00 229.00" xmlns="http://www.w3.org/2000/svg" xmlns:xlink="http://www.w3.org/1999/xlink">
<g id="graph0" class="graph" transform="scale(1 1) rotate(0) translate(18 210.5)">
<title>G</title>
<polygon fill="white" stroke="none" points="-18,18 -18,-210.5 1097.25,-210.5 1097.25,18 -18,18"/>
<text xml:space="preserve" text-anchor="middle" x="539.62" y="-175.2" font-family="Times,serif" font-size="14.00">Bridge into real kernels: read in control&#45;path order</text>
<!-- t1 -->
<g id="node1" class="node">
<title>t1</title>
<path fill="#bfe2f1" stroke="#5b6b73" d="M99.25,-168C99.25,-168 12,-168 12,-168 6,-168 0,-162 0,-156 0,-156 0,-142 0,-142 0,-136 6,-130 12,-130 12,-130 99.25,-130 99.25,-130 105.25,-130 111.25,-136 111.25,-142 111.25,-142 111.25,-156 111.25,-156 111.25,-162 105.25,-168 99.25,-168"/>
<text xml:space="preserve" text-anchor="middle" x="55.62" y="-150.7" font-family="Helvetica,sans-Serif" font-size="14.00" fill="#233238">1) trap + syscall</text>
<text xml:space="preserve" text-anchor="middle" x="55.62" y="-135.7" font-family="Helvetica,sans-Serif" font-size="14.00" fill="#233238">entry/exit</text>
</g>
<!-- t2 -->
<g id="node2" class="node">
<title>t2</title>
<path fill="#e6f3f9" stroke="#5b6b73" d="M368.62,-168C368.62,-168 206.38,-168 206.38,-168 200.38,-168 194.38,-162 194.38,-156 194.38,-156 194.38,-142 194.38,-142 194.38,-136 200.38,-130 206.38,-130 206.38,-130 368.62,-130 368.62,-130 374.62,-130 380.62,-136 380.62,-142 380.62,-142 380.62,-156 380.62,-156 380.62,-162 374.62,-168 368.62,-168"/>
<text xml:space="preserve" text-anchor="middle" x="287.5" y="-150.7" font-family="Helvetica,sans-Serif" font-size="14.00" fill="#233238">2) process table + scheduler</text>
<text xml:space="preserve" text-anchor="middle" x="287.5" y="-135.7" font-family="Helvetica,sans-Serif" font-size="14.00" fill="#233238">sleep/wakeup</text>
</g>
<!-- t1&#45;&gt;t2 -->
<g id="edge1" class="edge">
<title>t1&#45;&gt;t2</title>
<path fill="none" stroke="#5b6b73" stroke-width="1.05" d="M111.46,-149C111.46,-149 185.05,-149 185.05,-149"/>
<polygon fill="#5b6b73" stroke="#5b6b73" stroke-width="1.05" points="185.05,-151.63 192.55,-149 185.05,-146.38 185.05,-151.63"/>
</g>
<!-- t3 -->
<g id="node3" class="node">
<title>t3</title>
<path fill="#e6f3f9" stroke="#5b6b73" d="M593,-118C593,-118 475.75,-118 475.75,-118 469.75,-118 463.75,-112 463.75,-106 463.75,-106 463.75,-92 463.75,-92 463.75,-86 469.75,-80 475.75,-80 475.75,-80 593,-80 593,-80 599,-80 605,-86 605,-92 605,-92 605,-106 605,-106 605,-112 599,-118 593,-118"/>
<text xml:space="preserve" text-anchor="middle" x="534.38" y="-100.7" font-family="Helvetica,sans-Serif" font-size="14.00" fill="#233238">3) page tables +</text>
<text xml:space="preserve" text-anchor="middle" x="534.38" y="-85.7" font-family="Helvetica,sans-Serif" font-size="14.00" fill="#233238">address&#45;space setup</text>
</g>
<!-- t2&#45;&gt;t3 -->
<g id="edge2" class="edge">
<title>t2&#45;&gt;t3</title>
<path fill="none" stroke="#5b6b73" stroke-width="1.05" d="M380.79,-149C450.66,-149 534.25,-149 534.25,-149 534.25,-149 534.25,-127.56 534.25,-127.56"/>
<polygon fill="#5b6b73" stroke="#5b6b73" stroke-width="1.05" points="536.88,-127.56 534.25,-120.06 531.63,-127.56 536.88,-127.56"/>
</g>
<!-- t4 -->
<g id="node4" class="node">
<title>t4</title>
<path fill="#e6f3f9" stroke="#5b6b73" d="M838.75,-118C838.75,-118 675,-118 675,-118 669,-118 663,-112 663,-106 663,-106 663,-92 663,-92 663,-86 669,-80 675,-80 675,-80 838.75,-80 838.75,-80 844.75,-80 850.75,-86 850.75,-92 850.75,-92 850.75,-106 850.75,-106 850.75,-112 844.75,-118 838.75,-118"/>
<text xml:space="preserve" text-anchor="middle" x="756.88" y="-100.7" font-family="Helvetica,sans-Serif" font-size="14.00" fill="#233238">4) filesystem path</text>
<text xml:space="preserve" text-anchor="middle" x="756.88" y="-85.7" font-family="Helvetica,sans-Serif" font-size="14.00" fill="#233238">FD &#45;&gt; inode &#45;&gt; cache &#45;&gt; disk</text>
</g>
<!-- t3&#45;&gt;t4 -->
<g id="edge3" class="edge">
<title>t3&#45;&gt;t4</title>
<path fill="none" stroke="#5b6b73" stroke-width="1.05" d="M605.39,-99C605.39,-99 653.49,-99 653.49,-99"/>
<polygon fill="#5b6b73" stroke="#5b6b73" stroke-width="1.05" points="653.49,-101.63 660.99,-99 653.49,-96.38 653.49,-101.63"/>
</g>
<!-- t5 -->
<g id="node5" class="node">
<title>t5</title>
<path fill="#e6f3f9" stroke="#5b6b73" d="M1067.25,-118C1067.25,-118 920.75,-118 920.75,-118 914.75,-118 908.75,-112 908.75,-106 908.75,-106 908.75,-92 908.75,-92 908.75,-86 914.75,-80 920.75,-80 920.75,-80 1067.25,-80 1067.25,-80 1073.25,-80 1079.25,-86 1079.25,-92 1079.25,-92 1079.25,-106 1079.25,-106 1079.25,-112 1073.25,-118 1067.25,-118"/>
<text xml:space="preserve" text-anchor="middle" x="994" y="-100.7" font-family="Helvetica,sans-Serif" font-size="14.00" fill="#233238">5) interrupts + drivers</text>
<text xml:space="preserve" text-anchor="middle" x="994" y="-85.7" font-family="Helvetica,sans-Serif" font-size="14.00" fill="#233238">completion wakes waiters</text>
</g>
<!-- t4&#45;&gt;t5 -->
<g id="edge4" class="edge">
<title>t4&#45;&gt;t5</title>
<path fill="none" stroke="#5b6b73" stroke-width="1.05" d="M850.93,-99C850.93,-99 899.43,-99 899.43,-99"/>
<polygon fill="#5b6b73" stroke="#5b6b73" stroke-width="1.05" points="899.43,-101.63 906.93,-99 899.43,-96.38 899.43,-101.63"/>
</g>
<!-- note -->
<g id="node6" class="node">
<title>note</title>
<polygon fill="#eaf6fb" stroke="#9ec9da" points="399.75,-98 169.25,-98 169.25,0 405.75,0 405.75,-92 399.75,-98"/>
<polyline fill="none" stroke="#9ec9da" points="399.75,-98 399.75,-92"/>
<polyline fill="none" stroke="#9ec9da" points="405.75,-92 399.75,-92"/>
<text xml:space="preserve" text-anchor="middle" x="287.5" y="-80.7" font-family="Helvetica,sans-Serif" font-size="14.00" fill="#233238">Anchor questions:</text>
<text xml:space="preserve" text-anchor="middle" x="287.5" y="-65.7" font-family="Helvetica,sans-Serif" font-size="14.00" fill="#233238">&#45; where privileged entry happens</text>
<text xml:space="preserve" text-anchor="middle" x="287.5" y="-50.7" font-family="Helvetica,sans-Serif" font-size="14.00" fill="#233238">&#45; where runnable/blocked is encoded</text>
<text xml:space="preserve" text-anchor="middle" x="287.5" y="-35.7" font-family="Helvetica,sans-Serif" font-size="14.00" fill="#233238">&#45; where page&#45;table authority lives</text>
<text xml:space="preserve" text-anchor="middle" x="287.5" y="-20.7" font-family="Helvetica,sans-Serif" font-size="14.00" fill="#233238">&#45; where file names become blocks</text>
<text xml:space="preserve" text-anchor="middle" x="287.5" y="-5.7" font-family="Helvetica,sans-Serif" font-size="14.00" fill="#233238">&#45; where interrupts wake sleepers</text>
</g>
<!-- note&#45;&gt;t3 -->
<g id="edge5" class="edge">
<title>note&#45;&gt;t3</title>
<path fill="none" stroke="#5b6b73" stroke-width="1.05" stroke-dasharray="1,5" d="M406.24,-89C425.75,-89 445.43,-89 463.3,-89"/>
</g>
</g>
</svg>
