<?xml version="1.0" encoding="UTF-8" standalone="no"?>
<!DOCTYPE svg PUBLIC "-//W3C//DTD SVG 1.1//EN"
 "http://www.w3.org/Graphics/SVG/1.1/DTD/svg11.dtd">
<!-- Generated by graphviz version 14.1.3 (20260303.0454)
 -->
<!-- Title: G Pages: 1 -->
<svg width="534pt" height="404pt"
 viewBox="0.00 0.00 534.00 404.00" xmlns="http://www.w3.org/2000/svg" xmlns:xlink="http://www.w3.org/1999/xlink">
<g id="graph0" class="graph" transform="scale(1 1) rotate(0) translate(18 386)">
<title>G</title>
<polygon fill="white" stroke="none" points="-18,18 -18,-386 516.25,-386 516.25,18 -18,18"/>
<!-- single -->
<g id="node1" class="node">
<title>single</title>
<path fill="#e6f3f9" stroke="#5b6b73" d="M486.25,-253C486.25,-253 295.5,-253 295.5,-253 289.5,-253 283.5,-247 283.5,-241 283.5,-241 283.5,-227 283.5,-227 283.5,-221 289.5,-215 295.5,-215 295.5,-215 486.25,-215 486.25,-215 492.25,-215 498.25,-221 498.25,-227 498.25,-227 498.25,-241 498.25,-241 498.25,-247 492.25,-253 486.25,-253"/>
<text xml:space="preserve" text-anchor="middle" x="390.88" y="-235.7" font-family="Helvetica,sans-Serif" font-size="14.00" fill="#233238">single CPU</text>
<text xml:space="preserve" text-anchor="middle" x="390.88" y="-220.7" font-family="Helvetica,sans-Serif" font-size="14.00" fill="#233238">(one instruction stream at a time)</text>
</g>
<!-- smp -->
<g id="node2" class="node">
<title>smp</title>
<path fill="#e6f3f9" stroke="#5b6b73" d="M384.38,-138C384.38,-138 185.38,-138 185.38,-138 179.38,-138 173.38,-132 173.38,-126 173.38,-126 173.38,-112 173.38,-112 173.38,-106 179.38,-100 185.38,-100 185.38,-100 384.38,-100 384.38,-100 390.38,-100 396.38,-106 396.38,-112 396.38,-112 396.38,-126 396.38,-126 396.38,-132 390.38,-138 384.38,-138"/>
<text xml:space="preserve" text-anchor="middle" x="284.88" y="-120.7" font-family="Helvetica,sans-Serif" font-size="14.00" fill="#233238">SMP / shared memory</text>
<text xml:space="preserve" text-anchor="middle" x="284.88" y="-105.7" font-family="Helvetica,sans-Serif" font-size="14.00" fill="#233238">(many CPUs, one memory image)</text>
</g>
<!-- single&#45;&gt;smp -->
<g id="edge1" class="edge">
<title>single&#45;&gt;smp</title>
<path fill="none" stroke="#5b6b73" stroke-width="1.05" d="M373.61,-214.59C355.82,-195.63 327.99,-165.96 308.24,-144.91"/>
<polygon fill="#5b6b73" stroke="#5b6b73" stroke-width="1.05" points="310.27,-143.23 303.22,-139.56 306.44,-146.82 310.27,-143.23"/>
</g>
<!-- dist -->
<g id="node3" class="node">
<title>dist</title>
<path fill="#e6f3f9" stroke="#5b6b73" d="M267.12,-38C267.12,-38 84.63,-38 84.63,-38 78.62,-38 72.62,-32 72.62,-26 72.62,-26 72.62,-12 72.62,-12 72.62,-6 78.62,0 84.62,0 84.62,0 267.12,0 267.12,0 273.12,0 279.12,-6 279.12,-12 279.12,-12 279.12,-26 279.12,-26 279.12,-32 273.12,-38 267.12,-38"/>
<text xml:space="preserve" text-anchor="middle" x="175.88" y="-20.7" font-family="Helvetica,sans-Serif" font-size="14.00" fill="#233238">cluster / distributed</text>
<text xml:space="preserve" text-anchor="middle" x="175.88" y="-5.7" font-family="Helvetica,sans-Serif" font-size="14.00" fill="#233238">(many machines, network links)</text>
</g>
<!-- smp&#45;&gt;dist -->
<g id="edge2" class="edge">
<title>smp&#45;&gt;dist</title>
<path fill="none" stroke="#5b6b73" stroke-width="1.05" d="M264.37,-99.57C247.02,-83.96 222,-61.47 202.99,-44.38"/>
<polygon fill="#5b6b73" stroke="#5b6b73" stroke-width="1.05" points="204.8,-42.48 197.47,-39.41 201.29,-46.38 204.8,-42.48"/>
</g>
<!-- s1 -->
<g id="node4" class="node">
<title>s1</title>
<polygon fill="#eaf6fb" stroke="#9ec9da" points="459.62,-368 316.12,-368 316.12,-315 465.62,-315 465.62,-362 459.62,-368"/>
<polyline fill="none" stroke="#9ec9da" points="459.62,-368 459.62,-362"/>
<polyline fill="none" stroke="#9ec9da" points="465.62,-362 459.62,-362"/>
<text xml:space="preserve" text-anchor="middle" x="390.88" y="-350.7" font-family="Helvetica,sans-Serif" font-size="14.00" fill="#233238">Main challenge:</text>
<text xml:space="preserve" text-anchor="middle" x="390.88" y="-335.7" font-family="Helvetica,sans-Serif" font-size="14.00" fill="#233238">preemption + blocking</text>
<text xml:space="preserve" text-anchor="middle" x="390.88" y="-320.7" font-family="Helvetica,sans-Serif" font-size="14.00" fill="#233238">(timer + interrupts)</text>
</g>
<!-- s1&#45;&gt;single -->
<g id="edge3" class="edge">
<title>s1&#45;&gt;single</title>
<path fill="none" stroke="#5b6b73" stroke-width="1.05" stroke-dasharray="1,5" d="M390.88,-314.69C390.88,-295.66 390.88,-270.23 390.88,-253.27"/>
</g>
<!-- s2 -->
<g id="node5" class="node">
<title>s2</title>
<polygon fill="#eaf6fb" stroke="#9ec9da" points="237.62,-268 112.12,-268 112.12,-200 243.62,-200 243.62,-262 237.62,-268"/>
<polyline fill="none" stroke="#9ec9da" points="237.62,-268 237.62,-262"/>
<polyline fill="none" stroke="#9ec9da" points="243.62,-262 237.62,-262"/>
<text xml:space="preserve" text-anchor="middle" x="177.88" y="-250.7" font-family="Helvetica,sans-Serif" font-size="14.00" fill="#233238">New costs:</text>
<text xml:space="preserve" text-anchor="middle" x="177.88" y="-235.7" font-family="Helvetica,sans-Serif" font-size="14.00" fill="#233238">contention, races,</text>
<text xml:space="preserve" text-anchor="middle" x="177.88" y="-220.7" font-family="Helvetica,sans-Serif" font-size="14.00" fill="#233238">cache coherence,</text>
<text xml:space="preserve" text-anchor="middle" x="177.88" y="-205.7" font-family="Helvetica,sans-Serif" font-size="14.00" fill="#233238">memory bandwidth</text>
</g>
<!-- s2&#45;&gt;smp -->
<g id="edge4" class="edge">
<title>s2&#45;&gt;smp</title>
<path fill="none" stroke="#5b6b73" stroke-width="1.05" stroke-dasharray="1,5" d="M209.4,-199.71C228.39,-179.66 251.84,-154.88 267.52,-138.33"/>
</g>
<!-- s3 -->
<g id="node6" class="node">
<title>s3</title>
<polygon fill="#eaf6fb" stroke="#9ec9da" points="127.75,-153 0,-153 0,-85 133.75,-85 133.75,-147 127.75,-153"/>
<polyline fill="none" stroke="#9ec9da" points="127.75,-153 127.75,-147"/>
<polyline fill="none" stroke="#9ec9da" points="133.75,-147 127.75,-147"/>
<text xml:space="preserve" text-anchor="middle" x="66.88" y="-135.7" font-family="Helvetica,sans-Serif" font-size="14.00" fill="#233238">New failures:</text>
<text xml:space="preserve" text-anchor="middle" x="66.88" y="-120.7" font-family="Helvetica,sans-Serif" font-size="14.00" fill="#233238">partial failure,</text>
<text xml:space="preserve" text-anchor="middle" x="66.88" y="-105.7" font-family="Helvetica,sans-Serif" font-size="14.00" fill="#233238">timeouts, partitions,</text>
<text xml:space="preserve" text-anchor="middle" x="66.88" y="-90.7" font-family="Helvetica,sans-Serif" font-size="14.00" fill="#233238">inconsistent views</text>
</g>
<!-- s3&#45;&gt;dist -->
<g id="edge5" class="edge">
<title>s3&#45;&gt;dist</title>
<path fill="none" stroke="#5b6b73" stroke-width="1.05" stroke-dasharray="1,5" d="M104.08,-84.55C121.23,-69.13 140.92,-51.43 155.34,-38.46"/>
</g>
</g>
</svg>
