<?xml version="1.0" encoding="UTF-8" standalone="no"?>
<!DOCTYPE svg PUBLIC "-//W3C//DTD SVG 1.1//EN"
 "http://www.w3.org/Graphics/SVG/1.1/DTD/svg11.dtd">
<!-- Generated by graphviz version 14.1.3 (20260303.0454)
 -->
<!-- Title: G Pages: 1 -->
<svg width="680pt" height="845pt"
 viewBox="0.00 0.00 680.00 845.00" xmlns="http://www.w3.org/2000/svg" xmlns:xlink="http://www.w3.org/1999/xlink">
<g id="graph0" class="graph" transform="scale(1 1) rotate(0) translate(18 827)">
<title>G</title>
<polygon fill="white" stroke="none" points="-18,18 -18,-827 661.5,-827 661.5,18 -18,18"/>
<g id="clust1" class="cluster">
<title>cluster_singly</title>
<path fill="white" stroke="#c7d7df" d="M90.75,-8C90.75,-8 519.5,-8 519.5,-8 525.5,-8 531.5,-14 531.5,-20 531.5,-20 531.5,-73 531.5,-73 531.5,-79 525.5,-85 519.5,-85 519.5,-85 90.75,-85 90.75,-85 84.75,-85 78.75,-79 78.75,-73 78.75,-73 78.75,-20 78.75,-20 78.75,-14 84.75,-8 90.75,-8"/>
<text xml:space="preserve" text-anchor="middle" x="305.12" y="-67.7" font-family="Times,serif" font-size="14.00">Figure 1.13: Singly linked list</text>
</g>
<g id="clust2" class="cluster">
<title>cluster_doubly</title>
<path fill="white" stroke="#c7d7df" d="M90.75,-93C90.75,-93 623.5,-93 623.5,-93 629.5,-93 635.5,-99 635.5,-105 635.5,-105 635.5,-158 635.5,-158 635.5,-164 629.5,-170 623.5,-170 623.5,-170 90.75,-170 90.75,-170 84.75,-170 78.75,-164 78.75,-158 78.75,-158 78.75,-105 78.75,-105 78.75,-99 84.75,-93 90.75,-93"/>
<text xml:space="preserve" text-anchor="middle" x="357.12" y="-152.7" font-family="Times,serif" font-size="14.00">Figure 1.14: Doubly linked list</text>
</g>
<g id="clust3" class="cluster">
<title>cluster_circular</title>
<path fill="white" stroke="#c7d7df" d="M90.75,-178C90.75,-178 519.5,-178 519.5,-178 525.5,-178 531.5,-184 531.5,-190 531.5,-190 531.5,-270 531.5,-270 531.5,-276 525.5,-282 519.5,-282 519.5,-282 90.75,-282 90.75,-282 84.75,-282 78.75,-276 78.75,-270 78.75,-270 78.75,-190 78.75,-190 78.75,-184 84.75,-178 90.75,-178"/>
<text xml:space="preserve" text-anchor="middle" x="305.12" y="-264.7" font-family="Times,serif" font-size="14.00">Figure 1.15: Circularly linked list</text>
</g>
<g id="clust4" class="cluster">
<title>cluster_bst</title>
<path fill="white" stroke="#c7d7df" d="M97.6,-290C97.6,-290 512.65,-290 512.65,-290 518.65,-290 524.65,-296 524.65,-302 524.65,-302 524.65,-485 524.65,-485 524.65,-491 518.65,-497 512.65,-497 512.65,-497 97.6,-497 97.6,-497 91.6,-497 85.6,-491 85.6,-485 85.6,-485 85.6,-302 85.6,-302 85.6,-296 91.6,-290 97.6,-290"/>
<text xml:space="preserve" text-anchor="middle" x="305.12" y="-479.7" font-family="Times,serif" font-size="14.00">Figure 1.16: Binary search tree</text>
</g>
<g id="clust5" class="cluster">
<title>cluster_hash</title>
<path fill="white" stroke="#c7d7df" d="M33.75,-505C33.75,-505 193.75,-505 193.75,-505 199.75,-505 205.75,-511 205.75,-517 205.75,-517 205.75,-680 205.75,-680 205.75,-686 199.75,-692 193.75,-692 193.75,-692 33.75,-692 33.75,-692 27.75,-692 21.75,-686 21.75,-680 21.75,-680 21.75,-517 21.75,-517 21.75,-511 27.75,-505 33.75,-505"/>
<text xml:space="preserve" text-anchor="middle" x="113.75" y="-674.7" font-family="Times,serif" font-size="14.00">Figure 1.17: Hash map</text>
</g>
<g id="clust6" class="cluster">
<title>cluster_bitmap</title>
<path fill="white" stroke="#c7d7df" d="M20,-700C20,-700 207.5,-700 207.5,-700 213.5,-700 219.5,-706 219.5,-712 219.5,-712 219.5,-789 219.5,-789 219.5,-795 213.5,-801 207.5,-801 207.5,-801 20,-801 20,-801 14,-801 8,-795 8,-789 8,-789 8,-712 8,-712 8,-706 14,-700 20,-700"/>
<text xml:space="preserve" text-anchor="middle" x="113.75" y="-783.7" font-family="Times,serif" font-size="14.00">Supplement: Bitmap</text>
</g>
<!-- s1 -->
<g id="node1" class="node">
<title>s1</title>
<path fill="#e6f3f9" stroke="#5b6b73" d="M128.75,-52C128.75,-52 98.75,-52 98.75,-52 92.75,-52 86.75,-46 86.75,-40 86.75,-40 86.75,-28 86.75,-28 86.75,-22 92.75,-16 98.75,-16 98.75,-16 128.75,-16 128.75,-16 134.75,-16 140.75,-22 140.75,-28 140.75,-28 140.75,-40 140.75,-40 140.75,-46 134.75,-52 128.75,-52"/>
<text xml:space="preserve" text-anchor="middle" x="113.75" y="-28.2" font-family="Helvetica,sans-Serif" font-size="14.00" fill="#233238">data</text>
</g>
<!-- s2 -->
<g id="node2" class="node">
<title>s2</title>
<path fill="#e6f3f9" stroke="#5b6b73" d="M303.5,-52C303.5,-52 273.5,-52 273.5,-52 267.5,-52 261.5,-46 261.5,-40 261.5,-40 261.5,-28 261.5,-28 261.5,-22 267.5,-16 273.5,-16 273.5,-16 303.5,-16 303.5,-16 309.5,-16 315.5,-22 315.5,-28 315.5,-28 315.5,-40 315.5,-40 315.5,-46 309.5,-52 303.5,-52"/>
<text xml:space="preserve" text-anchor="middle" x="288.5" y="-28.2" font-family="Helvetica,sans-Serif" font-size="14.00" fill="#233238">data</text>
</g>
<!-- s1&#45;&gt;s2 -->
<g id="edge1" class="edge">
<title>s1&#45;&gt;s2</title>
<path fill="none" stroke="#5b6b73" stroke-width="1.05" d="M140.99,-34C170.67,-34 219.15,-34 252.15,-34"/>
<polygon fill="#5b6b73" stroke="#5b6b73" stroke-width="1.05" points="251.93,-36.63 259.43,-34 251.93,-31.38 251.93,-36.63"/>
</g>
<!-- s3 -->
<g id="node3" class="node">
<title>s3</title>
<path fill="#e6f3f9" stroke="#5b6b73" d="M407.5,-52C407.5,-52 377.5,-52 377.5,-52 371.5,-52 365.5,-46 365.5,-40 365.5,-40 365.5,-28 365.5,-28 365.5,-22 371.5,-16 377.5,-16 377.5,-16 407.5,-16 407.5,-16 413.5,-16 419.5,-22 419.5,-28 419.5,-28 419.5,-40 419.5,-40 419.5,-46 413.5,-52 407.5,-52"/>
<text xml:space="preserve" text-anchor="middle" x="392.5" y="-28.2" font-family="Helvetica,sans-Serif" font-size="14.00" fill="#233238">data</text>
</g>
<!-- s2&#45;&gt;s3 -->
<g id="edge2" class="edge">
<title>s2&#45;&gt;s3</title>
<path fill="none" stroke="#5b6b73" stroke-width="1.05" d="M315.77,-34C328.14,-34 343.08,-34 356.4,-34"/>
<polygon fill="#5b6b73" stroke="#5b6b73" stroke-width="1.05" points="356.23,-36.63 363.73,-34 356.23,-31.38 356.23,-36.63"/>
</g>
<!-- sn -->
<g id="node4" class="node">
<title>sn</title>
<path fill="#f5f5f5" stroke="#5b6b73" d="M511.5,-52C511.5,-52 481.5,-52 481.5,-52 475.5,-52 469.5,-46 469.5,-40 469.5,-40 469.5,-28 469.5,-28 469.5,-22 475.5,-16 481.5,-16 481.5,-16 511.5,-16 511.5,-16 517.5,-16 523.5,-22 523.5,-28 523.5,-28 523.5,-40 523.5,-40 523.5,-46 517.5,-52 511.5,-52"/>
<text xml:space="preserve" text-anchor="middle" x="496.5" y="-28.2" font-family="Helvetica,sans-Serif" font-size="14.00" fill="#233238">null</text>
</g>
<!-- s3&#45;&gt;sn -->
<g id="edge3" class="edge">
<title>s3&#45;&gt;sn</title>
<path fill="none" stroke="#5b6b73" stroke-width="1.05" d="M419.77,-34C432.14,-34 447.08,-34 460.4,-34"/>
<polygon fill="#5b6b73" stroke="#5b6b73" stroke-width="1.05" points="460.23,-36.63 467.73,-34 460.23,-31.38 460.23,-36.63"/>
</g>
<!-- d1 -->
<g id="node5" class="node">
<title>d1</title>
<path fill="#e6f3f9" stroke="#5b6b73" d="M303.5,-137C303.5,-137 273.5,-137 273.5,-137 267.5,-137 261.5,-131 261.5,-125 261.5,-125 261.5,-113 261.5,-113 261.5,-107 267.5,-101 273.5,-101 273.5,-101 303.5,-101 303.5,-101 309.5,-101 315.5,-107 315.5,-113 315.5,-113 315.5,-125 315.5,-125 315.5,-131 309.5,-137 303.5,-137"/>
<text xml:space="preserve" text-anchor="middle" x="288.5" y="-113.2" font-family="Helvetica,sans-Serif" font-size="14.00" fill="#233238">data</text>
</g>
<!-- d2 -->
<g id="node6" class="node">
<title>d2</title>
<path fill="#e6f3f9" stroke="#5b6b73" d="M407.5,-137C407.5,-137 377.5,-137 377.5,-137 371.5,-137 365.5,-131 365.5,-125 365.5,-125 365.5,-113 365.5,-113 365.5,-107 371.5,-101 377.5,-101 377.5,-101 407.5,-101 407.5,-101 413.5,-101 419.5,-107 419.5,-113 419.5,-113 419.5,-125 419.5,-125 419.5,-131 413.5,-137 407.5,-137"/>
<text xml:space="preserve" text-anchor="middle" x="392.5" y="-113.2" font-family="Helvetica,sans-Serif" font-size="14.00" fill="#233238">data</text>
</g>
<!-- d1&#45;&gt;d2 -->
<g id="edge5" class="edge">
<title>d1&#45;&gt;d2</title>
<path fill="none" stroke="#5b6b73" stroke-width="1.05" d="M324.69,-119C334.9,-119 346.05,-119 356.26,-119"/>
<polygon fill="#5b6b73" stroke="#5b6b73" stroke-width="1.05" points="324.86,-116.38 317.36,-119 324.86,-121.63 324.86,-116.38"/>
<polygon fill="#5b6b73" stroke="#5b6b73" stroke-width="1.05" points="356.23,-121.63 363.73,-119 356.23,-116.38 356.23,-121.63"/>
</g>
<!-- d3 -->
<g id="node7" class="node">
<title>d3</title>
<path fill="#e6f3f9" stroke="#5b6b73" d="M511.5,-137C511.5,-137 481.5,-137 481.5,-137 475.5,-137 469.5,-131 469.5,-125 469.5,-125 469.5,-113 469.5,-113 469.5,-107 475.5,-101 481.5,-101 481.5,-101 511.5,-101 511.5,-101 517.5,-101 523.5,-107 523.5,-113 523.5,-113 523.5,-125 523.5,-125 523.5,-131 517.5,-137 511.5,-137"/>
<text xml:space="preserve" text-anchor="middle" x="496.5" y="-113.2" font-family="Helvetica,sans-Serif" font-size="14.00" fill="#233238">data</text>
</g>
<!-- d2&#45;&gt;d3 -->
<g id="edge6" class="edge">
<title>d2&#45;&gt;d3</title>
<path fill="none" stroke="#5b6b73" stroke-width="1.05" d="M428.69,-119C438.9,-119 450.05,-119 460.26,-119"/>
<polygon fill="#5b6b73" stroke="#5b6b73" stroke-width="1.05" points="428.86,-116.38 421.36,-119 428.86,-121.63 428.86,-116.38"/>
<polygon fill="#5b6b73" stroke="#5b6b73" stroke-width="1.05" points="460.23,-121.63 467.73,-119 460.23,-116.38 460.23,-121.63"/>
</g>
<!-- d4 -->
<g id="node9" class="node">
<title>d4</title>
<path fill="#f5f5f5" stroke="#5b6b73" d="M615.5,-137C615.5,-137 585.5,-137 585.5,-137 579.5,-137 573.5,-131 573.5,-125 573.5,-125 573.5,-113 573.5,-113 573.5,-107 579.5,-101 585.5,-101 585.5,-101 615.5,-101 615.5,-101 621.5,-101 627.5,-107 627.5,-113 627.5,-113 627.5,-125 627.5,-125 627.5,-131 621.5,-137 615.5,-137"/>
<text xml:space="preserve" text-anchor="middle" x="600.5" y="-113.2" font-family="Helvetica,sans-Serif" font-size="14.00" fill="#233238">null</text>
</g>
<!-- d3&#45;&gt;d4 -->
<g id="edge7" class="edge">
<title>d3&#45;&gt;d4</title>
<path fill="none" stroke="#5b6b73" stroke-width="1.05" d="M532.69,-119C542.9,-119 554.05,-119 564.26,-119"/>
<polygon fill="#5b6b73" stroke="#5b6b73" stroke-width="1.05" points="532.86,-116.38 525.36,-119 532.86,-121.63 532.86,-116.38"/>
<polygon fill="#5b6b73" stroke="#5b6b73" stroke-width="1.05" points="564.23,-121.63 571.73,-119 564.23,-116.38 564.23,-121.63"/>
</g>
<!-- d0 -->
<g id="node8" class="node">
<title>d0</title>
<path fill="#f5f5f5" stroke="#5b6b73" d="M128.75,-137C128.75,-137 98.75,-137 98.75,-137 92.75,-137 86.75,-131 86.75,-125 86.75,-125 86.75,-113 86.75,-113 86.75,-107 92.75,-101 98.75,-101 98.75,-101 128.75,-101 128.75,-101 134.75,-101 140.75,-107 140.75,-113 140.75,-113 140.75,-125 140.75,-125 140.75,-131 134.75,-137 128.75,-137"/>
<text xml:space="preserve" text-anchor="middle" x="113.75" y="-113.2" font-family="Helvetica,sans-Serif" font-size="14.00" fill="#233238">null</text>
</g>
<!-- d0&#45;&gt;d1 -->
<g id="edge4" class="edge">
<title>d0&#45;&gt;d1</title>
<path fill="none" stroke="#5b6b73" stroke-width="1.05" d="M149.83,-119C179.65,-119 222.28,-119 252.17,-119"/>
<polygon fill="#5b6b73" stroke="#5b6b73" stroke-width="1.05" points="150.08,-116.38 142.58,-119 150.08,-121.63 150.08,-116.38"/>
<polygon fill="#5b6b73" stroke="#5b6b73" stroke-width="1.05" points="251.93,-121.63 259.43,-119 251.93,-116.38 251.93,-121.63"/>
</g>
<!-- c1 -->
<g id="node10" class="node">
<title>c1</title>
<path fill="#e6f3f9" stroke="#5b6b73" d="M128.75,-235C128.75,-235 98.75,-235 98.75,-235 92.75,-235 86.75,-229 86.75,-223 86.75,-223 86.75,-211 86.75,-211 86.75,-205 92.75,-199 98.75,-199 98.75,-199 128.75,-199 128.75,-199 134.75,-199 140.75,-205 140.75,-211 140.75,-211 140.75,-223 140.75,-223 140.75,-229 134.75,-235 128.75,-235"/>
<text xml:space="preserve" text-anchor="middle" x="113.75" y="-211.2" font-family="Helvetica,sans-Serif" font-size="14.00" fill="#233238">data</text>
</g>
<!-- c2 -->
<g id="node11" class="node">
<title>c2</title>
<path fill="#e6f3f9" stroke="#5b6b73" d="M303.5,-222C303.5,-222 273.5,-222 273.5,-222 267.5,-222 261.5,-216 261.5,-210 261.5,-210 261.5,-198 261.5,-198 261.5,-192 267.5,-186 273.5,-186 273.5,-186 303.5,-186 303.5,-186 309.5,-186 315.5,-192 315.5,-198 315.5,-198 315.5,-210 315.5,-210 315.5,-216 309.5,-222 303.5,-222"/>
<text xml:space="preserve" text-anchor="middle" x="288.5" y="-198.2" font-family="Helvetica,sans-Serif" font-size="14.00" fill="#233238">data</text>
</g>
<!-- c1&#45;&gt;c2 -->
<g id="edge8" class="edge">
<title>c1&#45;&gt;c2</title>
<path fill="none" stroke="#5b6b73" stroke-width="1.05" d="M140.99,-215.03C170.67,-212.79 219.15,-209.14 252.15,-206.66"/>
<polygon fill="#5b6b73" stroke="#5b6b73" stroke-width="1.05" points="252.15,-209.29 259.43,-206.11 251.76,-204.06 252.15,-209.29"/>
</g>
<!-- c3 -->
<g id="node12" class="node">
<title>c3</title>
<path fill="#e6f3f9" stroke="#5b6b73" d="M407.5,-222C407.5,-222 377.5,-222 377.5,-222 371.5,-222 365.5,-216 365.5,-210 365.5,-210 365.5,-198 365.5,-198 365.5,-192 371.5,-186 377.5,-186 377.5,-186 407.5,-186 407.5,-186 413.5,-186 419.5,-192 419.5,-198 419.5,-198 419.5,-210 419.5,-210 419.5,-216 413.5,-222 407.5,-222"/>
<text xml:space="preserve" text-anchor="middle" x="392.5" y="-198.2" font-family="Helvetica,sans-Serif" font-size="14.00" fill="#233238">data</text>
</g>
<!-- c2&#45;&gt;c3 -->
<g id="edge9" class="edge">
<title>c2&#45;&gt;c3</title>
<path fill="none" stroke="#5b6b73" stroke-width="1.05" d="M315.77,-204C328.14,-204 343.08,-204 356.4,-204"/>
<polygon fill="#5b6b73" stroke="#5b6b73" stroke-width="1.05" points="356.23,-206.63 363.73,-204 356.23,-201.38 356.23,-206.63"/>
</g>
<!-- c4 -->
<g id="node13" class="node">
<title>c4</title>
<path fill="#e6f3f9" stroke="#5b6b73" d="M511.5,-235C511.5,-235 481.5,-235 481.5,-235 475.5,-235 469.5,-229 469.5,-223 469.5,-223 469.5,-211 469.5,-211 469.5,-205 475.5,-199 481.5,-199 481.5,-199 511.5,-199 511.5,-199 517.5,-199 523.5,-205 523.5,-211 523.5,-211 523.5,-223 523.5,-223 523.5,-229 517.5,-235 511.5,-235"/>
<text xml:space="preserve" text-anchor="middle" x="496.5" y="-211.2" font-family="Helvetica,sans-Serif" font-size="14.00" fill="#233238">data</text>
</g>
<!-- c3&#45;&gt;c4 -->
<g id="edge10" class="edge">
<title>c3&#45;&gt;c4</title>
<path fill="none" stroke="#5b6b73" stroke-width="1.05" d="M419.77,-207.35C432.14,-208.92 447.08,-210.83 460.4,-212.53"/>
<polygon fill="#5b6b73" stroke="#5b6b73" stroke-width="1.05" points="459.97,-215.12 467.75,-213.46 460.64,-209.91 459.97,-215.12"/>
</g>
<!-- c4&#45;&gt;c1 -->
<g id="edge11" class="edge">
<title>c4&#45;&gt;c1</title>
<path fill="none" stroke="#5b6b73" stroke-width="1.05" d="M469.04,-224.87C454.55,-228.77 436.2,-233.05 419.5,-235 322.26,-246.36 206.68,-231.95 149.86,-223.05"/>
<polygon fill="#5b6b73" stroke="#5b6b73" stroke-width="1.05" points="150.32,-220.47 142.5,-221.87 149.49,-225.65 150.32,-220.47"/>
</g>
<!-- t17 -->
<g id="node14" class="node">
<title>t17</title>
<ellipse fill="#c9e7f4" stroke="#5b6b73" cx="113.75" cy="-411" rx="20.15" ry="20.15"/>
<text xml:space="preserve" text-anchor="middle" x="113.75" y="-405.2" font-family="Helvetica,sans-Serif" font-size="14.00" fill="#233238">17</text>
</g>
<!-- t12 -->
<g id="node15" class="node">
<title>t12</title>
<ellipse fill="#c9e7f4" stroke="#5b6b73" cx="288.5" cy="-379" rx="20.15" ry="20.15"/>
<text xml:space="preserve" text-anchor="middle" x="288.5" y="-373.2" font-family="Helvetica,sans-Serif" font-size="14.00" fill="#233238">12</text>
</g>
<!-- t17&#45;&gt;t12 -->
<g id="edge12" class="edge">
<title>t17&#45;&gt;t12</title>
<path fill="none" stroke="#5b6b73" stroke-width="1.05" d="M133.9,-407.45C164.38,-401.81 224.1,-390.75 259.42,-384.2"/>
<polygon fill="#5b6b73" stroke="#5b6b73" stroke-width="1.05" points="259.81,-386.8 266.7,-382.85 258.85,-381.64 259.81,-386.8"/>
</g>
<!-- t35 -->
<g id="node16" class="node">
<title>t35</title>
<ellipse fill="#c9e7f4" stroke="#5b6b73" cx="288.5" cy="-444" rx="20.15" ry="20.15"/>
<text xml:space="preserve" text-anchor="middle" x="288.5" y="-438.2" font-family="Helvetica,sans-Serif" font-size="14.00" fill="#233238">35</text>
</g>
<!-- t17&#45;&gt;t35 -->
<g id="edge13" class="edge">
<title>t17&#45;&gt;t35</title>
<path fill="none" stroke="#5b6b73" stroke-width="1.05" d="M133.9,-414.66C164.38,-420.48 224.1,-431.89 259.42,-438.64"/>
<polygon fill="#5b6b73" stroke="#5b6b73" stroke-width="1.05" points="258.85,-441.2 266.71,-440.03 259.83,-436.04 258.85,-441.2"/>
</g>
<!-- t6 -->
<g id="node17" class="node">
<title>t6</title>
<ellipse fill="#c9e7f4" stroke="#5b6b73" cx="392.5" cy="-316" rx="18" ry="18"/>
<text xml:space="preserve" text-anchor="middle" x="392.5" y="-310.2" font-family="Helvetica,sans-Serif" font-size="14.00" fill="#233238">6</text>
</g>
<!-- t12&#45;&gt;t6 -->
<g id="edge14" class="edge">
<title>t12&#45;&gt;t6</title>
<path fill="none" stroke="#5b6b73" stroke-width="1.05" d="M305.89,-368.88C323.04,-358.29 350.07,-341.59 369.16,-329.8"/>
<polygon fill="#5b6b73" stroke="#5b6b73" stroke-width="1.05" points="370.45,-332.08 375.46,-325.91 367.7,-327.62 370.45,-332.08"/>
</g>
<!-- t14 -->
<g id="node18" class="node">
<title>t14</title>
<ellipse fill="#c9e7f4" stroke="#5b6b73" cx="392.5" cy="-379" rx="20.15" ry="20.15"/>
<text xml:space="preserve" text-anchor="middle" x="392.5" y="-373.2" font-family="Helvetica,sans-Serif" font-size="14.00" fill="#233238">14</text>
</g>
<!-- t12&#45;&gt;t14 -->
<g id="edge15" class="edge">
<title>t12&#45;&gt;t14</title>
<path fill="none" stroke="#5b6b73" stroke-width="1.05" d="M308.69,-379C324.12,-379 346.02,-379 363.42,-379"/>
<polygon fill="#5b6b73" stroke="#5b6b73" stroke-width="1.05" points="362.96,-381.63 370.46,-379 362.96,-376.38 362.96,-381.63"/>
</g>
<!-- t40 -->
<g id="node19" class="node">
<title>t40</title>
<ellipse fill="#c9e7f4" stroke="#5b6b73" cx="392.5" cy="-444" rx="20.15" ry="20.15"/>
<text xml:space="preserve" text-anchor="middle" x="392.5" y="-438.2" font-family="Helvetica,sans-Serif" font-size="14.00" fill="#233238">40</text>
</g>
<!-- t35&#45;&gt;t40 -->
<g id="edge16" class="edge">
<title>t35&#45;&gt;t40</title>
<path fill="none" stroke="#5b6b73" stroke-width="1.05" d="M308.69,-444C324.12,-444 346.02,-444 363.42,-444"/>
<polygon fill="#5b6b73" stroke="#5b6b73" stroke-width="1.05" points="362.96,-446.63 370.46,-444 362.96,-441.38 362.96,-446.63"/>
</g>
<!-- t42 -->
<g id="node20" class="node">
<title>t42</title>
<ellipse fill="#c9e7f4" stroke="#5b6b73" cx="496.5" cy="-444" rx="20.15" ry="20.15"/>
<text xml:space="preserve" text-anchor="middle" x="496.5" y="-438.2" font-family="Helvetica,sans-Serif" font-size="14.00" fill="#233238">42</text>
</g>
<!-- t40&#45;&gt;t42 -->
<g id="edge17" class="edge">
<title>t40&#45;&gt;t42</title>
<path fill="none" stroke="#5b6b73" stroke-width="1.05" d="M412.69,-444C428.12,-444 450.02,-444 467.42,-444"/>
<polygon fill="#5b6b73" stroke="#5b6b73" stroke-width="1.05" points="466.96,-446.63 474.46,-444 466.96,-441.38 466.96,-446.63"/>
</g>
<!-- hashmap -->
<g id="node21" class="node">
<title>hashmap</title>
<path fill="#5b6b73" stroke="none" d="M185.75,-659.25C185.75,-659.25 41.75,-659.25 41.75,-659.25 35.75,-659.25 29.75,-653.25 29.75,-647.25 29.75,-647.25 29.75,-524.75 29.75,-524.75 29.75,-518.75 35.75,-512.75 41.75,-512.75 41.75,-512.75 185.75,-512.75 185.75,-512.75 191.75,-512.75 197.75,-518.75 197.75,-524.75 197.75,-524.75 197.75,-647.25 197.75,-647.25 197.75,-653.25 191.75,-659.25 185.75,-659.25"/>
<text xml:space="preserve" text-anchor="start" x="56.75" y="-644" font-family="Helvetica,sans-Serif" font-size="14.00" fill="#233238">hash_function(key)</text>
<text xml:space="preserve" text-anchor="start" x="109.25" y="-618" font-family="Helvetica,sans-Serif" font-size="14.00" fill="#233238">↓</text>
<polygon fill="#e6f3f9" stroke="none" points="29.75,-586 29.75,-611 71.75,-611 71.75,-586 29.75,-586"/>
<polygon fill="none" stroke="#5b6b73" points="29.75,-586 29.75,-611 71.75,-611 71.75,-586 29.75,-586"/>
<text xml:space="preserve" text-anchor="start" x="47" y="-594.75" font-family="Helvetica,sans-Serif" font-size="14.00" fill="#233238">0</text>
<polygon fill="#e6f3f9" stroke="none" points="71.75,-586 71.75,-611 113.75,-611 113.75,-586 71.75,-586"/>
<polygon fill="none" stroke="#5b6b73" points="71.75,-586 71.75,-611 113.75,-611 113.75,-586 71.75,-586"/>
<text xml:space="preserve" text-anchor="start" x="89" y="-594.75" font-family="Helvetica,sans-Serif" font-size="14.00" fill="#233238">1</text>
<polygon fill="#e6f3f9" stroke="none" points="113.75,-586 113.75,-611 155.75,-611 155.75,-586 113.75,-586"/>
<polygon fill="none" stroke="#5b6b73" points="113.75,-586 113.75,-611 155.75,-611 155.75,-586 113.75,-586"/>
<text xml:space="preserve" text-anchor="start" x="129.12" y="-594.75" font-family="Helvetica,sans-Serif" font-size="14.00" fill="#233238">...</text>
<polygon fill="#e6f3f9" stroke="none" points="155.75,-586 155.75,-611 197.75,-611 197.75,-586 155.75,-586"/>
<polygon fill="none" stroke="#5b6b73" points="155.75,-586 155.75,-611 197.75,-611 197.75,-586 155.75,-586"/>
<text xml:space="preserve" text-anchor="start" x="173" y="-594.75" font-family="Helvetica,sans-Serif" font-size="14.00" fill="#233238">n</text>
<text xml:space="preserve" text-anchor="start" x="83.75" y="-570.75" font-family="Helvetica,sans-Serif" font-size="14.00" fill="#233238">hash map</text>
<text xml:space="preserve" text-anchor="start" x="109.25" y="-544.75" font-family="Helvetica,sans-Serif" font-size="14.00" fill="#233238">↓</text>
<polygon fill="#bfe2f1" stroke="none" points="29.75,-512.75 29.75,-537.75 197.75,-537.75 197.75,-512.75 29.75,-512.75"/>
<polygon fill="none" stroke="#5b6b73" points="29.75,-512.75 29.75,-537.75 197.75,-537.75 197.75,-512.75 29.75,-512.75"/>
<text xml:space="preserve" text-anchor="start" x="97.62" y="-521.5" font-family="Helvetica,sans-Serif" font-size="14.00" fill="#233238">value</text>
</g>
<!-- bm -->
<g id="node22" class="node">
<title>bm</title>
<path fill="#5b6b73" stroke="none" d="M199.5,-768C199.5,-768 28,-768 28,-768 22,-768 16,-762 16,-756 16,-756 16,-720 16,-720 16,-714 22,-708 28,-708 28,-708 199.5,-708 199.5,-708 205.5,-708 211.5,-714 211.5,-720 211.5,-720 211.5,-756 211.5,-756 211.5,-762 205.5,-768 199.5,-768"/>
<polygon fill="#f5f5f5" stroke="none" points="17,-738 17,-767 38.5,-767 38.5,-738 17,-738"/>
<polygon fill="none" stroke="#5b6b73" points="17,-738 17,-767 38.5,-767 38.5,-738 17,-738"/>
<text xml:space="preserve" text-anchor="start" x="24" y="-748.75" font-family="Helvetica,sans-Serif" font-size="14.00" fill="#233238">0</text>
<polygon fill="#f5f5f5" stroke="none" points="38.5,-738 38.5,-767 60,-767 60,-738 38.5,-738"/>
<polygon fill="none" stroke="#5b6b73" points="38.5,-738 38.5,-767 60,-767 60,-738 38.5,-738"/>
<text xml:space="preserve" text-anchor="start" x="45.5" y="-748.75" font-family="Helvetica,sans-Serif" font-size="14.00" fill="#233238">0</text>
<polygon fill="#bfe2f1" stroke="none" points="60,-738 60,-767 81.5,-767 81.5,-738 60,-738"/>
<polygon fill="none" stroke="#5b6b73" points="60,-738 60,-767 81.5,-767 81.5,-738 60,-738"/>
<text xml:space="preserve" text-anchor="start" x="67" y="-748.75" font-family="Helvetica,sans-Serif" font-size="14.00" fill="#233238">1</text>
<polygon fill="#f5f5f5" stroke="none" points="81.5,-738 81.5,-767 103,-767 103,-738 81.5,-738"/>
<polygon fill="none" stroke="#5b6b73" points="81.5,-738 81.5,-767 103,-767 103,-738 81.5,-738"/>
<text xml:space="preserve" text-anchor="start" x="88.5" y="-748.75" font-family="Helvetica,sans-Serif" font-size="14.00" fill="#233238">0</text>
<polygon fill="#bfe2f1" stroke="none" points="103,-738 103,-767 124.5,-767 124.5,-738 103,-738"/>
<polygon fill="none" stroke="#5b6b73" points="103,-738 103,-767 124.5,-767 124.5,-738 103,-738"/>
<text xml:space="preserve" text-anchor="start" x="110" y="-748.75" font-family="Helvetica,sans-Serif" font-size="14.00" fill="#233238">1</text>
<polygon fill="#bfe2f1" stroke="none" points="124.5,-738 124.5,-767 146,-767 146,-738 124.5,-738"/>
<polygon fill="none" stroke="#5b6b73" points="124.5,-738 124.5,-767 146,-767 146,-738 124.5,-738"/>
<text xml:space="preserve" text-anchor="start" x="131.5" y="-748.75" font-family="Helvetica,sans-Serif" font-size="14.00" fill="#233238">1</text>
<polygon fill="#bfe2f1" stroke="none" points="146,-738 146,-767 167.5,-767 167.5,-738 146,-738"/>
<polygon fill="none" stroke="#5b6b73" points="146,-738 146,-767 167.5,-767 167.5,-738 146,-738"/>
<text xml:space="preserve" text-anchor="start" x="153" y="-748.75" font-family="Helvetica,sans-Serif" font-size="14.00" fill="#233238">1</text>
<polygon fill="#f5f5f5" stroke="none" points="167.5,-738 167.5,-767 189,-767 189,-738 167.5,-738"/>
<polygon fill="none" stroke="#5b6b73" points="167.5,-738 167.5,-767 189,-767 189,-738 167.5,-738"/>
<text xml:space="preserve" text-anchor="start" x="174.5" y="-748.75" font-family="Helvetica,sans-Serif" font-size="14.00" fill="#233238">0</text>
<polygon fill="#bfe2f1" stroke="none" points="189,-738 189,-767 210.5,-767 210.5,-738 189,-738"/>
<polygon fill="none" stroke="#5b6b73" points="189,-738 189,-767 210.5,-767 210.5,-738 189,-738"/>
<text xml:space="preserve" text-anchor="start" x="196" y="-748.75" font-family="Helvetica,sans-Serif" font-size="14.00" fill="#233238">1</text>
<polygon fill="none" stroke="#5b6b73" points="17,-709 17,-738 210.5,-738 210.5,-709 17,-709"/>
<text xml:space="preserve" text-anchor="start" x="26" y="-719.75" font-family="Helvetica,sans-Serif" font-size="14.00" fill="#233238">1 = unavailable, 0 = available</text>
<polygon fill="none" stroke="#5b6b73" points="16,-708 16,-768 211.5,-768 211.5,-708 16,-708"/>
</g>
</g>
</svg>
