<?xml version="1.0" encoding="UTF-8" standalone="no"?>
<!DOCTYPE svg PUBLIC "-//W3C//DTD SVG 1.1//EN"
 "http://www.w3.org/Graphics/SVG/1.1/DTD/svg11.dtd">
<!-- Generated by graphviz version 14.1.3 (20260303.0454)
 -->
<!-- Title: G Pages: 1 -->
<svg width="1018pt" height="248pt"
 viewBox="0.00 0.00 1018.00 248.00" xmlns="http://www.w3.org/2000/svg" xmlns:xlink="http://www.w3.org/1999/xlink">
<g id="graph0" class="graph" transform="scale(1 1) rotate(0) translate(14.4 233.4)">
<title>G</title>
<polygon fill="white" stroke="none" points="-14.4,14.4 -14.4,-233.4 1003.15,-233.4 1003.15,14.4 -14.4,14.4"/>
<!-- lanes -->
<g id="node1" class="node">
<title>lanes</title>
<polygon fill="#f5f5f5" stroke="none" points="1,-187 1,-218 143.75,-218 143.75,-187 1,-187"/>
<polygon fill="none" stroke="#5b6b73" points="1,-187 1,-218 143.75,-218 143.75,-187 1,-187"/>
<text xml:space="preserve" text-anchor="start" x="56.62" y="-197.7" font-family="Helvetica,sans-Serif" font-weight="bold" font-size="14.00">Lane</text>
<polygon fill="#f5f5f5" stroke="none" points="143.75,-187 143.75,-218 366.58,-218 366.58,-187 143.75,-187"/>
<polygon fill="none" stroke="#5b6b73" points="143.75,-187 143.75,-218 366.58,-218 366.58,-187 143.75,-187"/>
<text xml:space="preserve" text-anchor="start" x="219.92" y="-197.7" font-family="Helvetica,sans-Serif" font-weight="bold" font-size="14.00">User mode</text>
<polygon fill="#f5f5f5" stroke="none" points="366.58,-187 366.58,-218 710.92,-218 710.92,-187 366.58,-187"/>
<polygon fill="none" stroke="#5b6b73" points="366.58,-187 366.58,-218 710.92,-218 710.92,-187 366.58,-187"/>
<text xml:space="preserve" text-anchor="start" x="491.12" y="-197.7" font-family="Helvetica,sans-Serif" font-weight="bold" font-size="14.00">Kernel + driver</text>
<polygon fill="#f5f5f5" stroke="none" points="710.92,-187 710.92,-218 987.75,-218 987.75,-187 710.92,-187"/>
<polygon fill="none" stroke="#5b6b73" points="710.92,-187 710.92,-218 987.75,-218 987.75,-187 710.92,-187"/>
<text xml:space="preserve" text-anchor="start" x="827.58" y="-197.7" font-family="Helvetica,sans-Serif" font-weight="bold" font-size="14.00">Device</text>
<polygon fill="#e6f3f9" stroke="none" points="1,-156 1,-187 143.75,-187 143.75,-156 1,-156"/>
<polygon fill="none" stroke="#5b6b73" points="1,-156 1,-187 143.75,-187 143.75,-156 1,-156"/>
<text xml:space="preserve" text-anchor="start" x="45.75" y="-166.7" font-family="Helvetica,sans-Serif" font-weight="bold" font-size="14.00">Request</text>
<polygon fill="none" stroke="#5b6b73" points="143.75,-156 143.75,-187 366.58,-187 366.58,-156 143.75,-156"/>
<text xml:space="preserve" text-anchor="start" x="161.42" y="-167.75" font-family="Helvetica,sans-Serif" font-size="14.00">calls `read`/`write`/`open`/`ioctl`</text>
<polygon fill="none" stroke="#5b6b73" points="366.58,-156 366.58,-187 710.92,-187 710.92,-156 366.58,-156"/>
<text xml:space="preserve" text-anchor="start" x="433.75" y="-167.75" font-family="Helvetica,sans-Serif" font-size="14.00">validates permissions + arguments</text>
<polygon fill="none" stroke="#5b6b73" points="710.92,-156 710.92,-187 987.75,-187 987.75,-156 710.92,-156"/>
<text xml:space="preserve" text-anchor="start" x="847.08" y="-167.75" font-family="Helvetica,sans-Serif" font-size="14.00">&#45;</text>
<polygon fill="#e6f3f9" stroke="none" points="1,-125 1,-156 143.75,-156 143.75,-125 1,-125"/>
<polygon fill="none" stroke="#5b6b73" points="1,-125 1,-156 143.75,-156 143.75,-125 1,-125"/>
<text xml:space="preserve" text-anchor="start" x="44.25" y="-135.7" font-family="Helvetica,sans-Serif" font-weight="bold" font-size="14.00">Program</text>
<polygon fill="none" stroke="#5b6b73" points="143.75,-125 143.75,-156 366.58,-156 366.58,-125 143.75,-125"/>
<text xml:space="preserve" text-anchor="start" x="252.92" y="-136.75" font-family="Helvetica,sans-Serif" font-size="14.00">&#45;</text>
<polygon fill="none" stroke="#5b6b73" points="366.58,-125 366.58,-156 710.92,-156 710.92,-125 366.58,-125"/>
<text xml:space="preserve" text-anchor="start" x="439.75" y="-136.75" font-family="Helvetica,sans-Serif" font-size="14.00">programs controller / DMA safely</text>
<polygon fill="none" stroke="#5b6b73" points="710.92,-125 710.92,-156 987.75,-156 987.75,-125 710.92,-125"/>
<text xml:space="preserve" text-anchor="start" x="802.83" y="-136.75" font-family="Helvetica,sans-Serif" font-size="14.00">starts operation</text>
<polygon fill="#e6f3f9" stroke="none" points="1,-94 1,-125 143.75,-125 143.75,-94 1,-94"/>
<polygon fill="none" stroke="#5b6b73" points="1,-94 1,-125 143.75,-125 143.75,-94 1,-94"/>
<text xml:space="preserve" text-anchor="start" x="58.12" y="-104.7" font-family="Helvetica,sans-Serif" font-weight="bold" font-size="14.00">Wait</text>
<polygon fill="none" stroke="#5b6b73" points="143.75,-94 143.75,-125 366.58,-125 366.58,-94 143.75,-94"/>
<text xml:space="preserve" text-anchor="start" x="203.42" y="-105.75" font-family="Helvetica,sans-Serif" font-size="14.00">thread may block</text>
<polygon fill="none" stroke="#5b6b73" points="366.58,-94 366.58,-125 710.92,-125 710.92,-94 366.58,-94"/>
<text xml:space="preserve" text-anchor="start" x="406" y="-105.75" font-family="Helvetica,sans-Serif" font-size="14.00">records wait condition; schedules other work</text>
<polygon fill="none" stroke="#5b6b73" points="710.92,-94 710.92,-125 987.75,-125 987.75,-94 710.92,-94"/>
<text xml:space="preserve" text-anchor="start" x="787.46" y="-105.75" font-family="Helvetica,sans-Serif" font-size="14.00">runs asynchronously</text>
<polygon fill="#e6f3f9" stroke="none" points="1,-63 1,-94 143.75,-94 143.75,-63 1,-63"/>
<polygon fill="none" stroke="#5b6b73" points="1,-63 1,-94 143.75,-94 143.75,-63 1,-63"/>
<text xml:space="preserve" text-anchor="start" x="41.25" y="-73.7" font-family="Helvetica,sans-Serif" font-weight="bold" font-size="14.00">Complete</text>
<polygon fill="none" stroke="#5b6b73" points="143.75,-63 143.75,-94 366.58,-94 366.58,-63 143.75,-63"/>
<text xml:space="preserve" text-anchor="start" x="252.92" y="-74.75" font-family="Helvetica,sans-Serif" font-size="14.00">&#45;</text>
<polygon fill="none" stroke="#5b6b73" points="366.58,-63 366.58,-94 710.92,-94 710.92,-63 366.58,-63"/>
<text xml:space="preserve" text-anchor="start" x="384.25" y="-74.75" font-family="Helvetica,sans-Serif" font-size="14.00">interrupt handler records completion; wakes waiters</text>
<polygon fill="none" stroke="#5b6b73" points="710.92,-63 710.92,-94 987.75,-94 987.75,-63 710.92,-63"/>
<text xml:space="preserve" text-anchor="start" x="728.58" y="-74.75" font-family="Helvetica,sans-Serif" font-size="14.00">raises interrupt (or status flag for polling)</text>
<polygon fill="#e6f3f9" stroke="none" points="1,-32 1,-63 143.75,-63 143.75,-32 1,-32"/>
<polygon fill="none" stroke="#5b6b73" points="1,-32 1,-63 143.75,-63 143.75,-32 1,-32"/>
<text xml:space="preserve" text-anchor="start" x="50.62" y="-42.7" font-family="Helvetica,sans-Serif" font-weight="bold" font-size="14.00">Return</text>
<polygon fill="none" stroke="#5b6b73" points="143.75,-32 143.75,-63 366.58,-63 366.58,-32 143.75,-32"/>
<text xml:space="preserve" text-anchor="start" x="189.92" y="-43.75" font-family="Helvetica,sans-Serif" font-size="14.00">receives result / bytes</text>
<polygon fill="none" stroke="#5b6b73" points="366.58,-32 366.58,-63 710.92,-63 710.92,-32 366.58,-32"/>
<text xml:space="preserve" text-anchor="start" x="433.75" y="-43.75" font-family="Helvetica,sans-Serif" font-size="14.00">copies data + returns to user mode</text>
<polygon fill="none" stroke="#5b6b73" points="710.92,-32 710.92,-63 987.75,-63 987.75,-32 710.92,-32"/>
<text xml:space="preserve" text-anchor="start" x="847.08" y="-43.75" font-family="Helvetica,sans-Serif" font-size="14.00">&#45;</text>
<polygon fill="#e6f3f9" stroke="none" points="1,-1 1,-32 143.75,-32 143.75,-1 1,-1"/>
<polygon fill="none" stroke="#5b6b73" points="1,-1 1,-32 143.75,-32 143.75,-1 1,-1"/>
<text xml:space="preserve" text-anchor="start" x="9" y="-11.7" font-family="Helvetica,sans-Serif" font-weight="bold" font-size="14.00">Protection invariant</text>
<polygon fill="none" stroke="#5b6b73" points="143.75,-1 143.75,-32 987.75,-32 987.75,-1 143.75,-1"/>
<text xml:space="preserve" text-anchor="start" x="151.75" y="-12.75" font-family="Helvetica,sans-Serif" font-size="14.00">raw device programming and interrupt control must not be accessible to user mode; syscalls route I/O through a privileged mediation layer</text>
<polygon fill="none" stroke="#5b6b73" points="0,0 0,-219 988.75,-219 988.75,0 0,0"/>
</g>
</g>
</svg>
