<?xml version="1.0" encoding="UTF-8" standalone="no"?>
<!DOCTYPE svg PUBLIC "-//W3C//DTD SVG 1.1//EN"
 "http://www.w3.org/Graphics/SVG/1.1/DTD/svg11.dtd">
<!-- Generated by graphviz version 14.1.3 (20260303.0454)
 -->
<!-- Title: G Pages: 1 -->
<svg width="1309pt" height="217pt"
 viewBox="0.00 0.00 1309.00 217.00" xmlns="http://www.w3.org/2000/svg" xmlns:xlink="http://www.w3.org/1999/xlink">
<g id="graph0" class="graph" transform="scale(1 1) rotate(0) translate(14.4 202.4)">
<title>G</title>
<polygon fill="white" stroke="none" points="-14.4,14.4 -14.4,-202.4 1294.65,-202.4 1294.65,14.4 -14.4,14.4"/>
<!-- trace -->
<g id="node1" class="node">
<title>trace</title>
<polygon fill="#f5f5f5" stroke="none" points="1,-156 1,-187 128.75,-187 128.75,-156 1,-156"/>
<polygon fill="none" stroke="#5b6b73" points="1,-156 1,-187 128.75,-187 128.75,-156 1,-156"/>
<text xml:space="preserve" text-anchor="start" x="45" y="-166.7" font-family="Helvetica,sans-Serif" font-weight="bold" font-size="14.00">Phase</text>
<polygon fill="#f5f5f5" stroke="none" points="128.75,-156 128.75,-187 512.25,-187 512.25,-156 128.75,-156"/>
<polygon fill="none" stroke="#5b6b73" points="128.75,-156 128.75,-187 512.25,-187 512.25,-156 128.75,-156"/>
<text xml:space="preserve" text-anchor="start" x="270.25" y="-166.7" font-family="Helvetica,sans-Serif" font-weight="bold" font-size="14.00">CPU / hardware</text>
<polygon fill="#f5f5f5" stroke="none" points="512.25,-156 512.25,-187 913.75,-187 913.75,-156 512.25,-156"/>
<polygon fill="none" stroke="#5b6b73" points="512.25,-156 512.25,-187 913.75,-187 913.75,-156 512.25,-156"/>
<text xml:space="preserve" text-anchor="start" x="692" y="-166.7" font-family="Helvetica,sans-Serif" font-weight="bold" font-size="14.00">Kernel</text>
<polygon fill="#f5f5f5" stroke="none" points="913.75,-156 913.75,-187 1279.25,-187 1279.25,-156 913.75,-156"/>
<polygon fill="none" stroke="#5b6b73" points="913.75,-156 913.75,-187 1279.25,-187 1279.25,-156 913.75,-156"/>
<text xml:space="preserve" text-anchor="start" x="1054.88" y="-166.7" font-family="Helvetica,sans-Serif" font-weight="bold" font-size="14.00">Why it exists</text>
<polygon fill="#e6f3f9" stroke="none" points="1,-125 1,-156 128.75,-156 128.75,-125 1,-125"/>
<polygon fill="none" stroke="#5b6b73" points="1,-125 1,-156 128.75,-156 128.75,-125 1,-125"/>
<text xml:space="preserve" text-anchor="start" x="13.12" y="-135.7" font-family="Helvetica,sans-Serif" font-weight="bold" font-size="14.00">Interrupt arrives</text>
<polygon fill="none" stroke="#5b6b73" points="128.75,-125 128.75,-156 512.25,-156 512.25,-125 128.75,-125"/>
<text xml:space="preserve" text-anchor="start" x="192.62" y="-136.75" font-family="Helvetica,sans-Serif" font-size="14.00">forces control transfer into privileged mode</text>
<polygon fill="none" stroke="#5b6b73" points="512.25,-125 512.25,-156 913.75,-156 913.75,-125 512.25,-125"/>
<text xml:space="preserve" text-anchor="start" x="625.25" y="-136.75" font-family="Helvetica,sans-Serif" font-size="14.00">begins an interrupt entry path</text>
<polygon fill="none" stroke="#5b6b73" points="913.75,-125 913.75,-156 1279.25,-156 1279.25,-125 913.75,-125"/>
<text xml:space="preserve" text-anchor="start" x="921.75" y="-136.75" font-family="Helvetica,sans-Serif" font-size="14.00">kernel regains control even if the current code never yields</text>
<polygon fill="#e6f3f9" stroke="none" points="1,-94 1,-125 128.75,-125 128.75,-94 1,-94"/>
<polygon fill="none" stroke="#5b6b73" points="1,-94 1,-125 128.75,-125 128.75,-94 1,-94"/>
<text xml:space="preserve" text-anchor="start" x="9.38" y="-104.7" font-family="Helvetica,sans-Serif" font-weight="bold" font-size="14.00">Save (trap frame)</text>
<polygon fill="none" stroke="#5b6b73" points="128.75,-94 128.75,-125 512.25,-125 512.25,-94 128.75,-94"/>
<text xml:space="preserve" text-anchor="start" x="148" y="-105.75" font-family="Helvetica,sans-Serif" font-size="14.00">records PC/flags (and often registers) for later resumption</text>
<polygon fill="none" stroke="#5b6b73" points="512.25,-94 512.25,-125 913.75,-125 913.75,-94 512.25,-94"/>
<text xml:space="preserve" text-anchor="start" x="567.88" y="-105.75" font-family="Helvetica,sans-Serif" font-size="14.00">treats the interrupted context as resumable state</text>
<polygon fill="none" stroke="#5b6b73" points="913.75,-94 913.75,-125 1279.25,-125 1279.25,-94 913.75,-94"/>
<text xml:space="preserve" text-anchor="start" x="952.88" y="-105.75" font-family="Helvetica,sans-Serif" font-size="14.00">return is only correct if the old state is preserved</text>
<polygon fill="#e6f3f9" stroke="none" points="1,-63 1,-94 128.75,-94 128.75,-63 1,-63"/>
<polygon fill="none" stroke="#5b6b73" points="1,-63 1,-94 128.75,-94 128.75,-63 1,-63"/>
<text xml:space="preserve" text-anchor="start" x="24.75" y="-73.7" font-family="Helvetica,sans-Serif" font-weight="bold" font-size="14.00">Handle (ISR)</text>
<polygon fill="none" stroke="#5b6b73" points="128.75,-63 128.75,-94 512.25,-94 512.25,-63 128.75,-63"/>
<text xml:space="preserve" text-anchor="start" x="318.25" y="-74.75" font-family="Helvetica,sans-Serif" font-size="14.00">&#45;</text>
<polygon fill="none" stroke="#5b6b73" points="512.25,-63 512.25,-94 913.75,-94 913.75,-63 512.25,-63"/>
<text xml:space="preserve" text-anchor="start" x="520.25" y="-74.75" font-family="Helvetica,sans-Serif" font-size="14.00">runs interrupt service routine; records completion; wakes waiters</text>
<polygon fill="none" stroke="#5b6b73" points="913.75,-63 913.75,-94 1279.25,-94 1279.25,-63 913.75,-63"/>
<text xml:space="preserve" text-anchor="start" x="922.5" y="-74.75" font-family="Helvetica,sans-Serif" font-size="14.00">turns \&quot;device finished\&quot; into a durable kernel state change</text>
<polygon fill="#e6f3f9" stroke="none" points="1,-32 1,-63 128.75,-63 128.75,-32 1,-32"/>
<polygon fill="none" stroke="#5b6b73" points="1,-32 1,-63 128.75,-63 128.75,-32 1,-32"/>
<text xml:space="preserve" text-anchor="start" x="12.38" y="-42.7" font-family="Helvetica,sans-Serif" font-weight="bold" font-size="14.00">Restore + return</text>
<polygon fill="none" stroke="#5b6b73" points="128.75,-32 128.75,-63 512.25,-63 512.25,-32 128.75,-32"/>
<text xml:space="preserve" text-anchor="start" x="136.75" y="-43.75" font-family="Helvetica,sans-Serif" font-size="14.00">restores saved state; executes privileged return to prior mode</text>
<polygon fill="none" stroke="#5b6b73" points="512.25,-32 512.25,-63 913.75,-63 913.75,-32 512.25,-32"/>
<text xml:space="preserve" text-anchor="start" x="522.88" y="-43.75" font-family="Helvetica,sans-Serif" font-size="14.00">resumes the interrupted instruction stream (or returns to kernel)</text>
<polygon fill="none" stroke="#5b6b73" points="913.75,-32 913.75,-63 1279.25,-63 1279.25,-32 913.75,-32"/>
<text xml:space="preserve" text-anchor="start" x="993.38" y="-43.75" font-family="Helvetica,sans-Serif" font-size="14.00">interrupt is a detour, not corruption</text>
<polygon fill="#e6f3f9" stroke="none" points="1,-1 1,-32 128.75,-32 128.75,-1 1,-1"/>
<polygon fill="none" stroke="#5b6b73" points="1,-1 1,-32 128.75,-32 128.75,-1 1,-1"/>
<text xml:space="preserve" text-anchor="start" x="9" y="-11.7" font-family="Helvetica,sans-Serif" font-weight="bold" font-size="14.00">Nested interrupts</text>
<polygon fill="none" stroke="#5b6b73" points="128.75,-1 128.75,-32 512.25,-32 512.25,-1 128.75,-1"/>
<text xml:space="preserve" text-anchor="start" x="161.12" y="-12.75" font-family="Helvetica,sans-Serif" font-size="14.00">may accept a second interrupt while handling the first</text>
<polygon fill="none" stroke="#5b6b73" points="512.25,-1 512.25,-32 913.75,-32 913.75,-1 512.25,-1"/>
<text xml:space="preserve" text-anchor="start" x="582.88" y="-12.75" font-family="Helvetica,sans-Serif" font-size="14.00">multiple trap frames can stack in time order</text>
<polygon fill="none" stroke="#5b6b73" points="913.75,-1 913.75,-32 1279.25,-32 1279.25,-1 913.75,-1"/>
<text xml:space="preserve" text-anchor="start" x="939.38" y="-12.75" font-family="Helvetica,sans-Serif" font-size="14.00">reduces latency but increases reentrancy complexity</text>
<polygon fill="none" stroke="#5b6b73" points="0,0 0,-188 1280.25,-188 1280.25,0 0,0"/>
</g>
</g>
</svg>
