<?xml version="1.0" encoding="UTF-8" standalone="no"?>
<!DOCTYPE svg PUBLIC "-//W3C//DTD SVG 1.1//EN"
 "http://www.w3.org/Graphics/SVG/1.1/DTD/svg11.dtd">
<!-- Generated by graphviz version 14.1.3 (20260303.0454)
 -->
<!-- Title: G Pages: 1 -->
<svg width="503pt" height="205pt"
 viewBox="0.00 0.00 503.00 205.00" xmlns="http://www.w3.org/2000/svg" xmlns:xlink="http://www.w3.org/1999/xlink">
<g id="graph0" class="graph" transform="scale(1 1) rotate(0) translate(18 187)">
<title>G</title>
<polygon fill="white" stroke="none" points="-18,18 -18,-187 485.25,-187 485.25,18 -18,18"/>
<!-- matrix -->
<g id="node1" class="node">
<title>matrix</title>
<polygon fill="#eaf6fb" stroke="none" points="9,-131 9,-164 458.25,-164 458.25,-131 9,-131"/>
<polygon fill="none" stroke="black" points="9,-131 9,-164 458.25,-164 458.25,-131 9,-131"/>
<text xml:space="preserve" text-anchor="start" x="89.25" y="-142.7" font-family="Helvetica,sans-Serif" font-weight="bold" font-size="14.00" fill="#233238">How control enters the kernel (classification)</text>
<polygon fill="#f5f5f5" stroke="none" points="9,-89 9,-131 113.25,-131 113.25,-89 9,-89"/>
<polygon fill="none" stroke="black" points="9,-89 9,-131 113.25,-131 113.25,-89 9,-89"/>
<polygon fill="#ddeaf1" stroke="none" points="113.25,-89 113.25,-131 290.25,-131 290.25,-89 113.25,-89"/>
<polygon fill="none" stroke="black" points="113.25,-89 113.25,-131 290.25,-131 290.25,-89 113.25,-89"/>
<text xml:space="preserve" text-anchor="start" x="158.62" y="-109.7" font-family="Helvetica,sans-Serif" font-weight="bold" font-size="14.00" fill="#233238">Synchronous</text>
<text xml:space="preserve" text-anchor="start" x="122.25" y="-99.5" font-family="Helvetica,sans-Serif" font-size="10.00" fill="#233238">caused by current instruction stream</text>
<polygon fill="#ddeaf1" stroke="none" points="290.25,-89 290.25,-131 458.25,-131 458.25,-89 290.25,-89"/>
<polygon fill="none" stroke="black" points="290.25,-89 290.25,-131 458.25,-131 458.25,-89 290.25,-89"/>
<text xml:space="preserve" text-anchor="start" x="327" y="-109.7" font-family="Helvetica,sans-Serif" font-weight="bold" font-size="14.00" fill="#233238">Asynchronous</text>
<text xml:space="preserve" text-anchor="start" x="299.25" y="-99.5" font-family="Helvetica,sans-Serif" font-size="10.00" fill="#233238">external event preempts execution</text>
<polygon fill="#ddeaf1" stroke="none" points="9,-47 9,-89 113.25,-89 113.25,-47 9,-47"/>
<polygon fill="none" stroke="black" points="9,-47 9,-89 113.25,-89 113.25,-47 9,-47"/>
<text xml:space="preserve" text-anchor="start" x="27" y="-67.7" font-family="Helvetica,sans-Serif" font-weight="bold" font-size="14.00" fill="#233238">Intentional</text>
<text xml:space="preserve" text-anchor="start" x="23.62" y="-57.5" font-family="Helvetica,sans-Serif" font-size="10.00" fill="#233238">request a service</text>
<polygon fill="#bfe2f1" stroke="none" points="113.25,-47 113.25,-89 290.25,-89 290.25,-47 113.25,-47"/>
<polygon fill="none" stroke="black" points="113.25,-47 113.25,-89 290.25,-89 290.25,-47 113.25,-47"/>
<text xml:space="preserve" text-anchor="start" x="164.25" y="-67.7" font-family="Helvetica,sans-Serif" font-weight="bold" font-size="14.00" fill="#233238">System call</text>
<text xml:space="preserve" text-anchor="start" x="147.75" y="-57.5" font-family="Helvetica,sans-Serif" font-size="10.00" fill="#233238">ABI + validation contract</text>
<polygon fill="#f5f5f5" stroke="none" points="290.25,-47 290.25,-89 458.25,-89 458.25,-47 290.25,-47"/>
<polygon fill="none" stroke="black" points="290.25,-47 290.25,-89 458.25,-89 458.25,-47 290.25,-47"/>
<text xml:space="preserve" text-anchor="start" x="317.25" y="-65.38" font-family="Helvetica,sans-Serif" font-size="10.00" fill="#233238">(rare; not the usual model)</text>
<polygon fill="#ddeaf1" stroke="none" points="9,-5 9,-47 113.25,-47 113.25,-5 9,-5"/>
<polygon fill="none" stroke="black" points="9,-5 9,-47 113.25,-47 113.25,-5 9,-5"/>
<text xml:space="preserve" text-anchor="start" x="18" y="-25.7" font-family="Helvetica,sans-Serif" font-weight="bold" font-size="14.00" fill="#233238">Unintentional</text>
<text xml:space="preserve" text-anchor="start" x="19.88" y="-15.5" font-family="Helvetica,sans-Serif" font-size="10.00" fill="#233238">rule violation / fault</text>
<polygon fill="#bfe2f1" stroke="none" points="113.25,-5 113.25,-47 290.25,-47 290.25,-5 113.25,-5"/>
<polygon fill="none" stroke="black" points="113.25,-5 113.25,-47 290.25,-47 290.25,-5 113.25,-5"/>
<text xml:space="preserve" text-anchor="start" x="151.12" y="-25.7" font-family="Helvetica,sans-Serif" font-weight="bold" font-size="14.00" fill="#233238">Exception / trap</text>
<text xml:space="preserve" text-anchor="start" x="147.75" y="-15.5" font-family="Helvetica,sans-Serif" font-size="10.00" fill="#233238">page fault, illegal access</text>
<polygon fill="#bfe2f1" stroke="none" points="290.25,-5 290.25,-47 458.25,-47 458.25,-5 290.25,-5"/>
<polygon fill="none" stroke="black" points="290.25,-5 290.25,-47 458.25,-47 458.25,-5 290.25,-5"/>
<text xml:space="preserve" text-anchor="start" x="346.5" y="-25.7" font-family="Helvetica,sans-Serif" font-weight="bold" font-size="14.00" fill="#233238">Interrupt</text>
<text xml:space="preserve" text-anchor="start" x="321.38" y="-15.5" font-family="Helvetica,sans-Serif" font-size="10.00" fill="#233238">timer, device completion</text>
<polygon fill="none" stroke="black" points="8,-4 8,-165 459.25,-165 459.25,-4 8,-4"/>
</g>
</g>
</svg>
