<?xml version="1.0" encoding="UTF-8" standalone="no"?>
<!DOCTYPE svg PUBLIC "-//W3C//DTD SVG 1.1//EN"
 "http://www.w3.org/Graphics/SVG/1.1/DTD/svg11.dtd">
<!-- Generated by graphviz version 14.1.3 (20260303.0454)
 -->
<!-- Title: G Pages: 1 -->
<svg width="1184pt" height="148pt"
 viewBox="0.00 0.00 1184.00 148.00" xmlns="http://www.w3.org/2000/svg" xmlns:xlink="http://www.w3.org/1999/xlink">
<g id="graph0" class="graph" transform="scale(1 1) rotate(0) translate(18 130)">
<title>G</title>
<polygon fill="white" stroke="none" points="-18,18 -18,-130 1165.95,-130 1165.95,18 -18,18"/>
<!-- control -->
<g id="node1" class="node">
<title>control</title>
<path fill="#bfe2f1" stroke="#5b6b73" d="M139.2,-74C139.2,-74 12,-74 12,-74 6,-74 0,-68 0,-62 0,-62 0,-50 0,-50 0,-44 6,-38 12,-38 12,-38 139.2,-38 139.2,-38 145.2,-38 151.2,-44 151.2,-50 151.2,-50 151.2,-62 151.2,-62 151.2,-68 145.2,-74 139.2,-74"/>
<text xml:space="preserve" text-anchor="middle" x="75.6" y="-50.2" font-family="Helvetica,sans-Serif" font-size="14.00" fill="#233238">OS as control system</text>
</g>
<!-- authority -->
<g id="node2" class="node">
<title>authority</title>
<path fill="#ddeaf1" stroke="#5b6b73" d="M467.2,-75C467.2,-75 319.95,-75 319.95,-75 313.95,-75 307.95,-69 307.95,-63 307.95,-63 307.95,-49 307.95,-49 307.95,-43 313.95,-37 319.95,-37 319.95,-37 467.2,-37 467.2,-37 473.2,-37 479.2,-43 479.2,-49 479.2,-49 479.2,-63 479.2,-63 479.2,-69 473.2,-75 467.2,-75"/>
<text xml:space="preserve" text-anchor="middle" x="393.57" y="-57.7" font-family="Helvetica,sans-Serif" font-size="14.00" fill="#233238">kernel as trusted authority</text>
<text xml:space="preserve" text-anchor="middle" x="393.57" y="-42.7" font-family="Helvetica,sans-Serif" font-size="14.00" fill="#233238">(enforcement boundary)</text>
</g>
<!-- control&#45;&gt;authority -->
<g id="edge1" class="edge">
<title>control&#45;&gt;authority</title>
<path fill="none" stroke="#5b6b73" stroke-width="1.05" d="M151.48,-56C195.54,-56 251.66,-56 298.67,-56"/>
<polygon fill="#5b6b73" stroke="#5b6b73" stroke-width="1.05" points="298.55,-58.63 306.05,-56 298.55,-53.38 298.55,-58.63"/>
<text xml:space="preserve" text-anchor="middle" x="229.57" y="-59.2" font-family="Times,serif" font-size="14.00">needs enforcement</text>
</g>
<!-- scarcity -->
<g id="node3" class="node">
<title>scarcity</title>
<path fill="#e6f3f9" stroke="#5b6b73" d="M773.07,-112C773.07,-112 640.07,-112 640.07,-112 634.07,-112 628.07,-106 628.07,-100 628.07,-100 628.07,-86 628.07,-86 628.07,-80 634.07,-74 640.07,-74 640.07,-74 773.07,-74 773.07,-74 779.07,-74 785.07,-80 785.07,-86 785.07,-86 785.07,-100 785.07,-100 785.07,-106 779.07,-112 773.07,-112"/>
<text xml:space="preserve" text-anchor="middle" x="706.57" y="-94.7" font-family="Helvetica,sans-Serif" font-size="14.00" fill="#233238">concurrency as scarcity</text>
<text xml:space="preserve" text-anchor="middle" x="706.57" y="-79.7" font-family="Helvetica,sans-Serif" font-size="14.00" fill="#233238">(scheduling, buffering)</text>
</g>
<!-- authority&#45;&gt;scarcity -->
<g id="edge2" class="edge">
<title>authority&#45;&gt;scarcity</title>
<path fill="none" stroke="#5b6b73" stroke-width="1.05" d="M479.56,-66.11C522.8,-71.25 575.27,-77.5 618.77,-82.67"/>
<polygon fill="#5b6b73" stroke="#5b6b73" stroke-width="1.05" points="618.29,-85.26 626.05,-83.54 618.91,-80.05 618.29,-85.26"/>
<text xml:space="preserve" text-anchor="middle" x="550.45" y="-82.1" font-family="Times,serif" font-size="14.00">multiplex safely</text>
</g>
<!-- copies -->
<g id="node4" class="node">
<title>copies</title>
<path fill="#e6f3f9" stroke="#5b6b73" d="M779.45,-38C779.45,-38 633.7,-38 633.7,-38 627.7,-38 621.7,-32 621.7,-26 621.7,-26 621.7,-12 621.7,-12 621.7,-6 627.7,0 633.7,0 633.7,0 779.45,0 779.45,0 785.45,0 791.45,-6 791.45,-12 791.45,-12 791.45,-26 791.45,-26 791.45,-32 785.45,-38 779.45,-38"/>
<text xml:space="preserve" text-anchor="middle" x="706.57" y="-20.7" font-family="Helvetica,sans-Serif" font-size="14.00" fill="#233238">copies create correctness</text>
<text xml:space="preserve" text-anchor="middle" x="706.57" y="-5.7" font-family="Helvetica,sans-Serif" font-size="14.00" fill="#233238">(coherence + durability)</text>
</g>
<!-- authority&#45;&gt;copies -->
<g id="edge3" class="edge">
<title>authority&#45;&gt;copies</title>
<path fill="none" stroke="#5b6b73" stroke-width="1.05" d="M479.56,-45.89C520.69,-41 570.18,-35.11 612.35,-30.09"/>
<polygon fill="#5b6b73" stroke="#5b6b73" stroke-width="1.05" points="612.52,-32.71 619.66,-29.22 611.9,-27.5 612.52,-32.71"/>
<text xml:space="preserve" text-anchor="middle" x="550.45" y="-45.1" font-family="Times,serif" font-size="14.00">define authority</text>
</g>
<!-- scale -->
<g id="node5" class="node">
<title>scale</title>
<path fill="#e6f3f9" stroke="#5b6b73" d="M1135.95,-75C1135.95,-75 987.95,-75 987.95,-75 981.95,-75 975.95,-69 975.95,-63 975.95,-63 975.95,-49 975.95,-49 975.95,-43 981.95,-37 987.95,-37 987.95,-37 1135.95,-37 1135.95,-37 1141.95,-37 1147.95,-43 1147.95,-49 1147.95,-49 1147.95,-63 1147.95,-63 1147.95,-69 1141.95,-75 1135.95,-75"/>
<text xml:space="preserve" text-anchor="middle" x="1061.95" y="-57.7" font-family="Helvetica,sans-Serif" font-size="14.00" fill="#233238">scaling changes failure</text>
<text xml:space="preserve" text-anchor="middle" x="1061.95" y="-42.7" font-family="Helvetica,sans-Serif" font-size="14.00" fill="#233238">(contention, partial failure)</text>
</g>
<!-- scarcity&#45;&gt;scale -->
<g id="edge4" class="edge">
<title>scarcity&#45;&gt;scale</title>
<path fill="none" stroke="#5b6b73" stroke-width="1.05" d="M785.56,-84.83C839,-79.24 910.18,-71.79 966.79,-65.86"/>
<polygon fill="#5b6b73" stroke="#5b6b73" stroke-width="1.05" points="966.98,-68.48 974.16,-65.09 966.43,-63.26 966.98,-68.48"/>
<text xml:space="preserve" text-anchor="middle" x="883.7" y="-84.23" font-family="Times,serif" font-size="14.00">coordination costs grow</text>
</g>
<!-- copies&#45;&gt;scale -->
<g id="edge5" class="edge">
<title>copies&#45;&gt;scale</title>
<path fill="none" stroke="#5b6b73" stroke-width="1.05" d="M791.68,-26.71C838.09,-31.09 896.73,-36.81 948.95,-42.5 954.77,-43.13 960.76,-43.8 966.8,-44.49"/>
<polygon fill="#5b6b73" stroke="#5b6b73" stroke-width="1.05" points="966.34,-47.08 974.09,-45.33 966.94,-41.87 966.34,-47.08"/>
<text xml:space="preserve" text-anchor="middle" x="883.7" y="-45.7" font-family="Times,serif" font-size="14.00">more replicas/caches</text>
</g>
</g>
</svg>
