<?xml version="1.0" encoding="UTF-8" standalone="no"?>
<!DOCTYPE svg PUBLIC "-//W3C//DTD SVG 1.1//EN"
 "http://www.w3.org/Graphics/SVG/1.1/DTD/svg11.dtd">
<!-- Generated by graphviz version 14.1.3 (20260303.0454)
 -->
<!-- Title: G Pages: 1 -->
<svg width="909pt" height="218pt"
 viewBox="0.00 0.00 909.00 218.00" xmlns="http://www.w3.org/2000/svg" xmlns:xlink="http://www.w3.org/1999/xlink">
<g id="graph0" class="graph" transform="scale(1 1) rotate(0) translate(18 199.5)">
<title>G</title>
<polygon fill="white" stroke="none" points="-18,18 -18,-199.5 890.5,-199.5 890.5,18 -18,18"/>
<text xml:space="preserve" text-anchor="middle" x="436.25" y="-164.2" font-family="Times,serif" font-size="14.00">Control loop: timer/traps re&#45;enter the kernel; scheduler returns to user code</text>
<g id="clust1" class="cluster">
<title>cluster_kernel</title>
<path fill="#eaf6fb" stroke="#9ec9da" d="M416.5,-41C416.5,-41 852.5,-41 852.5,-41 858.5,-41 864.5,-47 864.5,-53 864.5,-53 864.5,-108 864.5,-108 864.5,-114 858.5,-120 852.5,-120 852.5,-120 416.5,-120 416.5,-120 410.5,-120 404.5,-114 404.5,-108 404.5,-108 404.5,-53 404.5,-53 404.5,-47 410.5,-41 416.5,-41"/>
<text xml:space="preserve" text-anchor="middle" x="634.5" y="-102.7" font-family="Times,serif" font-size="14.00">kernel control path</text>
</g>
<!-- cpu -->
<g id="node1" class="node">
<title>cpu</title>
<path fill="#f5f5f5" stroke="#5b6b73" d="M90.25,-87C90.25,-87 12,-87 12,-87 6,-87 0,-81 0,-75 0,-75 0,-61 0,-61 0,-55 6,-49 12,-49 12,-49 90.25,-49 90.25,-49 96.25,-49 102.25,-55 102.25,-61 102.25,-61 102.25,-75 102.25,-75 102.25,-81 96.25,-87 90.25,-87"/>
<text xml:space="preserve" text-anchor="middle" x="51.12" y="-69.7" font-family="Helvetica,sans-Serif" font-size="14.00" fill="#233238">CPU executes</text>
<text xml:space="preserve" text-anchor="middle" x="51.12" y="-54.7" font-family="Helvetica,sans-Serif" font-size="14.00" fill="#233238">user code</text>
</g>
<!-- timer -->
<g id="node2" class="node">
<title>timer</title>
<path fill="#ddeaf1" stroke="#5b6b73" d="M305.5,-157C305.5,-157 229.5,-157 229.5,-157 223.5,-157 217.5,-151 217.5,-145 217.5,-145 217.5,-131 217.5,-131 217.5,-125 223.5,-119 229.5,-119 229.5,-119 305.5,-119 305.5,-119 311.5,-119 317.5,-125 317.5,-131 317.5,-131 317.5,-145 317.5,-145 317.5,-151 311.5,-157 305.5,-157"/>
<text xml:space="preserve" text-anchor="middle" x="267.5" y="-139.7" font-family="Helvetica,sans-Serif" font-size="14.00" fill="#233238">timer interrupt</text>
<text xml:space="preserve" text-anchor="middle" x="267.5" y="-124.7" font-family="Helvetica,sans-Serif" font-size="14.00" fill="#233238">(preemption)</text>
</g>
<!-- cpu&#45;&gt;timer -->
<g id="edge4" class="edge">
<title>cpu&#45;&gt;timer</title>
<path fill="none" stroke="#5b6b73" stroke-width="1.05" d="M102.66,-84.5C134.5,-94.9 175.69,-108.35 208.81,-119.16"/>
<polygon fill="#5b6b73" stroke="#5b6b73" stroke-width="1.05" points="207.59,-121.53 215.54,-121.36 209.22,-116.54 207.59,-121.53"/>
<text xml:space="preserve" text-anchor="middle" x="159.88" y="-115.11" font-family="Helvetica,sans-Serif" font-size="10.00">time slice</text>
</g>
<!-- trap -->
<g id="node3" class="node">
<title>trap</title>
<path fill="#ddeaf1" stroke="#5b6b73" d="M302.12,-87C302.12,-87 232.88,-87 232.88,-87 226.88,-87 220.88,-81 220.88,-75 220.88,-75 220.88,-61 220.88,-61 220.88,-55 226.88,-49 232.88,-49 232.88,-49 302.12,-49 302.12,-49 308.12,-49 314.12,-55 314.12,-61 314.12,-61 314.12,-75 314.12,-75 314.12,-81 308.12,-87 302.12,-87"/>
<text xml:space="preserve" text-anchor="middle" x="267.5" y="-69.7" font-family="Helvetica,sans-Serif" font-size="14.00" fill="#233238">syscall / fault</text>
<text xml:space="preserve" text-anchor="middle" x="267.5" y="-54.7" font-family="Helvetica,sans-Serif" font-size="14.00" fill="#233238">(trap)</text>
</g>
<!-- cpu&#45;&gt;trap -->
<g id="edge3" class="edge">
<title>cpu&#45;&gt;trap</title>
<path fill="none" stroke="#5b6b73" stroke-width="1.05" d="M102.66,-68C135.5,-68 178.29,-68 211.91,-68"/>
<polygon fill="#5b6b73" stroke="#5b6b73" stroke-width="1.05" points="211.6,-70.63 219.1,-68 211.6,-65.38 211.6,-70.63"/>
<text xml:space="preserve" text-anchor="middle" x="159.88" y="-69.75" font-family="Helvetica,sans-Serif" font-size="10.00">request/violation</text>
</g>
<!-- sched -->
<g id="node4" class="node">
<title>sched</title>
<path fill="#bfe2f1" stroke="#5b6b73" d="M492.25,-87C492.25,-87 424.5,-87 424.5,-87 418.5,-87 412.5,-81 412.5,-75 412.5,-75 412.5,-61 412.5,-61 412.5,-55 418.5,-49 424.5,-49 424.5,-49 492.25,-49 492.25,-49 498.25,-49 504.25,-55 504.25,-61 504.25,-61 504.25,-75 504.25,-75 504.25,-81 498.25,-87 492.25,-87"/>
<text xml:space="preserve" text-anchor="middle" x="458.38" y="-69.7" font-family="Helvetica,sans-Serif" font-size="14.00" fill="#233238">scheduler</text>
<text xml:space="preserve" text-anchor="middle" x="458.38" y="-54.7" font-family="Helvetica,sans-Serif" font-size="14.00" fill="#233238">decides next</text>
</g>
<!-- timer&#45;&gt;sched -->
<g id="edge6" class="edge">
<title>timer&#45;&gt;sched</title>
<path fill="none" stroke="#5b6b73" stroke-width="1.05" d="M317.63,-119.79C344.08,-109.99 376.74,-97.88 403.83,-87.84"/>
<polygon fill="#5b6b73" stroke="#5b6b73" stroke-width="1.05" points="404.44,-90.42 410.56,-85.35 402.62,-85.5 404.44,-90.42"/>
<text xml:space="preserve" text-anchor="middle" x="365" y="-113.08" font-family="Helvetica,sans-Serif" font-size="10.00">enter kernel</text>
</g>
<!-- trap&#45;&gt;sched -->
<g id="edge5" class="edge">
<title>trap&#45;&gt;sched</title>
<path fill="none" stroke="#5b6b73" stroke-width="1.05" d="M314.22,-68C341.02,-68 375.02,-68 403.16,-68"/>
<polygon fill="#5b6b73" stroke="#5b6b73" stroke-width="1.05" points="402.99,-70.63 410.49,-68 402.99,-65.38 402.99,-70.63"/>
<text xml:space="preserve" text-anchor="middle" x="365" y="-69.75" font-family="Helvetica,sans-Serif" font-size="10.00">enter kernel</text>
</g>
<!-- rq -->
<g id="node5" class="node">
<title>rq</title>
<path fill="#d5edf7" stroke="#5b6b73" d="M667.25,-87C667.25,-87 561.25,-87 561.25,-87 555.25,-87 549.25,-81 549.25,-75 549.25,-75 549.25,-61 549.25,-61 549.25,-55 555.25,-49 561.25,-49 561.25,-49 667.25,-49 667.25,-49 673.25,-49 679.25,-55 679.25,-61 679.25,-61 679.25,-75 679.25,-75 679.25,-81 673.25,-87 667.25,-87"/>
<text xml:space="preserve" text-anchor="middle" x="614.25" y="-69.7" font-family="Helvetica,sans-Serif" font-size="14.00" fill="#233238">runnable set</text>
<text xml:space="preserve" text-anchor="middle" x="614.25" y="-54.7" font-family="Helvetica,sans-Serif" font-size="14.00" fill="#233238">(queues/metadata)</text>
</g>
<!-- sched&#45;&gt;rq -->
<g id="edge1" class="edge">
<title>sched&#45;&gt;rq</title>
<path fill="none" stroke="#5b6b73" stroke-width="1.05" d="M504.71,-68C515.84,-68 528.03,-68 540.11,-68"/>
<polygon fill="#5b6b73" stroke="#5b6b73" stroke-width="1.05" points="539.77,-70.63 547.27,-68 539.77,-65.38 539.77,-70.63"/>
</g>
<!-- dispatch -->
<g id="node6" class="node">
<title>dispatch</title>
<path fill="#bfe2f1" stroke="#5b6b73" d="M844.5,-87C844.5,-87 736.25,-87 736.25,-87 730.25,-87 724.25,-81 724.25,-75 724.25,-75 724.25,-61 724.25,-61 724.25,-55 730.25,-49 736.25,-49 736.25,-49 844.5,-49 844.5,-49 850.5,-49 856.5,-55 856.5,-61 856.5,-61 856.5,-75 856.5,-75 856.5,-81 850.5,-87 844.5,-87"/>
<text xml:space="preserve" text-anchor="middle" x="790.38" y="-69.7" font-family="Helvetica,sans-Serif" font-size="14.00" fill="#233238">dispatcher</text>
<text xml:space="preserve" text-anchor="middle" x="790.38" y="-54.7" font-family="Helvetica,sans-Serif" font-size="14.00" fill="#233238">(save/restore state)</text>
</g>
<!-- rq&#45;&gt;dispatch -->
<g id="edge2" class="edge">
<title>rq&#45;&gt;dispatch</title>
<path fill="none" stroke="#5b6b73" stroke-width="1.05" d="M679.59,-68C691.1,-68 703.17,-68 714.93,-68"/>
<polygon fill="#5b6b73" stroke="#5b6b73" stroke-width="1.05" points="714.75,-70.63 722.25,-68 714.75,-65.38 714.75,-70.63"/>
</g>
<!-- dispatch&#45;&gt;cpu -->
<g id="edge7" class="edge">
<title>dispatch&#45;&gt;cpu</title>
<path fill="none" stroke="#5b6b73" stroke-width="1.05" d="M759.61,-48.51C726,-28.42 668.96,0 615.25,0 266.5,0 266.5,0 266.5,0 205.92,0 140.02,-24.98 97.51,-44.66"/>
<polygon fill="#5b6b73" stroke="#5b6b73" stroke-width="1.05" points="96.43,-42.26 90.77,-47.84 98.67,-47.01 96.43,-42.26"/>
<text xml:space="preserve" text-anchor="middle" x="458.38" y="-1.75" font-family="Helvetica,sans-Serif" font-size="10.00">return to user</text>
</g>
</g>
</svg>
