<?xml version="1.0" encoding="UTF-8" standalone="no"?>
<!DOCTYPE svg PUBLIC "-//W3C//DTD SVG 1.1//EN"
 "http://www.w3.org/Graphics/SVG/1.1/DTD/svg11.dtd">
<!-- Generated by graphviz version 14.1.3 (20260303.0454)
 -->
<!-- Title: G Pages: 1 -->
<svg width="1797pt" height="224pt"
 viewBox="0.00 0.00 1797.00 224.00" xmlns="http://www.w3.org/2000/svg" xmlns:xlink="http://www.w3.org/1999/xlink">
<g id="graph0" class="graph" transform="scale(1 1) rotate(0) translate(18 205.5)">
<title>G</title>
<polygon fill="white" stroke="none" points="-18,18 -18,-205.5 1779.25,-205.5 1779.25,18 -18,18"/>
<g id="clust1" class="cluster">
<title>cluster_cache</title>
<path fill="#eaf6fb" stroke="#9ec9da" d="M645.75,-72.5C645.75,-72.5 1151.25,-72.5 1151.25,-72.5 1157.25,-72.5 1163.25,-78.5 1163.25,-84.5 1163.25,-84.5 1163.25,-167.5 1163.25,-167.5 1163.25,-173.5 1157.25,-179.5 1151.25,-179.5 1151.25,-179.5 645.75,-179.5 645.75,-179.5 639.75,-179.5 633.75,-173.5 633.75,-167.5 633.75,-167.5 633.75,-84.5 633.75,-84.5 633.75,-78.5 639.75,-72.5 645.75,-72.5"/>
<text xml:space="preserve" text-anchor="middle" x="898.5" y="-162.2" font-family="Times,serif" font-size="14.00">kernel in&#45;memory copies</text>
</g>
<!-- app -->
<g id="node1" class="node">
<title>app</title>
<path fill="#f5f5f5" stroke="#5b6b73" d="M165.25,-75.5C165.25,-75.5 12,-75.5 12,-75.5 6,-75.5 0,-69.5 0,-63.5 0,-63.5 0,-49.5 0,-49.5 0,-43.5 6,-37.5 12,-37.5 12,-37.5 165.25,-37.5 165.25,-37.5 171.25,-37.5 177.25,-43.5 177.25,-49.5 177.25,-49.5 177.25,-63.5 177.25,-63.5 177.25,-69.5 171.25,-75.5 165.25,-75.5"/>
<text xml:space="preserve" text-anchor="middle" x="88.62" y="-58.2" font-family="Helvetica,sans-Serif" font-size="14.00" fill="#233238">user process</text>
<text xml:space="preserve" text-anchor="middle" x="88.62" y="-43.2" font-family="Helvetica,sans-Serif" font-size="14.00" fill="#233238">(owns buf in user memory)</text>
</g>
<!-- sys -->
<g id="node2" class="node">
<title>sys</title>
<path fill="#d5edf7" stroke="#5b6b73" d="M478.25,-75.5C478.25,-75.5 333.25,-75.5 333.25,-75.5 327.25,-75.5 321.25,-69.5 321.25,-63.5 321.25,-63.5 321.25,-49.5 321.25,-49.5 321.25,-43.5 327.25,-37.5 333.25,-37.5 333.25,-37.5 478.25,-37.5 478.25,-37.5 484.25,-37.5 490.25,-43.5 490.25,-49.5 490.25,-49.5 490.25,-63.5 490.25,-63.5 490.25,-69.5 484.25,-75.5 478.25,-75.5"/>
<text xml:space="preserve" text-anchor="middle" x="405.75" y="-58.2" font-family="Helvetica,sans-Serif" font-size="14.00" fill="#233238">syscall boundary</text>
<text xml:space="preserve" text-anchor="middle" x="405.75" y="-43.2" font-family="Helvetica,sans-Serif" font-size="14.00" fill="#233238">(copyin/copyout, validate)</text>
</g>
<!-- app&#45;&gt;sys -->
<g id="edge1" class="edge">
<title>app&#45;&gt;sys</title>
<path fill="none" stroke="#5b6b73" stroke-width="1.05" d="M177.4,-56.5C219.32,-56.5 269.48,-56.5 312.01,-56.5"/>
<polygon fill="#5b6b73" stroke="#5b6b73" stroke-width="1.05" points="311.88,-59.13 319.38,-56.5 311.88,-53.88 311.88,-59.13"/>
<text xml:space="preserve" text-anchor="middle" x="249.25" y="-58.2" font-family="Helvetica,sans-Serif" font-size="14.00">write(fd, buf, n)</text>
</g>
<!-- pcache -->
<g id="node3" class="node">
<title>pcache</title>
<path fill="#bfe2f1" stroke="#5b6b73" d="M756.75,-127.5C756.75,-127.5 653.75,-127.5 653.75,-127.5 647.75,-127.5 641.75,-121.5 641.75,-115.5 641.75,-115.5 641.75,-101.5 641.75,-101.5 641.75,-95.5 647.75,-89.5 653.75,-89.5 653.75,-89.5 756.75,-89.5 756.75,-89.5 762.75,-89.5 768.75,-95.5 768.75,-101.5 768.75,-101.5 768.75,-115.5 768.75,-115.5 768.75,-121.5 762.75,-127.5 756.75,-127.5"/>
<text xml:space="preserve" text-anchor="middle" x="705.25" y="-110.2" font-family="Helvetica,sans-Serif" font-size="14.00" fill="#233238">page cache</text>
<text xml:space="preserve" text-anchor="middle" x="705.25" y="-95.2" font-family="Helvetica,sans-Serif" font-size="14.00" fill="#233238">(dirty/clean pages)</text>
</g>
<!-- sys&#45;&gt;pcache -->
<g id="edge2" class="edge">
<title>sys&#45;&gt;pcache</title>
<path fill="none" stroke="#5b6b73" stroke-width="1.05" d="M490.41,-71.12C535.18,-78.95 589.74,-88.48 632.54,-95.97"/>
<polygon fill="#5b6b73" stroke="#5b6b73" stroke-width="1.05" points="632.09,-98.55 639.93,-97.26 632.99,-93.38 632.09,-98.55"/>
<text xml:space="preserve" text-anchor="middle" x="549.5" y="-102.31" font-family="Helvetica,sans-Serif" font-size="14.00">copy bytes</text>
<text xml:space="preserve" text-anchor="middle" x="549.5" y="-87.31" font-family="Helvetica,sans-Serif" font-size="14.00">mark dirty</text>
</g>
<!-- note1 -->
<g id="node6" class="node">
<title>note1</title>
<polygon fill="#ffffff" stroke="#9aa7ae" points="795.75,-53 608.75,-53 608.75,0 801.75,0 801.75,-47 795.75,-53"/>
<polyline fill="none" stroke="#9aa7ae" points="795.75,-53 795.75,-47"/>
<polyline fill="none" stroke="#9aa7ae" points="801.75,-47 795.75,-47"/>
<text xml:space="preserve" text-anchor="middle" x="705.25" y="-35.7" font-family="Helvetica,sans-Serif" font-size="14.00" fill="#233238">acceptance point:</text>
<text xml:space="preserve" text-anchor="middle" x="705.25" y="-20.7" font-family="Helvetica,sans-Serif" font-size="14.00" fill="#233238">write() returns when data is</text>
<text xml:space="preserve" text-anchor="middle" x="705.25" y="-5.7" font-family="Helvetica,sans-Serif" font-size="14.00" fill="#233238">accepted into kernel buffering</text>
</g>
<!-- sys&#45;&gt;note1 -->
<g id="edge6" class="edge">
<title>sys&#45;&gt;note1</title>
<path fill="none" stroke="#5b6b73" stroke-width="1.05" stroke-dasharray="1,5" d="M490.41,-48.06C527.1,-44.36 570.38,-40 608.37,-36.17"/>
</g>
<!-- jnl -->
<g id="node4" class="node">
<title>jnl</title>
<path fill="#ddeaf1" stroke="#5b6b73" d="M1143.25,-141.5C1143.25,-141.5 1011,-141.5 1011,-141.5 1005,-141.5 999,-135.5 999,-129.5 999,-129.5 999,-115.5 999,-115.5 999,-109.5 1005,-103.5 1011,-103.5 1011,-103.5 1143.25,-103.5 1143.25,-103.5 1149.25,-103.5 1155.25,-109.5 1155.25,-115.5 1155.25,-115.5 1155.25,-129.5 1155.25,-129.5 1155.25,-135.5 1149.25,-141.5 1143.25,-141.5"/>
<text xml:space="preserve" text-anchor="middle" x="1077.12" y="-124.2" font-family="Helvetica,sans-Serif" font-size="14.00" fill="#233238">journal / log (optional)</text>
<text xml:space="preserve" text-anchor="middle" x="1077.12" y="-109.2" font-family="Helvetica,sans-Serif" font-size="14.00" fill="#233238">(ordering + crash rules)</text>
</g>
<!-- pcache&#45;&gt;jnl -->
<g id="edge3" class="edge">
<title>pcache&#45;&gt;jnl</title>
<path fill="none" stroke="#5b6b73" stroke-width="1.05" d="M768.99,-110.87C829.65,-113.17 922.04,-116.67 989.65,-119.23"/>
<polygon fill="#5b6b73" stroke="#5b6b73" stroke-width="1.05" points="989.42,-121.85 997.02,-119.51 989.62,-116.6 989.42,-121.85"/>
<text xml:space="preserve" text-anchor="middle" x="900.38" y="-135.06" font-family="Helvetica,sans-Serif" font-size="14.00">record intent / metadata</text>
<text xml:space="preserve" text-anchor="middle" x="900.38" y="-120.06" font-family="Helvetica,sans-Serif" font-size="14.00">(if journaling)</text>
</g>
<!-- disk -->
<g id="node5" class="node">
<title>disk</title>
<path fill="#f2d6d6" stroke="#5b6b73" d="M1491.5,-94C1491.5,-94 1337.5,-94 1337.5,-94 1331.5,-94 1325.5,-88 1325.5,-82 1325.5,-82 1325.5,-53 1325.5,-53 1325.5,-47 1331.5,-41 1337.5,-41 1337.5,-41 1491.5,-41 1491.5,-41 1497.5,-41 1503.5,-47 1503.5,-53 1503.5,-53 1503.5,-82 1503.5,-82 1503.5,-88 1497.5,-94 1491.5,-94"/>
<text xml:space="preserve" text-anchor="middle" x="1414.5" y="-76.7" font-family="Helvetica,sans-Serif" font-size="14.00" fill="#233238">persistent storage</text>
<text xml:space="preserve" text-anchor="middle" x="1414.5" y="-61.7" font-family="Helvetica,sans-Serif" font-size="14.00" fill="#233238">(SSD/HDD)</text>
<text xml:space="preserve" text-anchor="middle" x="1414.5" y="-46.7" font-family="Helvetica,sans-Serif" font-size="14.00" fill="#233238">(authoritative after commit)</text>
</g>
<!-- pcache&#45;&gt;disk -->
<g id="edge5" class="edge">
<title>pcache&#45;&gt;disk</title>
<path fill="none" stroke="#5b6b73" stroke-width="1.05" stroke-dasharray="5,2" d="M769.19,-93.73C828.18,-80.69 919,-62.68 999,-55.5 1071.71,-48.97 1090.27,-53.75 1163.25,-55.5 1213.8,-56.71 1270.05,-59.3 1316.4,-61.76"/>
<polygon fill="#5b6b73" stroke="#5b6b73" stroke-width="1.05" points="1316.01,-64.37 1323.64,-62.15 1316.29,-59.13 1316.01,-64.37"/>
<text xml:space="preserve" text-anchor="middle" x="1077.12" y="-72.2" font-family="Helvetica,sans-Serif" font-size="14.00">data writeback</text>
<text xml:space="preserve" text-anchor="middle" x="1077.12" y="-57.2" font-family="Helvetica,sans-Serif" font-size="14.00">(eventual)</text>
</g>
<!-- jnl&#45;&gt;disk -->
<g id="edge4" class="edge">
<title>jnl&#45;&gt;disk</title>
<path fill="none" stroke="#5b6b73" stroke-width="1.05" d="M1155.49,-109.81C1203.4,-101.96 1265.33,-91.8 1316.51,-83.41"/>
<polygon fill="#5b6b73" stroke="#5b6b73" stroke-width="1.05" points="1316.74,-86.03 1323.71,-82.22 1315.89,-80.85 1316.74,-86.03"/>
<text xml:space="preserve" text-anchor="middle" x="1240.38" y="-121.41" font-family="Helvetica,sans-Serif" font-size="14.00">commit barrier</text>
<text xml:space="preserve" text-anchor="middle" x="1240.38" y="-106.41" font-family="Helvetica,sans-Serif" font-size="14.00">(ordered writeback)</text>
</g>
<!-- note2 -->
<g id="node7" class="node">
<title>note2</title>
<polygon fill="#ffffff" stroke="#9aa7ae" points="1755.25,-94 1558.5,-94 1558.5,-41 1761.25,-41 1761.25,-88 1755.25,-94"/>
<polyline fill="none" stroke="#9aa7ae" points="1755.25,-94 1755.25,-88"/>
<polyline fill="none" stroke="#9aa7ae" points="1761.25,-88 1755.25,-88"/>
<text xml:space="preserve" text-anchor="middle" x="1659.88" y="-76.7" font-family="Helvetica,sans-Serif" font-size="14.00" fill="#233238">durability point:</text>
<text xml:space="preserve" text-anchor="middle" x="1659.88" y="-61.7" font-family="Helvetica,sans-Serif" font-size="14.00" fill="#233238">commit after ordered writeback</text>
<text xml:space="preserve" text-anchor="middle" x="1659.88" y="-46.7" font-family="Helvetica,sans-Serif" font-size="14.00" fill="#233238">(fs rules, fsync barrier)</text>
</g>
<!-- disk&#45;&gt;note2 -->
<g id="edge7" class="edge">
<title>disk&#45;&gt;note2</title>
<path fill="none" stroke="#5b6b73" stroke-width="1.05" stroke-dasharray="1,5" d="M1503.71,-67.5C1521.39,-67.5 1540.1,-67.5 1558.17,-67.5"/>
</g>
</g>
</svg>
