<?xml version="1.0" encoding="UTF-8" standalone="no"?>
<!DOCTYPE svg PUBLIC "-//W3C//DTD SVG 1.1//EN"
 "http://www.w3.org/Graphics/SVG/1.1/DTD/svg11.dtd">
<!-- Generated by graphviz version 14.1.3 (20260303.0454)
 -->
<!-- Title: G Pages: 1 -->
<svg width="785pt" height="394pt"
 viewBox="0.00 0.00 785.00 394.00" xmlns="http://www.w3.org/2000/svg" xmlns:xlink="http://www.w3.org/1999/xlink">
<g id="graph0" class="graph" transform="scale(1 1) rotate(0) translate(18 376)">
<title>G</title>
<polygon fill="white" stroke="none" points="-18,18 -18,-376 767.25,-376 767.25,18 -18,18"/>
<g id="clust1" class="cluster">
<title>cluster_sock0</title>
<path fill="#eaf6fb" stroke="#9ec9da" d="M20,-239C20,-239 425.5,-239 425.5,-239 431.5,-239 437.5,-245 437.5,-251 437.5,-251 437.5,-338 437.5,-338 437.5,-344 431.5,-350 425.5,-350 425.5,-350 20,-350 20,-350 14,-350 8,-344 8,-338 8,-338 8,-251 8,-251 8,-245 14,-239 20,-239"/>
<text xml:space="preserve" text-anchor="middle" x="222.75" y="-332.7" font-family="Times,serif" font-size="14.00">socket 0</text>
</g>
<g id="clust2" class="cluster">
<title>cluster_sock1</title>
<path fill="#eaf6fb" stroke="#9ec9da" d="M20,-8C20,-8 425.5,-8 425.5,-8 431.5,-8 437.5,-14 437.5,-20 437.5,-20 437.5,-107 437.5,-107 437.5,-113 431.5,-119 425.5,-119 425.5,-119 20,-119 20,-119 14,-119 8,-113 8,-107 8,-107 8,-20 8,-20 8,-14 14,-8 20,-8"/>
<text xml:space="preserve" text-anchor="middle" x="222.75" y="-101.7" font-family="Times,serif" font-size="14.00">socket 1</text>
</g>
<!-- cpu0 -->
<g id="node1" class="node">
<title>cpu0</title>
<path fill="#bfe2f1" stroke="#5b6b73" d="M146.75,-295C146.75,-295 28,-295 28,-295 22,-295 16,-289 16,-283 16,-283 16,-269 16,-269 16,-263 22,-257 28,-257 28,-257 146.75,-257 146.75,-257 152.75,-257 158.75,-263 158.75,-269 158.75,-269 158.75,-283 158.75,-283 158.75,-289 152.75,-295 146.75,-295"/>
<text xml:space="preserve" text-anchor="middle" x="87.38" y="-277.7" font-family="Helvetica,sans-Serif" font-size="14.00" fill="#233238">CPU 0 cores</text>
<text xml:space="preserve" text-anchor="middle" x="87.38" y="-262.7" font-family="Helvetica,sans-Serif" font-size="14.00" fill="#233238">(run queues, caches)</text>
</g>
<!-- mem0 -->
<g id="node2" class="node">
<title>mem0</title>
<path fill="#ddeaf1" stroke="#5b6b73" d="M417.5,-314C417.5,-314 332.5,-314 332.5,-314 326.5,-314 320.5,-308 320.5,-302 320.5,-302 320.5,-288 320.5,-288 320.5,-282 326.5,-276 332.5,-276 332.5,-276 417.5,-276 417.5,-276 423.5,-276 429.5,-282 429.5,-288 429.5,-288 429.5,-302 429.5,-302 429.5,-308 423.5,-314 417.5,-314"/>
<text xml:space="preserve" text-anchor="middle" x="375" y="-296.7" font-family="Helvetica,sans-Serif" font-size="14.00" fill="#233238">local memory 0</text>
<text xml:space="preserve" text-anchor="middle" x="375" y="-281.7" font-family="Helvetica,sans-Serif" font-size="14.00" fill="#233238">(low latency)</text>
</g>
<!-- cpu0&#45;&gt;mem0 -->
<g id="edge1" class="edge">
<title>cpu0&#45;&gt;mem0</title>
<path fill="none" stroke="#5b6b73" stroke-width="1.05" d="M158.98,-280.7C205.65,-283.8 266.29,-287.84 311.27,-290.83"/>
<polygon fill="#5b6b73" stroke="#5b6b73" stroke-width="1.05" points="311.09,-293.45 318.75,-291.32 311.44,-288.21 311.09,-293.45"/>
<text xml:space="preserve" text-anchor="middle" x="235.5" y="-305.01" font-family="Helvetica,sans-Serif" font-size="14.00">local access</text>
<text xml:space="preserve" text-anchor="middle" x="235.5" y="-290.01" font-family="Helvetica,sans-Serif" font-size="14.00">fast</text>
</g>
<!-- fabric -->
<g id="node5" class="node">
<title>fabric</title>
<path fill="#f5f5f5" stroke="#5b6b73" d="M425.75,-196.5C425.75,-196.5 324.25,-196.5 324.25,-196.5 318.25,-196.5 312.25,-190.5 312.25,-184.5 312.25,-184.5 312.25,-155.5 312.25,-155.5 312.25,-149.5 318.25,-143.5 324.25,-143.5 324.25,-143.5 425.75,-143.5 425.75,-143.5 431.75,-143.5 437.75,-149.5 437.75,-155.5 437.75,-155.5 437.75,-184.5 437.75,-184.5 437.75,-190.5 431.75,-196.5 425.75,-196.5"/>
<text xml:space="preserve" text-anchor="middle" x="375" y="-179.2" font-family="Helvetica,sans-Serif" font-size="14.00" fill="#233238">interconnect</text>
<text xml:space="preserve" text-anchor="middle" x="375" y="-164.2" font-family="Helvetica,sans-Serif" font-size="14.00" fill="#233238">(higher latency,</text>
<text xml:space="preserve" text-anchor="middle" x="375" y="-149.2" font-family="Helvetica,sans-Serif" font-size="14.00" fill="#233238">limited bandwidth)</text>
</g>
<!-- cpu0&#45;&gt;fabric -->
<g id="edge3" class="edge">
<title>cpu0&#45;&gt;fabric</title>
<path fill="none" stroke="#5b6b73" stroke-width="1.05" d="M140.76,-256.56C186.53,-239.57 253.34,-214.78 303.74,-196.07"/>
<polygon fill="#5b6b73" stroke="#5b6b73" stroke-width="1.05" points="304.39,-198.63 310.51,-193.56 302.57,-193.71 304.39,-198.63"/>
<text xml:space="preserve" text-anchor="middle" x="235.5" y="-237.31" font-family="Helvetica,sans-Serif" font-size="14.00">remote request</text>
</g>
<!-- cpu1 -->
<g id="node3" class="node">
<title>cpu1</title>
<path fill="#bfe2f1" stroke="#5b6b73" d="M146.75,-80C146.75,-80 28,-80 28,-80 22,-80 16,-74 16,-68 16,-68 16,-54 16,-54 16,-48 22,-42 28,-42 28,-42 146.75,-42 146.75,-42 152.75,-42 158.75,-48 158.75,-54 158.75,-54 158.75,-68 158.75,-68 158.75,-74 152.75,-80 146.75,-80"/>
<text xml:space="preserve" text-anchor="middle" x="87.38" y="-62.7" font-family="Helvetica,sans-Serif" font-size="14.00" fill="#233238">CPU 1 cores</text>
<text xml:space="preserve" text-anchor="middle" x="87.38" y="-47.7" font-family="Helvetica,sans-Serif" font-size="14.00" fill="#233238">(run queues, caches)</text>
</g>
<!-- mem1 -->
<g id="node4" class="node">
<title>mem1</title>
<path fill="#ddeaf1" stroke="#5b6b73" d="M417.5,-64C417.5,-64 332.5,-64 332.5,-64 326.5,-64 320.5,-58 320.5,-52 320.5,-52 320.5,-38 320.5,-38 320.5,-32 326.5,-26 332.5,-26 332.5,-26 417.5,-26 417.5,-26 423.5,-26 429.5,-32 429.5,-38 429.5,-38 429.5,-52 429.5,-52 429.5,-58 423.5,-64 417.5,-64"/>
<text xml:space="preserve" text-anchor="middle" x="375" y="-46.7" font-family="Helvetica,sans-Serif" font-size="14.00" fill="#233238">local memory 1</text>
<text xml:space="preserve" text-anchor="middle" x="375" y="-31.7" font-family="Helvetica,sans-Serif" font-size="14.00" fill="#233238">(low latency)</text>
</g>
<!-- cpu1&#45;&gt;mem1 -->
<g id="edge2" class="edge">
<title>cpu1&#45;&gt;mem1</title>
<path fill="none" stroke="#5b6b73" stroke-width="1.05" d="M158.98,-57.04C205.65,-54.43 266.29,-51.03 311.27,-48.51"/>
<polygon fill="#5b6b73" stroke="#5b6b73" stroke-width="1.05" points="311.41,-51.14 318.75,-48.1 311.11,-45.89 311.41,-51.14"/>
<text xml:space="preserve" text-anchor="middle" x="235.5" y="-71.6" font-family="Helvetica,sans-Serif" font-size="14.00">local access</text>
<text xml:space="preserve" text-anchor="middle" x="235.5" y="-56.6" font-family="Helvetica,sans-Serif" font-size="14.00">fast</text>
</g>
<!-- cpu1&#45;&gt;fabric -->
<g id="edge5" class="edge">
<title>cpu1&#45;&gt;fabric</title>
<path fill="none" stroke="#5b6b73" stroke-width="1.05" d="M139.44,-80.49C185.19,-97.95 252.73,-123.72 303.6,-143.13"/>
<polygon fill="#5b6b73" stroke="#5b6b73" stroke-width="1.05" points="302.51,-145.53 310.45,-145.75 304.38,-140.62 302.51,-145.53"/>
<text xml:space="preserve" text-anchor="middle" x="235.5" y="-133.33" font-family="Helvetica,sans-Serif" font-size="14.00">remote request</text>
</g>
<!-- fabric&#45;&gt;mem0 -->
<g id="edge6" class="edge">
<title>fabric&#45;&gt;mem0</title>
<path fill="none" stroke="#5b6b73" stroke-width="1.05" d="M375,-196.82C375,-217.34 375,-245.6 375,-266.53"/>
<polygon fill="#5b6b73" stroke="#5b6b73" stroke-width="1.05" points="372.38,-266.49 375,-273.99 377.63,-266.49 372.38,-266.49"/>
<text xml:space="preserve" text-anchor="middle" x="357" y="-237.95" font-family="Helvetica,sans-Serif" font-size="14.00">remote memory</text>
<text xml:space="preserve" text-anchor="middle" x="357" y="-222.95" font-family="Helvetica,sans-Serif" font-size="14.00">slower</text>
</g>
<!-- fabric&#45;&gt;mem1 -->
<g id="edge4" class="edge">
<title>fabric&#45;&gt;mem1</title>
<path fill="none" stroke="#5b6b73" stroke-width="1.05" d="M375,-143.06C375,-122.48 375,-94.2 375,-73.29"/>
<polygon fill="#5b6b73" stroke="#5b6b73" stroke-width="1.05" points="377.63,-73.35 375,-65.85 372.38,-73.35 377.63,-73.35"/>
<text xml:space="preserve" text-anchor="middle" x="357" y="-105.45" font-family="Helvetica,sans-Serif" font-size="14.00">remote memory</text>
<text xml:space="preserve" text-anchor="middle" x="357" y="-90.45" font-family="Helvetica,sans-Serif" font-size="14.00">slower</text>
</g>
<!-- note -->
<g id="node6" class="node">
<title>note</title>
<polygon fill="#ffffff" stroke="#9aa7ae" points="743.25,-211.5 500.75,-211.5 500.75,-128.5 749.25,-128.5 749.25,-205.5 743.25,-211.5"/>
<polyline fill="none" stroke="#9aa7ae" points="743.25,-211.5 743.25,-205.5"/>
<polyline fill="none" stroke="#9aa7ae" points="749.25,-205.5 743.25,-205.5"/>
<text xml:space="preserve" text-anchor="middle" x="625" y="-194.2" font-family="Helvetica,sans-Serif" font-size="14.00" fill="#233238">OS placement matters:</text>
<text xml:space="preserve" text-anchor="middle" x="625" y="-179.2" font-family="Helvetica,sans-Serif" font-size="14.00" fill="#233238">&#45; place threads near their pages</text>
<text xml:space="preserve" text-anchor="middle" x="625" y="-164.2" font-family="Helvetica,sans-Serif" font-size="14.00" fill="#233238">&#45; migrate pages near their threads</text>
<text xml:space="preserve" text-anchor="middle" x="625" y="-149.2" font-family="Helvetica,sans-Serif" font-size="14.00" fill="#233238">Otherwise the same instruction stream</text>
<text xml:space="preserve" text-anchor="middle" x="625" y="-134.2" font-family="Helvetica,sans-Serif" font-size="14.00" fill="#233238">pays a remote penalty repeatedly.</text>
</g>
<!-- fabric&#45;&gt;note -->
<g id="edge7" class="edge">
<title>fabric&#45;&gt;note</title>
<path fill="none" stroke="#5b6b73" stroke-width="1.05" stroke-dasharray="1,5" d="M437.94,-170C457.02,-170 478.75,-170 500.45,-170"/>
</g>
</g>
</svg>
