<?xml version="1.0" encoding="UTF-8" standalone="no"?>
<!DOCTYPE svg PUBLIC "-//W3C//DTD SVG 1.1//EN"
 "http://www.w3.org/Graphics/SVG/1.1/DTD/svg11.dtd">
<!-- Generated by graphviz version 14.1.3 (20260303.0454)
 -->
<!-- Title: G Pages: 1 -->
<svg width="1260pt" height="186pt"
 viewBox="0.00 0.00 1260.00 186.00" xmlns="http://www.w3.org/2000/svg" xmlns:xlink="http://www.w3.org/1999/xlink">
<g id="graph0" class="graph" transform="scale(1 1) rotate(0) translate(14.4 171.4)">
<title>G</title>
<polygon fill="white" stroke="none" points="-14.4,14.4 -14.4,-171.4 1245.15,-171.4 1245.15,14.4 -14.4,14.4"/>
<!-- flow -->
<g id="node1" class="node">
<title>flow</title>
<polygon fill="#f5f5f5" stroke="none" points="1,-125 1,-156 149.75,-156 149.75,-125 1,-125"/>
<polygon fill="none" stroke="#5b6b73" points="1,-125 1,-156 149.75,-156 149.75,-125 1,-125"/>
<text xml:space="preserve" text-anchor="start" x="60.75" y="-135.7" font-family="Helvetica,sans-Serif" font-weight="bold" font-size="14.00">Step</text>
<polygon fill="#f5f5f5" stroke="none" points="149.75,-125 149.75,-156 405.75,-156 405.75,-125 149.75,-125"/>
<polygon fill="none" stroke="#5b6b73" points="149.75,-125 149.75,-156 405.75,-156 405.75,-125 149.75,-125"/>
<text xml:space="preserve" text-anchor="start" x="223" y="-135.7" font-family="Helvetica,sans-Serif" font-weight="bold" font-size="14.00">Program (virtual)</text>
<polygon fill="#f5f5f5" stroke="none" points="405.75,-125 405.75,-156 785.5,-156 785.5,-125 405.75,-125"/>
<polygon fill="none" stroke="#5b6b73" points="405.75,-125 405.75,-156 785.5,-156 785.5,-125 405.75,-125"/>
<text xml:space="preserve" text-anchor="start" x="542.75" y="-135.7" font-family="Helvetica,sans-Serif" font-weight="bold" font-size="14.00">MMU / hardware</text>
<polygon fill="#f5f5f5" stroke="none" points="785.5,-125 785.5,-156 1229.75,-156 1229.75,-125 785.5,-125"/>
<polygon fill="none" stroke="#5b6b73" points="785.5,-125 785.5,-156 1229.75,-156 1229.75,-125 785.5,-125"/>
<text xml:space="preserve" text-anchor="start" x="986.62" y="-135.7" font-family="Helvetica,sans-Serif" font-weight="bold" font-size="14.00">Kernel</text>
<polygon fill="#e6f3f9" stroke="none" points="1,-94 1,-125 149.75,-125 149.75,-94 1,-94"/>
<polygon fill="none" stroke="#5b6b73" points="1,-94 1,-125 149.75,-125 149.75,-94 1,-94"/>
<text xml:space="preserve" text-anchor="start" x="22.5" y="-104.7" font-family="Helvetica,sans-Serif" font-weight="bold" font-size="14.00">1) Issue address</text>
<polygon fill="none" stroke="#5b6b73" points="149.75,-94 149.75,-125 405.75,-125 405.75,-94 149.75,-94"/>
<text xml:space="preserve" text-anchor="start" x="157.75" y="-105.75" font-family="Helvetica,sans-Serif" font-size="14.00">instruction references virtual address `v`</text>
<polygon fill="none" stroke="#5b6b73" points="405.75,-94 405.75,-125 785.5,-125 785.5,-94 405.75,-94"/>
<text xml:space="preserve" text-anchor="start" x="525.5" y="-105.75" font-family="Helvetica,sans-Serif" font-size="14.00">receives `v` to translate</text>
<polygon fill="none" stroke="#5b6b73" points="785.5,-94 785.5,-125 1229.75,-125 1229.75,-94 785.5,-94"/>
<text xml:space="preserve" text-anchor="start" x="956.62" y="-105.75" font-family="Helvetica,sans-Serif" font-size="14.00">not executing yet</text>
<polygon fill="#e6f3f9" stroke="none" points="1,-63 1,-94 149.75,-94 149.75,-63 1,-63"/>
<polygon fill="none" stroke="#5b6b73" points="1,-63 1,-94 149.75,-94 149.75,-63 1,-63"/>
<text xml:space="preserve" text-anchor="start" x="9" y="-73.7" font-family="Helvetica,sans-Serif" font-weight="bold" font-size="14.00">2) Check permission</text>
<polygon fill="none" stroke="#5b6b73" points="149.75,-63 149.75,-94 405.75,-94 405.75,-63 149.75,-63"/>
<text xml:space="preserve" text-anchor="start" x="275.5" y="-74.75" font-family="Helvetica,sans-Serif" font-size="14.00">&#45;</text>
<polygon fill="none" stroke="#5b6b73" points="405.75,-63 405.75,-94 785.5,-94 785.5,-63 405.75,-63"/>
<text xml:space="preserve" text-anchor="start" x="459.5" y="-74.75" font-family="Helvetica,sans-Serif" font-size="14.00">verifies mapping exists and access is allowed</text>
<polygon fill="none" stroke="#5b6b73" points="785.5,-63 785.5,-94 1229.75,-94 1229.75,-63 785.5,-63"/>
<text xml:space="preserve" text-anchor="start" x="1005.38" y="-74.75" font-family="Helvetica,sans-Serif" font-size="14.00">&#45;</text>
<polygon fill="#e6f3f9" stroke="none" points="1,-32 1,-63 149.75,-63 149.75,-32 1,-32"/>
<polygon fill="none" stroke="#5b6b73" points="1,-32 1,-63 149.75,-63 149.75,-32 1,-32"/>
<text xml:space="preserve" text-anchor="start" x="33.75" y="-42.7" font-family="Helvetica,sans-Serif" font-weight="bold" font-size="14.00">3a) Translate</text>
<polygon fill="none" stroke="#5b6b73" points="149.75,-32 149.75,-63 405.75,-63 405.75,-32 149.75,-32"/>
<text xml:space="preserve" text-anchor="start" x="221.12" y="-43.75" font-family="Helvetica,sans-Serif" font-size="14.00">continues normally</text>
<polygon fill="none" stroke="#5b6b73" points="405.75,-32 405.75,-63 785.5,-63 785.5,-32 405.75,-32"/>
<text xml:space="preserve" text-anchor="start" x="413.75" y="-43.75" font-family="Helvetica,sans-Serif" font-size="14.00">produces physical address `p` and performs memory access</text>
<polygon fill="none" stroke="#5b6b73" points="785.5,-32 785.5,-63 1229.75,-63 1229.75,-32 785.5,-32"/>
<text xml:space="preserve" text-anchor="start" x="1005.38" y="-43.75" font-family="Helvetica,sans-Serif" font-size="14.00">&#45;</text>
<polygon fill="#e6f3f9" stroke="none" points="1,-1 1,-32 149.75,-32 149.75,-1 1,-1"/>
<polygon fill="none" stroke="#5b6b73" points="1,-1 1,-32 149.75,-32 149.75,-1 1,-1"/>
<text xml:space="preserve" text-anchor="start" x="47.25" y="-11.7" font-family="Helvetica,sans-Serif" font-weight="bold" font-size="14.00">3b) Fault</text>
<polygon fill="none" stroke="#5b6b73" points="149.75,-1 149.75,-32 405.75,-32 405.75,-1 149.75,-1"/>
<text xml:space="preserve" text-anchor="start" x="193.75" y="-12.75" font-family="Helvetica,sans-Serif" font-size="14.00">cannot complete the access</text>
<polygon fill="none" stroke="#5b6b73" points="405.75,-1 405.75,-32 785.5,-32 785.5,-1 405.75,-1"/>
<text xml:space="preserve" text-anchor="start" x="527.75" y="-12.75" font-family="Helvetica,sans-Serif" font-size="14.00">raises a trap/exception</text>
<polygon fill="none" stroke="#5b6b73" points="785.5,-1 785.5,-32 1229.75,-32 1229.75,-1 785.5,-1"/>
<text xml:space="preserve" text-anchor="start" x="793.5" y="-12.75" font-family="Helvetica,sans-Serif" font-size="14.00">handles violation or missing mapping (terminate, allocate, page&#45;in, etc.)</text>
<polygon fill="none" stroke="#5b6b73" points="0,0 0,-157 1230.75,-157 1230.75,0 0,0"/>
</g>
</g>
</svg>
