<?xml version="1.0" encoding="UTF-8" standalone="no"?>
<!DOCTYPE svg PUBLIC "-//W3C//DTD SVG 1.1//EN"
 "http://www.w3.org/Graphics/SVG/1.1/DTD/svg11.dtd">
<!-- Generated by graphviz version 14.1.3 (20260303.0454)
 -->
<!-- Title: G Pages: 1 -->
<svg width="982pt" height="193pt"
 viewBox="0.00 0.00 982.00 193.00" xmlns="http://www.w3.org/2000/svg" xmlns:xlink="http://www.w3.org/1999/xlink">
<g id="graph0" class="graph" transform="scale(1 1) rotate(0) translate(18 175)">
<title>G</title>
<polygon fill="white" stroke="none" points="-18,18 -18,-175 963.75,-175 963.75,18 -18,18"/>
<g id="clust1" class="cluster">
<title>cluster_kernel</title>
<path fill="#eaf6fb" stroke="#9ec9da" d="M20,-41C20,-41 564.25,-41 564.25,-41 570.25,-41 576.25,-47 576.25,-53 576.25,-53 576.25,-108 576.25,-108 576.25,-114 570.25,-120 564.25,-120 564.25,-120 20,-120 20,-120 14,-120 8,-114 8,-108 8,-108 8,-53 8,-53 8,-47 14,-41 20,-41"/>
<text xml:space="preserve" text-anchor="middle" x="292.12" y="-102.7" font-family="Times,serif" font-size="14.00">kernel scheduler/dispatcher</text>
</g>
<!-- a -->
<g id="node1" class="node">
<title>a</title>
<path fill="#e6f3f9" stroke="#5b6b73" d="M731.62,-157C731.62,-157 631.62,-157 631.62,-157 625.62,-157 619.62,-151 619.62,-145 619.62,-145 619.62,-131 619.62,-131 619.62,-125 625.62,-119 631.62,-119 631.62,-119 731.62,-119 731.62,-119 737.62,-119 743.62,-125 743.62,-131 743.62,-131 743.62,-145 743.62,-145 743.62,-151 737.62,-157 731.62,-157"/>
<text xml:space="preserve" text-anchor="middle" x="681.62" y="-139.7" font-family="Helvetica,sans-Serif" font-size="14.00" fill="#233238">process A running</text>
<text xml:space="preserve" text-anchor="middle" x="681.62" y="-124.7" font-family="Helvetica,sans-Serif" font-size="14.00" fill="#233238">(user mode)</text>
</g>
<!-- t -->
<g id="node2" class="node">
<title>t</title>
<path fill="#ddeaf1" stroke="#5b6b73" d="M933.75,-87C933.75,-87 857.75,-87 857.75,-87 851.75,-87 845.75,-81 845.75,-75 845.75,-75 845.75,-61 845.75,-61 845.75,-55 851.75,-49 857.75,-49 857.75,-49 933.75,-49 933.75,-49 939.75,-49 945.75,-55 945.75,-61 945.75,-61 945.75,-75 945.75,-75 945.75,-81 939.75,-87 933.75,-87"/>
<text xml:space="preserve" text-anchor="middle" x="895.75" y="-69.7" font-family="Helvetica,sans-Serif" font-size="14.00" fill="#233238">timer interrupt</text>
<text xml:space="preserve" text-anchor="middle" x="895.75" y="-54.7" font-family="Helvetica,sans-Serif" font-size="14.00" fill="#233238">(forced entry)</text>
</g>
<!-- a&#45;&gt;t -->
<g id="edge1" class="edge">
<title>a&#45;&gt;t</title>
<path fill="none" stroke="#5b6b73" stroke-width="1.05" d="M742.84,-118.54C767.07,-110.67 795.26,-101.46 820.75,-93 825.99,-91.26 831.43,-89.45 836.88,-87.62"/>
<polygon fill="#5b6b73" stroke="#5b6b73" stroke-width="1.05" points="837.64,-90.13 843.91,-85.26 835.96,-85.16 837.64,-90.13"/>
</g>
<!-- save -->
<g id="node3" class="node">
<title>save</title>
<path fill="#bfe2f1" stroke="#5b6b73" d="M107.75,-87C107.75,-87 28,-87 28,-87 22,-87 16,-81 16,-75 16,-75 16,-61 16,-61 16,-55 22,-49 28,-49 28,-49 107.75,-49 107.75,-49 113.75,-49 119.75,-55 119.75,-61 119.75,-61 119.75,-75 119.75,-75 119.75,-81 113.75,-87 107.75,-87"/>
<text xml:space="preserve" text-anchor="middle" x="67.88" y="-69.7" font-family="Helvetica,sans-Serif" font-size="14.00" fill="#233238">save A context</text>
<text xml:space="preserve" text-anchor="middle" x="67.88" y="-54.7" font-family="Helvetica,sans-Serif" font-size="14.00" fill="#233238">(PC, SP, regs)</text>
</g>
<!-- t&#45;&gt;save -->
<g id="edge2" class="edge">
<title>t&#45;&gt;save</title>
<path fill="none" stroke="#5b6b73" stroke-width="1.05" d="M857.96,-48.51C816.53,-28.42 746.63,0 682.62,0 223.88,0 223.88,0 223.88,0 179.04,0 132.59,-24.15 102.38,-43.67"/>
<polygon fill="#5b6b73" stroke="#5b6b73" stroke-width="1.05" points="101.19,-41.31 96.38,-47.64 104.09,-45.69 101.19,-41.31"/>
</g>
<!-- rq -->
<g id="node4" class="node">
<title>rq</title>
<path fill="#d5edf7" stroke="#5b6b73" d="M267,-87C267,-87 182.75,-87 182.75,-87 176.75,-87 170.75,-81 170.75,-75 170.75,-75 170.75,-61 170.75,-61 170.75,-55 176.75,-49 182.75,-49 182.75,-49 267,-49 267,-49 273,-49 279,-55 279,-61 279,-61 279,-75 279,-75 279,-81 273,-87 267,-87"/>
<text xml:space="preserve" text-anchor="middle" x="224.88" y="-69.7" font-family="Helvetica,sans-Serif" font-size="14.00" fill="#233238">ready queue</text>
<text xml:space="preserve" text-anchor="middle" x="224.88" y="-54.7" font-family="Helvetica,sans-Serif" font-size="14.00" fill="#233238">(runnable truth)</text>
</g>
<!-- save&#45;&gt;rq -->
<g id="edge3" class="edge">
<title>save&#45;&gt;rq</title>
<path fill="none" stroke="#5b6b73" stroke-width="1.05" d="M120.06,-68C133.29,-68 147.69,-68 161.44,-68"/>
<polygon fill="#5b6b73" stroke="#5b6b73" stroke-width="1.05" points="161.26,-70.63 168.76,-68 161.26,-65.38 161.26,-70.63"/>
</g>
<!-- pick -->
<g id="node5" class="node">
<title>pick</title>
<path fill="#bfe2f1" stroke="#5b6b73" d="M387.25,-87C387.25,-87 342,-87 342,-87 336,-87 330,-81 330,-75 330,-75 330,-61 330,-61 330,-55 336,-49 342,-49 342,-49 387.25,-49 387.25,-49 393.25,-49 399.25,-55 399.25,-61 399.25,-61 399.25,-75 399.25,-75 399.25,-81 393.25,-87 387.25,-87"/>
<text xml:space="preserve" text-anchor="middle" x="364.62" y="-69.7" font-family="Helvetica,sans-Serif" font-size="14.00" fill="#233238">pick next</text>
<text xml:space="preserve" text-anchor="middle" x="364.62" y="-54.7" font-family="Helvetica,sans-Serif" font-size="14.00" fill="#233238">(policy)</text>
</g>
<!-- rq&#45;&gt;pick -->
<g id="edge4" class="edge">
<title>rq&#45;&gt;pick</title>
<path fill="none" stroke="#5b6b73" stroke-width="1.05" d="M279.13,-68C292.91,-68 307.57,-68 320.74,-68"/>
<polygon fill="#5b6b73" stroke="#5b6b73" stroke-width="1.05" points="320.51,-70.63 328.01,-68 320.51,-65.38 320.51,-70.63"/>
</g>
<!-- load -->
<g id="node6" class="node">
<title>load</title>
<path fill="#bfe2f1" stroke="#5b6b73" d="M556.25,-86C556.25,-86 462.25,-86 462.25,-86 456.25,-86 450.25,-80 450.25,-74 450.25,-74 450.25,-62 450.25,-62 450.25,-56 456.25,-50 462.25,-50 462.25,-50 556.25,-50 556.25,-50 562.25,-50 568.25,-56 568.25,-62 568.25,-62 568.25,-74 568.25,-74 568.25,-80 562.25,-86 556.25,-86"/>
<text xml:space="preserve" text-anchor="middle" x="509.25" y="-62.2" font-family="Helvetica,sans-Serif" font-size="14.00" fill="#233238">restore B context</text>
</g>
<!-- pick&#45;&gt;load -->
<g id="edge5" class="edge">
<title>pick&#45;&gt;load</title>
<path fill="none" stroke="#5b6b73" stroke-width="1.05" d="M399.43,-68C411.91,-68 426.54,-68 440.95,-68"/>
<polygon fill="#5b6b73" stroke="#5b6b73" stroke-width="1.05" points="440.78,-70.63 448.28,-68 440.78,-65.38 440.78,-70.63"/>
</g>
<!-- b -->
<g id="node7" class="node">
<title>b</title>
<path fill="#e6f3f9" stroke="#5b6b73" d="M732,-87C732,-87 631.25,-87 631.25,-87 625.25,-87 619.25,-81 619.25,-75 619.25,-75 619.25,-61 619.25,-61 619.25,-55 625.25,-49 631.25,-49 631.25,-49 732,-49 732,-49 738,-49 744,-55 744,-61 744,-61 744,-75 744,-75 744,-81 738,-87 732,-87"/>
<text xml:space="preserve" text-anchor="middle" x="681.62" y="-69.7" font-family="Helvetica,sans-Serif" font-size="14.00" fill="#233238">process B running</text>
<text xml:space="preserve" text-anchor="middle" x="681.62" y="-54.7" font-family="Helvetica,sans-Serif" font-size="14.00" fill="#233238">(user mode)</text>
</g>
<!-- load&#45;&gt;b -->
<g id="edge6" class="edge">
<title>load&#45;&gt;b</title>
<path fill="none" stroke="#5b6b73" stroke-width="1.05" d="M568.41,-68C581.77,-68 596.13,-68 609.95,-68"/>
<polygon fill="#5b6b73" stroke="#5b6b73" stroke-width="1.05" points="609.86,-70.63 617.36,-68 609.86,-65.38 609.86,-70.63"/>
</g>
<!-- b&#45;&gt;t -->
<g id="edge7" class="edge">
<title>b&#45;&gt;t</title>
<path fill="none" stroke="#5b6b73" stroke-width="1.05" stroke-dasharray="5,2" d="M744.27,-68C773.3,-68 807.74,-68 836.35,-68"/>
<polygon fill="#5b6b73" stroke="#5b6b73" stroke-width="1.05" points="836.33,-70.63 843.83,-68 836.33,-65.38 836.33,-70.63"/>
<text xml:space="preserve" text-anchor="middle" x="794.88" y="-71.2" font-family="Times,serif" font-size="14.00" fill="#5b6b73">next slice</text>
</g>
</g>
</svg>
