<?xml version="1.0" encoding="UTF-8" standalone="no"?>
<!DOCTYPE svg PUBLIC "-//W3C//DTD SVG 1.1//EN"
 "http://www.w3.org/Graphics/SVG/1.1/DTD/svg11.dtd">
<!-- Generated by graphviz version 14.1.3 (20260303.0454)
 -->
<!-- Title: G Pages: 1 -->
<svg width="1095pt" height="178pt"
 viewBox="0.00 0.00 1095.00 178.00" xmlns="http://www.w3.org/2000/svg" xmlns:xlink="http://www.w3.org/1999/xlink">
<g id="graph0" class="graph" transform="scale(1 1) rotate(0) translate(18 160)">
<title>G</title>
<polygon fill="white" stroke="none" points="-18,18 -18,-160 1076.5,-160 1076.5,18 -18,18"/>
<!-- file -->
<g id="node1" class="node">
<title>file</title>
<path fill="#e6f3f9" stroke="#5b6b73" d="M100.75,-142C100.75,-142 12,-142 12,-142 6,-142 0,-136 0,-130 0,-130 0,-116 0,-116 0,-110 6,-104 12,-104 12,-104 100.75,-104 100.75,-104 106.75,-104 112.75,-110 112.75,-116 112.75,-116 112.75,-130 112.75,-130 112.75,-136 106.75,-142 100.75,-142"/>
<text xml:space="preserve" text-anchor="middle" x="56.38" y="-124.7" font-family="Helvetica,sans-Serif" font-size="14.00" fill="#233238">logical file</text>
<text xml:space="preserve" text-anchor="middle" x="56.38" y="-109.7" font-family="Helvetica,sans-Serif" font-size="14.00" fill="#233238">name and bytes</text>
</g>
<!-- disk -->
<g id="node2" class="node">
<title>disk</title>
<path fill="#d9d9d9" stroke="#5b6b73" d="M365.12,-142C365.12,-142 262.12,-142 262.12,-142 256.12,-142 250.12,-136 250.12,-130 250.12,-130 250.12,-116 250.12,-116 250.12,-110 256.12,-104 262.12,-104 262.12,-104 365.12,-104 365.12,-104 371.12,-104 377.12,-110 377.12,-116 377.12,-116 377.12,-130 377.12,-130 377.12,-136 371.12,-142 365.12,-142"/>
<text xml:space="preserve" text-anchor="middle" x="313.62" y="-124.7" font-family="Helvetica,sans-Serif" font-size="14.00" fill="#233238">secondary storage</text>
<text xml:space="preserve" text-anchor="middle" x="313.62" y="-109.7" font-family="Helvetica,sans-Serif" font-size="14.00" fill="#233238">persistent copy</text>
</g>
<!-- file&#45;&gt;disk -->
<g id="edge1" class="edge">
<title>file&#45;&gt;disk</title>
<path fill="none" stroke="#5b6b73" stroke-width="1.05" stroke-dasharray="5,2" d="M113.08,-123C150.58,-123 200.38,-123 240.85,-123"/>
<polygon fill="#5b6b73" stroke="#5b6b73" stroke-width="1.05" points="240.78,-125.63 248.28,-123 240.78,-120.38 240.78,-125.63"/>
<text xml:space="preserve" text-anchor="middle" x="170.38" y="-126.2" font-family="Times,serif" font-size="14.00">mapped onto</text>
</g>
<!-- mem -->
<g id="node3" class="node">
<title>mem</title>
<path fill="#bfe2f1" stroke="#5b6b73" d="M610,-125C610,-125 529.5,-125 529.5,-125 523.5,-125 517.5,-119 517.5,-113 517.5,-113 517.5,-99 517.5,-99 517.5,-93 523.5,-87 529.5,-87 529.5,-87 610,-87 610,-87 616,-87 622,-93 622,-99 622,-99 622,-113 622,-113 622,-119 616,-125 610,-125"/>
<text xml:space="preserve" text-anchor="middle" x="569.75" y="-107.7" font-family="Helvetica,sans-Serif" font-size="14.00" fill="#233238">main memory</text>
<text xml:space="preserve" text-anchor="middle" x="569.75" y="-92.7" font-family="Helvetica,sans-Serif" font-size="14.00" fill="#233238">resident pages</text>
</g>
<!-- disk&#45;&gt;mem -->
<g id="edge2" class="edge">
<title>disk&#45;&gt;mem</title>
<path fill="none" stroke="#5b6b73" stroke-width="1.05" d="M377.57,-123.59C400.66,-123.81 421.25,-124 421.25,-124 421.25,-124 495.5,-124 495.5,-124 495.5,-124 500.82,-122.69 508.6,-120.78"/>
<polygon fill="#5b6b73" stroke="#5b6b73" stroke-width="1.05" points="508.88,-123.42 515.54,-119.08 507.63,-118.32 508.88,-123.42"/>
<text xml:space="preserve" text-anchor="middle" x="458.38" y="-127.2" font-family="Times,serif" font-size="14.00">load / page in</text>
</g>
<!-- mem&#45;&gt;disk -->
<g id="edge6" class="edge">
<title>mem&#45;&gt;disk</title>
<path fill="none" stroke="#5b6b73" stroke-width="1.05" d="M517.08,-101.42C504.96,-100.34 495.5,-99.5 495.5,-99.5 495.5,-99.5 421.25,-99.5 421.25,-99.5 421.25,-99.5 405.63,-102.94 386.34,-107.19"/>
<polygon fill="#5b6b73" stroke="#5b6b73" stroke-width="1.05" points="385.89,-104.61 379.13,-108.78 387.02,-109.73 385.89,-104.61"/>
<text xml:space="preserve" text-anchor="middle" x="458.38" y="-102.7" font-family="Times,serif" font-size="14.00">write back</text>
</g>
<!-- cache -->
<g id="node4" class="node">
<title>cache</title>
<path fill="#ddeaf1" stroke="#5b6b73" d="M833.5,-86C833.5,-86 742.5,-86 742.5,-86 736.5,-86 730.5,-80 730.5,-74 730.5,-74 730.5,-60 730.5,-60 730.5,-54 736.5,-48 742.5,-48 742.5,-48 833.5,-48 833.5,-48 839.5,-48 845.5,-54 845.5,-60 845.5,-60 845.5,-74 845.5,-74 845.5,-80 839.5,-86 833.5,-86"/>
<text xml:space="preserve" text-anchor="middle" x="788" y="-68.7" font-family="Helvetica,sans-Serif" font-size="14.00" fill="#233238">cache</text>
<text xml:space="preserve" text-anchor="middle" x="788" y="-53.7" font-family="Helvetica,sans-Serif" font-size="14.00" fill="#233238">fast nearby copy</text>
</g>
<!-- mem&#45;&gt;cache -->
<g id="edge3" class="edge">
<title>mem&#45;&gt;cache</title>
<path fill="none" stroke="#5b6b73" stroke-width="1.05" d="M622.43,-98.12C661.52,-92.16 708.5,-85 708.5,-85 708.5,-85 713.84,-83.78 721.73,-81.97"/>
<polygon fill="#5b6b73" stroke="#5b6b73" stroke-width="1.05" points="722.09,-84.58 728.82,-80.34 720.92,-79.46 722.09,-84.58"/>
<text xml:space="preserve" text-anchor="middle" x="676.25" y="-97.44" font-family="Times,serif" font-size="14.00">copy</text>
</g>
<!-- cache&#45;&gt;mem -->
<g id="edge5" class="edge">
<title>cache&#45;&gt;mem</title>
<path fill="none" stroke="#5b6b73" stroke-width="1.05" d="M730.37,-62.31C717.99,-61.29 708.5,-60.5 708.5,-60.5 708.5,-60.5 644,-60.5 644,-60.5 644,-60.5 626.99,-71.07 609.36,-82.02"/>
<polygon fill="#5b6b73" stroke="#5b6b73" stroke-width="1.05" points="608.15,-79.68 603.16,-85.87 610.92,-84.14 608.15,-79.68"/>
<text xml:space="preserve" text-anchor="middle" x="676.25" y="-63.7" font-family="Times,serif" font-size="14.00">evict / flush</text>
</g>
<!-- cpu -->
<g id="node5" class="node">
<title>cpu</title>
<path fill="#f5f5f5" stroke="#5b6b73" d="M1046.5,-85C1046.5,-85 963.75,-85 963.75,-85 957.75,-85 951.75,-79 951.75,-73 951.75,-73 951.75,-61 951.75,-61 951.75,-55 957.75,-49 963.75,-49 963.75,-49 1046.5,-49 1046.5,-49 1052.5,-49 1058.5,-55 1058.5,-61 1058.5,-61 1058.5,-73 1058.5,-73 1058.5,-79 1052.5,-85 1046.5,-85"/>
<text xml:space="preserve" text-anchor="middle" x="1005.12" y="-61.2" font-family="Helvetica,sans-Serif" font-size="14.00" fill="#233238">CPU uses data</text>
</g>
<!-- cache&#45;&gt;cpu -->
<g id="edge4" class="edge">
<title>cache&#45;&gt;cpu</title>
<path fill="none" stroke="#5b6b73" stroke-width="1.05" d="M845.8,-67C875.6,-67 912.14,-67 942.61,-67"/>
<polygon fill="#5b6b73" stroke="#5b6b73" stroke-width="1.05" points="942.35,-69.63 949.85,-67 942.35,-64.38 942.35,-69.63"/>
<text xml:space="preserve" text-anchor="middle" x="898.62" y="-70.2" font-family="Times,serif" font-size="14.00">read / write</text>
</g>
<!-- note -->
<g id="node6" class="node">
<title>note</title>
<polygon fill="#f5f5f5" stroke="#5b6b73" points="393.25,-68 228,-68 228,0 399.25,0 399.25,-62 393.25,-68"/>
<polyline fill="none" stroke="#5b6b73" points="393.25,-68 393.25,-62"/>
<polyline fill="none" stroke="#5b6b73" points="399.25,-62 393.25,-62"/>
<text xml:space="preserve" text-anchor="middle" x="313.62" y="-50.7" font-family="Helvetica,sans-Serif" font-size="14.00" fill="#233238">same data item may exist</text>
<text xml:space="preserve" text-anchor="middle" x="313.62" y="-35.7" font-family="Helvetica,sans-Serif" font-size="14.00" fill="#233238">in several places at once;</text>
<text xml:space="preserve" text-anchor="middle" x="313.62" y="-20.7" font-family="Helvetica,sans-Serif" font-size="14.00" fill="#233238">the system must know</text>
<text xml:space="preserve" text-anchor="middle" x="313.62" y="-5.7" font-family="Helvetica,sans-Serif" font-size="14.00" fill="#233238">which copy is current</text>
</g>
<!-- note&#45;&gt;mem -->
<g id="edge7" class="edge">
<title>note&#45;&gt;mem</title>
<path fill="none" stroke="#5b6b73" stroke-width="1.05" stroke-dasharray="1,5" d="M399.6,-58.08C438.56,-69.11 483.47,-81.84 517.22,-91.4"/>
</g>
<!-- note&#45;&gt;cache -->
<g id="edge8" class="edge">
<title>note&#45;&gt;cache</title>
<path fill="none" stroke="#5b6b73" stroke-width="1.05" stroke-dasharray="1,5" d="M399.61,-38.1C515.39,-43.68 708.5,-53 708.5,-53 708.5,-53 717.99,-54.69 730.37,-56.9"/>
</g>
</g>
</svg>
