<?xml version="1.0" encoding="UTF-8" standalone="no"?>
<!DOCTYPE svg PUBLIC "-//W3C//DTD SVG 1.1//EN"
 "http://www.w3.org/Graphics/SVG/1.1/DTD/svg11.dtd">
<!-- Generated by graphviz version 14.1.3 (20260303.0454)
 -->
<!-- Title: G Pages: 1 -->
<svg width="937pt" height="186pt"
 viewBox="0.00 0.00 937.00 186.00" xmlns="http://www.w3.org/2000/svg" xmlns:xlink="http://www.w3.org/1999/xlink">
<g id="graph0" class="graph" transform="scale(1 1) rotate(0) translate(14.4 171.4)">
<title>G</title>
<polygon fill="white" stroke="none" points="-14.4,14.4 -14.4,-171.4 922.4,-171.4 922.4,14.4 -14.4,14.4"/>
<!-- cmp -->
<g id="node1" class="node">
<title>cmp</title>
<polygon fill="#f5f5f5" stroke="none" points="1,-125 1,-156 258.5,-156 258.5,-125 1,-125"/>
<polygon fill="none" stroke="#5b6b73" points="1,-125 1,-156 258.5,-156 258.5,-125 1,-125"/>
<text xml:space="preserve" text-anchor="start" x="100.12" y="-135.7" font-family="Helvetica,sans-Serif" font-weight="bold" font-size="14.00">Question</text>
<polygon fill="#f5f5f5" stroke="none" points="258.5,-125 258.5,-156 529.5,-156 529.5,-125 258.5,-125"/>
<polygon fill="none" stroke="#5b6b73" points="258.5,-125 258.5,-156 529.5,-156 529.5,-125 258.5,-125"/>
<text xml:space="preserve" text-anchor="start" x="371.5" y="-135.7" font-family="Helvetica,sans-Serif" font-weight="bold" font-size="14.00">Polling</text>
<polygon fill="#f5f5f5" stroke="none" points="529.5,-125 529.5,-156 907,-156 907,-125 529.5,-125"/>
<polygon fill="none" stroke="#5b6b73" points="529.5,-125 529.5,-156 907,-156 907,-125 529.5,-125"/>
<text xml:space="preserve" text-anchor="start" x="652.25" y="-135.7" font-family="Helvetica,sans-Serif" font-weight="bold" font-size="14.00">Interrupt completion</text>
<polygon fill="#e6f3f9" stroke="none" points="1,-94 1,-125 258.5,-125 258.5,-94 1,-94"/>
<polygon fill="none" stroke="#5b6b73" points="1,-94 1,-125 258.5,-125 258.5,-94 1,-94"/>
<text xml:space="preserve" text-anchor="start" x="9" y="-104.7" font-family="Helvetica,sans-Serif" font-weight="bold" font-size="14.00">How does the CPU learn completion?</text>
<polygon fill="none" stroke="#5b6b73" points="258.5,-94 258.5,-125 529.5,-125 529.5,-94 258.5,-94"/>
<text xml:space="preserve" text-anchor="start" x="290.12" y="-105.75" font-family="Helvetica,sans-Serif" font-size="14.00">reads a device status flag in a loop</text>
<polygon fill="none" stroke="#5b6b73" points="529.5,-94 529.5,-125 907,-125 907,-94 529.5,-94"/>
<text xml:space="preserve" text-anchor="start" x="608" y="-105.75" font-family="Helvetica,sans-Serif" font-size="14.00">device raises an interrupt when done</text>
<polygon fill="#e6f3f9" stroke="none" points="1,-63 1,-94 258.5,-94 258.5,-63 1,-63"/>
<polygon fill="none" stroke="#5b6b73" points="1,-63 1,-94 258.5,-94 258.5,-63 1,-63"/>
<text xml:space="preserve" text-anchor="start" x="99.75" y="-73.7" font-family="Helvetica,sans-Serif" font-weight="bold" font-size="14.00">CPU cost</text>
<polygon fill="none" stroke="#5b6b73" points="258.5,-63 258.5,-94 529.5,-94 529.5,-63 258.5,-63"/>
<text xml:space="preserve" text-anchor="start" x="277.38" y="-74.75" font-family="Helvetica,sans-Serif" font-size="14.00">wastes cycles while waiting (busy&#45;wait)</text>
<polygon fill="none" stroke="#5b6b73" points="529.5,-63 529.5,-94 907,-94 907,-63 529.5,-63"/>
<text xml:space="preserve" text-anchor="start" x="584.75" y="-74.75" font-family="Helvetica,sans-Serif" font-size="14.00">CPU can run other work while device is busy</text>
<polygon fill="#e6f3f9" stroke="none" points="1,-32 1,-63 258.5,-63 258.5,-32 1,-32"/>
<polygon fill="none" stroke="#5b6b73" points="1,-32 1,-63 258.5,-63 258.5,-32 1,-32"/>
<text xml:space="preserve" text-anchor="start" x="104.25" y="-42.7" font-family="Helvetica,sans-Serif" font-weight="bold" font-size="14.00">Latency</text>
<polygon fill="none" stroke="#5b6b73" points="258.5,-32 258.5,-63 529.5,-63 529.5,-32 258.5,-32"/>
<text xml:space="preserve" text-anchor="start" x="314.88" y="-43.75" font-family="Helvetica,sans-Serif" font-size="14.00">bounded by poll frequency</text>
<polygon fill="none" stroke="#5b6b73" points="529.5,-32 529.5,-63 907,-63 907,-32 529.5,-32"/>
<text xml:space="preserve" text-anchor="start" x="597.5" y="-43.75" font-family="Helvetica,sans-Serif" font-size="14.00">often low; delivered on completion event</text>
<polygon fill="#e6f3f9" stroke="none" points="1,-1 1,-32 258.5,-32 258.5,-1 1,-1"/>
<polygon fill="none" stroke="#5b6b73" points="1,-1 1,-32 258.5,-32 258.5,-1 1,-1"/>
<text xml:space="preserve" text-anchor="start" x="88.12" y="-11.7" font-family="Helvetica,sans-Serif" font-weight="bold" font-size="14.00">Why it exists</text>
<polygon fill="none" stroke="#5b6b73" points="258.5,-1 258.5,-32 529.5,-32 529.5,-1 258.5,-1"/>
<text xml:space="preserve" text-anchor="start" x="266.5" y="-12.75" font-family="Helvetica,sans-Serif" font-size="14.00">simple; sometimes OK for very short waits</text>
<polygon fill="none" stroke="#5b6b73" points="529.5,-1 529.5,-32 907,-32 907,-1 529.5,-1"/>
<text xml:space="preserve" text-anchor="start" x="537.5" y="-12.75" font-family="Helvetica,sans-Serif" font-size="14.00">enables overlap of I/O with computation (multiprogramming)</text>
<polygon fill="none" stroke="#5b6b73" points="0,0 0,-157 908,-157 908,0 0,0"/>
</g>
</g>
</svg>
