<?xml version="1.0" encoding="UTF-8" standalone="no"?>
<!DOCTYPE svg PUBLIC "-//W3C//DTD SVG 1.1//EN"
 "http://www.w3.org/Graphics/SVG/1.1/DTD/svg11.dtd">
<!-- Generated by graphviz version 14.1.3 (20260303.0454)
 -->
<!-- Title: G Pages: 1 -->
<svg width="811pt" height="285pt"
 viewBox="0.00 0.00 811.00 285.00" xmlns="http://www.w3.org/2000/svg" xmlns:xlink="http://www.w3.org/1999/xlink">
<g id="graph0" class="graph" transform="scale(1 1) rotate(0) translate(18 267)">
<title>G</title>
<polygon fill="white" stroke="none" points="-18,18 -18,-267 793,-267 793,18 -18,18"/>
<g id="clust1" class="cluster">
<title>cluster_kernel</title>
<path fill="#eaf6fb" stroke="#9ec9da" d="M302,-8C302,-8 755,-8 755,-8 761,-8 767,-14 767,-20 767,-20 767,-229 767,-229 767,-235 761,-241 755,-241 755,-241 302,-241 302,-241 296,-241 290,-235 290,-229 290,-229 290,-20 290,-20 290,-14 296,-8 302,-8"/>
<text xml:space="preserve" text-anchor="middle" x="528.5" y="-223.7" font-family="Times,serif" font-size="14.00">control enters kernel mode</text>
</g>
<!-- running -->
<g id="node1" class="node">
<title>running</title>
<path fill="#f5f5f5" stroke="#5b6b73" d="M81.25,-130C81.25,-130 12,-130 12,-130 6,-130 0,-124 0,-118 0,-118 0,-104 0,-104 0,-98 6,-92 12,-92 12,-92 81.25,-92 81.25,-92 87.25,-92 93.25,-98 93.25,-104 93.25,-104 93.25,-118 93.25,-118 93.25,-124 87.25,-130 81.25,-130"/>
<text xml:space="preserve" text-anchor="middle" x="46.62" y="-112.7" font-family="Helvetica,sans-Serif" font-size="14.00" fill="#233238">user process</text>
<text xml:space="preserve" text-anchor="middle" x="46.62" y="-97.7" font-family="Helvetica,sans-Serif" font-size="14.00" fill="#233238">executing</text>
</g>
<!-- request -->
<g id="node3" class="node">
<title>request</title>
<path fill="#f5f5f5" stroke="#5b6b73" d="M244.88,-200C244.88,-200 146.38,-200 146.38,-200 140.38,-200 134.38,-194 134.38,-188 134.38,-188 134.38,-174 134.38,-174 134.38,-168 140.38,-162 146.38,-162 146.38,-162 244.88,-162 244.88,-162 250.88,-162 256.88,-168 256.88,-174 256.88,-174 256.88,-188 256.88,-188 256.88,-194 250.88,-200 244.88,-200"/>
<text xml:space="preserve" text-anchor="middle" x="195.62" y="-182.7" font-family="Helvetica,sans-Serif" font-size="14.00" fill="#233238">program requests</text>
<text xml:space="preserve" text-anchor="middle" x="195.62" y="-167.7" font-family="Helvetica,sans-Serif" font-size="14.00" fill="#233238">OS service</text>
</g>
<!-- running&#45;&gt;request -->
<g id="edge8" class="edge">
<title>running&#45;&gt;request</title>
<path fill="none" stroke="#5b6b73" stroke-width="1.05" d="M47,-130.5C47,-151.21 47,-181 47,-181 47,-181 124.8,-181 124.8,-181"/>
<polygon fill="#5b6b73" stroke="#5b6b73" stroke-width="1.05" points="124.8,-183.63 132.3,-181 124.8,-178.38 124.8,-183.63"/>
</g>
<!-- fault -->
<g id="node4" class="node">
<title>fault</title>
<path fill="#f5f5f5" stroke="#5b6b73" d="M241.12,-130C241.12,-130 150.12,-130 150.12,-130 144.12,-130 138.12,-124 138.12,-118 138.12,-118 138.12,-104 138.12,-104 138.12,-98 144.12,-92 150.12,-92 150.12,-92 241.12,-92 241.12,-92 247.12,-92 253.12,-98 253.12,-104 253.12,-104 253.12,-118 253.12,-118 253.12,-124 247.12,-130 241.12,-130"/>
<text xml:space="preserve" text-anchor="middle" x="195.62" y="-112.7" font-family="Helvetica,sans-Serif" font-size="14.00" fill="#233238">program faults</text>
<text xml:space="preserve" text-anchor="middle" x="195.62" y="-97.7" font-family="Helvetica,sans-Serif" font-size="14.00" fill="#233238">or violates a rule</text>
</g>
<!-- running&#45;&gt;fault -->
<g id="edge10" class="edge">
<title>running&#45;&gt;fault</title>
<path fill="none" stroke="#5b6b73" stroke-width="1.05" d="M93.36,-111C93.36,-111 128.69,-111 128.69,-111"/>
<polygon fill="#5b6b73" stroke="#5b6b73" stroke-width="1.05" points="128.69,-113.63 136.19,-111 128.69,-108.38 128.69,-113.63"/>
</g>
<!-- device -->
<g id="node2" class="node">
<title>device</title>
<path fill="#f5f5f5" stroke="#5b6b73" d="M246,-54C246,-54 145.25,-54 145.25,-54 139.25,-54 133.25,-48 133.25,-42 133.25,-42 133.25,-28 133.25,-28 133.25,-22 139.25,-16 145.25,-16 145.25,-16 246,-16 246,-16 252,-16 258,-22 258,-28 258,-28 258,-42 258,-42 258,-48 252,-54 246,-54"/>
<text xml:space="preserve" text-anchor="middle" x="195.62" y="-36.7" font-family="Helvetica,sans-Serif" font-size="14.00" fill="#233238">device completion</text>
<text xml:space="preserve" text-anchor="middle" x="195.62" y="-21.7" font-family="Helvetica,sans-Serif" font-size="14.00" fill="#233238">or timer expiry</text>
</g>
<!-- interrupt -->
<g id="node5" class="node">
<title>interrupt</title>
<path fill="#ddeaf1" stroke="#5b6b73" d="M390.12,-54C390.12,-54 314.12,-54 314.12,-54 308.12,-54 302.12,-48 302.12,-42 302.12,-42 302.12,-28 302.12,-28 302.12,-22 308.12,-16 314.12,-16 314.12,-16 390.12,-16 390.12,-16 396.12,-16 402.12,-22 402.12,-28 402.12,-28 402.12,-42 402.12,-42 402.12,-48 396.12,-54 390.12,-54"/>
<text xml:space="preserve" text-anchor="middle" x="352.12" y="-36.7" font-family="Helvetica,sans-Serif" font-size="14.00" fill="#233238">interrupt</text>
<text xml:space="preserve" text-anchor="middle" x="352.12" y="-21.7" font-family="Helvetica,sans-Serif" font-size="14.00" fill="#233238">asynchronous</text>
</g>
<!-- device&#45;&gt;interrupt -->
<g id="edge7" class="edge">
<title>device&#45;&gt;interrupt</title>
<path fill="none" stroke="#5b6b73" stroke-width="1.05" d="M258.38,-35C258.38,-35 292.78,-35 292.78,-35"/>
<polygon fill="#5b6b73" stroke="#5b6b73" stroke-width="1.05" points="292.78,-37.63 300.28,-35 292.78,-32.38 292.78,-37.63"/>
</g>
<!-- syscall -->
<g id="node6" class="node">
<title>syscall</title>
<path fill="#ddeaf1" stroke="#5b6b73" d="M381.88,-204C381.88,-204 322.38,-204 322.38,-204 316.38,-204 310.38,-198 310.38,-192 310.38,-192 310.38,-178 310.38,-178 310.38,-172 316.38,-166 322.38,-166 322.38,-166 381.88,-166 381.88,-166 387.88,-166 393.88,-172 393.88,-178 393.88,-178 393.88,-192 393.88,-192 393.88,-198 387.88,-204 381.88,-204"/>
<text xml:space="preserve" text-anchor="middle" x="352.12" y="-186.7" font-family="Helvetica,sans-Serif" font-size="14.00" fill="#233238">system call</text>
<text xml:space="preserve" text-anchor="middle" x="352.12" y="-171.7" font-family="Helvetica,sans-Serif" font-size="14.00" fill="#233238">intentional</text>
</g>
<!-- request&#45;&gt;syscall -->
<g id="edge9" class="edge">
<title>request&#45;&gt;syscall</title>
<path fill="none" stroke="#5b6b73" stroke-width="1.05" d="M257.03,-183C257.03,-183 301.11,-183 301.11,-183"/>
<polygon fill="#5b6b73" stroke="#5b6b73" stroke-width="1.05" points="301.11,-185.63 308.61,-183 301.11,-180.38 301.11,-185.63"/>
</g>
<!-- exception -->
<g id="node7" class="node">
<title>exception</title>
<path fill="#ddeaf1" stroke="#5b6b73" d="M394.25,-130C394.25,-130 310,-130 310,-130 304,-130 298,-124 298,-118 298,-118 298,-104 298,-104 298,-98 304,-92 310,-92 310,-92 394.25,-92 394.25,-92 400.25,-92 406.25,-98 406.25,-104 406.25,-104 406.25,-118 406.25,-118 406.25,-124 400.25,-130 394.25,-130"/>
<text xml:space="preserve" text-anchor="middle" x="352.12" y="-112.7" font-family="Helvetica,sans-Serif" font-size="14.00" fill="#233238">exception / trap</text>
<text xml:space="preserve" text-anchor="middle" x="352.12" y="-97.7" font-family="Helvetica,sans-Serif" font-size="14.00" fill="#233238">synchronous</text>
</g>
<!-- fault&#45;&gt;exception -->
<g id="edge11" class="edge">
<title>fault&#45;&gt;exception</title>
<path fill="none" stroke="#5b6b73" stroke-width="1.05" d="M253.46,-111C253.46,-111 288.56,-111 288.56,-111"/>
<polygon fill="#5b6b73" stroke="#5b6b73" stroke-width="1.05" points="288.56,-113.63 296.06,-111 288.56,-108.38 288.56,-113.63"/>
</g>
<!-- ih -->
<g id="node8" class="node">
<title>ih</title>
<path fill="#bfe2f1" stroke="#5b6b73" d="M548.5,-52C548.5,-52 458.25,-52 458.25,-52 452.25,-52 446.25,-46 446.25,-40 446.25,-40 446.25,-28 446.25,-28 446.25,-22 452.25,-16 458.25,-16 458.25,-16 548.5,-16 548.5,-16 554.5,-16 560.5,-22 560.5,-28 560.5,-28 560.5,-40 560.5,-40 560.5,-46 554.5,-52 548.5,-52"/>
<text xml:space="preserve" text-anchor="middle" x="503.38" y="-28.2" font-family="Helvetica,sans-Serif" font-size="14.00" fill="#233238">interrupt handler</text>
</g>
<!-- interrupt&#45;&gt;ih -->
<g id="edge1" class="edge">
<title>interrupt&#45;&gt;ih</title>
<path fill="none" stroke="#5b6b73" stroke-width="1.05" d="M402.49,-34C402.49,-34 436.82,-34 436.82,-34"/>
<polygon fill="#5b6b73" stroke="#5b6b73" stroke-width="1.05" points="436.82,-36.63 444.32,-34 436.82,-31.38 436.82,-36.63"/>
</g>
<!-- kh -->
<g id="node9" class="node">
<title>kh</title>
<path fill="#bfe2f1" stroke="#5b6b73" d="M541,-208C541,-208 465.75,-208 465.75,-208 459.75,-208 453.75,-202 453.75,-196 453.75,-196 453.75,-182 453.75,-182 453.75,-176 459.75,-170 465.75,-170 465.75,-170 541,-170 541,-170 547,-170 553,-176 553,-182 553,-182 553,-196 553,-196 553,-202 547,-208 541,-208"/>
<text xml:space="preserve" text-anchor="middle" x="503.38" y="-190.7" font-family="Helvetica,sans-Serif" font-size="14.00" fill="#233238">kernel service</text>
<text xml:space="preserve" text-anchor="middle" x="503.38" y="-175.7" font-family="Helvetica,sans-Serif" font-size="14.00" fill="#233238">routine</text>
</g>
<!-- syscall&#45;&gt;kh -->
<g id="edge3" class="edge">
<title>syscall&#45;&gt;kh</title>
<path fill="none" stroke="#5b6b73" stroke-width="1.05" d="M394.26,-187C394.26,-187 444.34,-187 444.34,-187"/>
<polygon fill="#5b6b73" stroke="#5b6b73" stroke-width="1.05" points="444.34,-189.63 451.84,-187 444.34,-184.38 444.34,-189.63"/>
</g>
<!-- fh -->
<g id="node10" class="node">
<title>fh</title>
<path fill="#bfe2f1" stroke="#5b6b73" d="M539.88,-137.5C539.88,-137.5 466.88,-137.5 466.88,-137.5 460.88,-137.5 454.88,-131.5 454.88,-125.5 454.88,-125.5 454.88,-96.5 454.88,-96.5 454.88,-90.5 460.88,-84.5 466.88,-84.5 466.88,-84.5 539.88,-84.5 539.88,-84.5 545.88,-84.5 551.88,-90.5 551.88,-96.5 551.88,-96.5 551.88,-125.5 551.88,-125.5 551.88,-131.5 545.88,-137.5 539.88,-137.5"/>
<text xml:space="preserve" text-anchor="middle" x="503.38" y="-120.2" font-family="Helvetica,sans-Serif" font-size="14.00" fill="#233238">fault handler</text>
<text xml:space="preserve" text-anchor="middle" x="503.38" y="-105.2" font-family="Helvetica,sans-Serif" font-size="14.00" fill="#233238">repair, signal,</text>
<text xml:space="preserve" text-anchor="middle" x="503.38" y="-90.2" font-family="Helvetica,sans-Serif" font-size="14.00" fill="#233238">or terminate</text>
</g>
<!-- exception&#45;&gt;fh -->
<g id="edge5" class="edge">
<title>exception&#45;&gt;fh</title>
<path fill="none" stroke="#5b6b73" stroke-width="1.05" d="M406.73,-111C406.73,-111 445.78,-111 445.78,-111"/>
<polygon fill="#5b6b73" stroke="#5b6b73" stroke-width="1.05" points="445.78,-113.63 453.28,-111 445.78,-108.38 445.78,-113.63"/>
</g>
<!-- resume -->
<g id="node11" class="node">
<title>resume</title>
<path fill="#d5edf7" stroke="#5b6b73" d="M747,-92C747,-92 612.5,-92 612.5,-92 606.5,-92 600.5,-86 600.5,-80 600.5,-80 600.5,-66 600.5,-66 600.5,-60 606.5,-54 612.5,-54 612.5,-54 747,-54 747,-54 753,-54 759,-60 759,-66 759,-66 759,-80 759,-80 759,-86 753,-92 747,-92"/>
<text xml:space="preserve" text-anchor="middle" x="679.75" y="-74.7" font-family="Helvetica,sans-Serif" font-size="14.00" fill="#233238">resume current process</text>
<text xml:space="preserve" text-anchor="middle" x="679.75" y="-59.7" font-family="Helvetica,sans-Serif" font-size="14.00" fill="#233238">or dispatch another</text>
</g>
<!-- ih&#45;&gt;resume -->
<g id="edge2" class="edge">
<title>ih&#45;&gt;resume</title>
<path fill="none" stroke="#5b6b73" stroke-width="1.05" d="M557,-52.24C557,-58.6 557,-64.17 557,-64.17 557,-64.17 591.19,-64.17 591.19,-64.17"/>
<polygon fill="#5b6b73" stroke="#5b6b73" stroke-width="1.05" points="591.19,-66.79 598.69,-64.17 591.19,-61.54 591.19,-66.79"/>
</g>
<!-- kh&#45;&gt;resume -->
<g id="edge4" class="edge">
<title>kh&#45;&gt;resume</title>
<path fill="none" stroke="#5b6b73" stroke-width="1.05" d="M553.04,-189C605.29,-189 680,-189 680,-189 680,-189 680,-101.51 680,-101.51"/>
<polygon fill="#5b6b73" stroke="#5b6b73" stroke-width="1.05" points="682.63,-101.5 680,-94.01 677.38,-101.51 682.63,-101.5"/>
</g>
<!-- fh&#45;&gt;resume -->
<g id="edge6" class="edge">
<title>fh&#45;&gt;resume</title>
<path fill="none" stroke="#5b6b73" stroke-width="1.05" d="M552.04,-88.25C552.04,-88.25 591,-88.25 591,-88.25"/>
<polygon fill="#5b6b73" stroke="#5b6b73" stroke-width="1.05" points="591,-90.88 598.5,-88.25 591,-85.63 591,-90.88"/>
</g>
<!-- resume&#45;&gt;running -->
<g id="edge12" class="edge">
<title>resume&#45;&gt;running</title>
<path fill="none" stroke="#5b6b73" stroke-width="1.05" d="M600.25,-74.33C430.31,-74.33 47,-74.33 47,-74.33 47,-74.33 47,-82.72 47,-82.72"/>
<polygon fill="#5b6b73" stroke="#5b6b73" stroke-width="1.05" points="44.38,-82.72 47,-90.22 49.63,-82.72 44.38,-82.72"/>
</g>
</g>
</svg>
