<?xml version="1.0" encoding="UTF-8" standalone="no"?>
<!DOCTYPE svg PUBLIC "-//W3C//DTD SVG 1.1//EN"
 "http://www.w3.org/Graphics/SVG/1.1/DTD/svg11.dtd">
<!-- Generated by graphviz version 14.1.3 (20260303.0454)
 -->
<!-- Title: G Pages: 1 -->
<svg width="860pt" height="155pt"
 viewBox="0.00 0.00 860.00 155.00" xmlns="http://www.w3.org/2000/svg" xmlns:xlink="http://www.w3.org/1999/xlink">
<g id="graph0" class="graph" transform="scale(1 1) rotate(0) translate(14.4 140.4)">
<title>G</title>
<polygon fill="white" stroke="none" points="-14.4,14.4 -14.4,-140.4 845.15,-140.4 845.15,14.4 -14.4,14.4"/>
<!-- cmp -->
<g id="node1" class="node">
<title>cmp</title>
<polygon fill="#f5f5f5" stroke="none" points="1,-94 1,-125 156.5,-125 156.5,-94 1,-94"/>
<polygon fill="none" stroke="#5b6b73" points="1,-94 1,-125 156.5,-125 156.5,-94 1,-94"/>
<text xml:space="preserve" text-anchor="start" x="18" y="-104.7" font-family="Helvetica,sans-Serif" font-weight="bold" font-size="14.00">Dispatch approach</text>
<polygon fill="#f5f5f5" stroke="none" points="156.5,-94 156.5,-125 516.75,-125 516.75,-94 156.5,-94"/>
<polygon fill="none" stroke="#5b6b73" points="156.5,-94 156.5,-125 516.75,-125 516.75,-94 156.5,-94"/>
<text xml:space="preserve" text-anchor="start" x="246.25" y="-104.7" font-family="Helvetica,sans-Serif" font-weight="bold" font-size="14.00">What happens on interrupt?</text>
<polygon fill="#f5f5f5" stroke="none" points="516.75,-94 516.75,-125 829.75,-125 829.75,-94 516.75,-94"/>
<polygon fill="none" stroke="#5b6b73" points="516.75,-94 516.75,-125 829.75,-125 829.75,-94 516.75,-94"/>
<text xml:space="preserve" text-anchor="start" x="630.5" y="-104.7" font-family="Helvetica,sans-Serif" font-weight="bold" font-size="14.00">Main tradeoff</text>
<polygon fill="#e6f3f9" stroke="none" points="1,-63 1,-94 156.5,-94 156.5,-63 1,-63"/>
<polygon fill="none" stroke="#5b6b73" points="1,-63 1,-94 156.5,-94 156.5,-63 1,-63"/>
<text xml:space="preserve" text-anchor="start" x="9" y="-73.7" font-family="Helvetica,sans-Serif" font-weight="bold" font-size="14.00">One handler + polling</text>
<polygon fill="none" stroke="#5b6b73" points="156.5,-63 156.5,-94 516.75,-94 516.75,-63 156.5,-63"/>
<text xml:space="preserve" text-anchor="start" x="164.5" y="-74.75" font-family="Helvetica,sans-Serif" font-size="14.00">enter a generic ISR; ISR checks devices to find the cause</text>
<polygon fill="none" stroke="#5b6b73" points="516.75,-63 516.75,-94 829.75,-94 829.75,-63 516.75,-63"/>
<text xml:space="preserve" text-anchor="start" x="557" y="-74.75" font-family="Helvetica,sans-Serif" font-size="14.00">simple but adds per&#45;interrupt overhead</text>
<polygon fill="#e6f3f9" stroke="none" points="1,-32 1,-63 156.5,-63 156.5,-32 1,-32"/>
<polygon fill="none" stroke="#5b6b73" points="1,-32 1,-63 156.5,-63 156.5,-32 1,-32"/>
<text xml:space="preserve" text-anchor="start" x="11.25" y="-42.7" font-family="Helvetica,sans-Serif" font-weight="bold" font-size="14.00">Interrupt vector table</text>
<polygon fill="none" stroke="#5b6b73" points="156.5,-32 156.5,-63 516.75,-63 516.75,-32 156.5,-32"/>
<text xml:space="preserve" text-anchor="start" x="178.38" y="-43.75" font-family="Helvetica,sans-Serif" font-size="14.00">hardware indexes to a specific handler for the source</text>
<polygon fill="none" stroke="#5b6b73" points="516.75,-32 516.75,-63 829.75,-63 829.75,-32 516.75,-32"/>
<text xml:space="preserve" text-anchor="start" x="524.75" y="-43.75" font-family="Helvetica,sans-Serif" font-size="14.00">fast dispatch, but the table is security&#45;critical state</text>
<polygon fill="#e6f3f9" stroke="none" points="1,-1 1,-32 156.5,-32 156.5,-1 1,-1"/>
<polygon fill="none" stroke="#5b6b73" points="1,-1 1,-32 156.5,-32 156.5,-1 1,-1"/>
<text xml:space="preserve" text-anchor="start" x="15.38" y="-11.7" font-family="Helvetica,sans-Serif" font-weight="bold" font-size="14.00">Protection invariant</text>
<polygon fill="none" stroke="#5b6b73" points="156.5,-1 156.5,-32 829.75,-32 829.75,-1 156.5,-1"/>
<text xml:space="preserve" text-anchor="start" x="204.38" y="-12.75" font-family="Helvetica,sans-Serif" font-size="14.00">user mode must not be able to rewrite the vector table (or it could redirect privileged control flow)</text>
<polygon fill="none" stroke="#5b6b73" points="0,0 0,-126 830.75,-126 830.75,0 0,0"/>
</g>
</g>
</svg>
