<?xml version="1.0" encoding="UTF-8" standalone="no"?>
<!DOCTYPE svg PUBLIC "-//W3C//DTD SVG 1.1//EN"
 "http://www.w3.org/Graphics/SVG/1.1/DTD/svg11.dtd">
<!-- Generated by graphviz version 14.1.3 (20260303.0454)
 -->
<!-- Title: G Pages: 1 -->
<svg width="518pt" height="287pt"
 viewBox="0.00 0.00 518.00 287.00" xmlns="http://www.w3.org/2000/svg" xmlns:xlink="http://www.w3.org/1999/xlink">
<g id="graph0" class="graph" transform="scale(1 1) rotate(0) translate(18 269)">
<title>G</title>
<polygon fill="white" stroke="none" points="-18,18 -18,-269 499.88,-269 499.88,18 -18,18"/>
<!-- disks -->
<g id="node1" class="node">
<title>disks</title>
<path fill="#e6f3f9" stroke="#5b6b73" d="M64.62,-251C64.62,-251 34.62,-251 34.62,-251 28.63,-251 22.62,-245 22.62,-239 22.62,-239 22.62,-227 22.62,-227 22.62,-221 28.62,-215 34.62,-215 34.62,-215 64.62,-215 64.62,-215 70.62,-215 76.62,-221 76.62,-227 76.62,-227 76.62,-239 76.62,-239 76.62,-245 70.62,-251 64.62,-251"/>
<text xml:space="preserve" text-anchor="middle" x="49.62" y="-227.2" font-family="Helvetica,sans-Serif" font-size="14.00" fill="#233238">disks</text>
</g>
<!-- diskctl -->
<g id="node7" class="node">
<title>diskctl</title>
<path fill="#ddeaf1" stroke="#5b6b73" d="M87.25,-175C87.25,-175 12,-175 12,-175 6,-175 0,-169 0,-163 0,-163 0,-151 0,-151 0,-145 6,-139 12,-139 12,-139 87.25,-139 87.25,-139 93.25,-139 99.25,-145 99.25,-151 99.25,-151 99.25,-163 99.25,-163 99.25,-169 93.25,-175 87.25,-175"/>
<text xml:space="preserve" text-anchor="middle" x="49.62" y="-151.2" font-family="Helvetica,sans-Serif" font-size="14.00" fill="#233238">disk controller</text>
</g>
<!-- disks&#45;&gt;diskctl -->
<g id="edge1" class="edge">
<title>disks&#45;&gt;diskctl</title>
<path fill="none" stroke="#5b6b73" stroke-width="1.2" d="M49.62,-214.6C49.62,-214.6 49.62,-185.31 49.62,-185.31"/>
<polygon fill="#5b6b73" stroke="#5b6b73" stroke-width="1.2" points="52.43,-185.31 49.63,-177.31 46.83,-185.31 52.43,-185.31"/>
</g>
<!-- mouse -->
<g id="node2" class="node">
<title>mouse</title>
<path fill="#e6f3f9" stroke="#5b6b73" d="M172.25,-251C172.25,-251 139,-251 139,-251 133,-251 127,-245 127,-239 127,-239 127,-227 127,-227 127,-221 133,-215 139,-215 139,-215 172.25,-215 172.25,-215 178.25,-215 184.25,-221 184.25,-227 184.25,-227 184.25,-239 184.25,-239 184.25,-245 178.25,-251 172.25,-251"/>
<text xml:space="preserve" text-anchor="middle" x="155.62" y="-227.2" font-family="Helvetica,sans-Serif" font-size="14.00" fill="#233238">mouse</text>
</g>
<!-- usbctl -->
<g id="node8" class="node">
<title>usbctl</title>
<path fill="#ddeaf1" stroke="#5b6b73" d="M309.12,-175C309.12,-175 230.12,-175 230.12,-175 224.12,-175 218.12,-169 218.12,-163 218.12,-163 218.12,-151 218.12,-151 218.12,-145 224.12,-139 230.12,-139 230.12,-139 309.12,-139 309.12,-139 315.12,-139 321.12,-145 321.12,-151 321.12,-151 321.12,-163 321.12,-163 321.12,-169 315.12,-175 309.12,-175"/>
<text xml:space="preserve" text-anchor="middle" x="269.62" y="-151.2" font-family="Helvetica,sans-Serif" font-size="14.00" fill="#233238">USB controller</text>
</g>
<!-- mouse&#45;&gt;usbctl -->
<g id="edge2" class="edge">
<title>mouse&#45;&gt;usbctl</title>
<path fill="none" stroke="#5b6b73" stroke-width="1.2" d="M184.71,-233C193.45,-233 200.75,-233 200.75,-233 200.75,-233 200.75,-157 200.75,-157 200.75,-157 207.96,-157 207.96,-157"/>
<polygon fill="#5b6b73" stroke="#5b6b73" stroke-width="1.2" points="207.96,-159.8 215.96,-157 207.96,-154.2 207.96,-159.8"/>
</g>
<!-- keyboard -->
<g id="node3" class="node">
<title>keyboard</title>
<path fill="#e6f3f9" stroke="#5b6b73" d="M275.38,-251C275.38,-251 227.88,-251 227.88,-251 221.88,-251 215.88,-245 215.88,-239 215.88,-239 215.88,-227 215.88,-227 215.88,-221 221.88,-215 227.88,-215 227.88,-215 275.38,-215 275.38,-215 281.38,-215 287.38,-221 287.38,-227 287.38,-227 287.38,-239 287.38,-239 287.38,-245 281.38,-251 275.38,-251"/>
<text xml:space="preserve" text-anchor="middle" x="251.62" y="-227.2" font-family="Helvetica,sans-Serif" font-size="14.00" fill="#233238">keyboard</text>
</g>
<!-- keyboard&#45;&gt;usbctl -->
<g id="edge3" class="edge">
<title>keyboard&#45;&gt;usbctl</title>
<path fill="none" stroke="#5b6b73" stroke-width="1.2" d="M252.75,-214.6C252.75,-214.6 252.75,-185.31 252.75,-185.31"/>
<polygon fill="#5b6b73" stroke="#5b6b73" stroke-width="1.2" points="255.55,-185.31 252.75,-177.31 249.95,-185.31 255.55,-185.31"/>
</g>
<!-- printer -->
<g id="node4" class="node">
<title>printer</title>
<path fill="#e6f3f9" stroke="#5b6b73" d="M361.75,-251C361.75,-251 331.5,-251 331.5,-251 325.5,-251 319.5,-245 319.5,-239 319.5,-239 319.5,-227 319.5,-227 319.5,-221 325.5,-215 331.5,-215 331.5,-215 361.75,-215 361.75,-215 367.75,-215 373.75,-221 373.75,-227 373.75,-227 373.75,-239 373.75,-239 373.75,-245 367.75,-251 361.75,-251"/>
<text xml:space="preserve" text-anchor="middle" x="346.62" y="-227.2" font-family="Helvetica,sans-Serif" font-size="14.00" fill="#233238">printer</text>
</g>
<!-- printer&#45;&gt;usbctl -->
<g id="edge4" class="edge">
<title>printer&#45;&gt;usbctl</title>
<path fill="none" stroke="#5b6b73" stroke-width="1.2" d="M319.03,-233C310.57,-233 303.44,-233 303.44,-233 303.44,-233 303.44,-185.21 303.44,-185.21"/>
<polygon fill="#5b6b73" stroke="#5b6b73" stroke-width="1.2" points="306.24,-185.21 303.44,-177.21 300.64,-185.21 306.24,-185.21"/>
</g>
<!-- monitor -->
<g id="node5" class="node">
<title>monitor</title>
<path fill="#e6f3f9" stroke="#5b6b73" d="M455.5,-251C455.5,-251 417.75,-251 417.75,-251 411.75,-251 405.75,-245 405.75,-239 405.75,-239 405.75,-227 405.75,-227 405.75,-221 411.75,-215 417.75,-215 417.75,-215 455.5,-215 455.5,-215 461.5,-215 467.5,-221 467.5,-227 467.5,-227 467.5,-239 467.5,-239 467.5,-245 461.5,-251 455.5,-251"/>
<text xml:space="preserve" text-anchor="middle" x="436.62" y="-227.2" font-family="Helvetica,sans-Serif" font-size="14.00" fill="#233238">monitor</text>
</g>
<!-- gfx -->
<g id="node9" class="node">
<title>gfx</title>
<path fill="#ddeaf1" stroke="#5b6b73" d="M469.88,-175C469.88,-175 377.38,-175 377.38,-175 371.38,-175 365.38,-169 365.38,-163 365.38,-163 365.38,-151 365.38,-151 365.38,-145 371.38,-139 377.38,-139 377.38,-139 469.88,-139 469.88,-139 475.88,-139 481.88,-145 481.88,-151 481.88,-151 481.88,-163 481.88,-163 481.88,-169 475.88,-175 469.88,-175"/>
<text xml:space="preserve" text-anchor="middle" x="423.62" y="-151.2" font-family="Helvetica,sans-Serif" font-size="14.00" fill="#233238">graphics adapter</text>
</g>
<!-- monitor&#45;&gt;gfx -->
<g id="edge5" class="edge">
<title>monitor&#45;&gt;gfx</title>
<path fill="none" stroke="#5b6b73" stroke-width="1.2" d="M436.62,-214.6C436.62,-214.6 436.62,-185.31 436.62,-185.31"/>
<polygon fill="#5b6b73" stroke="#5b6b73" stroke-width="1.2" points="439.43,-185.31 436.63,-177.31 433.83,-185.31 439.43,-185.31"/>
</g>
<!-- cpu -->
<g id="node6" class="node">
<title>cpu</title>
<path fill="#d9d9d9" stroke="#5b6b73" d="M173.62,-175C173.62,-175 143.62,-175 143.62,-175 137.62,-175 131.62,-169 131.62,-163 131.62,-163 131.62,-151 131.62,-151 131.62,-145 137.62,-139 143.62,-139 143.62,-139 173.62,-139 173.62,-139 179.62,-139 185.62,-145 185.62,-151 185.62,-151 185.62,-163 185.62,-163 185.62,-169 179.62,-175 173.62,-175"/>
<text xml:space="preserve" text-anchor="middle" x="158.62" y="-151.2" font-family="Helvetica,sans-Serif" font-size="14.00" fill="#233238">CPU</text>
</g>
<!-- bus -->
<g id="node10" class="node">
<title>bus</title>
<path fill="#f5f5f5" stroke="#5b6b73" d="M367.96,-99C367.96,-99 59.29,-99 59.29,-99 55.46,-99 51.62,-95.17 51.62,-91.33 51.62,-91.33 51.62,-83.67 51.62,-83.67 51.62,-79.83 55.46,-76 59.29,-76 59.29,-76 367.96,-76 367.96,-76 371.79,-76 375.62,-79.83 375.62,-83.67 375.62,-83.67 375.62,-91.33 375.62,-91.33 375.62,-95.17 371.79,-99 367.96,-99"/>
<text xml:space="preserve" text-anchor="middle" x="213.62" y="-81.7" font-family="Helvetica,sans-Serif" font-size="14.00" fill="#233238">shared bus</text>
</g>
<!-- cpu&#45;&gt;bus -->
<g id="edge6" class="edge">
<title>cpu&#45;&gt;bus</title>
<path fill="none" stroke="#5b6b73" stroke-width="1.2" d="M158.62,-138.74C158.62,-126.19 158.62,-109.91 158.62,-99.1"/>
</g>
<!-- diskctl&#45;&gt;bus -->
<g id="edge7" class="edge">
<title>diskctl&#45;&gt;bus</title>
<path fill="none" stroke="#5b6b73" stroke-width="1.2" d="M75.44,-138.74C75.44,-126.19 75.44,-109.91 75.44,-99.1"/>
</g>
<!-- usbctl&#45;&gt;bus -->
<g id="edge8" class="edge">
<title>usbctl&#45;&gt;bus</title>
<path fill="none" stroke="#5b6b73" stroke-width="1.2" d="M269.62,-138.74C269.62,-126.19 269.62,-109.91 269.62,-99.1"/>
</g>
<!-- gfx&#45;&gt;bus -->
<g id="edge9" class="edge">
<title>gfx&#45;&gt;bus</title>
<path fill="none" stroke="#5b6b73" stroke-width="1.2" d="M370.5,-138.74C370.5,-126.19 370.5,-109.91 370.5,-99.1"/>
</g>
<!-- memory -->
<g id="node11" class="node">
<title>memory</title>
<path fill="#bfe2f1" stroke="#5b6b73" d="M273.62,-36C273.62,-36 153.62,-36 153.62,-36 147.62,-36 141.62,-30 141.62,-24 141.62,-24 141.62,-12 141.62,-12 141.62,-6 147.62,0 153.62,0 153.62,0 273.62,0 273.62,0 279.62,0 285.62,-6 285.62,-12 285.62,-12 285.62,-24 285.62,-24 285.62,-30 279.62,-36 273.62,-36"/>
<text xml:space="preserve" text-anchor="middle" x="213.62" y="-12.2" font-family="Helvetica,sans-Serif" font-size="14.00" fill="#233238">memory</text>
</g>
<!-- bus&#45;&gt;memory -->
<g id="edge10" class="edge">
<title>bus&#45;&gt;memory</title>
<path fill="none" stroke="#5b6b73" stroke-width="1.2" d="M213.62,-75.71C213.62,-75.71 213.62,-46.21 213.62,-46.21"/>
<polygon fill="#5b6b73" stroke="#5b6b73" stroke-width="1.2" points="216.43,-46.21 213.63,-38.21 210.83,-46.21 216.43,-46.21"/>
</g>
</g>
</svg>
