<?xml version="1.0" encoding="UTF-8" standalone="no"?>
<!DOCTYPE svg PUBLIC "-//W3C//DTD SVG 1.1//EN"
 "http://www.w3.org/Graphics/SVG/1.1/DTD/svg11.dtd">
<!-- Generated by graphviz version 14.1.3 (20260303.0454)
 -->
<!-- Title: G Pages: 1 -->
<svg width="1147pt" height="265pt"
 viewBox="0.00 0.00 1147.00 265.00" xmlns="http://www.w3.org/2000/svg" xmlns:xlink="http://www.w3.org/1999/xlink">
<g id="graph0" class="graph" transform="scale(1 1) rotate(0) translate(18 247)">
<title>G</title>
<polygon fill="white" stroke="none" points="-18,18 -18,-247 1129.25,-247 1129.25,18 -18,18"/>
<g id="clust1" class="cluster">
<title>cluster_victim</title>
<path fill="#eaf6fb" stroke="#9ec9da" d="M129.75,-127C129.75,-127 832.25,-127 832.25,-127 838.25,-127 844.25,-133 844.25,-139 844.25,-139 844.25,-209 844.25,-209 844.25,-215 838.25,-221 832.25,-221 832.25,-221 129.75,-221 129.75,-221 123.75,-221 117.75,-215 117.75,-209 117.75,-209 117.75,-139 117.75,-139 117.75,-133 123.75,-127 129.75,-127"/>
<text xml:space="preserve" text-anchor="middle" x="481" y="-203.7" font-family="Times,serif" font-size="14.00">victim process</text>
</g>
<g id="clust2" class="cluster">
<title>cluster_attacker</title>
<path fill="#fdf0f0" stroke="#f0c2c2" d="M134.62,-8C134.62,-8 472.75,-8 472.75,-8 478.75,-8 484.75,-14 484.75,-20 484.75,-20 484.75,-90 484.75,-90 484.75,-96 478.75,-102 472.75,-102 472.75,-102 134.63,-102 134.63,-102 128.62,-102 122.62,-96 122.62,-90 122.62,-90 122.62,-20 122.62,-20 122.62,-14 128.62,-8 134.62,-8"/>
<text xml:space="preserve" text-anchor="middle" x="303.69" y="-84.7" font-family="Times,serif" font-size="14.00">attacker process</text>
</g>
<!-- time -->
<g id="node1" class="node">
<title>time</title>
<path fill="#5b6b73" stroke="none" d="M46.75,-180C46.75,-180 12,-180 12,-180 6,-180 0,-174 0,-168 0,-168 0,-156 0,-156 0,-150 6,-144 12,-144 12,-144 46.75,-144 46.75,-144 52.75,-144 58.75,-150 58.75,-156 58.75,-156 58.75,-168 58.75,-168 58.75,-174 52.75,-180 46.75,-180"/>
<text xml:space="preserve" text-anchor="middle" x="29.38" y="-156.2" font-family="Helvetica,sans-Serif" font-size="14.00" fill="#233238">time &#45;&gt;</text>
</g>
<!-- v_check -->
<g id="node2" class="node">
<title>v_check</title>
<path fill="#ddeaf1" stroke="#5b6b73" d="M222,-188.5C222,-188.5 137.75,-188.5 137.75,-188.5 131.75,-188.5 125.75,-182.5 125.75,-176.5 125.75,-176.5 125.75,-147.5 125.75,-147.5 125.75,-141.5 131.75,-135.5 137.75,-135.5 137.75,-135.5 222,-135.5 222,-135.5 228,-135.5 234,-141.5 234,-147.5 234,-147.5 234,-176.5 234,-176.5 234,-182.5 228,-188.5 222,-188.5"/>
<text xml:space="preserve" text-anchor="middle" x="179.88" y="-171.2" font-family="Helvetica,sans-Serif" font-size="14.00" fill="#233238">check</text>
<text xml:space="preserve" text-anchor="middle" x="179.88" y="-156.2" font-family="Helvetica,sans-Serif" font-size="14.00" fill="#233238">stat(path)</text>
<text xml:space="preserve" text-anchor="middle" x="179.88" y="-141.2" font-family="Helvetica,sans-Serif" font-size="14.00" fill="#233238">&quot;looks writable&quot;</text>
</g>
<!-- time&#45;&gt;v_check -->
<!-- v_gap -->
<g id="node3" class="node">
<title>v_gap</title>
<path fill="#f5f5f5" stroke="#5b6b73" d="M425.75,-181C425.75,-181 352,-181 352,-181 346,-181 340,-175 340,-169 340,-169 340,-155 340,-155 340,-149 346,-143 352,-143 352,-143 425.75,-143 425.75,-143 431.75,-143 437.75,-149 437.75,-155 437.75,-155 437.75,-169 437.75,-169 437.75,-175 431.75,-181 425.75,-181"/>
<text xml:space="preserve" text-anchor="middle" x="388.88" y="-163.7" font-family="Helvetica,sans-Serif" font-size="14.00" fill="#233238">gap</text>
<text xml:space="preserve" text-anchor="middle" x="388.88" y="-148.7" font-family="Helvetica,sans-Serif" font-size="14.00" fill="#233238">(time passes)</text>
</g>
<!-- v_check&#45;&gt;v_gap -->
<g id="edge1" class="edge">
<title>v_check&#45;&gt;v_gap</title>
<path fill="none" stroke="#5b6b73" stroke-width="1.05" d="M234.45,-162C264.11,-162 300.95,-162 331.1,-162"/>
<polygon fill="#5b6b73" stroke="#5b6b73" stroke-width="1.05" points="330.73,-164.63 338.23,-162 330.73,-159.38 330.73,-164.63"/>
</g>
<!-- a_wait -->
<g id="node5" class="node">
<title>a_wait</title>
<path fill="#f5f5f5" stroke="#5b6b73" d="M217.12,-56C217.12,-56 142.62,-56 142.62,-56 136.62,-56 130.62,-50 130.62,-44 130.62,-44 130.62,-32 130.62,-32 130.62,-26 136.62,-20 142.62,-20 142.62,-20 217.12,-20 217.12,-20 223.12,-20 229.12,-26 229.12,-32 229.12,-32 229.12,-44 229.12,-44 229.12,-50 223.12,-56 217.12,-56"/>
<text xml:space="preserve" text-anchor="middle" x="179.88" y="-32.2" font-family="Helvetica,sans-Serif" font-size="14.00" fill="#233238">wait for check</text>
</g>
<!-- v_check&#45;&gt;a_wait -->
<g id="edge4" class="edge">
<title>v_check&#45;&gt;a_wait</title>
<path fill="none" stroke="#5b6b73" stroke-width="1.05" stroke-dasharray="5,2" d="M179.88,-135.38C179.88,-114.69 179.88,-86.12 179.88,-65.27"/>
<polygon fill="#5b6b73" stroke="#5b6b73" stroke-width="1.05" points="182.5,-65.39 179.88,-57.89 177.25,-65.39 182.5,-65.39"/>
<text xml:space="preserve" text-anchor="middle" x="169.38" y="-89.95" font-family="Helvetica,sans-Serif" font-size="14.00">observes timing</text>
</g>
<!-- v_use -->
<g id="node4" class="node">
<title>v_use</title>
<path fill="#bfe2f1" stroke="#5b6b73" d="M824.25,-188.5C824.25,-188.5 693.5,-188.5 693.5,-188.5 687.5,-188.5 681.5,-182.5 681.5,-176.5 681.5,-176.5 681.5,-147.5 681.5,-147.5 681.5,-141.5 687.5,-135.5 693.5,-135.5 693.5,-135.5 824.25,-135.5 824.25,-135.5 830.25,-135.5 836.25,-141.5 836.25,-147.5 836.25,-147.5 836.25,-176.5 836.25,-176.5 836.25,-182.5 830.25,-188.5 824.25,-188.5"/>
<text xml:space="preserve" text-anchor="middle" x="758.88" y="-171.2" font-family="Helvetica,sans-Serif" font-size="14.00" fill="#233238">use</text>
<text xml:space="preserve" text-anchor="middle" x="758.88" y="-156.2" font-family="Helvetica,sans-Serif" font-size="14.00" fill="#233238">open(path, O_TRUNC)</text>
<text xml:space="preserve" text-anchor="middle" x="758.88" y="-141.2" font-family="Helvetica,sans-Serif" font-size="14.00" fill="#233238">(commit effect)</text>
</g>
<!-- v_gap&#45;&gt;v_use -->
<g id="edge2" class="edge">
<title>v_gap&#45;&gt;v_use</title>
<path fill="none" stroke="#5b6b73" stroke-width="1.05" d="M437.98,-162C497.43,-162 599.62,-162 672.5,-162"/>
<polygon fill="#5b6b73" stroke="#5b6b73" stroke-width="1.05" points="672.15,-164.63 679.65,-162 672.15,-159.38 672.15,-164.63"/>
</g>
<!-- note -->
<g id="node7" class="node">
<title>note</title>
<polygon fill="#ffffff" stroke="#9aa7ae" points="1105.25,-211 903.25,-211 903.25,-113 1111.25,-113 1111.25,-205 1105.25,-211"/>
<polyline fill="none" stroke="#9aa7ae" points="1105.25,-211 1105.25,-205"/>
<polyline fill="none" stroke="#9aa7ae" points="1111.25,-205 1105.25,-205"/>
<text xml:space="preserve" text-anchor="middle" x="1007.25" y="-193.7" font-family="Helvetica,sans-Serif" font-size="14.00" fill="#233238">Lesson:</text>
<text xml:space="preserve" text-anchor="middle" x="1007.25" y="-178.7" font-family="Helvetica,sans-Serif" font-size="14.00" fill="#233238">checks must be tied to the</text>
<text xml:space="preserve" text-anchor="middle" x="1007.25" y="-163.7" font-family="Helvetica,sans-Serif" font-size="14.00" fill="#233238">object actually used at the</text>
<text xml:space="preserve" text-anchor="middle" x="1007.25" y="-148.7" font-family="Helvetica,sans-Serif" font-size="14.00" fill="#233238">commit point (kernel&#45;mediated).</text>
<text xml:space="preserve" text-anchor="middle" x="1007.25" y="-133.7" font-family="Helvetica,sans-Serif" font-size="14.00" fill="#233238">Otherwise &quot;check then use&quot;</text>
<text xml:space="preserve" text-anchor="middle" x="1007.25" y="-118.7" font-family="Helvetica,sans-Serif" font-size="14.00" fill="#233238">can be invalidated by races.</text>
</g>
<!-- v_use&#45;&gt;note -->
<g id="edge6" class="edge">
<title>v_use&#45;&gt;note</title>
<path fill="none" stroke="#5b6b73" stroke-width="1.05" stroke-dasharray="1,5" d="M836.48,-162C857.53,-162 880.7,-162 902.98,-162"/>
</g>
<!-- a_swap -->
<g id="node6" class="node">
<title>a_swap</title>
<path fill="#f7e9c5" stroke="#5b6b73" d="M464.75,-69.5C464.75,-69.5 313,-69.5 313,-69.5 307,-69.5 301,-63.5 301,-57.5 301,-57.5 301,-28.5 301,-28.5 301,-22.5 307,-16.5 313,-16.5 313,-16.5 464.75,-16.5 464.75,-16.5 470.75,-16.5 476.75,-22.5 476.75,-28.5 476.75,-28.5 476.75,-57.5 476.75,-57.5 476.75,-63.5 470.75,-69.5 464.75,-69.5"/>
<text xml:space="preserve" text-anchor="middle" x="388.88" y="-52.2" font-family="Helvetica,sans-Serif" font-size="14.00" fill="#233238">swap meaning</text>
<text xml:space="preserve" text-anchor="middle" x="388.88" y="-37.2" font-family="Helvetica,sans-Serif" font-size="14.00" fill="#233238">(rename/symlink)</text>
<text xml:space="preserve" text-anchor="middle" x="388.88" y="-22.2" font-family="Helvetica,sans-Serif" font-size="14.00" fill="#233238">path now points elsewhere</text>
</g>
<!-- a_wait&#45;&gt;a_swap -->
<g id="edge3" class="edge">
<title>a_wait&#45;&gt;a_swap</title>
<path fill="none" stroke="#5b6b73" stroke-width="1.05" d="M229.41,-39.17C248.1,-39.62 270.17,-40.16 291.8,-40.68"/>
<polygon fill="#5b6b73" stroke="#5b6b73" stroke-width="1.05" points="291.55,-43.3 299.12,-40.86 291.68,-38.05 291.55,-43.3"/>
</g>
<!-- a_swap&#45;&gt;v_use -->
<g id="edge5" class="edge">
<title>a_swap&#45;&gt;v_use</title>
<path fill="none" stroke="#8b3a3a" stroke-width="1.05" stroke-dasharray="5,2" d="M472.92,-69.85C532.55,-89.14 612.66,-115.04 672.75,-134.47"/>
<polygon fill="#8b3a3a" stroke="#8b3a3a" stroke-width="1.05" points="671.64,-136.87 679.58,-136.68 673.25,-131.88 671.64,-136.87"/>
<text xml:space="preserve" text-anchor="middle" x="579.12" y="-125.21" font-family="Helvetica,sans-Serif" font-size="14.00" fill="#8b3a3a">use hits different object</text>
</g>
</g>
</svg>
