<?xml version="1.0" encoding="UTF-8" standalone="no"?>
<!DOCTYPE svg PUBLIC "-//W3C//DTD SVG 1.1//EN"
 "http://www.w3.org/Graphics/SVG/1.1/DTD/svg11.dtd">
<!-- Generated by graphviz version 14.1.3 (20260303.0454)
 -->
<!-- Title: G Pages: 1 -->
<svg width="903pt" height="328pt"
 viewBox="0.00 0.00 903.00 328.00" xmlns="http://www.w3.org/2000/svg" xmlns:xlink="http://www.w3.org/1999/xlink">
<g id="graph0" class="graph" transform="scale(1 1) rotate(0) translate(18 310)">
<title>G</title>
<polygon fill="white" stroke="none" points="-18,18 -18,-310 884.5,-310 884.5,18 -18,18"/>
<g id="clust1" class="cluster">
<title>cluster_cpu</title>
<path fill="#eaf6fb" stroke="#9ec9da" d="M675.25,-127C675.25,-127 825.5,-127 825.5,-127 831.5,-127 837.5,-133 837.5,-139 837.5,-139 837.5,-272 837.5,-272 837.5,-278 831.5,-284 825.5,-284 825.5,-284 675.25,-284 675.25,-284 669.25,-284 663.25,-278 663.25,-272 663.25,-272 663.25,-139 663.25,-139 663.25,-133 669.25,-127 675.25,-127"/>
<text xml:space="preserve" text-anchor="middle" x="750.38" y="-266.7" font-family="Times,serif" font-size="14.00">CPU (what is live right now)</text>
</g>
<g id="clust2" class="cluster">
<title>cluster_kernel</title>
<path fill="#f3fafd" stroke="#b0c7d3" d="M20,-8C20,-8 458.25,-8 458.25,-8 464.25,-8 470.25,-14 470.25,-20 470.25,-20 470.25,-231 470.25,-231 470.25,-237 464.25,-243 458.25,-243 458.25,-243 20,-243 20,-243 14,-243 8,-237 8,-231 8,-231 8,-20 8,-20 8,-14 14,-8 20,-8"/>
<text xml:space="preserve" text-anchor="middle" x="239.12" y="-225.7" font-family="Times,serif" font-size="14.00">kernel memory (authoritative bookkeeping)</text>
</g>
<g id="clust3" class="cluster">
<title>cluster_user</title>
<path fill="#ffffff" stroke="#d0d0d0" d="M653.25,-8C653.25,-8 846.5,-8 846.5,-8 852.5,-8 858.5,-14 858.5,-20 858.5,-20 858.5,-75 858.5,-75 858.5,-81 852.5,-87 846.5,-87 846.5,-87 653.25,-87 653.25,-87 647.25,-87 641.25,-81 641.25,-75 641.25,-75 641.25,-20 641.25,-20 641.25,-14 647.25,-8 653.25,-8"/>
<text xml:space="preserve" text-anchor="middle" x="749.88" y="-69.7" font-family="Times,serif" font-size="14.00">user memory (the process&#39;s world)</text>
</g>
<!-- regs -->
<g id="node1" class="node">
<title>regs</title>
<path fill="#bfe2f1" stroke="#5b6b73" d="M811.88,-173C811.88,-173 687.88,-173 687.88,-173 681.88,-173 675.88,-167 675.88,-161 675.88,-161 675.88,-147 675.88,-147 675.88,-141 681.88,-135 687.88,-135 687.88,-135 811.88,-135 811.88,-135 817.88,-135 823.88,-141 823.88,-147 823.88,-147 823.88,-161 823.88,-161 823.88,-167 817.88,-173 811.88,-173"/>
<text xml:space="preserve" text-anchor="middle" x="749.88" y="-155.7" font-family="Helvetica,sans-Serif" font-size="14.00" fill="#233238">registers</text>
<text xml:space="preserve" text-anchor="middle" x="749.88" y="-140.7" font-family="Helvetica,sans-Serif" font-size="14.00" fill="#233238">(PC, SP, GPRs, flags)</text>
</g>
<!-- kstack -->
<g id="node4" class="node">
<title>kstack</title>
<path fill="#ddeaf1" stroke="#5b6b73" d="M450.25,-132C450.25,-132 321,-132 321,-132 315,-132 309,-126 309,-120 309,-120 309,-106 309,-106 309,-100 315,-94 321,-94 321,-94 450.25,-94 450.25,-94 456.25,-94 462.25,-100 462.25,-106 462.25,-106 462.25,-120 462.25,-120 462.25,-126 456.25,-132 450.25,-132"/>
<text xml:space="preserve" text-anchor="middle" x="385.62" y="-114.7" font-family="Helvetica,sans-Serif" font-size="14.00" fill="#233238">kernel stack</text>
<text xml:space="preserve" text-anchor="middle" x="385.62" y="-99.7" font-family="Helvetica,sans-Serif" font-size="14.00" fill="#233238">(per execution context)</text>
</g>
<!-- regs&#45;&gt;kstack -->
<g id="edge1" class="edge">
<title>regs&#45;&gt;kstack</title>
<path fill="none" stroke="#5b6b73" stroke-width="1.05" d="M675.42,-154.93C623.63,-154.52 552.82,-151.84 491.25,-142 479.98,-140.2 468.18,-137.63 456.74,-134.75"/>
<polygon fill="#5b6b73" stroke="#5b6b73" stroke-width="1.05" points="457.54,-132.24 449.62,-132.9 456.22,-137.32 457.54,-132.24"/>
<text xml:space="preserve" text-anchor="middle" x="555.75" y="-170.25" font-family="Helvetica,sans-Serif" font-size="14.00">saved on kernel entry</text>
<text xml:space="preserve" text-anchor="middle" x="555.75" y="-155.25" font-family="Helvetica,sans-Serif" font-size="14.00">(trap frame)</text>
</g>
<!-- mode -->
<g id="node2" class="node">
<title>mode</title>
<path fill="#ddeaf1" stroke="#5b6b73" d="M787.5,-251C787.5,-251 712.25,-251 712.25,-251 706.25,-251 700.25,-245 700.25,-239 700.25,-239 700.25,-225 700.25,-225 700.25,-219 706.25,-213 712.25,-213 712.25,-213 787.5,-213 787.5,-213 793.5,-213 799.5,-219 799.5,-225 799.5,-225 799.5,-239 799.5,-239 799.5,-245 793.5,-251 787.5,-251"/>
<text xml:space="preserve" text-anchor="middle" x="749.88" y="-233.7" font-family="Helvetica,sans-Serif" font-size="14.00" fill="#233238">mode</text>
<text xml:space="preserve" text-anchor="middle" x="749.88" y="-218.7" font-family="Helvetica,sans-Serif" font-size="14.00" fill="#233238">(user / kernel)</text>
</g>
<!-- pcb -->
<g id="node3" class="node">
<title>pcb</title>
<path fill="#d5edf7" stroke="#5b6b73" d="M163.25,-135C163.25,-135 28,-135 28,-135 22,-135 16,-129 16,-123 16,-123 16,-109 16,-109 16,-103 22,-97 28,-97 28,-97 163.25,-97 163.25,-97 169.25,-97 175.25,-103 175.25,-109 175.25,-109 175.25,-123 175.25,-123 175.25,-129 169.25,-135 163.25,-135"/>
<text xml:space="preserve" text-anchor="middle" x="95.62" y="-117.7" font-family="Helvetica,sans-Serif" font-size="14.00" fill="#233238">PCB</text>
<text xml:space="preserve" text-anchor="middle" x="95.62" y="-102.7" font-family="Helvetica,sans-Serif" font-size="14.00" fill="#233238">(identity, state, pointers)</text>
</g>
<!-- pcb&#45;&gt;kstack -->
<g id="edge2" class="edge">
<title>pcb&#45;&gt;kstack</title>
<path fill="none" stroke="#5b6b73" stroke-width="1.05" d="M175.7,-115.18C214.25,-114.77 260.65,-114.29 299.92,-113.88"/>
<polygon fill="#5b6b73" stroke="#5b6b73" stroke-width="1.05" points="299.64,-116.51 307.11,-113.81 299.59,-111.26 299.64,-116.51"/>
<text xml:space="preserve" text-anchor="middle" x="242.12" y="-116.56" font-family="Helvetica,sans-Serif" font-size="14.00">points to</text>
</g>
<!-- mmu -->
<g id="node5" class="node">
<title>mmu</title>
<path fill="#ddeaf1" stroke="#5b6b73" d="M440.5,-54C440.5,-54 330.75,-54 330.75,-54 324.75,-54 318.75,-48 318.75,-42 318.75,-42 318.75,-28 318.75,-28 318.75,-22 324.75,-16 330.75,-16 330.75,-16 440.5,-16 440.5,-16 446.5,-16 452.5,-22 452.5,-28 452.5,-28 452.5,-42 452.5,-42 452.5,-48 446.5,-54 440.5,-54"/>
<text xml:space="preserve" text-anchor="middle" x="385.62" y="-36.7" font-family="Helvetica,sans-Serif" font-size="14.00" fill="#233238">address&#45;space root</text>
<text xml:space="preserve" text-anchor="middle" x="385.62" y="-21.7" font-family="Helvetica,sans-Serif" font-size="14.00" fill="#233238">(page&#45;table pointer)</text>
</g>
<!-- pcb&#45;&gt;mmu -->
<g id="edge3" class="edge">
<title>pcb&#45;&gt;mmu</title>
<path fill="none" stroke="#5b6b73" stroke-width="1.05" d="M165.61,-96.6C209.23,-84.33 265.58,-68.48 310.21,-55.93"/>
<polygon fill="#5b6b73" stroke="#5b6b73" stroke-width="1.05" points="310.64,-58.53 317.15,-53.98 309.22,-53.48 310.64,-58.53"/>
<text xml:space="preserve" text-anchor="middle" x="242.12" y="-86.84" font-family="Helvetica,sans-Serif" font-size="14.00">selects</text>
</g>
<!-- queues -->
<g id="node6" class="node">
<title>queues</title>
<path fill="#f5f5f5" stroke="#5b6b73" d="M434.88,-210C434.88,-210 336.38,-210 336.38,-210 330.38,-210 324.38,-204 324.38,-198 324.38,-198 324.38,-184 324.38,-184 324.38,-178 330.38,-172 336.38,-172 336.38,-172 434.88,-172 434.88,-172 440.88,-172 446.88,-178 446.88,-184 446.88,-184 446.88,-198 446.88,-198 446.88,-204 440.88,-210 434.88,-210"/>
<text xml:space="preserve" text-anchor="middle" x="385.62" y="-192.7" font-family="Helvetica,sans-Serif" font-size="14.00" fill="#233238">run / wait queues</text>
<text xml:space="preserve" text-anchor="middle" x="385.62" y="-177.7" font-family="Helvetica,sans-Serif" font-size="14.00" fill="#233238">(scheduling state)</text>
</g>
<!-- pcb&#45;&gt;queues -->
<g id="edge4" class="edge">
<title>pcb&#45;&gt;queues</title>
<path fill="none" stroke="#5b6b73" stroke-width="1.05" d="M171.17,-135.41C215.7,-147.01 271.88,-161.64 315.43,-172.98"/>
<polygon fill="#5b6b73" stroke="#5b6b73" stroke-width="1.05" points="314.51,-175.45 322.43,-174.8 315.83,-170.37 314.51,-175.45"/>
<text xml:space="preserve" text-anchor="middle" x="242.12" y="-164.12" font-family="Helvetica,sans-Serif" font-size="14.00">membership</text>
</g>
<!-- kstack&#45;&gt;regs -->
<g id="edge6" class="edge">
<title>kstack&#45;&gt;regs</title>
<path fill="none" stroke="#5b6b73" stroke-width="1.05" d="M462.51,-100.37C508.54,-94.94 568.24,-91.88 620.25,-102 649.14,-107.62 679.75,-119.72 703.86,-130.84"/>
<polygon fill="#5b6b73" stroke="#5b6b73" stroke-width="1.05" points="702.44,-133.07 710.34,-133.88 704.67,-128.31 702.44,-133.07"/>
<text xml:space="preserve" text-anchor="middle" x="555.75" y="-118.7" font-family="Helvetica,sans-Serif" font-size="14.00">restored on return</text>
<text xml:space="preserve" text-anchor="middle" x="555.75" y="-103.7" font-family="Helvetica,sans-Serif" font-size="14.00">to user mode</text>
</g>
<!-- as -->
<g id="node7" class="node">
<title>as</title>
<path fill="#f5f5f5" stroke="#5b6b73" d="M838.5,-54C838.5,-54 661.25,-54 661.25,-54 655.25,-54 649.25,-48 649.25,-42 649.25,-42 649.25,-28 649.25,-28 649.25,-22 655.25,-16 661.25,-16 661.25,-16 838.5,-16 838.5,-16 844.5,-16 850.5,-22 850.5,-28 850.5,-28 850.5,-42 850.5,-42 850.5,-48 844.5,-54 838.5,-54"/>
<text xml:space="preserve" text-anchor="middle" x="749.88" y="-36.7" font-family="Helvetica,sans-Serif" font-size="14.00" fill="#233238">address space</text>
<text xml:space="preserve" text-anchor="middle" x="749.88" y="-21.7" font-family="Helvetica,sans-Serif" font-size="14.00" fill="#233238">(code, data, heap, user stacks)</text>
</g>
<!-- mmu&#45;&gt;as -->
<g id="edge5" class="edge">
<title>mmu&#45;&gt;as</title>
<path fill="none" stroke="#5b6b73" stroke-width="1.05" stroke-dasharray="5,2" d="M452.75,-32.09C465.52,-31.63 478.8,-31.24 491.25,-31 548.57,-29.9 562.92,-30.11 620.25,-31 626.62,-31.1 633.17,-31.23 639.78,-31.37"/>
<polygon fill="#5b6b73" stroke="#5b6b73" stroke-width="1.05" points="639.67,-34 647.23,-31.55 639.8,-28.75 639.67,-34"/>
<text xml:space="preserve" text-anchor="middle" x="555.75" y="-47.7" font-family="Helvetica,sans-Serif" font-size="14.00">defines meaning of</text>
<text xml:space="preserve" text-anchor="middle" x="555.75" y="-32.7" font-family="Helvetica,sans-Serif" font-size="14.00">virtual addresses</text>
</g>
</g>
</svg>
