<?xml version="1.0" encoding="UTF-8" standalone="no"?>
<!DOCTYPE svg PUBLIC "-//W3C//DTD SVG 1.1//EN"
 "http://www.w3.org/Graphics/SVG/1.1/DTD/svg11.dtd">
<!-- Generated by graphviz version 14.1.3 (20260303.0454)
 -->
<!-- Title: G Pages: 1 -->
<svg width="1524pt" height="307pt"
 viewBox="0.00 0.00 1524.00 307.00" xmlns="http://www.w3.org/2000/svg" xmlns:xlink="http://www.w3.org/1999/xlink">
<g id="graph0" class="graph" transform="scale(1 1) rotate(0) translate(18 288.56)">
<title>G</title>
<polygon fill="white" stroke="none" points="-18,18 -18,-288.56 1506.25,-288.56 1506.25,18 -18,18"/>
<!-- new -->
<g id="node1" class="node">
<title>new</title>
<path fill="#f5f5f5" stroke="#5b6b73" d="M162.25,-83.53C162.25,-83.53 12,-83.53 12,-83.53 6,-83.53 0,-77.53 0,-71.53 0,-71.53 0,-57.53 0,-57.53 0,-51.53 6,-45.53 12,-45.53 12,-45.53 162.25,-45.53 162.25,-45.53 168.25,-45.53 174.25,-51.53 174.25,-57.53 174.25,-57.53 174.25,-71.53 174.25,-71.53 174.25,-77.53 168.25,-83.53 162.25,-83.53"/>
<text xml:space="preserve" text-anchor="middle" x="87.12" y="-66.23" font-family="Helvetica,sans-Serif" font-size="14.00" fill="#233238">new</text>
<text xml:space="preserve" text-anchor="middle" x="87.12" y="-51.23" font-family="Helvetica,sans-Serif" font-size="14.00" fill="#233238">(created, not yet runnable)</text>
</g>
<!-- ready -->
<g id="node2" class="node">
<title>ready</title>
<path fill="#bfe2f1" stroke="#5b6b73" d="M519.5,-83.53C519.5,-83.53 364.75,-83.53 364.75,-83.53 358.75,-83.53 352.75,-77.53 352.75,-71.53 352.75,-71.53 352.75,-57.53 352.75,-57.53 352.75,-51.53 358.75,-45.53 364.75,-45.53 364.75,-45.53 519.5,-45.53 519.5,-45.53 525.5,-45.53 531.5,-51.53 531.5,-57.53 531.5,-57.53 531.5,-71.53 531.5,-71.53 531.5,-77.53 525.5,-83.53 519.5,-83.53"/>
<text xml:space="preserve" text-anchor="middle" x="442.12" y="-66.23" font-family="Helvetica,sans-Serif" font-size="14.00" fill="#233238">ready</text>
<text xml:space="preserve" text-anchor="middle" x="442.12" y="-51.23" font-family="Helvetica,sans-Serif" font-size="14.00" fill="#233238">(runnable, waiting for CPU)</text>
</g>
<!-- new&#45;&gt;ready -->
<g id="edge1" class="edge">
<title>new&#45;&gt;ready</title>
<path fill="none" stroke="#5b6b73" stroke-width="1.05" d="M174.48,-64.53C225.51,-64.53 290.29,-64.53 343.22,-64.53"/>
<polygon fill="#5b6b73" stroke="#5b6b73" stroke-width="1.05" points="343.2,-67.16 350.7,-64.53 343.2,-61.91 343.2,-67.16"/>
<text xml:space="preserve" text-anchor="middle" x="263.5" y="-81.23" font-family="Helvetica,sans-Serif" font-size="14.00">admit</text>
<text xml:space="preserve" text-anchor="middle" x="263.5" y="-66.23" font-family="Helvetica,sans-Serif" font-size="14.00">(loaded, initialized)</text>
</g>
<!-- run -->
<g id="node3" class="node">
<title>run</title>
<path fill="#d5edf7" stroke="#5b6b73" d="M849.25,-190.53C849.25,-190.53 739.5,-190.53 739.5,-190.53 733.5,-190.53 727.5,-184.53 727.5,-178.53 727.5,-178.53 727.5,-164.53 727.5,-164.53 727.5,-158.53 733.5,-152.53 739.5,-152.53 739.5,-152.53 849.25,-152.53 849.25,-152.53 855.25,-152.53 861.25,-158.53 861.25,-164.53 861.25,-164.53 861.25,-178.53 861.25,-178.53 861.25,-184.53 855.25,-190.53 849.25,-190.53"/>
<text xml:space="preserve" text-anchor="middle" x="794.38" y="-173.23" font-family="Helvetica,sans-Serif" font-size="14.00" fill="#233238">running</text>
<text xml:space="preserve" text-anchor="middle" x="794.38" y="-158.23" font-family="Helvetica,sans-Serif" font-size="14.00" fill="#233238">(executing on CPU)</text>
</g>
<!-- ready&#45;&gt;run -->
<g id="edge2" class="edge">
<title>ready&#45;&gt;run</title>
<path fill="none" stroke="#5b6b73" stroke-width="1.05" d="M465.04,-83.93C488.07,-103.09 526.2,-131.52 564.5,-145.53 613.7,-163.54 672.49,-169.92 718.17,-171.87"/>
<polygon fill="#5b6b73" stroke="#5b6b73" stroke-width="1.05" points="717.94,-174.48 725.53,-172.14 718.13,-169.24 717.94,-174.48"/>
<text xml:space="preserve" text-anchor="middle" x="625.25" y="-186.06" font-family="Helvetica,sans-Serif" font-size="14.00">dispatch</text>
<text xml:space="preserve" text-anchor="middle" x="625.25" y="-171.06" font-family="Helvetica,sans-Serif" font-size="14.00">(scheduler chooses)</text>
</g>
<!-- term -->
<g id="node5" class="node">
<title>term</title>
<path fill="#f2d6d6" stroke="#5b6b73" d="M1476.25,-163.53C1476.25,-163.53 1389,-163.53 1389,-163.53 1383,-163.53 1377,-157.53 1377,-151.53 1377,-151.53 1377,-137.53 1377,-137.53 1377,-131.53 1383,-125.53 1389,-125.53 1389,-125.53 1476.25,-125.53 1476.25,-125.53 1482.25,-125.53 1488.25,-131.53 1488.25,-137.53 1488.25,-137.53 1488.25,-151.53 1488.25,-151.53 1488.25,-157.53 1482.25,-163.53 1476.25,-163.53"/>
<text xml:space="preserve" text-anchor="middle" x="1432.62" y="-146.23" font-family="Helvetica,sans-Serif" font-size="14.00" fill="#233238">terminated</text>
<text xml:space="preserve" text-anchor="middle" x="1432.62" y="-131.23" font-family="Helvetica,sans-Serif" font-size="14.00" fill="#233238">(exited or killed)</text>
</g>
<!-- ready&#45;&gt;term -->
<g id="edge8" class="edge">
<title>ready&#45;&gt;term</title>
<path fill="none" stroke="#9aa7ae" stroke-width="1.05" stroke-dasharray="5,2" d="M530.41,-45.07C674.87,-16.21 971.85,28.87 1215,-26.53 1286.74,-42.88 1359.76,-90.43 1400.02,-119.94"/>
<polygon fill="#9aa7ae" stroke="#9aa7ae" stroke-width="1.05" points="1398.29,-121.92 1405.88,-124.28 1401.42,-117.71 1398.29,-121.92"/>
<text xml:space="preserve" text-anchor="middle" x="959.75" y="-3.19" font-family="Helvetica,sans-Serif" font-size="14.00" fill="#6d7b82">kill while waiting</text>
</g>
<!-- run&#45;&gt;ready -->
<g id="edge3" class="edge">
<title>run&#45;&gt;ready</title>
<path fill="none" stroke="#5b6b73" stroke-width="1.05" d="M774.43,-152.06C754.42,-132.83 720.96,-104.35 686,-90.53 640.34,-72.48 586.3,-65.44 540.8,-63.14"/>
<polygon fill="#5b6b73" stroke="#5b6b73" stroke-width="1.05" points="541.02,-60.52 533.41,-62.81 540.79,-65.77 541.02,-60.52"/>
<text xml:space="preserve" text-anchor="middle" x="625.25" y="-122.23" font-family="Helvetica,sans-Serif" font-size="14.00">preempt</text>
<text xml:space="preserve" text-anchor="middle" x="625.25" y="-107.23" font-family="Helvetica,sans-Serif" font-size="14.00">(timer interrupt)</text>
<text xml:space="preserve" text-anchor="middle" x="625.25" y="-92.23" font-family="Helvetica,sans-Serif" font-size="14.00">OR yield</text>
</g>
<!-- blocked -->
<g id="node4" class="node">
<title>blocked</title>
<path fill="#f7e9c5" stroke="#5b6b73" d="M1203,-85.53C1203,-85.53 1061.75,-85.53 1061.75,-85.53 1055.75,-85.53 1049.75,-79.53 1049.75,-73.53 1049.75,-73.53 1049.75,-59.53 1049.75,-59.53 1049.75,-53.53 1055.75,-47.53 1061.75,-47.53 1061.75,-47.53 1203,-47.53 1203,-47.53 1209,-47.53 1215,-53.53 1215,-59.53 1215,-59.53 1215,-73.53 1215,-73.53 1215,-79.53 1209,-85.53 1203,-85.53"/>
<text xml:space="preserve" text-anchor="middle" x="1132.38" y="-68.23" font-family="Helvetica,sans-Serif" font-size="14.00" fill="#233238">blocked / waiting</text>
<text xml:space="preserve" text-anchor="middle" x="1132.38" y="-53.23" font-family="Helvetica,sans-Serif" font-size="14.00" fill="#233238">(not runnable until event)</text>
</g>
<!-- run&#45;&gt;blocked -->
<g id="edge4" class="edge">
<title>run&#45;&gt;blocked</title>
<path fill="none" stroke="#5b6b73" stroke-width="1.05" d="M815.69,-152.11C836,-133.95 868.98,-107.71 902.75,-94.53 946.14,-77.6 997.37,-70.28 1040.32,-67.33"/>
<polygon fill="#5b6b73" stroke="#5b6b73" stroke-width="1.05" points="1040.45,-69.95 1047.77,-66.87 1040.12,-64.71 1040.45,-69.95"/>
<text xml:space="preserve" text-anchor="middle" x="959.75" y="-126.23" font-family="Helvetica,sans-Serif" font-size="14.00">block</text>
<text xml:space="preserve" text-anchor="middle" x="959.75" y="-111.23" font-family="Helvetica,sans-Serif" font-size="14.00">(I/O wait, lock wait,</text>
<text xml:space="preserve" text-anchor="middle" x="959.75" y="-96.23" font-family="Helvetica,sans-Serif" font-size="14.00">page fault wait)</text>
</g>
<!-- run&#45;&gt;term -->
<g id="edge6" class="edge">
<title>run&#45;&gt;term</title>
<path fill="none" stroke="#5b6b73" stroke-width="1.05" d="M851.62,-191C867.93,-195.91 885.89,-200.6 902.75,-203.53 1095.97,-237.1 1158.3,-266.57 1344,-203.53 1365.54,-196.22 1386.77,-182.15 1402.94,-169.58"/>
<polygon fill="#5b6b73" stroke="#5b6b73" stroke-width="1.05" points="1404.53,-171.67 1408.75,-164.93 1401.26,-167.57 1404.53,-171.67"/>
<text xml:space="preserve" text-anchor="middle" x="1132.38" y="-257.26" font-family="Helvetica,sans-Serif" font-size="14.00">exit</text>
<text xml:space="preserve" text-anchor="middle" x="1132.38" y="-242.26" font-family="Helvetica,sans-Serif" font-size="14.00">(normal)</text>
</g>
<!-- run&#45;&gt;term -->
<g id="edge7" class="edge">
<title>run&#45;&gt;term</title>
<path fill="none" stroke="#8b3a3a" stroke-width="1.05" d="M861.66,-168.72C984.63,-163.5 1246.53,-152.39 1367.69,-147.24"/>
<polygon fill="#8b3a3a" stroke="#8b3a3a" stroke-width="1.05" points="1367.55,-149.88 1374.93,-146.94 1367.33,-144.63 1367.55,-149.88"/>
<text xml:space="preserve" text-anchor="middle" x="1132.38" y="-177.42" font-family="Helvetica,sans-Serif" font-size="14.00" fill="#8b3a3a">fatal fault</text>
<text xml:space="preserve" text-anchor="middle" x="1132.38" y="-162.42" font-family="Helvetica,sans-Serif" font-size="14.00" fill="#8b3a3a">/ kill</text>
</g>
<!-- blocked&#45;&gt;ready -->
<g id="edge5" class="edge">
<title>blocked&#45;&gt;ready</title>
<path fill="none" stroke="#5b6b73" stroke-width="1.05" d="M1049.37,-61.04C1038.41,-60.44 1027.31,-59.92 1016.75,-59.53 923.88,-56.14 657.58,-52.09 564.5,-55.53 556.83,-55.82 548.89,-56.2 540.92,-56.65"/>
<polygon fill="#5b6b73" stroke="#5b6b73" stroke-width="1.05" points="540.83,-54.03 533.5,-57.09 541.14,-59.27 540.83,-54.03"/>
<text xml:space="preserve" text-anchor="middle" x="794.38" y="-102.73" font-family="Helvetica,sans-Serif" font-size="14.00">wakeup</text>
<text xml:space="preserve" text-anchor="middle" x="794.38" y="-87.73" font-family="Helvetica,sans-Serif" font-size="14.00">(I/O complete,</text>
<text xml:space="preserve" text-anchor="middle" x="794.38" y="-72.73" font-family="Helvetica,sans-Serif" font-size="14.00">lock released,</text>
<text xml:space="preserve" text-anchor="middle" x="794.38" y="-57.73" font-family="Helvetica,sans-Serif" font-size="14.00">page becomes available)</text>
</g>
<!-- blocked&#45;&gt;term -->
<g id="edge9" class="edge">
<title>blocked&#45;&gt;term</title>
<path fill="none" stroke="#9aa7ae" stroke-width="1.05" stroke-dasharray="5,2" d="M1207.87,-86.01C1257.24,-98.93 1321.33,-115.69 1368.26,-127.96"/>
<polygon fill="#9aa7ae" stroke="#9aa7ae" stroke-width="1.05" points="1367.36,-130.44 1375.28,-129.8 1368.68,-125.36 1367.36,-130.44"/>
<text xml:space="preserve" text-anchor="middle" x="1296" y="-123.18" font-family="Helvetica,sans-Serif" font-size="14.00" fill="#6d7b82">kill while waiting</text>
</g>
</g>
</svg>
