<?xml version="1.0" encoding="UTF-8" standalone="no"?>
<!DOCTYPE svg PUBLIC "-//W3C//DTD SVG 1.1//EN"
 "http://www.w3.org/Graphics/SVG/1.1/DTD/svg11.dtd">
<!-- Generated by graphviz version 14.1.3 (20260303.0454)
 -->
<!-- Title: G Pages: 1 -->
<svg width="812pt" height="211pt"
 viewBox="0.00 0.00 812.00 211.00" xmlns="http://www.w3.org/2000/svg" xmlns:xlink="http://www.w3.org/1999/xlink">
<g id="graph0" class="graph" transform="scale(1 1) rotate(0) translate(18 193)">
<title>G</title>
<polygon fill="white" stroke="none" points="-18,18 -18,-193 793.5,-193 793.5,18 -18,18"/>
<!-- lanes -->
<g id="node1" class="node">
<title>lanes</title>
<polygon fill="#eaf6fb" stroke="none" points="9,-137 9,-170 766.5,-170 766.5,-137 9,-137"/>
<polygon fill="none" stroke="black" points="9,-137 9,-170 766.5,-170 766.5,-137 9,-137"/>
<text xml:space="preserve" text-anchor="start" x="187.12" y="-148.7" font-family="Helvetica,sans-Serif" font-weight="bold" font-size="14.00" fill="#233238">Blocking I/O: synchronous request, asynchronous completion</text>
<polygon fill="#f5f5f5" stroke="none" points="9,-104 9,-137 70.5,-137 70.5,-104 9,-104"/>
<polygon fill="none" stroke="black" points="9,-104 9,-137 70.5,-137 70.5,-104 9,-104"/>
<text xml:space="preserve" text-anchor="start" x="24" y="-115.7" font-family="Helvetica,sans-Serif" font-weight="bold" font-size="14.00" fill="#233238">Lane</text>
<polygon fill="#ddeaf1" stroke="none" points="70.5,-104 70.5,-137 237.75,-137 237.75,-104 70.5,-104"/>
<polygon fill="none" stroke="black" points="70.5,-104 70.5,-137 237.75,-137 237.75,-104 70.5,-104"/>
<text xml:space="preserve" text-anchor="start" x="121.88" y="-115.7" font-family="Helvetica,sans-Serif" font-weight="bold" font-size="14.00" fill="#233238">1) request</text>
<polygon fill="#ddeaf1" stroke="none" points="237.75,-104 237.75,-137 418.5,-137 418.5,-104 237.75,-104"/>
<polygon fill="none" stroke="black" points="237.75,-104 237.75,-137 418.5,-137 418.5,-104 237.75,-104"/>
<text xml:space="preserve" text-anchor="start" x="277.12" y="-115.7" font-family="Helvetica,sans-Serif" font-weight="bold" font-size="14.00" fill="#233238">2) wait / overlap</text>
<polygon fill="#ddeaf1" stroke="none" points="418.5,-104 418.5,-137 600,-137 600,-104 418.5,-104"/>
<polygon fill="none" stroke="black" points="418.5,-104 418.5,-137 600,-137 600,-104 418.5,-104"/>
<text xml:space="preserve" text-anchor="start" x="465" y="-115.7" font-family="Helvetica,sans-Serif" font-weight="bold" font-size="14.00" fill="#233238">3) completion</text>
<polygon fill="#ddeaf1" stroke="none" points="600,-104 600,-137 766.5,-137 766.5,-104 600,-104"/>
<polygon fill="none" stroke="black" points="600,-104 600,-137 766.5,-137 766.5,-104 600,-104"/>
<text xml:space="preserve" text-anchor="start" x="631.12" y="-115.7" font-family="Helvetica,sans-Serif" font-weight="bold" font-size="14.00" fill="#233238">4) wake + return</text>
<polygon fill="#ddeaf1" stroke="none" points="9,-71 9,-104 70.5,-104 70.5,-71 9,-71"/>
<polygon fill="none" stroke="black" points="9,-71 9,-104 70.5,-104 70.5,-71 9,-71"/>
<text xml:space="preserve" text-anchor="start" x="25.5" y="-82.7" font-family="Helvetica,sans-Serif" font-weight="bold" font-size="14.00" fill="#233238">CPU</text>
<polygon fill="#e6f3f9" stroke="none" points="70.5,-71 70.5,-104 237.75,-104 237.75,-71 70.5,-71"/>
<polygon fill="none" stroke="black" points="70.5,-71 70.5,-104 237.75,-104 237.75,-71 70.5,-71"/>
<text xml:space="preserve" text-anchor="start" x="97.5" y="-83.75" font-family="Helvetica,sans-Serif" font-size="14.00" fill="#233238">issues read syscall</text>
<polygon fill="#e6f3f9" stroke="none" points="237.75,-71 237.75,-104 418.5,-104 418.5,-71 237.75,-71"/>
<polygon fill="none" stroke="black" points="237.75,-71 237.75,-104 418.5,-104 418.5,-71 237.75,-71"/>
<text xml:space="preserve" text-anchor="start" x="281.62" y="-83.75" font-family="Helvetica,sans-Serif" font-size="14.00" fill="#233238">runs other work</text>
<polygon fill="#e6f3f9" stroke="none" points="418.5,-71 418.5,-104 600,-104 600,-71 418.5,-71"/>
<polygon fill="none" stroke="black" points="418.5,-71 418.5,-104 600,-104 600,-71 418.5,-71"/>
<text xml:space="preserve" text-anchor="start" x="453.75" y="-83.75" font-family="Helvetica,sans-Serif" font-size="14.00" fill="#233238">interrupted by IRQ</text>
<polygon fill="#e6f3f9" stroke="none" points="600,-71 600,-104 766.5,-104 766.5,-71 600,-71"/>
<polygon fill="none" stroke="black" points="600,-71 600,-104 766.5,-104 766.5,-71 600,-71"/>
<text xml:space="preserve" text-anchor="start" x="624" y="-83.75" font-family="Helvetica,sans-Serif" font-size="14.00" fill="#233238">later resumes caller</text>
<polygon fill="#ddeaf1" stroke="none" points="9,-38 9,-71 70.5,-71 70.5,-38 9,-38"/>
<polygon fill="none" stroke="black" points="9,-38 9,-71 70.5,-71 70.5,-38 9,-38"/>
<text xml:space="preserve" text-anchor="start" x="18" y="-49.7" font-family="Helvetica,sans-Serif" font-weight="bold" font-size="14.00" fill="#233238">Device</text>
<polygon fill="#f5f5f5" stroke="none" points="70.5,-38 70.5,-71 237.75,-71 237.75,-38 70.5,-38"/>
<polygon fill="none" stroke="black" points="70.5,-38 70.5,-71 237.75,-71 237.75,-38 70.5,-38"/>
<text xml:space="preserve" text-anchor="start" x="143.62" y="-50.75" font-family="Helvetica,sans-Serif" font-size="14.00" fill="#233238">idle</text>
<polygon fill="#f5f5f5" stroke="none" points="237.75,-38 237.75,-71 418.5,-71 418.5,-38 237.75,-38"/>
<polygon fill="none" stroke="black" points="237.75,-38 237.75,-71 418.5,-71 418.5,-38 237.75,-38"/>
<text xml:space="preserve" text-anchor="start" x="258.38" y="-50.75" font-family="Helvetica,sans-Serif" font-size="14.00" fill="#233238">transferring (DMA/PIO)</text>
<polygon fill="#f5f5f5" stroke="none" points="418.5,-38 418.5,-71 600,-71 600,-38 418.5,-38"/>
<polygon fill="none" stroke="black" points="418.5,-38 418.5,-71 600,-71 600,-38 418.5,-38"/>
<text xml:space="preserve" text-anchor="start" x="455.25" y="-50.75" font-family="Helvetica,sans-Serif" font-size="14.00" fill="#233238">signals done/error</text>
<polygon fill="#f5f5f5" stroke="none" points="600,-38 600,-71 766.5,-71 766.5,-38 600,-38"/>
<polygon fill="none" stroke="black" points="600,-38 600,-71 766.5,-71 766.5,-38 600,-38"/>
<text xml:space="preserve" text-anchor="start" x="666.38" y="-50.75" font-family="Helvetica,sans-Serif" font-size="14.00" fill="#233238">ready</text>
<polygon fill="#ddeaf1" stroke="none" points="9,-5 9,-38 70.5,-38 70.5,-5 9,-5"/>
<polygon fill="none" stroke="black" points="9,-5 9,-38 70.5,-38 70.5,-5 9,-5"/>
<text xml:space="preserve" text-anchor="start" x="18.75" y="-16.7" font-family="Helvetica,sans-Serif" font-weight="bold" font-size="14.00" fill="#233238">Kernel</text>
<polygon fill="#bfe2f1" stroke="none" points="70.5,-5 70.5,-38 237.75,-38 237.75,-5 70.5,-5"/>
<polygon fill="none" stroke="black" points="70.5,-5 70.5,-38 237.75,-38 237.75,-5 70.5,-5"/>
<text xml:space="preserve" text-anchor="start" x="79.5" y="-17.75" font-family="Helvetica,sans-Serif" font-size="14.00" fill="#233238">validates + programs I/O</text>
<polygon fill="#bfe2f1" stroke="none" points="237.75,-5 237.75,-38 418.5,-38 418.5,-5 237.75,-5"/>
<polygon fill="none" stroke="black" points="237.75,-5 237.75,-38 418.5,-38 418.5,-5 237.75,-5"/>
<text xml:space="preserve" text-anchor="start" x="246.75" y="-17.75" font-family="Helvetica,sans-Serif" font-size="14.00" fill="#233238">records wait + blocks caller</text>
<polygon fill="#bfe2f1" stroke="none" points="418.5,-5 418.5,-38 600,-38 600,-5 418.5,-5"/>
<polygon fill="none" stroke="black" points="418.5,-5 418.5,-38 600,-38 600,-5 418.5,-5"/>
<text xml:space="preserve" text-anchor="start" x="427.5" y="-17.75" font-family="Helvetica,sans-Serif" font-size="14.00" fill="#233238">handler records completion</text>
<polygon fill="#bfe2f1" stroke="none" points="600,-5 600,-38 766.5,-38 766.5,-5 600,-5"/>
<polygon fill="none" stroke="black" points="600,-5 600,-38 766.5,-38 766.5,-5 600,-5"/>
<text xml:space="preserve" text-anchor="start" x="609" y="-17.75" font-family="Helvetica,sans-Serif" font-size="14.00" fill="#233238">wakeup + syscall returns</text>
<polygon fill="none" stroke="black" points="8,-4 8,-171 767.5,-171 767.5,-4 8,-4"/>
</g>
</g>
</svg>
