<?xml version="1.0" encoding="UTF-8" standalone="no"?>
<!DOCTYPE svg PUBLIC "-//W3C//DTD SVG 1.1//EN"
 "http://www.w3.org/Graphics/SVG/1.1/DTD/svg11.dtd">
<!-- Generated by graphviz version 14.1.3 (20260303.0454)
 -->
<!-- Title: G Pages: 1 -->
<svg width="429pt" height="208pt"
 viewBox="0.00 0.00 429.00 208.00" xmlns="http://www.w3.org/2000/svg" xmlns:xlink="http://www.w3.org/1999/xlink">
<g id="graph0" class="graph" transform="scale(1 1) rotate(0) translate(18 190)">
<title>G</title>
<polygon fill="white" stroke="none" points="-18,18 -18,-190 410.85,-190 410.85,18 -18,18"/>
<!-- server -->
<g id="node1" class="node">
<title>server</title>
<path fill="#ddeaf1" stroke="#5b6b73" d="M42,-104C42,-104 12,-104 12,-104 6,-104 0,-98 0,-92 0,-92 0,-80 0,-80 0,-74 6,-68 12,-68 12,-68 42,-68 42,-68 48,-68 54,-74 54,-80 54,-80 54,-92 54,-92 54,-98 48,-104 42,-104"/>
<text xml:space="preserve" text-anchor="middle" x="27" y="-80.2" font-family="Helvetica,sans-Serif" font-size="14.00" fill="#233238">server</text>
</g>
<!-- network -->
<g id="node2" class="node">
<title>network</title>
<ellipse fill="#bfe2f1" stroke="#5b6b73" cx="161.8" cy="-86" rx="64.8" ry="18"/>
<text xml:space="preserve" text-anchor="middle" x="161.8" y="-80.2" font-family="Helvetica,sans-Serif" font-size="14.00" fill="#233238">network</text>
</g>
<!-- server&#45;&gt;network -->
<g id="edge1" class="edge">
<title>server&#45;&gt;network</title>
<path fill="none" stroke="#5b6b73" stroke-width="1.15" d="M63.92,-86C71.2,-86 79.11,-86 87.17,-86"/>
<polygon fill="#5b6b73" stroke="#5b6b73" stroke-width="1.15" points="63.98,-83.2 55.98,-86 63.98,-88.8 63.98,-83.2"/>
<polygon fill="#5b6b73" stroke="#5b6b73" stroke-width="1.15" points="86.92,-88.8 94.92,-86 86.92,-83.2 86.92,-88.8"/>
</g>
<!-- desktop -->
<g id="node3" class="node">
<title>desktop</title>
<path fill="#f5f5f5" stroke="#5b6b73" d="M368.48,-172C368.48,-172 293.98,-172 293.98,-172 287.98,-172 281.98,-166 281.98,-160 281.98,-160 281.98,-148 281.98,-148 281.98,-142 287.98,-136 293.98,-136 293.98,-136 368.48,-136 368.48,-136 374.48,-136 380.48,-142 380.48,-148 380.48,-148 380.48,-160 380.48,-160 380.48,-166 374.48,-172 368.48,-172"/>
<text xml:space="preserve" text-anchor="middle" x="331.23" y="-148.2" font-family="Helvetica,sans-Serif" font-size="14.00" fill="#233238">client desktop</text>
</g>
<!-- network&#45;&gt;desktop -->
<g id="edge2" class="edge">
<title>network&#45;&gt;desktop</title>
<path fill="none" stroke="#5b6b73" stroke-width="1.15" d="M208.38,-104.51C229.28,-113 254.22,-123.13 276.07,-132.01"/>
<polygon fill="#5b6b73" stroke="#5b6b73" stroke-width="1.15" points="209.62,-101.99 201.15,-101.58 207.51,-107.18 209.62,-101.99"/>
<polygon fill="#5b6b73" stroke="#5b6b73" stroke-width="1.15" points="274.83,-134.52 283.3,-134.94 276.94,-129.34 274.83,-134.52"/>
</g>
<!-- laptop -->
<g id="node4" class="node">
<title>laptop</title>
<path fill="#f5f5f5" stroke="#5b6b73" d="M363.23,-104C363.23,-104 299.23,-104 299.23,-104 293.23,-104 287.23,-98 287.23,-92 287.23,-92 287.23,-80 287.23,-80 287.23,-74 293.23,-68 299.23,-68 299.23,-68 363.23,-68 363.23,-68 369.23,-68 375.23,-74 375.23,-80 375.23,-80 375.23,-92 375.23,-92 375.23,-98 369.23,-104 363.23,-104"/>
<text xml:space="preserve" text-anchor="middle" x="331.23" y="-80.2" font-family="Helvetica,sans-Serif" font-size="14.00" fill="#233238">client laptop</text>
</g>
<!-- network&#45;&gt;laptop -->
<g id="edge3" class="edge">
<title>network&#45;&gt;laptop</title>
<path fill="none" stroke="#5b6b73" stroke-width="1.15" d="M236.53,-86C250.23,-86 264.3,-86 277.23,-86"/>
<polygon fill="#5b6b73" stroke="#5b6b73" stroke-width="1.15" points="236.79,-83.2 228.79,-86 236.79,-88.8 236.79,-83.2"/>
<polygon fill="#5b6b73" stroke="#5b6b73" stroke-width="1.15" points="277.13,-88.8 285.13,-86 277.13,-83.2 277.13,-88.8"/>
</g>
<!-- phone -->
<g id="node5" class="node">
<title>phone</title>
<path fill="#f5f5f5" stroke="#5b6b73" d="M380.85,-36C380.85,-36 281.6,-36 281.6,-36 275.6,-36 269.6,-30 269.6,-24 269.6,-24 269.6,-12 269.6,-12 269.6,-6 275.6,0 281.6,0 281.6,0 380.85,0 380.85,0 386.85,0 392.85,-6 392.85,-12 392.85,-12 392.85,-24 392.85,-24 392.85,-30 386.85,-36 380.85,-36"/>
<text xml:space="preserve" text-anchor="middle" x="331.23" y="-12.2" font-family="Helvetica,sans-Serif" font-size="14.00" fill="#233238">client smartphone</text>
</g>
<!-- network&#45;&gt;phone -->
<g id="edge4" class="edge">
<title>network&#45;&gt;phone</title>
<path fill="none" stroke="#5b6b73" stroke-width="1.15" d="M208.38,-67.49C229.28,-59 254.22,-48.87 276.07,-39.99"/>
<polygon fill="#5b6b73" stroke="#5b6b73" stroke-width="1.15" points="207.51,-64.82 201.15,-70.42 209.62,-70.01 207.51,-64.82"/>
<polygon fill="#5b6b73" stroke="#5b6b73" stroke-width="1.15" points="276.94,-42.66 283.3,-37.06 274.83,-37.48 276.94,-42.66"/>
</g>
</g>
</svg>
