<?xml version="1.0" encoding="UTF-8" standalone="no"?>
<!DOCTYPE svg PUBLIC "-//W3C//DTD SVG 1.1//EN"
 "http://www.w3.org/Graphics/SVG/1.1/DTD/svg11.dtd">
<!-- Generated by graphviz version 14.1.3 (20260303.0454)
 -->
<!-- Title: G Pages: 1 -->
<svg width="398pt" height="398pt"
 viewBox="0.00 0.00 398.00 398.00" xmlns="http://www.w3.org/2000/svg" xmlns:xlink="http://www.w3.org/1999/xlink">
<g id="graph0" class="graph" transform="scale(1 1) rotate(0) translate(18 380)">
<title>G</title>
<polygon fill="white" stroke="none" points="-18,18 -18,-380 380,-380 380,18 -18,18"/>
<g id="clust1" class="cluster">
<title>cluster_user</title>
<path fill="white" stroke="#c7d7df" d="M196,-137C196,-137 342,-137 342,-137 348,-137 354,-143 354,-149 354,-149 354,-342 354,-342 354,-348 348,-354 342,-354 342,-354 196,-354 196,-354 190,-354 184,-348 184,-342 184,-342 184,-149 184,-149 184,-143 190,-137 196,-137"/>
<text xml:space="preserve" text-anchor="middle" x="269" y="-336.7" font-family="Times,serif" font-size="14.00">user mode (mode bit = 1)</text>
</g>
<g id="clust2" class="cluster">
<title>cluster_kernel</title>
<path fill="white" stroke="#9ec9da" d="M20,-8C20,-8 164,-8 164,-8 170,-8 176,-14 176,-20 176,-20 176,-202.5 176,-202.5 176,-208.5 170,-214.5 164,-214.5 164,-214.5 20,-214.5 20,-214.5 14,-214.5 8,-208.5 8,-202.5 8,-202.5 8,-20 8,-20 8,-14 14,-8 20,-8"/>
<text xml:space="preserve" text-anchor="middle" x="92" y="-197.2" font-family="Times,serif" font-size="14.00">kernel mode (mode bit = 0)</text>
</g>
<!-- uexec -->
<g id="node1" class="node">
<title>uexec</title>
<path fill="#f5f5f5" stroke="#5b6b73" d="M334.38,-321.5C334.38,-321.5 203.62,-321.5 203.62,-321.5 197.62,-321.5 191.62,-315.5 191.62,-309.5 191.62,-309.5 191.62,-297.5 191.62,-297.5 191.62,-291.5 197.62,-285.5 203.62,-285.5 203.62,-285.5 334.38,-285.5 334.38,-285.5 340.38,-285.5 346.38,-291.5 346.38,-297.5 346.38,-297.5 346.38,-309.5 346.38,-309.5 346.38,-315.5 340.38,-321.5 334.38,-321.5"/>
<text xml:space="preserve" text-anchor="middle" x="269" y="-297.7" font-family="Helvetica,sans-Serif" font-size="14.00" fill="#233238">user process executing</text>
</g>
<!-- call -->
<g id="node2" class="node">
<title>call</title>
<path fill="#f5f5f5" stroke="#5b6b73" d="M314.12,-258.5C314.12,-258.5 223.88,-258.5 223.88,-258.5 217.88,-258.5 211.88,-252.5 211.88,-246.5 211.88,-246.5 211.88,-234.5 211.88,-234.5 211.88,-228.5 217.88,-222.5 223.88,-222.5 223.88,-222.5 314.12,-222.5 314.12,-222.5 320.12,-222.5 326.12,-228.5 326.12,-234.5 326.12,-234.5 326.12,-246.5 326.12,-246.5 326.12,-252.5 320.12,-258.5 314.12,-258.5"/>
<text xml:space="preserve" text-anchor="middle" x="269" y="-234.7" font-family="Helvetica,sans-Serif" font-size="14.00" fill="#233238">calls system call</text>
</g>
<!-- uexec&#45;&gt;call -->
<g id="edge1" class="edge">
<title>uexec&#45;&gt;call</title>
<path fill="none" stroke="#5b6b73" stroke-width="1.15" d="M269,-285.28C269,-285.28 269,-268.64 269,-268.64"/>
<polygon fill="#5b6b73" stroke="#5b6b73" stroke-width="1.15" points="271.8,-268.64 269,-260.64 266.2,-268.64 271.8,-268.64"/>
</g>
<!-- retu -->
<g id="node3" class="node">
<title>retu</title>
<path fill="#f5f5f5" stroke="#5b6b73" d="M334,-181C334,-181 204,-181 204,-181 198,-181 192,-175 192,-169 192,-169 192,-157 192,-157 192,-151 198,-145 204,-145 204,-145 334,-145 334,-145 340,-145 346,-151 346,-157 346,-157 346,-169 346,-169 346,-175 340,-181 334,-181"/>
<text xml:space="preserve" text-anchor="middle" x="269" y="-157.2" font-family="Helvetica,sans-Serif" font-size="14.00" fill="#233238">return from system call</text>
</g>
<!-- call&#45;&gt;retu -->
<g id="edge2" class="edge">
<title>call&#45;&gt;retu</title>
<path fill="none" stroke="#5b6b73" stroke-width="1.15" d="M269,-222.13C269,-222.13 269,-190.98 269,-190.98"/>
<polygon fill="#5b6b73" stroke="#5b6b73" stroke-width="1.15" points="271.8,-190.98 269,-182.98 266.2,-190.98 271.8,-190.98"/>
</g>
<!-- trap -->
<g id="node4" class="node">
<title>trap</title>
<path fill="#ddeaf1" stroke="#5b6b73" d="M142.88,-182C142.88,-182 75.12,-182 75.12,-182 69.12,-182 63.12,-176 63.12,-170 63.12,-170 63.12,-156 63.12,-156 63.12,-150 69.12,-144 75.12,-144 75.12,-144 142.88,-144 142.88,-144 148.88,-144 154.88,-150 154.88,-156 154.88,-156 154.88,-170 154.88,-170 154.88,-176 148.88,-182 142.88,-182"/>
<text xml:space="preserve" text-anchor="middle" x="109" y="-164.7" font-family="Helvetica,sans-Serif" font-size="14.00" fill="#233238">trap</text>
<text xml:space="preserve" text-anchor="middle" x="109" y="-149.7" font-family="Helvetica,sans-Serif" font-size="14.00" fill="#233238">mode bit = 0</text>
</g>
<!-- call&#45;&gt;trap -->
<g id="edge5" class="edge">
<title>call&#45;&gt;trap</title>
<path fill="none" stroke="#5b6b73" stroke-width="1.15" d="M211.69,-241C165.78,-241 109,-241 109,-241 109,-241 109,-192.02 109,-192.02"/>
<polygon fill="#5b6b73" stroke="#5b6b73" stroke-width="1.15" points="111.8,-192.02 109,-184.02 106.2,-192.02 111.8,-192.02"/>
</g>
<!-- exec -->
<g id="node5" class="node">
<title>exec</title>
<path fill="#bfe2f1" stroke="#5b6b73" d="M156.25,-117C156.25,-117 45.75,-117 45.75,-117 39.75,-117 33.75,-111 33.75,-105 33.75,-105 33.75,-93 33.75,-93 33.75,-87 39.75,-81 45.75,-81 45.75,-81 156.25,-81 156.25,-81 162.25,-81 168.25,-87 168.25,-93 168.25,-93 168.25,-105 168.25,-105 168.25,-111 162.25,-117 156.25,-117"/>
<text xml:space="preserve" text-anchor="middle" x="101" y="-93.2" font-family="Helvetica,sans-Serif" font-size="14.00" fill="#233238">execute system call</text>
</g>
<!-- trap&#45;&gt;exec -->
<g id="edge3" class="edge">
<title>trap&#45;&gt;exec</title>
<path fill="none" stroke="#5b6b73" stroke-width="1.15" d="M109,-143.8C109,-143.8 109,-127.05 109,-127.05"/>
<polygon fill="#5b6b73" stroke="#5b6b73" stroke-width="1.15" points="111.8,-127.05 109,-119.05 106.2,-127.05 111.8,-127.05"/>
</g>
<!-- retk -->
<g id="node6" class="node">
<title>retk</title>
<path fill="#ddeaf1" stroke="#5b6b73" d="M144.88,-54C144.88,-54 77.12,-54 77.12,-54 71.12,-54 65.12,-48 65.12,-42 65.12,-42 65.12,-28 65.12,-28 65.12,-22 71.12,-16 77.12,-16 77.12,-16 144.88,-16 144.88,-16 150.88,-16 156.88,-22 156.88,-28 156.88,-28 156.88,-42 156.88,-42 156.88,-48 150.88,-54 144.88,-54"/>
<text xml:space="preserve" text-anchor="middle" x="111" y="-36.7" font-family="Helvetica,sans-Serif" font-size="14.00" fill="#233238">return</text>
<text xml:space="preserve" text-anchor="middle" x="111" y="-21.7" font-family="Helvetica,sans-Serif" font-size="14.00" fill="#233238">mode bit = 1</text>
</g>
<!-- exec&#45;&gt;retk -->
<g id="edge4" class="edge">
<title>exec&#45;&gt;retk</title>
<path fill="none" stroke="#5b6b73" stroke-width="1.15" d="M111,-80.83C111,-80.83 111,-64.07 111,-64.07"/>
<polygon fill="#5b6b73" stroke="#5b6b73" stroke-width="1.15" points="113.8,-64.07 111,-56.07 108.2,-64.07 113.8,-64.07"/>
</g>
<!-- retk&#45;&gt;retu -->
<g id="edge6" class="edge">
<title>retk&#45;&gt;retu</title>
<path fill="none" stroke="#5b6b73" stroke-width="1.15" d="M157.12,-35C203.76,-35 269,-35 269,-35 269,-35 269,-134.92 269,-134.92"/>
<polygon fill="#5b6b73" stroke="#5b6b73" stroke-width="1.15" points="266.2,-134.92 269,-142.92 271.8,-134.92 266.2,-134.92"/>
</g>
</g>
</svg>
