<?xml version="1.0" encoding="UTF-8" standalone="no"?>
<!DOCTYPE svg PUBLIC "-//W3C//DTD SVG 1.1//EN"
 "http://www.w3.org/Graphics/SVG/1.1/DTD/svg11.dtd">
<!-- Generated by graphviz version 14.1.3 (20260303.0454)
 -->
<!-- Title: G Pages: 1 -->
<svg width="640pt" height="74pt"
 viewBox="0.00 0.00 640.00 74.00" xmlns="http://www.w3.org/2000/svg" xmlns:xlink="http://www.w3.org/1999/xlink">
<g id="graph0" class="graph" transform="scale(1 1) rotate(0) translate(18 56)">
<title>G</title>
<polygon fill="white" stroke="none" points="-18,18 -18,-56 621.75,-56 621.75,18 -18,18"/>
<!-- disk -->
<g id="node1" class="node">
<title>disk</title>
<path fill="#e7eef2" stroke="#5b6b73" d="M87.25,-38C87.25,-38 12,-38 12,-38 6,-38 0,-32 0,-26 0,-26 0,-12 0,-12 0,-6 6,0 12,0 12,0 87.25,0 87.25,0 93.25,0 99.25,-6 99.25,-12 99.25,-12 99.25,-26 99.25,-26 99.25,-32 93.25,-38 87.25,-38"/>
<text xml:space="preserve" text-anchor="middle" x="49.62" y="-20.7" font-family="Helvetica,sans-Serif" font-size="14.00" fill="#233238">magnetic disk</text>
<text xml:space="preserve" text-anchor="middle" x="49.62" y="-5.7" font-family="Helvetica,sans-Serif" font-size="14.00" fill="#233238">A</text>
</g>
<!-- memory -->
<g id="node2" class="node">
<title>memory</title>
<path fill="#d5edf7" stroke="#5b6b73" d="M271.25,-38C271.25,-38 195.25,-38 195.25,-38 189.25,-38 183.25,-32 183.25,-26 183.25,-26 183.25,-12 183.25,-12 183.25,-6 189.25,0 195.25,0 195.25,0 271.25,0 271.25,0 277.25,0 283.25,-6 283.25,-12 283.25,-12 283.25,-26 283.25,-26 283.25,-32 277.25,-38 271.25,-38"/>
<text xml:space="preserve" text-anchor="middle" x="233.25" y="-20.7" font-family="Helvetica,sans-Serif" font-size="14.00" fill="#233238">main memory</text>
<text xml:space="preserve" text-anchor="middle" x="233.25" y="-5.7" font-family="Helvetica,sans-Serif" font-size="14.00" fill="#233238">A</text>
</g>
<!-- disk&#45;&gt;memory -->
<g id="edge1" class="edge">
<title>disk&#45;&gt;memory</title>
<path fill="none" stroke="#5b6b73" stroke-width="1.15" d="M110.84,-19C130.27,-19 151.81,-19 171.3,-19"/>
<polygon fill="#5b6b73" stroke="#5b6b73" stroke-width="1.15" points="111.04,-15.5 101.04,-19 111.04,-22.5 111.04,-15.5"/>
<polygon fill="#5b6b73" stroke="#5b6b73" stroke-width="1.15" points="171.07,-22.5 181.07,-19 171.07,-15.5 171.07,-22.5"/>
<text xml:space="preserve" text-anchor="middle" x="141.25" y="-22.2" font-family="Times,serif" font-size="14.00">I/O copy</text>
</g>
<!-- cache -->
<g id="node3" class="node">
<title>cache</title>
<path fill="#c9e7f4" stroke="#5b6b73" d="M411.5,-38C411.5,-38 381.5,-38 381.5,-38 375.5,-38 369.5,-32 369.5,-26 369.5,-26 369.5,-12 369.5,-12 369.5,-6 375.5,0 381.5,0 381.5,0 411.5,0 411.5,0 417.5,0 423.5,-6 423.5,-12 423.5,-12 423.5,-26 423.5,-26 423.5,-32 417.5,-38 411.5,-38"/>
<text xml:space="preserve" text-anchor="middle" x="396.5" y="-20.7" font-family="Helvetica,sans-Serif" font-size="14.00" fill="#233238">cache</text>
<text xml:space="preserve" text-anchor="middle" x="396.5" y="-5.7" font-family="Helvetica,sans-Serif" font-size="14.00" fill="#233238">A</text>
</g>
<!-- memory&#45;&gt;cache -->
<g id="edge2" class="edge">
<title>memory&#45;&gt;cache</title>
<path fill="none" stroke="#5b6b73" stroke-width="1.15" d="M295,-19C315.96,-19 338.83,-19 357.45,-19"/>
<polygon fill="#5b6b73" stroke="#5b6b73" stroke-width="1.15" points="295.25,-15.5 285.25,-19 295.25,-22.5 295.25,-15.5"/>
<polygon fill="#5b6b73" stroke="#5b6b73" stroke-width="1.15" points="357.27,-22.5 367.27,-19 357.27,-15.5 357.27,-22.5"/>
<text xml:space="preserve" text-anchor="middle" x="326.38" y="-22.2" font-family="Times,serif" font-size="14.00">cache fill</text>
</g>
<!-- reg -->
<g id="node4" class="node">
<title>reg</title>
<path fill="#bfe2f1" stroke="#5b6b73" d="M591.75,-38C591.75,-38 494.75,-38 494.75,-38 488.75,-38 482.75,-32 482.75,-26 482.75,-26 482.75,-12 482.75,-12 482.75,-6 488.75,0 494.75,0 494.75,0 591.75,0 591.75,0 597.75,0 603.75,-6 603.75,-12 603.75,-12 603.75,-26 603.75,-26 603.75,-32 597.75,-38 591.75,-38"/>
<text xml:space="preserve" text-anchor="middle" x="543.25" y="-20.7" font-family="Helvetica,sans-Serif" font-size="14.00" fill="#233238">hardware register</text>
<text xml:space="preserve" text-anchor="middle" x="543.25" y="-5.7" font-family="Helvetica,sans-Serif" font-size="14.00" fill="#233238">A</text>
</g>
<!-- cache&#45;&gt;reg -->
<g id="edge3" class="edge">
<title>cache&#45;&gt;reg</title>
<path fill="none" stroke="#5b6b73" stroke-width="1.15" d="M435.17,-19C446.07,-19 458.35,-19 470.61,-19"/>
<polygon fill="#5b6b73" stroke="#5b6b73" stroke-width="1.15" points="435.45,-15.5 425.45,-19 435.45,-22.5 435.45,-15.5"/>
<polygon fill="#5b6b73" stroke="#5b6b73" stroke-width="1.15" points="470.56,-22.5 480.56,-19 470.56,-15.5 470.56,-22.5"/>
<text xml:space="preserve" text-anchor="middle" x="453.12" y="-22.2" font-family="Times,serif" font-size="14.00">load</text>
</g>
</g>
</svg>
