<?xml version="1.0" encoding="UTF-8" standalone="no"?>
<!DOCTYPE svg PUBLIC "-//W3C//DTD SVG 1.1//EN"
 "http://www.w3.org/Graphics/SVG/1.1/DTD/svg11.dtd">
<!-- Generated by graphviz version 14.1.3 (20260303.0454)
 -->
<!-- Title: G Pages: 1 -->
<svg width="925pt" height="185pt"
 viewBox="0.00 0.00 925.00 185.00" xmlns="http://www.w3.org/2000/svg" xmlns:xlink="http://www.w3.org/1999/xlink">
<g id="graph0" class="graph" transform="scale(1 1) rotate(0) translate(18 167)">
<title>G</title>
<polygon fill="white" stroke="none" points="-18,18 -18,-167 907.25,-167 907.25,18 -18,18"/>
<g id="clust1" class="cluster">
<title>cluster_kernel</title>
<path fill="#eaf6fb" stroke="#9ec9da" d="M20,-47C20,-47 504.75,-47 504.75,-47 510.75,-47 516.75,-53 516.75,-59 516.75,-59 516.75,-129 516.75,-129 516.75,-135 510.75,-141 504.75,-141 504.75,-141 20,-141 20,-141 14,-141 8,-135 8,-129 8,-129 8,-59 8,-59 8,-53 14,-47 20,-47"/>
<text xml:space="preserve" text-anchor="middle" x="262.38" y="-123.7" font-family="Times,serif" font-size="14.00">trusted computing base (TCB)</text>
</g>
<!-- app -->
<g id="node1" class="node">
<title>app</title>
<path fill="#f5f5f5" stroke="#5b6b73" d="M706.75,-97C706.75,-97 641.25,-97 641.25,-97 635.25,-97 629.25,-91 629.25,-85 629.25,-85 629.25,-71 629.25,-71 629.25,-65 635.25,-59 641.25,-59 641.25,-59 706.75,-59 706.75,-59 712.75,-59 718.75,-65 718.75,-71 718.75,-71 718.75,-85 718.75,-85 718.75,-91 712.75,-97 706.75,-97"/>
<text xml:space="preserve" text-anchor="middle" x="674" y="-79.7" font-family="Helvetica,sans-Serif" font-size="14.00" fill="#233238">application</text>
<text xml:space="preserve" text-anchor="middle" x="674" y="-64.7" font-family="Helvetica,sans-Serif" font-size="14.00" fill="#233238">(user mode)</text>
</g>
<!-- api -->
<g id="node2" class="node">
<title>api</title>
<path fill="#ddeaf1" stroke="#5b6b73" d="M877.25,-40C877.25,-40 781.75,-40 781.75,-40 775.75,-40 769.75,-34 769.75,-28 769.75,-28 769.75,-14 769.75,-14 769.75,-8 775.75,-2 781.75,-2 781.75,-2 877.25,-2 877.25,-2 883.25,-2 889.25,-8 889.25,-14 889.25,-14 889.25,-28 889.25,-28 889.25,-34 883.25,-40 877.25,-40"/>
<text xml:space="preserve" text-anchor="middle" x="829.5" y="-22.7" font-family="Helvetica,sans-Serif" font-size="14.00" fill="#233238">API / library</text>
<text xml:space="preserve" text-anchor="middle" x="829.5" y="-7.7" font-family="Helvetica,sans-Serif" font-size="14.00" fill="#233238">(packages intent)</text>
</g>
<!-- app&#45;&gt;api -->
<g id="edge1" class="edge">
<title>app&#45;&gt;api</title>
<path fill="none" stroke="#5b6b73" stroke-width="1.05" d="M718.99,-61.67C734.15,-56.04 751.41,-49.62 767.68,-43.58"/>
<polygon fill="#5b6b73" stroke="#5b6b73" stroke-width="1.05" points="768.47,-46.09 774.59,-41.02 766.64,-41.17 768.47,-46.09"/>
</g>
<!-- entry -->
<g id="node3" class="node">
<title>entry</title>
<path fill="#ddeaf1" stroke="#5b6b73" d="M128.75,-95C128.75,-95 28,-95 28,-95 22,-95 16,-89 16,-83 16,-83 16,-69 16,-69 16,-63 22,-57 28,-57 28,-57 128.75,-57 128.75,-57 134.75,-57 140.75,-63 140.75,-69 140.75,-69 140.75,-83 140.75,-83 140.75,-89 134.75,-95 128.75,-95"/>
<text xml:space="preserve" text-anchor="middle" x="78.38" y="-77.7" font-family="Helvetica,sans-Serif" font-size="14.00" fill="#233238">syscall/trap entry</text>
<text xml:space="preserve" text-anchor="middle" x="78.38" y="-62.7" font-family="Helvetica,sans-Serif" font-size="14.00" fill="#233238">(privilege transfer)</text>
</g>
<!-- api&#45;&gt;entry -->
<g id="edge2" class="edge">
<title>api&#45;&gt;entry</title>
<path fill="none" stroke="#5b6b73" stroke-width="1.05" d="M769.35,-9.09C740.94,-4.35 706.34,0 675,0 256.12,0 256.12,0 256.12,0 202.87,0 147.39,-29.48 113.11,-51.72"/>
<polygon fill="#5b6b73" stroke="#5b6b73" stroke-width="1.05" points="111.84,-49.42 107.03,-55.75 114.74,-53.79 111.84,-49.42"/>
</g>
<!-- validate -->
<g id="node4" class="node">
<title>validate</title>
<path fill="#bfe2f1" stroke="#5b6b73" d="M310.5,-97C310.5,-97 203.75,-97 203.75,-97 197.75,-97 191.75,-91 191.75,-85 191.75,-85 191.75,-71 191.75,-71 191.75,-65 197.75,-59 203.75,-59 203.75,-59 310.5,-59 310.5,-59 316.5,-59 322.5,-65 322.5,-71 322.5,-71 322.5,-85 322.5,-85 322.5,-91 316.5,-97 310.5,-97"/>
<text xml:space="preserve" text-anchor="middle" x="257.12" y="-79.7" font-family="Helvetica,sans-Serif" font-size="14.00" fill="#233238">validate arguments</text>
<text xml:space="preserve" text-anchor="middle" x="257.12" y="-64.7" font-family="Helvetica,sans-Serif" font-size="14.00" fill="#233238">+ permissions</text>
</g>
<!-- entry&#45;&gt;validate -->
<g id="edge3" class="edge">
<title>entry&#45;&gt;validate</title>
<path fill="none" stroke="#5b6b73" stroke-width="1.05" d="M141.19,-76.7C154.5,-76.85 168.7,-77.01 182.41,-77.17"/>
<polygon fill="#5b6b73" stroke="#5b6b73" stroke-width="1.05" points="182.22,-79.79 189.75,-77.25 182.28,-74.54 182.22,-79.79"/>
</g>
<!-- state -->
<g id="node5" class="node">
<title>state</title>
<path fill="#d5edf7" stroke="#5b6b73" d="M496.75,-108.5C496.75,-108.5 385.5,-108.5 385.5,-108.5 379.5,-108.5 373.5,-102.5 373.5,-96.5 373.5,-96.5 373.5,-67.5 373.5,-67.5 373.5,-61.5 379.5,-55.5 385.5,-55.5 385.5,-55.5 496.75,-55.5 496.75,-55.5 502.75,-55.5 508.75,-61.5 508.75,-67.5 508.75,-67.5 508.75,-96.5 508.75,-96.5 508.75,-102.5 502.75,-108.5 496.75,-108.5"/>
<text xml:space="preserve" text-anchor="middle" x="441.12" y="-91.2" font-family="Helvetica,sans-Serif" font-size="14.00" fill="#233238">authoritative state</text>
<text xml:space="preserve" text-anchor="middle" x="441.12" y="-76.2" font-family="Helvetica,sans-Serif" font-size="14.00" fill="#233238">(queues, mappings,</text>
<text xml:space="preserve" text-anchor="middle" x="441.12" y="-61.2" font-family="Helvetica,sans-Serif" font-size="14.00" fill="#233238">inodes, creds)</text>
</g>
<!-- validate&#45;&gt;state -->
<g id="edge4" class="edge">
<title>validate&#45;&gt;state</title>
<path fill="none" stroke="#5b6b73" stroke-width="1.05" d="M322.8,-79.42C336.21,-79.72 350.46,-80.03 364.23,-80.33"/>
<polygon fill="#5b6b73" stroke="#5b6b73" stroke-width="1.05" points="364.05,-82.95 371.61,-80.49 364.17,-77.7 364.05,-82.95"/>
</g>
<!-- state&#45;&gt;app -->
<g id="edge5" class="edge">
<title>state&#45;&gt;app</title>
<path fill="none" stroke="#5b6b73" stroke-width="1.05" stroke-dasharray="5,2" d="M509.21,-80.84C544.38,-80.23 586.86,-79.49 619.75,-78.92"/>
<polygon fill="#5b6b73" stroke="#5b6b73" stroke-width="1.05" points="619.71,-81.55 627.16,-78.79 619.62,-76.3 619.71,-81.55"/>
<text xml:space="preserve" text-anchor="middle" x="569" y="-83.56" font-family="Times,serif" font-size="14.00" fill="#5b6b73">results/errors</text>
</g>
</g>
</svg>
