<?xml version="1.0" encoding="UTF-8" standalone="no"?>
<!DOCTYPE svg PUBLIC "-//W3C//DTD SVG 1.1//EN"
 "http://www.w3.org/Graphics/SVG/1.1/DTD/svg11.dtd">
<!-- Generated by graphviz version 14.1.3 (20260303.0454)
 -->
<!-- Title: G Pages: 1 -->
<svg width="474pt" height="234pt"
 viewBox="0.00 0.00 474.00 234.00" xmlns="http://www.w3.org/2000/svg" xmlns:xlink="http://www.w3.org/1999/xlink">
<g id="graph0" class="graph" transform="scale(1 1) rotate(0) translate(14.4 219.4)">
<title>G</title>
<polygon fill="white" stroke="none" points="-14.4,14.4 -14.4,-219.4 459.4,-219.4 459.4,14.4 -14.4,14.4"/>
<!-- gantt -->
<g id="node1" class="node">
<title>gantt</title>
<polygon fill="#f5f5f5" stroke="none" points="1,-175 1,-204 79.5,-204 79.5,-175 1,-175"/>
<polygon fill="none" stroke="#5b6b73" points="1,-175 1,-204 79.5,-204 79.5,-175 1,-175"/>
<text xml:space="preserve" text-anchor="start" x="8" y="-184.7" font-family="Helvetica,sans-Serif" font-weight="bold" font-size="14.00">Algorithm</text>
<polygon fill="#f5f5f5" stroke="none" points="79.5,-175 79.5,-204 444,-204 444,-175 79.5,-175"/>
<polygon fill="none" stroke="#5b6b73" points="79.5,-175 79.5,-204 444,-204 444,-175 79.5,-175"/>
<text xml:space="preserve" text-anchor="start" x="103.5" y="-184.7" font-family="Helvetica,sans-Serif" font-weight="bold" font-size="14.00">Schedule for the same workload (all arrive at t=0)</text>
<polygon fill="#e6f3f9" stroke="none" points="1,-117 1,-175 79.5,-175 79.5,-117 1,-117"/>
<polygon fill="none" stroke="#5b6b73" points="1,-117 1,-175 79.5,-175 79.5,-117 1,-117"/>
<text xml:space="preserve" text-anchor="start" x="22.62" y="-141.2" font-family="Helvetica,sans-Serif" font-weight="bold" font-size="14.00">FCFS</text>
<polygon fill="none" stroke="#5b6b73" points="79.5,-117 79.5,-175 444,-175 444,-117 79.5,-117"/>
<polygon fill="#d5edf7" stroke="none" points="86.5,-124 86.5,-168 164.75,-168 164.75,-124 86.5,-124"/>
<polygon fill="none" stroke="#5b6b73" points="86.5,-124 86.5,-168 164.75,-168 164.75,-124 86.5,-124"/>
<text xml:space="preserve" text-anchor="start" x="117.38" y="-149.75" font-family="Helvetica,sans-Serif" font-size="14.00">P1</text>
<text xml:space="preserve" text-anchor="start" x="115.88" y="-134.75" font-family="Helvetica,sans-Serif" font-size="14.00">0&#45;8</text>
<polygon fill="#d5edf7" stroke="none" points="164.75,-124 164.75,-168 250.5,-168 250.5,-124 164.75,-124"/>
<polygon fill="none" stroke="#5b6b73" points="164.75,-124 164.75,-168 250.5,-168 250.5,-124 164.75,-124"/>
<text xml:space="preserve" text-anchor="start" x="199.38" y="-149.75" font-family="Helvetica,sans-Serif" font-size="14.00">P2</text>
<text xml:space="preserve" text-anchor="start" x="194.12" y="-134.75" font-family="Helvetica,sans-Serif" font-size="14.00">8&#45;12</text>
<polygon fill="#d5edf7" stroke="none" points="250.5,-124 250.5,-168 343.75,-168 343.75,-124 250.5,-124"/>
<polygon fill="none" stroke="#5b6b73" points="250.5,-124 250.5,-168 343.75,-168 343.75,-124 250.5,-124"/>
<text xml:space="preserve" text-anchor="start" x="288.88" y="-149.75" font-family="Helvetica,sans-Serif" font-size="14.00">P3</text>
<text xml:space="preserve" text-anchor="start" x="279.88" y="-134.75" font-family="Helvetica,sans-Serif" font-size="14.00">12&#45;21</text>
<polygon fill="#d5edf7" stroke="none" points="343.75,-124 343.75,-168 437,-168 437,-124 343.75,-124"/>
<polygon fill="none" stroke="#5b6b73" points="343.75,-124 343.75,-168 437,-168 437,-124 343.75,-124"/>
<text xml:space="preserve" text-anchor="start" x="382.12" y="-149.75" font-family="Helvetica,sans-Serif" font-size="14.00">P4</text>
<text xml:space="preserve" text-anchor="start" x="373.12" y="-134.75" font-family="Helvetica,sans-Serif" font-size="14.00">21&#45;26</text>
<polygon fill="#e6f3f9" stroke="none" points="1,-59 1,-117 79.5,-117 79.5,-59 1,-59"/>
<polygon fill="none" stroke="#5b6b73" points="1,-59 1,-117 79.5,-117 79.5,-59 1,-59"/>
<text xml:space="preserve" text-anchor="start" x="27.88" y="-83.2" font-family="Helvetica,sans-Serif" font-weight="bold" font-size="14.00">SJF</text>
<polygon fill="none" stroke="#5b6b73" points="79.5,-59 79.5,-117 444,-117 444,-59 79.5,-59"/>
<polygon fill="#bfe2f1" stroke="none" points="86.5,-66 86.5,-110 168.5,-110 168.5,-66 86.5,-66"/>
<polygon fill="none" stroke="#5b6b73" points="86.5,-66 86.5,-110 168.5,-110 168.5,-66 86.5,-66"/>
<text xml:space="preserve" text-anchor="start" x="119.25" y="-91.75" font-family="Helvetica,sans-Serif" font-size="14.00">P2</text>
<text xml:space="preserve" text-anchor="start" x="117.75" y="-76.75" font-family="Helvetica,sans-Serif" font-size="14.00">0&#45;4</text>
<polygon fill="#bfe2f1" stroke="none" points="168.5,-66 168.5,-110 250.5,-110 250.5,-66 168.5,-66"/>
<polygon fill="none" stroke="#5b6b73" points="168.5,-66 168.5,-110 250.5,-110 250.5,-66 168.5,-66"/>
<text xml:space="preserve" text-anchor="start" x="201.25" y="-91.75" font-family="Helvetica,sans-Serif" font-size="14.00">P4</text>
<text xml:space="preserve" text-anchor="start" x="199.75" y="-76.75" font-family="Helvetica,sans-Serif" font-size="14.00">4&#45;9</text>
<polygon fill="#bfe2f1" stroke="none" points="250.5,-66 250.5,-110 340,-110 340,-66 250.5,-66"/>
<polygon fill="none" stroke="#5b6b73" points="250.5,-66 250.5,-110 340,-110 340,-66 250.5,-66"/>
<text xml:space="preserve" text-anchor="start" x="287" y="-91.75" font-family="Helvetica,sans-Serif" font-size="14.00">P1</text>
<text xml:space="preserve" text-anchor="start" x="281.75" y="-76.75" font-family="Helvetica,sans-Serif" font-size="14.00">9&#45;17</text>
<polygon fill="#bfe2f1" stroke="none" points="340,-66 340,-110 437,-110 437,-66 340,-66"/>
<polygon fill="none" stroke="#5b6b73" points="340,-66 340,-110 437,-110 437,-66 340,-66"/>
<text xml:space="preserve" text-anchor="start" x="380.25" y="-91.75" font-family="Helvetica,sans-Serif" font-size="14.00">P3</text>
<text xml:space="preserve" text-anchor="start" x="371.25" y="-76.75" font-family="Helvetica,sans-Serif" font-size="14.00">17&#45;26</text>
<polygon fill="#e6f3f9" stroke="none" points="1,-1 1,-59 79.5,-59 79.5,-1 1,-1"/>
<polygon fill="none" stroke="#5b6b73" points="1,-1 1,-59 79.5,-59 79.5,-1 1,-1"/>
<text xml:space="preserve" text-anchor="start" x="12.12" y="-25.2" font-family="Helvetica,sans-Serif" font-weight="bold" font-size="14.00">RR (q=4)</text>
<polygon fill="none" stroke="#5b6b73" points="79.5,-1 79.5,-59 444,-59 444,-1 79.5,-1"/>
<polygon fill="#f0e6ff" stroke="none" points="86.5,-8 86.5,-52 120,-52 120,-8 86.5,-8"/>
<polygon fill="none" stroke="#5b6b73" points="86.5,-8 86.5,-52 120,-52 120,-8 86.5,-8"/>
<text xml:space="preserve" text-anchor="start" x="95" y="-33.75" font-family="Helvetica,sans-Serif" font-size="14.00">P1</text>
<text xml:space="preserve" text-anchor="start" x="93.5" y="-18.75" font-family="Helvetica,sans-Serif" font-size="14.00">0&#45;4</text>
<polygon fill="#f0e6ff" stroke="none" points="120,-8 120,-52 153.5,-52 153.5,-8 120,-8"/>
<polygon fill="none" stroke="#5b6b73" points="120,-8 120,-52 153.5,-52 153.5,-8 120,-8"/>
<text xml:space="preserve" text-anchor="start" x="128.5" y="-33.75" font-family="Helvetica,sans-Serif" font-size="14.00">P2</text>
<text xml:space="preserve" text-anchor="start" x="127" y="-18.75" font-family="Helvetica,sans-Serif" font-size="14.00">4&#45;8</text>
<polygon fill="#f0e6ff" stroke="none" points="153.5,-8 153.5,-52 194.5,-52 194.5,-8 153.5,-8"/>
<polygon fill="none" stroke="#5b6b73" points="153.5,-8 153.5,-52 194.5,-52 194.5,-8 153.5,-8"/>
<text xml:space="preserve" text-anchor="start" x="165.75" y="-33.75" font-family="Helvetica,sans-Serif" font-size="14.00">P3</text>
<text xml:space="preserve" text-anchor="start" x="160.5" y="-18.75" font-family="Helvetica,sans-Serif" font-size="14.00">8&#45;12</text>
<polygon fill="#f0e6ff" stroke="none" points="194.5,-8 194.5,-52 243,-52 243,-8 194.5,-8"/>
<polygon fill="none" stroke="#5b6b73" points="194.5,-8 194.5,-52 243,-52 243,-8 194.5,-8"/>
<text xml:space="preserve" text-anchor="start" x="210.5" y="-33.75" font-family="Helvetica,sans-Serif" font-size="14.00">P4</text>
<text xml:space="preserve" text-anchor="start" x="201.5" y="-18.75" font-family="Helvetica,sans-Serif" font-size="14.00">12&#45;16</text>
<polygon fill="#f0e6ff" stroke="none" points="243,-8 243,-52 291.5,-52 291.5,-8 243,-8"/>
<polygon fill="none" stroke="#5b6b73" points="243,-8 243,-52 291.5,-52 291.5,-8 243,-8"/>
<text xml:space="preserve" text-anchor="start" x="259" y="-33.75" font-family="Helvetica,sans-Serif" font-size="14.00">P1</text>
<text xml:space="preserve" text-anchor="start" x="250" y="-18.75" font-family="Helvetica,sans-Serif" font-size="14.00">16&#45;20</text>
<polygon fill="#f0e6ff" stroke="none" points="291.5,-8 291.5,-52 340,-52 340,-8 291.5,-8"/>
<polygon fill="none" stroke="#5b6b73" points="291.5,-8 291.5,-52 340,-52 340,-8 291.5,-8"/>
<text xml:space="preserve" text-anchor="start" x="307.5" y="-33.75" font-family="Helvetica,sans-Serif" font-size="14.00">P3</text>
<text xml:space="preserve" text-anchor="start" x="298.5" y="-18.75" font-family="Helvetica,sans-Serif" font-size="14.00">20&#45;24</text>
<polygon fill="#f0e6ff" stroke="none" points="340,-8 340,-52 388.5,-52 388.5,-8 340,-8"/>
<polygon fill="none" stroke="#5b6b73" points="340,-8 340,-52 388.5,-52 388.5,-8 340,-8"/>
<text xml:space="preserve" text-anchor="start" x="356" y="-33.75" font-family="Helvetica,sans-Serif" font-size="14.00">P4</text>
<text xml:space="preserve" text-anchor="start" x="347" y="-18.75" font-family="Helvetica,sans-Serif" font-size="14.00">24&#45;25</text>
<polygon fill="#f0e6ff" stroke="none" points="388.5,-8 388.5,-52 437,-52 437,-8 388.5,-8"/>
<polygon fill="none" stroke="#5b6b73" points="388.5,-8 388.5,-52 437,-52 437,-8 388.5,-8"/>
<text xml:space="preserve" text-anchor="start" x="404.5" y="-33.75" font-family="Helvetica,sans-Serif" font-size="14.00">P3</text>
<text xml:space="preserve" text-anchor="start" x="395.5" y="-18.75" font-family="Helvetica,sans-Serif" font-size="14.00">25&#45;26</text>
<polygon fill="none" stroke="#5b6b73" points="0,0 0,-205 445,-205 445,0 0,0"/>
</g>
</g>
</svg>
