<?xml version="1.0" encoding="UTF-8" standalone="no"?>
<!DOCTYPE svg PUBLIC "-//W3C//DTD SVG 1.1//EN"
 "http://www.w3.org/Graphics/SVG/1.1/DTD/svg11.dtd">
<!-- Generated by graphviz version 14.1.3 (20260303.0454)
 -->
<!-- Title: G Pages: 1 -->
<svg width="547pt" height="237pt"
 viewBox="0.00 0.00 547.00 237.00" xmlns="http://www.w3.org/2000/svg" xmlns:xlink="http://www.w3.org/1999/xlink">
<g id="graph0" class="graph" transform="scale(1 1) rotate(0) translate(18 219)">
<title>G</title>
<polygon fill="white" stroke="none" points="-18,18 -18,-219 529,-219 529,18 -18,18"/>
<g id="clust1" class="cluster">
<title>cluster_cpu0</title>
<path fill="#eaf6fb" stroke="#9ec9da" d="M221,-108C221,-108 491,-108 491,-108 497,-108 503,-114 503,-120 503,-120 503,-181 503,-181 503,-187 497,-193 491,-193 491,-193 221,-193 221,-193 215,-193 209,-187 209,-181 209,-181 209,-120 209,-120 209,-114 215,-108 221,-108"/>
<text xml:space="preserve" text-anchor="middle" x="356" y="-175.7" font-family="Times,serif" font-size="14.00">CPU 0</text>
</g>
<g id="clust2" class="cluster">
<title>cluster_cpu1</title>
<path fill="#eaf6fb" stroke="#9ec9da" d="M221,-8C221,-8 491,-8 491,-8 497,-8 503,-14 503,-20 503,-20 503,-81 503,-81 503,-87 497,-93 491,-93 491,-93 221,-93 221,-93 215,-93 209,-87 209,-81 209,-81 209,-20 209,-20 209,-14 215,-8 221,-8"/>
<text xml:space="preserve" text-anchor="middle" x="356" y="-75.7" font-family="Times,serif" font-size="14.00">CPU 1</text>
</g>
<!-- rq0 -->
<g id="node1" class="node">
<title>rq0</title>
<path fill="#d5edf7" stroke="#5b6b73" d="M293,-160C293,-160 229,-160 229,-160 223,-160 217,-154 217,-148 217,-148 217,-136 217,-136 217,-130 223,-124 229,-124 229,-124 293,-124 293,-124 299,-124 305,-130 305,-136 305,-136 305,-148 305,-148 305,-154 299,-160 293,-160"/>
<text xml:space="preserve" text-anchor="middle" x="261" y="-136.2" font-family="Helvetica,sans-Serif" font-size="14.00" fill="#233238">run queue 0</text>
</g>
<!-- core0 -->
<g id="node2" class="node">
<title>core0</title>
<path fill="#bfe2f1" stroke="#5b6b73" d="M483,-160C483,-160 407,-160 407,-160 401,-160 395,-154 395,-148 395,-148 395,-134 395,-134 395,-128 401,-122 407,-122 407,-122 483,-122 483,-122 489,-122 495,-128 495,-134 495,-134 495,-148 495,-148 495,-154 489,-160 483,-160"/>
<text xml:space="preserve" text-anchor="middle" x="445" y="-142.7" font-family="Helvetica,sans-Serif" font-size="14.00" fill="#233238">core executes</text>
<text xml:space="preserve" text-anchor="middle" x="445" y="-127.7" font-family="Helvetica,sans-Serif" font-size="14.00" fill="#233238">next runnable</text>
</g>
<!-- rq0&#45;&gt;core0 -->
<g id="edge1" class="edge">
<title>rq0&#45;&gt;core0</title>
<path fill="none" stroke="#5b6b73" stroke-width="1.05" d="M305.13,-141.76C329.2,-141.63 359.52,-141.46 385.68,-141.32"/>
<polygon fill="#5b6b73" stroke="#5b6b73" stroke-width="1.05" points="385.67,-143.95 393.16,-141.28 385.64,-138.7 385.67,-143.95"/>
<text xml:space="preserve" text-anchor="middle" x="350" y="-143.17" font-family="Helvetica,sans-Serif" font-size="11.00">pick next</text>
</g>
<!-- rq1 -->
<g id="node3" class="node">
<title>rq1</title>
<path fill="#d5edf7" stroke="#5b6b73" d="M293,-60C293,-60 229,-60 229,-60 223,-60 217,-54 217,-48 217,-48 217,-36 217,-36 217,-30 223,-24 229,-24 229,-24 293,-24 293,-24 299,-24 305,-30 305,-36 305,-36 305,-48 305,-48 305,-54 299,-60 293,-60"/>
<text xml:space="preserve" text-anchor="middle" x="261" y="-36.2" font-family="Helvetica,sans-Serif" font-size="14.00" fill="#233238">run queue 1</text>
</g>
<!-- rq0&#45;&gt;rq1 -->
<g id="edge3" class="edge">
<title>rq0&#45;&gt;rq1</title>
<path fill="none" stroke="#5b6b73" stroke-width="1.05" stroke-dasharray="5,2" d="M261,-123.77C261,-108.58 261,-86.71 261,-69.41"/>
<polygon fill="#5b6b73" stroke="#5b6b73" stroke-width="1.05" points="263.63,-69.43 261,-61.93 258.38,-69.43 263.63,-69.43"/>
<text xml:space="preserve" text-anchor="middle" x="246" y="-93.55" font-family="Helvetica,sans-Serif" font-size="11.00">push migration</text>
<text xml:space="preserve" text-anchor="middle" x="246" y="-81.55" font-family="Helvetica,sans-Serif" font-size="11.00">(balance load)</text>
</g>
<!-- rq1&#45;&gt;rq0 -->
<g id="edge4" class="edge">
<title>rq1&#45;&gt;rq0</title>
<path fill="none" stroke="#5b6b73" stroke-width="1.05" stroke-dasharray="5,2" d="M261,-60.34C261,-75.57 261,-97.44 261,-114.72"/>
<polygon fill="#5b6b73" stroke="#5b6b73" stroke-width="1.05" points="258.38,-114.69 261,-122.19 263.63,-114.69 258.38,-114.69"/>
<text xml:space="preserve" text-anchor="middle" x="246" y="-93.55" font-family="Helvetica,sans-Serif" font-size="11.00">pull migration</text>
<text xml:space="preserve" text-anchor="middle" x="246" y="-81.55" font-family="Helvetica,sans-Serif" font-size="11.00">(steal work)</text>
</g>
<!-- core1 -->
<g id="node4" class="node">
<title>core1</title>
<path fill="#bfe2f1" stroke="#5b6b73" d="M483,-60C483,-60 407,-60 407,-60 401,-60 395,-54 395,-48 395,-48 395,-34 395,-34 395,-28 401,-22 407,-22 407,-22 483,-22 483,-22 489,-22 495,-28 495,-34 495,-34 495,-48 495,-48 495,-54 489,-60 483,-60"/>
<text xml:space="preserve" text-anchor="middle" x="445" y="-42.7" font-family="Helvetica,sans-Serif" font-size="14.00" fill="#233238">core executes</text>
<text xml:space="preserve" text-anchor="middle" x="445" y="-27.7" font-family="Helvetica,sans-Serif" font-size="14.00" fill="#233238">next runnable</text>
</g>
<!-- rq1&#45;&gt;core1 -->
<g id="edge2" class="edge">
<title>rq1&#45;&gt;core1</title>
<path fill="none" stroke="#5b6b73" stroke-width="1.05" d="M305.13,-41.76C329.2,-41.63 359.52,-41.46 385.68,-41.32"/>
<polygon fill="#5b6b73" stroke="#5b6b73" stroke-width="1.05" points="385.67,-43.95 393.16,-41.28 385.64,-38.7 385.67,-43.95"/>
<text xml:space="preserve" text-anchor="middle" x="350" y="-43.17" font-family="Helvetica,sans-Serif" font-size="11.00">pick next</text>
</g>
<!-- aff -->
<g id="node5" class="node">
<title>aff</title>
<path fill="#f5f5f5" stroke="#5b6b73" d="M106,-110C106,-110 12,-110 12,-110 6,-110 0,-104 0,-98 0,-98 0,-84 0,-84 0,-78 6,-72 12,-72 12,-72 106,-72 106,-72 112,-72 118,-78 118,-84 118,-84 118,-98 118,-98 118,-104 112,-110 106,-110"/>
<text xml:space="preserve" text-anchor="middle" x="59" y="-92.7" font-family="Helvetica,sans-Serif" font-size="14.00" fill="#233238">processor affinity</text>
<text xml:space="preserve" text-anchor="middle" x="59" y="-77.7" font-family="Helvetica,sans-Serif" font-size="14.00" fill="#233238">(cache locality)</text>
</g>
<!-- aff&#45;&gt;rq0 -->
<g id="edge5" class="edge">
<title>aff&#45;&gt;rq0</title>
<path fill="none" stroke="#5b6b73" stroke-width="1.05" stroke-dasharray="1,5" d="M118.39,-105.89C146.79,-113.13 180.64,-121.76 208.13,-128.77"/>
<polygon fill="#5b6b73" stroke="#5b6b73" stroke-width="1.05" points="207.36,-131.28 215.27,-130.59 208.65,-126.2 207.36,-131.28"/>
<text xml:space="preserve" text-anchor="middle" x="167.5" y="-125.6" font-family="Helvetica,sans-Serif" font-size="11.00">prefer stay</text>
</g>
<!-- aff&#45;&gt;rq1 -->
<g id="edge6" class="edge">
<title>aff&#45;&gt;rq1</title>
<path fill="none" stroke="#5b6b73" stroke-width="1.05" stroke-dasharray="1,5" d="M118.39,-76.7C146.79,-69.74 180.64,-61.44 208.13,-54.71"/>
<polygon fill="#5b6b73" stroke="#5b6b73" stroke-width="1.05" points="208.61,-57.29 215.27,-52.96 207.36,-52.19 208.61,-57.29"/>
<text xml:space="preserve" text-anchor="middle" x="167.5" y="-72.44" font-family="Helvetica,sans-Serif" font-size="11.00">prefer stay</text>
</g>
</g>
</svg>
