<?xml version="1.0" encoding="UTF-8" standalone="no"?>
<!DOCTYPE svg PUBLIC "-//W3C//DTD SVG 1.1//EN"
 "http://www.w3.org/Graphics/SVG/1.1/DTD/svg11.dtd">
<!-- Generated by graphviz version 14.1.3 (20260303.0454)
 -->
<!-- Title: G Pages: 1 -->
<svg width="1211pt" height="112pt"
 viewBox="0.00 0.00 1211.00 112.00" xmlns="http://www.w3.org/2000/svg" xmlns:xlink="http://www.w3.org/1999/xlink">
<g id="graph0" class="graph" transform="scale(1 1) rotate(0) translate(18 94)">
<title>G</title>
<polygon fill="white" stroke="none" points="-18,18 -18,-94 1192.5,-94 1192.5,18 -18,18"/>
<!-- run -->
<g id="node1" class="node">
<title>run</title>
<path fill="#d5edf7" stroke="#5b6b73" d="M81.25,-40C81.25,-40 12,-40 12,-40 6,-40 0,-34 0,-28 0,-28 0,-14 0,-14 0,-8 6,-2 12,-2 12,-2 81.25,-2 81.25,-2 87.25,-2 93.25,-8 93.25,-14 93.25,-14 93.25,-28 93.25,-28 93.25,-34 87.25,-40 81.25,-40"/>
<text xml:space="preserve" text-anchor="middle" x="46.62" y="-22.7" font-family="Helvetica,sans-Serif" font-size="14.00" fill="#233238">process runs</text>
<text xml:space="preserve" text-anchor="middle" x="46.62" y="-7.7" font-family="Helvetica,sans-Serif" font-size="14.00" fill="#233238">(on CPU)</text>
</g>
<!-- tick -->
<g id="node2" class="node">
<title>tick</title>
<path fill="#bfe2f1" stroke="#5b6b73" d="M360.75,-76C360.75,-76 258.5,-76 258.5,-76 252.5,-76 246.5,-70 246.5,-64 246.5,-64 246.5,-50 246.5,-50 246.5,-44 252.5,-38 258.5,-38 258.5,-38 360.75,-38 360.75,-38 366.75,-38 372.75,-44 372.75,-50 372.75,-50 372.75,-64 372.75,-64 372.75,-70 366.75,-76 360.75,-76"/>
<text xml:space="preserve" text-anchor="middle" x="309.62" y="-58.7" font-family="Helvetica,sans-Serif" font-size="14.00" fill="#233238">timer interrupt</text>
<text xml:space="preserve" text-anchor="middle" x="309.62" y="-43.7" font-family="Helvetica,sans-Serif" font-size="14.00" fill="#233238">(preemption point)</text>
</g>
<!-- run&#45;&gt;tick -->
<g id="edge1" class="edge">
<title>run&#45;&gt;tick</title>
<path fill="none" stroke="#5b6b73" stroke-width="1.05" d="M93.69,-27.35C133.47,-32.84 191.61,-40.86 237.39,-47.17"/>
<polygon fill="#5b6b73" stroke="#5b6b73" stroke-width="1.05" points="237.01,-49.77 244.8,-48.2 237.73,-44.57 237.01,-49.77"/>
<text xml:space="preserve" text-anchor="middle" x="169.88" y="-58.91" font-family="Helvetica,sans-Serif" font-size="11.00">quantum expires</text>
<text xml:space="preserve" text-anchor="middle" x="169.88" y="-46.91" font-family="Helvetica,sans-Serif" font-size="11.00">or higher priority arrives</text>
</g>
<!-- save -->
<g id="node3" class="node">
<title>save</title>
<path fill="#bfe2f1" stroke="#5b6b73" d="M650.75,-76C650.75,-76 527.5,-76 527.5,-76 521.5,-76 515.5,-70 515.5,-64 515.5,-64 515.5,-50 515.5,-50 515.5,-44 521.5,-38 527.5,-38 527.5,-38 650.75,-38 650.75,-38 656.75,-38 662.75,-44 662.75,-50 662.75,-50 662.75,-64 662.75,-64 662.75,-70 656.75,-76 650.75,-76"/>
<text xml:space="preserve" text-anchor="middle" x="589.12" y="-58.7" font-family="Helvetica,sans-Serif" font-size="14.00" fill="#233238">save outgoing context</text>
<text xml:space="preserve" text-anchor="middle" x="589.12" y="-43.7" font-family="Helvetica,sans-Serif" font-size="14.00" fill="#233238">(PCB / thread state)</text>
</g>
<!-- tick&#45;&gt;save -->
<g id="edge2" class="edge">
<title>tick&#45;&gt;save</title>
<path fill="none" stroke="#5b6b73" stroke-width="1.05" d="M373.25,-57C412.57,-57 463.71,-57 506.24,-57"/>
<polygon fill="#5b6b73" stroke="#5b6b73" stroke-width="1.05" points="506.08,-59.63 513.58,-57 506.08,-54.38 506.08,-59.63"/>
<text xml:space="preserve" text-anchor="middle" x="444.12" y="-58.55" font-family="Helvetica,sans-Serif" font-size="11.00">kernel regains control</text>
</g>
<!-- choose -->
<g id="node4" class="node">
<title>choose</title>
<path fill="#ddeaf1" stroke="#5b6b73" d="M908.5,-76C908.5,-76 783,-76 783,-76 777,-76 771,-70 771,-64 771,-64 771,-50 771,-50 771,-44 777,-38 783,-38 783,-38 908.5,-38 908.5,-38 914.5,-38 920.5,-44 920.5,-50 920.5,-50 920.5,-64 920.5,-64 920.5,-70 914.5,-76 908.5,-76"/>
<text xml:space="preserve" text-anchor="middle" x="845.75" y="-58.7" font-family="Helvetica,sans-Serif" font-size="14.00" fill="#233238">scheduler selects next</text>
<text xml:space="preserve" text-anchor="middle" x="845.75" y="-43.7" font-family="Helvetica,sans-Serif" font-size="14.00" fill="#233238">(runnable set)</text>
</g>
<!-- save&#45;&gt;choose -->
<g id="edge3" class="edge">
<title>save&#45;&gt;choose</title>
<path fill="none" stroke="#5b6b73" stroke-width="1.05" d="M663.09,-57C693.99,-57 730.14,-57 762.02,-57"/>
<polygon fill="#5b6b73" stroke="#5b6b73" stroke-width="1.05" points="761.8,-59.63 769.3,-57 761.8,-54.38 761.8,-59.63"/>
<text xml:space="preserve" text-anchor="middle" x="716.88" y="-58.55" font-family="Helvetica,sans-Serif" font-size="11.00">make decision</text>
</g>
<!-- dispatch -->
<g id="node5" class="node">
<title>dispatch</title>
<path fill="#ddeaf1" stroke="#5b6b73" d="M1162.5,-40C1162.5,-40 1008.5,-40 1008.5,-40 1002.5,-40 996.5,-34 996.5,-28 996.5,-28 996.5,-14 996.5,-14 996.5,-8 1002.5,-2 1008.5,-2 1008.5,-2 1162.5,-2 1162.5,-2 1168.5,-2 1174.5,-8 1174.5,-14 1174.5,-14 1174.5,-28 1174.5,-28 1174.5,-34 1168.5,-40 1162.5,-40"/>
<text xml:space="preserve" text-anchor="middle" x="1085.5" y="-22.7" font-family="Helvetica,sans-Serif" font-size="14.00" fill="#233238">dispatcher restores context</text>
<text xml:space="preserve" text-anchor="middle" x="1085.5" y="-7.7" font-family="Helvetica,sans-Serif" font-size="14.00" fill="#233238">+ returns to user mode</text>
</g>
<!-- choose&#45;&gt;dispatch -->
<g id="edge4" class="edge">
<title>choose&#45;&gt;dispatch</title>
<path fill="none" stroke="#5b6b73" stroke-width="1.05" d="M921,-45.76C942.05,-42.57 965.28,-39.05 987.46,-35.69"/>
<polygon fill="#5b6b73" stroke="#5b6b73" stroke-width="1.05" points="987.64,-38.32 994.66,-34.6 986.85,-33.13 987.64,-38.32"/>
<text xml:space="preserve" text-anchor="middle" x="958.5" y="-43.77" font-family="Helvetica,sans-Serif" font-size="11.00">handoff</text>
</g>
<!-- dispatch&#45;&gt;run -->
<g id="edge5" class="edge">
<title>dispatch&#45;&gt;run</title>
<path fill="none" stroke="#5b6b73" stroke-width="1.05" d="M996.31,-13.21C928.65,-7.23 846.75,0 846.75,0 308.62,0 308.62,0 308.62,0 308.62,0 178.81,-10.44 102.29,-16.6"/>
<polygon fill="#5b6b73" stroke="#5b6b73" stroke-width="1.05" points="102.54,-13.95 95.27,-17.17 102.96,-19.18 102.54,-13.95"/>
<text xml:space="preserve" text-anchor="middle" x="589.12" y="-1.55" font-family="Helvetica,sans-Serif" font-size="11.00">new process runs</text>
</g>
</g>
</svg>
