<?xml version="1.0" encoding="UTF-8" standalone="no"?>
<!DOCTYPE svg PUBLIC "-//W3C//DTD SVG 1.1//EN"
 "http://www.w3.org/Graphics/SVG/1.1/DTD/svg11.dtd">
<!-- Generated by graphviz version 14.1.3 (20260303.0454)
 -->
<!-- Title: G Pages: 1 -->
<svg width="565pt" height="368pt"
 viewBox="0.00 0.00 565.00 368.00" xmlns="http://www.w3.org/2000/svg" xmlns:xlink="http://www.w3.org/1999/xlink">
<g id="graph0" class="graph" transform="scale(1 1) rotate(0) translate(18 350)">
<title>G</title>
<polygon fill="white" stroke="none" points="-18,18 -18,-350 547,-350 547,18 -18,18"/>
<g id="clust1" class="cluster">
<title>cluster_q0</title>
<path fill="#eaf6fb" stroke="#9ec9da" d="M20,-231C20,-231 119,-231 119,-231 125,-231 131,-237 131,-243 131,-243 131,-312 131,-312 131,-318 125,-324 119,-324 119,-324 20,-324 20,-324 14,-324 8,-318 8,-312 8,-312 8,-243 8,-243 8,-237 14,-231 20,-231"/>
<text xml:space="preserve" text-anchor="middle" x="69.5" y="-306.7" font-family="Times,serif" font-size="14.00">Q0: highest priority</text>
<text xml:space="preserve" text-anchor="middle" x="69.5" y="-290.2" font-family="Times,serif" font-size="14.00">(short quantum)</text>
</g>
<g id="clust2" class="cluster">
<title>cluster_q1</title>
<path fill="#eaf6fb" stroke="#9ec9da" d="M283,-231C283,-231 389,-231 389,-231 395,-231 401,-237 401,-243 401,-243 401,-312 401,-312 401,-318 395,-324 389,-324 389,-324 283,-324 283,-324 277,-324 271,-318 271,-312 271,-312 271,-243 271,-243 271,-237 277,-231 283,-231"/>
<text xml:space="preserve" text-anchor="middle" x="336" y="-306.7" font-family="Times,serif" font-size="14.00">Q1: medium priority</text>
<text xml:space="preserve" text-anchor="middle" x="336" y="-290.2" font-family="Times,serif" font-size="14.00">(longer quantum)</text>
</g>
<g id="clust3" class="cluster">
<title>cluster_q2</title>
<path fill="#eaf6fb" stroke="#9ec9da" d="M356,-94C356,-94 509,-94 509,-94 515,-94 521,-100 521,-106 521,-106 521,-175 521,-175 521,-181 515,-187 509,-187 509,-187 356,-187 356,-187 350,-187 344,-181 344,-175 344,-175 344,-106 344,-106 344,-100 350,-94 356,-94"/>
<text xml:space="preserve" text-anchor="middle" x="432.5" y="-169.7" font-family="Times,serif" font-size="14.00">Q2: lowest priority</text>
<text xml:space="preserve" text-anchor="middle" x="432.5" y="-153.2" font-family="Times,serif" font-size="14.00">(FIFO or very long quantum)</text>
</g>
<!-- q0 -->
<g id="node1" class="node">
<title>q0</title>
<path fill="#d5edf7" stroke="#5b6b73" d="M102.5,-275C102.5,-275 35.5,-275 35.5,-275 29.5,-275 23.5,-269 23.5,-263 23.5,-263 23.5,-251 23.5,-251 23.5,-245 29.5,-239 35.5,-239 35.5,-239 102.5,-239 102.5,-239 108.5,-239 114.5,-245 114.5,-251 114.5,-251 114.5,-263 114.5,-263 114.5,-269 108.5,-275 102.5,-275"/>
<text xml:space="preserve" text-anchor="middle" x="69" y="-251.2" font-family="Helvetica,sans-Serif" font-size="14.00" fill="#233238">ready queue</text>
</g>
<!-- cpu -->
<g id="node4" class="node">
<title>cpu</title>
<path fill="#bfe2f1" stroke="#5b6b73" d="M308,-138C308,-138 278,-138 278,-138 272,-138 266,-132 266,-126 266,-126 266,-114 266,-114 266,-108 272,-102 278,-102 278,-102 308,-102 308,-102 314,-102 320,-108 320,-114 320,-114 320,-126 320,-126 320,-132 314,-138 308,-138"/>
<text xml:space="preserve" text-anchor="middle" x="293" y="-114.2" font-family="Helvetica,sans-Serif" font-size="14.00" fill="#233238">CPU</text>
</g>
<!-- q0&#45;&gt;cpu -->
<g id="edge1" class="edge">
<title>q0&#45;&gt;cpu</title>
<path fill="none" stroke="#5b6b73" stroke-width="1.05" d="M81.99,-238.68C95.51,-220.65 114.75,-195 114.75,-195 114.75,-195 205.19,-157.45 257.23,-135.85"/>
<polygon fill="#5b6b73" stroke="#5b6b73" stroke-width="1.05" points="258.15,-138.31 264.07,-133.01 256.14,-133.46 258.15,-138.31"/>
<text xml:space="preserve" text-anchor="middle" x="207.38" y="-202.55" font-family="Helvetica,sans-Serif" font-size="11.00">dispatch from highest nonempty queue</text>
</g>
<!-- q1 -->
<g id="node2" class="node">
<title>q1</title>
<path fill="#ddeaf1" stroke="#5b6b73" d="M369.5,-275C369.5,-275 302.5,-275 302.5,-275 296.5,-275 290.5,-269 290.5,-263 290.5,-263 290.5,-251 290.5,-251 290.5,-245 296.5,-239 302.5,-239 302.5,-239 369.5,-239 369.5,-239 375.5,-239 381.5,-245 381.5,-251 381.5,-251 381.5,-263 381.5,-263 381.5,-269 375.5,-275 369.5,-275"/>
<text xml:space="preserve" text-anchor="middle" x="336" y="-251.2" font-family="Helvetica,sans-Serif" font-size="14.00" fill="#233238">ready queue</text>
</g>
<!-- q2 -->
<g id="node3" class="node">
<title>q2</title>
<path fill="#f5f5f5" stroke="#5b6b73" d="M465.5,-138C465.5,-138 398.5,-138 398.5,-138 392.5,-138 386.5,-132 386.5,-126 386.5,-126 386.5,-114 386.5,-114 386.5,-108 392.5,-102 398.5,-102 398.5,-102 465.5,-102 465.5,-102 471.5,-102 477.5,-108 477.5,-114 477.5,-114 477.5,-126 477.5,-126 477.5,-132 471.5,-138 465.5,-138"/>
<text xml:space="preserve" text-anchor="middle" x="432" y="-114.2" font-family="Helvetica,sans-Serif" font-size="14.00" fill="#233238">ready queue</text>
</g>
<!-- q1&#45;&gt;q2 -->
<g id="edge5" class="edge">
<title>q1&#45;&gt;q2</title>
<path fill="none" stroke="#5b6b73" stroke-width="1.05" d="M372.25,-238.58C392.22,-228.99 413,-219 413,-219 413,-219 421.34,-175.97 426.97,-146.93"/>
<polygon fill="#5b6b73" stroke="#5b6b73" stroke-width="1.05" points="429.54,-147.49 428.39,-139.63 424.38,-146.49 429.54,-147.49"/>
<text xml:space="preserve" text-anchor="middle" x="459.59" y="-208.55" font-family="Helvetica,sans-Serif" font-size="11.00">uses full quantum</text>
<text xml:space="preserve" text-anchor="middle" x="459.59" y="-196.55" font-family="Helvetica,sans-Serif" font-size="11.00">(demote)</text>
</g>
<!-- q1&#45;&gt;cpu -->
<g id="edge2" class="edge">
<title>q1&#45;&gt;cpu</title>
<path fill="none" stroke="#5b6b73" stroke-width="1.05" stroke-dasharray="5,2" d="M323.91,-238.8C317.12,-229.14 310,-219 310,-219 310,-219 302.54,-175.97 297.5,-146.93"/>
<polygon fill="#5b6b73" stroke="#5b6b73" stroke-width="1.05" points="300.1,-146.58 296.23,-139.64 294.93,-147.47 300.1,-146.58"/>
</g>
<!-- q2&#45;&gt;cpu -->
<g id="edge3" class="edge">
<title>q2&#45;&gt;cpu</title>
<path fill="none" stroke="#5b6b73" stroke-width="1.05" stroke-dasharray="5,2" d="M386.19,-120C385.85,-120 385.67,-120 385.67,-120 385.67,-120 339.33,-120 339.33,-120 339.33,-120 335.14,-120 329.28,-120"/>
<polygon fill="#5b6b73" stroke="#5b6b73" stroke-width="1.05" points="329.58,-117.38 322.08,-120 329.58,-122.63 329.58,-117.38"/>
</g>
<!-- cpu&#45;&gt;q1 -->
<g id="edge4" class="edge">
<title>cpu&#45;&gt;q1</title>
<path fill="none" stroke="#5b6b73" stroke-width="1.05" d="M298.51,-138.31C305.92,-161.56 319.15,-203.08 327.74,-230.08"/>
<polygon fill="#5b6b73" stroke="#5b6b73" stroke-width="1.05" points="325.21,-230.76 329.98,-237.11 330.21,-229.17 325.21,-230.76"/>
<text xml:space="preserve" text-anchor="middle" x="365.29" y="-208.55" font-family="Helvetica,sans-Serif" font-size="11.00">uses full quantum</text>
<text xml:space="preserve" text-anchor="middle" x="365.29" y="-196.55" font-family="Helvetica,sans-Serif" font-size="11.00">(demote)</text>
</g>
<!-- io -->
<g id="node5" class="node">
<title>io</title>
<path fill="#f5f5f5" stroke="#5b6b73" d="M91.75,-38C91.75,-38 44.25,-38 44.25,-38 38.25,-38 32.25,-32 32.25,-26 32.25,-26 32.25,-12 32.25,-12 32.25,-6 38.25,0 44.25,0 44.25,0 91.75,0 91.75,0 97.75,0 103.75,-6 103.75,-12 103.75,-12 103.75,-26 103.75,-26 103.75,-32 97.75,-38 91.75,-38"/>
<text xml:space="preserve" text-anchor="middle" x="68" y="-20.7" font-family="Helvetica,sans-Serif" font-size="14.00" fill="#233238">I/O wait</text>
<text xml:space="preserve" text-anchor="middle" x="68" y="-5.7" font-family="Helvetica,sans-Serif" font-size="14.00" fill="#233238">(blocked)</text>
</g>
<!-- cpu&#45;&gt;io -->
<g id="edge6" class="edge">
<title>cpu&#45;&gt;io</title>
<path fill="none" stroke="#5b6b73" stroke-width="1.05" stroke-dasharray="1,5" d="M265.86,-107.06C227.79,-90.31 158.08,-59.63 112.39,-39.53"/>
<polygon fill="#5b6b73" stroke="#5b6b73" stroke-width="1.05" points="113.53,-37.17 105.61,-36.55 111.42,-41.97 113.53,-37.17"/>
<text xml:space="preserve" text-anchor="middle" x="242.89" y="-71.55" font-family="Helvetica,sans-Serif" font-size="11.00">blocks early</text>
<text xml:space="preserve" text-anchor="middle" x="242.89" y="-59.55" font-family="Helvetica,sans-Serif" font-size="11.00">(keeps priority)</text>
</g>
<!-- io&#45;&gt;q0 -->
<g id="edge7" class="edge">
<title>io&#45;&gt;q0</title>
<path fill="none" stroke="#5b6b73" stroke-width="1.05" stroke-dasharray="1,5" d="M68.08,-38.35C68.25,-79.94 68.68,-181.51 68.89,-229.74"/>
<polygon fill="#5b6b73" stroke="#5b6b73" stroke-width="1.05" points="66.26,-229.57 68.92,-237.06 71.51,-229.55 66.26,-229.57"/>
<text xml:space="preserve" text-anchor="middle" x="106.2" y="-121.55" font-family="Helvetica,sans-Serif" font-size="11.00">wakeup / boost</text>
<text xml:space="preserve" text-anchor="middle" x="106.2" y="-109.55" font-family="Helvetica,sans-Serif" font-size="11.00">(anti&#45;starvation)</text>
</g>
</g>
</svg>
