<?xml version="1.0" encoding="UTF-8" standalone="no"?>
<!DOCTYPE svg PUBLIC "-//W3C//DTD SVG 1.1//EN"
 "http://www.w3.org/Graphics/SVG/1.1/DTD/svg11.dtd">
<!-- Generated by graphviz version 14.1.3 (20260303.0454)
 -->
<!-- Title: G Pages: 1 -->
<svg width="1420pt" height="115pt"
 viewBox="0.00 0.00 1420.00 115.00" xmlns="http://www.w3.org/2000/svg" xmlns:xlink="http://www.w3.org/1999/xlink">
<g id="graph0" class="graph" transform="scale(1 1) rotate(0) translate(18 97)">
<title>G</title>
<polygon fill="white" stroke="none" points="-18,18 -18,-97 1401.75,-97 1401.75,18 -18,18"/>
<!-- me -->
<g id="node1" class="node">
<title>me</title>
<path fill="#d5edf7" stroke="#5b6b73" d="M202,-38C202,-38 12,-38 12,-38 6,-38 0,-32 0,-26 0,-26 0,-12 0,-12 0,-6 6,0 12,0 12,0 202,0 202,0 208,0 214,-6 214,-12 214,-12 214,-26 214,-26 214,-32 208,-38 202,-38"/>
<text xml:space="preserve" text-anchor="middle" x="107" y="-20.7" font-family="Helvetica,sans-Serif" font-size="14.00" fill="#233238">1. Mutual exclusion</text>
<text xml:space="preserve" text-anchor="middle" x="107" y="-5.7" font-family="Helvetica,sans-Serif" font-size="14.00" fill="#233238">(some resource is nonshareable)</text>
</g>
<!-- hw -->
<g id="node2" class="node">
<title>hw</title>
<path fill="#d5edf7" stroke="#5b6b73" d="M502.25,-79C502.25,-79 349,-79 349,-79 343,-79 337,-73 337,-67 337,-67 337,-53 337,-53 337,-47 343,-41 349,-41 349,-41 502.25,-41 502.25,-41 508.25,-41 514.25,-47 514.25,-53 514.25,-53 514.25,-67 514.25,-67 514.25,-73 508.25,-79 502.25,-79"/>
<text xml:space="preserve" text-anchor="middle" x="425.62" y="-61.7" font-family="Helvetica,sans-Serif" font-size="14.00" fill="#233238">2. Hold and wait</text>
<text xml:space="preserve" text-anchor="middle" x="425.62" y="-46.7" font-family="Helvetica,sans-Serif" font-size="14.00" fill="#233238">(hold one, wait for another)</text>
</g>
<!-- me&#45;&gt;hw -->
<g id="edge1" class="edge">
<title>me&#45;&gt;hw</title>
<path fill="none" stroke="#5b6b73" stroke-width="1.1" d="M214.31,-32.77C250.76,-37.49 291.34,-42.74 327.06,-47.37"/>
<polygon fill="#5b6b73" stroke="#5b6b73" stroke-width="1.1" points="326.57,-50.13 334.86,-48.38 327.29,-44.57 326.57,-50.13"/>
<text xml:space="preserve" text-anchor="middle" x="275.5" y="-45.93" font-family="Helvetica,sans-Serif" font-size="11.00">all four required</text>
</g>
<!-- np -->
<g id="node3" class="node">
<title>np</title>
<path fill="#d5edf7" stroke="#5b6b73" d="M815.25,-79C815.25,-79 649.25,-79 649.25,-79 643.25,-79 637.25,-73 637.25,-67 637.25,-67 637.25,-53 637.25,-53 637.25,-47 643.25,-41 649.25,-41 649.25,-41 815.25,-41 815.25,-41 821.25,-41 827.25,-47 827.25,-53 827.25,-53 827.25,-67 827.25,-67 827.25,-73 821.25,-79 815.25,-79"/>
<text xml:space="preserve" text-anchor="middle" x="732.25" y="-61.7" font-family="Helvetica,sans-Serif" font-size="14.00" fill="#233238">3. No preemption</text>
<text xml:space="preserve" text-anchor="middle" x="732.25" y="-46.7" font-family="Helvetica,sans-Serif" font-size="14.00" fill="#233238">(resources not forcibly taken)</text>
</g>
<!-- hw&#45;&gt;np -->
<g id="edge2" class="edge">
<title>hw&#45;&gt;np</title>
<path fill="none" stroke="#5b6b73" stroke-width="1.1" d="M514.74,-60C550.05,-60 591,-60 627.72,-60"/>
<polygon fill="#5b6b73" stroke="#5b6b73" stroke-width="1.1" points="627.29,-62.8 635.29,-60 627.29,-57.2 627.29,-62.8"/>
<text xml:space="preserve" text-anchor="middle" x="575.75" y="-61.55" font-family="Helvetica,sans-Serif" font-size="11.00">all four required</text>
</g>
<!-- cw -->
<g id="node4" class="node">
<title>cw</title>
<path fill="#d5edf7" stroke="#5b6b73" d="M1141.75,-38C1141.75,-38 962.25,-38 962.25,-38 956.25,-38 950.25,-32 950.25,-26 950.25,-26 950.25,-12 950.25,-12 950.25,-6 956.25,0 962.25,0 962.25,0 1141.75,0 1141.75,0 1147.75,0 1153.75,-6 1153.75,-12 1153.75,-12 1153.75,-26 1153.75,-26 1153.75,-32 1147.75,-38 1141.75,-38"/>
<text xml:space="preserve" text-anchor="middle" x="1052" y="-20.7" font-family="Helvetica,sans-Serif" font-size="14.00" fill="#233238">4. Circular wait</text>
<text xml:space="preserve" text-anchor="middle" x="1052" y="-5.7" font-family="Helvetica,sans-Serif" font-size="14.00" fill="#233238">(P1 waits on P2 ... waits on P1)</text>
</g>
<!-- np&#45;&gt;cw -->
<g id="edge3" class="edge">
<title>np&#45;&gt;cw</title>
<path fill="none" stroke="#5b6b73" stroke-width="1.1" d="M827.73,-47.81C863.23,-43.23 903.89,-37.98 940.7,-33.23"/>
<polygon fill="#5b6b73" stroke="#5b6b73" stroke-width="1.1" points="940.75,-36.05 948.32,-32.25 940.03,-30.5 940.75,-36.05"/>
<text xml:space="preserve" text-anchor="middle" x="888.75" y="-45.93" font-family="Helvetica,sans-Serif" font-size="11.00">all four required</text>
</g>
<!-- cw&#45;&gt;me -->
<g id="edge4" class="edge">
<title>cw&#45;&gt;me</title>
<path fill="none" stroke="#5b6b73" stroke-width="1.1" d="M950.05,-19C773.63,-19 410.31,-19 223.9,-19"/>
<polygon fill="#5b6b73" stroke="#5b6b73" stroke-width="1.1" points="224.01,-16.2 216.01,-19 224.01,-21.8 224.01,-16.2"/>
<text xml:space="preserve" text-anchor="middle" x="575.75" y="-20.55" font-family="Helvetica,sans-Serif" font-size="11.00">all four required</text>
</g>
<!-- note -->
<g id="node5" class="node">
<title>note</title>
<path fill="#fff3cd" stroke="#b58900" d="M1371.75,-38C1371.75,-38 1214.75,-38 1214.75,-38 1208.75,-38 1202.75,-32 1202.75,-26 1202.75,-26 1202.75,-12 1202.75,-12 1202.75,-6 1208.75,0 1214.75,0 1214.75,0 1371.75,0 1371.75,0 1377.75,0 1383.75,-6 1383.75,-12 1383.75,-12 1383.75,-26 1383.75,-26 1383.75,-32 1377.75,-38 1371.75,-38"/>
<text xml:space="preserve" text-anchor="middle" x="1293.25" y="-20.7" font-family="Helvetica,sans-Serif" font-size="14.00" fill="#4d3b00">To prevent deadlock:</text>
<text xml:space="preserve" text-anchor="middle" x="1293.25" y="-5.7" font-family="Helvetica,sans-Serif" font-size="14.00" fill="#4d3b00">break at least one condition</text>
</g>
<!-- cw&#45;&gt;note -->
<g id="edge5" class="edge">
<title>cw&#45;&gt;note</title>
<path fill="none" stroke="#5b6b73" stroke-width="1.1" stroke-dasharray="5,2" d="M1154.12,-19C1170.19,-19 1186.71,-19 1202.5,-19"/>
</g>
</g>
</svg>
