<?xml version="1.0" encoding="UTF-8" standalone="no"?>
<!DOCTYPE svg PUBLIC "-//W3C//DTD SVG 1.1//EN"
 "http://www.w3.org/Graphics/SVG/1.1/DTD/svg11.dtd">
<!-- Generated by graphviz version 14.1.3 (20260303.0454)
 -->
<!-- Title: G Pages: 1 -->
<svg width="924pt" height="142pt"
 viewBox="0.00 0.00 924.00 142.00" xmlns="http://www.w3.org/2000/svg" xmlns:xlink="http://www.w3.org/1999/xlink">
<g id="graph0" class="graph" transform="scale(1 1) rotate(0) translate(18 124)">
<title>G</title>
<polygon fill="white" stroke="none" points="-18,18 -18,-124 906,-124 906,18 -18,18"/>
<!-- p1 -->
<g id="node1" class="node">
<title>p1</title>
<ellipse fill="#d5edf7" stroke="#5b6b73" cx="165.88" cy="-18" rx="27" ry="18"/>
<text xml:space="preserve" text-anchor="middle" x="165.88" y="-12.2" font-family="Helvetica,sans-Serif" font-size="14.00" fill="#233238">P1</text>
</g>
<!-- r2 -->
<g id="node4" class="node">
<title>r2</title>
<polygon fill="#ddeaf1" stroke="#5b6b73" points="534.5,-76 427,-76 427,-40 534.5,-40 534.5,-76"/>
<text xml:space="preserve" text-anchor="middle" x="480.75" y="-52.2" font-family="Helvetica,sans-Serif" font-size="14.00" fill="#233238">R2 (1 instance)</text>
</g>
<!-- p1&#45;&gt;r2 -->
<g id="edge1" class="edge">
<title>p1&#45;&gt;r2</title>
<path fill="none" stroke="#5b6b73" stroke-width="1.1" d="M192.75,-21.31C241.55,-27.55 348.45,-41.21 417.12,-49.99"/>
<polygon fill="#5b6b73" stroke="#5b6b73" stroke-width="1.1" points="416.6,-52.75 424.89,-50.99 417.31,-47.19 416.6,-52.75"/>
<text xml:space="preserve" text-anchor="middle" x="379.38" y="-48.82" font-family="Helvetica,sans-Serif" font-size="11.00">requests</text>
</g>
<!-- p2 -->
<g id="node2" class="node">
<title>p2</title>
<ellipse fill="#d5edf7" stroke="#5b6b73" cx="658.25" cy="-58" rx="27" ry="18"/>
<text xml:space="preserve" text-anchor="middle" x="658.25" y="-52.2" font-family="Helvetica,sans-Serif" font-size="14.00" fill="#233238">P2</text>
</g>
<!-- r1 -->
<g id="node3" class="node">
<title>r1</title>
<polygon fill="#ddeaf1" stroke="#5b6b73" points="888,-36 780.5,-36 780.5,0 888,0 888,-36"/>
<text xml:space="preserve" text-anchor="middle" x="834.25" y="-12.2" font-family="Helvetica,sans-Serif" font-size="14.00" fill="#233238">R1 (1 instance)</text>
</g>
<!-- p2&#45;&gt;r1 -->
<g id="edge2" class="edge">
<title>p2&#45;&gt;r1</title>
<path fill="none" stroke="#5b6b73" stroke-width="1.1" d="M684.18,-52.27C706.75,-47.08 740.94,-39.22 770.89,-32.34"/>
<polygon fill="#5b6b73" stroke="#5b6b73" stroke-width="1.1" points="771.24,-35.13 778.41,-30.61 769.98,-29.67 771.24,-35.13"/>
<text xml:space="preserve" text-anchor="middle" x="732.88" y="-46.61" font-family="Helvetica,sans-Serif" font-size="11.00">requests</text>
</g>
<!-- r1&#45;&gt;p1 -->
<g id="edge3" class="edge">
<title>r1&#45;&gt;p1</title>
<path fill="none" stroke="#5b6b73" stroke-width="1.1" d="M780.37,-18C649.4,-18 312.54,-18 202.34,-18"/>
<polygon fill="#5b6b73" stroke="#5b6b73" stroke-width="1.1" points="202.66,-15.2 194.66,-18 202.66,-20.8 202.66,-15.2"/>
<text xml:space="preserve" text-anchor="middle" x="582.88" y="-19.55" font-family="Helvetica,sans-Serif" font-size="11.00">assigned</text>
</g>
<!-- r2&#45;&gt;p2 -->
<g id="edge4" class="edge">
<title>r2&#45;&gt;p2</title>
<path fill="none" stroke="#5b6b73" stroke-width="1.1" d="M534.88,-58C563.03,-58 596.83,-58 621.77,-58"/>
<polygon fill="#5b6b73" stroke="#5b6b73" stroke-width="1.1" points="621.53,-60.8 629.53,-58 621.53,-55.2 621.53,-60.8"/>
<text xml:space="preserve" text-anchor="middle" x="582.88" y="-59.55" font-family="Helvetica,sans-Serif" font-size="11.00">assigned</text>
</g>
<!-- legend -->
<g id="node5" class="node">
<title>legend</title>
<polygon fill="#fff3cd" stroke="#b58900" points="325.75,-106 0,-106 0,-68 331.75,-68 331.75,-100 325.75,-106"/>
<polyline fill="none" stroke="#b58900" points="325.75,-106 325.75,-100"/>
<polyline fill="none" stroke="#b58900" points="331.75,-100 325.75,-100"/>
<text xml:space="preserve" text-anchor="middle" x="165.88" y="-88.7" font-family="Helvetica,sans-Serif" font-size="14.00" fill="#4d3b00">Resource&#45;allocation graph (single&#45;instance example)</text>
<text xml:space="preserve" text-anchor="middle" x="165.88" y="-73.7" font-family="Helvetica,sans-Serif" font-size="14.00" fill="#4d3b00">A cycle here implies deadlock.</text>
</g>
</g>
</svg>
