<?xml version="1.0" encoding="UTF-8" standalone="no"?>
<!DOCTYPE svg PUBLIC "-//W3C//DTD SVG 1.1//EN"
 "http://www.w3.org/Graphics/SVG/1.1/DTD/svg11.dtd">
<!-- Generated by graphviz version 14.1.3 (20260303.0454)
 -->
<!-- Title: G Pages: 1 -->
<svg width="510pt" height="282pt"
 viewBox="0.00 0.00 510.00 282.00" xmlns="http://www.w3.org/2000/svg" xmlns:xlink="http://www.w3.org/1999/xlink">
<g id="graph0" class="graph" transform="scale(1 1) rotate(0) translate(14.4 267.4)">
<title>G</title>
<polygon fill="white" stroke="none" points="-14.4,14.4 -14.4,-267.4 495.15,-267.4 495.15,14.4 -14.4,14.4"/>
<!-- table -->
<g id="node1" class="node">
<title>table</title>
<polygon fill="#f5f5f5" stroke="none" points="1,-221 1,-252 206.75,-252 206.75,-221 1,-221"/>
<polygon fill="none" stroke="#5b6b73" points="1,-221 1,-252 206.75,-252 206.75,-221 1,-221"/>
<text xml:space="preserve" text-anchor="start" x="77.62" y="-231.7" font-family="Helvetica,sans-Serif" font-weight="bold" font-size="14.00">Process</text>
<polygon fill="#f5f5f5" stroke="none" points="206.75,-221 206.75,-252 288,-252 288,-221 206.75,-221"/>
<polygon fill="none" stroke="#5b6b73" points="206.75,-221 206.75,-252 288,-252 288,-221 206.75,-221"/>
<text xml:space="preserve" text-anchor="start" x="214.75" y="-231.7" font-family="Helvetica,sans-Serif" font-weight="bold" font-size="14.00">Allocation</text>
<polygon fill="#f5f5f5" stroke="none" points="288,-221 288,-252 350.5,-252 350.5,-221 288,-221"/>
<polygon fill="none" stroke="#5b6b73" points="288,-221 288,-252 350.5,-252 350.5,-221 288,-221"/>
<text xml:space="preserve" text-anchor="start" x="305.75" y="-231.7" font-family="Helvetica,sans-Serif" font-weight="bold" font-size="14.00">Max</text>
<polygon fill="#f5f5f5" stroke="none" points="350.5,-221 350.5,-252 479.75,-252 479.75,-221 350.5,-221"/>
<polygon fill="none" stroke="#5b6b73" points="350.5,-221 350.5,-252 479.75,-252 479.75,-221 350.5,-221"/>
<text xml:space="preserve" text-anchor="start" x="358.5" y="-231.7" font-family="Helvetica,sans-Serif" font-weight="bold" font-size="14.00">Need = Max&#45;Alloc</text>
<polygon fill="#e6f3f9" stroke="none" points="1,-190 1,-221 206.75,-221 206.75,-190 1,-190"/>
<polygon fill="none" stroke="#5b6b73" points="1,-190 1,-221 206.75,-221 206.75,-190 1,-190"/>
<text xml:space="preserve" text-anchor="start" x="95.62" y="-200.7" font-family="Helvetica,sans-Serif" font-weight="bold" font-size="14.00">P0</text>
<polygon fill="none" stroke="#5b6b73" points="206.75,-190 206.75,-221 288,-221 288,-190 206.75,-190"/>
<text xml:space="preserve" text-anchor="start" x="224.12" y="-201.75" font-family="Helvetica,sans-Serif" font-size="14.00">(0, 1, 0)</text>
<polygon fill="none" stroke="#5b6b73" points="288,-190 288,-221 350.5,-221 350.5,-190 288,-190"/>
<text xml:space="preserve" text-anchor="start" x="296" y="-201.75" font-family="Helvetica,sans-Serif" font-size="14.00">(7, 5, 3)</text>
<polygon fill="none" stroke="#5b6b73" points="350.5,-190 350.5,-221 479.75,-221 479.75,-190 350.5,-190"/>
<text xml:space="preserve" text-anchor="start" x="391.88" y="-201.75" font-family="Helvetica,sans-Serif" font-size="14.00">(7, 4, 3)</text>
<polygon fill="#e6f3f9" stroke="none" points="1,-159 1,-190 206.75,-190 206.75,-159 1,-159"/>
<polygon fill="none" stroke="#5b6b73" points="1,-159 1,-190 206.75,-190 206.75,-159 1,-159"/>
<text xml:space="preserve" text-anchor="start" x="95.62" y="-169.7" font-family="Helvetica,sans-Serif" font-weight="bold" font-size="14.00">P1</text>
<polygon fill="none" stroke="#5b6b73" points="206.75,-159 206.75,-190 288,-190 288,-159 206.75,-159"/>
<text xml:space="preserve" text-anchor="start" x="224.12" y="-170.75" font-family="Helvetica,sans-Serif" font-size="14.00">(2, 0, 0)</text>
<polygon fill="none" stroke="#5b6b73" points="288,-159 288,-190 350.5,-190 350.5,-159 288,-159"/>
<text xml:space="preserve" text-anchor="start" x="296" y="-170.75" font-family="Helvetica,sans-Serif" font-size="14.00">(3, 2, 2)</text>
<polygon fill="none" stroke="#5b6b73" points="350.5,-159 350.5,-190 479.75,-190 479.75,-159 350.5,-159"/>
<text xml:space="preserve" text-anchor="start" x="391.88" y="-170.75" font-family="Helvetica,sans-Serif" font-size="14.00">(1, 2, 2)</text>
<polygon fill="#e6f3f9" stroke="none" points="1,-128 1,-159 206.75,-159 206.75,-128 1,-128"/>
<polygon fill="none" stroke="#5b6b73" points="1,-128 1,-159 206.75,-159 206.75,-128 1,-128"/>
<text xml:space="preserve" text-anchor="start" x="95.62" y="-138.7" font-family="Helvetica,sans-Serif" font-weight="bold" font-size="14.00">P2</text>
<polygon fill="none" stroke="#5b6b73" points="206.75,-128 206.75,-159 288,-159 288,-128 206.75,-128"/>
<text xml:space="preserve" text-anchor="start" x="224.12" y="-139.75" font-family="Helvetica,sans-Serif" font-size="14.00">(3, 0, 2)</text>
<polygon fill="none" stroke="#5b6b73" points="288,-128 288,-159 350.5,-159 350.5,-128 288,-128"/>
<text xml:space="preserve" text-anchor="start" x="296" y="-139.75" font-family="Helvetica,sans-Serif" font-size="14.00">(9, 0, 2)</text>
<polygon fill="none" stroke="#5b6b73" points="350.5,-128 350.5,-159 479.75,-159 479.75,-128 350.5,-128"/>
<text xml:space="preserve" text-anchor="start" x="391.88" y="-139.75" font-family="Helvetica,sans-Serif" font-size="14.00">(6, 0, 0)</text>
<polygon fill="#e6f3f9" stroke="none" points="1,-97 1,-128 206.75,-128 206.75,-97 1,-97"/>
<polygon fill="none" stroke="#5b6b73" points="1,-97 1,-128 206.75,-128 206.75,-97 1,-97"/>
<text xml:space="preserve" text-anchor="start" x="95.62" y="-107.7" font-family="Helvetica,sans-Serif" font-weight="bold" font-size="14.00">P3</text>
<polygon fill="none" stroke="#5b6b73" points="206.75,-97 206.75,-128 288,-128 288,-97 206.75,-97"/>
<text xml:space="preserve" text-anchor="start" x="224.12" y="-108.75" font-family="Helvetica,sans-Serif" font-size="14.00">(2, 1, 1)</text>
<polygon fill="none" stroke="#5b6b73" points="288,-97 288,-128 350.5,-128 350.5,-97 288,-97"/>
<text xml:space="preserve" text-anchor="start" x="296" y="-108.75" font-family="Helvetica,sans-Serif" font-size="14.00">(2, 2, 2)</text>
<polygon fill="none" stroke="#5b6b73" points="350.5,-97 350.5,-128 479.75,-128 479.75,-97 350.5,-97"/>
<text xml:space="preserve" text-anchor="start" x="391.88" y="-108.75" font-family="Helvetica,sans-Serif" font-size="14.00">(0, 1, 1)</text>
<polygon fill="#e6f3f9" stroke="none" points="1,-66 1,-97 206.75,-97 206.75,-66 1,-66"/>
<polygon fill="none" stroke="#5b6b73" points="1,-66 1,-97 206.75,-97 206.75,-66 1,-66"/>
<text xml:space="preserve" text-anchor="start" x="95.62" y="-76.7" font-family="Helvetica,sans-Serif" font-weight="bold" font-size="14.00">P4</text>
<polygon fill="none" stroke="#5b6b73" points="206.75,-66 206.75,-97 288,-97 288,-66 206.75,-66"/>
<text xml:space="preserve" text-anchor="start" x="224.12" y="-77.75" font-family="Helvetica,sans-Serif" font-size="14.00">(0, 0, 2)</text>
<polygon fill="none" stroke="#5b6b73" points="288,-66 288,-97 350.5,-97 350.5,-66 288,-66"/>
<text xml:space="preserve" text-anchor="start" x="296" y="-77.75" font-family="Helvetica,sans-Serif" font-size="14.00">(4, 3, 3)</text>
<polygon fill="none" stroke="#5b6b73" points="350.5,-66 350.5,-97 479.75,-97 479.75,-66 350.5,-66"/>
<text xml:space="preserve" text-anchor="start" x="391.88" y="-77.75" font-family="Helvetica,sans-Serif" font-size="14.00">(4, 3, 1)</text>
<polygon fill="#fff3cd" stroke="none" points="1,-35 1,-66 206.75,-66 206.75,-35 1,-35"/>
<polygon fill="none" stroke="#5b6b73" points="1,-35 1,-66 206.75,-66 206.75,-35 1,-35"/>
<text xml:space="preserve" text-anchor="start" x="74.25" y="-45.7" font-family="Helvetica,sans-Serif" font-weight="bold" font-size="14.00">Available</text>
<polygon fill="none" stroke="#5b6b73" points="206.75,-35 206.75,-66 479.75,-66 479.75,-35 206.75,-35"/>
<text xml:space="preserve" text-anchor="start" x="320" y="-46.75" font-family="Helvetica,sans-Serif" font-size="14.00">(3, 3, 2)</text>
<polygon fill="#fff3cd" stroke="none" points="1,-1 1,-35 206.75,-35 206.75,-1 1,-1"/>
<polygon fill="none" stroke="#5b6b73" points="1,-1 1,-35 206.75,-35 206.75,-1 1,-1"/>
<text xml:space="preserve" text-anchor="start" x="9" y="-13.2" font-family="Helvetica,sans-Serif" font-weight="bold" font-size="14.00">Safe sequence (one example)</text>
<polygon fill="none" stroke="#5b6b73" points="206.75,-1 206.75,-35 479.75,-35 479.75,-1 206.75,-1"/>
<text xml:space="preserve" text-anchor="start" x="258.5" y="-12.75" font-family="Helvetica,sans-Serif" font-size="14.00">P1 → P3 → P4 → P0 → P2</text>
<polygon fill="none" stroke="#5b6b73" points="0,0 0,-253 480.75,-253 480.75,0 0,0"/>
</g>
</g>
</svg>
