<?xml version="1.0" encoding="UTF-8" standalone="no"?>
<!DOCTYPE svg PUBLIC "-//W3C//DTD SVG 1.1//EN"
 "http://www.w3.org/Graphics/SVG/1.1/DTD/svg11.dtd">
<!-- Generated by graphviz version 14.1.3 (20260303.0454)
 -->
<!-- Title: G Pages: 1 -->
<svg width="618pt" height="153pt"
 viewBox="0.00 0.00 618.00 153.00" xmlns="http://www.w3.org/2000/svg" xmlns:xlink="http://www.w3.org/1999/xlink">
<g id="graph0" class="graph" transform="scale(1 1) rotate(0) translate(18 135)">
<title>G</title>
<polygon fill="white" stroke="none" points="-18,18 -18,-135 600.25,-135 600.25,18 -18,18"/>
<!-- p1 -->
<g id="node1" class="node">
<title>p1</title>
<ellipse fill="#d5edf7" stroke="#5b6b73" cx="133.62" cy="-18" rx="27" ry="18"/>
<text xml:space="preserve" text-anchor="middle" x="133.62" y="-12.2" font-family="Helvetica,sans-Serif" font-size="14.00" fill="#233238">P1</text>
</g>
<!-- p2 -->
<g id="node2" class="node">
<title>p2</title>
<ellipse fill="#d5edf7" stroke="#5b6b73" cx="397.75" cy="-56" rx="27" ry="18"/>
<text xml:space="preserve" text-anchor="middle" x="397.75" y="-50.2" font-family="Helvetica,sans-Serif" font-size="14.00" fill="#233238">P2</text>
</g>
<!-- p1&#45;&gt;p2 -->
<g id="edge1" class="edge">
<title>p1&#45;&gt;p2</title>
<path fill="none" stroke="#5b6b73" stroke-width="1.1" d="M160.24,-21.71C207.41,-28.55 308.1,-43.15 361.61,-50.91"/>
<polygon fill="#5b6b73" stroke="#5b6b73" stroke-width="1.1" points="361.07,-53.66 369.39,-52.03 361.87,-48.11 361.07,-53.66"/>
<text xml:space="preserve" text-anchor="middle" x="319" y="-49.34" font-family="Helvetica,sans-Serif" font-size="11.00">waiting for</text>
</g>
<!-- p3 -->
<g id="node3" class="node">
<title>p3</title>
<ellipse fill="#d5edf7" stroke="#5b6b73" cx="555.25" cy="-18" rx="27" ry="18"/>
<text xml:space="preserve" text-anchor="middle" x="555.25" y="-12.2" font-family="Helvetica,sans-Serif" font-size="14.00" fill="#233238">P3</text>
</g>
<!-- p2&#45;&gt;p3 -->
<g id="edge2" class="edge">
<title>p2&#45;&gt;p3</title>
<path fill="none" stroke="#5b6b73" stroke-width="1.1" d="M423.39,-49.98C449.59,-43.58 491.19,-33.41 520.44,-26.26"/>
<polygon fill="#5b6b73" stroke="#5b6b73" stroke-width="1.1" points="520.74,-29.07 527.85,-24.45 519.42,-23.63 520.74,-29.07"/>
<text xml:space="preserve" text-anchor="middle" x="476.5" y="-44.17" font-family="Helvetica,sans-Serif" font-size="11.00">waiting for</text>
</g>
<!-- p3&#45;&gt;p1 -->
<g id="edge3" class="edge">
<title>p3&#45;&gt;p1</title>
<path fill="none" stroke="#5b6b73" stroke-width="1.1" d="M528.04,-15.37C490.2,-11.57 424.75,-5 424.75,-5 424.75,-5 370.75,-5 370.75,-5 370.75,-5 236.42,-12.4 170.4,-16.03"/>
<polygon fill="#5b6b73" stroke="#5b6b73" stroke-width="1.1" points="170.29,-13.23 162.46,-16.47 170.6,-18.82 170.29,-13.23"/>
<text xml:space="preserve" text-anchor="middle" x="397.75" y="-6.55" font-family="Helvetica,sans-Serif" font-size="11.00">waiting for</text>
</g>
<!-- legend -->
<g id="node4" class="node">
<title>legend</title>
<polygon fill="#fff3cd" stroke="#b58900" points="261.25,-117 0,-117 0,-79 267.25,-79 267.25,-111 261.25,-117"/>
<polyline fill="none" stroke="#b58900" points="261.25,-117 261.25,-111"/>
<polyline fill="none" stroke="#b58900" points="267.25,-111 261.25,-111"/>
<text xml:space="preserve" text-anchor="middle" x="133.62" y="-99.7" font-family="Helvetica,sans-Serif" font-size="14.00" fill="#4d3b00">Wait&#45;for graph (single&#45;instance resources)</text>
<text xml:space="preserve" text-anchor="middle" x="133.62" y="-84.7" font-family="Helvetica,sans-Serif" font-size="14.00" fill="#4d3b00">Cycle implies deadlock.</text>
</g>
</g>
</svg>
