<?xml version="1.0" encoding="UTF-8" standalone="no"?>
<!DOCTYPE svg PUBLIC "-//W3C//DTD SVG 1.1//EN"
 "http://www.w3.org/Graphics/SVG/1.1/DTD/svg11.dtd">
<!-- Generated by graphviz version 14.1.3 (20260303.0454)
 -->
<!-- Title: G Pages: 1 -->
<svg width="1004pt" height="186pt"
 viewBox="0.00 0.00 1004.00 186.00" xmlns="http://www.w3.org/2000/svg" xmlns:xlink="http://www.w3.org/1999/xlink">
<g id="graph0" class="graph" transform="scale(1 1) rotate(0) translate(14.4 171.4)">
<title>G</title>
<polygon fill="white" stroke="none" points="-14.4,14.4 -14.4,-171.4 989.9,-171.4 989.9,14.4 -14.4,14.4"/>
<!-- cmp -->
<g id="node1" class="node">
<title>cmp</title>
<polygon fill="#f5f5f5" stroke="none" points="1,-125 1,-156 125.75,-156 125.75,-125 1,-125"/>
<polygon fill="none" stroke="#5b6b73" points="1,-125 1,-156 125.75,-156 125.75,-125 1,-125"/>
<text xml:space="preserve" text-anchor="start" x="33.75" y="-135.7" font-family="Helvetica,sans-Serif" font-weight="bold" font-size="14.00">Question</text>
<polygon fill="#f5f5f5" stroke="none" points="125.75,-125 125.75,-156 537,-156 537,-125 125.75,-125"/>
<polygon fill="none" stroke="#5b6b73" points="125.75,-125 125.75,-156 537,-156 537,-125 125.75,-125"/>
<text xml:space="preserve" text-anchor="start" x="242.5" y="-135.7" font-family="Helvetica,sans-Serif" font-weight="bold" font-size="14.00">Ordinary pipe (anonymous)</text>
<polygon fill="#f5f5f5" stroke="none" points="537,-125 537,-156 974.5,-156 974.5,-125 537,-125"/>
<polygon fill="none" stroke="#5b6b73" points="537,-125 537,-156 974.5,-156 974.5,-125 537,-125"/>
<text xml:space="preserve" text-anchor="start" x="695" y="-135.7" font-family="Helvetica,sans-Serif" font-weight="bold" font-size="14.00">Named pipe (FIFO)</text>
<polygon fill="#e6f3f9" stroke="none" points="1,-94 1,-125 125.75,-125 125.75,-94 1,-94"/>
<polygon fill="none" stroke="#5b6b73" points="1,-94 1,-125 125.75,-125 125.75,-94 1,-94"/>
<text xml:space="preserve" text-anchor="start" x="18.75" y="-104.7" font-family="Helvetica,sans-Serif" font-weight="bold" font-size="14.00">How created?</text>
<polygon fill="none" stroke="#5b6b73" points="125.75,-94 125.75,-125 537,-125 537,-94 125.75,-94"/>
<text xml:space="preserve" text-anchor="start" x="193.75" y="-105.75" font-family="Helvetica,sans-Serif" font-size="14.00">`pipe(fd)` returns two fds (read end, write end)</text>
<polygon fill="none" stroke="#5b6b73" points="537,-94 537,-125 974.5,-125 974.5,-94 537,-94"/>
<text xml:space="preserve" text-anchor="start" x="574.25" y="-105.75" font-family="Helvetica,sans-Serif" font-size="14.00">`mkfifo(path, ...)` (or shell `mkfifo`) creates a filesystem node</text>
<polygon fill="#e6f3f9" stroke="none" points="1,-63 1,-94 125.75,-94 125.75,-63 1,-63"/>
<polygon fill="none" stroke="#5b6b73" points="1,-63 1,-94 125.75,-94 125.75,-63 1,-63"/>
<text xml:space="preserve" text-anchor="start" x="9" y="-73.7" font-family="Helvetica,sans-Serif" font-weight="bold" font-size="14.00">How connected?</text>
<polygon fill="none" stroke="#5b6b73" points="125.75,-63 125.75,-94 537,-94 537,-63 125.75,-63"/>
<text xml:space="preserve" text-anchor="start" x="235.75" y="-74.75" font-family="Helvetica,sans-Serif" font-size="14.00">typically inherited across `fork()`</text>
<polygon fill="none" stroke="#5b6b73" points="537,-63 537,-94 974.5,-94 974.5,-63 537,-63"/>
<text xml:space="preserve" text-anchor="start" x="632" y="-74.75" font-family="Helvetica,sans-Serif" font-size="14.00">any process can `open(path)` if permitted</text>
<polygon fill="#e6f3f9" stroke="none" points="1,-32 1,-63 125.75,-63 125.75,-32 1,-32"/>
<polygon fill="none" stroke="#5b6b73" points="1,-32 1,-63 125.75,-63 125.75,-32 1,-32"/>
<text xml:space="preserve" text-anchor="start" x="30" y="-42.7" font-family="Helvetica,sans-Serif" font-weight="bold" font-size="14.00">Direction?</text>
<polygon fill="none" stroke="#5b6b73" points="125.75,-32 125.75,-63 537,-63 537,-32 125.75,-32"/>
<text xml:space="preserve" text-anchor="start" x="223.38" y="-43.75" font-family="Helvetica,sans-Serif" font-size="14.00">unidirectional: one writes, one reads</text>
<polygon fill="none" stroke="#5b6b73" points="537,-32 537,-63 974.5,-63 974.5,-32 537,-32"/>
<text xml:space="preserve" text-anchor="start" x="545" y="-43.75" font-family="Helvetica,sans-Serif" font-size="14.00">can be used for two&#45;way communication via two FIFOs or conventions</text>
<polygon fill="#e6f3f9" stroke="none" points="1,-1 1,-32 125.75,-32 125.75,-1 1,-1"/>
<polygon fill="none" stroke="#5b6b73" points="1,-1 1,-32 125.75,-32 125.75,-1 1,-1"/>
<text xml:space="preserve" text-anchor="start" x="16.5" y="-11.7" font-family="Helvetica,sans-Serif" font-weight="bold" font-size="14.00">Key constraint</text>
<polygon fill="none" stroke="#5b6b73" points="125.75,-1 125.75,-32 537,-32 537,-1 125.75,-1"/>
<text xml:space="preserve" text-anchor="start" x="133.75" y="-12.75" font-family="Helvetica,sans-Serif" font-size="14.00">usually assumes parent&#45;child relationship and coordinated lifetime</text>
<polygon fill="none" stroke="#5b6b73" points="537,-1 537,-32 974.5,-32 974.5,-1 537,-1"/>
<text xml:space="preserve" text-anchor="start" x="546.12" y="-12.75" font-family="Helvetica,sans-Serif" font-size="14.00">decouples processes by naming a rendezvous object in the filesystem</text>
<polygon fill="none" stroke="#5b6b73" points="0,0 0,-157 975.5,-157 975.5,0 0,0"/>
</g>
</g>
</svg>
