<?xml version="1.0" encoding="UTF-8" standalone="no"?>
<!DOCTYPE svg PUBLIC "-//W3C//DTD SVG 1.1//EN"
 "http://www.w3.org/Graphics/SVG/1.1/DTD/svg11.dtd">
<!-- Generated by graphviz version 14.1.3 (20260303.0454)
 -->
<!-- Title: G Pages: 1 -->
<svg width="612pt" height="664pt"
 viewBox="0.00 0.00 612.00 664.00" xmlns="http://www.w3.org/2000/svg" xmlns:xlink="http://www.w3.org/1999/xlink">
<g id="graph0" class="graph" transform="scale(1 1) rotate(0) translate(18 646)">
<title>G</title>
<polygon fill="white" stroke="none" points="-18,18 -18,-646 594,-646 594,18 -18,18"/>
<!-- jobq -->
<g id="node1" class="node">
<title>jobq</title>
<path fill="#f5f5f5" stroke="#5b6b73" d="M296.75,-628C296.75,-628 183.25,-628 183.25,-628 177.25,-628 171.25,-622 171.25,-616 171.25,-616 171.25,-602 171.25,-602 171.25,-596 177.25,-590 183.25,-590 183.25,-590 296.75,-590 296.75,-590 302.75,-590 308.75,-596 308.75,-602 308.75,-602 308.75,-616 308.75,-616 308.75,-622 302.75,-628 296.75,-628"/>
<text xml:space="preserve" text-anchor="middle" x="240" y="-610.7" font-family="Helvetica,sans-Serif" font-size="14.00" fill="#233238">job queue</text>
<text xml:space="preserve" text-anchor="middle" x="240" y="-595.7" font-family="Helvetica,sans-Serif" font-size="14.00" fill="#233238">all known processes</text>
</g>
<!-- lts -->
<g id="node2" class="node">
<title>lts</title>
<path fill="#bfe2f1" stroke="#5b6b73" d="M296,-530C296,-530 184,-530 184,-530 178,-530 172,-524 172,-518 172,-518 172,-506 172,-506 172,-500 178,-494 184,-494 184,-494 296,-494 296,-494 302,-494 308,-500 308,-506 308,-506 308,-518 308,-518 308,-524 302,-530 296,-530"/>
<text xml:space="preserve" text-anchor="middle" x="240" y="-506.2" font-family="Helvetica,sans-Serif" font-size="14.00" fill="#233238">long&#45;term scheduler</text>
</g>
<!-- jobq&#45;&gt;lts -->
<g id="edge1" class="edge">
<title>jobq&#45;&gt;lts</title>
<path fill="none" stroke="#5b6b73" stroke-width="1.05" d="M240,-589.68C240,-575.35 240,-555.23 240,-539.19"/>
<polygon fill="#5b6b73" stroke="#5b6b73" stroke-width="1.05" points="242.63,-539.39 240,-531.89 237.38,-539.39 242.63,-539.39"/>
<text xml:space="preserve" text-anchor="middle" x="264" y="-555.55" font-family="Helvetica,sans-Serif" font-size="11.00">admission</text>
</g>
<!-- readyq -->
<g id="node3" class="node">
<title>readyq</title>
<path fill="#ddeaf1" stroke="#5b6b73" d="M273.5,-434C273.5,-434 206.5,-434 206.5,-434 200.5,-434 194.5,-428 194.5,-422 194.5,-422 194.5,-410 194.5,-410 194.5,-404 200.5,-398 206.5,-398 206.5,-398 273.5,-398 273.5,-398 279.5,-398 285.5,-404 285.5,-410 285.5,-410 285.5,-422 285.5,-422 285.5,-428 279.5,-434 273.5,-434"/>
<text xml:space="preserve" text-anchor="middle" x="240" y="-410.2" font-family="Helvetica,sans-Serif" font-size="14.00" fill="#233238">ready queue</text>
</g>
<!-- lts&#45;&gt;readyq -->
<g id="edge2" class="edge">
<title>lts&#45;&gt;readyq</title>
<path fill="none" stroke="#5b6b73" stroke-width="1.05" d="M240,-493.76C240,-479.67 240,-459.52 240,-443.4"/>
<polygon fill="#5b6b73" stroke="#5b6b73" stroke-width="1.05" points="242.63,-443.54 240,-436.04 237.38,-443.54 242.63,-443.54"/>
<text xml:space="preserve" text-anchor="middle" x="289.5" y="-459.55" font-family="Helvetica,sans-Serif" font-size="11.00">brought into memory</text>
</g>
<!-- sts -->
<g id="node4" class="node">
<title>sts</title>
<path fill="#bfe2f1" stroke="#5b6b73" d="M434.38,-338C434.38,-338 351.62,-338 351.62,-338 345.62,-338 339.62,-332 339.62,-326 339.62,-326 339.62,-314 339.62,-314 339.62,-308 345.62,-302 351.62,-302 351.62,-302 434.38,-302 434.38,-302 440.38,-302 446.38,-308 446.38,-314 446.38,-314 446.38,-326 446.38,-326 446.38,-332 440.38,-338 434.38,-338"/>
<text xml:space="preserve" text-anchor="middle" x="393" y="-314.2" font-family="Helvetica,sans-Serif" font-size="14.00" fill="#233238">CPU scheduler</text>
</g>
<!-- readyq&#45;&gt;sts -->
<g id="edge3" class="edge">
<title>readyq&#45;&gt;sts</title>
<path fill="none" stroke="#5b6b73" stroke-width="1.05" d="M268.42,-397.54C293.43,-382.17 329.98,-359.72 357.02,-343.1"/>
<polygon fill="#5b6b73" stroke="#5b6b73" stroke-width="1.05" points="358.36,-345.36 363.38,-339.2 355.61,-340.89 358.36,-345.36"/>
<text xml:space="preserve" text-anchor="middle" x="357.54" y="-363.55" font-family="Helvetica,sans-Serif" font-size="11.00">candidate set</text>
</g>
<!-- mts -->
<g id="node8" class="node">
<title>mts</title>
<path fill="#bfe2f1" stroke="#5b6b73" d="M148,-338C148,-338 12,-338 12,-338 6,-338 0,-332 0,-326 0,-326 0,-314 0,-314 0,-308 6,-302 12,-302 12,-302 148,-302 148,-302 154,-302 160,-308 160,-314 160,-314 160,-326 160,-326 160,-332 154,-338 148,-338"/>
<text xml:space="preserve" text-anchor="middle" x="80" y="-314.2" font-family="Helvetica,sans-Serif" font-size="14.00" fill="#233238">medium&#45;term scheduler</text>
</g>
<!-- readyq&#45;&gt;mts -->
<g id="edge9" class="edge">
<title>readyq&#45;&gt;mts</title>
<path fill="none" stroke="#5b6b73" stroke-width="1.05" d="M194.11,-404.55C140.78,-392.4 60,-374 60,-374 60,-374 60,-362 60,-362 60,-362 63.61,-354.61 67.76,-346.1"/>
<polygon fill="#5b6b73" stroke="#5b6b73" stroke-width="1.05" points="70.01,-347.47 70.94,-339.58 65.29,-345.17 70.01,-347.47"/>
<text xml:space="preserve" text-anchor="middle" x="102" y="-363.55" font-family="Helvetica,sans-Serif" font-size="11.00">memory pressure</text>
</g>
<!-- cpu -->
<g id="node5" class="node">
<title>cpu</title>
<path fill="#d5edf7" stroke="#5b6b73" d="M419,-241C419,-241 331,-241 331,-241 325,-241 319,-235 319,-229 319,-229 319,-217 319,-217 319,-211 325,-205 331,-205 331,-205 419,-205 419,-205 425,-205 431,-211 431,-217 431,-217 431,-229 431,-229 431,-235 425,-241 419,-241"/>
<text xml:space="preserve" text-anchor="middle" x="375" y="-217.2" font-family="Helvetica,sans-Serif" font-size="14.00" fill="#233238">running process</text>
</g>
<!-- sts&#45;&gt;cpu -->
<g id="edge4" class="edge">
<title>sts&#45;&gt;cpu</title>
<path fill="none" stroke="#5b6b73" stroke-width="1.05" d="M389.7,-301.58C386.96,-287.11 383.02,-266.33 379.91,-249.92"/>
<polygon fill="#5b6b73" stroke="#5b6b73" stroke-width="1.05" points="382.55,-249.76 378.58,-242.88 377.39,-250.73 382.55,-249.76"/>
<text xml:space="preserve" text-anchor="middle" x="404.95" y="-267.55" font-family="Helvetica,sans-Serif" font-size="11.00">dispatch</text>
</g>
<!-- cpu&#45;&gt;readyq -->
<g id="edge5" class="edge">
<title>cpu&#45;&gt;readyq</title>
<path fill="none" stroke="#5b6b73" stroke-width="1.05" d="M348.7,-241.31C313.79,-264.29 256.5,-302 256.5,-302 256.5,-302 248.66,-355.66 243.79,-389.03"/>
<polygon fill="#5b6b73" stroke="#5b6b73" stroke-width="1.05" points="241.22,-388.46 242.74,-396.27 246.42,-389.22 241.22,-388.46"/>
<text xml:space="preserve" text-anchor="middle" x="290.25" y="-321.55" font-family="Helvetica,sans-Serif" font-size="11.00">timer expires /</text>
<text xml:space="preserve" text-anchor="middle" x="290.25" y="-309.55" font-family="Helvetica,sans-Serif" font-size="11.00">preempted</text>
</g>
<!-- devq -->
<g id="node6" class="node">
<title>devq</title>
<path fill="#ddeaf1" stroke="#5b6b73" d="M428.12,-132C428.12,-132 355.88,-132 355.88,-132 349.88,-132 343.88,-126 343.88,-120 343.88,-120 343.88,-108 343.88,-108 343.88,-102 349.88,-96 355.88,-96 355.88,-96 428.12,-96 428.12,-96 434.12,-96 440.12,-102 440.12,-108 440.12,-108 440.12,-120 440.12,-120 440.12,-126 434.12,-132 428.12,-132"/>
<text xml:space="preserve" text-anchor="middle" x="392" y="-108.2" font-family="Helvetica,sans-Serif" font-size="14.00" fill="#233238">device queue</text>
</g>
<!-- cpu&#45;&gt;devq -->
<g id="edge6" class="edge">
<title>cpu&#45;&gt;devq</title>
<path fill="none" stroke="#5b6b73" stroke-width="1.05" d="M377.73,-204.81C380.47,-187.57 384.72,-160.81 387.87,-140.98"/>
<polygon fill="#5b6b73" stroke="#5b6b73" stroke-width="1.05" points="390.44,-141.54 389.03,-133.72 385.26,-140.71 390.44,-141.54"/>
<text xml:space="preserve" text-anchor="middle" x="414.65" y="-169.55" font-family="Helvetica,sans-Serif" font-size="11.00">I/O request /</text>
<text xml:space="preserve" text-anchor="middle" x="414.65" y="-157.55" font-family="Helvetica,sans-Serif" font-size="11.00">blocks</text>
</g>
<!-- device -->
<g id="node7" class="node">
<title>device</title>
<path fill="#f5f5f5" stroke="#5b6b73" d="M469.75,-36C469.75,-36 416.25,-36 416.25,-36 410.25,-36 404.25,-30 404.25,-24 404.25,-24 404.25,-12 404.25,-12 404.25,-6 410.25,0 416.25,0 416.25,0 469.75,0 469.75,0 475.75,0 481.75,-6 481.75,-12 481.75,-12 481.75,-24 481.75,-24 481.75,-30 475.75,-36 469.75,-36"/>
<text xml:space="preserve" text-anchor="middle" x="443" y="-12.2" font-family="Helvetica,sans-Serif" font-size="14.00" fill="#233238">I/O device</text>
</g>
<!-- devq&#45;&gt;device -->
<g id="edge7" class="edge">
<title>devq&#45;&gt;device</title>
<path fill="none" stroke="#5b6b73" stroke-width="1.05" d="M396.91,-95.65C401.29,-80.19 407,-60 407,-60 407,-60 414.17,-51.83 422.11,-42.79"/>
<polygon fill="#5b6b73" stroke="#5b6b73" stroke-width="1.05" points="423.92,-44.71 426.89,-37.34 419.97,-41.25 423.92,-44.71"/>
<text xml:space="preserve" text-anchor="middle" x="438.5" y="-61.55" font-family="Helvetica,sans-Serif" font-size="11.00">service starts</text>
</g>
<!-- device&#45;&gt;readyq -->
<g id="edge8" class="edge">
<title>device&#45;&gt;readyq</title>
<path fill="none" stroke="#5b6b73" stroke-width="1.05" d="M455.97,-36.15C464.46,-47.39 474,-60 474,-60 474,-60 495,-113 495,-113 495,-321 495,-321 495,-321 495,-321 397,-374 397,-374 397,-374 339.79,-388.94 294.44,-400.78"/>
<polygon fill="#5b6b73" stroke="#5b6b73" stroke-width="1.05" points="293.96,-398.19 287.37,-402.63 295.29,-403.27 293.96,-398.19"/>
<text xml:space="preserve" text-anchor="middle" x="535.5" y="-218.55" font-family="Helvetica,sans-Serif" font-size="11.00">completion event</text>
</g>
<!-- mts&#45;&gt;readyq -->
<g id="edge12" class="edge">
<title>mts&#45;&gt;readyq</title>
<path fill="none" stroke="#5b6b73" stroke-width="1.05" d="M109.56,-338.37C135.78,-353.77 174.21,-376.35 202.57,-393.01"/>
<polygon fill="#5b6b73" stroke="#5b6b73" stroke-width="1.05" points="201.11,-395.2 208.91,-396.73 203.77,-390.67 201.11,-395.2"/>
<text xml:space="preserve" text-anchor="middle" x="186.45" y="-363.55" font-family="Helvetica,sans-Serif" font-size="11.00">restore</text>
</g>
<!-- suspended -->
<g id="node9" class="node">
<title>suspended</title>
<path fill="#f5f5f5" stroke="#5b6b73" d="M147.25,-242C147.25,-242 12.75,-242 12.75,-242 6.75,-242 0.75,-236 0.75,-230 0.75,-230 0.75,-216 0.75,-216 0.75,-210 6.75,-204 12.75,-204 12.75,-204 147.25,-204 147.25,-204 153.25,-204 159.25,-210 159.25,-216 159.25,-216 159.25,-230 159.25,-230 159.25,-236 153.25,-242 147.25,-242"/>
<text xml:space="preserve" text-anchor="middle" x="80" y="-224.7" font-family="Helvetica,sans-Serif" font-size="14.00" fill="#233238">suspended queue</text>
<text xml:space="preserve" text-anchor="middle" x="80" y="-209.7" font-family="Helvetica,sans-Serif" font-size="14.00" fill="#233238">swapped&#45;out processes</text>
</g>
<!-- mts&#45;&gt;suspended -->
<g id="edge10" class="edge">
<title>mts&#45;&gt;suspended</title>
<path fill="none" stroke="#5b6b73" stroke-width="1.05" d="M80.42,-301.85C80.69,-290.61 81,-278 81,-278 81,-278 81,-266 81,-266 81,-266 80.84,-259.23 80.65,-251.12"/>
<polygon fill="#5b6b73" stroke="#5b6b73" stroke-width="1.05" points="83.27,-251.08 80.47,-243.64 78.02,-251.2 83.27,-251.08"/>
<text xml:space="preserve" text-anchor="middle" x="102.75" y="-267.55" font-family="Helvetica,sans-Serif" font-size="11.00">swap out</text>
</g>
<!-- suspended&#45;&gt;mts -->
<g id="edge11" class="edge">
<title>suspended&#45;&gt;mts</title>
<path fill="none" stroke="#5b6b73" stroke-width="1.05" d="M60.94,-242.3C49.15,-253.62 36.25,-266 36.25,-266 36.25,-266 36.25,-278 36.25,-278 36.25,-278 45.18,-286.37 54.97,-295.55"/>
<polygon fill="#5b6b73" stroke="#5b6b73" stroke-width="1.05" points="53.02,-297.31 60.29,-300.53 56.61,-293.48 53.02,-297.31"/>
<text xml:space="preserve" text-anchor="middle" x="54.62" y="-267.55" font-family="Helvetica,sans-Serif" font-size="11.00">swap in</text>
</g>
</g>
</svg>
