<?xml version="1.0" encoding="UTF-8" standalone="no"?>
<!DOCTYPE svg PUBLIC "-//W3C//DTD SVG 1.1//EN"
 "http://www.w3.org/Graphics/SVG/1.1/DTD/svg11.dtd">
<!-- Generated by graphviz version 14.1.3 (20260303.0454)
 -->
<!-- Title: G Pages: 1 -->
<svg width="1208pt" height="186pt"
 viewBox="0.00 0.00 1208.00 186.00" xmlns="http://www.w3.org/2000/svg" xmlns:xlink="http://www.w3.org/1999/xlink">
<g id="graph0" class="graph" transform="scale(1 1) rotate(0) translate(14.4 171.4)">
<title>G</title>
<polygon fill="white" stroke="none" points="-14.4,14.4 -14.4,-171.4 1193.65,-171.4 1193.65,14.4 -14.4,14.4"/>
<!-- trace -->
<g id="node1" class="node">
<title>trace</title>
<polygon fill="#f5f5f5" stroke="none" points="1,-125 1,-156 122.75,-156 122.75,-125 1,-125"/>
<polygon fill="none" stroke="#5b6b73" points="1,-125 1,-156 122.75,-156 122.75,-125 1,-125"/>
<text xml:space="preserve" text-anchor="start" x="42" y="-135.7" font-family="Helvetica,sans-Serif" font-weight="bold" font-size="14.00">Phase</text>
<polygon fill="#f5f5f5" stroke="none" points="122.75,-125 122.75,-156 390,-156 390,-125 122.75,-125"/>
<polygon fill="none" stroke="#5b6b73" points="122.75,-125 122.75,-156 390,-156 390,-125 122.75,-125"/>
<text xml:space="preserve" text-anchor="start" x="235.38" y="-135.7" font-family="Helvetica,sans-Serif" font-weight="bold" font-size="14.00">Kernel</text>
<polygon fill="#f5f5f5" stroke="none" points="390,-125 390,-156 688,-156 688,-125 390,-125"/>
<polygon fill="none" stroke="#5b6b73" points="390,-125 390,-156 688,-156 688,-125 390,-125"/>
<text xml:space="preserve" text-anchor="start" x="505.62" y="-135.7" font-family="Helvetica,sans-Serif" font-weight="bold" font-size="14.00">init (PID 1)</text>
<polygon fill="#f5f5f5" stroke="none" points="688,-125 688,-156 982.25,-156 982.25,-125 688,-125"/>
<polygon fill="none" stroke="#5b6b73" points="688,-125 688,-156 982.25,-156 982.25,-125 688,-125"/>
<text xml:space="preserve" text-anchor="start" x="807.75" y="-135.7" font-family="Helvetica,sans-Serif" font-weight="bold" font-size="14.00">Parent P</text>
<polygon fill="#f5f5f5" stroke="none" points="982.25,-125 982.25,-156 1178.25,-156 1178.25,-125 982.25,-125"/>
<polygon fill="none" stroke="#5b6b73" points="982.25,-125 982.25,-156 1178.25,-156 1178.25,-125 982.25,-125"/>
<text xml:space="preserve" text-anchor="start" x="1056.62" y="-135.7" font-family="Helvetica,sans-Serif" font-weight="bold" font-size="14.00">Child C</text>
<polygon fill="#e6f3f9" stroke="none" points="1,-94 1,-125 122.75,-125 122.75,-94 1,-94"/>
<polygon fill="none" stroke="#5b6b73" points="1,-94 1,-125 122.75,-125 122.75,-94 1,-94"/>
<text xml:space="preserve" text-anchor="start" x="46.5" y="-104.7" font-family="Helvetica,sans-Serif" font-weight="bold" font-size="14.00">Boot</text>
<polygon fill="none" stroke="#5b6b73" points="122.75,-94 122.75,-125 390,-125 390,-94 122.75,-94"/>
<text xml:space="preserve" text-anchor="start" x="155.12" y="-105.75" font-family="Helvetica,sans-Serif" font-size="14.00">starts the first user&#45;space process</text>
<polygon fill="none" stroke="#5b6b73" points="390,-94 390,-125 688,-125 688,-94 390,-94"/>
<text xml:space="preserve" text-anchor="start" x="451.25" y="-105.75" font-family="Helvetica,sans-Serif" font-size="14.00">becomes root of process tree</text>
<polygon fill="none" stroke="#5b6b73" points="688,-94 688,-125 982.25,-125 982.25,-94 688,-94"/>
<text xml:space="preserve" text-anchor="start" x="814.88" y="-105.75" font-family="Helvetica,sans-Serif" font-size="14.00">absent</text>
<polygon fill="none" stroke="#5b6b73" points="982.25,-94 982.25,-125 1178.25,-125 1178.25,-94 982.25,-94"/>
<text xml:space="preserve" text-anchor="start" x="1060" y="-105.75" font-family="Helvetica,sans-Serif" font-size="14.00">absent</text>
<polygon fill="#e6f3f9" stroke="none" points="1,-63 1,-94 122.75,-94 122.75,-63 1,-63"/>
<polygon fill="none" stroke="#5b6b73" points="1,-63 1,-94 122.75,-94 122.75,-63 1,-63"/>
<text xml:space="preserve" text-anchor="start" x="38.25" y="-73.7" font-family="Helvetica,sans-Serif" font-weight="bold" font-size="14.00">Normal</text>
<polygon fill="none" stroke="#5b6b73" points="122.75,-63 122.75,-94 390,-94 390,-63 122.75,-63"/>
<text xml:space="preserve" text-anchor="start" x="177.62" y="-74.75" font-family="Helvetica,sans-Serif" font-size="14.00">tracks parent/child relation</text>
<polygon fill="none" stroke="#5b6b73" points="390,-63 390,-94 688,-94 688,-63 390,-63"/>
<text xml:space="preserve" text-anchor="start" x="456.88" y="-74.75" font-family="Helvetica,sans-Serif" font-size="14.00">running; can adopt orphans</text>
<polygon fill="none" stroke="#5b6b73" points="688,-63 688,-94 982.25,-94 982.25,-63 688,-63"/>
<text xml:space="preserve" text-anchor="start" x="760.12" y="-74.75" font-family="Helvetica,sans-Serif" font-size="14.00">creates C (via fork/clone)</text>
<polygon fill="none" stroke="#5b6b73" points="982.25,-63 982.25,-94 1178.25,-94 1178.25,-63 982.25,-63"/>
<text xml:space="preserve" text-anchor="start" x="1014.25" y="-74.75" font-family="Helvetica,sans-Serif" font-size="14.00">running with parent=P</text>
<polygon fill="#e6f3f9" stroke="none" points="1,-32 1,-63 122.75,-63 122.75,-32 1,-32"/>
<polygon fill="none" stroke="#5b6b73" points="1,-32 1,-63 122.75,-63 122.75,-32 1,-32"/>
<text xml:space="preserve" text-anchor="start" x="9" y="-42.7" font-family="Helvetica,sans-Serif" font-weight="bold" font-size="14.00">Parent exits first</text>
<polygon fill="none" stroke="#5b6b73" points="122.75,-32 122.75,-63 390,-63 390,-32 122.75,-32"/>
<text xml:space="preserve" text-anchor="start" x="130.75" y="-43.75" font-family="Helvetica,sans-Serif" font-size="14.00">records P termination; C becomes orphan</text>
<polygon fill="none" stroke="#5b6b73" points="390,-32 390,-63 688,-63 688,-32 390,-32"/>
<text xml:space="preserve" text-anchor="start" x="513.5" y="-43.75" font-family="Helvetica,sans-Serif" font-size="14.00">still alive</text>
<polygon fill="none" stroke="#5b6b73" points="688,-32 688,-63 982.25,-63 982.25,-32 688,-32"/>
<text xml:space="preserve" text-anchor="start" x="696" y="-43.75" font-family="Helvetica,sans-Serif" font-size="14.00">terminated (may become zombie until reaped)</text>
<polygon fill="none" stroke="#5b6b73" points="982.25,-32 982.25,-63 1178.25,-63 1178.25,-32 982.25,-32"/>
<text xml:space="preserve" text-anchor="start" x="990.25" y="-43.75" font-family="Helvetica,sans-Serif" font-size="14.00">still running but parent is gone</text>
<polygon fill="#e6f3f9" stroke="none" points="1,-1 1,-32 122.75,-32 122.75,-1 1,-1"/>
<polygon fill="none" stroke="#5b6b73" points="1,-1 1,-32 122.75,-32 122.75,-1 1,-1"/>
<text xml:space="preserve" text-anchor="start" x="32.62" y="-11.7" font-family="Helvetica,sans-Serif" font-weight="bold" font-size="14.00">Reparent</text>
<polygon fill="none" stroke="#5b6b73" points="122.75,-1 122.75,-32 390,-32 390,-1 122.75,-1"/>
<text xml:space="preserve" text-anchor="start" x="199.75" y="-12.75" font-family="Helvetica,sans-Serif" font-size="14.00">sets C.parent = init</text>
<polygon fill="none" stroke="#5b6b73" points="390,-1 390,-32 688,-32 688,-1 390,-1"/>
<text xml:space="preserve" text-anchor="start" x="398" y="-12.75" font-family="Helvetica,sans-Serif" font-size="14.00">now responsible for eventual wait/reap protocol</text>
<polygon fill="none" stroke="#5b6b73" points="688,-1 688,-32 982.25,-32 982.25,-1 688,-1"/>
<text xml:space="preserve" text-anchor="start" x="832.88" y="-12.75" font-family="Helvetica,sans-Serif" font-size="14.00">&#45;</text>
<polygon fill="none" stroke="#5b6b73" points="982.25,-1 982.25,-32 1178.25,-32 1178.25,-1 982.25,-1"/>
<text xml:space="preserve" text-anchor="start" x="1003.75" y="-12.75" font-family="Helvetica,sans-Serif" font-size="14.00">continues with parent=init</text>
<polygon fill="none" stroke="#5b6b73" points="0,0 0,-157 1179.25,-157 1179.25,0 0,0"/>
</g>
</g>
</svg>
