<?xml version="1.0" encoding="UTF-8" standalone="no"?>
<!DOCTYPE svg PUBLIC "-//W3C//DTD SVG 1.1//EN"
 "http://www.w3.org/Graphics/SVG/1.1/DTD/svg11.dtd">
<!-- Generated by graphviz version 14.1.3 (20260303.0454)
 -->
<!-- Title: G Pages: 1 -->
<svg width="1020pt" height="248pt"
 viewBox="0.00 0.00 1020.00 248.00" xmlns="http://www.w3.org/2000/svg" xmlns:xlink="http://www.w3.org/1999/xlink">
<g id="graph0" class="graph" transform="scale(1 1) rotate(0) translate(14.4 233.4)">
<title>G</title>
<polygon fill="white" stroke="none" points="-14.4,14.4 -14.4,-233.4 1005.15,-233.4 1005.15,14.4 -14.4,14.4"/>
<!-- trace -->
<g id="node1" class="node">
<title>trace</title>
<polygon fill="#f5f5f5" stroke="none" points="1,-187 1,-218 118.25,-218 118.25,-187 1,-187"/>
<polygon fill="none" stroke="#5b6b73" points="1,-187 1,-218 118.25,-218 118.25,-187 1,-187"/>
<text xml:space="preserve" text-anchor="start" x="39.75" y="-197.7" font-family="Helvetica,sans-Serif" font-weight="bold" font-size="14.00">Phase</text>
<polygon fill="#f5f5f5" stroke="none" points="118.25,-187 118.25,-218 425.25,-218 425.25,-187 118.25,-187"/>
<polygon fill="none" stroke="#5b6b73" points="118.25,-187 118.25,-218 425.25,-218 425.25,-187 118.25,-187"/>
<text xml:space="preserve" text-anchor="start" x="228.62" y="-197.7" font-family="Helvetica,sans-Serif" font-weight="bold" font-size="14.00">Shell (parent)</text>
<polygon fill="#f5f5f5" stroke="none" points="425.25,-187 425.25,-218 715,-218 715,-187 425.25,-187"/>
<polygon fill="none" stroke="#5b6b73" points="425.25,-187 425.25,-218 715,-218 715,-187 425.25,-187"/>
<text xml:space="preserve" text-anchor="start" x="504.5" y="-197.7" font-family="Helvetica,sans-Serif" font-weight="bold" font-size="14.00">Left child (producer)</text>
<polygon fill="#f5f5f5" stroke="none" points="715,-187 715,-218 989.75,-218 989.75,-187 715,-187"/>
<polygon fill="none" stroke="#5b6b73" points="715,-187 715,-218 989.75,-218 989.75,-187 715,-187"/>
<text xml:space="preserve" text-anchor="start" x="778.5" y="-197.7" font-family="Helvetica,sans-Serif" font-weight="bold" font-size="14.00">Right child (consumer)</text>
<polygon fill="#e6f3f9" stroke="none" points="1,-156 1,-187 118.25,-187 118.25,-156 1,-156"/>
<polygon fill="none" stroke="#5b6b73" points="1,-156 1,-187 118.25,-187 118.25,-156 1,-156"/>
<text xml:space="preserve" text-anchor="start" x="12.38" y="-166.7" font-family="Helvetica,sans-Serif" font-weight="bold" font-size="14.00">Create conduit</text>
<polygon fill="none" stroke="#5b6b73" points="118.25,-156 118.25,-187 425.25,-187 425.25,-156 118.25,-156"/>
<text xml:space="preserve" text-anchor="start" x="126.25" y="-167.75" font-family="Helvetica,sans-Serif" font-size="14.00">`pipe(r,w)` creates read end `r` and write end `w`</text>
<polygon fill="none" stroke="#5b6b73" points="425.25,-156 425.25,-187 715,-187 715,-156 425.25,-156"/>
<text xml:space="preserve" text-anchor="start" x="567.88" y="-167.75" font-family="Helvetica,sans-Serif" font-size="14.00">&#45;</text>
<polygon fill="none" stroke="#5b6b73" points="715,-156 715,-187 989.75,-187 989.75,-156 715,-156"/>
<text xml:space="preserve" text-anchor="start" x="850.12" y="-167.75" font-family="Helvetica,sans-Serif" font-size="14.00">&#45;</text>
<polygon fill="#e6f3f9" stroke="none" points="1,-125 1,-156 118.25,-156 118.25,-125 1,-125"/>
<polygon fill="none" stroke="#5b6b73" points="1,-125 1,-156 118.25,-156 118.25,-125 1,-125"/>
<text xml:space="preserve" text-anchor="start" x="45" y="-135.7" font-family="Helvetica,sans-Serif" font-weight="bold" font-size="14.00">Fork</text>
<polygon fill="none" stroke="#5b6b73" points="118.25,-125 118.25,-156 425.25,-156 425.25,-125 118.25,-125"/>
<text xml:space="preserve" text-anchor="start" x="168.25" y="-136.75" font-family="Helvetica,sans-Serif" font-size="14.00">`fork()` twice to create two children</text>
<polygon fill="none" stroke="#5b6b73" points="425.25,-125 425.25,-156 715,-156 715,-125 425.25,-125"/>
<text xml:space="preserve" text-anchor="start" x="533" y="-136.75" font-family="Helvetica,sans-Serif" font-size="14.00">inherits `r,w`</text>
<polygon fill="none" stroke="#5b6b73" points="715,-125 715,-156 989.75,-156 989.75,-125 715,-125"/>
<text xml:space="preserve" text-anchor="start" x="815.25" y="-136.75" font-family="Helvetica,sans-Serif" font-size="14.00">inherits `r,w`</text>
<polygon fill="#e6f3f9" stroke="none" points="1,-94 1,-125 118.25,-125 118.25,-94 1,-94"/>
<polygon fill="none" stroke="#5b6b73" points="1,-94 1,-125 118.25,-125 118.25,-94 1,-94"/>
<text xml:space="preserve" text-anchor="start" x="9" y="-104.7" font-family="Helvetica,sans-Serif" font-weight="bold" font-size="14.00">Rewire streams</text>
<polygon fill="none" stroke="#5b6b73" points="118.25,-94 118.25,-125 425.25,-125 425.25,-94 118.25,-94"/>
<text xml:space="preserve" text-anchor="start" x="269.5" y="-105.75" font-family="Helvetica,sans-Serif" font-size="14.00">&#45;</text>
<polygon fill="none" stroke="#5b6b73" points="425.25,-94 425.25,-125 715,-125 715,-94 425.25,-94"/>
<text xml:space="preserve" text-anchor="start" x="433.25" y="-105.75" font-family="Helvetica,sans-Serif" font-size="14.00">`dup2(w, 1)` so stdout points to pipe write end</text>
<polygon fill="none" stroke="#5b6b73" points="715,-94 715,-125 989.75,-125 989.75,-94 715,-94"/>
<text xml:space="preserve" text-anchor="start" x="723" y="-105.75" font-family="Helvetica,sans-Serif" font-size="14.00">`dup2(r, 0)` so stdin points to pipe read end</text>
<polygon fill="#e6f3f9" stroke="none" points="1,-63 1,-94 118.25,-94 118.25,-63 1,-63"/>
<polygon fill="none" stroke="#5b6b73" points="1,-63 1,-94 118.25,-94 118.25,-63 1,-63"/>
<text xml:space="preserve" text-anchor="start" x="19.5" y="-73.7" font-family="Helvetica,sans-Serif" font-weight="bold" font-size="14.00">Close extras</text>
<polygon fill="none" stroke="#5b6b73" points="118.25,-63 118.25,-94 425.25,-94 425.25,-63 118.25,-63"/>
<text xml:space="preserve" text-anchor="start" x="199.75" y="-74.75" font-family="Helvetica,sans-Serif" font-size="14.00">closes its copies of `r,w`</text>
<polygon fill="none" stroke="#5b6b73" points="425.25,-63 425.25,-94 715,-94 715,-63 425.25,-63"/>
<text xml:space="preserve" text-anchor="start" x="494.38" y="-74.75" font-family="Helvetica,sans-Serif" font-size="14.00">closes `r` and original `w`</text>
<polygon fill="none" stroke="#5b6b73" points="715,-63 715,-94 989.75,-94 989.75,-63 715,-63"/>
<text xml:space="preserve" text-anchor="start" x="776.62" y="-74.75" font-family="Helvetica,sans-Serif" font-size="14.00">closes `w` and original `r`</text>
<polygon fill="#e6f3f9" stroke="none" points="1,-32 1,-63 118.25,-63 118.25,-32 1,-32"/>
<polygon fill="none" stroke="#5b6b73" points="1,-32 1,-63 118.25,-63 118.25,-32 1,-32"/>
<text xml:space="preserve" text-anchor="start" x="43.88" y="-42.7" font-family="Helvetica,sans-Serif" font-weight="bold" font-size="14.00">Exec</text>
<polygon fill="none" stroke="#5b6b73" points="118.25,-32 118.25,-63 425.25,-63 425.25,-32 118.25,-32"/>
<text xml:space="preserve" text-anchor="start" x="269.5" y="-43.75" font-family="Helvetica,sans-Serif" font-size="14.00">&#45;</text>
<polygon fill="none" stroke="#5b6b73" points="425.25,-32 425.25,-63 715,-63 715,-32 425.25,-32"/>
<text xml:space="preserve" text-anchor="start" x="488.38" y="-43.75" font-family="Helvetica,sans-Serif" font-size="14.00">`exec(\&quot;ls\&quot;)` (writes to fd 1)</text>
<polygon fill="none" stroke="#5b6b73" points="715,-32 715,-63 989.75,-63 989.75,-32 715,-32"/>
<text xml:space="preserve" text-anchor="start" x="754.12" y="-43.75" font-family="Helvetica,sans-Serif" font-size="14.00">`exec(\&quot;wc &#45;l\&quot;)` (reads from fd 0)</text>
<polygon fill="#e6f3f9" stroke="none" points="1,-1 1,-32 118.25,-32 118.25,-1 1,-1"/>
<polygon fill="none" stroke="#5b6b73" points="1,-1 1,-32 118.25,-32 118.25,-1 1,-1"/>
<text xml:space="preserve" text-anchor="start" x="31.12" y="-11.7" font-family="Helvetica,sans-Serif" font-weight="bold" font-size="14.00">EOF rule</text>
<polygon fill="none" stroke="#5b6b73" points="118.25,-1 118.25,-32 989.75,-32 989.75,-1 118.25,-1"/>
<text xml:space="preserve" text-anchor="start" x="214.25" y="-12.75" font-family="Helvetica,sans-Serif" font-size="14.00">reader sees EOF only after all write ends are closed; forgetting a `close(w)` can make the consumer block forever</text>
<polygon fill="none" stroke="#5b6b73" points="0,0 0,-219 990.75,-219 990.75,0 0,0"/>
</g>
</g>
</svg>
