<?xml version="1.0" encoding="UTF-8" standalone="no"?>
<!DOCTYPE svg PUBLIC "-//W3C//DTD SVG 1.1//EN"
 "http://www.w3.org/Graphics/SVG/1.1/DTD/svg11.dtd">
<!-- Generated by graphviz version 14.1.3 (20260303.0454)
 -->
<!-- Title: G Pages: 1 -->
<svg width="1120pt" height="466pt"
 viewBox="0.00 0.00 1120.00 466.00" xmlns="http://www.w3.org/2000/svg" xmlns:xlink="http://www.w3.org/1999/xlink">
<g id="graph0" class="graph" transform="scale(1 1) rotate(0) translate(18 448)">
<title>G</title>
<polygon fill="white" stroke="none" points="-18,18 -18,-448 1102,-448 1102,18 -18,18"/>
<g id="clust1" class="cluster">
<title>cluster_cpu</title>
<path fill="#eaf6fb" stroke="#9ec9da" d="M924,-265C924,-265 1064,-265 1064,-265 1070,-265 1076,-271 1076,-277 1076,-277 1076,-410 1076,-410 1076,-416 1070,-422 1064,-422 1064,-422 924,-422 924,-422 918,-422 912,-416 912,-410 912,-410 912,-277 912,-277 912,-271 918,-265 924,-265"/>
<text xml:space="preserve" text-anchor="middle" x="994" y="-404.7" font-family="Times,serif" font-size="14.00">CPU (live execution)</text>
</g>
<g id="clust2" class="cluster">
<title>cluster_kernel</title>
<path fill="#eaf6fb" stroke="#9ec9da" d="M20,-173C20,-173 737.12,-173 737.12,-173 743.12,-173 749.12,-179 749.12,-185 749.12,-185 749.12,-396 749.12,-396 749.12,-402 743.12,-408 737.12,-408 737.12,-408 20,-408 20,-408 14,-408 8,-402 8,-396 8,-396 8,-185 8,-185 8,-179 14,-173 20,-173"/>
<text xml:space="preserve" text-anchor="middle" x="378.56" y="-390.7" font-family="Times,serif" font-size="14.00">kernel memory (authoritative records)</text>
</g>
<g id="clust3" class="cluster">
<title>cluster_user</title>
<path fill="#ffffff" stroke="#d0d0d0" d="M567.75,-8C567.75,-8 763.75,-8 763.75,-8 769.75,-8 775.75,-14 775.75,-20 775.75,-20 775.75,-153 775.75,-153 775.75,-159 769.75,-165 763.75,-165 763.75,-165 567.75,-165 567.75,-165 561.75,-165 555.75,-159 555.75,-153 555.75,-153 555.75,-20 555.75,-20 555.75,-14 561.75,-8 567.75,-8"/>
<text xml:space="preserve" text-anchor="middle" x="665.75" y="-147.7" font-family="Times,serif" font-size="14.00">user memory (process address space)</text>
</g>
<!-- regs -->
<g id="node1" class="node">
<title>regs</title>
<path fill="#bfe2f1" stroke="#5b6b73" d="M1056,-311C1056,-311 932,-311 932,-311 926,-311 920,-305 920,-299 920,-299 920,-285 920,-285 920,-279 926,-273 932,-273 932,-273 1056,-273 1056,-273 1062,-273 1068,-279 1068,-285 1068,-285 1068,-299 1068,-299 1068,-305 1062,-311 1056,-311"/>
<text xml:space="preserve" text-anchor="middle" x="994" y="-293.7" font-family="Helvetica,sans-Serif" font-size="14.00" fill="#233238">registers</text>
<text xml:space="preserve" text-anchor="middle" x="994" y="-278.7" font-family="Helvetica,sans-Serif" font-size="14.00" fill="#233238">(PC, SP, flags, GPRs)</text>
</g>
<!-- tf -->
<g id="node5" class="node">
<title>tf</title>
<path fill="#f7e9c5" stroke="#5b6b73" d="M729.12,-297C729.12,-297 601.38,-297 601.38,-297 595.38,-297 589.38,-291 589.38,-285 589.38,-285 589.38,-271 589.38,-271 589.38,-265 595.38,-259 601.38,-259 601.38,-259 729.12,-259 729.12,-259 735.12,-259 741.12,-265 741.12,-271 741.12,-271 741.12,-285 741.12,-285 741.12,-291 735.12,-297 729.12,-297"/>
<text xml:space="preserve" text-anchor="middle" x="665.25" y="-279.7" font-family="Helvetica,sans-Serif" font-size="14.00" fill="#233238">trap frame</text>
<text xml:space="preserve" text-anchor="middle" x="665.25" y="-264.7" font-family="Helvetica,sans-Serif" font-size="14.00" fill="#233238">(saved CPU snapshot)</text>
</g>
<!-- regs&#45;&gt;tf -->
<g id="edge1" class="edge">
<title>regs&#45;&gt;tf</title>
<path fill="none" stroke="#5b6b73" stroke-width="1.05" d="M919.69,-288.86C869.54,-286.71 802.91,-283.86 750.56,-281.61"/>
<polygon fill="#5b6b73" stroke="#5b6b73" stroke-width="1.05" points="750.82,-279 743.21,-281.3 750.59,-284.24 750.82,-279"/>
<text xml:space="preserve" text-anchor="middle" x="843.88" y="-288.62" font-family="Helvetica,sans-Serif" font-size="11.00">saved on entry</text>
</g>
<!-- mode -->
<g id="node2" class="node">
<title>mode</title>
<path fill="#ddeaf1" stroke="#5b6b73" d="M1034.25,-389C1034.25,-389 953.75,-389 953.75,-389 947.75,-389 941.75,-383 941.75,-377 941.75,-377 941.75,-363 941.75,-363 941.75,-357 947.75,-351 953.75,-351 953.75,-351 1034.25,-351 1034.25,-351 1040.25,-351 1046.25,-357 1046.25,-363 1046.25,-363 1046.25,-377 1046.25,-377 1046.25,-383 1040.25,-389 1034.25,-389"/>
<text xml:space="preserve" text-anchor="middle" x="994" y="-371.7" font-family="Helvetica,sans-Serif" font-size="14.00" fill="#233238">privilege mode</text>
<text xml:space="preserve" text-anchor="middle" x="994" y="-356.7" font-family="Helvetica,sans-Serif" font-size="14.00" fill="#233238">(user/kernel)</text>
</g>
<!-- pcb -->
<g id="node3" class="node">
<title>pcb</title>
<path fill="#d5edf7" stroke="#5b6b73" d="M130.25,-304.5C130.25,-304.5 28,-304.5 28,-304.5 22,-304.5 16,-298.5 16,-292.5 16,-292.5 16,-263.5 16,-263.5 16,-257.5 22,-251.5 28,-251.5 28,-251.5 130.25,-251.5 130.25,-251.5 136.25,-251.5 142.25,-257.5 142.25,-263.5 142.25,-263.5 142.25,-292.5 142.25,-292.5 142.25,-298.5 136.25,-304.5 130.25,-304.5"/>
<text xml:space="preserve" text-anchor="middle" x="79.12" y="-287.2" font-family="Helvetica,sans-Serif" font-size="14.00" fill="#233238">PCB / task record</text>
<text xml:space="preserve" text-anchor="middle" x="79.12" y="-272.2" font-family="Helvetica,sans-Serif" font-size="14.00" fill="#233238">PID, state, priority,</text>
<text xml:space="preserve" text-anchor="middle" x="79.12" y="-257.2" font-family="Helvetica,sans-Serif" font-size="14.00" fill="#233238">links to resources</text>
</g>
<!-- kstack -->
<g id="node4" class="node">
<title>kstack</title>
<path fill="#ddeaf1" stroke="#5b6b73" d="M384,-297C384,-297 274.25,-297 274.25,-297 268.25,-297 262.25,-291 262.25,-285 262.25,-285 262.25,-271 262.25,-271 262.25,-265 268.25,-259 274.25,-259 274.25,-259 384,-259 384,-259 390,-259 396,-265 396,-271 396,-271 396,-285 396,-285 396,-291 390,-297 384,-297"/>
<text xml:space="preserve" text-anchor="middle" x="329.12" y="-279.7" font-family="Helvetica,sans-Serif" font-size="14.00" fill="#233238">kernel stack</text>
<text xml:space="preserve" text-anchor="middle" x="329.12" y="-264.7" font-family="Helvetica,sans-Serif" font-size="14.00" fill="#233238">(per thread/context)</text>
</g>
<!-- pcb&#45;&gt;kstack -->
<g id="edge3" class="edge">
<title>pcb&#45;&gt;kstack</title>
<path fill="none" stroke="#5b6b73" stroke-width="1.05" d="M142.71,-278C176.31,-278 217.95,-278 253.26,-278"/>
<polygon fill="#5b6b73" stroke="#5b6b73" stroke-width="1.05" points="253,-280.63 260.5,-278 253,-275.38 253,-280.63"/>
<text xml:space="preserve" text-anchor="middle" x="200.75" y="-279.55" font-family="Helvetica,sans-Serif" font-size="11.00">points to</text>
</g>
<!-- mmu -->
<g id="node6" class="node">
<title>mmu</title>
<path fill="#ddeaf1" stroke="#5b6b73" d="M383.62,-219C383.62,-219 274.62,-219 274.62,-219 268.62,-219 262.62,-213 262.62,-207 262.62,-207 262.62,-193 262.62,-193 262.62,-187 268.62,-181 274.62,-181 274.62,-181 383.62,-181 383.62,-181 389.62,-181 395.62,-187 395.62,-193 395.62,-193 395.62,-207 395.62,-207 395.62,-213 389.62,-219 383.62,-219"/>
<text xml:space="preserve" text-anchor="middle" x="329.12" y="-201.7" font-family="Helvetica,sans-Serif" font-size="14.00" fill="#233238">address space root</text>
<text xml:space="preserve" text-anchor="middle" x="329.12" y="-186.7" font-family="Helvetica,sans-Serif" font-size="14.00" fill="#233238">(page table pointer)</text>
</g>
<!-- pcb&#45;&gt;mmu -->
<g id="edge5" class="edge">
<title>pcb&#45;&gt;mmu</title>
<path fill="none" stroke="#5b6b73" stroke-width="1.05" d="M142.71,-258.32C177.78,-247.29 221.62,-233.5 257.86,-222.1"/>
<polygon fill="#5b6b73" stroke="#5b6b73" stroke-width="1.05" points="258.54,-224.64 264.91,-219.88 256.97,-219.63 258.54,-224.64"/>
<text xml:space="preserve" text-anchor="middle" x="200.75" y="-247.54" font-family="Helvetica,sans-Serif" font-size="11.00">selects</text>
</g>
<!-- fdt -->
<g id="node7" class="node">
<title>fdt</title>
<path fill="#f5f5f5" stroke="#5b6b73" d="M387,-375C387,-375 271.25,-375 271.25,-375 265.25,-375 259.25,-369 259.25,-363 259.25,-363 259.25,-349 259.25,-349 259.25,-343 265.25,-337 271.25,-337 271.25,-337 387,-337 387,-337 393,-337 399,-343 399,-349 399,-349 399,-363 399,-363 399,-369 393,-375 387,-375"/>
<text xml:space="preserve" text-anchor="middle" x="329.12" y="-357.7" font-family="Helvetica,sans-Serif" font-size="14.00" fill="#233238">open file table</text>
<text xml:space="preserve" text-anchor="middle" x="329.12" y="-342.7" font-family="Helvetica,sans-Serif" font-size="14.00" fill="#233238">(fd &#45;&gt; kernel objects)</text>
</g>
<!-- pcb&#45;&gt;fdt -->
<g id="edge6" class="edge">
<title>pcb&#45;&gt;fdt</title>
<path fill="none" stroke="#5b6b73" stroke-width="1.05" d="M142.71,-297.68C177.78,-308.71 221.62,-322.5 257.86,-333.9"/>
<polygon fill="#5b6b73" stroke="#5b6b73" stroke-width="1.05" points="256.97,-336.37 264.91,-336.12 258.54,-331.36 256.97,-336.37"/>
<text xml:space="preserve" text-anchor="middle" x="200.75" y="-323.22" font-family="Helvetica,sans-Serif" font-size="11.00">references</text>
</g>
<!-- kstack&#45;&gt;tf -->
<g id="edge4" class="edge">
<title>kstack&#45;&gt;tf</title>
<path fill="none" stroke="#5b6b73" stroke-width="1.05" d="M396.14,-278C448.85,-278 523.06,-278 580.05,-278"/>
<polygon fill="#5b6b73" stroke="#5b6b73" stroke-width="1.05" points="579.96,-280.63 587.46,-278 579.96,-275.38 579.96,-280.63"/>
<text xml:space="preserve" text-anchor="middle" x="477.38" y="-291.55" font-family="Helvetica,sans-Serif" font-size="11.00">contains</text>
<text xml:space="preserve" text-anchor="middle" x="477.38" y="-279.55" font-family="Helvetica,sans-Serif" font-size="11.00">(on entry path)</text>
</g>
<!-- tf&#45;&gt;regs -->
<g id="edge2" class="edge">
<title>tf&#45;&gt;regs</title>
<path fill="none" stroke="#5b6b73" stroke-width="1.05" d="M741.6,-264.73C784.39,-259.15 838.85,-255.32 887,-262 900.05,-263.81 913.76,-266.82 926.82,-270.25"/>
<polygon fill="#5b6b73" stroke="#5b6b73" stroke-width="1.05" points="925.84,-272.71 933.77,-272.14 927.22,-267.64 925.84,-272.71"/>
<text xml:space="preserve" text-anchor="middle" x="843.88" y="-263.55" font-family="Helvetica,sans-Serif" font-size="11.00">restored on return</text>
</g>
<!-- ustack -->
<g id="node8" class="node">
<title>ustack</title>
<path fill="#f5f5f5" stroke="#5b6b73" d="M698.75,-132C698.75,-132 631.75,-132 631.75,-132 625.75,-132 619.75,-126 619.75,-120 619.75,-120 619.75,-106 619.75,-106 619.75,-100 625.75,-94 631.75,-94 631.75,-94 698.75,-94 698.75,-94 704.75,-94 710.75,-100 710.75,-106 710.75,-106 710.75,-120 710.75,-120 710.75,-126 704.75,-132 698.75,-132"/>
<text xml:space="preserve" text-anchor="middle" x="665.25" y="-114.7" font-family="Helvetica,sans-Serif" font-size="14.00" fill="#233238">user stack</text>
<text xml:space="preserve" text-anchor="middle" x="665.25" y="-99.7" font-family="Helvetica,sans-Serif" font-size="14.00" fill="#233238">(call frames)</text>
</g>
<!-- mmu&#45;&gt;ustack -->
<g id="edge7" class="edge">
<title>mmu&#45;&gt;ustack</title>
<path fill="none" stroke="#5b6b73" stroke-width="1.05" stroke-dasharray="5,2" d="M395.74,-182.92C458.65,-166.54 552.44,-142.11 610.89,-126.89"/>
<polygon fill="#5b6b73" stroke="#5b6b73" stroke-width="1.05" points="611.47,-129.45 618.07,-125.02 610.15,-124.37 611.47,-129.45"/>
<text xml:space="preserve" text-anchor="middle" x="477.38" y="-185.41" font-family="Helvetica,sans-Serif" font-size="11.00">defines meaning of</text>
<text xml:space="preserve" text-anchor="middle" x="477.38" y="-173.41" font-family="Helvetica,sans-Serif" font-size="11.00">virtual addresses</text>
</g>
<!-- heap -->
<g id="node9" class="node">
<title>heap</title>
<path fill="#f5f5f5" stroke="#5b6b73" d="M715.25,-54C715.25,-54 615.25,-54 615.25,-54 609.25,-54 603.25,-48 603.25,-42 603.25,-42 603.25,-28 603.25,-28 603.25,-22 609.25,-16 615.25,-16 615.25,-16 715.25,-16 715.25,-16 721.25,-16 727.25,-22 727.25,-28 727.25,-28 727.25,-42 727.25,-42 727.25,-48 721.25,-54 715.25,-54"/>
<text xml:space="preserve" text-anchor="middle" x="665.25" y="-36.7" font-family="Helvetica,sans-Serif" font-size="14.00" fill="#233238">heap / data / code</text>
<text xml:space="preserve" text-anchor="middle" x="665.25" y="-21.7" font-family="Helvetica,sans-Serif" font-size="14.00" fill="#233238">(mapped pages)</text>
</g>
<!-- mmu&#45;&gt;heap -->
<g id="edge8" class="edge">
<title>mmu&#45;&gt;heap</title>
<path fill="none" stroke="#5b6b73" stroke-width="1.05" stroke-dasharray="5,2" d="M360.61,-180.67C403.15,-154.25 483.26,-106.43 555.75,-74 568.76,-68.18 582.93,-62.58 596.61,-57.53"/>
<polygon fill="#5b6b73" stroke="#5b6b73" stroke-width="1.05" points="597.4,-60.03 603.55,-55 595.61,-55.1 597.4,-60.03"/>
</g>
</g>
</svg>
