<?xml version="1.0" encoding="UTF-8" standalone="no"?>
<!DOCTYPE svg PUBLIC "-//W3C//DTD SVG 1.1//EN"
 "http://www.w3.org/Graphics/SVG/1.1/DTD/svg11.dtd">
<!-- Generated by graphviz version 14.1.3 (20260303.0454)
 -->
<!-- Title: G Pages: 1 -->
<svg width="828pt" height="356pt"
 viewBox="0.00 0.00 828.00 356.00" xmlns="http://www.w3.org/2000/svg" xmlns:xlink="http://www.w3.org/1999/xlink">
<g id="graph0" class="graph" transform="scale(1 1) rotate(0) translate(18 338)">
<title>G</title>
<polygon fill="white" stroke="none" points="-18,18 -18,-338 809.5,-338 809.5,18 -18,18"/>
<g id="clust1" class="cluster">
<title>cluster_before</title>
<path fill="#eaf6fb" stroke="#9ec9da" d="M20,-54C20,-54 454,-54 454,-54 460,-54 466,-60 466,-66 466,-66 466,-135 466,-135 466,-141 460,-147 454,-147 454,-147 20,-147 20,-147 14,-147 8,-141 8,-135 8,-135 8,-66 8,-66 8,-60 14,-54 20,-54"/>
<text xml:space="preserve" text-anchor="middle" x="237" y="-129.7" font-family="Times,serif" font-size="14.00">before fork</text>
</g>
<g id="clust2" class="cluster">
<title>cluster_after</title>
<path fill="#eaf6fb" stroke="#9ec9da" d="M20,-155C20,-155 771.5,-155 771.5,-155 777.5,-155 783.5,-161 783.5,-167 783.5,-167 783.5,-300 783.5,-300 783.5,-306 777.5,-312 771.5,-312 771.5,-312 20,-312 20,-312 14,-312 8,-306 8,-300 8,-300 8,-167 8,-167 8,-161 14,-155 20,-155"/>
<text xml:space="preserve" text-anchor="middle" x="395.75" y="-294.7" font-family="Times,serif" font-size="14.00">after fork (copy&#45;on&#45;write)</text>
</g>
<!-- p_as -->
<g id="node1" class="node">
<title>p_as</title>
<path fill="#bfe2f1" stroke="#5b6b73" d="M149.75,-107C149.75,-107 28,-107 28,-107 22,-107 16,-101 16,-95 16,-95 16,-81 16,-81 16,-75 22,-69 28,-69 28,-69 149.75,-69 149.75,-69 155.75,-69 161.75,-75 161.75,-81 161.75,-81 161.75,-95 161.75,-95 161.75,-101 155.75,-107 149.75,-107"/>
<text xml:space="preserve" text-anchor="middle" x="88.88" y="-89.7" font-family="Helvetica,sans-Serif" font-size="14.00" fill="#233238">parent address space</text>
<text xml:space="preserve" text-anchor="middle" x="88.88" y="-74.7" font-family="Helvetica,sans-Serif" font-size="14.00" fill="#233238">(virtual pages)</text>
</g>
<!-- p_phys -->
<g id="node2" class="node">
<title>p_phys</title>
<path fill="#ddeaf1" stroke="#5b6b73" d="M446,-114C446,-114 359.5,-114 359.5,-114 353.5,-114 347.5,-108 347.5,-102 347.5,-102 347.5,-88 347.5,-88 347.5,-82 353.5,-76 359.5,-76 359.5,-76 446,-76 446,-76 452,-76 458,-82 458,-88 458,-88 458,-102 458,-102 458,-108 452,-114 446,-114"/>
<text xml:space="preserve" text-anchor="middle" x="402.75" y="-96.7" font-family="Helvetica,sans-Serif" font-size="14.00" fill="#233238">physical frames</text>
<text xml:space="preserve" text-anchor="middle" x="402.75" y="-81.7" font-family="Helvetica,sans-Serif" font-size="14.00" fill="#233238">F1 F2 F3</text>
</g>
<!-- p_as&#45;&gt;p_phys -->
<g id="edge1" class="edge">
<title>p_as&#45;&gt;p_phys</title>
<path fill="none" stroke="#5b6b73" stroke-width="1.05" d="M162.21,-89.62C215.51,-90.82 287.32,-92.43 338.37,-93.58"/>
<polygon fill="#5b6b73" stroke="#5b6b73" stroke-width="1.05" points="338.19,-96.2 345.75,-93.74 338.31,-90.95 338.19,-96.2"/>
<text xml:space="preserve" text-anchor="middle" x="243.38" y="-94.09" font-family="Helvetica,sans-Serif" font-size="11.00">mapped R/W</text>
</g>
<!-- arrow -->
<g id="node7" class="node">
<title>arrow</title>
<polygon fill="#ffffff" stroke="#9aa7ae" points="423.75,-36 375.75,-36 375.75,0 429.75,0 429.75,-30 423.75,-36"/>
<polyline fill="none" stroke="#9aa7ae" points="423.75,-36 423.75,-30"/>
<polyline fill="none" stroke="#9aa7ae" points="429.75,-30 423.75,-30"/>
<text xml:space="preserve" text-anchor="middle" x="402.75" y="-12.2" font-family="Helvetica,sans-Serif" font-size="14.00" fill="#233238">fork</text>
</g>
<!-- p_as&#45;&gt;arrow -->
<!-- c_as -->
<g id="node3" class="node">
<title>c_as</title>
<path fill="#bfe2f1" stroke="#5b6b73" d="M146,-201C146,-201 31.75,-201 31.75,-201 25.75,-201 19.75,-195 19.75,-189 19.75,-189 19.75,-175 19.75,-175 19.75,-169 25.75,-163 31.75,-163 31.75,-163 146,-163 146,-163 152,-163 158,-169 158,-175 158,-175 158,-189 158,-189 158,-195 152,-201 146,-201"/>
<text xml:space="preserve" text-anchor="middle" x="88.88" y="-183.7" font-family="Helvetica,sans-Serif" font-size="14.00" fill="#233238">child address space</text>
<text xml:space="preserve" text-anchor="middle" x="88.88" y="-168.7" font-family="Helvetica,sans-Serif" font-size="14.00" fill="#233238">(same virtual layout)</text>
</g>
<!-- shared -->
<g id="node4" class="node">
<title>shared</title>
<path fill="#f7e9c5" stroke="#5b6b73" d="M468.5,-250.5C468.5,-250.5 337,-250.5 337,-250.5 331,-250.5 325,-244.5 325,-238.5 325,-238.5 325,-209.5 325,-209.5 325,-203.5 331,-197.5 337,-197.5 337,-197.5 468.5,-197.5 468.5,-197.5 474.5,-197.5 480.5,-203.5 480.5,-209.5 480.5,-209.5 480.5,-238.5 480.5,-238.5 480.5,-244.5 474.5,-250.5 468.5,-250.5"/>
<text xml:space="preserve" text-anchor="middle" x="402.75" y="-233.2" font-family="Helvetica,sans-Serif" font-size="14.00" fill="#233238">shared physical frames</text>
<text xml:space="preserve" text-anchor="middle" x="402.75" y="-218.2" font-family="Helvetica,sans-Serif" font-size="14.00" fill="#233238">F1 F2 F3</text>
<text xml:space="preserve" text-anchor="middle" x="402.75" y="-203.2" font-family="Helvetica,sans-Serif" font-size="14.00" fill="#233238">(marked read&#45;only)</text>
</g>
<!-- c_as&#45;&gt;shared -->
<g id="edge3" class="edge">
<title>c_as&#45;&gt;shared</title>
<path fill="none" stroke="#5b6b73" stroke-width="1.05" d="M158.32,-191.22C204.66,-197.46 266.26,-205.75 315.89,-212.44"/>
<polygon fill="#5b6b73" stroke="#5b6b73" stroke-width="1.05" points="315.34,-215.01 323.12,-213.41 316.04,-209.81 315.34,-215.01"/>
<text xml:space="preserve" text-anchor="middle" x="243.38" y="-210.77" font-family="Helvetica,sans-Serif" font-size="11.00">mapped R/O + COW</text>
</g>
<!-- fault -->
<g id="node6" class="node">
<title>fault</title>
<polygon fill="#ffffff" stroke="#9aa7ae" points="769.5,-258 543.5,-258 543.5,-190 775.5,-190 775.5,-252 769.5,-258"/>
<polyline fill="none" stroke="#9aa7ae" points="769.5,-258 769.5,-252"/>
<polyline fill="none" stroke="#9aa7ae" points="775.5,-252 769.5,-252"/>
<text xml:space="preserve" text-anchor="middle" x="659.5" y="-240.7" font-family="Helvetica,sans-Serif" font-size="14.00" fill="#233238">first write triggers fault:</text>
<text xml:space="preserve" text-anchor="middle" x="659.5" y="-225.7" font-family="Helvetica,sans-Serif" font-size="14.00" fill="#233238">kernel copies the page</text>
<text xml:space="preserve" text-anchor="middle" x="659.5" y="-210.7" font-family="Helvetica,sans-Serif" font-size="14.00" fill="#233238">so writer gets a private frame</text>
<text xml:space="preserve" text-anchor="middle" x="659.5" y="-195.7" font-family="Helvetica,sans-Serif" font-size="14.00" fill="#233238">(semantic independence preserved)</text>
</g>
<!-- shared&#45;&gt;fault -->
<g id="edge4" class="edge">
<title>shared&#45;&gt;fault</title>
<path fill="none" stroke="#5b6b73" stroke-width="1.05" stroke-dasharray="1,5" d="M480.87,-224C500.5,-224 522.02,-224 543.09,-224"/>
</g>
<!-- p2_as -->
<g id="node5" class="node">
<title>p2_as</title>
<path fill="#bfe2f1" stroke="#5b6b73" d="M149.75,-279C149.75,-279 28,-279 28,-279 22,-279 16,-273 16,-267 16,-267 16,-253 16,-253 16,-247 22,-241 28,-241 28,-241 149.75,-241 149.75,-241 155.75,-241 161.75,-247 161.75,-253 161.75,-253 161.75,-267 161.75,-267 161.75,-273 155.75,-279 149.75,-279"/>
<text xml:space="preserve" text-anchor="middle" x="88.88" y="-261.7" font-family="Helvetica,sans-Serif" font-size="14.00" fill="#233238">parent address space</text>
<text xml:space="preserve" text-anchor="middle" x="88.88" y="-246.7" font-family="Helvetica,sans-Serif" font-size="14.00" fill="#233238">(same virtual layout)</text>
</g>
<!-- p2_as&#45;&gt;shared -->
<g id="edge2" class="edge">
<title>p2_as&#45;&gt;shared</title>
<path fill="none" stroke="#5b6b73" stroke-width="1.05" d="M162.21,-251.65C208.03,-246.36 267.53,-239.49 315.76,-233.93"/>
<polygon fill="#5b6b73" stroke="#5b6b73" stroke-width="1.05" points="315.9,-236.55 323.05,-233.08 315.3,-231.34 315.9,-236.55"/>
<text xml:space="preserve" text-anchor="middle" x="243.38" y="-248.88" font-family="Helvetica,sans-Serif" font-size="11.00">mapped R/O + COW</text>
</g>
</g>
</svg>
