<?xml version="1.0" encoding="UTF-8" standalone="no"?>
<!DOCTYPE svg PUBLIC "-//W3C//DTD SVG 1.1//EN"
 "http://www.w3.org/Graphics/SVG/1.1/DTD/svg11.dtd">
<!-- Generated by graphviz version 14.1.3 (20260303.0454)
 -->
<!-- Title: G Pages: 1 -->
<svg width="710pt" height="186pt"
 viewBox="0.00 0.00 710.00 186.00" xmlns="http://www.w3.org/2000/svg" xmlns:xlink="http://www.w3.org/1999/xlink">
<g id="graph0" class="graph" transform="scale(1 1) rotate(0) translate(14.4 171.4)">
<title>G</title>
<polygon fill="white" stroke="none" points="-14.4,14.4 -14.4,-171.4 695.9,-171.4 695.9,14.4 -14.4,14.4"/>
<!-- sock -->
<g id="node1" class="node">
<title>sock</title>
<polygon fill="#f5f5f5" stroke="none" points="1,-125 1,-156 120.5,-156 120.5,-125 1,-125"/>
<polygon fill="none" stroke="#5b6b73" points="1,-125 1,-156 120.5,-156 120.5,-125 1,-125"/>
<text xml:space="preserve" text-anchor="start" x="33.75" y="-135.7" font-family="Helvetica,sans-Serif" font-weight="bold" font-size="14.00">Concept</text>
<polygon fill="#f5f5f5" stroke="none" points="120.5,-125 120.5,-156 342,-156 342,-125 120.5,-125"/>
<polygon fill="none" stroke="#5b6b73" points="120.5,-125 120.5,-156 342,-156 342,-125 120.5,-125"/>
<text xml:space="preserve" text-anchor="start" x="178.38" y="-135.7" font-family="Helvetica,sans-Serif" font-weight="bold" font-size="14.00">Concrete handle</text>
<polygon fill="#f5f5f5" stroke="none" points="342,-125 342,-156 680.5,-156 680.5,-125 342,-125"/>
<polygon fill="none" stroke="#5b6b73" points="342,-125 342,-156 680.5,-156 680.5,-125 342,-125"/>
<text xml:space="preserve" text-anchor="start" x="483.5" y="-135.7" font-family="Helvetica,sans-Serif" font-weight="bold" font-size="14.00">Meaning</text>
<polygon fill="#e6f3f9" stroke="none" points="1,-94 1,-125 120.5,-125 120.5,-94 1,-94"/>
<polygon fill="none" stroke="#5b6b73" points="1,-94 1,-125 120.5,-125 120.5,-94 1,-94"/>
<text xml:space="preserve" text-anchor="start" x="31.5" y="-104.7" font-family="Helvetica,sans-Serif" font-weight="bold" font-size="14.00">Endpoint</text>
<polygon fill="none" stroke="#5b6b73" points="120.5,-94 120.5,-125 342,-125 342,-94 120.5,-94"/>
<text xml:space="preserve" text-anchor="start" x="128.5" y="-105.75" font-family="Helvetica,sans-Serif" font-size="14.00">`IP:port` (e.g., `161.25.19.8:1625`)</text>
<polygon fill="none" stroke="#5b6b73" points="342,-94 342,-125 680.5,-125 680.5,-94 342,-94"/>
<text xml:space="preserve" text-anchor="start" x="405.12" y="-105.75" font-family="Helvetica,sans-Serif" font-size="14.00">names a service instance on a host</text>
<polygon fill="#e6f3f9" stroke="none" points="1,-63 1,-94 120.5,-94 120.5,-63 1,-63"/>
<polygon fill="none" stroke="#5b6b73" points="1,-63 1,-94 120.5,-94 120.5,-63 1,-63"/>
<text xml:space="preserve" text-anchor="start" x="28.88" y="-73.7" font-family="Helvetica,sans-Serif" font-weight="bold" font-size="14.00">Loopback</text>
<polygon fill="none" stroke="#5b6b73" points="120.5,-63 120.5,-94 342,-94 342,-63 120.5,-63"/>
<text xml:space="preserve" text-anchor="start" x="198.62" y="-74.75" font-family="Helvetica,sans-Serif" font-size="14.00">`127.0.0.1`</text>
<polygon fill="none" stroke="#5b6b73" points="342,-63 342,-94 680.5,-94 680.5,-63 342,-63"/>
<text xml:space="preserve" text-anchor="start" x="393.5" y="-74.75" font-family="Helvetica,sans-Serif" font-size="14.00">refers to the same machine; stays local</text>
<polygon fill="#e6f3f9" stroke="none" points="1,-32 1,-63 120.5,-63 120.5,-32 1,-32"/>
<polygon fill="none" stroke="#5b6b73" points="1,-32 1,-63 120.5,-63 120.5,-32 1,-32"/>
<text xml:space="preserve" text-anchor="start" x="9.38" y="-42.7" font-family="Helvetica,sans-Serif" font-weight="bold" font-size="14.00">Port convention</text>
<polygon fill="none" stroke="#5b6b73" points="120.5,-32 120.5,-63 342,-63 342,-32 120.5,-32"/>
<text xml:space="preserve" text-anchor="start" x="193.38" y="-43.75" font-family="Helvetica,sans-Serif" font-size="14.00">ports &lt; 1024</text>
<polygon fill="none" stroke="#5b6b73" points="342,-32 342,-63 680.5,-63 680.5,-32 342,-32"/>
<text xml:space="preserve" text-anchor="start" x="360.5" y="-43.75" font-family="Helvetica,sans-Serif" font-size="14.00">traditionally well&#45;known ports for standard services</text>
<polygon fill="#e6f3f9" stroke="none" points="1,-1 1,-32 120.5,-32 120.5,-1 1,-1"/>
<polygon fill="none" stroke="#5b6b73" points="1,-1 1,-32 120.5,-32 120.5,-1 1,-1"/>
<text xml:space="preserve" text-anchor="start" x="9" y="-11.7" font-family="Helvetica,sans-Serif" font-weight="bold" font-size="14.00">Transport flavor</text>
<polygon fill="none" stroke="#5b6b73" points="120.5,-1 120.5,-32 342,-32 342,-1 120.5,-1"/>
<text xml:space="preserve" text-anchor="start" x="155.5" y="-12.75" font-family="Helvetica,sans-Serif" font-size="14.00">TCP vs UDP vs multicast</text>
<polygon fill="none" stroke="#5b6b73" points="342,-1 342,-32 680.5,-32 680.5,-1 342,-1"/>
<text xml:space="preserve" text-anchor="start" x="350" y="-12.75" font-family="Helvetica,sans-Serif" font-size="14.00">changes ordering, connection, and delivery semantics</text>
<polygon fill="none" stroke="#5b6b73" points="0,0 0,-157 681.5,-157 681.5,0 0,0"/>
</g>
</g>
</svg>
