<?xml version="1.0" encoding="UTF-8" standalone="no"?>
<!DOCTYPE svg PUBLIC "-//W3C//DTD SVG 1.1//EN"
 "http://www.w3.org/Graphics/SVG/1.1/DTD/svg11.dtd">
<!-- Generated by graphviz version 14.1.3 (20260303.0454)
 -->
<!-- Title: G Pages: 1 -->
<svg width="988pt" height="217pt"
 viewBox="0.00 0.00 988.00 217.00" xmlns="http://www.w3.org/2000/svg" xmlns:xlink="http://www.w3.org/1999/xlink">
<g id="graph0" class="graph" transform="scale(1 1) rotate(0) translate(14.4 202.4)">
<title>G</title>
<polygon fill="white" stroke="none" points="-14.4,14.4 -14.4,-202.4 973.65,-202.4 973.65,14.4 -14.4,14.4"/>
<!-- flow -->
<g id="node1" class="node">
<title>flow</title>
<polygon fill="#f5f5f5" stroke="none" points="1,-156 1,-187 107.75,-187 107.75,-156 1,-156"/>
<polygon fill="none" stroke="#5b6b73" points="1,-156 1,-187 107.75,-187 107.75,-156 1,-156"/>
<text xml:space="preserve" text-anchor="start" x="34.5" y="-166.7" font-family="Helvetica,sans-Serif" font-weight="bold" font-size="14.00">Phase</text>
<polygon fill="#f5f5f5" stroke="none" points="107.75,-156 107.75,-187 377.25,-187 377.25,-156 107.75,-156"/>
<polygon fill="none" stroke="#5b6b73" points="107.75,-156 107.75,-187 377.25,-187 377.25,-156 107.75,-156"/>
<text xml:space="preserve" text-anchor="start" x="212.88" y="-166.7" font-family="Helvetica,sans-Serif" font-weight="bold" font-size="14.00">Producer</text>
<polygon fill="#f5f5f5" stroke="none" points="377.25,-156 377.25,-187 739,-187 739,-156 377.25,-156"/>
<polygon fill="none" stroke="#5b6b73" points="377.25,-156 377.25,-187 739,-187 739,-156 377.25,-156"/>
<text xml:space="preserve" text-anchor="start" x="521" y="-166.7" font-family="Helvetica,sans-Serif" font-weight="bold" font-size="14.00">Kernel / VM</text>
<polygon fill="#f5f5f5" stroke="none" points="739,-156 739,-187 958.25,-187 958.25,-156 739,-156"/>
<polygon fill="none" stroke="#5b6b73" points="739,-156 739,-187 958.25,-187 958.25,-156 739,-156"/>
<text xml:space="preserve" text-anchor="start" x="814.88" y="-166.7" font-family="Helvetica,sans-Serif" font-weight="bold" font-size="14.00">Consumer</text>
<polygon fill="#e6f3f9" stroke="none" points="1,-125 1,-156 107.75,-156 107.75,-125 1,-125"/>
<polygon fill="none" stroke="#5b6b73" points="1,-125 1,-156 107.75,-156 107.75,-125 1,-125"/>
<text xml:space="preserve" text-anchor="start" x="35.62" y="-135.7" font-family="Helvetica,sans-Serif" font-weight="bold" font-size="14.00">Name</text>
<polygon fill="none" stroke="#5b6b73" points="107.75,-125 107.75,-156 377.25,-156 377.25,-125 107.75,-125"/>
<text xml:space="preserve" text-anchor="start" x="115.75" y="-136.75" font-family="Helvetica,sans-Serif" font-size="14.00">`shm_open(name, O_CREAT|O_RDWR)`</text>
<polygon fill="none" stroke="#5b6b73" points="377.25,-125 377.25,-156 739,-156 739,-125 377.25,-125"/>
<text xml:space="preserve" text-anchor="start" x="431.75" y="-136.75" font-family="Helvetica,sans-Serif" font-size="14.00">creates or opens a shared object by name</text>
<polygon fill="none" stroke="#5b6b73" points="739,-125 739,-156 958.25,-156 958.25,-125 739,-125"/>
<text xml:space="preserve" text-anchor="start" x="756" y="-136.75" font-family="Helvetica,sans-Serif" font-size="14.00">`shm_open(name, O_RDWR)`</text>
<polygon fill="#e6f3f9" stroke="none" points="1,-94 1,-125 107.75,-125 107.75,-94 1,-94"/>
<polygon fill="none" stroke="#5b6b73" points="1,-94 1,-125 107.75,-125 107.75,-94 1,-94"/>
<text xml:space="preserve" text-anchor="start" x="40.88" y="-104.7" font-family="Helvetica,sans-Serif" font-weight="bold" font-size="14.00">Size</text>
<polygon fill="none" stroke="#5b6b73" points="107.75,-94 107.75,-125 377.25,-125 377.25,-94 107.75,-94"/>
<text xml:space="preserve" text-anchor="start" x="185.88" y="-105.75" font-family="Helvetica,sans-Serif" font-size="14.00">`ftruncate(fd, size)`</text>
<polygon fill="none" stroke="#5b6b73" points="377.25,-94 377.25,-125 739,-125 739,-94 377.25,-94"/>
<text xml:space="preserve" text-anchor="start" x="429.5" y="-105.75" font-family="Helvetica,sans-Serif" font-size="14.00">sets object size (backing store / VM object)</text>
<polygon fill="none" stroke="#5b6b73" points="739,-94 739,-125 958.25,-125 958.25,-94 739,-94"/>
<text xml:space="preserve" text-anchor="start" x="765" y="-105.75" font-family="Helvetica,sans-Serif" font-size="14.00">observes same sized object</text>
<polygon fill="#e6f3f9" stroke="none" points="1,-63 1,-94 107.75,-94 107.75,-63 1,-63"/>
<polygon fill="none" stroke="#5b6b73" points="1,-63 1,-94 107.75,-94 107.75,-63 1,-63"/>
<text xml:space="preserve" text-anchor="start" x="40.5" y="-73.7" font-family="Helvetica,sans-Serif" font-weight="bold" font-size="14.00">Map</text>
<polygon fill="none" stroke="#5b6b73" points="107.75,-63 107.75,-94 377.25,-94 377.25,-63 107.75,-63"/>
<text xml:space="preserve" text-anchor="start" x="140.88" y="-74.75" font-family="Helvetica,sans-Serif" font-size="14.00">`mmap(..., MAP_SHARED, fd, 0)`</text>
<polygon fill="none" stroke="#5b6b73" points="377.25,-63 377.25,-94 739,-94 739,-63 377.25,-63"/>
<text xml:space="preserve" text-anchor="start" x="405.5" y="-74.75" font-family="Helvetica,sans-Serif" font-size="14.00">installs mappings into each process address space</text>
<polygon fill="none" stroke="#5b6b73" points="739,-63 739,-94 958.25,-94 958.25,-63 739,-63"/>
<text xml:space="preserve" text-anchor="start" x="747" y="-74.75" font-family="Helvetica,sans-Serif" font-size="14.00">`mmap(..., MAP_SHARED, fd, 0)`</text>
<polygon fill="#e6f3f9" stroke="none" points="1,-32 1,-63 107.75,-63 107.75,-32 1,-32"/>
<polygon fill="none" stroke="#5b6b73" points="1,-32 1,-63 107.75,-63 107.75,-32 1,-32"/>
<text xml:space="preserve" text-anchor="start" x="9" y="-42.7" font-family="Helvetica,sans-Serif" font-weight="bold" font-size="14.00">Communicate</text>
<polygon fill="none" stroke="#5b6b73" points="107.75,-32 107.75,-63 377.25,-63 377.25,-32 107.75,-32"/>
<text xml:space="preserve" text-anchor="start" x="164.12" y="-43.75" font-family="Helvetica,sans-Serif" font-size="14.00">stores into mapped region</text>
<polygon fill="none" stroke="#5b6b73" points="377.25,-32 377.25,-63 739,-63 739,-32 377.25,-32"/>
<text xml:space="preserve" text-anchor="start" x="385.25" y="-43.75" font-family="Helvetica,sans-Serif" font-size="14.00">no per&#45;exchange syscall; coherence/VM provides visibility</text>
<polygon fill="none" stroke="#5b6b73" points="739,-32 739,-63 958.25,-63 958.25,-32 739,-32"/>
<text xml:space="preserve" text-anchor="start" x="769.5" y="-43.75" font-family="Helvetica,sans-Serif" font-size="14.00">loads from mapped region</text>
<polygon fill="#e6f3f9" stroke="none" points="1,-1 1,-32 107.75,-32 107.75,-1 1,-1"/>
<polygon fill="none" stroke="#5b6b73" points="1,-1 1,-32 107.75,-32 107.75,-1 1,-1"/>
<text xml:space="preserve" text-anchor="start" x="14.25" y="-11.7" font-family="Helvetica,sans-Serif" font-weight="bold" font-size="14.00">Synchronize</text>
<polygon fill="none" stroke="#5b6b73" points="107.75,-1 107.75,-32 377.25,-32 377.25,-1 107.75,-1"/>
<text xml:space="preserve" text-anchor="start" x="126.25" y="-12.75" font-family="Helvetica,sans-Serif" font-size="14.00">uses locks/conds/semaphores/atomics</text>
<polygon fill="none" stroke="#5b6b73" points="377.25,-1 377.25,-32 739,-32 739,-1 377.25,-1"/>
<text xml:space="preserve" text-anchor="start" x="440.75" y="-12.75" font-family="Helvetica,sans-Serif" font-size="14.00">kernel may help if using futex/sem, etc.</text>
<polygon fill="none" stroke="#5b6b73" points="739,-1 739,-32 958.25,-32 958.25,-1 739,-1"/>
<text xml:space="preserve" text-anchor="start" x="789.75" y="-12.75" font-family="Helvetica,sans-Serif" font-size="14.00">uses same protocol</text>
<polygon fill="none" stroke="#5b6b73" points="0,0 0,-188 959.25,-188 959.25,0 0,0"/>
</g>
</g>
</svg>
