<?xml version="1.0" encoding="UTF-8" standalone="no"?>
<!DOCTYPE svg PUBLIC "-//W3C//DTD SVG 1.1//EN"
 "http://www.w3.org/Graphics/SVG/1.1/DTD/svg11.dtd">
<!-- Generated by graphviz version 14.1.3 (20260303.0454)
 -->
<!-- Title: G Pages: 1 -->
<svg width="1013pt" height="186pt"
 viewBox="0.00 0.00 1013.00 186.00" xmlns="http://www.w3.org/2000/svg" xmlns:xlink="http://www.w3.org/1999/xlink">
<g id="graph0" class="graph" transform="scale(1 1) rotate(0) translate(14.4 171.4)">
<title>G</title>
<polygon fill="white" stroke="none" points="-14.4,14.4 -14.4,-171.4 998.15,-171.4 998.15,14.4 -14.4,14.4"/>
<!-- trace -->
<g id="node1" class="node">
<title>trace</title>
<polygon fill="#f5f5f5" stroke="none" points="1,-125 1,-156 72.5,-156 72.5,-125 1,-125"/>
<polygon fill="none" stroke="#5b6b73" points="1,-125 1,-156 72.5,-156 72.5,-125 1,-125"/>
<text xml:space="preserve" text-anchor="start" x="21" y="-135.7" font-family="Helvetica,sans-Serif" font-weight="bold" font-size="14.00">Lane</text>
<polygon fill="#f5f5f5" stroke="none" points="72.5,-125 72.5,-156 199.5,-156 199.5,-125 72.5,-125"/>
<polygon fill="none" stroke="#5b6b73" points="72.5,-125 72.5,-156 199.5,-156 199.5,-125 72.5,-125"/>
<text xml:space="preserve" text-anchor="start" x="100" y="-135.7" font-family="Helvetica,sans-Serif" font-weight="bold" font-size="14.00">Before fork</text>
<polygon fill="#f5f5f5" stroke="none" points="199.5,-125 199.5,-156 393.25,-156 393.25,-125 199.5,-125"/>
<polygon fill="none" stroke="#5b6b73" points="199.5,-125 199.5,-156 393.25,-156 393.25,-125 199.5,-125"/>
<text xml:space="preserve" text-anchor="start" x="253.62" y="-135.7" font-family="Helvetica,sans-Serif" font-weight="bold" font-size="14.00">fork() / create</text>
<polygon fill="#f5f5f5" stroke="none" points="393.25,-125 393.25,-156 605.75,-156 605.75,-125 393.25,-125"/>
<polygon fill="none" stroke="#5b6b73" points="393.25,-125 393.25,-156 605.75,-156 605.75,-125 393.25,-125"/>
<text xml:space="preserve" text-anchor="start" x="469.12" y="-135.7" font-family="Helvetica,sans-Serif" font-weight="bold" font-size="14.00">After fork</text>
<polygon fill="#f5f5f5" stroke="none" points="605.75,-125 605.75,-156 824.25,-156 824.25,-125 605.75,-125"/>
<polygon fill="none" stroke="#5b6b73" points="605.75,-125 605.75,-156 824.25,-156 824.25,-125 605.75,-125"/>
<text xml:space="preserve" text-anchor="start" x="662.88" y="-135.7" font-family="Helvetica,sans-Serif" font-weight="bold" font-size="14.00">exec() (optional)</text>
<polygon fill="#f5f5f5" stroke="none" points="824.25,-125 824.25,-156 982.75,-156 982.75,-125 824.25,-125"/>
<polygon fill="none" stroke="#5b6b73" points="824.25,-125 824.25,-156 982.75,-156 982.75,-125 824.25,-125"/>
<text xml:space="preserve" text-anchor="start" x="870.88" y="-135.7" font-family="Helvetica,sans-Serif" font-weight="bold" font-size="14.00">After exec</text>
<polygon fill="#e6f3f9" stroke="none" points="1,-94 1,-125 72.5,-125 72.5,-94 1,-94"/>
<polygon fill="none" stroke="#5b6b73" points="1,-94 1,-125 72.5,-125 72.5,-94 1,-94"/>
<text xml:space="preserve" text-anchor="start" x="15.75" y="-104.7" font-family="Helvetica,sans-Serif" font-weight="bold" font-size="14.00">Parent</text>
<polygon fill="none" stroke="#5b6b73" points="72.5,-94 72.5,-125 199.5,-125 199.5,-94 72.5,-94"/>
<text xml:space="preserve" text-anchor="start" x="113.5" y="-105.75" font-family="Helvetica,sans-Serif" font-size="14.00">running</text>
<polygon fill="none" stroke="#5b6b73" points="199.5,-94 199.5,-125 393.25,-125 393.25,-94 199.5,-94"/>
<text xml:space="preserve" text-anchor="start" x="228.88" y="-105.75" font-family="Helvetica,sans-Serif" font-size="14.00">requests child creation</text>
<polygon fill="none" stroke="#5b6b73" points="393.25,-94 393.25,-125 605.75,-125 605.75,-94 393.25,-94"/>
<text xml:space="preserve" text-anchor="start" x="445.5" y="-105.75" font-family="Helvetica,sans-Serif" font-size="14.00">continues or waits</text>
<polygon fill="none" stroke="#5b6b73" points="605.75,-94 605.75,-125 824.25,-125 824.25,-94 605.75,-94"/>
<text xml:space="preserve" text-anchor="start" x="681.62" y="-105.75" font-family="Helvetica,sans-Serif" font-size="14.00">unchanged</text>
<polygon fill="none" stroke="#5b6b73" points="824.25,-94 824.25,-125 982.75,-125 982.75,-94 824.25,-94"/>
<text xml:space="preserve" text-anchor="start" x="844.62" y="-105.75" font-family="Helvetica,sans-Serif" font-size="14.00">continues as parent</text>
<polygon fill="#e6f3f9" stroke="none" points="1,-63 1,-94 72.5,-94 72.5,-63 1,-63"/>
<polygon fill="none" stroke="#5b6b73" points="1,-63 1,-94 72.5,-94 72.5,-63 1,-63"/>
<text xml:space="preserve" text-anchor="start" x="15.75" y="-73.7" font-family="Helvetica,sans-Serif" font-weight="bold" font-size="14.00">Kernel</text>
<polygon fill="none" stroke="#5b6b73" points="72.5,-63 72.5,-94 199.5,-94 199.5,-63 72.5,-63"/>
<text xml:space="preserve" text-anchor="start" x="80.5" y="-74.75" font-family="Helvetica,sans-Serif" font-size="14.00">tracks parent state</text>
<polygon fill="none" stroke="#5b6b73" points="199.5,-63 199.5,-94 393.25,-94 393.25,-63 199.5,-63"/>
<text xml:space="preserve" text-anchor="start" x="209" y="-74.75" font-family="Helvetica,sans-Serif" font-size="14.00">allocates child identity + PCB</text>
<polygon fill="none" stroke="#5b6b73" points="393.25,-63 393.25,-94 605.75,-94 605.75,-63 393.25,-63"/>
<text xml:space="preserve" text-anchor="start" x="401.25" y="-74.75" font-family="Helvetica,sans-Serif" font-size="14.00">decides inheritance + scheduling</text>
<polygon fill="none" stroke="#5b6b73" points="605.75,-63 605.75,-94 824.25,-94 824.25,-63 605.75,-63"/>
<text xml:space="preserve" text-anchor="start" x="613.75" y="-74.75" font-family="Helvetica,sans-Serif" font-size="14.00">replaces child image + entry state</text>
<polygon fill="none" stroke="#5b6b73" points="824.25,-63 824.25,-94 982.75,-94 982.75,-63 824.25,-63"/>
<text xml:space="preserve" text-anchor="start" x="840.88" y="-74.75" font-family="Helvetica,sans-Serif" font-size="14.00">returns to user mode</text>
<polygon fill="#e6f3f9" stroke="none" points="1,-32 1,-63 72.5,-63 72.5,-32 1,-32"/>
<polygon fill="none" stroke="#5b6b73" points="1,-32 1,-63 72.5,-63 72.5,-32 1,-32"/>
<text xml:space="preserve" text-anchor="start" x="19.88" y="-42.7" font-family="Helvetica,sans-Serif" font-weight="bold" font-size="14.00">Child</text>
<polygon fill="none" stroke="#5b6b73" points="72.5,-32 72.5,-63 199.5,-63 199.5,-32 72.5,-32"/>
<text xml:space="preserve" text-anchor="start" x="94.38" y="-43.75" font-family="Helvetica,sans-Serif" font-size="14.00">does not exist</text>
<polygon fill="none" stroke="#5b6b73" points="199.5,-32 199.5,-63 393.25,-63 393.25,-32 199.5,-32"/>
<text xml:space="preserve" text-anchor="start" x="208.62" y="-43.75" font-family="Helvetica,sans-Serif" font-size="14.00">created with inherited context</text>
<polygon fill="none" stroke="#5b6b73" points="393.25,-32 393.25,-63 605.75,-63 605.75,-32 393.25,-32"/>
<text xml:space="preserve" text-anchor="start" x="407.25" y="-43.75" font-family="Helvetica,sans-Serif" font-size="14.00">runs with diverging control flow</text>
<polygon fill="none" stroke="#5b6b73" points="605.75,-32 605.75,-63 824.25,-63 824.25,-32 605.75,-32"/>
<text xml:space="preserve" text-anchor="start" x="641.12" y="-43.75" font-family="Helvetica,sans-Serif" font-size="14.00">program image replaced</text>
<polygon fill="none" stroke="#5b6b73" points="824.25,-32 824.25,-63 982.75,-63 982.75,-32 824.25,-32"/>
<text xml:space="preserve" text-anchor="start" x="848.75" y="-43.75" font-family="Helvetica,sans-Serif" font-size="14.00">runs new program</text>
<polygon fill="#e6f3f9" stroke="none" points="1,-1 1,-32 72.5,-32 72.5,-1 1,-1"/>
<polygon fill="none" stroke="#5b6b73" points="1,-1 1,-32 72.5,-32 72.5,-1 1,-1"/>
<text xml:space="preserve" text-anchor="start" x="9" y="-11.7" font-family="Helvetica,sans-Serif" font-weight="bold" font-size="14.00">Key idea</text>
<polygon fill="none" stroke="#5b6b73" points="72.5,-1 72.5,-32 199.5,-32 199.5,-1 72.5,-1"/>
<text xml:space="preserve" text-anchor="start" x="133.75" y="-12.75" font-family="Helvetica,sans-Serif" font-size="14.00">&#45;</text>
<polygon fill="none" stroke="#5b6b73" points="199.5,-1 199.5,-32 393.25,-32 393.25,-1 199.5,-1"/>
<text xml:space="preserve" text-anchor="start" x="207.5" y="-12.75" font-family="Helvetica,sans-Serif" font-size="14.00">identity + inheritance decision</text>
<polygon fill="none" stroke="#5b6b73" points="393.25,-1 393.25,-32 605.75,-32 605.75,-1 393.25,-1"/>
<text xml:space="preserve" text-anchor="start" x="417.38" y="-12.75" font-family="Helvetica,sans-Serif" font-size="14.00">duplication then divergence</text>
<polygon fill="none" stroke="#5b6b73" points="605.75,-1 605.75,-32 824.25,-32 824.25,-1 605.75,-1"/>
<text xml:space="preserve" text-anchor="start" x="656.88" y="-12.75" font-family="Helvetica,sans-Serif" font-size="14.00">image replacement</text>
<polygon fill="none" stroke="#5b6b73" points="824.25,-1 824.25,-32 982.75,-32 982.75,-1 824.25,-1"/>
<text xml:space="preserve" text-anchor="start" x="832.25" y="-12.75" font-family="Helvetica,sans-Serif" font-size="14.00">new execution meaning</text>
<polygon fill="none" stroke="#5b6b73" points="0,0 0,-157 983.75,-157 983.75,0 0,0"/>
</g>
</g>
</svg>
