<?xml version="1.0" encoding="UTF-8" standalone="no"?>
<!DOCTYPE svg PUBLIC "-//W3C//DTD SVG 1.1//EN"
 "http://www.w3.org/Graphics/SVG/1.1/DTD/svg11.dtd">
<!-- Generated by graphviz version 14.1.3 (20260303.0454)
 -->
<!-- Title: G Pages: 1 -->
<svg width="678pt" height="177pt"
 viewBox="0.00 0.00 678.00 177.00" xmlns="http://www.w3.org/2000/svg" xmlns:xlink="http://www.w3.org/1999/xlink">
<g id="graph0" class="graph" transform="scale(1 1) rotate(0) translate(18 159)">
<title>G</title>
<polygon fill="white" stroke="none" points="-18,18 -18,-159 660.25,-159 660.25,18 -18,18"/>
<!-- new -->
<g id="node1" class="node">
<title>new</title>
<path fill="#f5f5f5" stroke="#5b6b73" d="M42,-72C42,-72 12,-72 12,-72 6,-72 0,-66 0,-60 0,-60 0,-48 0,-48 0,-42 6,-36 12,-36 12,-36 42,-36 42,-36 48,-36 54,-42 54,-48 54,-48 54,-60 54,-60 54,-66 48,-72 42,-72"/>
<text xml:space="preserve" text-anchor="middle" x="27" y="-48.2" font-family="Helvetica,sans-Serif" font-size="14.00" fill="#233238">new</text>
</g>
<!-- ready -->
<g id="node2" class="node">
<title>ready</title>
<path fill="#ddeaf1" stroke="#5b6b73" d="M180.25,-72C180.25,-72 150.25,-72 150.25,-72 144.25,-72 138.25,-66 138.25,-60 138.25,-60 138.25,-48 138.25,-48 138.25,-42 144.25,-36 150.25,-36 150.25,-36 180.25,-36 180.25,-36 186.25,-36 192.25,-42 192.25,-48 192.25,-48 192.25,-60 192.25,-60 192.25,-66 186.25,-72 180.25,-72"/>
<text xml:space="preserve" text-anchor="middle" x="165.25" y="-48.2" font-family="Helvetica,sans-Serif" font-size="14.00" fill="#233238">ready</text>
</g>
<!-- new&#45;&gt;ready -->
<g id="edge1" class="edge">
<title>new&#45;&gt;ready</title>
<path fill="none" stroke="#5b6b73" stroke-width="1.1" d="M54.27,-54C75.38,-54 105.25,-54 128.53,-54"/>
<polygon fill="#5b6b73" stroke="#5b6b73" stroke-width="1.1" points="128.4,-56.8 136.4,-54 128.4,-51.2 128.4,-56.8"/>
<text xml:space="preserve" text-anchor="middle" x="96.12" y="-55.55" font-family="Helvetica,sans-Serif" font-size="11.00">admit</text>
</g>
<!-- running -->
<g id="node3" class="node">
<title>running</title>
<path fill="#bfe2f1" stroke="#5b6b73" d="M389.5,-108C389.5,-108 352.5,-108 352.5,-108 346.5,-108 340.5,-102 340.5,-96 340.5,-96 340.5,-84 340.5,-84 340.5,-78 346.5,-72 352.5,-72 352.5,-72 389.5,-72 389.5,-72 395.5,-72 401.5,-78 401.5,-84 401.5,-84 401.5,-96 401.5,-96 401.5,-102 395.5,-108 389.5,-108"/>
<text xml:space="preserve" text-anchor="middle" x="371" y="-84.2" font-family="Helvetica,sans-Serif" font-size="14.00" fill="#233238">running</text>
</g>
<!-- ready&#45;&gt;running -->
<g id="edge2" class="edge">
<title>ready&#45;&gt;running</title>
<path fill="none" stroke="#5b6b73" stroke-width="1.1" d="M192.69,-68.3C201.53,-72.45 211.6,-76.53 221.25,-79 257.59,-88.29 300.42,-90.59 330.76,-90.83"/>
<polygon fill="#5b6b73" stroke="#5b6b73" stroke-width="1.1" points="330.48,-93.63 338.49,-90.84 330.49,-88.03 330.48,-93.63"/>
<text xml:space="preserve" text-anchor="middle" x="254.62" y="-90.5" font-family="Helvetica,sans-Serif" font-size="11.00">dispatch</text>
</g>
<!-- running&#45;&gt;ready -->
<g id="edge3" class="edge">
<title>running&#45;&gt;ready</title>
<path fill="none" stroke="#5b6b73" stroke-width="1.1" d="M344.46,-71.6C328.96,-61.59 308.29,-50.2 288,-45 259.54,-37.71 226.21,-40.95 201.63,-45.46"/>
<polygon fill="#5b6b73" stroke="#5b6b73" stroke-width="1.1" points="201.27,-42.67 193.96,-46.97 202.35,-48.17 201.27,-42.67"/>
<text xml:space="preserve" text-anchor="middle" x="254.62" y="-58.55" font-family="Helvetica,sans-Serif" font-size="11.00">timer expires</text>
<text xml:space="preserve" text-anchor="middle" x="254.62" y="-46.55" font-family="Helvetica,sans-Serif" font-size="11.00">or preemption</text>
</g>
<!-- waiting -->
<g id="node4" class="node">
<title>waiting</title>
<path fill="#d5edf7" stroke="#5b6b73" d="M619,-36C619,-36 585,-36 585,-36 579,-36 573,-30 573,-24 573,-24 573,-12 573,-12 573,-6 579,0 585,0 585,0 619,0 619,0 625,0 631,-6 631,-12 631,-12 631,-24 631,-24 631,-30 625,-36 619,-36"/>
<text xml:space="preserve" text-anchor="middle" x="602" y="-12.2" font-family="Helvetica,sans-Serif" font-size="14.00" fill="#233238">waiting</text>
</g>
<!-- running&#45;&gt;waiting -->
<g id="edge4" class="edge">
<title>running&#45;&gt;waiting</title>
<path fill="none" stroke="#5b6b73" stroke-width="1.1" d="M401.94,-80.59C443.48,-67.53 518.57,-43.92 563.7,-29.73"/>
<polygon fill="#5b6b73" stroke="#5b6b73" stroke-width="1.1" points="564.47,-32.42 571.26,-27.35 562.79,-27.08 564.47,-32.42"/>
<text xml:space="preserve" text-anchor="middle" x="493.38" y="-76.12" font-family="Helvetica,sans-Serif" font-size="11.00">I/O request,</text>
<text xml:space="preserve" text-anchor="middle" x="493.38" y="-64.12" font-family="Helvetica,sans-Serif" font-size="11.00">sleep, or wait</text>
</g>
<!-- terminated -->
<g id="node5" class="node">
<title>terminated</title>
<path fill="#f5f5f5" stroke="#5b6b73" d="M630.25,-141C630.25,-141 573.75,-141 573.75,-141 567.75,-141 561.75,-135 561.75,-129 561.75,-129 561.75,-117 561.75,-117 561.75,-111 567.75,-105 573.75,-105 573.75,-105 630.25,-105 630.25,-105 636.25,-105 642.25,-111 642.25,-117 642.25,-117 642.25,-129 642.25,-129 642.25,-135 636.25,-141 630.25,-141"/>
<text xml:space="preserve" text-anchor="middle" x="602" y="-117.2" font-family="Helvetica,sans-Serif" font-size="14.00" fill="#233238">terminated</text>
</g>
<!-- running&#45;&gt;terminated -->
<g id="edge6" class="edge">
<title>running&#45;&gt;terminated</title>
<path fill="none" stroke="#5b6b73" stroke-width="1.1" d="M401.94,-94.31C440.08,-99.81 506.51,-109.38 552.06,-115.95"/>
<polygon fill="#5b6b73" stroke="#5b6b73" stroke-width="1.1" points="551.48,-118.69 559.8,-117.06 552.28,-113.15 551.48,-118.69"/>
<text xml:space="preserve" text-anchor="middle" x="493.38" y="-113.88" font-family="Helvetica,sans-Serif" font-size="11.00">exit or fatal error</text>
</g>
<!-- waiting&#45;&gt;ready -->
<g id="edge5" class="edge">
<title>waiting&#45;&gt;ready</title>
<path fill="none" stroke="#5b6b73" stroke-width="1.1" d="M572.94,-15.55C509.42,-10.74 350.14,-2.83 221.25,-31 214.58,-32.46 207.69,-34.69 201.14,-37.21"/>
<polygon fill="#5b6b73" stroke="#5b6b73" stroke-width="1.1" points="200.35,-34.5 194.01,-40.13 202.48,-39.69 200.35,-34.5"/>
<text xml:space="preserve" text-anchor="middle" x="371" y="-17.89" font-family="Helvetica,sans-Serif" font-size="11.00">event or I/O completes</text>
</g>
</g>
</svg>
