<?xml version="1.0" encoding="UTF-8" standalone="no"?>
<!DOCTYPE svg PUBLIC "-//W3C//DTD SVG 1.1//EN"
 "http://www.w3.org/Graphics/SVG/1.1/DTD/svg11.dtd">
<!-- Generated by graphviz version 14.1.3 (20260303.0454)
 -->
<!-- Title: G Pages: 1 -->
<svg width="1021pt" height="201pt"
 viewBox="0.00 0.00 1021.00 201.00" xmlns="http://www.w3.org/2000/svg" xmlns:xlink="http://www.w3.org/1999/xlink">
<g id="graph0" class="graph" transform="scale(1 1) rotate(0) translate(18 182.5)">
<title>G</title>
<polygon fill="white" stroke="none" points="-18,18 -18,-182.5 1003,-182.5 1003,18 -18,18"/>
<!-- run -->
<g id="node1" class="node">
<title>run</title>
<path fill="#bfe2f1" stroke="#5b6b73" d="M70.75,-88C70.75,-88 12,-88 12,-88 6,-88 0,-82 0,-76 0,-76 0,-62 0,-62 0,-56 6,-50 12,-50 12,-50 70.75,-50 70.75,-50 76.75,-50 82.75,-56 82.75,-62 82.75,-62 82.75,-76 82.75,-76 82.75,-82 76.75,-88 70.75,-88"/>
<text xml:space="preserve" text-anchor="middle" x="41.38" y="-70.7" font-family="Helvetica,sans-Serif" font-size="14.00" fill="#233238">running</text>
<text xml:space="preserve" text-anchor="middle" x="41.38" y="-55.7" font-family="Helvetica,sans-Serif" font-size="14.00" fill="#233238">(executing)</text>
</g>
<!-- term -->
<g id="node2" class="node">
<title>term</title>
<path fill="#f7e9c5" stroke="#5b6b73" d="M337.25,-88C337.25,-88 237.25,-88 237.25,-88 231.25,-88 225.25,-82 225.25,-76 225.25,-76 225.25,-62 225.25,-62 225.25,-56 231.25,-50 237.25,-50 237.25,-50 337.25,-50 337.25,-50 343.25,-50 349.25,-56 349.25,-62 349.25,-62 349.25,-76 349.25,-76 349.25,-82 343.25,-88 337.25,-88"/>
<text xml:space="preserve" text-anchor="middle" x="287.25" y="-70.7" font-family="Helvetica,sans-Serif" font-size="14.00" fill="#233238">terminated</text>
<text xml:space="preserve" text-anchor="middle" x="287.25" y="-55.7" font-family="Helvetica,sans-Serif" font-size="14.00" fill="#233238">(execution ended)</text>
</g>
<!-- run&#45;&gt;term -->
<g id="edge1" class="edge">
<title>run&#45;&gt;term</title>
<path fill="none" stroke="#5b6b73" stroke-width="1.05" d="M83.19,-69C119.4,-69 173.07,-69 216.14,-69"/>
<polygon fill="#5b6b73" stroke="#5b6b73" stroke-width="1.05" points="216.07,-71.63 223.57,-69 216.07,-66.38 216.07,-71.63"/>
<text xml:space="preserve" text-anchor="middle" x="154" y="-70.55" font-family="Helvetica,sans-Serif" font-size="11.00">exit / fatal signal</text>
</g>
<!-- zomb -->
<g id="node3" class="node">
<title>zomb</title>
<path fill="#f2d6d6" stroke="#5b6b73" d="M686.25,-164.5C686.25,-164.5 596.75,-164.5 596.75,-164.5 590.75,-164.5 584.75,-158.5 584.75,-152.5 584.75,-152.5 584.75,-123.5 584.75,-123.5 584.75,-117.5 590.75,-111.5 596.75,-111.5 596.75,-111.5 686.25,-111.5 686.25,-111.5 692.25,-111.5 698.25,-117.5 698.25,-123.5 698.25,-123.5 698.25,-152.5 698.25,-152.5 698.25,-158.5 692.25,-164.5 686.25,-164.5"/>
<text xml:space="preserve" text-anchor="middle" x="641.5" y="-147.2" font-family="Helvetica,sans-Serif" font-size="14.00" fill="#233238">zombie</text>
<text xml:space="preserve" text-anchor="middle" x="641.5" y="-132.2" font-family="Helvetica,sans-Serif" font-size="14.00" fill="#233238">(status retained)</text>
<text xml:space="preserve" text-anchor="middle" x="641.5" y="-117.2" font-family="Helvetica,sans-Serif" font-size="14.00" fill="#233238">(not runnable)</text>
</g>
<!-- term&#45;&gt;zomb -->
<g id="edge2" class="edge">
<title>term&#45;&gt;zomb</title>
<path fill="none" stroke="#5b6b73" stroke-width="1.05" d="M349.61,-81.02C412.86,-93.41 511.1,-112.65 575.62,-125.29"/>
<polygon fill="#5b6b73" stroke="#5b6b73" stroke-width="1.05" points="575.07,-127.86 582.93,-126.72 576.08,-122.71 575.07,-127.86"/>
<text xml:space="preserve" text-anchor="middle" x="448.62" y="-125.26" font-family="Helvetica,sans-Serif" font-size="11.00">kernel frees most resources</text>
<text xml:space="preserve" text-anchor="middle" x="448.62" y="-113.26" font-family="Helvetica,sans-Serif" font-size="11.00">keeps PID + exit status</text>
</g>
<!-- orphan -->
<g id="node5" class="node">
<title>orphan</title>
<polygon fill="#ffffff" stroke="#9aa7ae" points="729,-68 548,-68 548,0 735,0 735,-62 729,-68"/>
<polyline fill="none" stroke="#9aa7ae" points="729,-68 729,-62"/>
<polyline fill="none" stroke="#9aa7ae" points="735,-62 729,-62"/>
<text xml:space="preserve" text-anchor="middle" x="641.5" y="-50.7" font-family="Helvetica,sans-Serif" font-size="14.00" fill="#233238">orphan case:</text>
<text xml:space="preserve" text-anchor="middle" x="641.5" y="-35.7" font-family="Helvetica,sans-Serif" font-size="14.00" fill="#233238">if parent dies first,</text>
<text xml:space="preserve" text-anchor="middle" x="641.5" y="-20.7" font-family="Helvetica,sans-Serif" font-size="14.00" fill="#233238">child is reparented to init</text>
<text xml:space="preserve" text-anchor="middle" x="641.5" y="-5.7" font-family="Helvetica,sans-Serif" font-size="14.00" fill="#233238">so someone can reap it later</text>
</g>
<!-- term&#45;&gt;orphan -->
<g id="edge4" class="edge">
<title>term&#45;&gt;orphan</title>
<path fill="none" stroke="#5b6b73" stroke-width="1.05" stroke-dasharray="1,5" d="M349.61,-62.9C404.31,-57.47 485.16,-49.43 547.76,-43.22"/>
</g>
<!-- gone -->
<g id="node4" class="node">
<title>gone</title>
<path fill="#f5f5f5" stroke="#5b6b73" d="M973,-157C973,-157 876.75,-157 876.75,-157 870.75,-157 864.75,-151 864.75,-145 864.75,-145 864.75,-131 864.75,-131 864.75,-125 870.75,-119 876.75,-119 876.75,-119 973,-119 973,-119 979,-119 985,-125 985,-131 985,-131 985,-145 985,-145 985,-151 979,-157 973,-157"/>
<text xml:space="preserve" text-anchor="middle" x="924.88" y="-139.7" font-family="Helvetica,sans-Serif" font-size="14.00" fill="#233238">reaped</text>
<text xml:space="preserve" text-anchor="middle" x="924.88" y="-124.7" font-family="Helvetica,sans-Serif" font-size="14.00" fill="#233238">(record removed)</text>
</g>
<!-- zomb&#45;&gt;gone -->
<g id="edge3" class="edge">
<title>zomb&#45;&gt;gone</title>
<path fill="none" stroke="#5b6b73" stroke-width="1.05" d="M698.43,-138C743.69,-138 807.62,-138 855.84,-138"/>
<polygon fill="#5b6b73" stroke="#5b6b73" stroke-width="1.05" points="855.57,-140.63 863.07,-138 855.57,-135.38 855.57,-140.63"/>
<text xml:space="preserve" text-anchor="middle" x="799.88" y="-151.55" font-family="Helvetica,sans-Serif" font-size="11.00">parent waits</text>
<text xml:space="preserve" text-anchor="middle" x="799.88" y="-139.55" font-family="Helvetica,sans-Serif" font-size="11.00">(wait/waitpid)</text>
</g>
</g>
</svg>
