<?xml version="1.0" encoding="UTF-8" standalone="no"?>
<!DOCTYPE svg PUBLIC "-//W3C//DTD SVG 1.1//EN"
 "http://www.w3.org/Graphics/SVG/1.1/DTD/svg11.dtd">
<!-- Generated by graphviz version 14.1.3 (20260303.0454)
 -->
<!-- Title: G Pages: 1 -->
<svg width="980pt" height="186pt"
 viewBox="0.00 0.00 980.00 186.00" xmlns="http://www.w3.org/2000/svg" xmlns:xlink="http://www.w3.org/1999/xlink">
<g id="graph0" class="graph" transform="scale(1 1) rotate(0) translate(14.4 171.4)">
<title>G</title>
<polygon fill="white" stroke="none" points="-14.4,14.4 -14.4,-171.4 965.9,-171.4 965.9,14.4 -14.4,14.4"/>
<!-- trace -->
<g id="node1" class="node">
<title>trace</title>
<polygon fill="#f5f5f5" stroke="none" points="1,-125 1,-156 72.5,-156 72.5,-125 1,-125"/>
<polygon fill="none" stroke="#5b6b73" points="1,-125 1,-156 72.5,-156 72.5,-125 1,-125"/>
<text xml:space="preserve" text-anchor="start" x="21" y="-135.7" font-family="Helvetica,sans-Serif" font-weight="bold" font-size="14.00">Lane</text>
<polygon fill="#f5f5f5" stroke="none" points="72.5,-125 72.5,-156 195,-156 195,-125 72.5,-125"/>
<polygon fill="none" stroke="#5b6b73" points="72.5,-125 72.5,-156 195,-156 195,-125 72.5,-125"/>
<text xml:space="preserve" text-anchor="start" x="106.38" y="-135.7" font-family="Helvetica,sans-Serif" font-weight="bold" font-size="14.00">Running</text>
<polygon fill="#f5f5f5" stroke="none" points="195,-125 195,-156 394,-156 394,-125 195,-125"/>
<polygon fill="none" stroke="#5b6b73" points="195,-125 195,-156 394,-156 394,-125 195,-125"/>
<text xml:space="preserve" text-anchor="start" x="278.38" y="-135.7" font-family="Helvetica,sans-Serif" font-weight="bold" font-size="14.00">exit()</text>
<polygon fill="#f5f5f5" stroke="none" points="394,-125 394,-156 610.25,-156 610.25,-125 394,-125"/>
<polygon fill="none" stroke="#5b6b73" points="394,-125 394,-156 610.25,-156 610.25,-125 394,-125"/>
<text xml:space="preserve" text-anchor="start" x="456.38" y="-135.7" font-family="Helvetica,sans-Serif" font-weight="bold" font-size="14.00">Zombie phase</text>
<polygon fill="#f5f5f5" stroke="none" points="610.25,-125 610.25,-156 799.5,-156 799.5,-125 610.25,-125"/>
<polygon fill="none" stroke="#5b6b73" points="610.25,-125 610.25,-156 799.5,-156 799.5,-125 610.25,-125"/>
<text xml:space="preserve" text-anchor="start" x="686.88" y="-135.7" font-family="Helvetica,sans-Serif" font-weight="bold" font-size="14.00">wait()</text>
<polygon fill="#f5f5f5" stroke="none" points="799.5,-125 799.5,-156 950.5,-156 950.5,-125 799.5,-125"/>
<polygon fill="none" stroke="#5b6b73" points="799.5,-125 799.5,-156 950.5,-156 950.5,-125 799.5,-125"/>
<text xml:space="preserve" text-anchor="start" x="850.62" y="-135.7" font-family="Helvetica,sans-Serif" font-weight="bold" font-size="14.00">Reaped</text>
<polygon fill="#e6f3f9" stroke="none" points="1,-94 1,-125 72.5,-125 72.5,-94 1,-94"/>
<polygon fill="none" stroke="#5b6b73" points="1,-94 1,-125 72.5,-125 72.5,-94 1,-94"/>
<text xml:space="preserve" text-anchor="start" x="19.88" y="-104.7" font-family="Helvetica,sans-Serif" font-weight="bold" font-size="14.00">Child</text>
<polygon fill="none" stroke="#5b6b73" points="72.5,-94 72.5,-125 195,-125 195,-94 72.5,-94"/>
<text xml:space="preserve" text-anchor="start" x="104.88" y="-105.75" font-family="Helvetica,sans-Serif" font-size="14.00">executing</text>
<polygon fill="none" stroke="#5b6b73" points="195,-94 195,-125 394,-125 394,-94 195,-94"/>
<text xml:space="preserve" text-anchor="start" x="213.88" y="-105.75" font-family="Helvetica,sans-Serif" font-size="14.00">terminates + reports status</text>
<polygon fill="none" stroke="#5b6b73" points="394,-94 394,-125 610.25,-125 610.25,-94 394,-94"/>
<text xml:space="preserve" text-anchor="start" x="463.88" y="-105.75" font-family="Helvetica,sans-Serif" font-size="14.00">no execution</text>
<polygon fill="none" stroke="#5b6b73" points="610.25,-94 610.25,-125 799.5,-125 799.5,-94 610.25,-94"/>
<text xml:space="preserve" text-anchor="start" x="666.62" y="-105.75" font-family="Helvetica,sans-Serif" font-size="14.00">no execution</text>
<polygon fill="none" stroke="#5b6b73" points="799.5,-94 799.5,-125 950.5,-125 950.5,-94 799.5,-94"/>
<text xml:space="preserve" text-anchor="start" x="834.5" y="-105.75" font-family="Helvetica,sans-Serif" font-size="14.00">fully removed</text>
<polygon fill="#e6f3f9" stroke="none" points="1,-63 1,-94 72.5,-94 72.5,-63 1,-63"/>
<polygon fill="none" stroke="#5b6b73" points="1,-63 1,-94 72.5,-94 72.5,-63 1,-63"/>
<text xml:space="preserve" text-anchor="start" x="15.75" y="-73.7" font-family="Helvetica,sans-Serif" font-weight="bold" font-size="14.00">Kernel</text>
<polygon fill="none" stroke="#5b6b73" points="72.5,-63 72.5,-94 195,-94 195,-63 72.5,-63"/>
<text xml:space="preserve" text-anchor="start" x="87.62" y="-74.75" font-family="Helvetica,sans-Serif" font-size="14.00">schedules child</text>
<polygon fill="none" stroke="#5b6b73" points="195,-63 195,-94 394,-94 394,-63 195,-63"/>
<text xml:space="preserve" text-anchor="start" x="203" y="-74.75" font-family="Helvetica,sans-Serif" font-size="14.00">records status, begins cleanup</text>
<polygon fill="none" stroke="#5b6b73" points="394,-63 394,-94 610.25,-94 610.25,-63 394,-63"/>
<text xml:space="preserve" text-anchor="start" x="422.62" y="-74.75" font-family="Helvetica,sans-Serif" font-size="14.00">retains table entry + status</text>
<polygon fill="none" stroke="#5b6b73" points="610.25,-63 610.25,-94 799.5,-94 799.5,-63 610.25,-63"/>
<text xml:space="preserve" text-anchor="start" x="635.5" y="-74.75" font-family="Helvetica,sans-Serif" font-size="14.00">returns status to parent</text>
<polygon fill="none" stroke="#5b6b73" points="799.5,-63 799.5,-94 950.5,-94 950.5,-63 799.5,-63"/>
<text xml:space="preserve" text-anchor="start" x="807.5" y="-74.75" font-family="Helvetica,sans-Serif" font-size="14.00">final cleanup complete</text>
<polygon fill="#e6f3f9" stroke="none" points="1,-32 1,-63 72.5,-63 72.5,-32 1,-32"/>
<polygon fill="none" stroke="#5b6b73" points="1,-32 1,-63 72.5,-63 72.5,-32 1,-32"/>
<text xml:space="preserve" text-anchor="start" x="15.75" y="-42.7" font-family="Helvetica,sans-Serif" font-weight="bold" font-size="14.00">Parent</text>
<polygon fill="none" stroke="#5b6b73" points="72.5,-32 72.5,-63 195,-63 195,-32 72.5,-32"/>
<text xml:space="preserve" text-anchor="start" x="80.5" y="-43.75" font-family="Helvetica,sans-Serif" font-size="14.00">running or waiting</text>
<polygon fill="none" stroke="#5b6b73" points="195,-32 195,-63 394,-63 394,-32 195,-32"/>
<text xml:space="preserve" text-anchor="start" x="254" y="-43.75" font-family="Helvetica,sans-Serif" font-size="14.00">may continue</text>
<polygon fill="none" stroke="#5b6b73" points="394,-32 394,-63 610.25,-63 610.25,-32 394,-32"/>
<text xml:space="preserve" text-anchor="start" x="402" y="-43.75" font-family="Helvetica,sans-Serif" font-size="14.00">may not have collected status yet</text>
<polygon fill="none" stroke="#5b6b73" points="610.25,-32 610.25,-63 799.5,-63 799.5,-32 610.25,-32"/>
<text xml:space="preserve" text-anchor="start" x="638.12" y="-43.75" font-family="Helvetica,sans-Serif" font-size="14.00">collects status via wait</text>
<polygon fill="none" stroke="#5b6b73" points="799.5,-32 799.5,-63 950.5,-63 950.5,-32 799.5,-32"/>
<text xml:space="preserve" text-anchor="start" x="819.5" y="-43.75" font-family="Helvetica,sans-Serif" font-size="14.00">observes outcome</text>
<polygon fill="#e6f3f9" stroke="none" points="1,-1 1,-32 72.5,-32 72.5,-1 1,-1"/>
<polygon fill="none" stroke="#5b6b73" points="1,-1 1,-32 72.5,-32 72.5,-1 1,-1"/>
<text xml:space="preserve" text-anchor="start" x="9" y="-11.7" font-family="Helvetica,sans-Serif" font-weight="bold" font-size="14.00">Key idea</text>
<polygon fill="none" stroke="#5b6b73" points="72.5,-1 72.5,-32 195,-32 195,-1 72.5,-1"/>
<text xml:space="preserve" text-anchor="start" x="131.5" y="-12.75" font-family="Helvetica,sans-Serif" font-size="14.00">&#45;</text>
<polygon fill="none" stroke="#5b6b73" points="195,-1 195,-32 394,-32 394,-1 195,-1"/>
<text xml:space="preserve" text-anchor="start" x="249.12" y="-12.75" font-family="Helvetica,sans-Serif" font-size="14.00">execution ends</text>
<polygon fill="none" stroke="#5b6b73" points="394,-1 394,-32 610.25,-32 610.25,-1 394,-1"/>
<text xml:space="preserve" text-anchor="start" x="426.75" y="-12.75" font-family="Helvetica,sans-Serif" font-size="14.00">status survives execution</text>
<polygon fill="none" stroke="#5b6b73" points="610.25,-1 610.25,-32 799.5,-32 799.5,-1 610.25,-1"/>
<text xml:space="preserve" text-anchor="start" x="618.25" y="-12.75" font-family="Helvetica,sans-Serif" font-size="14.00">collection authorizes deletion</text>
<polygon fill="none" stroke="#5b6b73" points="799.5,-1 799.5,-32 950.5,-32 950.5,-1 799.5,-1"/>
<text xml:space="preserve" text-anchor="start" x="808.25" y="-12.75" font-family="Helvetica,sans-Serif" font-size="14.00">bookkeeping removed</text>
<polygon fill="none" stroke="#5b6b73" points="0,0 0,-157 951.5,-157 951.5,0 0,0"/>
</g>
</g>
</svg>
