<?xml version="1.0" encoding="UTF-8" standalone="no"?>
<!DOCTYPE svg PUBLIC "-//W3C//DTD SVG 1.1//EN"
 "http://www.w3.org/Graphics/SVG/1.1/DTD/svg11.dtd">
<!-- Generated by graphviz version 14.1.3 (20260303.0454)
 -->
<!-- Title: G Pages: 1 -->
<svg width="414pt" height="217pt"
 viewBox="0.00 0.00 414.00 217.00" xmlns="http://www.w3.org/2000/svg" xmlns:xlink="http://www.w3.org/1999/xlink">
<g id="graph0" class="graph" transform="scale(1 1) rotate(0) translate(14.4 202.4)">
<title>G</title>
<polygon fill="white" stroke="none" points="-14.4,14.4 -14.4,-202.4 399.15,-202.4 399.15,14.4 -14.4,14.4"/>
<!-- trace -->
<g id="node1" class="node">
<title>trace</title>
<polygon fill="#f5f5f5" stroke="none" points="1,-156 1,-187 53.75,-187 53.75,-156 1,-156"/>
<polygon fill="none" stroke="#5b6b73" points="1,-156 1,-187 53.75,-187 53.75,-156 1,-156"/>
<text xml:space="preserve" text-anchor="start" x="11.25" y="-166.7" font-family="Helvetica,sans-Serif" font-weight="bold" font-size="14.00">Time</text>
<polygon fill="#f5f5f5" stroke="none" points="53.75,-156 53.75,-187 182.25,-187 182.25,-156 53.75,-156"/>
<polygon fill="none" stroke="#5b6b73" points="53.75,-156 53.75,-187 182.25,-187 182.25,-156 53.75,-156"/>
<text xml:space="preserve" text-anchor="start" x="88.75" y="-166.7" font-family="Helvetica,sans-Serif" font-weight="bold" font-size="14.00">Thread A</text>
<polygon fill="#f5f5f5" stroke="none" points="182.25,-156 182.25,-187 310.75,-187 310.75,-156 182.25,-156"/>
<polygon fill="none" stroke="#5b6b73" points="182.25,-156 182.25,-187 310.75,-187 310.75,-156 182.25,-156"/>
<text xml:space="preserve" text-anchor="start" x="217.25" y="-166.7" font-family="Helvetica,sans-Serif" font-weight="bold" font-size="14.00">Thread B</text>
<polygon fill="#f5f5f5" stroke="none" points="310.75,-156 310.75,-187 383.75,-187 383.75,-156 310.75,-156"/>
<polygon fill="none" stroke="#5b6b73" points="310.75,-156 310.75,-187 383.75,-187 383.75,-156 310.75,-156"/>
<text xml:space="preserve" text-anchor="start" x="318.75" y="-166.7" font-family="Helvetica,sans-Serif" font-weight="bold" font-size="14.00">Shared x</text>
<polygon fill="#e6f3f9" stroke="none" points="1,-125 1,-156 53.75,-156 53.75,-125 1,-125"/>
<polygon fill="none" stroke="#5b6b73" points="1,-125 1,-156 53.75,-156 53.75,-125 1,-125"/>
<text xml:space="preserve" text-anchor="start" x="21.38" y="-135.7" font-family="Helvetica,sans-Serif" font-weight="bold" font-size="14.00">t0</text>
<polygon fill="none" stroke="#5b6b73" points="53.75,-125 53.75,-156 182.25,-156 182.25,-125 53.75,-125"/>
<text xml:space="preserve" text-anchor="start" x="89.88" y="-136.75" font-family="Helvetica,sans-Serif" font-size="14.00">load x (0)</text>
<polygon fill="none" stroke="#5b6b73" points="182.25,-125 182.25,-156 310.75,-156 310.75,-125 182.25,-125"/>
<text xml:space="preserve" text-anchor="start" x="244.25" y="-136.75" font-family="Helvetica,sans-Serif" font-size="14.00">&#45;</text>
<polygon fill="none" stroke="#5b6b73" points="310.75,-125 310.75,-156 383.75,-156 383.75,-125 310.75,-125"/>
<text xml:space="preserve" text-anchor="start" x="343.5" y="-136.75" font-family="Helvetica,sans-Serif" font-size="14.00">0</text>
<polygon fill="#e6f3f9" stroke="none" points="1,-94 1,-125 53.75,-125 53.75,-94 1,-94"/>
<polygon fill="none" stroke="#5b6b73" points="1,-94 1,-125 53.75,-125 53.75,-94 1,-94"/>
<text xml:space="preserve" text-anchor="start" x="21.38" y="-104.7" font-family="Helvetica,sans-Serif" font-weight="bold" font-size="14.00">t1</text>
<polygon fill="none" stroke="#5b6b73" points="53.75,-94 53.75,-125 182.25,-125 182.25,-94 53.75,-94"/>
<text xml:space="preserve" text-anchor="start" x="115.75" y="-105.75" font-family="Helvetica,sans-Serif" font-size="14.00">&#45;</text>
<polygon fill="none" stroke="#5b6b73" points="182.25,-94 182.25,-125 310.75,-125 310.75,-94 182.25,-94"/>
<text xml:space="preserve" text-anchor="start" x="218.38" y="-105.75" font-family="Helvetica,sans-Serif" font-size="14.00">load x (0)</text>
<polygon fill="none" stroke="#5b6b73" points="310.75,-94 310.75,-125 383.75,-125 383.75,-94 310.75,-94"/>
<text xml:space="preserve" text-anchor="start" x="343.5" y="-105.75" font-family="Helvetica,sans-Serif" font-size="14.00">0</text>
<polygon fill="#e6f3f9" stroke="none" points="1,-63 1,-94 53.75,-94 53.75,-63 1,-63"/>
<polygon fill="none" stroke="#5b6b73" points="1,-63 1,-94 53.75,-94 53.75,-63 1,-63"/>
<text xml:space="preserve" text-anchor="start" x="21.38" y="-73.7" font-family="Helvetica,sans-Serif" font-weight="bold" font-size="14.00">t2</text>
<polygon fill="none" stroke="#5b6b73" points="53.75,-63 53.75,-94 182.25,-94 182.25,-63 53.75,-63"/>
<text xml:space="preserve" text-anchor="start" x="61.75" y="-74.75" font-family="Helvetica,sans-Serif" font-size="14.00">compute 1; store 1</text>
<polygon fill="none" stroke="#5b6b73" points="182.25,-63 182.25,-94 310.75,-94 310.75,-63 182.25,-63"/>
<text xml:space="preserve" text-anchor="start" x="244.25" y="-74.75" font-family="Helvetica,sans-Serif" font-size="14.00">&#45;</text>
<polygon fill="none" stroke="#5b6b73" points="310.75,-63 310.75,-94 383.75,-94 383.75,-63 310.75,-63"/>
<text xml:space="preserve" text-anchor="start" x="343.5" y="-73.7" font-family="Helvetica,sans-Serif" font-weight="bold" font-size="14.00">1</text>
<polygon fill="#e6f3f9" stroke="none" points="1,-32 1,-63 53.75,-63 53.75,-32 1,-32"/>
<polygon fill="none" stroke="#5b6b73" points="1,-32 1,-63 53.75,-63 53.75,-32 1,-32"/>
<text xml:space="preserve" text-anchor="start" x="21.38" y="-42.7" font-family="Helvetica,sans-Serif" font-weight="bold" font-size="14.00">t3</text>
<polygon fill="none" stroke="#5b6b73" points="53.75,-32 53.75,-63 182.25,-63 182.25,-32 53.75,-32"/>
<text xml:space="preserve" text-anchor="start" x="115.75" y="-43.75" font-family="Helvetica,sans-Serif" font-size="14.00">&#45;</text>
<polygon fill="none" stroke="#5b6b73" points="182.25,-32 182.25,-63 310.75,-63 310.75,-32 182.25,-32"/>
<text xml:space="preserve" text-anchor="start" x="190.25" y="-43.75" font-family="Helvetica,sans-Serif" font-size="14.00">compute 1; store 1</text>
<polygon fill="none" stroke="#5b6b73" points="310.75,-32 310.75,-63 383.75,-63 383.75,-32 310.75,-32"/>
<text xml:space="preserve" text-anchor="start" x="343.5" y="-42.7" font-family="Helvetica,sans-Serif" font-weight="bold" font-size="14.00">1</text>
<polygon fill="#fff3cd" stroke="none" points="1,-1 1,-32 53.75,-32 53.75,-1 1,-1"/>
<polygon fill="none" stroke="#5b6b73" points="1,-1 1,-32 53.75,-32 53.75,-1 1,-1"/>
<text xml:space="preserve" text-anchor="start" x="9" y="-11.7" font-family="Helvetica,sans-Serif" font-weight="bold" font-size="14.00">result</text>
<polygon fill="none" stroke="#5b6b73" points="53.75,-1 53.75,-32 383.75,-32 383.75,-1 53.75,-1"/>
<text xml:space="preserve" text-anchor="start" x="92.75" y="-12.75" font-family="Helvetica,sans-Serif" font-size="14.00">Two increments became one: lost update.</text>
<polygon fill="none" stroke="#5b6b73" points="0,0 0,-188 384.75,-188 384.75,0 0,0"/>
</g>
</g>
</svg>
