<?xml version="1.0" encoding="UTF-8" standalone="no"?>
<!DOCTYPE svg PUBLIC "-//W3C//DTD SVG 1.1//EN"
 "http://www.w3.org/Graphics/SVG/1.1/DTD/svg11.dtd">
<!-- Generated by graphviz version 14.1.3 (20260303.0454)
 -->
<!-- Title: G Pages: 1 -->
<svg width="837pt" height="217pt"
 viewBox="0.00 0.00 837.00 217.00" xmlns="http://www.w3.org/2000/svg" xmlns:xlink="http://www.w3.org/1999/xlink">
<g id="graph0" class="graph" transform="scale(1 1) rotate(0) translate(14.4 202.4)">
<title>G</title>
<polygon fill="white" stroke="none" points="-14.4,14.4 -14.4,-202.4 822.15,-202.4 822.15,14.4 -14.4,14.4"/>
<!-- trace -->
<g id="node1" class="node">
<title>trace</title>
<polygon fill="#f5f5f5" stroke="none" points="1,-156 1,-187 80.75,-187 80.75,-156 1,-156"/>
<polygon fill="none" stroke="#5b6b73" points="1,-156 1,-187 80.75,-187 80.75,-156 1,-156"/>
<text xml:space="preserve" text-anchor="start" x="21" y="-166.7" font-family="Helvetica,sans-Serif" font-weight="bold" font-size="14.00">Phase</text>
<polygon fill="#f5f5f5" stroke="none" points="80.75,-156 80.75,-187 312.75,-187 312.75,-156 80.75,-156"/>
<polygon fill="none" stroke="#5b6b73" points="80.75,-156 80.75,-187 312.75,-187 312.75,-156 80.75,-156"/>
<text xml:space="preserve" text-anchor="start" x="176.12" y="-166.7" font-family="Helvetica,sans-Serif" font-weight="bold" font-size="14.00">Waiter</text>
<polygon fill="#f5f5f5" stroke="none" points="312.75,-156 312.75,-187 528.25,-187 528.25,-156 312.75,-156"/>
<polygon fill="none" stroke="#5b6b73" points="312.75,-156 312.75,-187 528.25,-187 528.25,-156 312.75,-156"/>
<text xml:space="preserve" text-anchor="start" x="393.88" y="-166.7" font-family="Helvetica,sans-Serif" font-weight="bold" font-size="14.00">Signaler</text>
<polygon fill="#f5f5f5" stroke="none" points="528.25,-156 528.25,-187 806.75,-187 806.75,-156 528.25,-156"/>
<polygon fill="none" stroke="#5b6b73" points="528.25,-156 528.25,-187 806.75,-187 806.75,-156 528.25,-156"/>
<text xml:space="preserve" text-anchor="start" x="609.38" y="-166.7" font-family="Helvetica,sans-Serif" font-weight="bold" font-size="14.00">Mutex + condition</text>
<polygon fill="#e6f3f9" stroke="none" points="1,-125 1,-156 80.75,-156 80.75,-125 1,-125"/>
<polygon fill="none" stroke="#5b6b73" points="1,-125 1,-156 80.75,-156 80.75,-125 1,-125"/>
<text xml:space="preserve" text-anchor="start" x="20.62" y="-135.7" font-family="Helvetica,sans-Serif" font-weight="bold" font-size="14.00">Check</text>
<polygon fill="none" stroke="#5b6b73" points="80.75,-125 80.75,-156 312.75,-156 312.75,-125 80.75,-125"/>
<text xml:space="preserve" text-anchor="start" x="112.38" y="-136.75" font-family="Helvetica,sans-Serif" font-size="14.00">holds mutex; predicate false</text>
<polygon fill="none" stroke="#5b6b73" points="312.75,-125 312.75,-156 528.25,-156 528.25,-125 312.75,-125"/>
<text xml:space="preserve" text-anchor="start" x="418.25" y="-136.75" font-family="Helvetica,sans-Serif" font-size="14.00">&#45;</text>
<polygon fill="none" stroke="#5b6b73" points="528.25,-125 528.25,-156 806.75,-156 806.75,-125 528.25,-125"/>
<text xml:space="preserve" text-anchor="start" x="593.25" y="-136.75" font-family="Helvetica,sans-Serif" font-size="14.00">state protected by mutex</text>
<polygon fill="#e6f3f9" stroke="none" points="1,-94 1,-125 80.75,-125 80.75,-94 1,-94"/>
<polygon fill="none" stroke="#5b6b73" points="1,-94 1,-125 80.75,-125 80.75,-94 1,-94"/>
<text xml:space="preserve" text-anchor="start" x="26.62" y="-104.7" font-family="Helvetica,sans-Serif" font-weight="bold" font-size="14.00">Wait</text>
<polygon fill="none" stroke="#5b6b73" points="80.75,-94 80.75,-125 312.75,-125 312.75,-94 80.75,-94"/>
<text xml:space="preserve" text-anchor="start" x="95.88" y="-105.75" font-family="Helvetica,sans-Serif" font-size="14.00">enqueue + release mutex + sleep</text>
<polygon fill="none" stroke="#5b6b73" points="312.75,-94 312.75,-125 528.25,-125 528.25,-94 312.75,-94"/>
<text xml:space="preserve" text-anchor="start" x="418.25" y="-105.75" font-family="Helvetica,sans-Serif" font-size="14.00">&#45;</text>
<polygon fill="none" stroke="#5b6b73" points="528.25,-94 528.25,-125 806.75,-125 806.75,-94 528.25,-94"/>
<text xml:space="preserve" text-anchor="start" x="573.75" y="-105.75" font-family="Helvetica,sans-Serif" font-size="14.00">wait queue now contains waiter</text>
<polygon fill="#e6f3f9" stroke="none" points="1,-63 1,-94 80.75,-94 80.75,-63 1,-63"/>
<polygon fill="none" stroke="#5b6b73" points="1,-63 1,-94 80.75,-94 80.75,-63 1,-63"/>
<text xml:space="preserve" text-anchor="start" x="9" y="-73.7" font-family="Helvetica,sans-Serif" font-weight="bold" font-size="14.00">Make true</text>
<polygon fill="none" stroke="#5b6b73" points="80.75,-63 80.75,-94 312.75,-94 312.75,-63 80.75,-63"/>
<text xml:space="preserve" text-anchor="start" x="171.62" y="-74.75" font-family="Helvetica,sans-Serif" font-size="14.00">sleeping</text>
<polygon fill="none" stroke="#5b6b73" points="312.75,-63 312.75,-94 528.25,-94 528.25,-63 312.75,-63"/>
<text xml:space="preserve" text-anchor="start" x="330.12" y="-74.75" font-family="Helvetica,sans-Serif" font-size="14.00">acquires mutex; updates state</text>
<polygon fill="none" stroke="#5b6b73" points="528.25,-63 528.25,-94 806.75,-94 806.75,-63 528.25,-63"/>
<text xml:space="preserve" text-anchor="start" x="596.62" y="-74.75" font-family="Helvetica,sans-Serif" font-size="14.00">predicate becomes true</text>
<polygon fill="#e6f3f9" stroke="none" points="1,-32 1,-63 80.75,-63 80.75,-32 1,-32"/>
<polygon fill="none" stroke="#5b6b73" points="1,-32 1,-63 80.75,-63 80.75,-32 1,-32"/>
<text xml:space="preserve" text-anchor="start" x="20.62" y="-42.7" font-family="Helvetica,sans-Serif" font-weight="bold" font-size="14.00">Signal</text>
<polygon fill="none" stroke="#5b6b73" points="80.75,-32 80.75,-63 312.75,-63 312.75,-32 80.75,-32"/>
<text xml:space="preserve" text-anchor="start" x="170.5" y="-43.75" font-family="Helvetica,sans-Serif" font-size="14.00">runnable</text>
<polygon fill="none" stroke="#5b6b73" points="312.75,-32 312.75,-63 528.25,-63 528.25,-32 312.75,-32"/>
<text xml:space="preserve" text-anchor="start" x="320.75" y="-43.75" font-family="Helvetica,sans-Serif" font-size="14.00">signals condition; releases mutex</text>
<polygon fill="none" stroke="#5b6b73" points="528.25,-32 528.25,-63 806.75,-63 806.75,-32 528.25,-32"/>
<text xml:space="preserve" text-anchor="start" x="607.88" y="-43.75" font-family="Helvetica,sans-Serif" font-size="14.00">waiter may run later</text>
<polygon fill="#e6f3f9" stroke="none" points="1,-1 1,-32 80.75,-32 80.75,-1 1,-1"/>
<polygon fill="none" stroke="#5b6b73" points="1,-1 1,-32 80.75,-32 80.75,-1 1,-1"/>
<text xml:space="preserve" text-anchor="start" x="14.25" y="-11.7" font-family="Helvetica,sans-Serif" font-weight="bold" font-size="14.00">Resume</text>
<polygon fill="none" stroke="#5b6b73" points="80.75,-1 80.75,-32 312.75,-32 312.75,-1 80.75,-1"/>
<text xml:space="preserve" text-anchor="start" x="88.75" y="-12.75" font-family="Helvetica,sans-Serif" font-size="14.00">wakes; reacquires mutex; re&#45;checks</text>
<polygon fill="none" stroke="#5b6b73" points="312.75,-1 312.75,-32 528.25,-32 528.25,-1 312.75,-1"/>
<text xml:space="preserve" text-anchor="start" x="418.25" y="-12.75" font-family="Helvetica,sans-Serif" font-size="14.00">&#45;</text>
<polygon fill="none" stroke="#5b6b73" points="528.25,-1 528.25,-32 806.75,-32 806.75,-1 528.25,-1"/>
<text xml:space="preserve" text-anchor="start" x="536.25" y="-12.75" font-family="Helvetica,sans-Serif" font-size="14.00">Mesa semantics: always re&#45;check predicate</text>
<polygon fill="none" stroke="#5b6b73" points="0,0 0,-188 807.75,-188 807.75,0 0,0"/>
</g>
</g>
</svg>
