<?xml version="1.0" encoding="UTF-8" standalone="no"?>
<!DOCTYPE svg PUBLIC "-//W3C//DTD SVG 1.1//EN"
 "http://www.w3.org/Graphics/SVG/1.1/DTD/svg11.dtd">
<!-- Generated by graphviz version 14.1.3 (20260303.0454)
 -->
<!-- Title: G Pages: 1 -->
<svg width="681pt" height="186pt"
 viewBox="0.00 0.00 681.00 186.00" xmlns="http://www.w3.org/2000/svg" xmlns:xlink="http://www.w3.org/1999/xlink">
<g id="graph0" class="graph" transform="scale(1 1) rotate(0) translate(14.4 171.4)">
<title>G</title>
<polygon fill="white" stroke="none" points="-14.4,14.4 -14.4,-171.4 666.9,-171.4 666.9,14.4 -14.4,14.4"/>
<!-- trace -->
<g id="node1" class="node">
<title>trace</title>
<polygon fill="#f5f5f5" stroke="none" points="1,-125 1,-156 68,-156 68,-125 1,-125"/>
<polygon fill="none" stroke="#5b6b73" points="1,-125 1,-156 68,-156 68,-125 1,-125"/>
<text xml:space="preserve" text-anchor="start" x="14.62" y="-135.7" font-family="Helvetica,sans-Serif" font-weight="bold" font-size="14.00">Phase</text>
<polygon fill="#f5f5f5" stroke="none" points="68,-125 68,-156 198.75,-156 198.75,-125 68,-125"/>
<polygon fill="none" stroke="#5b6b73" points="68,-125 68,-156 198.75,-156 198.75,-125 68,-125"/>
<text xml:space="preserve" text-anchor="start" x="77.5" y="-135.7" font-family="Helvetica,sans-Serif" font-weight="bold" font-size="14.00">Thread A (owner)</text>
<polygon fill="#f5f5f5" stroke="none" points="198.75,-125 198.75,-156 351.25,-156 351.25,-125 198.75,-125"/>
<polygon fill="none" stroke="#5b6b73" points="198.75,-125 198.75,-156 351.25,-156 351.25,-125 198.75,-125"/>
<text xml:space="preserve" text-anchor="start" x="206.75" y="-135.7" font-family="Helvetica,sans-Serif" font-weight="bold" font-size="14.00">Thread B (contender)</text>
<polygon fill="#f5f5f5" stroke="none" points="351.25,-125 351.25,-156 651.5,-156 651.5,-125 351.25,-125"/>
<polygon fill="none" stroke="#5b6b73" points="351.25,-125 351.25,-156 651.5,-156 651.5,-125 351.25,-125"/>
<text xml:space="preserve" text-anchor="start" x="456" y="-135.7" font-family="Helvetica,sans-Serif" font-weight="bold" font-size="14.00">Mutex / kernel</text>
<polygon fill="#e6f3f9" stroke="none" points="1,-94 1,-125 68,-125 68,-94 1,-94"/>
<polygon fill="none" stroke="#5b6b73" points="1,-94 1,-125 68,-125 68,-94 1,-94"/>
<text xml:space="preserve" text-anchor="start" x="9.38" y="-104.7" font-family="Helvetica,sans-Serif" font-weight="bold" font-size="14.00">Acquire</text>
<polygon fill="none" stroke="#5b6b73" points="68,-94 68,-125 198.75,-125 198.75,-94 68,-94"/>
<text xml:space="preserve" text-anchor="start" x="97.38" y="-105.75" font-family="Helvetica,sans-Serif" font-size="14.00">locks mutex</text>
<polygon fill="none" stroke="#5b6b73" points="198.75,-94 198.75,-125 351.25,-125 351.25,-94 198.75,-94"/>
<text xml:space="preserve" text-anchor="start" x="240.88" y="-105.75" font-family="Helvetica,sans-Serif" font-size="14.00">tries to lock</text>
<polygon fill="none" stroke="#5b6b73" points="351.25,-94 351.25,-125 651.5,-125 651.5,-94 351.25,-94"/>
<text xml:space="preserve" text-anchor="start" x="415.88" y="-105.75" font-family="Helvetica,sans-Serif" font-size="14.00">mutex becomes owned by A</text>
<polygon fill="#e6f3f9" stroke="none" points="1,-63 1,-94 68,-94 68,-63 1,-63"/>
<polygon fill="none" stroke="#5b6b73" points="1,-63 1,-94 68,-94 68,-63 1,-63"/>
<text xml:space="preserve" text-anchor="start" x="16.12" y="-73.7" font-family="Helvetica,sans-Serif" font-weight="bold" font-size="14.00">Block</text>
<polygon fill="none" stroke="#5b6b73" points="68,-63 68,-94 198.75,-94 198.75,-63 68,-63"/>
<text xml:space="preserve" text-anchor="start" x="76" y="-74.75" font-family="Helvetica,sans-Serif" font-size="14.00">runs critical section</text>
<polygon fill="none" stroke="#5b6b73" points="198.75,-63 198.75,-94 351.25,-94 351.25,-63 198.75,-63"/>
<text xml:space="preserve" text-anchor="start" x="255.5" y="-74.75" font-family="Helvetica,sans-Serif" font-size="14.00">sleeps</text>
<polygon fill="none" stroke="#5b6b73" points="351.25,-63 351.25,-94 651.5,-94 651.5,-63 351.25,-63"/>
<text xml:space="preserve" text-anchor="start" x="421.12" y="-74.75" font-family="Helvetica,sans-Serif" font-size="14.00">B enqueued on wait queue</text>
<polygon fill="#e6f3f9" stroke="none" points="1,-32 1,-63 68,-63 68,-32 1,-32"/>
<polygon fill="none" stroke="#5b6b73" points="1,-32 1,-63 68,-63 68,-32 1,-32"/>
<text xml:space="preserve" text-anchor="start" x="9" y="-42.7" font-family="Helvetica,sans-Serif" font-weight="bold" font-size="14.00">Release</text>
<polygon fill="none" stroke="#5b6b73" points="68,-32 68,-63 198.75,-63 198.75,-32 68,-32"/>
<text xml:space="preserve" text-anchor="start" x="89.88" y="-43.75" font-family="Helvetica,sans-Serif" font-size="14.00">unlocks mutex</text>
<polygon fill="none" stroke="#5b6b73" points="198.75,-32 198.75,-63 351.25,-63 351.25,-32 198.75,-32"/>
<text xml:space="preserve" text-anchor="start" x="243.5" y="-43.75" font-family="Helvetica,sans-Serif" font-size="14.00">still asleep</text>
<polygon fill="none" stroke="#5b6b73" points="351.25,-32 351.25,-63 651.5,-63 651.5,-32 351.25,-32"/>
<text xml:space="preserve" text-anchor="start" x="387" y="-43.75" font-family="Helvetica,sans-Serif" font-size="14.00">mutex becomes free; wake one waiter</text>
<polygon fill="#e6f3f9" stroke="none" points="1,-1 1,-32 68,-32 68,-1 1,-1"/>
<polygon fill="none" stroke="#5b6b73" points="1,-1 1,-32 68,-32 68,-1 1,-1"/>
<text xml:space="preserve" text-anchor="start" x="9" y="-11.7" font-family="Helvetica,sans-Serif" font-weight="bold" font-size="14.00">Handoff</text>
<polygon fill="none" stroke="#5b6b73" points="68,-1 68,-32 198.75,-32 198.75,-1 68,-1"/>
<text xml:space="preserve" text-anchor="start" x="104.5" y="-12.75" font-family="Helvetica,sans-Serif" font-size="14.00">continues</text>
<polygon fill="none" stroke="#5b6b73" points="198.75,-1 198.75,-32 351.25,-32 351.25,-1 198.75,-1"/>
<text xml:space="preserve" text-anchor="start" x="211.62" y="-12.75" font-family="Helvetica,sans-Serif" font-size="14.00">wakes; later acquires</text>
<polygon fill="none" stroke="#5b6b73" points="351.25,-1 351.25,-32 651.5,-32 651.5,-1 351.25,-1"/>
<text xml:space="preserve" text-anchor="start" x="359.25" y="-12.75" font-family="Helvetica,sans-Serif" font-size="14.00">B becomes runnable; acquires when scheduled</text>
<polygon fill="none" stroke="#5b6b73" points="0,0 0,-157 652.5,-157 652.5,0 0,0"/>
</g>
</g>
</svg>
